<svg xmlns="http://www.w3.org/2000/svg" xmlns:xlink="http://www.w3.org/1999/xlink" width="344pt" height="276" viewBox="0 0 344 207"><g id="graph0" class="graph" transform="scale(1 1) rotate(0) translate(4 203)"><title>include/miral/miral/application_info.h</title><polygon fill="#fff" stroke="transparent" points="-4 4 -4 -203 340 -203 340 4 -4 4"/><g id="node1" class="node"><title>Node0</title><polygon fill="#bfbfbf" stroke="#000" points="206 -168.5 206 -198.5 315 -198.5 315 -168.5 206 -168.5"/><text x="214" y="-186.5" fill="#000" font-family="Arial" font-size="10" text-anchor="start">include/miral/miral</text><text x="260.5" y="-175.5" fill="#000" font-family="Arial" font-size="10" text-anchor="middle">/application_info.h</text></g><g id="node2" class="node"><title>Node1</title><g id="a_node2"><a target="_top" xlink:href="application_8h.html" xlink:title="miral/application.h"><polygon fill="#fff" stroke="#000" points="124.5 -112.5 124.5 -131.5 232.5 -131.5 232.5 -112.5 124.5 -112.5"/><text x="178.5" y="-119.5" fill="#000" font-family="Arial" font-size="10" text-anchor="middle">miral/application.h</text></a></g></g><g id="edge1" class="edge"><title>Node0-&gt;Node1</title><path fill="none" stroke="#191970" d="M240.2303,-168.2977C227.8994,-159.0495 212.1734,-147.2551 199.6803,-137.8853"/><polygon fill="#191970" stroke="#191970" points="201.729 -135.047 191.629 -131.847 197.529 -140.647 201.729 -135.047"/></g><g id="node6" class="node"><title>Node5</title><polygon fill="#fff" stroke="#bfbfbf" points="235.5 -56.5 235.5 -75.5 279.5 -75.5 279.5 -56.5 235.5 -56.5"/><text x="257.5" y="-63.5" fill="#000" font-family="Arial" font-size="10" text-anchor="middle">string</text></g><g id="edge6" class="edge"><title>Node0-&gt;Node5</title><path fill="none" stroke="#191970" d="M260.1078,-168.1389C259.5673,-146.9692 258.5932,-108.8174 258.0007,-85.6112"/><polygon fill="#191970" stroke="#191970" points="261.498 -85.467 257.744 -75.559 254.5 -85.646 261.498 -85.467"/></g><g id="node7" class="node"><title>Node6</title><polygon fill="#fff" stroke="#bfbfbf" points="289 -112.5 289 -131.5 336 -131.5 336 -112.5 289 -112.5"/><text x="312.5" y="-119.5" fill="#000" font-family="Arial" font-size="10" text-anchor="middle">vector</text></g><g id="edge7" class="edge"><title>Node0-&gt;Node6</title><path fill="none" stroke="#191970" d="M273.3539,-168.2977C280.7224,-159.5831 290.0026,-148.6075 297.6777,-139.5302"/><polygon fill="#191970" stroke="#191970" points="300.39 -141.743 304.174 -131.847 295.045 -137.223 300.39 -141.743"/></g><g id="node3" class="node"><title>Node2</title><g id="a_node3"><a target="_top" xlink:href="common_8h.html" xlink:title="mir_toolkit/common.h"><polygon fill="#fff" stroke="#000" points="10 -56.5 10 -75.5 135 -75.5 135 -56.5 10 -56.5"/><text x="72.5" y="-63.5" fill="#000" font-family="Arial" font-size="10" text-anchor="middle">mir_toolkit/common.h</text></a></g></g><g id="edge2" class="edge"><title>Node1-&gt;Node2</title><path fill="none" stroke="#191970" d="M160.0362,-112.2455C143.3926,-103.4527 118.7007,-90.4079 99.7808,-80.4125"/><polygon fill="#191970" stroke="#191970" points="101.229 -77.219 90.752 -75.643 97.959 -83.409 101.229 -77.219"/></g><g id="node5" class="node"><title>Node4</title><polygon fill="#fff" stroke="#bfbfbf" points="153.5 -56.5 153.5 -75.5 211.5 -75.5 211.5 -56.5 153.5 -56.5"/><text x="182.5" y="-63.5" fill="#000" font-family="Arial" font-size="10" text-anchor="middle">memory</text></g><g id="edge4" class="edge"><title>Node1-&gt;Node4</title><path fill="none" stroke="#191970" d="M179.1967,-112.2455C179.7187,-104.9382 180.4504,-94.6944 181.0925,-85.7046"/><polygon fill="#191970" stroke="#191970" points="184.59 -85.867 181.811 -75.643 177.608 -85.368 184.59 -85.867"/></g><g id="edge5" class="edge"><title>Node1-&gt;Node5</title><path fill="none" stroke="#191970" d="M192.2607,-112.2455C204.1552,-103.814 221.565,-91.4729 235.4085,-81.6598"/><polygon fill="#191970" stroke="#191970" points="237.763 -84.281 243.897 -75.643 233.715 -78.57 237.763 -84.281"/></g><g id="node4" class="node"><title>Node3</title><g id="a_node4"><a target="_top" xlink:href="deprecations_8h.html" xlink:title="mir_toolkit/deprecations.h"><polygon fill="#fff" stroke="#000" points="0 -.5 0 -19.5 145 -19.5 145 -.5 0 -.5"/><text x="72.5" y="-7.5" fill="#000" font-family="Arial" font-size="10" text-anchor="middle">mir_toolkit/deprecations.h</text></a></g></g><g id="edge3" class="edge"><title>Node2-&gt;Node3</title><path fill="none" stroke="#191970" d="M72.5,-56.2455C72.5,-48.9382 72.5,-38.6944 72.5,-29.7046"/><polygon fill="#191970" stroke="#191970" points="76 -29.643 72.5 -19.643 69 -29.643 76 -29.643"/></g></g></svg>