<svg xmlns="http://www.w3.org/2000/svg" xmlns:xlink="http://www.w3.org/1999/xlink" width="804" height="116pt" viewBox="0 0 603 115.5"><g id="graph0" class="graph" transform="scale(1 1) rotate(0) translate(4 111.5)"><title>miral::WindowManagementPolicy</title><polygon fill="#fff" stroke="transparent" points="-4 4 -4 -111.5 599 -111.5 599 4 -4 4"/><g id="node1" class="node"><title>Node0</title><polygon fill="#bfbfbf" stroke="#000" points="0 -38.5 0 -57.5 180 -57.5 180 -38.5 0 -38.5"/><text x="90" y="-45.5" fill="#000" font-family="Arial" font-size="10" text-anchor="middle">miral::WindowManagementPolicy</text></g><g id="node2" class="node"><title>Node1</title><g id="a_node2"><a target="_top" xlink:href="classmiral_1_1_canonical_window_manager_policy.html" xlink:title="Widely accepted defaults for window management."><polygon fill="#fff" stroke="#000" points="216 -77 216 -107 393 -107 393 -77 216 -77"/><text x="224" y="-95" fill="#000" font-family="Arial" font-size="10" text-anchor="start">miral::CanonicalWindowManager</text><text x="304.5" y="-84" fill="#000" font-family="Arial" font-size="10" text-anchor="middle">Policy</text></a></g></g><g id="edge1" class="edge"><title>Node0-&gt;Node1</title><path fill="none" stroke="#191970" d="M146.5562,-59.6013C172.428,-64.9083 203.4112,-71.2638 231.0564,-76.9346"/><polygon fill="#191970" stroke="#191970" points="147.043 -56.128 136.543 -57.547 145.636 -62.986 147.043 -56.128"/></g><g id="node4" class="node"><title>Node3</title><g id="a_node4"><a target="_top" xlink:href="classmiral_1_1_minimal_window_manager.html" xlink:title="Minimal implementation of a floating window management policy."><polygon fill="#fff" stroke="#000" points="220.5 -38.5 220.5 -57.5 388.5 -57.5 388.5 -38.5 220.5 -38.5"/><text x="304.5" y="-45.5" fill="#000" font-family="Arial" font-size="10" text-anchor="middle">miral::MinimalWindowManager</text></a></g></g><g id="edge3" class="edge"><title>Node0-&gt;Node3</title><path fill="none" stroke="#191970" d="M190.0642,-48C200.1349,-48 210.2905,-48 220.1737,-48"/><polygon fill="#191970" stroke="#191970" points="190.035 -44.5 180.035 -48 190.035 -51.5 190.035 -44.5"/></g><g id="node6" class="node"><title>Node5</title><g id="a_node6"><a target="_top" xlink:href="class_tiling_window_manager_policy.html" xlink:title="TilingWindowManagerPolicy"><polygon fill="#fff" stroke="#000" points="227.5 -.5 227.5 -19.5 381.5 -19.5 381.5 -.5 227.5 -.5"/><text x="304.5" y="-7.5" fill="#000" font-family="Arial" font-size="10" text-anchor="middle">TilingWindowManagerPolicy</text></a></g></g><g id="edge5" class="edge"><title>Node0-&gt;Node5</title><path fill="none" stroke="#191970" d="M154.0506,-36.653C184.8264,-31.2009 221.3003,-24.7393 250.6273,-19.5439"/><polygon fill="#191970" stroke="#191970" points="153.087 -33.269 143.851 -38.46 154.308 -40.162 153.087 -33.269"/></g><g id="node3" class="node"><title>Node2</title><g id="a_node3"><a target="_top" xlink:href="class_kiosk_window_manager_policy.html" xlink:title="KioskWindowManagerPolicy"><polygon fill="#fff" stroke="#000" points="435 -82.5 435 -101.5 589 -101.5 589 -82.5 435 -82.5"/><text x="512" y="-89.5" fill="#000" font-family="Arial" font-size="10" text-anchor="middle">KioskWindowManagerPolicy</text></a></g></g><g id="edge2" class="edge"><title>Node1-&gt;Node2</title><path fill="none" stroke="#191970" d="M403.2352,-92C413.8432,-92 424.5213,-92 434.8245,-92"/><polygon fill="#191970" stroke="#191970" points="403.101 -88.5 393.101 -92 403.101 -95.5 403.101 -88.5"/></g><g id="node5" class="node"><title>Node4</title><g id="a_node5"><a target="_top" xlink:href="class_floating_window_manager_policy.html" xlink:title="FloatingWindowManagerPolicy"><polygon fill="#fff" stroke="#000" points="429 -38.5 429 -57.5 595 -57.5 595 -38.5 429 -38.5"/><text x="512" y="-45.5" fill="#000" font-family="Arial" font-size="10" text-anchor="middle">FloatingWindowManagerPolicy</text></a></g></g><g id="edge4" class="edge"><title>Node3-&gt;Node4</title><path fill="none" stroke="#191970" d="M398.6103,-48C408.6765,-48 418.8647,-48 428.7916,-48"/><polygon fill="#191970" stroke="#191970" points="398.599 -44.5 388.599 -48 398.599 -51.5 398.599 -44.5"/></g></g></svg>