<svg xmlns="http://www.w3.org/2000/svg" xmlns:xlink="http://www.w3.org/1999/xlink" width="224pt" height="112" viewBox="0 0 224 84"><g id="graph0" class="graph" transform="scale(1 1) rotate(0) translate(4 80)"><title>SplashSession</title><polygon fill="#fff" stroke="transparent" points="-4 4 -4 -80 220 -80 220 4 -4 4"/><g id="node1" class="node"><title>Node0</title><polygon fill="#bfbfbf" stroke="#000" points="70 -56.5 70 -75.5 156 -75.5 156 -56.5 70 -56.5"/><text x="113" y="-63.5" fill="#000" font-family="Arial" font-size="10" text-anchor="middle">SplashSession</text></g><g id="node2" class="node"><title>Node1</title><polygon fill="#fff" stroke="#bfbfbf" points="0 -.5 0 -19.5 110 -19.5 110 -.5 0 -.5"/><text x="55" y="-7.5" fill="#000" font-family="Arial" font-size="10" text-anchor="middle">SpinnerSplash::Self</text></g><g id="edge1" class="edge"><title>Node0-&gt;Node1</title><path fill="none" stroke="#191970" d="M95.4707,-49.0751C85.4917,-39.4402 73.3524,-27.7196 64.9871,-19.6427"/><polygon fill="#191970" stroke="#191970" points="93.272 -51.818 102.897 -56.245 98.134 -46.782 93.272 -51.818"/></g><g id="node3" class="node"><title>Node2</title><polygon fill="#fff" stroke="#bfbfbf" points="128 -.5 128 -19.5 216 -19.5 216 -.5 128 -.5"/><text x="172" y="-7.5" fill="#000" font-family="Arial" font-size="10" text-anchor="middle">SwSplash::Self</text></g><g id="edge2" class="edge"><title>Node0-&gt;Node2</title><path fill="none" stroke="#191970" d="M130.5307,-49.3607C140.7377,-39.6727 153.2469,-27.7995 161.8408,-19.6427"/><polygon fill="#191970" stroke="#191970" points="128.121 -46.823 123.277 -56.245 132.94 -51.9 128.121 -46.823"/></g></g></svg>