<svg xmlns="http://www.w3.org/2000/svg" xmlns:xlink="http://www.w3.org/1999/xlink" width="188pt" height="151pt" viewBox="0 0 188 151"><g id="graph0" class="graph" transform="scale(1 1) rotate(0) translate(4 147)"><title>miral::CanonicalWindowManagerPolicy</title><polygon fill="#fff" stroke="transparent" points="-4 4 -4 -147 184 -147 184 4 -4 4"/><g id="node1" class="node"><title>Node0</title><polygon fill="#bfbfbf" stroke="#000" points="1.5 -56.5 1.5 -86.5 178.5 -86.5 178.5 -56.5 1.5 -56.5"/><text x="9.5" y="-74.5" fill="#000" font-family="Arial" font-size="10" text-anchor="start">miral::CanonicalWindowManager</text><text x="90" y="-63.5" fill="#000" font-family="Arial" font-size="10" text-anchor="middle">Policy</text></g><g id="node3" class="node"><title>Node2</title><g id="a_node3"><a target="_top" xlink:href="class_kiosk_window_manager_policy.html" xlink:title="KioskWindowManagerPolicy"><polygon fill="#fff" stroke="#000" points="13 -.5 13 -19.5 167 -19.5 167 -.5 13 -.5"/><text x="90" y="-7.5" fill="#000" font-family="Arial" font-size="10" text-anchor="middle">KioskWindowManagerPolicy</text></a></g></g><g id="edge2" class="edge"><title>Node0-&gt;Node2</title><path fill="none" stroke="#191970" d="M90,-46.2849C90,-36.9858 90,-26.9883 90,-19.8469"/><polygon fill="#191970" stroke="#191970" points="86.5 -46.298 90 -56.298 93.5 -46.298 86.5 -46.298"/></g><g id="node2" class="node"><title>Node1</title><g id="a_node2"><a target="_top" xlink:href="classmiral_1_1_window_management_policy.html" xlink:title="The interface through which the window management policy is determined."><polygon fill="#fff" stroke="#000" points="0 -123.5 0 -142.5 180 -142.5 180 -123.5 0 -123.5"/><text x="90" y="-130.5" fill="#000" font-family="Arial" font-size="10" text-anchor="middle">miral::WindowManagementPolicy</text></a></g></g><g id="edge1" class="edge"><title>Node1-&gt;Node0</title><path fill="none" stroke="#191970" d="M90,-113.3693C90,-104.681 90,-94.6241 90,-86.5446"/><polygon fill="#191970" stroke="#191970" points="86.5 -113.391 90 -123.391 93.5 -113.391 86.5 -113.391"/></g></g></svg>