<svg xmlns="http://www.w3.org/2000/svg" xmlns:xlink="http://www.w3.org/1999/xlink" width="139pt" height="106pt" viewBox="0 0 139 106"><g id="graph0" class="graph" transform="scale(1 1) rotate(0) translate(4 102)"><title>include/client/mir_toolkit/version.h</title><polygon fill="#fff" stroke="transparent" points="-4 4 -4 -102 135 -102 135 4 -4 4"/><g id="node1" class="node"><title>Node0</title><polygon fill="#bfbfbf" stroke="#000" points="15 -67.5 15 -97.5 116 -97.5 116 -67.5 15 -67.5"/><text x="23" y="-85.5" fill="#000" font-family="Arial" font-size="10" text-anchor="start">include/client/mir</text><text x="65.5" y="-74.5" fill="#000" font-family="Arial" font-size="10" text-anchor="middle">_toolkit/version.h</text></g><g id="node2" class="node"><title>Node1</title><g id="a_node2"><a target="_top" xlink:href="mir__version__number_8h.html" xlink:title="mir_toolkit/mir_version\l_number.h"><polygon fill="#fff" stroke="#000" points="0 -.5 0 -30.5 131 -30.5 131 -.5 0 -.5"/><text x="8" y="-18.5" fill="#000" font-family="Arial" font-size="10" text-anchor="start">mir_toolkit/mir_version</text><text x="65.5" y="-7.5" fill="#000" font-family="Arial" font-size="10" text-anchor="middle">_number.h</text></a></g></g><g id="edge1" class="edge"><title>Node0-&gt;Node1</title><path fill="none" stroke="#191970" d="M65.5,-67.2967C65.5,-59.5013 65.5,-49.7991 65.5,-40.9064"/><polygon fill="#191970" stroke="#191970" points="69 -40.643 65.5 -30.643 62 -40.643 69 -40.643"/></g></g></svg>