<svg xmlns="http://www.w3.org/2000/svg" xmlns:xlink="http://www.w3.org/1999/xlink" width="176" height="106pt" viewBox="0 0 132 106"><g id="graph0" class="graph" transform="scale(1 1) rotate(0) translate(4 102)"><title>include/client/mir/client/window.h</title><polygon fill="#fff" stroke="transparent" points="-4 4 -4 -102 128 -102 128 4 -4 4"/><g id="node1" class="node"><title>Node28</title><polygon fill="#bfbfbf" stroke="#000" points="11.5 -67.5 11.5 -97.5 112.5 -97.5 112.5 -67.5 11.5 -67.5"/><text x="19.5" y="-85.5" fill="#000" font-family="Arial" font-size="10" text-anchor="start">include/client/mir</text><text x="62" y="-74.5" fill="#000" font-family="Arial" font-size="10" text-anchor="middle">/client/window.h</text></g><g id="node2" class="node"><title>Node29</title><g id="a_node2"><a target="_top" xlink:href="window__spec_8h.html" xlink:title="include/client/mir\l/client/window_spec.h"><polygon fill="#fff" stroke="#000" points="0 -.5 0 -30.5 124 -30.5 124 -.5 0 -.5"/><text x="8" y="-18.5" fill="#000" font-family="Arial" font-size="10" text-anchor="start">include/client/mir</text><text x="62" y="-7.5" fill="#000" font-family="Arial" font-size="10" text-anchor="middle">/client/window_spec.h</text></a></g></g><g id="edge1" class="edge"><title>Node28-&gt;Node29</title><path fill="none" stroke="#191970" d="M62,-57.0249C62,-48.128 62,-38.4287 62,-30.6432"/><polygon fill="#191970" stroke="#191970" points="58.5 -57.297 62 -67.297 65.5 -57.297 58.5 -57.297"/></g></g></svg>