<svg xmlns="http://www.w3.org/2000/svg" xmlns:xlink="http://www.w3.org/1999/xlink" width="360" height="106pt" viewBox="0 0 269.5 106"><g id="graph0" class="graph" transform="scale(1 1) rotate(0) translate(4 102)"><title>include/miral/miral/command_line_option.h</title><polygon fill="#fff" stroke="transparent" points="-4 4 -4 -102 265.5 -102 265.5 4 -4 4"/><g id="node1" class="node"><title>Node8</title><polygon fill="#bfbfbf" stroke="#000" points="63 -67.5 63 -97.5 200 -97.5 200 -67.5 63 -67.5"/><text x="71" y="-85.5" fill="#000" font-family="Arial" font-size="10" text-anchor="start">include/miral/miral</text><text x="131.5" y="-74.5" fill="#000" font-family="Arial" font-size="10" text-anchor="middle">/command_line_option.h</text></g><g id="node2" class="node"><title>Node9</title><g id="a_node2"><a target="_top" xlink:href="kiosk__main_8cpp.html" xlink:title="examples/miral-kiosk\l/kiosk_main.cpp"><polygon fill="#fff" stroke="#000" points="0 -.5 0 -30.5 123 -30.5 123 -.5 0 -.5"/><text x="8" y="-18.5" fill="#000" font-family="Arial" font-size="10" text-anchor="start">examples/miral-kiosk</text><text x="61.5" y="-7.5" fill="#000" font-family="Arial" font-size="10" text-anchor="middle">/kiosk_main.cpp</text></a></g></g><g id="edge1" class="edge"><title>Node8-&gt;Node9</title><path fill="none" stroke="#191970" d="M108.2133,-60.2113C98.0681,-50.5009 86.4386,-39.3698 77.3212,-30.6432"/><polygon fill="#191970" stroke="#191970" points="105.972 -62.91 115.616 -67.297 110.812 -57.854 105.972 -62.91"/></g><g id="node3" class="node"><title>Node10</title><g id="a_node3"><a target="_top" xlink:href="shell__main_8cpp.html" xlink:title="examples/miral-shell\l/shell_main.cpp"><polygon fill="#fff" stroke="#000" points="141.5 -.5 141.5 -30.5 261.5 -30.5 261.5 -.5 141.5 -.5"/><text x="149.5" y="-18.5" fill="#000" font-family="Arial" font-size="10" text-anchor="start">examples/miral-shell</text><text x="201.5" y="-7.5" fill="#000" font-family="Arial" font-size="10" text-anchor="middle">/shell_main.cpp</text></a></g></g><g id="edge2" class="edge"><title>Node8-&gt;Node10</title><path fill="none" stroke="#191970" d="M154.7867,-60.2113C164.9319,-50.5009 176.5614,-39.3698 185.6788,-30.6432"/><polygon fill="#191970" stroke="#191970" points="152.188 -57.854 147.384 -67.297 157.028 -62.91 152.188 -57.854"/></g></g></svg>