<svg xmlns="http://www.w3.org/2000/svg" xmlns:xlink="http://www.w3.org/1999/xlink" width="740" height="320" viewBox="0 0 555 240"><g id="graph0" class="graph" transform="scale(1 1) rotate(0) translate(4 236)"><title>include/client/mir/client/connection.h</title><polygon fill="#fff" stroke="transparent" points="-4 4 -4 -236 551 -236 551 4 -4 4"/><g id="node1" class="node"><title>Node26</title><polygon fill="#bfbfbf" stroke="#000" points="155.5 -201.5 155.5 -231.5 267.5 -231.5 267.5 -201.5 155.5 -201.5"/><text x="163.5" y="-219.5" fill="#000" font-family="Arial" font-size="10" text-anchor="start">include/client/mir</text><text x="211.5" y="-208.5" fill="#000" font-family="Arial" font-size="10" text-anchor="middle">/client/connection.h</text></g><g id="node2" class="node"><title>Node27</title><g id="a_node2"><a target="_top" xlink:href="internal__client_8h.html" xlink:title="include/miral/miral\l/internal_client.h"><polygon fill="#fff" stroke="#000" points="157 -134.5 157 -164.5 266 -164.5 266 -134.5 157 -134.5"/><text x="165" y="-152.5" fill="#000" font-family="Arial" font-size="10" text-anchor="start">include/miral/miral</text><text x="211.5" y="-141.5" fill="#000" font-family="Arial" font-size="10" text-anchor="middle">/internal_client.h</text></a></g></g><g id="edge1" class="edge"><title>Node26-&gt;Node27</title><path fill="none" stroke="#191970" d="M211.5,-191.0249C211.5,-182.128 211.5,-172.4287 211.5,-164.6432"/><polygon fill="#191970" stroke="#191970" points="208 -191.297 211.5 -201.297 215 -191.297 208 -191.297"/></g><g id="node3" class="node"><title>Node28</title><g id="a_node3"><a target="_top" xlink:href="kiosk__main_8cpp.html" xlink:title="examples/miral-kiosk\l/kiosk_main.cpp"><polygon fill="#fff" stroke="#000" points="0 -67.5 0 -97.5 123 -97.5 123 -67.5 0 -67.5"/><text x="8" y="-85.5" fill="#000" font-family="Arial" font-size="10" text-anchor="start">examples/miral-kiosk</text><text x="61.5" y="-74.5" fill="#000" font-family="Arial" font-size="10" text-anchor="middle">/kiosk_main.cpp</text></a></g></g><g id="edge2" class="edge"><title>Node27-&gt;Node28</title><path fill="none" stroke="#191970" d="M168.5445,-130.3132C145.2911,-119.9267 116.9763,-107.2794 95.3097,-97.6017"/><polygon fill="#191970" stroke="#191970" points="167.279 -133.581 177.837 -134.464 170.134 -127.19 167.279 -133.581"/></g><g id="node4" class="node"><title>Node29</title><g id="a_node4"><a target="_top" xlink:href="shell__main_8cpp.html" xlink:title="examples/miral-shell\l/shell_main.cpp"><polygon fill="#fff" stroke="#000" points="164.5 -.5 164.5 -30.5 284.5 -30.5 284.5 -.5 164.5 -.5"/><text x="172.5" y="-18.5" fill="#000" font-family="Arial" font-size="10" text-anchor="start">examples/miral-shell</text><text x="224.5" y="-7.5" fill="#000" font-family="Arial" font-size="10" text-anchor="middle">/shell_main.cpp</text></a></g></g><g id="edge3" class="edge"><title>Node27-&gt;Node29</title><path fill="none" stroke="#191970" d="M187.714,-126.4321C180.7897,-118.1885 174.1193,-108.3571 170.5,-98 165.9549,-84.9935 165.0771,-79.6657 170.5,-67 176.8229,-52.2325 189.6899,-39.6881 201.278,-30.678"/><polygon fill="#191970" stroke="#191970" points="185.329 -129.014 194.619 -134.107 190.533 -124.332 185.329 -129.014"/></g><g id="node5" class="node"><title>Node30</title><g id="a_node5"><a target="_top" xlink:href="floating__window__manager_8cpp.html" xlink:title="examples/example-server\l-lib/floating_window_manager.cpp"><polygon fill="#fff" stroke="#000" points="180 -67.5 180 -97.5 363 -97.5 363 -67.5 180 -67.5"/><text x="188" y="-85.5" fill="#000" font-family="Arial" font-size="10" text-anchor="start">examples/example-server</text><text x="271.5" y="-74.5" fill="#000" font-family="Arial" font-size="10" text-anchor="middle">-lib/floating_window_manager.cpp</text></a></g></g><g id="edge4" class="edge"><title>Node27-&gt;Node30</title><path fill="none" stroke="#191970" d="M231.973,-126.6385C240.546,-117.0653 250.2773,-106.1987 257.939,-97.6432"/><polygon fill="#191970" stroke="#191970" points="229.179 -124.512 225.115 -134.297 234.393 -129.182 229.179 -124.512"/></g><g id="node6" class="node"><title>Node31</title><g id="a_node6"><a target="_top" xlink:href="tiling__window__manager_8h.html" xlink:title="examples/example-server\l-lib/tiling_window_manager.h"><polygon fill="#fff" stroke="#000" points="381.5 -67.5 381.5 -97.5 541.5 -97.5 541.5 -67.5 381.5 -67.5"/><text x="389.5" y="-85.5" fill="#000" font-family="Arial" font-size="10" text-anchor="start">examples/example-server</text><text x="461.5" y="-74.5" fill="#000" font-family="Arial" font-size="10" text-anchor="middle">-lib/tiling_window_manager.h</text></a></g></g><g id="edge5" class="edge"><title>Node27-&gt;Node31</title><path fill="none" stroke="#191970" d="M275.7282,-132.2868C315.7975,-121.5483 366.8772,-107.8589 405.33,-97.5536"/><polygon fill="#191970" stroke="#191970" points="274.808 -128.91 266.055 -134.879 276.62 -135.671 274.808 -128.91"/></g><g id="edge6" class="edge"><title>Node31-&gt;Node29</title><path fill="none" stroke="#191970" d="M398.4801,-64.6842C360.8874,-54.0568 313.674,-40.7095 277.9194,-30.6017"/><polygon fill="#191970" stroke="#191970" points="397.738 -68.111 408.313 -67.464 399.642 -61.375 397.738 -68.111"/></g><g id="node7" class="node"><title>Node32</title><g id="a_node7"><a target="_top" xlink:href="tiling__window__manager_8cpp.html" xlink:title="examples/example-server\l-lib/tiling_window_manager.cpp"><polygon fill="#fff" stroke="#000" points="376 -.5 376 -30.5 547 -30.5 547 -.5 376 -.5"/><text x="384" y="-18.5" fill="#000" font-family="Arial" font-size="10" text-anchor="start">examples/example-server</text><text x="461.5" y="-7.5" fill="#000" font-family="Arial" font-size="10" text-anchor="middle">-lib/tiling_window_manager.cpp</text></a></g></g><g id="edge7" class="edge"><title>Node31-&gt;Node32</title><path fill="none" stroke="#191970" d="M461.5,-57.0249C461.5,-48.128 461.5,-38.4287 461.5,-30.6432"/><polygon fill="#191970" stroke="#191970" points="458 -57.297 461.5 -67.297 465 -57.297 458 -57.297"/></g></g></svg>