<svg xmlns="http://www.w3.org/2000/svg" xmlns:xlink="http://www.w3.org/1999/xlink" width="2296pt" height="554pt" viewBox="0 0 2295.5 554"><g id="graph0" class="graph" transform="scale(1 1) rotate(0) translate(4 550)"><title>examples/example-server-lib/decoration_provider.cpp</title><polygon fill="#fff" stroke="transparent" points="-4 4 -4 -550 2291.5 -550 2291.5 4 -4 4"/><g id="node1" class="node"><title>Node0</title><polygon fill="#bfbfbf" stroke="#000" points="1572.5 -515.5 1572.5 -545.5 1724.5 -545.5 1724.5 -515.5 1572.5 -515.5"/><text x="1580.5" y="-533.5" fill="#000" font-family="Arial" font-size="10" text-anchor="start">examples/example-server</text><text x="1648.5" y="-522.5" fill="#000" font-family="Arial" font-size="10" text-anchor="middle">-lib/decoration_provider.cpp</text></g><g id="node2" class="node"><title>Node1</title><g id="a_node2"><a target="_top" xlink:href="decoration__provider_8h.html" xlink:title="decoration_provider.h"><polygon fill="#fff" stroke="#000" points="913.5 -459.5 913.5 -478.5 1035.5 -478.5 1035.5 -459.5 913.5 -459.5"/><text x="974.5" y="-466.5" fill="#000" font-family="Arial" font-size="10" text-anchor="middle">decoration_provider.h</text></a></g></g><g id="edge1" class="edge"><title>Node0-&gt;Node1</title><path fill="none" stroke="#191970" d="M1572.256,-524.7149C1459.4425,-515.963 1241.4506,-498.3164 1056.5,-479 1053.0432,-478.639 1049.506,-478.2567 1045.9347,-477.8604"/><polygon fill="#191970" stroke="#191970" points="1046.149 -474.362 1035.818 -476.712 1045.36 -481.318 1046.149 -474.362"/></g><g id="node8" class="node"><title>Node7</title><polygon fill="#fff" stroke="#bfbfbf" points="1338.5 -168.5 1338.5 -187.5 1382.5 -187.5 1382.5 -168.5 1338.5 -168.5"/><text x="1360.5" y="-175.5" fill="#000" font-family="Arial" font-size="10" text-anchor="middle">string</text></g><g id="edge64" class="edge"><title>Node0-&gt;Node7</title><path fill="none" stroke="#191970" d="M1572.3552,-525.4326C1500.3838,-519.088 1399.264,-505.6421 1370.5,-479 1346.3772,-456.6567 1351.5,-440.3806 1351.5,-407.5 1351.5,-407.5 1351.5,-407.5 1351.5,-290 1351.5,-257.6075 1355.2867,-220.1141 1357.9477,-197.7662"/><polygon fill="#191970" stroke="#191970" points="1361.455 -197.922 1359.21 -187.568 1354.508 -197.062 1361.455 -197.922"/></g><g id="node30" class="node"><title>Node29</title><g id="a_node30"><a target="_top" xlink:href="wallpaper__config_8h.html" xlink:title="wallpaper_config.h"><polygon fill="#fff" stroke="#000" points="1215.5 -398 1215.5 -417 1323.5 -417 1323.5 -398 1215.5 -398"/><text x="1269.5" y="-405" fill="#000" font-family="Arial" font-size="10" text-anchor="middle">wallpaper_config.h</text></a></g></g><g id="edge50" class="edge"><title>Node0-&gt;Node29</title><path fill="none" stroke="#191970" d="M1572.2357,-523.4684C1493.6356,-515.2388 1377.1537,-500.0132 1337.5,-479 1313.6172,-466.3441 1293.343,-442.1282 1281.3015,-425.4095"/><polygon fill="#191970" stroke="#191970" points="1284.058 -423.243 1275.488 -417.014 1278.303 -427.228 1284.058 -423.243"/></g><g id="node31" class="node"><title>Node30</title><g id="a_node31"><a target="_top" xlink:href="wayland__helpers_8h.html" xlink:title="wayland_helpers.h"><polygon fill="#fff" stroke="#000" points="986.5 -224.5 986.5 -243.5 1094.5 -243.5 1094.5 -224.5 986.5 -224.5"/><text x="1040.5" y="-231.5" fill="#000" font-family="Arial" font-size="10" text-anchor="middle">wayland_helpers.h</text></a></g></g><g id="edge52" class="edge"><title>Node0-&gt;Node30</title><path fill="none" stroke="#191970" d="M1572.4239,-526.6239C1502.308,-521.2782 1396.1567,-508.6538 1308.5,-479 1259.5111,-462.4273 1246.8399,-455.3615 1206.5,-423 1140.2064,-369.8179 1078.7744,-288.2713 1053.1231,-252.2187"/><polygon fill="#191970" stroke="#191970" points="1055.743 -249.86 1047.126 -243.696 1050.018 -253.888 1055.743 -249.86"/></g><g id="node34" class="node"><title>Node33</title><polygon fill="#fff" stroke="#bfbfbf" points="1380 -459.5 1380 -478.5 1443 -478.5 1443 -459.5 1380 -459.5"/><text x="1411.5" y="-466.5" fill="#000" font-family="Arial" font-size="10" text-anchor="middle">ft2build.h</text></g><g id="edge58" class="edge"><title>Node0-&gt;Node33</title><path fill="none" stroke="#191970" d="M1590.5233,-515.4554C1547.8782,-504.3893 1490.9381,-489.6137 1452.8337,-479.7258"/><polygon fill="#191970" stroke="#191970" points="1453.652 -476.322 1443.093 -477.198 1451.894 -483.098 1453.652 -476.322"/></g><g id="node35" class="node"><title>Node34</title><polygon fill="#fff" stroke="#bfbfbf" points="1461.5 -459.5 1461.5 -478.5 1505.5 -478.5 1505.5 -459.5 1461.5 -459.5"/><text x="1483.5" y="-466.5" fill="#000" font-family="Arial" font-size="10" text-anchor="middle">poll.h</text></g><g id="edge59" class="edge"><title>Node0-&gt;Node34</title><path fill="none" stroke="#191970" d="M1608.1365,-515.4554C1579.5422,-504.7975 1541.7164,-490.6988 1515.265,-480.8397"/><polygon fill="#191970" stroke="#191970" points="1516.32 -477.498 1505.727 -477.285 1513.875 -484.057 1516.32 -477.498"/></g><g id="node36" class="node"><title>Node35</title><polygon fill="#fff" stroke="#bfbfbf" points="1524 -459.5 1524 -478.5 1607 -478.5 1607 -459.5 1524 -459.5"/><text x="1565.5" y="-466.5" fill="#000" font-family="Arial" font-size="10" text-anchor="middle">sys/eventfd.h</text></g><g id="edge60" class="edge"><title>Node0-&gt;Node35</title><path fill="none" stroke="#191970" d="M1627.9831,-515.2977C1615.5018,-506.0495 1599.5841,-494.2551 1586.9386,-484.8853"/><polygon fill="#191970" stroke="#191970" points="1588.908 -481.988 1578.789 -478.847 1584.74 -487.613 1588.908 -481.988"/></g><g id="node37" class="node"><title>Node36</title><polygon fill="#fff" stroke="#bfbfbf" points="1625.5 -459.5 1625.5 -478.5 1671.5 -478.5 1671.5 -459.5 1625.5 -459.5"/><text x="1648.5" y="-466.5" fill="#000" font-family="Arial" font-size="10" text-anchor="middle">locale</text></g><g id="edge61" class="edge"><title>Node0-&gt;Node36</title><path fill="none" stroke="#191970" d="M1648.5,-515.2977C1648.5,-507.3834 1648.5,-497.6043 1648.5,-489.0759"/><polygon fill="#191970" stroke="#191970" points="1652 -488.847 1648.5 -478.847 1645 -488.847 1652 -488.847"/></g><g id="node38" class="node"><title>Node37</title><polygon fill="#fff" stroke="#bfbfbf" points="1690 -459.5 1690 -478.5 1745 -478.5 1745 -459.5 1690 -459.5"/><text x="1717.5" y="-466.5" fill="#000" font-family="Arial" font-size="10" text-anchor="middle">codecvt</text></g><g id="edge62" class="edge"><title>Node0-&gt;Node37</title><path fill="none" stroke="#191970" d="M1665.5562,-515.2977C1675.6329,-506.3163 1688.404,-494.9334 1698.7611,-485.702"/><polygon fill="#191970" stroke="#191970" points="1701.316 -488.113 1706.452 -478.847 1696.658 -482.888 1701.316 -488.113"/></g><g id="node39" class="node"><title>Node38</title><polygon fill="#fff" stroke="#bfbfbf" points="1763.5 -459.5 1763.5 -478.5 1801.5 -478.5 1801.5 -459.5 1763.5 -459.5"/><text x="1782.5" y="-466.5" fill="#000" font-family="Arial" font-size="10" text-anchor="middle">map</text></g><g id="edge63" class="edge"><title>Node0-&gt;Node38</title><path fill="none" stroke="#191970" d="M1681.2801,-515.4554C1703.5875,-505.2173 1732.813,-491.8041 1754.1227,-482.0239"/><polygon fill="#191970" stroke="#191970" points="1755.675 -485.163 1763.303 -477.81 1752.755 -478.801 1755.675 -485.163"/></g><g id="node40" class="node"><title>Node39</title><polygon fill="#fff" stroke="#bfbfbf" points="1819.5 -459.5 1819.5 -478.5 1869.5 -478.5 1869.5 -459.5 1819.5 -459.5"/><text x="1844.5" y="-466.5" fill="#000" font-family="Arial" font-size="10" text-anchor="middle">cstring</text></g><g id="edge65" class="edge"><title>Node0-&gt;Node39</title><path fill="none" stroke="#191970" d="M1696.447,-515.4554C1731.5234,-504.4493 1778.294,-489.7738 1809.8029,-479.8871"/><polygon fill="#191970" stroke="#191970" points="1810.969 -483.19 1819.463 -476.856 1808.873 -476.511 1810.969 -483.19"/></g><g id="node41" class="node"><title>Node40</title><polygon fill="#fff" stroke="#bfbfbf" points="1887.5 -459.5 1887.5 -478.5 1943.5 -478.5 1943.5 -459.5 1887.5 -459.5"/><text x="1915.5" y="-466.5" fill="#000" font-family="Arial" font-size="10" text-anchor="middle">sstream</text></g><g id="edge66" class="edge"><title>Node0-&gt;Node40</title><path fill="none" stroke="#191970" d="M1719.4061,-515.4612C1762.5687,-506.1109 1819.0382,-493.5326 1877.4753,-479.1837"/><polygon fill="#191970" stroke="#191970" points="1878.381 -482.565 1887.251 -476.771 1876.704 -475.769 1878.381 -482.565"/></g><g id="node42" class="node"><title>Node41</title><polygon fill="#fff" stroke="#bfbfbf" points="1961 -459.5 1961 -478.5 2110 -478.5 2110 -459.5 1961 -459.5"/><text x="2035.5" y="-466.5" fill="#000" font-family="Arial" font-size="10" text-anchor="middle">boost/throw_exception.hpp</text></g><g id="edge67" class="edge"><title>Node0-&gt;Node41</title><path fill="none" stroke="#191970" d="M1724.9587,-518.3496C1794.94,-507.2285 1897.637,-490.9085 1965.5066,-480.123"/><polygon fill="#191970" stroke="#191970" points="1966.348 -483.533 1975.674 -478.507 1965.249 -476.62 1966.348 -483.533"/></g><g id="node43" class="node"><title>Node42</title><polygon fill="#fff" stroke="#bfbfbf" points="2128 -459.5 2128 -478.5 2209 -478.5 2209 -459.5 2128 -459.5"/><text x="2168.5" y="-466.5" fill="#000" font-family="Arial" font-size="10" text-anchor="middle">system_error</text></g><g id="edge68" class="edge"><title>Node0-&gt;Node42</title><path fill="none" stroke="#191970" d="M1724.6508,-524.3542C1815.9202,-516.4979 1973.6502,-501.3667 2117.9835,-479.1286"/><polygon fill="#191970" stroke="#191970" points="2118.567 -482.58 2127.91 -477.584 2117.491 -475.663 2118.567 -482.58"/></g><g id="node44" class="node"><title>Node43</title><polygon fill="#fff" stroke="#bfbfbf" points="2227.5 -459.5 2227.5 -478.5 2287.5 -478.5 2287.5 -459.5 2227.5 -459.5"/><text x="2257.5" y="-466.5" fill="#000" font-family="Arial" font-size="10" text-anchor="middle">iostream</text></g><g id="edge69" class="edge"><title>Node0-&gt;Node43</title><path fill="none" stroke="#191970" d="M1724.6101,-527.5184C1832.4002,-522.4319 2035.71,-509.66 2217.3659,-478.9496"/><polygon fill="#191970" stroke="#191970" points="2218.104 -482.374 2227.37 -477.236 2216.923 -475.475 2218.104 -482.374"/></g><g id="node3" class="node"><title>Node2</title><g id="a_node3"><a target="_top" xlink:href="window__manager__tools_8h.html" xlink:title="miral/window_manager\l_tools.h"><polygon fill="#fff" stroke="#000" points="707 -392.5 707 -422.5 838 -422.5 838 -392.5 707 -392.5"/><text x="715" y="-410.5" fill="#000" font-family="Arial" font-size="10" text-anchor="start">miral/window_manager</text><text x="772.5" y="-399.5" fill="#000" font-family="Arial" font-size="10" text-anchor="middle">_tools.h</text></a></g></g><g id="edge2" class="edge"><title>Node1-&gt;Node2</title><path fill="none" stroke="#191970" d="M942.9375,-459.3906C913.3211,-450.3737 868.2656,-436.6563 831.9162,-425.5896"/><polygon fill="#191970" stroke="#191970" points="832.501 -422.109 821.915 -422.545 830.462 -428.805 832.501 -422.109"/></g><g id="node28" class="node"><title>Node27</title><g id="a_node28"><a target="_top" xlink:href="fd_8h.html" xlink:title="mir/fd.h"><polygon fill="#fff" stroke="#000" points="987 -336.5 987 -355.5 1042 -355.5 1042 -336.5 987 -336.5"/><text x="1014.5" y="-343.5" fill="#000" font-family="Arial" font-size="10" text-anchor="middle">mir/fd.h</text></a></g></g><g id="edge47" class="edge"><title>Node1-&gt;Node27</title><path fill="none" stroke="#191970" d="M974.6008,-459.2005C975.0389,-444.2546 977.0219,-415.0683 985.5,-392 989.1439,-382.0852 995.1425,-372.0498 1000.7412,-363.8934"/><polygon fill="#191970" stroke="#191970" points="1003.722 -365.744 1006.746 -355.589 998.05 -361.642 1003.722 -365.744"/></g><g id="node29" class="node"><title>Node28</title><polygon fill="#fff" stroke="#bfbfbf" points="994.5 -398 994.5 -417 1042.5 -417 1042.5 -398 994.5 -398"/><text x="1018.5" y="-405" fill="#000" font-family="Arial" font-size="10" text-anchor="middle">mutex</text></g><g id="edge49" class="edge"><title>Node1-&gt;Node28</title><path fill="none" stroke="#191970" d="M981.375,-459.3906C987.8593,-450.3273 997.7414,-436.5149 1005.6801,-425.4188"/><polygon fill="#191970" stroke="#191970" points="1008.556 -427.414 1011.528 -417.245 1002.863 -423.341 1008.556 -427.414"/></g><g id="node4" class="node"><title>Node3</title><g id="a_node4"><a target="_top" xlink:href="application_8h.html" xlink:title="miral/application.h"><polygon fill="#fff" stroke="#000" points="1150.5 -224.5 1150.5 -243.5 1258.5 -243.5 1258.5 -224.5 1150.5 -224.5"/><text x="1204.5" y="-231.5" fill="#000" font-family="Arial" font-size="10" text-anchor="middle">miral/application.h</text></a></g></g><g id="edge3" class="edge"><title>Node2-&gt;Node3</title><path fill="none" stroke="#191970" d="M825.6225,-392.477C857.5357,-382.9928 898.7526,-369.9299 934.5,-356 954.1388,-348.3472 958.3313,-344.764 977.5,-336 1047.456,-304.0158 1129.8989,-267.1861 1173.6264,-247.7196"/><polygon fill="#191970" stroke="#191970" points="1175.148 -250.874 1182.861 -243.61 1172.302 -244.478 1175.148 -250.874"/></g><g id="node7" class="node"><title>Node6</title><polygon fill="#fff" stroke="#bfbfbf" points="891.5 -168.5 891.5 -187.5 949.5 -187.5 949.5 -168.5 891.5 -168.5"/><text x="920.5" y="-175.5" fill="#000" font-family="Arial" font-size="10" text-anchor="middle">memory</text></g><g id="edge46" class="edge"><title>Node2-&gt;Node6</title><path fill="none" stroke="#191970" d="M788.242,-392.2736C808.1277,-372.4244 842.5202,-335.9807 865.5,-300 887.1782,-266.0574 904.7165,-222.1434 913.7817,-197.3253"/><polygon fill="#191970" stroke="#191970" points="917.168 -198.251 917.236 -187.656 910.576 -195.896 917.168 -198.251"/></g><g id="node9" class="node"><title>Node8</title><g id="a_node9"><a target="_top" xlink:href="window__info_8h.html" xlink:title="window_info.h"><polygon fill="#fff" stroke="#000" points="664 -336.5 664 -355.5 751 -355.5 751 -336.5 664 -336.5"/><text x="707.5" y="-343.5" fill="#000" font-family="Arial" font-size="10" text-anchor="middle">window_info.h</text></a></g></g><g id="edge8" class="edge"><title>Node2-&gt;Node8</title><path fill="none" stroke="#191970" d="M756.4326,-392.2977C747.034,-383.4052 735.1473,-372.1586 725.443,-362.9769"/><polygon fill="#191970" stroke="#191970" points="727.577 -360.177 717.907 -355.847 722.766 -365.262 727.577 -360.177"/></g><g id="node17" class="node"><title>Node16</title><g id="a_node17"><a target="_top" xlink:href="displacement_8h.html" xlink:title="mir/geometry/displacement.h"><polygon fill="#fff" stroke="#000" points="0 -168.5 0 -187.5 161 -187.5 161 -168.5 0 -168.5"/><text x="80.5" y="-175.5" fill="#000" font-family="Arial" font-size="10" text-anchor="middle">mir/geometry/displacement.h</text></a></g></g><g id="edge44" class="edge"><title>Node2-&gt;Node16</title><path fill="none" stroke="#191970" d="M706.5853,-400.762C589.5025,-386.5299 340.3862,-345.9007 157.5,-244 134.1409,-230.9848 111.3971,-210.1831 96.7599,-195.4146"/><polygon fill="#191970" stroke="#191970" points="98.978 -192.673 89.51 -187.918 93.946 -197.54 98.978 -192.673"/></g><g id="node26" class="node"><title>Node25</title><polygon fill="#fff" stroke="#bfbfbf" points="367 -168.5 367 -187.5 432 -187.5 432 -168.5 367 -168.5"/><text x="399.5" y="-175.5" fill="#000" font-family="Arial" font-size="10" text-anchor="middle">functional</text></g><g id="edge45" class="edge"><title>Node2-&gt;Node25</title><path fill="none" stroke="#191970" d="M706.699,-399.6116C638.0217,-388.2947 530.7397,-361.5405 460.5,-300 428.878,-272.2944 411.778,-224.3401 404.2665,-197.5479"/><polygon fill="#191970" stroke="#191970" points="407.627 -196.565 401.695 -187.787 400.858 -198.349 407.627 -196.565"/></g><g id="node5" class="node"><title>Node4</title><g id="a_node5"><a target="_top" xlink:href="common_8h.html" xlink:title="mir_toolkit/common.h"><polygon fill="#fff" stroke="#000" points="1195 -168.5 1195 -187.5 1320 -187.5 1320 -168.5 1195 -168.5"/><text x="1257.5" y="-175.5" fill="#000" font-family="Arial" font-size="10" text-anchor="middle">mir_toolkit/common.h</text></a></g></g><g id="edge4" class="edge"><title>Node3-&gt;Node4</title><path fill="none" stroke="#191970" d="M1213.7319,-224.2455C1221.3317,-216.2155 1232.2877,-204.6394 1241.3368,-195.0781"/><polygon fill="#191970" stroke="#191970" points="1244.042 -197.311 1248.374 -187.643 1238.958 -192.5 1244.042 -197.311"/></g><g id="edge6" class="edge"><title>Node3-&gt;Node6</title><path fill="none" stroke="#191970" d="M1150.0385,-224.9828C1102.2818,-216.812 1030.7734,-203.9418 959.9006,-188.2033"/><polygon fill="#191970" stroke="#191970" points="960.43 -184.735 949.907 -185.964 958.899 -191.566 960.43 -184.735"/></g><g id="edge7" class="edge"><title>Node3-&gt;Node7</title><path fill="none" stroke="#191970" d="M1231.3174,-224.3733C1258.28,-214.6944 1299.8515,-199.7712 1328.5166,-189.4812"/><polygon fill="#191970" stroke="#191970" points="1329.843 -192.724 1338.072 -186.051 1327.478 -186.135 1329.843 -192.724"/></g><g id="node6" class="node"><title>Node5</title><g id="a_node6"><a target="_top" xlink:href="deprecations_8h.html" xlink:title="mir_toolkit/deprecations.h"><polygon fill="#fff" stroke="#000" points="1185 -112.5 1185 -131.5 1330 -131.5 1330 -112.5 1185 -112.5"/><text x="1257.5" y="-119.5" fill="#000" font-family="Arial" font-size="10" text-anchor="middle">mir_toolkit/deprecations.h</text></a></g></g><g id="edge5" class="edge"><title>Node4-&gt;Node5</title><path fill="none" stroke="#191970" d="M1257.5,-168.2455C1257.5,-160.9382 1257.5,-150.6944 1257.5,-141.7046"/><polygon fill="#191970" stroke="#191970" points="1261 -141.643 1257.5 -131.643 1254 -141.643 1261 -141.643"/></g><g id="node10" class="node"><title>Node9</title><g id="a_node10"><a target="_top" xlink:href="miral_2miral_2window_8h.html" xlink:title="miral/window.h"><polygon fill="#fff" stroke="#000" points="766 -280.5 766 -299.5 857 -299.5 857 -280.5 766 -280.5"/><text x="811.5" y="-287.5" fill="#000" font-family="Arial" font-size="10" text-anchor="middle">miral/window.h</text></a></g></g><g id="edge9" class="edge"><title>Node8-&gt;Node9</title><path fill="none" stroke="#191970" d="M725.6154,-336.2455C741.945,-327.4527 766.171,-314.4079 784.7339,-304.4125"/><polygon fill="#191970" stroke="#191970" points="786.447 -307.465 793.592 -299.643 783.128 -301.302 786.447 -307.465"/></g><g id="node16" class="node"><title>Node15</title><g id="a_node16"><a target="_top" xlink:href="window__specification_8h.html" xlink:title="miral/window_specification.h"><polygon fill="#fff" stroke="#000" points="469.5 -280.5 469.5 -299.5 627.5 -299.5 627.5 -280.5 469.5 -280.5"/><text x="548.5" y="-287.5" fill="#000" font-family="Arial" font-size="10" text-anchor="middle">miral/window_specification.h</text></a></g></g><g id="edge20" class="edge"><title>Node8-&gt;Node15</title><path fill="none" stroke="#191970" d="M680.1669,-336.3733C653.9566,-327.1419 614.2016,-313.1402 585.2332,-302.9375"/><polygon fill="#191970" stroke="#191970" points="586.071 -299.522 575.476 -299.501 583.746 -306.124 586.071 -299.522"/></g><g id="node18" class="node"><title>Node17</title><g id="a_node18"><a target="_top" xlink:href="rectangles_8h.html" xlink:title="mir/geometry/rectangles.h"><polygon fill="#fff" stroke="#000" points="622.5 -224.5 622.5 -243.5 768.5 -243.5 768.5 -224.5 622.5 -224.5"/><text x="695.5" y="-231.5" fill="#000" font-family="Arial" font-size="10" text-anchor="middle">mir/geometry/rectangles.h</text></a></g></g><g id="edge41" class="edge"><title>Node8-&gt;Node17</title><path fill="none" stroke="#191970" d="M711.5922,-336.0782C716.3933,-323.0926 723.1439,-299.6718 718.5,-280 716.2294,-270.3814 711.6225,-260.4809 707.1241,-252.3404"/><polygon fill="#191970" stroke="#191970" points="710.133 -250.552 702.04 -243.715 704.103 -254.107 710.133 -250.552"/></g><g id="node22" class="node"><title>Node21</title><g id="a_node22"><a target="_top" xlink:href="optional__value_8h.html" xlink:title="mir/optional_value.h"><polygon fill="#fff" stroke="#000" points="218 -224.5 218 -243.5 335 -243.5 335 -224.5 218 -224.5"/><text x="276.5" y="-231.5" fill="#000" font-family="Arial" font-size="10" text-anchor="middle">mir/optional_value.h</text></a></g></g><g id="edge42" class="edge"><title>Node8-&gt;Node21</title><path fill="none" stroke="#191970" d="M663.7455,-340.0199C614.0016,-332.7224 530.6049,-318.9698 460.5,-300 406.3015,-285.3343 345.3063,-262.0587 308.9362,-247.4272"/><polygon fill="#191970" stroke="#191970" points="309.94 -244.057 299.357 -243.544 307.31 -250.544 309.94 -244.057"/></g><g id="node27" class="node"><title>Node26</title><polygon fill="#fff" stroke="#bfbfbf" points="645.5 -280.5 645.5 -299.5 709.5 -299.5 709.5 -280.5 645.5 -280.5"/><text x="677.5" y="-287.5" fill="#000" font-family="Arial" font-size="10" text-anchor="middle">algorithm</text></g><g id="edge43" class="edge"><title>Node8-&gt;Node26</title><path fill="none" stroke="#191970" d="M702.2744,-336.2455C698.1877,-328.617 692.3865,-317.7881 687.425,-308.5267"/><polygon fill="#191970" stroke="#191970" points="690.473 -306.805 682.666 -299.643 684.303 -310.11 690.473 -306.805"/></g><g id="edge10" class="edge"><title>Node9-&gt;Node3</title><path fill="none" stroke="#191970" d="M857.2602,-283.6026C920.1833,-274.7877 1036.9508,-258.3647 1136.5,-244 1137.7622,-243.8179 1139.0376,-243.6335 1140.3227,-243.4474"/><polygon fill="#191970" stroke="#191970" points="1140.921 -246.897 1150.313 -241.996 1139.914 -239.97 1140.921 -246.897"/></g><g id="edge19" class="edge"><title>Node9-&gt;Node6</title><path fill="none" stroke="#191970" d="M821.7061,-280.2505C831.309,-271.0213 846.0352,-256.7228 858.5,-244 874.5355,-227.6325 892.4087,-208.5088 904.8293,-195.0726"/><polygon fill="#191970" stroke="#191970" points="907.589 -197.242 911.793 -187.517 902.442 -192.498 907.589 -197.242"/></g><g id="node11" class="node"><title>Node10</title><g id="a_node11"><a target="_top" xlink:href="point_8h.html" xlink:title="mir/geometry/point.h"><polygon fill="#fff" stroke="#000" points="308.5 -112.5 308.5 -131.5 428.5 -131.5 428.5 -112.5 308.5 -112.5"/><text x="368.5" y="-119.5" fill="#000" font-family="Arial" font-size="10" text-anchor="middle">mir/geometry/point.h</text></a></g></g><g id="edge11" class="edge"><title>Node9-&gt;Node10</title><path fill="none" stroke="#191970" d="M765.7871,-284.9887C689.5372,-276.3787 539.7077,-258.3221 488.5,-244 427.5212,-226.9451 392.3808,-240.8452 357.5,-188 348.3342,-174.1136 352.8686,-155.105 358.6419,-141.0532"/><polygon fill="#191970" stroke="#191970" points="361.88 -142.388 362.886 -131.841 355.523 -139.459 361.88 -142.388"/></g><g id="node15" class="node"><title>Node14</title><g id="a_node15"><a target="_top" xlink:href="size_8h.html" xlink:title="mir/geometry/size.h"><polygon fill="#fff" stroke="#000" points="447 -112.5 447 -131.5 562 -131.5 562 -112.5 447 -112.5"/><text x="504.5" y="-119.5" fill="#000" font-family="Arial" font-size="10" text-anchor="middle">mir/geometry/size.h</text></a></g></g><g id="edge16" class="edge"><title>Node9-&gt;Node14</title><path fill="none" stroke="#191970" d="M819.0549,-280.4518C835.8519,-258.0136 872.5981,-201.3132 843.5,-168 825.9466,-147.9039 665.9946,-133.3547 572.2101,-126.4673"/><polygon fill="#191970" stroke="#191970" points="572.459 -122.976 562.232 -125.745 571.953 -129.958 572.459 -122.976"/></g><g id="node12" class="node"><title>Node11</title><g id="a_node12"><a target="_top" xlink:href="dimensions_8h.html" xlink:title="dimensions.h"><polygon fill="#fff" stroke="#000" points="331.5 -56.5 331.5 -75.5 413.5 -75.5 413.5 -56.5 331.5 -56.5"/><text x="372.5" y="-63.5" fill="#000" font-family="Arial" font-size="10" text-anchor="middle">dimensions.h</text></a></g></g><g id="edge12" class="edge"><title>Node10-&gt;Node11</title><path fill="none" stroke="#191970" d="M369.1967,-112.2455C369.7187,-104.9382 370.4504,-94.6944 371.0925,-85.7046"/><polygon fill="#191970" stroke="#191970" points="374.59 -85.867 371.811 -75.643 367.608 -85.368 374.59 -85.867"/></g><g id="node14" class="node"><title>Node13</title><polygon fill="#fff" stroke="#bfbfbf" points="452 -.5 452 -19.5 501 -19.5 501 -.5 452 -.5"/><text x="476.5" y="-7.5" fill="#000" font-family="Arial" font-size="10" text-anchor="middle">iosfwd</text></g><g id="edge15" class="edge"><title>Node10-&gt;Node13</title><path fill="none" stroke="#191970" d="M381.0633,-112.3614C392.3784,-103.4385 409.2229,-89.5431 422.5,-76 437.4634,-60.7368 452.7242,-41.6977 463.1877,-27.9962"/><polygon fill="#191970" stroke="#191970" points="466.098 -29.95 469.32 -19.857 460.507 -25.738 466.098 -29.95"/></g><g id="node13" class="node"><title>Node12</title><polygon fill="#fff" stroke="#bfbfbf" points="347.5 -.5 347.5 -19.5 397.5 -19.5 397.5 -.5 347.5 -.5"/><text x="372.5" y="-7.5" fill="#000" font-family="Arial" font-size="10" text-anchor="middle">cstdint</text></g><g id="edge13" class="edge"><title>Node11-&gt;Node12</title><path fill="none" stroke="#191970" d="M372.5,-56.2455C372.5,-48.9382 372.5,-38.6944 372.5,-29.7046"/><polygon fill="#191970" stroke="#191970" points="376 -29.643 372.5 -19.643 369 -29.643 376 -29.643"/></g><g id="edge14" class="edge"><title>Node11-&gt;Node13</title><path fill="none" stroke="#191970" d="M390.6154,-56.2455C406.945,-47.4527 431.171,-34.4079 449.7339,-24.4125"/><polygon fill="#191970" stroke="#191970" points="451.447 -27.465 458.592 -19.643 448.128 -21.302 451.447 -27.465"/></g><g id="edge17" class="edge"><title>Node14-&gt;Node11</title><path fill="none" stroke="#191970" d="M481.8084,-112.3733C460.4289,-103.3032 428.1943,-89.6279 404.2638,-79.4755"/><polygon fill="#191970" stroke="#191970" points="405.468 -76.185 394.896 -75.501 402.734 -82.629 405.468 -76.185"/></g><g id="edge18" class="edge"><title>Node14-&gt;Node13</title><path fill="none" stroke="#191970" d="M502.1127,-112.4509C497.5253,-94.1013 487.3977,-53.5908 481.3423,-29.3693"/><polygon fill="#191970" stroke="#191970" points="484.702 -28.377 478.881 -19.525 477.911 -30.075 484.702 -28.377"/></g><g id="edge21" class="edge"><title>Node15-&gt;Node4</title><path fill="none" stroke="#191970" d="M627.6399,-280.8699C630.6304,-280.5684 633.5917,-280.2772 636.5,-280 843.7318,-260.2445 903.4765,-301.6707 1103.5,-244 1121.8383,-238.7127 1124.1602,-231.9735 1141.5,-224 1167.851,-211.8829 1198.3647,-199.8591 1221.481,-191.1449"/><polygon fill="#191970" stroke="#191970" points="1222.761 -194.403 1230.901 -187.622 1220.309 -187.846 1222.761 -194.403"/></g><g id="edge40" class="edge"><title>Node15-&gt;Node6</title><path fill="none" stroke="#191970" d="M617.465,-280.4683C663.491,-273.0603 724.9732,-261.1345 777.5,-244 819.5885,-230.2705 865.6394,-207.5073 893.8048,-192.6292"/><polygon fill="#191970" stroke="#191970" points="895.815 -195.523 902.986 -187.723 892.516 -189.349 895.815 -195.523"/></g><g id="edge22" class="edge"><title>Node15-&gt;Node16</title><path fill="none" stroke="#191970" d="M469.1968,-286.9107C399.2078,-282.3995 295.1376,-271.3016 208.5,-244 169.8045,-231.8061 128.736,-208.553 103.85,-193.16"/><polygon fill="#191970" stroke="#191970" points="105.472 -190.045 95.143 -187.685 101.745 -195.971 105.472 -190.045"/></g><g id="edge26" class="edge"><title>Node15-&gt;Node17</title><path fill="none" stroke="#191970" d="M573.7702,-280.3733C597.8966,-271.1822 634.4362,-257.2624 661.1877,-247.0713"/><polygon fill="#191970" stroke="#191970" points="662.461 -250.332 670.56 -243.501 659.969 -243.79 662.461 -250.332"/></g><g id="edge34" class="edge"><title>Node15-&gt;Node21</title><path fill="none" stroke="#191970" d="M502.0506,-280.4369C455.2065,-270.7925 382.8461,-255.8948 332.7738,-245.5858"/><polygon fill="#191970" stroke="#191970" points="333.258 -242.112 322.758 -243.524 331.847 -248.968 333.258 -242.112"/></g><g id="node25" class="node"><title>Node24</title><g id="a_node25"><a target="_top" xlink:href="int__wrapper_8h.html" xlink:title="mir/int_wrapper.h"><polygon fill="#fff" stroke="#000" points="497.5 -224.5 497.5 -243.5 599.5 -243.5 599.5 -224.5 497.5 -224.5"/><text x="548.5" y="-231.5" fill="#000" font-family="Arial" font-size="10" text-anchor="middle">mir/int_wrapper.h</text></a></g></g><g id="edge37" class="edge"><title>Node15-&gt;Node24</title><path fill="none" stroke="#191970" d="M548.5,-280.2455C548.5,-272.9382 548.5,-262.6944 548.5,-253.7046"/><polygon fill="#191970" stroke="#191970" points="552 -253.643 548.5 -243.643 545 -253.643 552 -253.643"/></g><g id="edge24" class="edge"><title>Node16-&gt;Node10</title><path fill="none" stroke="#191970" d="M129.6817,-168.4369C179.4884,-158.7522 256.5385,-143.7703 309.5788,-133.4569"/><polygon fill="#191970" stroke="#191970" points="310.373 -136.868 319.521 -131.524 309.037 -129.997 310.373 -136.868"/></g><g id="edge23" class="edge"><title>Node16-&gt;Node11</title><path fill="none" stroke="#191970" d="M105.3958,-168.4509C157.6536,-148.4069 278.851,-101.9202 338.33,-79.1063"/><polygon fill="#191970" stroke="#191970" points="339.584 -82.374 347.667 -75.525 337.077 -75.838 339.584 -82.374"/></g><g id="edge25" class="edge"><title>Node16-&gt;Node13</title><path fill="none" stroke="#191970" d="M98.1877,-168.3791C122.3029,-155.3269 166.9158,-131.4106 205.5,-112 256.9998,-86.0919 268.7173,-76.7575 322.5,-56 362.6104,-40.5194 410.2257,-27.0097 441.7814,-18.7065"/><polygon fill="#191970" stroke="#191970" points="443.035 -21.997 451.833 -16.095 441.274 -15.222 443.035 -21.997"/></g><g id="edge27" class="edge"><title>Node17-&gt;Node10</title><path fill="none" stroke="#191970" d="M622.273,-224.4996C579.6215,-217.4797 525.378,-205.9599 479.5,-188 461.7747,-181.0611 418.7275,-154.2895 391.7489,-137.0482"/><polygon fill="#191970" stroke="#191970" points="393.582 -134.066 383.276 -131.609 389.8 -139.956 393.582 -134.066"/></g><g id="node19" class="node"><title>Node18</title><g id="a_node19"><a target="_top" xlink:href="rectangle_8h.html" xlink:title="mir/geometry/rectangle.h"><polygon fill="#fff" stroke="#000" points="489 -168.5 489 -187.5 630 -187.5 630 -168.5 489 -168.5"/><text x="559.5" y="-175.5" fill="#000" font-family="Arial" font-size="10" text-anchor="middle">mir/geometry/rectangle.h</text></a></g></g><g id="edge28" class="edge"><title>Node17-&gt;Node18</title><path fill="none" stroke="#191970" d="M672.1208,-224.3733C649.9955,-215.2629 616.5866,-201.5062 591.8981,-191.3404"/><polygon fill="#191970" stroke="#191970" points="593.154 -188.072 582.574 -187.501 590.488 -194.545 593.154 -188.072"/></g><g id="node20" class="node"><title>Node19</title><polygon fill="#fff" stroke="#bfbfbf" points="788 -168.5 788 -187.5 835 -187.5 835 -168.5 788 -168.5"/><text x="811.5" y="-175.5" fill="#000" font-family="Arial" font-size="10" text-anchor="middle">vector</text></g><g id="edge32" class="edge"><title>Node17-&gt;Node19</title><path fill="none" stroke="#191970" d="M715.4411,-224.3733C733.9786,-215.4241 761.8028,-201.9917 782.7413,-191.8835"/><polygon fill="#191970" stroke="#191970" points="784.335 -195.001 791.819 -187.501 781.292 -188.697 784.335 -195.001"/></g><g id="node21" class="node"><title>Node20</title><polygon fill="#fff" stroke="#bfbfbf" points="687 -168.5 687 -187.5 770 -187.5 770 -168.5 687 -168.5"/><text x="728.5" y="-175.5" fill="#000" font-family="Arial" font-size="10" text-anchor="middle">initializer_list</text></g><g id="edge33" class="edge"><title>Node17-&gt;Node20</title><path fill="none" stroke="#191970" d="M701.2482,-224.2455C705.7435,-216.617 712.1248,-205.7881 717.5825,-196.5267"/><polygon fill="#191970" stroke="#191970" points="720.756 -198.035 722.818 -187.643 714.725 -194.481 720.756 -198.035"/></g><g id="edge29" class="edge"><title>Node18-&gt;Node10</title><path fill="none" stroke="#191970" d="M526.6659,-168.3733C494.6305,-158.9807 445.7513,-144.6496 410.8145,-134.4064"/><polygon fill="#191970" stroke="#191970" points="411.486 -130.956 400.906 -131.501 409.517 -137.673 411.486 -130.956"/></g><g id="edge31" class="edge"><title>Node18-&gt;Node13</title><path fill="none" stroke="#191970" d="M564.2301,-168.2717C569.9489,-155.0979 577.937,-131.0442 570.5,-112 556.1301,-75.2026 521.5786,-43.6815 498.6105,-25.7842"/><polygon fill="#191970" stroke="#191970" points="500.529 -22.847 490.441 -19.609 496.308 -28.431 500.529 -22.847"/></g><g id="edge30" class="edge"><title>Node18-&gt;Node14</title><path fill="none" stroke="#191970" d="M549.9197,-168.2455C541.9542,-160.1352 530.4359,-148.4075 520.9921,-138.7919"/><polygon fill="#191970" stroke="#191970" points="523.475 -136.325 513.971 -131.643 518.481 -141.23 523.475 -136.325"/></g><g id="node23" class="node"><title>Node22</title><g id="a_node23"><a target="_top" xlink:href="fatal_8h.html" xlink:title="mir/fatal.h"><polygon fill="#fff" stroke="#000" points="242.5 -168.5 242.5 -187.5 310.5 -187.5 310.5 -168.5 242.5 -168.5"/><text x="276.5" y="-175.5" fill="#000" font-family="Arial" font-size="10" text-anchor="middle">mir/fatal.h</text></a></g></g><g id="edge35" class="edge"><title>Node21-&gt;Node22</title><path fill="none" stroke="#191970" d="M276.5,-224.2455C276.5,-216.9382 276.5,-206.6944 276.5,-197.7046"/><polygon fill="#191970" stroke="#191970" points="280 -197.643 276.5 -187.643 273 -197.643 280 -197.643"/></g><g id="node24" class="node"><title>Node23</title><polygon fill="#fff" stroke="#bfbfbf" points="179 -168.5 179 -187.5 224 -187.5 224 -168.5 179 -168.5"/><text x="201.5" y="-175.5" fill="#000" font-family="Arial" font-size="10" text-anchor="middle">utility</text></g><g id="edge36" class="edge"><title>Node21-&gt;Node23</title><path fill="none" stroke="#191970" d="M263.436,-224.2455C252.1438,-215.814 235.6155,-203.4729 222.4729,-193.6598"/><polygon fill="#191970" stroke="#191970" points="224.521 -190.821 214.414 -187.643 220.333 -196.43 224.521 -190.821"/></g><g id="edge38" class="edge"><title>Node24-&gt;Node13</title><path fill="none" stroke="#191970" d="M587.477,-224.3933C606.3619,-217.5635 627.3258,-206.2604 638.5,-188 643.1397,-180.4181 641.2867,-176.4408 638.5,-168 619.0763,-109.1669 601.6618,-97.3244 555.5,-56 541.2029,-43.2012 522.789,-32.2312 507.336,-24.2175"/><polygon fill="#191970" stroke="#191970" points="508.669 -20.97 498.16 -19.62 505.533 -27.229 508.669 -20.97"/></g><g id="edge39" class="edge"><title>Node24-&gt;Node25</title><path fill="none" stroke="#191970" d="M522.886,-224.3733C498.4313,-215.1822 461.3946,-201.2624 434.2791,-191.0713"/><polygon fill="#191970" stroke="#191970" points="435.372 -187.743 424.78 -187.501 432.909 -194.296 435.372 -187.743"/></g><g id="edge48" class="edge"><title>Node27-&gt;Node6</title><path fill="none" stroke="#191970" d="M1009.1768,-336.4862C994.1246,-309.5845 951.0497,-232.5994 931.0007,-196.7673"/><polygon fill="#191970" stroke="#191970" points="933.936 -194.846 925.999 -187.828 927.827 -198.264 933.936 -194.846"/></g><g id="edge51" class="edge"><title>Node29-&gt;Node7</title><path fill="none" stroke="#191970" d="M1272.6773,-397.8028C1281.8014,-370.2259 1309.2437,-289.1429 1337.5,-224 1341.4406,-214.9153 1346.2836,-205.0685 1350.5075,-196.825"/><polygon fill="#191970" stroke="#191970" points="1353.733 -198.209 1355.251 -187.724 1347.525 -194.974 1353.733 -198.209"/></g><g id="edge54" class="edge"><title>Node30-&gt;Node6</title><path fill="none" stroke="#191970" d="M1019.8713,-224.3733C1000.6081,-215.3838 971.6514,-201.8706 949.9581,-191.7471"/><polygon fill="#191970" stroke="#191970" points="951.402 -188.558 940.86 -187.501 948.441 -194.902 951.402 -188.558"/></g><g id="edge55" class="edge"><title>Node30-&gt;Node19</title><path fill="none" stroke="#191970" d="M1001.3937,-224.4369C957.3498,-213.6663 886.5135,-196.3439 844.9413,-186.1778"/><polygon fill="#191970" stroke="#191970" points="845.582 -182.731 835.037 -183.756 843.919 -189.531 845.582 -182.731"/></g><g id="edge56" class="edge"><title>Node30-&gt;Node25</title><path fill="none" stroke="#191970" d="M986.2732,-230.324C886.0642,-223.3595 665.1595,-207.2066 479.5,-188 467.4395,-186.7523 454.381,-185.204 442.3808,-183.7014"/><polygon fill="#191970" stroke="#191970" points="442.521 -180.191 432.159 -182.401 441.638 -187.135 442.521 -180.191"/></g><g id="node32" class="node"><title>Node31</title><polygon fill="#fff" stroke="#bfbfbf" points="967.5 -168.5 967.5 -187.5 1065.5 -187.5 1065.5 -168.5 967.5 -168.5"/><text x="1016.5" y="-175.5" fill="#000" font-family="Arial" font-size="10" text-anchor="middle">wayland-client.h</text></g><g id="edge53" class="edge"><title>Node30-&gt;Node31</title><path fill="none" stroke="#191970" d="M1036.3195,-224.2455C1033.119,-216.7776 1028.604,-206.2427 1024.6916,-197.1137"/><polygon fill="#191970" stroke="#191970" points="1027.789 -195.455 1020.633 -187.643 1021.355 -198.213 1027.789 -195.455"/></g><g id="node33" class="node"><title>Node32</title><polygon fill="#fff" stroke="#bfbfbf" points="1084 -168.5 1084 -187.5 1177 -187.5 1177 -168.5 1084 -168.5"/><text x="1130.5" y="-175.5" fill="#000" font-family="Arial" font-size="10" text-anchor="middle">unordered_map</text></g><g id="edge57" class="edge"><title>Node30-&gt;Node32</title><path fill="none" stroke="#191970" d="M1056.1768,-224.2455C1069.9856,-215.6534 1090.3193,-203.0014 1106.2292,-193.1018"/><polygon fill="#191970" stroke="#191970" points="1108.361 -195.897 1115.003 -187.643 1104.663 -189.954 1108.361 -195.897"/></g></g></svg>