<svg xmlns="http://www.w3.org/2000/svg" xmlns:xlink="http://www.w3.org/1999/xlink" width="94pt" height="151pt" viewBox="0 0 94 151"><g id="graph0" class="graph" transform="scale(1 1) rotate(0) translate(4 147)"><title>include/client/mir/client</title><polygon fill="#fff" stroke="transparent" points="-4 4 -4 -147 90 -147 90 4 -4 4"/><g id="clust1" class="cluster"><title>clusterdir_922ddc82555d6e3e8c3ba93df0fc2d5e</title><g id="a_clust1"><a target="_top" xlink:href="dir_922ddc82555d6e3e8c3ba93df0fc2d5e.html" xlink:title="mir"><polygon fill="#dde" stroke="#000" points="8 -64 8 -135 78 -135 78 -64 8 -64"/><text x="43" y="-123" fill="#000" font-family="Arial" font-size="10" text-anchor="middle">mir</text></a></g></g><g id="node1" class="node"><title>dir_2360a4be4fa9eb5453a7779787e3c570</title><g id="a_node1"><a target="_top" xlink:href="dir_2360a4be4fa9eb5453a7779787e3c570.html" xlink:title="client"><polygon fill="#eef" stroke="#000" points="70 -108 16 -108 16 -72 70 -72 70 -108"/><text x="43" y="-87.5" fill="#000" font-family="Arial" font-size="10" text-anchor="middle">client</text></a></g></g><g id="node2" class="node"><title>dir_866c46951d19fd3fcfcc106369b0956c</title><g id="a_node2"><a target="_top" xlink:href="dir_866c46951d19fd3fcfcc106369b0956c.html" xlink:title="mir_toolkit"><polygon fill="#fff" stroke="red" points="78 -36 8 -36 8 0 78 0 78 -36"/><text x="43" y="-15.5" fill="#000" font-family="Arial" font-size="10" text-anchor="middle">mir_toolkit</text></a></g></g><g id="edge1" class="edge"><title>dir_2360a4be4fa9eb5453a7779787e3c570-&gt;dir_866c46951d19fd3fcfcc106369b0956c</title><path fill="none" stroke="#000" d="M43,-71.8314C43,-64.131 43,-54.9743 43,-46.4166"/><polygon fill="#000" stroke="#000" points="46.5 -46.413 43 -36.413 39.5 -46.413 46.5 -46.413"/><g id="a_edge1-headlabel"><a target="_top" xlink:href="dir_000008_000009.html" xlink:title="14"><text x="49.339" y="-47.508" fill="#000" font-family="Arial" font-size="10" text-anchor="middle">14</text></a></g></g></g></svg>