<svg xmlns="http://www.w3.org/2000/svg" xmlns:xlink="http://www.w3.org/1999/xlink" width="94pt" height="151pt" viewBox="0 0 94 151"><g id="graph0" class="graph" transform="scale(1 1) rotate(0) translate(4 147)"><title>include/client/mir_toolkit/events/input</title><polygon fill="#fff" stroke="transparent" points="-4 4 -4 -147 90 -147 90 4 -4 4"/><g id="clust1" class="cluster"><title>clusterdir_86aa398c6aa9d126179b7e654ff62db8</title><g id="a_clust1"><a target="_top" xlink:href="dir_86aa398c6aa9d126179b7e654ff62db8.html" xlink:title="events"><polygon fill="#dde" stroke="#000" points="8 -64 8 -135 78 -135 78 -64 8 -64"/><text x="43" y="-123" fill="#000" font-family="Arial" font-size="10" text-anchor="middle">events</text></a></g></g><g id="node1" class="node"><title>dir_f9aeb9373ddbe5485afb51486d81b074</title><g id="a_node1"><a target="_top" xlink:href="dir_f9aeb9373ddbe5485afb51486d81b074.html" xlink:title="input"><polygon fill="#eef" stroke="#000" points="70 -108 16 -108 16 -72 70 -72 70 -108"/><text x="43" y="-87.5" fill="#000" font-family="Arial" font-size="10" text-anchor="middle">input</text></a></g></g><g id="node2" class="node"><title>dir_3d69f64eaf81436fe2b22361382717e5</title><g id="a_node2"><a target="_top" xlink:href="dir_3d69f64eaf81436fe2b22361382717e5.html" xlink:title="core"><polygon fill="#fff" stroke="red" points="70 -36 16 -36 16 0 70 0 70 -36"/><text x="43" y="-15.5" fill="#000" font-family="Arial" font-size="10" text-anchor="middle">core</text></a></g></g><g id="edge1" class="edge"><title>dir_f9aeb9373ddbe5485afb51486d81b074-&gt;dir_3d69f64eaf81436fe2b22361382717e5</title><path fill="none" stroke="#000" d="M43,-71.8314C43,-64.131 43,-54.9743 43,-46.4166"/><polygon fill="#000" stroke="#000" points="46.5 -46.413 43 -36.413 39.5 -46.413 46.5 -46.413"/><g id="a_edge1-headlabel"><a target="_top" xlink:href="dir_000015_000018.html" xlink:title="1"><text x="49.339" y="-47.508" fill="#000" font-family="Arial" font-size="10" text-anchor="middle">1</text></a></g></g></g></svg>