<svg xmlns="http://www.w3.org/2000/svg" xmlns:xlink="http://www.w3.org/1999/xlink" width="118pt" height="223pt" viewBox="0 0 118 223"><g id="graph0" class="graph" transform="scale(1 1) rotate(0) translate(4 219)"><title>include/client/mir/events</title><polygon fill="#fff" stroke="transparent" points="-4 4 -4 -219 114 -219 114 4 -4 4"/><g id="clust1" class="cluster"><title>clusterdir_922ddc82555d6e3e8c3ba93df0fc2d5e</title><g id="a_clust1"><a target="_top" xlink:href="dir_922ddc82555d6e3e8c3ba93df0fc2d5e.html" xlink:title="mir"><polygon fill="#dde" stroke="#000" points="32 -136 32 -207 102 -207 102 -136 32 -136"/><text x="67" y="-195" fill="#000" font-family="Arial" font-size="10" text-anchor="middle">mir</text></a></g></g><g id="node1" class="node"><title>dir_37013e6622aa85210765d5a50104d3e1</title><g id="a_node1"><a target="_top" xlink:href="dir_37013e6622aa85210765d5a50104d3e1.html" xlink:title="events"><polygon fill="#eef" stroke="#000" points="94 -180 40 -180 40 -144 94 -144 94 -180"/><text x="67" y="-159.5" fill="#000" font-family="Arial" font-size="10" text-anchor="middle">events</text></a></g></g><g id="node2" class="node"><title>dir_866c46951d19fd3fcfcc106369b0956c</title><g id="a_node2"><a target="_top" xlink:href="dir_866c46951d19fd3fcfcc106369b0956c.html" xlink:title="mir_toolkit"><polygon fill="#fff" stroke="red" points="70 -108 0 -108 0 -72 70 -72 70 -108"/><text x="35" y="-87.5" fill="#000" font-family="Arial" font-size="10" text-anchor="middle">mir_toolkit</text></a></g></g><g id="edge2" class="edge"><title>dir_37013e6622aa85210765d5a50104d3e1-&gt;dir_866c46951d19fd3fcfcc106369b0956c</title><path fill="none" stroke="#000" d="M58.925,-143.8314C55.3898,-135.8771 51.164,-126.369 47.2544,-117.5723"/><polygon fill="#000" stroke="#000" points="50.444 -116.13 43.184 -108.413 44.047 -118.973 50.444 -116.13"/><g id="a_edge2-headlabel"><a target="_top" xlink:href="dir_000014_000009.html" xlink:title="1"><text x="54.498" y="-115.762" fill="#000" font-family="Arial" font-size="10" text-anchor="middle">1</text></a></g></g><g id="node3" class="node"><title>dir_3d69f64eaf81436fe2b22361382717e5</title><g id="a_node3"><a target="_top" xlink:href="dir_3d69f64eaf81436fe2b22361382717e5.html" xlink:title="core"><polygon fill="#fff" stroke="red" points="93 -36 39 -36 39 0 93 0 93 -36"/><text x="66" y="-15.5" fill="#000" font-family="Arial" font-size="10" text-anchor="middle">core</text></a></g></g><g id="edge3" class="edge"><title>dir_37013e6622aa85210765d5a50104d3e1-&gt;dir_3d69f64eaf81436fe2b22361382717e5</title><path fill="none" stroke="#000" d="M72.1191,-143.6727C74.752,-133.2978 77.6796,-120.0284 79,-108 80.7459,-92.0955 80.8856,-87.8885 79,-72 77.9932,-63.5166 76.1264,-54.4376 74.1153,-46.1913"/><polygon fill="#000" stroke="#000" points="77.447 -45.097 71.545 -36.299 70.672 -46.858 77.447 -45.097"/><g id="a_edge3-headlabel"><a target="_top" xlink:href="dir_000014_000018.html" xlink:title="4"><text x="81.099" y="-45.362" fill="#000" font-family="Arial" font-size="10" text-anchor="middle">4</text></a></g></g><g id="edge1" class="edge"><title>dir_866c46951d19fd3fcfcc106369b0956c-&gt;dir_3d69f64eaf81436fe2b22361382717e5</title><path fill="none" stroke="#000" d="M42.8226,-71.8314C46.2109,-63.9617 50.2541,-54.5712 54.0076,-45.8533"/><polygon fill="#000" stroke="#000" points="57.332 -46.982 58.072 -36.413 50.903 -44.214 57.332 -46.982"/><g id="a_edge1-headlabel"><a target="_top" xlink:href="dir_000009_000018.html" xlink:title="32"><text x="58.519" y="-48.907" fill="#000" font-family="Arial" font-size="10" text-anchor="middle">32</text></a></g></g></g></svg>