<svg xmlns="http://www.w3.org/2000/svg" xmlns:xlink="http://www.w3.org/1999/xlink" width="2203pt" height="588" viewBox="0 0 2202.93 441"><g id="graph0" class="graph" transform="scale(1 1) rotate(0) translate(4 437)"><title>include/client/mir/client/display_config.h</title><polygon fill="#fff" stroke="transparent" points="-4 4 -4 -437 2198.933 -437 2198.933 4 -4 4"/><g id="node1" class="node"><title>Node0</title><polygon fill="#bfbfbf" stroke="#000" points="227 -402.5 227 -432.5 355 -432.5 355 -402.5 227 -402.5"/><text x="235" y="-420.5" fill="#000" font-family="Arial" font-size="10" text-anchor="start">include/client/mir</text><text x="291" y="-409.5" fill="#000" font-family="Arial" font-size="10" text-anchor="middle">/client/display_config.h</text></g><g id="node2" class="node"><title>Node1</title><g id="a_node2"><a target="_top" xlink:href="mir__connection_8h.html" xlink:title="mir_toolkit/mir_connection.h"><polygon fill="#fff" stroke="#000" points="148.5 -341 148.5 -360 305.5 -360 305.5 -341 148.5 -341"/><text x="227" y="-348" fill="#000" font-family="Arial" font-size="10" text-anchor="middle">mir_toolkit/mir_connection.h</text></a></g></g><g id="edge1" class="edge"><title>Node0-&gt;Node1</title><path fill="none" stroke="#191970" d="M276.4774,-402.2967C266.6027,-391.9591 253.5251,-378.2684 243.2949,-367.5588"/><polygon fill="#191970" stroke="#191970" points="245.565 -364.868 236.127 -360.055 240.504 -369.704 245.565 -364.868"/></g><g id="node26" class="node"><title>Node25</title><g id="a_node26"><a target="_top" xlink:href="mir__display__configuration_8h.html" xlink:title="mir_toolkit/mir_display\l_configuration.h"><polygon fill="#fff" stroke="#000" points="0 -335.5 0 -365.5 130 -365.5 130 -335.5 0 -335.5"/><text x="8" y="-353.5" fill="#000" font-family="Arial" font-size="10" text-anchor="start">mir_toolkit/mir_display</text><text x="65" y="-342.5" fill="#000" font-family="Arial" font-size="10" text-anchor="middle">_configuration.h</text></a></g></g><g id="edge50" class="edge"><title>Node0-&gt;Node25</title><path fill="none" stroke="#191970" d="M240.2812,-402.4639C206.3784,-392.4131 161.5982,-379.1375 125.7865,-368.5208"/><polygon fill="#191970" stroke="#191970" points="126.522 -365.088 115.94 -365.602 124.533 -371.8 126.522 -365.088"/></g><g id="node27" class="node"><title>Node26</title><polygon fill="#fff" stroke="#bfbfbf" points="323.5 -341 323.5 -360 388.5 -360 388.5 -341 323.5 -341"/><text x="356" y="-348" fill="#000" font-family="Arial" font-size="10" text-anchor="middle">functional</text></g><g id="edge53" class="edge"><title>Node0-&gt;Node26</title><path fill="none" stroke="#191970" d="M305.7495,-402.2967C315.8768,-391.8578 329.3212,-377.9997 339.7552,-367.2446"/><polygon fill="#191970" stroke="#191970" points="342.279 -369.67 346.73 -360.055 337.255 -364.795 342.279 -369.67"/></g><g id="node28" class="node"><title>Node27</title><polygon fill="#fff" stroke="#bfbfbf" points="407 -341 407 -360 465 -360 465 -341 407 -341"/><text x="436" y="-348" fill="#000" font-family="Arial" font-size="10" text-anchor="middle">memory</text></g><g id="edge54" class="edge"><title>Node0-&gt;Node27</title><path fill="none" stroke="#191970" d="M323.5408,-402.4639C348.1987,-391.0702 381.8248,-375.5327 405.8706,-364.4219"/><polygon fill="#191970" stroke="#191970" points="407.606 -367.476 415.215 -360.104 404.67 -361.121 407.606 -367.476"/></g><g id="node3" class="node"><title>Node2</title><g id="a_node3"><a target="_top" xlink:href="client__types_8h.html" xlink:title="mir_toolkit/client\l_types.h"><polygon fill="#fff" stroke="#000" points="199 -268.5 199 -298.5 299 -298.5 299 -268.5 199 -268.5"/><text x="207" y="-286.5" fill="#000" font-family="Arial" font-size="10" text-anchor="start">mir_toolkit/client</text><text x="249" y="-275.5" fill="#000" font-family="Arial" font-size="10" text-anchor="middle">_types.h</text></a></g></g><g id="edge2" class="edge"><title>Node1-&gt;Node2</title><path fill="none" stroke="#191970" d="M230.1521,-340.9005C232.9356,-332.4234 237.1181,-319.6856 240.8366,-308.3614"/><polygon fill="#191970" stroke="#191970" points="244.273 -309.115 244.067 -298.522 237.622 -306.931 244.273 -309.115"/></g><g id="node7" class="node"><title>Node6</title><g id="a_node7"><a target="_top" xlink:href="common_8h.html" xlink:title="mir_toolkit/common.h"><polygon fill="#fff" stroke="#000" points="119.5 -134.5 119.5 -153.5 244.5 -153.5 244.5 -134.5 119.5 -134.5"/><text x="182" y="-141.5" fill="#000" font-family="Arial" font-size="10" text-anchor="middle">mir_toolkit/common.h</text></a></g></g><g id="edge47" class="edge"><title>Node1-&gt;Node6</title><path fill="none" stroke="#191970" d="M217.4155,-340.8534C208.5012,-331.1848 195.7563,-315.4146 190,-299 173.791,-252.7788 176.5674,-194.0476 179.5399,-163.8768"/><polygon fill="#191970" stroke="#191970" points="183.034 -164.121 180.649 -153.798 176.076 -163.355 183.034 -164.121"/></g><g id="node8" class="node"><title>Node7</title><g id="a_node8"><a target="_top" xlink:href="deprecations_8h.html" xlink:title="mir_toolkit/deprecations.h"><polygon fill="#fff" stroke="#000" points="178.5 -62 178.5 -81 323.5 -81 323.5 -62 178.5 -62"/><text x="251" y="-69" fill="#000" font-family="Arial" font-size="10" text-anchor="middle">mir_toolkit/deprecations.h</text></a></g></g><g id="edge48" class="edge"><title>Node1-&gt;Node7</title><path fill="none" stroke="#191970" d="M207.5858,-340.882C147.3116,-309.7872 -28.6083,-208.9983 39,-123 55.2187,-102.3697 115.9936,-88.9842 168.3374,-81.0449"/><polygon fill="#191970" stroke="#191970" points="168.953 -84.492 178.339 -79.577 167.936 -77.566 168.953 -84.492"/></g><g id="node11" class="node"><title>Node10</title><polygon fill="#fff" stroke="#bfbfbf" points="2073 -.5 2073 -19.5 2135 -19.5 2135 -.5 2073 -.5"/><text x="2104" y="-7.5" fill="#000" font-family="Arial" font-size="10" text-anchor="middle">stdbool.h</text></g><g id="edge49" class="edge"><title>Node1-&gt;Node10</title><path fill="none" stroke="#191970" d="M275.7309,-340.9198C288.4696,-338.6895 302.2148,-336.5243 315,-335 418.8607,-322.6172 2194,-321.0963 2194,-216.5 2194,-216.5 2194,-216.5 2194,-144 2194,-103.9877 2197.7337,-88.9267 2175,-56 2165.5755,-42.3499 2150.6482,-31.7909 2136.9075,-24.2523"/><polygon fill="#191970" stroke="#191970" points="2138.162 -20.962 2127.667 -19.515 2134.969 -27.192 2138.162 -20.962"/></g><g id="node4" class="node"><title>Node3</title><g id="a_node4"><a target="_top" xlink:href="toolkit_2events_2event_8h.html" xlink:title="mir_toolkit/events\l/event.h"><polygon fill="#fff" stroke="#000" points="983 -201.5 983 -231.5 1089 -231.5 1089 -201.5 983 -201.5"/><text x="991" y="-219.5" fill="#000" font-family="Arial" font-size="10" text-anchor="start">mir_toolkit/events</text><text x="1036" y="-208.5" fill="#000" font-family="Arial" font-size="10" text-anchor="middle">/event.h</text></a></g></g><g id="edge3" class="edge"><title>Node2-&gt;Node3</title><path fill="none" stroke="#191970" d="M299.1271,-279.2325C436.81,-267.5111 820.6279,-234.8354 972.74,-221.8855"/><polygon fill="#191970" stroke="#191970" points="973.185 -225.36 982.852 -221.025 972.592 -218.386 973.185 -225.36"/></g><g id="node5" class="node"><title>Node4</title><polygon fill="#fff" stroke="#bfbfbf" points="1826 -134.5 1826 -153.5 1882 -153.5 1882 -134.5 1826 -134.5"/><text x="1854" y="-141.5" fill="#000" font-family="Arial" font-size="10" text-anchor="middle">stddef.h</text></g><g id="edge46" class="edge"><title>Node2-&gt;Node4</title><path fill="none" stroke="#191970" d="M299.1292,-282.7661C533.7,-278.8686 1523.8493,-257.1533 1817,-165 1821.8531,-163.4744 1826.773,-161.2497 1831.3725,-158.8124"/><polygon fill="#191970" stroke="#191970" points="1833.347 -161.713 1840.239 -153.667 1829.834 -155.659 1833.347 -161.713"/></g><g id="edge44" class="edge"><title>Node2-&gt;Node6</title><path fill="none" stroke="#191970" d="M241.7023,-268.3055C229.3781,-242.6454 204.4754,-190.7957 191.0562,-162.8557"/><polygon fill="#191970" stroke="#191970" points="194.161 -161.236 186.676 -153.737 187.851 -164.266 194.161 -161.236"/></g><g id="edge45" class="edge"><title>Node2-&gt;Node7</title><path fill="none" stroke="#191970" d="M218.246,-268.4151C166.417,-240.9365 71.05,-180.2632 111,-123 121.6664,-107.7111 164.6113,-93.3311 200.1569,-83.6728"/><polygon fill="#191970" stroke="#191970" points="201.184 -87.022 209.953 -81.077 199.391 -80.255 201.184 -87.022"/></g><g id="edge4" class="edge"><title>Node3-&gt;Node4</title><path fill="none" stroke="#191970" d="M1089.1245,-214.3746C1253.6271,-207.6017 1747.725,-185.7509 1817,-165 1821.9573,-163.5151 1826.9725,-161.27 1831.6426,-158.7921"/><polygon fill="#191970" stroke="#191970" points="1833.748 -161.616 1840.615 -153.548 1830.215 -155.572 1833.748 -161.616"/></g><g id="node6" class="node"><title>Node5</title><polygon fill="#fff" stroke="#bfbfbf" points="1677.5 -.5 1677.5 -19.5 1730.5 -19.5 1730.5 -.5 1677.5 -.5"/><text x="1704" y="-7.5" fill="#000" font-family="Arial" font-size="10" text-anchor="middle">stdint.h</text></g><g id="edge5" class="edge"><title>Node3-&gt;Node5</title><path fill="none" stroke="#191970" d="M1089.0208,-213.5759C1233.5145,-205.4027 1624.9342,-181.8179 1647,-165 1690.0235,-132.2086 1700.591,-63.5606 1703.1736,-29.7199"/><polygon fill="#191970" stroke="#191970" points="1706.671 -29.872 1703.779 -19.68 1699.683 -29.451 1706.671 -29.872"/></g><g id="edge6" class="edge"><title>Node3-&gt;Node6</title><path fill="none" stroke="#191970" d="M982.9542,-214.5154C830.7761,-208.5826 394.6844,-189.842 254,-165 242.5139,-162.9718 230.2504,-159.7917 219.1599,-156.5143"/><polygon fill="#191970" stroke="#191970" points="219.947 -153.095 209.361 -153.507 217.894 -159.787 219.947 -153.095"/></g><g id="edge8" class="edge"><title>Node3-&gt;Node7</title><path fill="none" stroke="#191970" d="M982.9283,-208.5C924.4522,-199.021 834.7367,-182.3178 805,-165 783.247,-152.3317 789.4728,-134.3425 767,-123 729.3278,-103.9861 470.0608,-85.1992 333.9912,-76.5057"/><polygon fill="#191970" stroke="#191970" points="333.815 -72.987 323.613 -75.847 333.372 -79.974 333.815 -72.987"/></g><g id="node9" class="node"><title>Node8</title><g id="a_node9"><a target="_top" xlink:href="input__event_8h.html" xlink:title="mir_toolkit/events\l/input/input_event.h"><polygon fill="#fff" stroke="#000" points="1694 -129 1694 -159 1808 -159 1808 -129 1694 -129"/><text x="1702" y="-147" fill="#000" font-family="Arial" font-size="10" text-anchor="start">mir_toolkit/events</text><text x="1751" y="-136" fill="#000" font-family="Arial" font-size="10" text-anchor="middle">/input/input_event.h</text></a></g></g><g id="edge9" class="edge"><title>Node3-&gt;Node8</title><path fill="none" stroke="#191970" d="M1089.4483,-213.4103C1221.3776,-205.8939 1559.346,-185.7433 1671,-165 1676.0058,-164.07 1681.1623,-162.9251 1686.3364,-161.654"/><polygon fill="#191970" stroke="#191970" points="1687.472 -164.975 1696.273 -159.077 1685.715 -158.2 1687.472 -164.975"/></g><g id="node16" class="node"><title>Node15</title><g id="a_node16"><a target="_top" xlink:href="resize__event_8h.html" xlink:title="mir_toolkit/events\l/resize_event.h"><polygon fill="#fff" stroke="#000" points="394 -129 394 -159 500 -159 500 -129 394 -129"/><text x="402" y="-147" fill="#000" font-family="Arial" font-size="10" text-anchor="start">mir_toolkit/events</text><text x="447" y="-136" fill="#000" font-family="Arial" font-size="10" text-anchor="middle">/resize_event.h</text></a></g></g><g id="edge20" class="edge"><title>Node3-&gt;Node15</title><path fill="none" stroke="#191970" d="M982.7082,-215.4719C885.4516,-212.6723 673.6754,-202.3804 500,-165 496.0507,-164.15 492.0027,-163.1311 487.9838,-162.0067"/><polygon fill="#191970" stroke="#191970" points="488.711 -158.57 478.126 -159.03 486.688 -165.272 488.711 -158.57"/></g><g id="node17" class="node"><title>Node16</title><g id="a_node17"><a target="_top" xlink:href="surface__event_8h.html" xlink:title="mir_toolkit/events\l/surface_event.h"><polygon fill="#fff" stroke="#000" points="1124 -129 1124 -159 1230 -159 1230 -129 1124 -129"/><text x="1132" y="-147" fill="#000" font-family="Arial" font-size="10" text-anchor="start">mir_toolkit/events</text><text x="1177" y="-136" fill="#000" font-family="Arial" font-size="10" text-anchor="middle">/surface_event.h</text></a></g></g><g id="edge22" class="edge"><title>Node3-&gt;Node16</title><path fill="none" stroke="#191970" d="M1059.6226,-201.478C1079.7114,-190.4447 1108.8931,-175.3605 1133.1887,-163.4132"/><polygon fill="#191970" stroke="#191970" points="1134.778 -166.532 1142.232 -159.003 1131.709 -160.24 1134.778 -166.532"/></g><g id="node18" class="node"><title>Node17</title><g id="a_node18"><a target="_top" xlink:href="window__event_8h.html" xlink:title="mir_toolkit/events\l/window_event.h"><polygon fill="#fff" stroke="#000" points="518 -129 518 -159 624 -159 624 -129 518 -129"/><text x="526" y="-147" fill="#000" font-family="Arial" font-size="10" text-anchor="start">mir_toolkit/events</text><text x="571" y="-136" fill="#000" font-family="Arial" font-size="10" text-anchor="middle">/window_event.h</text></a></g></g><g id="edge25" class="edge"><title>Node3-&gt;Node17</title><path fill="none" stroke="#191970" d="M982.7835,-213.4123C903.6697,-207.823 751.2149,-193.8321 625,-165 621.1276,-164.1154 617.1564,-163.0885 613.2052,-161.9737"/><polygon fill="#191970" stroke="#191970" points="614.076 -158.581 603.492 -159.052 612.06 -165.284 614.076 -158.581"/></g><g id="node19" class="node"><title>Node18</title><g id="a_node19"><a target="_top" xlink:href="orientation__event_8h.html" xlink:title="mir_toolkit/events\l/orientation_event.h"><polygon fill="#fff" stroke="#000" points="642.5 -129 642.5 -159 757.5 -159 757.5 -129 642.5 -129"/><text x="650.5" y="-147" fill="#000" font-family="Arial" font-size="10" text-anchor="start">mir_toolkit/events</text><text x="700" y="-136" fill="#000" font-family="Arial" font-size="10" text-anchor="middle">/orientation_event.h</text></a></g></g><g id="edge27" class="edge"><title>Node3-&gt;Node18</title><path fill="none" stroke="#191970" d="M982.9394,-208.745C927.5037,-199.6139 838.5551,-183.3475 763,-165 758.8719,-163.9976 754.6267,-162.9095 750.3797,-161.7741"/><polygon fill="#191970" stroke="#191970" points="751.092 -158.34 740.522 -159.056 749.232 -165.088 751.092 -158.34"/></g><g id="node20" class="node"><title>Node19</title><g id="a_node20"><a target="_top" xlink:href="prompt__session__event_8h.html" xlink:title="mir_toolkit/events\l/prompt_session_event.h"><polygon fill="#fff" stroke="#000" points="966.5 -129 966.5 -159 1105.5 -159 1105.5 -129 966.5 -129"/><text x="974.5" y="-147" fill="#000" font-family="Arial" font-size="10" text-anchor="start">mir_toolkit/events</text><text x="1036" y="-136" fill="#000" font-family="Arial" font-size="10" text-anchor="middle">/prompt_session_event.h</text></a></g></g><g id="edge29" class="edge"><title>Node3-&gt;Node19</title><path fill="none" stroke="#191970" d="M1030.4073,-201.478C1029.2494,-192.1459 1028.9604,-179.9157 1029.5402,-169.1368"/><polygon fill="#191970" stroke="#191970" points="1033.042 -169.265 1030.41 -159.003 1026.068 -168.667 1033.042 -169.265"/></g><g id="node21" class="node"><title>Node20</title><g id="a_node21"><a target="_top" xlink:href="keymap__event_8h.html" xlink:title="mir_toolkit/events\l/keymap_event.h"><polygon fill="#fff" stroke="#000" points="1532 -129 1532 -159 1638 -159 1638 -129 1532 -129"/><text x="1540" y="-147" fill="#000" font-family="Arial" font-size="10" text-anchor="start">mir_toolkit/events</text><text x="1585" y="-136" fill="#000" font-family="Arial" font-size="10" text-anchor="middle">/keymap_event.h</text></a></g></g><g id="edge31" class="edge"><title>Node3-&gt;Node20</title><path fill="none" stroke="#191970" d="M1089.0663,-214.4755C1177.969,-210.3643 1361.8201,-198.3869 1514,-165 1517.9962,-164.1233 1522.0945,-163.0778 1526.2123,-161.9285"/><polygon fill="#191970" stroke="#191970" points="1527.22 -165.28 1535.817 -159.089 1525.235 -158.568 1527.22 -165.28"/></g><g id="node22" class="node"><title>Node21</title><g id="a_node22"><a target="_top" xlink:href="input__configuration__event_8h.html" xlink:title="mir_toolkit/events\l/input_configuration\l_event.h"><polygon fill="#fff" stroke="#000" points="262.5 -123.5 262.5 -164.5 375.5 -164.5 375.5 -123.5 262.5 -123.5"/><text x="270.5" y="-152.5" fill="#000" font-family="Arial" font-size="10" text-anchor="start">mir_toolkit/events</text><text x="270.5" y="-141.5" fill="#000" font-family="Arial" font-size="10" text-anchor="start">/input_configuration</text><text x="319" y="-130.5" fill="#000" font-family="Arial" font-size="10" text-anchor="middle">_event.h</text></a></g></g><g id="edge34" class="edge"><title>Node3-&gt;Node21</title><path fill="none" stroke="#191970" d="M982.9774,-214.0905C851.1415,-207.5879 510.7345,-188.6909 384.0367,-166.4523"/><polygon fill="#191970" stroke="#191970" points="384.338 -162.949 373.868 -164.569 383.063 -169.832 384.338 -162.949"/></g><g id="node23" class="node"><title>Node22</title><g id="a_node23"><a target="_top" xlink:href="surface__output__event_8h.html" xlink:title="mir_toolkit/events\l/surface_output_event.h"><polygon fill="#fff" stroke="#000" points="814 -129 814 -159 948 -159 948 -129 814 -129"/><text x="822" y="-147" fill="#000" font-family="Arial" font-size="10" text-anchor="start">mir_toolkit/events</text><text x="881" y="-136" fill="#000" font-family="Arial" font-size="10" text-anchor="middle">/surface_output_event.h</text></a></g></g><g id="edge37" class="edge"><title>Node3-&gt;Node22</title><path fill="none" stroke="#191970" d="M998.2912,-201.478C973.4438,-190.4933 941.2158,-175.4933 916.7719,-163.5712"/><polygon fill="#191970" stroke="#191970" points="918.003 -160.276 907.485 -159.003 914.913 -166.557 918.003 -160.276"/></g><g id="node24" class="node"><title>Node23</title><g id="a_node24"><a target="_top" xlink:href="window__output__event_8h.html" xlink:title="mir_toolkit/events\l/window_output_event.h"><polygon fill="#fff" stroke="#000" points="1248 -129 1248 -159 1384 -159 1384 -129 1248 -129"/><text x="1256" y="-147" fill="#000" font-family="Arial" font-size="10" text-anchor="start">mir_toolkit/events</text><text x="1316" y="-136" fill="#000" font-family="Arial" font-size="10" text-anchor="middle">/window_output_event.h</text></a></g></g><g id="edge40" class="edge"><title>Node3-&gt;Node23</title><path fill="none" stroke="#191970" d="M1088.8239,-201.4572C1127.8763,-191.3339 1182.1796,-177.5858 1230,-165 1234.0702,-163.9288 1238.2586,-162.8161 1242.4949,-161.6869"/><polygon fill="#191970" stroke="#191970" points="1243.674 -164.995 1252.433 -159.034 1241.869 -158.232 1243.674 -164.995"/></g><g id="node25" class="node"><title>Node24</title><g id="a_node25"><a target="_top" xlink:href="input__device__state__event_8h.html" xlink:title="mir_toolkit/events\l/input_device_state\l_event.h"><polygon fill="#fff" stroke="#000" points="1402 -123.5 1402 -164.5 1514 -164.5 1514 -123.5 1402 -123.5"/><text x="1410" y="-152.5" fill="#000" font-family="Arial" font-size="10" text-anchor="start">mir_toolkit/events</text><text x="1410" y="-141.5" fill="#000" font-family="Arial" font-size="10" text-anchor="start">/input_device_state</text><text x="1458" y="-130.5" fill="#000" font-family="Arial" font-size="10" text-anchor="middle">_event.h</text></a></g></g><g id="edge42" class="edge"><title>Node3-&gt;Node24</title><path fill="none" stroke="#191970" d="M1089.2339,-211.015C1157.9834,-203.7378 1280.7544,-188.9436 1384,-165 1386.6174,-164.393 1389.2805,-163.729 1391.9672,-163.0228"/><polygon fill="#191970" stroke="#191970" points="1393.057 -166.353 1401.758 -160.308 1391.186 -159.607 1393.057 -166.353"/></g><g id="edge7" class="edge"><title>Node6-&gt;Node7</title><path fill="none" stroke="#191970" d="M191.3056,-134.2223C202.3757,-122.5907 221.0552,-102.9637 234.5746,-88.7586"/><polygon fill="#191970" stroke="#191970" points="237.483 -90.779 241.842 -81.123 232.412 -85.954 237.483 -90.779"/></g><g id="edge10" class="edge"><title>Node8-&gt;Node3</title><path fill="none" stroke="#191970" d="M1713.9784,-159.0774C1705.8351,-161.3689 1697.2147,-163.4739 1689,-165 1577.6513,-185.6865 1241.2242,-205.7837 1099.6991,-213.3483"/><polygon fill="#191970" stroke="#191970" points="1099.247 -209.867 1089.447 -213.893 1099.618 -216.857 1099.247 -209.867"/></g><g id="edge13" class="edge"><title>Node8-&gt;Node5</title><path fill="none" stroke="#191970" d="M1742.8627,-128.852C1737.033,-117.5546 1729.3061,-101.6155 1724,-87 1717.0973,-67.9867 1711.5468,-45.5273 1708.0606,-29.7874"/><polygon fill="#191970" stroke="#191970" points="1711.409 -28.707 1705.897 -19.659 1704.563 -30.17 1711.409 -28.707"/></g><g id="node10" class="node"><title>Node9</title><g id="a_node10"><a target="_top" xlink:href="mir__input__device__types_8h.html" xlink:title="mir_toolkit/mir_input\l_device_types.h"><polygon fill="#fff" stroke="#000" points="1732.5 -56.5 1732.5 -86.5 1851.5 -86.5 1851.5 -56.5 1732.5 -56.5"/><text x="1740.5" y="-74.5" fill="#000" font-family="Arial" font-size="10" text-anchor="start">mir_toolkit/mir_input</text><text x="1792" y="-63.5" fill="#000" font-family="Arial" font-size="10" text-anchor="middle">_device_types.h</text></a></g></g><g id="edge11" class="edge"><title>Node8-&gt;Node9</title><path fill="none" stroke="#191970" d="M1759.4952,-128.978C1764.9926,-119.257 1772.2683,-106.3915 1778.5422,-95.2974"/><polygon fill="#191970" stroke="#191970" points="1781.64 -96.93 1783.516 -86.503 1775.546 -93.484 1781.64 -96.93"/></g><g id="edge14" class="edge"><title>Node8-&gt;Node10</title><path fill="none" stroke="#191970" d="M1795.8993,-128.9967C1802.9254,-126.857 1810.1329,-124.7813 1817,-123 1895.1272,-102.734 1922.0412,-121.5193 1995,-87 2014.702,-77.6783 2015.3831,-68.8338 2033,-56 2048.0942,-45.004 2065.7092,-33.5834 2079.6175,-24.8725"/><polygon fill="#191970" stroke="#191970" points="2081.508 -27.819 2088.158 -19.571 2077.816 -21.871 2081.508 -27.819"/></g><g id="node12" class="node"><title>Node11</title><g id="a_node12"><a target="_top" xlink:href="touch__event_8h.html" xlink:title="mir_toolkit/events\l/input/touch_event.h"><polygon fill="#fff" stroke="#000" points="1870 -56.5 1870 -86.5 1986 -86.5 1986 -56.5 1870 -56.5"/><text x="1878" y="-74.5" fill="#000" font-family="Arial" font-size="10" text-anchor="start">mir_toolkit/events</text><text x="1928" y="-63.5" fill="#000" font-family="Arial" font-size="10" text-anchor="middle">/input/touch_event.h</text></a></g></g><g id="edge15" class="edge"><title>Node8-&gt;Node11</title><path fill="none" stroke="#191970" d="M1787.6745,-128.978C1814.9669,-117.7989 1852.4122,-102.4611 1881.7575,-90.4411"/><polygon fill="#191970" stroke="#191970" points="1883.445 -93.532 1891.372 -86.503 1880.792 -87.054 1883.445 -93.532"/></g><g id="node13" class="node"><title>Node12</title><g id="a_node13"><a target="_top" xlink:href="keyboard__event_8h.html" xlink:title="mir_toolkit/events\l/input/keyboard_event.h"><polygon fill="#fff" stroke="#000" points="1502.5 -56.5 1502.5 -86.5 1637.5 -86.5 1637.5 -56.5 1502.5 -56.5"/><text x="1510.5" y="-74.5" fill="#000" font-family="Arial" font-size="10" text-anchor="start">mir_toolkit/events</text><text x="1570" y="-63.5" fill="#000" font-family="Arial" font-size="10" text-anchor="middle">/input/keyboard_event.h</text></a></g></g><g id="edge16" class="edge"><title>Node8-&gt;Node12</title><path fill="none" stroke="#191970" d="M1713.4967,-128.978C1685.4662,-117.7503 1646.9628,-102.3276 1616.8966,-90.2845"/><polygon fill="#191970" stroke="#191970" points="1618.04 -86.972 1607.455 -86.503 1615.437 -93.47 1618.04 -86.972"/></g><g id="node15" class="node"><title>Node14</title><g id="a_node15"><a target="_top" xlink:href="pointer__event_8h.html" xlink:title="mir_toolkit/events\l/input/pointer_event.h"><polygon fill="#fff" stroke="#000" points="2042 -56.5 2042 -86.5 2166 -86.5 2166 -56.5 2042 -56.5"/><text x="2050" y="-74.5" fill="#000" font-family="Arial" font-size="10" text-anchor="start">mir_toolkit/events</text><text x="2104" y="-63.5" fill="#000" font-family="Arial" font-size="10" text-anchor="middle">/input/pointer_event.h</text></a></g></g><g id="edge18" class="edge"><title>Node8-&gt;Node14</title><path fill="none" stroke="#191970" d="M1795.4949,-128.9175C1802.6399,-126.7637 1809.9896,-124.7046 1817,-123 1909.4396,-100.5234 1934.492,-104.5077 2028,-87 2029.2657,-86.763 2030.5429,-86.5221 2031.8289,-86.2779"/><polygon fill="#191970" stroke="#191970" points="2032.662 -89.682 2041.818 -84.352 2031.337 -82.808 2032.662 -89.682"/></g><g id="edge12" class="edge"><title>Node9-&gt;Node5</title><path fill="none" stroke="#191970" d="M1770.2472,-56.2977C1756.8032,-46.9022 1739.5989,-34.8787 1726.0922,-25.4395"/><polygon fill="#191970" stroke="#191970" points="1728.029 -22.523 1717.827 -19.663 1724.019 -28.261 1728.029 -22.523"/></g><g id="node14" class="node"><title>Node13</title><polygon fill="#fff" stroke="#bfbfbf" points="1447 -.5 1447 -19.5 1597 -19.5 1597 -.5 1447 -.5"/><text x="1522" y="-7.5" fill="#000" font-family="Arial" font-size="10" text-anchor="middle">xkbcommon/xkbcommon.h</text></g><g id="edge17" class="edge"><title>Node12-&gt;Node13</title><path fill="none" stroke="#191970" d="M1558.1348,-56.2977C1551.4025,-47.672 1542.9415,-36.8312 1535.8994,-27.8087"/><polygon fill="#191970" stroke="#191970" points="1538.597 -25.577 1529.685 -19.847 1533.079 -29.884 1538.597 -25.577"/></g><g id="edge19" class="edge"><title>Node14-&gt;Node10</title><path fill="none" stroke="#191970" d="M2104,-56.2977C2104,-48.3834 2104,-38.6043 2104,-30.0759"/><polygon fill="#191970" stroke="#191970" points="2107.5 -29.847 2104 -19.847 2100.5 -29.847 2107.5 -29.847"/></g><g id="edge21" class="edge"><title>Node15-&gt;Node3</title><path fill="none" stroke="#191970" d="M495.8315,-159.0303C503.227,-161.3268 510.7784,-163.4457 518,-165 679.6633,-199.7951 874.3392,-211.1191 972.6903,-214.777"/><polygon fill="#191970" stroke="#191970" points="972.646 -218.278 982.764 -215.137 972.896 -211.282 972.646 -218.278"/></g><g id="edge23" class="edge"><title>Node16-&gt;Node3</title><path fill="none" stroke="#191970" d="M1153.4125,-159.0028C1133.3342,-170.0313 1104.155,-185.115 1079.8537,-197.066"/><polygon fill="#191970" stroke="#191970" points="1078.262 -193.948 1070.808 -201.478 1081.33 -200.24 1078.262 -193.948"/></g><g id="edge24" class="edge"><title>Node16-&gt;Node7</title><path fill="none" stroke="#191970" d="M1137.7368,-128.9512C1130.2809,-126.5955 1122.4728,-124.4609 1115,-123 966.9315,-94.0536 519.5521,-78.8313 333.5216,-73.6129"/><polygon fill="#191970" stroke="#191970" points="333.616 -70.114 323.522 -73.335 333.421 -77.112 333.616 -70.114"/></g><g id="edge26" class="edge"><title>Node17-&gt;Node3</title><path fill="none" stroke="#191970" d="M621.2236,-159.0524C628.5078,-161.2892 635.919,-163.3825 643,-165 757.8833,-191.2435 894.5064,-205.1912 972.7334,-211.699"/><polygon fill="#191970" stroke="#191970" points="972.658 -215.204 982.91 -212.531 973.228 -208.228 972.658 -215.204"/></g><g id="edge28" class="edge"><title>Node18-&gt;Node3</title><path fill="none" stroke="#191970" d="M757.5222,-158.838C765.4199,-161.0235 773.4081,-163.1564 781,-165 846.0897,-180.8062 921.1195,-195.0677 972.9331,-204.5534"/><polygon fill="#191970" stroke="#191970" points="972.511 -208.034 982.976 -206.386 973.767 -201.148 972.511 -208.034"/></g><g id="edge30" class="edge"><title>Node19-&gt;Node3</title><path fill="none" stroke="#191970" d="M1041.5903,-159.0028C1042.7494,-168.3309 1043.0396,-180.5601 1042.461,-191.3409"/><polygon fill="#191970" stroke="#191970" points="1038.959 -191.216 1041.593 -201.478 1045.933 -191.813 1038.959 -191.216"/></g><g id="edge32" class="edge"><title>Node20-&gt;Node3</title><path fill="none" stroke="#191970" d="M1553.5355,-159.0886C1546.5315,-161.3495 1539.1044,-163.4414 1532,-165 1379.1608,-198.5316 1194.3753,-210.4677 1099.2278,-214.5285"/><polygon fill="#191970" stroke="#191970" points="1099.037 -211.033 1089.19 -214.942 1099.325 -218.027 1099.037 -211.033"/></g><g id="edge33" class="edge"><title>Node20-&gt;Node13</title><path fill="none" stroke="#191970" d="M1543.4668,-128.9443C1524.8207,-119.8592 1504.6542,-106.2452 1494,-87 1483.3623,-67.7846 1495.7429,-43.7369 1507.2448,-27.6765"/><polygon fill="#191970" stroke="#191970" points="1510.086 -29.723 1513.393 -19.657 1504.531 -25.464 1510.086 -29.723"/></g><g id="edge35" class="edge"><title>Node21-&gt;Node3</title><path fill="none" stroke="#191970" d="M375.5372,-160.5632C381.7424,-162.2779 387.982,-163.8208 394,-165 504.17,-186.5878 833.4876,-205.5958 972.7833,-213.0959"/><polygon fill="#191970" stroke="#191970" points="972.704 -216.597 982.878 -213.637 973.079 -209.607 972.704 -216.597"/></g><g id="edge36" class="edge"><title>Node21-&gt;Node7</title><path fill="none" stroke="#191970" d="M299.6958,-123.4183C289.3077,-112.3428 276.6532,-98.8509 266.8482,-88.397"/><polygon fill="#191970" stroke="#191970" points="269.384 -85.985 259.99 -81.085 264.279 -90.774 269.384 -85.985"/></g><g id="edge38" class="edge"><title>Node22-&gt;Node3</title><path fill="none" stroke="#191970" d="M918.6653,-159.0028C943.504,-169.9828 975.7322,-184.9822 1000.1852,-196.9079"/><polygon fill="#191970" stroke="#191970" points="998.958 -200.205 1009.477 -201.478 1002.048 -193.924 998.958 -200.205"/></g><g id="edge39" class="edge"><title>Node22-&gt;Node7</title><path fill="none" stroke="#191970" d="M828.11,-128.9914C818.7992,-126.7215 809.1578,-124.606 800,-123 636.2634,-94.2857 442.0561,-80.8304 334.0523,-75.145"/><polygon fill="#191970" stroke="#191970" points="334.041 -71.64 323.873 -74.619 333.679 -78.63 334.041 -71.64"/></g><g id="edge41" class="edge"><title>Node23-&gt;Node3</title><path fill="none" stroke="#191970" d="M1270.2642,-159.0338C1262.8454,-161.0602 1255.236,-163.0956 1248,-165 1198.1948,-178.1082 1141.3576,-192.4771 1098.9928,-202.6986"/><polygon fill="#191970" stroke="#191970" points="1098.001 -199.337 1089.094 -205.074 1099.635 -206.144 1098.001 -199.337"/></g><g id="edge43" class="edge"><title>Node24-&gt;Node3</title><path fill="none" stroke="#191970" d="M1404.0884,-164.506C1403.3895,-164.6745 1402.6931,-164.8393 1402,-165 1297.4206,-189.2529 1172.808,-204.1186 1099.1908,-211.2933"/><polygon fill="#191970" stroke="#191970" points="1098.77 -207.817 1089.149 -212.255 1099.437 -214.786 1098.77 -207.817"/></g><g id="edge51" class="edge"><title>Node25-&gt;Node2</title><path fill="none" stroke="#191970" d="M106.2932,-335.4639C133.4236,-325.5849 169.1098,-312.5905 198.0086,-302.0675"/><polygon fill="#191970" stroke="#191970" points="199.328 -305.312 207.527 -298.602 196.933 -298.735 199.328 -305.312"/></g><g id="edge52" class="edge"><title>Node25-&gt;Node7</title><path fill="none" stroke="#191970" d="M62.3041,-335.3714C56.1163,-295.5043 45.2183,-186.2942 98,-123 110.9347,-107.4891 157.7972,-93.1203 196.2872,-83.5237"/><polygon fill="#191970" stroke="#191970" points="197.487 -86.834 206.375 -81.068 195.831 -80.033 197.487 -86.834"/></g></g></svg>