<svg xmlns="http://www.w3.org/2000/svg" xmlns:xlink="http://www.w3.org/1999/xlink" width="368" height="106pt" viewBox="0 0 275.5 106"><g id="graph0" class="graph" transform="scale(1 1) rotate(0) translate(4 102)"><title>examples/miral-shell/spinner/eglapp.h</title><polygon fill="#fff" stroke="transparent" points="-4 4 -4 -102 271.5 -102 271.5 4 -4 4"/><g id="node1" class="node"><title>Node3</title><polygon fill="#bfbfbf" stroke="#000" points="71 -67.5 71 -97.5 191 -97.5 191 -67.5 71 -67.5"/><text x="79" y="-85.5" fill="#000" font-family="Arial" font-size="10" text-anchor="start">examples/miral-shell</text><text x="131" y="-74.5" fill="#000" font-family="Arial" font-size="10" text-anchor="middle">/spinner/eglapp.h</text></g><g id="node2" class="node"><title>Node4</title><g id="a_node2"><a target="_top" xlink:href="eglapp_8cpp.html" xlink:title="examples/miral-shell\l/spinner/eglapp.cpp"><polygon fill="#fff" stroke="#000" points="0 -.5 0 -30.5 120 -30.5 120 -.5 0 -.5"/><text x="8" y="-18.5" fill="#000" font-family="Arial" font-size="10" text-anchor="start">examples/miral-shell</text><text x="60" y="-7.5" fill="#000" font-family="Arial" font-size="10" text-anchor="middle">/spinner/eglapp.cpp</text></a></g></g><g id="edge1" class="edge"><title>Node3-&gt;Node4</title><path fill="none" stroke="#191970" d="M107.3806,-60.2113C97.0905,-50.5009 85.2949,-39.3698 76.0472,-30.6432"/><polygon fill="#191970" stroke="#191970" points="105.214 -62.979 114.889 -67.297 110.018 -57.888 105.214 -62.979"/></g><g id="node3" class="node"><title>Node5</title><g id="a_node3"><a target="_top" xlink:href="eglspinner_8cpp.html" xlink:title="examples/miral-shell\l/spinner/eglspinner.cpp"><polygon fill="#fff" stroke="#000" points="138.5 -.5 138.5 -30.5 267.5 -30.5 267.5 -.5 138.5 -.5"/><text x="146.5" y="-18.5" fill="#000" font-family="Arial" font-size="10" text-anchor="start">examples/miral-shell</text><text x="203" y="-7.5" fill="#000" font-family="Arial" font-size="10" text-anchor="middle">/spinner/eglspinner.cpp</text></a></g></g><g id="edge2" class="edge"><title>Node3-&gt;Node5</title><path fill="none" stroke="#191970" d="M154.952,-60.2113C165.3871,-50.5009 177.3488,-39.3698 186.7267,-30.6432"/><polygon fill="#191970" stroke="#191970" points="152.274 -57.922 147.338 -67.297 157.043 -63.047 152.274 -57.922"/></g></g></svg>