<svg xmlns="http://www.w3.org/2000/svg" xmlns:xlink="http://www.w3.org/1999/xlink" width="564" height="216" viewBox="0 0 422.5 162"><g id="graph0" class="graph" transform="scale(1 1) rotate(0) translate(4 158)"><title>include/core/mir/fd.h</title><polygon fill="#fff" stroke="transparent" points="-4 4 -4 -158 418.5 -158 418.5 4 -4 4"/><g id="node1" class="node"><title>Node2</title><polygon fill="#bfbfbf" stroke="#000" points="194.5 -134.5 194.5 -153.5 311.5 -153.5 311.5 -134.5 194.5 -134.5"/><text x="253" y="-141.5" fill="#000" font-family="Arial" font-size="10" text-anchor="middle">include/core/mir/fd.h</text></g><g id="node2" class="node"><title>Node3</title><g id="a_node2"><a target="_top" xlink:href="decoration__provider_8h.html" xlink:title="examples/example-server\l-lib/decoration_provider.h"><polygon fill="#fff" stroke="#000" points="96.5 -67.5 96.5 -97.5 241.5 -97.5 241.5 -67.5 96.5 -67.5"/><text x="104.5" y="-85.5" fill="#000" font-family="Arial" font-size="10" text-anchor="start">examples/example-server</text><text x="169" y="-74.5" fill="#000" font-family="Arial" font-size="10" text-anchor="middle">-lib/decoration_provider.h</text></a></g></g><g id="edge1" class="edge"><title>Node2-&gt;Node3</title><path fill="none" stroke="#191970" d="M231.5723,-128.3119C218.6592,-118.8577 202.3008,-106.8809 189.5487,-97.5446"/><polygon fill="#191970" stroke="#191970" points="229.739 -131.307 239.875 -134.391 233.874 -125.659 229.739 -131.307"/></g><g id="node5" class="node"><title>Node6</title><g id="a_node5"><a target="_top" xlink:href="anonymous__shm__file_8h.html" xlink:title="include/core/mir/anonymous\l_shm_file.h"><polygon fill="#fff" stroke="#000" points="259.5 -67.5 259.5 -97.5 414.5 -97.5 414.5 -67.5 259.5 -67.5"/><text x="267.5" y="-85.5" fill="#000" font-family="Arial" font-size="10" text-anchor="start">include/core/mir/anonymous</text><text x="337" y="-74.5" fill="#000" font-family="Arial" font-size="10" text-anchor="middle">_shm_file.h</text></a></g></g><g id="edge4" class="edge"><title>Node2-&gt;Node6</title><path fill="none" stroke="#191970" d="M274.4277,-128.3119C287.3408,-118.8577 303.6992,-106.8809 316.4513,-97.5446"/><polygon fill="#191970" stroke="#191970" points="272.126 -125.659 266.125 -134.391 276.261 -131.307 272.126 -125.659"/></g><g id="node3" class="node"><title>Node4</title><g id="a_node3"><a target="_top" xlink:href="decoration__provider_8cpp.html" xlink:title="examples/example-server\l-lib/decoration_provider.cpp"><polygon fill="#fff" stroke="#000" points="0 -.5 0 -30.5 152 -30.5 152 -.5 0 -.5"/><text x="8" y="-18.5" fill="#000" font-family="Arial" font-size="10" text-anchor="start">examples/example-server</text><text x="76" y="-7.5" fill="#000" font-family="Arial" font-size="10" text-anchor="middle">-lib/decoration_provider.cpp</text></a></g></g><g id="edge2" class="edge"><title>Node3-&gt;Node4</title><path fill="none" stroke="#191970" d="M139.6382,-61.3469C125.8002,-51.3776 109.6078,-39.7121 97.0196,-30.6432"/><polygon fill="#191970" stroke="#191970" points="137.737 -64.291 147.897 -67.297 141.829 -58.611 137.737 -64.291"/></g><g id="node4" class="node"><title>Node5</title><g id="a_node4"><a target="_top" xlink:href="floating__window__manager_8cpp.html" xlink:title="examples/example-server\l-lib/floating_window_manager.cpp"><polygon fill="#fff" stroke="#000" points="170.5 -.5 170.5 -30.5 353.5 -30.5 353.5 -.5 170.5 -.5"/><text x="178.5" y="-18.5" fill="#000" font-family="Arial" font-size="10" text-anchor="start">examples/example-server</text><text x="262" y="-7.5" fill="#000" font-family="Arial" font-size="10" text-anchor="middle">-lib/floating_window_manager.cpp</text></a></g></g><g id="edge3" class="edge"><title>Node3-&gt;Node5</title><path fill="none" stroke="#191970" d="M198.3618,-61.3469C212.1998,-51.3776 228.3922,-39.7121 240.9804,-30.6432"/><polygon fill="#191970" stroke="#191970" points="196.171 -58.611 190.103 -67.297 200.263 -64.291 196.171 -58.611"/></g></g></svg>