<svg xmlns="http://www.w3.org/2000/svg" xmlns:xlink="http://www.w3.org/1999/xlink" width="1768pt" height="251pt" viewBox="0 0 1768.46 251"><g id="graph0" class="graph" transform="scale(1 1) rotate(0) translate(4 247)"><title>include/client/mir_toolkit/events/input/input_event.h</title><polygon fill="#fff" stroke="transparent" points="-4 4 -4 -247 1764.463 -247 1764.463 4 -4 4"/><g id="node1" class="node"><title>Node0</title><polygon fill="#bfbfbf" stroke="#000" points="884 -201.5 884 -242.5 1001 -242.5 1001 -201.5 884 -201.5"/><text x="892" y="-230.5" fill="#000" font-family="Arial" font-size="10" text-anchor="start">include/client/mir</text><text x="892" y="-219.5" fill="#000" font-family="Arial" font-size="10" text-anchor="start">_toolkit/events/input</text><text x="942.5" y="-208.5" fill="#000" font-family="Arial" font-size="10" text-anchor="middle">/input_event.h</text></g><g id="node2" class="node"><title>Node1</title><g id="a_node2"><a target="_top" xlink:href="toolkit_2events_2event_8h.html" xlink:title="mir_toolkit/events\l/event.h"><polygon fill="#fff" stroke="#000" points="849.5 -134.5 849.5 -164.5 955.5 -164.5 955.5 -134.5 849.5 -134.5"/><text x="857.5" y="-152.5" fill="#000" font-family="Arial" font-size="10" text-anchor="start">mir_toolkit/events</text><text x="902.5" y="-141.5" fill="#000" font-family="Arial" font-size="10" text-anchor="middle">/event.h</text></a></g></g><g id="edge1" class="edge"><title>Node0-&gt;Node1</title><path fill="none" stroke="#191970" d="M924.9895,-201.4183C919.5443,-192.8101 913.9042,-182.7422 909.482,-173.7755"/><polygon fill="#191970" stroke="#191970" points="912.609 -172.2 905.228 -164.599 906.259 -175.144 912.609 -172.2"/></g><g id="node4" class="node"><title>Node3</title><polygon fill="#fff" stroke="#bfbfbf" points="0 -67.5 0 -86.5 53 -86.5 53 -67.5 0 -67.5"/><text x="26.5" y="-74.5" fill="#000" font-family="Arial" font-size="10" text-anchor="middle">stdint.h</text></g><g id="edge34" class="edge"><title>Node0-&gt;Node3</title><path fill="none" stroke="#191970" d="M883.8291,-216.7148C712.6087,-200.8227 216.0028,-151.2709 62.5,-98 57.7919,-96.3661 53.0113,-94.0913 48.5381,-91.6388"/><polygon fill="#191970" stroke="#191970" points="50.293 -88.61 39.909 -86.503 46.713 -94.625 50.293 -88.61"/></g><g id="node18" class="node"><title>Node17</title><g id="a_node18"><a target="_top" xlink:href="mir__input__device__types_8h.html" xlink:title="mir_toolkit/mir_input\l_device_types.h"><polygon fill="#fff" stroke="#000" points="548 -134.5 548 -164.5 667 -164.5 667 -134.5 548 -134.5"/><text x="556" y="-152.5" fill="#000" font-family="Arial" font-size="10" text-anchor="start">mir_toolkit/mir_input</text><text x="607.5" y="-141.5" fill="#000" font-family="Arial" font-size="10" text-anchor="middle">_device_types.h</text></a></g></g><g id="edge32" class="edge"><title>Node0-&gt;Node17</title><path fill="none" stroke="#191970" d="M883.7641,-209.2885C826.0829,-196.8053 738.0848,-177.7609 676.9629,-164.533"/><polygon fill="#191970" stroke="#191970" points="677.529 -161.075 667.015 -162.38 676.048 -167.916 677.529 -161.075"/></g><g id="node19" class="node"><title>Node18</title><polygon fill="#fff" stroke="#bfbfbf" points="1681.5 -67.5 1681.5 -86.5 1743.5 -86.5 1743.5 -67.5 1681.5 -67.5"/><text x="1712.5" y="-74.5" fill="#000" font-family="Arial" font-size="10" text-anchor="middle">stdbool.h</text></g><g id="edge35" class="edge"><title>Node0-&gt;Node18</title><path fill="none" stroke="#191970" d="M950.1051,-201.4541C959.0957,-180.4245 976.2399,-148.7934 1002.5,-134 1132.4084,-60.8172 1528.7412,-137.5641 1672.5,-98 1678.0771,-96.4651 1683.7605,-94.0717 1689.0262,-91.4419"/><polygon fill="#191970" stroke="#191970" points="1690.832 -94.444 1697.94 -86.587 1687.484 -88.296 1690.832 -94.444"/></g><g id="node20" class="node"><title>Node19</title><g id="a_node20"><a target="_top" xlink:href="touch__event_8h.html" xlink:title="mir_toolkit/events\l/input/touch_event.h"><polygon fill="#fff" stroke="#000" points="1011.5 -134.5 1011.5 -164.5 1127.5 -164.5 1127.5 -134.5 1011.5 -134.5"/><text x="1019.5" y="-152.5" fill="#000" font-family="Arial" font-size="10" text-anchor="start">mir_toolkit/events</text><text x="1069.5" y="-141.5" fill="#000" font-family="Arial" font-size="10" text-anchor="middle">/input/touch_event.h</text></a></g></g><g id="edge36" class="edge"><title>Node0-&gt;Node19</title><path fill="none" stroke="#191970" d="M978.5534,-201.4183C996.0389,-191.4365 1016.9625,-179.4919 1034.3298,-169.5775"/><polygon fill="#191970" stroke="#191970" points="1036.101 -172.596 1043.051 -164.599 1032.631 -166.517 1036.101 -172.596"/></g><g id="node21" class="node"><title>Node20</title><g id="a_node21"><a target="_top" xlink:href="keyboard__event_8h.html" xlink:title="mir_toolkit/events\l/input/keyboard_event.h"><polygon fill="#fff" stroke="#000" points="1600 -134.5 1600 -164.5 1735 -164.5 1735 -134.5 1600 -134.5"/><text x="1608" y="-152.5" fill="#000" font-family="Arial" font-size="10" text-anchor="start">mir_toolkit/events</text><text x="1667.5" y="-141.5" fill="#000" font-family="Arial" font-size="10" text-anchor="middle">/input/keyboard_event.h</text></a></g></g><g id="edge37" class="edge"><title>Node0-&gt;Node20</title><path fill="none" stroke="#191970" d="M1001.2157,-216.1284C1131.2511,-203.1249 1443.5419,-171.8958 1589.6545,-157.2846"/><polygon fill="#191970" stroke="#191970" points="1590.281 -160.739 1599.883 -156.262 1589.584 -153.774 1590.281 -160.739"/></g><g id="node22" class="node"><title>Node21</title><g id="a_node22"><a target="_top" xlink:href="pointer__event_8h.html" xlink:title="mir_toolkit/events\l/input/pointer_event.h"><polygon fill="#fff" stroke="#000" points="1353.5 -134.5 1353.5 -164.5 1477.5 -164.5 1477.5 -134.5 1353.5 -134.5"/><text x="1361.5" y="-152.5" fill="#000" font-family="Arial" font-size="10" text-anchor="start">mir_toolkit/events</text><text x="1415.5" y="-141.5" fill="#000" font-family="Arial" font-size="10" text-anchor="middle">/input/pointer_event.h</text></a></g></g><g id="edge39" class="edge"><title>Node0-&gt;Node21</title><path fill="none" stroke="#191970" d="M1001.4494,-212.9644C1088.0659,-199.6881 1249.5602,-174.9348 1343.2122,-160.5801"/><polygon fill="#191970" stroke="#191970" points="1343.818 -164.028 1353.172 -159.053 1342.757 -157.109 1343.818 -164.028"/></g><g id="edge7" class="edge"><title>Node1-&gt;Node0</title><path fill="none" stroke="#191970" d="M916.4328,-164.5991C921.8346,-172.6009 927.7665,-182.7173 932.7234,-192.2205"/><polygon fill="#191970" stroke="#191970" points="929.712 -194.024 937.3 -201.418 935.979 -190.906 929.712 -194.024"/></g><g id="node3" class="node"><title>Node2</title><polygon fill="#fff" stroke="#bfbfbf" points="71.5 -67.5 71.5 -86.5 127.5 -86.5 127.5 -67.5 71.5 -67.5"/><text x="99.5" y="-74.5" fill="#000" font-family="Arial" font-size="10" text-anchor="middle">stddef.h</text></g><g id="edge2" class="edge"><title>Node1-&gt;Node2</title><path fill="none" stroke="#191970" d="M849.2972,-145.8448C803.295,-142.6897 735.0117,-138.0192 675.5,-134 555.7282,-125.9111 251.4818,-132.4951 136.5,-98 131.5433,-96.513 126.5284,-94.267 121.8584,-91.7888"/><polygon fill="#191970" stroke="#191970" points="123.286 -88.569 112.886 -86.545 119.753 -94.612 123.286 -88.569"/></g><g id="edge3" class="edge"><title>Node1-&gt;Node3</title><path fill="none" stroke="#191970" d="M849.3051,-145.7242C803.3079,-142.4936 735.0273,-137.7802 675.5,-134 539.3174,-125.352 193.1269,-137.4602 62.5,-98 57.6471,-96.534 52.7541,-94.2975 48.2063,-91.8221"/><polygon fill="#191970" stroke="#191970" points="49.854 -88.729 39.48 -86.576 46.247 -94.728 49.854 -88.729"/></g><g id="node5" class="node"><title>Node4</title><g id="a_node5"><a target="_top" xlink:href="common_8h.html" xlink:title="mir_toolkit/common.h"><polygon fill="#fff" stroke="#000" points="146 -67.5 146 -86.5 271 -86.5 271 -67.5 146 -67.5"/><text x="208.5" y="-74.5" fill="#000" font-family="Arial" font-size="10" text-anchor="middle">mir_toolkit/common.h</text></a></g></g><g id="edge4" class="edge"><title>Node1-&gt;Node4</title><path fill="none" stroke="#191970" d="M849.3602,-145.625C709.8794,-135.3745 340.279,-107.6721 285.5,-98 273.2406,-95.8354 260.1022,-92.6037 248.2118,-89.3204"/><polygon fill="#191970" stroke="#191970" points="249.14 -85.946 238.564 -86.573 247.223 -92.678 249.14 -85.946"/></g><g id="node6" class="node"><title>Node5</title><g id="a_node6"><a target="_top" xlink:href="deprecations_8h.html" xlink:title="mir_toolkit/deprecations.h"><polygon fill="#fff" stroke="#000" points="432 -.5 432 -19.5 577 -19.5 577 -.5 432 -.5"/><text x="504.5" y="-7.5" fill="#000" font-family="Arial" font-size="10" text-anchor="middle">mir_toolkit/deprecations.h</text></a></g></g><g id="edge6" class="edge"><title>Node1-&gt;Node5</title><path fill="none" stroke="#191970" d="M849.2914,-145.7583C706.9257,-135.624 327.4305,-107.7527 318.5,-98 305.8937,-84.2331 306.9937,-70.6986 318.5,-56 331.6733,-39.1719 378.4803,-27.6481 421.8396,-20.3432"/><polygon fill="#191970" stroke="#191970" points="422.581 -23.769 431.892 -18.712 421.46 -16.859 422.581 -23.769"/></g><g id="node7" class="node"><title>Node6</title><g id="a_node7"><a target="_top" xlink:href="resize__event_8h.html" xlink:title="mir_toolkit/events\l/resize_event.h"><polygon fill="#fff" stroke="#000" points="327.5 -62 327.5 -92 433.5 -92 433.5 -62 327.5 -62"/><text x="335.5" y="-80" fill="#000" font-family="Arial" font-size="10" text-anchor="start">mir_toolkit/events</text><text x="380.5" y="-69" fill="#000" font-family="Arial" font-size="10" text-anchor="middle">/resize_event.h</text></a></g></g><g id="edge8" class="edge"><title>Node1-&gt;Node6</title><path fill="none" stroke="#191970" d="M849.2046,-147.5286C761.3514,-143.3124 581.5555,-130.9584 433.5,-98 429.6174,-97.1357 425.6376,-96.1152 421.6827,-94.9974"/><polygon fill="#191970" stroke="#191970" points="422.558 -91.606 411.973 -92.052 420.526 -98.304 422.558 -91.606"/></g><g id="node8" class="node"><title>Node7</title><g id="a_node8"><a target="_top" xlink:href="surface__event_8h.html" xlink:title="mir_toolkit/events\l/surface_event.h"><polygon fill="#fff" stroke="#000" points="451.5 -62 451.5 -92 557.5 -92 557.5 -62 451.5 -62"/><text x="459.5" y="-80" fill="#000" font-family="Arial" font-size="10" text-anchor="start">mir_toolkit/events</text><text x="504.5" y="-69" fill="#000" font-family="Arial" font-size="10" text-anchor="middle">/surface_event.h</text></a></g></g><g id="edge10" class="edge"><title>Node1-&gt;Node7</title><path fill="none" stroke="#191970" d="M849.2225,-144.8881C780.7535,-137.902 658.9783,-122.762 557.5,-98 553.8635,-97.1126 550.1364,-96.106 546.4214,-95.0254"/><polygon fill="#191970" stroke="#191970" points="547.274 -91.626 536.686 -92.024 545.211 -98.315 547.274 -91.626"/></g><g id="node9" class="node"><title>Node8</title><g id="a_node9"><a target="_top" xlink:href="window__event_8h.html" xlink:title="mir_toolkit/events\l/window_event.h"><polygon fill="#fff" stroke="#000" points="575.5 -62 575.5 -92 681.5 -92 681.5 -62 575.5 -62"/><text x="583.5" y="-80" fill="#000" font-family="Arial" font-size="10" text-anchor="start">mir_toolkit/events</text><text x="628.5" y="-69" fill="#000" font-family="Arial" font-size="10" text-anchor="middle">/window_event.h</text></a></g></g><g id="edge13" class="edge"><title>Node1-&gt;Node8</title><path fill="none" stroke="#191970" d="M849.3039,-139.5101C804.131,-129.8898 738.0635,-114.4149 681.5,-98 678.3894,-97.0973 675.203,-96.1353 672.0086,-95.1385"/><polygon fill="#191970" stroke="#191970" points="673.061 -91.8 662.469 -92.067 670.916 -98.464 673.061 -91.8"/></g><g id="node10" class="node"><title>Node9</title><g id="a_node10"><a target="_top" xlink:href="orientation__event_8h.html" xlink:title="mir_toolkit/events\l/orientation_event.h"><polygon fill="#fff" stroke="#000" points="700 -62 700 -92 815 -92 815 -62 700 -62"/><text x="708" y="-80" fill="#000" font-family="Arial" font-size="10" text-anchor="start">mir_toolkit/events</text><text x="757.5" y="-69" fill="#000" font-family="Arial" font-size="10" text-anchor="middle">/orientation_event.h</text></a></g></g><g id="edge15" class="edge"><title>Node1-&gt;Node9</title><path fill="none" stroke="#191970" d="M866.8632,-134.478C843.6342,-123.5419 813.6387,-108.626 790.8755,-96.7297"/><polygon fill="#191970" stroke="#191970" points="792.393 -93.573 781.915 -92.003 789.127 -99.764 792.393 -93.573"/></g><g id="node11" class="node"><title>Node10</title><g id="a_node11"><a target="_top" xlink:href="prompt__session__event_8h.html" xlink:title="mir_toolkit/events\l/prompt_session_event.h"><polygon fill="#fff" stroke="#000" points="833 -62 833 -92 972 -92 972 -62 833 -62"/><text x="841" y="-80" fill="#000" font-family="Arial" font-size="10" text-anchor="start">mir_toolkit/events</text><text x="902.5" y="-69" fill="#000" font-family="Arial" font-size="10" text-anchor="middle">/prompt_session_event.h</text></a></g></g><g id="edge17" class="edge"><title>Node1-&gt;Node10</title><path fill="none" stroke="#191970" d="M896.9073,-134.478C895.7494,-125.1459 895.4604,-112.9157 896.0402,-102.1368"/><polygon fill="#191970" stroke="#191970" points="899.542 -102.265 896.91 -92.003 892.568 -101.667 899.542 -102.265"/></g><g id="node12" class="node"><title>Node11</title><g id="a_node12"><a target="_top" xlink:href="keymap__event_8h.html" xlink:title="mir_toolkit/events\l/keymap_event.h"><polygon fill="#fff" stroke="#000" points="1273.5 -62 1273.5 -92 1379.5 -92 1379.5 -62 1273.5 -62"/><text x="1281.5" y="-80" fill="#000" font-family="Arial" font-size="10" text-anchor="start">mir_toolkit/events</text><text x="1326.5" y="-69" fill="#000" font-family="Arial" font-size="10" text-anchor="middle">/keymap_event.h</text></a></g></g><g id="edge19" class="edge"><title>Node1-&gt;Node11</title><path fill="none" stroke="#191970" d="M955.5092,-134.9115C957.1874,-134.5947 958.8539,-134.29 960.5,-134 1090.5804,-111.0827 1126.7163,-127.3409 1255.5,-98 1259.3176,-97.1302 1263.2306,-96.1142 1267.1662,-95.0071"/><polygon fill="#191970" stroke="#191970" points="1268.365 -98.302 1276.954 -92.099 1266.371 -91.592 1268.365 -98.302"/></g><g id="node14" class="node"><title>Node13</title><g id="a_node14"><a target="_top" xlink:href="input__configuration__event_8h.html" xlink:title="mir_toolkit/events\l/input_configuration\l_event.h"><polygon fill="#fff" stroke="#000" points="990 -56.5 990 -97.5 1103 -97.5 1103 -56.5 990 -56.5"/><text x="998" y="-85.5" fill="#000" font-family="Arial" font-size="10" text-anchor="start">mir_toolkit/events</text><text x="998" y="-74.5" fill="#000" font-family="Arial" font-size="10" text-anchor="start">/input_configuration</text><text x="1046.5" y="-63.5" fill="#000" font-family="Arial" font-size="10" text-anchor="middle">_event.h</text></a></g></g><g id="edge22" class="edge"><title>Node1-&gt;Node13</title><path fill="none" stroke="#191970" d="M926.7442,-134.478C944.2575,-125.073 968.4998,-112.7244 990.6282,-101.8845"/><polygon fill="#191970" stroke="#191970" points="992.172 -105.026 999.631 -97.501 989.108 -98.732 992.172 -105.026"/></g><g id="node15" class="node"><title>Node14</title><g id="a_node15"><a target="_top" xlink:href="surface__output__event_8h.html" xlink:title="mir_toolkit/events\l/surface_output_event.h"><polygon fill="#fff" stroke="#000" points="1121.5 -62 1121.5 -92 1255.5 -92 1255.5 -62 1121.5 -62"/><text x="1129.5" y="-80" fill="#000" font-family="Arial" font-size="10" text-anchor="start">mir_toolkit/events</text><text x="1188.5" y="-69" fill="#000" font-family="Arial" font-size="10" text-anchor="middle">/surface_output_event.h</text></a></g></g><g id="edge25" class="edge"><title>Node1-&gt;Node14</title><path fill="none" stroke="#191970" d="M955.8115,-134.9087C996.1615,-124.8069 1052.7638,-110.9079 1102.5,-98 1106.5739,-96.9427 1110.7651,-95.8407 1115.0034,-94.7194"/><polygon fill="#191970" stroke="#191970" points="1116.178 -98.029 1124.945 -92.08 1114.382 -91.263 1116.178 -98.029"/></g><g id="node16" class="node"><title>Node15</title><g id="a_node16"><a target="_top" xlink:href="window__output__event_8h.html" xlink:title="mir_toolkit/events\l/window_output_event.h"><polygon fill="#fff" stroke="#000" points="1397.5 -62 1397.5 -92 1533.5 -92 1533.5 -62 1397.5 -62"/><text x="1405.5" y="-80" fill="#000" font-family="Arial" font-size="10" text-anchor="start">mir_toolkit/events</text><text x="1465.5" y="-69" fill="#000" font-family="Arial" font-size="10" text-anchor="middle">/window_output_event.h</text></a></g></g><g id="edge28" class="edge"><title>Node1-&gt;Node15</title><path fill="none" stroke="#191970" d="M955.8563,-134.7699C957.4167,-134.4993 958.9669,-134.242 960.5,-134 1145.1233,-104.8633 1195.4784,-130.7227 1379.5,-98 1385.0933,-97.0054 1390.8701,-95.7907 1396.6651,-94.452"/><polygon fill="#191970" stroke="#191970" points="1397.507 -97.849 1406.406 -92.099 1395.863 -91.045 1397.507 -97.849"/></g><g id="node17" class="node"><title>Node16</title><g id="a_node17"><a target="_top" xlink:href="input__device__state__event_8h.html" xlink:title="mir_toolkit/events\l/input_device_state\l_event.h"><polygon fill="#fff" stroke="#000" points="1551.5 -56.5 1551.5 -97.5 1663.5 -97.5 1663.5 -56.5 1551.5 -56.5"/><text x="1559.5" y="-85.5" fill="#000" font-family="Arial" font-size="10" text-anchor="start">mir_toolkit/events</text><text x="1559.5" y="-74.5" fill="#000" font-family="Arial" font-size="10" text-anchor="start">/input_device_state</text><text x="1607.5" y="-63.5" fill="#000" font-family="Arial" font-size="10" text-anchor="middle">_event.h</text></a></g></g><g id="edge30" class="edge"><title>Node1-&gt;Node16</title><path fill="none" stroke="#191970" d="M955.8491,-134.7222C957.4116,-134.4659 958.9642,-134.2243 960.5,-134 1212.9894,-97.1189 1282.8091,-145.5939 1533.5,-98 1536.1397,-97.4989 1538.8212,-96.9219 1541.5228,-96.2866"/><polygon fill="#191970" stroke="#191970" points="1542.539 -99.639 1551.353 -93.761 1540.797 -92.859 1542.539 -99.639"/></g><g id="edge5" class="edge"><title>Node4-&gt;Node5</title><path fill="none" stroke="#191970" d="M241.7419,-67.4717C255.2706,-63.7148 271.087,-59.4759 285.5,-56 339.1088,-43.0716 400.5969,-30.338 444.7455,-21.5578"/><polygon fill="#191970" stroke="#191970" points="445.605 -24.956 454.735 -19.58 444.245 -18.089 445.605 -24.956"/></g><g id="edge9" class="edge"><title>Node6-&gt;Node1</title><path fill="none" stroke="#191970" d="M429.6914,-92.0518C436.9757,-94.3169 444.4005,-96.4196 451.5,-98 587.8805,-128.3594 751.1928,-141.2359 839.1279,-146.3733"/><polygon fill="#191970" stroke="#191970" points="839.029 -149.873 849.212 -146.948 839.427 -142.885 839.029 -149.873"/></g><g id="edge11" class="edge"><title>Node7-&gt;Node1</title><path fill="none" stroke="#191970" d="M554.4307,-92.0237C561.4887,-94.2367 568.6548,-96.3297 575.5,-98 665.9749,-120.077 772.5836,-134.5056 838.9471,-142.3261"/><polygon fill="#191970" stroke="#191970" points="838.906 -145.845 849.244 -143.525 839.716 -138.892 838.906 -145.845"/></g><g id="edge12" class="edge"><title>Node7-&gt;Node5</title><path fill="none" stroke="#191970" d="M504.5,-61.7967C504.5,-52.2699 504.5,-39.8954 504.5,-29.6306"/><polygon fill="#191970" stroke="#191970" points="508 -29.555 504.5 -19.555 501 -29.555 508 -29.555"/></g><g id="edge14" class="edge"><title>Node8-&gt;Node1</title><path fill="none" stroke="#191970" d="M680.2707,-92.0675C686.7544,-94.1521 693.2789,-96.1946 699.5,-98 746.1114,-111.5268 799.1767,-124.4152 839.4278,-133.9152"/><polygon fill="#191970" stroke="#191970" points="838.837 -137.372 849.373 -136.256 840.441 -130.558 838.837 -137.372"/></g><g id="edge16" class="edge"><title>Node9-&gt;Node1</title><path fill="none" stroke="#191970" d="M793.0959,-92.0028C816.317,-102.9342 846.3128,-117.8495 869.0844,-129.7494"/><polygon fill="#191970" stroke="#191970" points="867.571 -132.908 878.049 -134.478 870.837 -126.717 867.571 -132.908"/></g><g id="edge18" class="edge"><title>Node10-&gt;Node1</title><path fill="none" stroke="#191970" d="M908.0903,-92.0028C909.2494,-101.3309 909.5396,-113.5601 908.961,-124.3409"/><polygon fill="#191970" stroke="#191970" points="905.459 -124.216 908.093 -134.478 912.433 -124.813 905.459 -124.216"/></g><g id="edge20" class="edge"><title>Node11-&gt;Node1</title><path fill="none" stroke="#191970" d="M1294.6854,-92.0987C1287.7806,-94.3301 1280.4808,-96.4096 1273.5,-98 1144.7163,-127.3409 1108.5804,-111.0827 978.5,-134 974.3332,-134.7341 970.0362,-135.562 965.7009,-136.4436"/><polygon fill="#191970" stroke="#191970" points="964.623 -133.094 955.559 -138.579 966.066 -139.943 964.623 -133.094"/></g><g id="node13" class="node"><title>Node12</title><polygon fill="#fff" stroke="#bfbfbf" points="1473.5 -.5 1473.5 -19.5 1623.5 -19.5 1623.5 -.5 1473.5 -.5"/><text x="1548.5" y="-7.5" fill="#000" font-family="Arial" font-size="10" text-anchor="middle">xkbcommon/xkbcommon.h</text></g><g id="edge21" class="edge"><title>Node11-&gt;Node12</title><path fill="none" stroke="#191970" d="M1370.1121,-61.9436C1376.2709,-59.9005 1382.5347,-57.8666 1388.5,-56 1427.0799,-43.9276 1471.2624,-31.3161 1503.41,-22.3579"/><polygon fill="#191970" stroke="#191970" points="1504.703 -25.631 1513.402 -19.583 1502.83 -18.887 1504.703 -25.631"/></g><g id="edge23" class="edge"><title>Node13-&gt;Node1</title><path fill="none" stroke="#191970" d="M1011.9284,-97.5015C992.4077,-107.7494 967.8802,-120.0816 946.9548,-130.1638"/><polygon fill="#191970" stroke="#191970" points="945.442 -127.007 937.93 -134.478 948.461 -133.323 945.442 -127.007"/></g><g id="edge24" class="edge"><title>Node13-&gt;Node5</title><path fill="none" stroke="#191970" d="M989.8205,-58.1262C986.684,-57.3448 983.5626,-56.6278 980.5,-56 844.5453,-28.1296 683.1888,-17.0433 587.5697,-12.7051"/><polygon fill="#191970" stroke="#191970" points="587.528 -9.2 577.384 -12.257 587.22 -16.193 587.528 -9.2"/></g><g id="edge26" class="edge"><title>Node14-&gt;Node1</title><path fill="none" stroke="#191970" d="M1142.7763,-92.0802C1135.3556,-94.0993 1127.7425,-96.1204 1120.5,-98 1068.6532,-111.4557 1009.3452,-125.9884 965.6048,-136.1738"/><polygon fill="#191970" stroke="#191970" points="964.63 -132.807 955.678 -138.472 966.209 -139.626 964.63 -132.807"/></g><g id="edge27" class="edge"><title>Node14-&gt;Node5</title><path fill="none" stroke="#191970" d="M1138.6929,-61.9326C1129.7077,-59.6401 1120.3753,-57.5321 1111.5,-56 1013.1374,-39.0197 729.4415,-22.0527 587.476,-14.3246"/><polygon fill="#191970" stroke="#191970" points="587.264 -10.808 577.089 -13.762 586.885 -17.798 587.264 -10.808"/></g><g id="edge29" class="edge"><title>Node15-&gt;Node1</title><path fill="none" stroke="#191970" d="M1424.1243,-92.0988C1415.4091,-94.3587 1406.2311,-96.4474 1397.5,-98 1213.4784,-130.7227 1163.1233,-104.8633 978.5,-134 974.3208,-134.6596 970.0147,-135.4335 965.6732,-136.2776"/><polygon fill="#191970" stroke="#191970" points="964.617 -132.921 955.521 -138.353 966.02 -139.779 964.617 -132.921"/></g><g id="edge31" class="edge"><title>Node16-&gt;Node1</title><path fill="none" stroke="#191970" d="M1553.9577,-97.5143C1553.1351,-97.6831 1552.3156,-97.8452 1551.5,-98 1300.8091,-145.5939 1230.9894,-97.1189 978.5,-134 974.3799,-134.6018 970.139,-135.3273 965.8638,-136.1316"/><polygon fill="#191970" stroke="#191970" points="964.987 -132.738 955.867 -138.13 966.359 -139.602 964.987 -132.738"/></g><g id="edge33" class="edge"><title>Node17-&gt;Node3</title><path fill="none" stroke="#191970" d="M547.735,-147.1007C425.6186,-141.6694 151.5059,-126.6234 62.5,-98 57.7557,-96.4743 52.9585,-94.2495 48.4801,-91.8122"/><polygon fill="#191970" stroke="#191970" points="50.236 -88.784 39.855 -86.667 46.65 -94.796 50.236 -88.784"/></g><g id="edge38" class="edge"><title>Node20-&gt;Node12</title><path fill="none" stroke="#191970" d="M1709.8159,-134.4897C1726.1807,-126.3701 1743.1844,-114.5362 1752.5,-98 1761.662,-81.7365 1764.1576,-70.5789 1752.5,-56 1737.3864,-37.0989 1682.6903,-25.4089 1633.7367,-18.5452"/><polygon fill="#191970" stroke="#191970" points="1634.093 -15.062 1623.716 -17.195 1633.158 -21.999 1634.093 -15.062"/></g><g id="edge40" class="edge"><title>Node21-&gt;Node18</title><path fill="none" stroke="#191970" d="M1477.5784,-142.1261C1530.4729,-134.6558 1607.9492,-120.8782 1672.5,-98 1677.5455,-96.2118 1682.7438,-93.8844 1687.6548,-91.4325"/><polygon fill="#191970" stroke="#191970" points="1689.434 -94.451 1696.629 -86.673 1686.155 -88.266 1689.434 -94.451"/></g></g></svg>