<svg xmlns="http://www.w3.org/2000/svg" xmlns:xlink="http://www.w3.org/1999/xlink" width="2332" height="424" viewBox="0 0 1748.97 318"><g id="graph0" class="graph" transform="scale(1 1) rotate(0) translate(4 314)"><title>include/client/mir_toolkit/events/keymap_event.h</title><polygon fill="#fff" stroke="transparent" points="-4 4 -4 -314 1744.971 -314 1744.971 4 -4 4"/><g id="node1" class="node"><title>Node0</title><polygon fill="#bfbfbf" stroke="#000" points="875 -268.5 875 -309.5 1007 -309.5 1007 -268.5 875 -268.5"/><text x="883" y="-297.5" fill="#000" font-family="Arial" font-size="10" text-anchor="start">include/client/mir</text><text x="883" y="-286.5" fill="#000" font-family="Arial" font-size="10" text-anchor="start">_toolkit/events/keymap</text><text x="941" y="-275.5" fill="#000" font-family="Arial" font-size="10" text-anchor="middle">_event.h</text></g><g id="node2" class="node"><title>Node1</title><g id="a_node2"><a target="_top" xlink:href="toolkit_2events_2event_8h.html" xlink:title="mir_toolkit/events\l/event.h"><polygon fill="#fff" stroke="#000" points="888 -201.5 888 -231.5 994 -231.5 994 -201.5 888 -201.5"/><text x="896" y="-219.5" fill="#000" font-family="Arial" font-size="10" text-anchor="start">mir_toolkit/events</text><text x="941" y="-208.5" fill="#000" font-family="Arial" font-size="10" text-anchor="middle">/event.h</text></a></g></g><g id="edge1" class="edge"><title>Node0-&gt;Node1</title><path fill="none" stroke="#191970" d="M934.8449,-268.4183C934.1713,-260.0849 934.0697,-250.3834 934.5402,-241.6373"/><polygon fill="#191970" stroke="#191970" points="938.034 -241.861 935.398 -231.599 931.059 -241.265 938.034 -241.861"/></g><g id="node12" class="node"><title>Node11</title><polygon fill="#fff" stroke="#bfbfbf" points="1135 -.5 1135 -19.5 1285 -19.5 1285 -.5 1135 -.5"/><text x="1210" y="-7.5" fill="#000" font-family="Arial" font-size="10" text-anchor="middle">xkbcommon/xkbcommon.h</text></g><g id="edge40" class="edge"><title>Node0-&gt;Node11</title><path fill="none" stroke="#191970" d="M1007.0728,-283.5203C1188.6366,-267.7994 1684.8438,-220.1245 1732,-165 1744.1343,-150.8153 1743.7201,-137.5287 1732,-123 1678.0971,-56.1799 1429.0513,-26.9031 1295.3765,-15.8181"/><polygon fill="#191970" stroke="#191970" points="1295.42 -12.31 1285.169 -14.989 1294.853 -19.287 1295.42 -12.31"/></g><g id="edge29" class="edge"><title>Node1-&gt;Node0</title><path fill="none" stroke="#191970" d="M946.6023,-231.5991C947.5584,-239.3508 947.9172,-249.0871 947.6785,-258.3279"/><polygon fill="#191970" stroke="#191970" points="944.178 -258.25 947.155 -268.418 951.168 -258.613 944.178 -258.25"/></g><g id="node3" class="node"><title>Node2</title><polygon fill="#fff" stroke="#bfbfbf" points="0 -134.5 0 -153.5 56 -153.5 56 -134.5 0 -134.5"/><text x="28" y="-141.5" fill="#000" font-family="Arial" font-size="10" text-anchor="middle">stddef.h</text></g><g id="edge2" class="edge"><title>Node1-&gt;Node2</title><path fill="none" stroke="#191970" d="M887.8583,-216.1493C723.5696,-214.6275 225.5727,-206.6112 70,-165 64.0466,-163.4076 57.947,-160.9246 52.3065,-158.2157"/><polygon fill="#191970" stroke="#191970" points="53.842 -155.069 43.355 -153.561 50.612 -161.28 53.842 -155.069"/></g><g id="node4" class="node"><title>Node3</title><polygon fill="#fff" stroke="#bfbfbf" points="95.5 -.5 95.5 -19.5 148.5 -19.5 148.5 -.5 95.5 -.5"/><text x="122" y="-7.5" fill="#000" font-family="Arial" font-size="10" text-anchor="middle">stdint.h</text></g><g id="edge3" class="edge"><title>Node1-&gt;Node3</title><path fill="none" stroke="#191970" d="M887.9655,-215.2726C726.7842,-211.2105 249.9224,-196.6239 188,-165 147.8117,-144.4758 138.6372,-129.3299 123,-87 116.1779,-68.5326 116.8734,-45.8329 118.6952,-29.8806"/><polygon fill="#191970" stroke="#191970" points="122.212 -30.002 120.129 -19.614 115.279 -29.034 122.212 -30.002"/></g><g id="node5" class="node"><title>Node4</title><g id="a_node5"><a target="_top" xlink:href="common_8h.html" xlink:title="mir_toolkit/common.h"><polygon fill="#fff" stroke="#000" points="329.5 -134.5 329.5 -153.5 454.5 -153.5 454.5 -134.5 329.5 -134.5"/><text x="392" y="-141.5" fill="#000" font-family="Arial" font-size="10" text-anchor="middle">mir_toolkit/common.h</text></a></g></g><g id="edge4" class="edge"><title>Node1-&gt;Node4</title><path fill="none" stroke="#191970" d="M887.862,-213.4407C800.0578,-207.7749 619.4325,-193.5361 469,-165 457.102,-162.743 444.3533,-159.5795 432.7215,-156.3914"/><polygon fill="#191970" stroke="#191970" points="433.411 -152.95 422.837 -153.606 431.512 -159.687 433.411 -152.95"/></g><g id="node6" class="node"><title>Node5</title><g id="a_node6"><a target="_top" xlink:href="deprecations_8h.html" xlink:title="mir_toolkit/deprecations.h"><polygon fill="#fff" stroke="#000" points="755.5 -62 755.5 -81 900.5 -81 900.5 -62 755.5 -62"/><text x="828" y="-69" fill="#000" font-family="Arial" font-size="10" text-anchor="middle">mir_toolkit/deprecations.h</text></a></g></g><g id="edge6" class="edge"><title>Node1-&gt;Node5</title><path fill="none" stroke="#191970" d="M887.9176,-214.1584C776.6807,-208.7064 527.2783,-193.4171 502,-165 437.4569,-92.4426 538.8763,-121.8408 746,-87 753.6349,-85.7157 761.6553,-84.2922 769.5676,-82.8436"/><polygon fill="#191970" stroke="#191970" points="770.3 -86.267 779.495 -81.004 769.024 -79.385 770.3 -86.267"/></g><g id="node7" class="node"><title>Node6</title><g id="a_node7"><a target="_top" xlink:href="input__event_8h.html" xlink:title="mir_toolkit/events\l/input/input_event.h"><polygon fill="#fff" stroke="#000" points="197 -129 197 -159 311 -159 311 -129 197 -129"/><text x="205" y="-147" fill="#000" font-family="Arial" font-size="10" text-anchor="start">mir_toolkit/events</text><text x="254" y="-136" fill="#000" font-family="Arial" font-size="10" text-anchor="middle">/input/input_event.h</text></a></g></g><g id="edge7" class="edge"><title>Node1-&gt;Node6</title><path fill="none" stroke="#191970" d="M887.8627,-213.8752C756.6241,-206.8473 420.4403,-186.6607 311,-165 306.5675,-164.1227 302.0141,-163.0505 297.4994,-161.8594"/><polygon fill="#191970" stroke="#191970" points="298.315 -158.453 287.74 -159.092 296.405 -165.187 298.315 -158.453"/></g><g id="node14" class="node"><title>Node13</title><g id="a_node14"><a target="_top" xlink:href="resize__event_8h.html" xlink:title="mir_toolkit/events\l/resize_event.h"><polygon fill="#fff" stroke="#000" points="511 -129 511 -159 617 -159 617 -129 511 -129"/><text x="519" y="-147" fill="#000" font-family="Arial" font-size="10" text-anchor="start">mir_toolkit/events</text><text x="564" y="-136" fill="#000" font-family="Arial" font-size="10" text-anchor="middle">/resize_event.h</text></a></g></g><g id="edge18" class="edge"><title>Node1-&gt;Node13</title><path fill="none" stroke="#191970" d="M887.9283,-211.2766C823.0998,-203.8219 710.825,-188.3906 617,-165 613.4265,-164.1091 609.7643,-163.1073 606.1112,-162.0369"/><polygon fill="#191970" stroke="#191970" points="607.118 -158.685 596.53 -159.072 605.049 -165.372 607.118 -158.685"/></g><g id="node15" class="node"><title>Node14</title><g id="a_node15"><a target="_top" xlink:href="surface__event_8h.html" xlink:title="mir_toolkit/events\l/surface_event.h"><polygon fill="#fff" stroke="#000" points="635 -129 635 -159 741 -159 741 -129 635 -129"/><text x="643" y="-147" fill="#000" font-family="Arial" font-size="10" text-anchor="start">mir_toolkit/events</text><text x="688" y="-136" fill="#000" font-family="Arial" font-size="10" text-anchor="middle">/surface_event.h</text></a></g></g><g id="edge20" class="edge"><title>Node1-&gt;Node14</title><path fill="none" stroke="#191970" d="M887.6346,-204.9268C847.0131,-194.9829 790.1266,-179.9266 741,-165 738.0505,-164.1038 735.03,-163.1618 731.9973,-162.1937"/><polygon fill="#191970" stroke="#191970" points="732.934 -158.818 722.342 -159.037 730.759 -165.471 732.934 -158.818"/></g><g id="node16" class="node"><title>Node15</title><g id="a_node16"><a target="_top" xlink:href="window__event_8h.html" xlink:title="mir_toolkit/events\l/window_event.h"><polygon fill="#fff" stroke="#000" points="759 -129 759 -159 865 -159 865 -129 759 -129"/><text x="767" y="-147" fill="#000" font-family="Arial" font-size="10" text-anchor="start">mir_toolkit/events</text><text x="812" y="-136" fill="#000" font-family="Arial" font-size="10" text-anchor="middle">/window_event.h</text></a></g></g><g id="edge23" class="edge"><title>Node1-&gt;Node15</title><path fill="none" stroke="#191970" d="M908.6784,-201.478C888.1404,-190.6877 861.8702,-176.023 841.8304,-164.2071"/><polygon fill="#191970" stroke="#191970" points="843.486 -161.119 833.104 -159.003 839.9 -167.131 843.486 -161.119"/></g><g id="node17" class="node"><title>Node16</title><g id="a_node17"><a target="_top" xlink:href="orientation__event_8h.html" xlink:title="mir_toolkit/events\l/orientation_event.h"><polygon fill="#fff" stroke="#000" points="883.5 -129 883.5 -159 998.5 -159 998.5 -129 883.5 -129"/><text x="891.5" y="-147" fill="#000" font-family="Arial" font-size="10" text-anchor="start">mir_toolkit/events</text><text x="941" y="-136" fill="#000" font-family="Arial" font-size="10" text-anchor="middle">/orientation_event.h</text></a></g></g><g id="edge25" class="edge"><title>Node1-&gt;Node16</title><path fill="none" stroke="#191970" d="M935.4073,-201.478C934.2494,-192.1459 933.9604,-179.9157 934.5402,-169.1368"/><polygon fill="#191970" stroke="#191970" points="938.042 -169.265 935.41 -159.003 931.068 -168.667 938.042 -169.265"/></g><g id="node18" class="node"><title>Node17</title><g id="a_node18"><a target="_top" xlink:href="prompt__session__event_8h.html" xlink:title="mir_toolkit/events\l/prompt_session_event.h"><polygon fill="#fff" stroke="#000" points="1016.5 -129 1016.5 -159 1155.5 -159 1155.5 -129 1016.5 -129"/><text x="1024.5" y="-147" fill="#000" font-family="Arial" font-size="10" text-anchor="start">mir_toolkit/events</text><text x="1086" y="-136" fill="#000" font-family="Arial" font-size="10" text-anchor="middle">/prompt_session_event.h</text></a></g></g><g id="edge27" class="edge"><title>Node1-&gt;Node17</title><path fill="none" stroke="#191970" d="M965.4514,-201.478C986.1489,-190.4447 1016.1629,-175.3605 1041.1176,-163.4132"/><polygon fill="#191970" stroke="#191970" points="1042.872 -166.454 1050.404 -159.003 1039.87 -160.131 1042.872 -166.454"/></g><g id="node19" class="node"><title>Node18</title><g id="a_node19"><a target="_top" xlink:href="input__configuration__event_8h.html" xlink:title="mir_toolkit/events\l/input_configuration\l_event.h"><polygon fill="#fff" stroke="#000" points="1173.5 -123.5 1173.5 -164.5 1286.5 -164.5 1286.5 -123.5 1173.5 -123.5"/><text x="1181.5" y="-152.5" fill="#000" font-family="Arial" font-size="10" text-anchor="start">mir_toolkit/events</text><text x="1181.5" y="-141.5" fill="#000" font-family="Arial" font-size="10" text-anchor="start">/input_configuration</text><text x="1230" y="-130.5" fill="#000" font-family="Arial" font-size="10" text-anchor="middle">_event.h</text></a></g></g><g id="edge30" class="edge"><title>Node1-&gt;Node18</title><path fill="none" stroke="#191970" d="M994.2785,-204.0261C1037.9893,-194.369 1101.1861,-180.1252 1156,-165 1158.4507,-164.3238 1160.9468,-163.6135 1163.4687,-162.8797"/><polygon fill="#191970" stroke="#191970" points="1164.699 -166.165 1173.283 -159.955 1162.7 -159.457 1164.699 -166.165"/></g><g id="node20" class="node"><title>Node19</title><g id="a_node20"><a target="_top" xlink:href="surface__output__event_8h.html" xlink:title="mir_toolkit/events\l/surface_output_event.h"><polygon fill="#fff" stroke="#000" points="1305 -129 1305 -159 1439 -159 1439 -129 1305 -129"/><text x="1313" y="-147" fill="#000" font-family="Arial" font-size="10" text-anchor="start">mir_toolkit/events</text><text x="1372" y="-136" fill="#000" font-family="Arial" font-size="10" text-anchor="middle">/surface_output_event.h</text></a></g></g><g id="edge33" class="edge"><title>Node1-&gt;Node19</title><path fill="none" stroke="#191970" d="M994.0334,-210.1876C1062.2774,-202.1343 1183.9948,-186.6133 1287,-165 1291.98,-163.9551 1297.1161,-162.7708 1302.2856,-161.5098"/><polygon fill="#191970" stroke="#191970" points="1303.392 -164.841 1312.236 -159.006 1301.684 -158.052 1303.392 -164.841"/></g><g id="node21" class="node"><title>Node20</title><g id="a_node21"><a target="_top" xlink:href="window__output__event_8h.html" xlink:title="mir_toolkit/events\l/window_output_event.h"><polygon fill="#fff" stroke="#000" points="1457 -129 1457 -159 1593 -159 1593 -129 1457 -129"/><text x="1465" y="-147" fill="#000" font-family="Arial" font-size="10" text-anchor="start">mir_toolkit/events</text><text x="1525" y="-136" fill="#000" font-family="Arial" font-size="10" text-anchor="middle">/window_output_event.h</text></a></g></g><g id="edge36" class="edge"><title>Node1-&gt;Node20</title><path fill="none" stroke="#191970" d="M994.3682,-213.6715C1086.0109,-208.4095 1278.5136,-194.8244 1439,-165 1444.3641,-164.0032 1449.8997,-162.8162 1455.4599,-161.5211"/><polygon fill="#191970" stroke="#191970" points="1456.572 -164.853 1465.463 -159.091 1454.919 -158.051 1456.572 -164.853"/></g><g id="node22" class="node"><title>Node21</title><g id="a_node22"><a target="_top" xlink:href="input__device__state__event_8h.html" xlink:title="mir_toolkit/events\l/input_device_state\l_event.h"><polygon fill="#fff" stroke="#000" points="1611 -123.5 1611 -164.5 1723 -164.5 1723 -123.5 1611 -123.5"/><text x="1619" y="-152.5" fill="#000" font-family="Arial" font-size="10" text-anchor="start">mir_toolkit/events</text><text x="1619" y="-141.5" fill="#000" font-family="Arial" font-size="10" text-anchor="start">/input_device_state</text><text x="1667" y="-130.5" fill="#000" font-family="Arial" font-size="10" text-anchor="middle">_event.h</text></a></g></g><g id="edge38" class="edge"><title>Node1-&gt;Node21</title><path fill="none" stroke="#191970" d="M994.0211,-213.7556C1128.188,-206.8567 1478.1034,-187.7079 1593,-165 1595.6358,-164.4791 1598.3142,-163.8858 1601.0132,-163.2372"/><polygon fill="#191970" stroke="#191970" points="1602.043 -166.586 1610.837 -160.676 1600.277 -159.812 1602.043 -166.586"/></g><g id="edge5" class="edge"><title>Node4-&gt;Node5</title><path fill="none" stroke="#191970" d="M423.2373,-134.4355C437.143,-130.4495 453.7834,-126.0489 469,-123 590.7271,-98.6102 623.4005,-106.5373 746,-87 753.7463,-85.7656 761.8837,-84.36 769.9003,-82.9109"/><polygon fill="#191970" stroke="#191970" points="770.75 -86.313 779.952 -81.062 769.483 -79.429 770.75 -86.313"/></g><g id="edge8" class="edge"><title>Node6-&gt;Node1</title><path fill="none" stroke="#191970" d="M305.4448,-159.0918C313.3043,-161.3818 321.3329,-163.4825 329,-165 433.2051,-185.6245 742.9795,-204.9126 877.5433,-212.7776"/><polygon fill="#191970" stroke="#191970" points="877.51 -216.281 887.697 -213.369 877.917 -209.293 877.51 -216.281"/></g><g id="edge11" class="edge"><title>Node6-&gt;Node3</title><path fill="none" stroke="#191970" d="M202.6753,-128.9257C180.7247,-120.0367 156.6092,-106.5906 141,-87 128.0332,-70.7257 123.7545,-46.832 122.425,-29.9863"/><polygon fill="#191970" stroke="#191970" points="125.902 -29.442 121.905 -19.63 118.911 -29.793 125.902 -29.442"/></g><g id="node8" class="node"><title>Node7</title><g id="a_node8"><a target="_top" xlink:href="mir__input__device__types_8h.html" xlink:title="mir_toolkit/mir_input\l_device_types.h"><polygon fill="#fff" stroke="#000" points="150.5 -56.5 150.5 -86.5 269.5 -86.5 269.5 -56.5 150.5 -56.5"/><text x="158.5" y="-74.5" fill="#000" font-family="Arial" font-size="10" text-anchor="start">mir_toolkit/mir_input</text><text x="210" y="-63.5" fill="#000" font-family="Arial" font-size="10" text-anchor="middle">_device_types.h</text></a></g></g><g id="edge9" class="edge"><title>Node6-&gt;Node7</title><path fill="none" stroke="#191970" d="M244.8832,-128.978C238.9836,-119.257 231.1755,-106.3915 224.4425,-95.2974"/><polygon fill="#191970" stroke="#191970" points="227.286 -93.236 219.105 -86.503 221.301 -96.868 227.286 -93.236"/></g><g id="node9" class="node"><title>Node8</title><polygon fill="#fff" stroke="#bfbfbf" points="379 -.5 379 -19.5 441 -19.5 441 -.5 379 -.5"/><text x="410" y="-7.5" fill="#000" font-family="Arial" font-size="10" text-anchor="middle">stdbool.h</text></g><g id="edge12" class="edge"><title>Node6-&gt;Node8</title><path fill="none" stroke="#191970" d="M261.762,-128.8854C272.1679,-109.8375 292.2309,-77.05 317,-56 333.3294,-42.1225 354.5664,-31.2089 372.6231,-23.5015"/><polygon fill="#191970" stroke="#191970" points="374.347 -26.578 382.276 -19.551 371.695 -20.099 374.347 -26.578"/></g><g id="node10" class="node"><title>Node9</title><g id="a_node10"><a target="_top" xlink:href="touch__event_8h.html" xlink:title="mir_toolkit/events\l/input/touch_event.h"><polygon fill="#fff" stroke="#000" points="326 -56.5 326 -86.5 442 -86.5 442 -56.5 326 -56.5"/><text x="334" y="-74.5" fill="#000" font-family="Arial" font-size="10" text-anchor="start">mir_toolkit/events</text><text x="384" y="-63.5" fill="#000" font-family="Arial" font-size="10" text-anchor="middle">/input/touch_event.h</text></a></g></g><g id="edge13" class="edge"><title>Node6-&gt;Node9</title><path fill="none" stroke="#191970" d="M280.9361,-128.978C300.4584,-118.0905 327.0537,-103.2585 348.3379,-91.3885"/><polygon fill="#191970" stroke="#191970" points="350.07 -94.43 357.098 -86.503 346.66 -88.317 350.07 -94.43"/></g><g id="node11" class="node"><title>Node10</title><g id="a_node11"><a target="_top" xlink:href="keyboard__event_8h.html" xlink:title="mir_toolkit/events\l/input/keyboard_event.h"><polygon fill="#fff" stroke="#000" points="602.5 -56.5 602.5 -86.5 737.5 -86.5 737.5 -56.5 602.5 -56.5"/><text x="610.5" y="-74.5" fill="#000" font-family="Arial" font-size="10" text-anchor="start">mir_toolkit/events</text><text x="670" y="-63.5" fill="#000" font-family="Arial" font-size="10" text-anchor="middle">/input/keyboard_event.h</text></a></g></g><g id="edge14" class="edge"><title>Node6-&gt;Node10</title><path fill="none" stroke="#191970" d="M297.7259,-128.8963C305.1009,-126.693 312.7239,-124.6239 320,-123 436.2957,-97.045 470.4845,-106.5464 592.3448,-87.0194"/><polygon fill="#191970" stroke="#191970" points="593.138 -90.436 602.442 -85.368 592.008 -83.528 593.138 -90.436"/></g><g id="node13" class="node"><title>Node12</title><g id="a_node13"><a target="_top" xlink:href="pointer__event_8h.html" xlink:title="mir_toolkit/events\l/input/pointer_event.h"><polygon fill="#fff" stroke="#000" points="460 -56.5 460 -86.5 584 -86.5 584 -56.5 460 -56.5"/><text x="468" y="-74.5" fill="#000" font-family="Arial" font-size="10" text-anchor="start">mir_toolkit/events</text><text x="522" y="-63.5" fill="#000" font-family="Arial" font-size="10" text-anchor="middle">/input/pointer_event.h</text></a></g></g><g id="edge16" class="edge"><title>Node6-&gt;Node12</title><path fill="none" stroke="#191970" d="M300.0537,-128.9687C306.7269,-126.9008 313.5264,-124.8534 320,-123 362.7985,-110.7467 411.1054,-98.3785 449.7458,-88.8349"/><polygon fill="#191970" stroke="#191970" points="450.988 -92.134 459.862 -86.346 449.316 -85.336 450.988 -92.134"/></g><g id="edge10" class="edge"><title>Node7-&gt;Node3</title><path fill="none" stroke="#191970" d="M188.2472,-56.2977C174.8032,-46.9022 157.5989,-34.8787 144.0922,-25.4395"/><polygon fill="#191970" stroke="#191970" points="146.029 -22.523 135.827 -19.663 142.019 -28.261 146.029 -22.523"/></g><g id="edge15" class="edge"><title>Node10-&gt;Node11</title><path fill="none" stroke="#191970" d="M737.8915,-57.2952C740.6263,-56.8367 743.337,-56.4025 746,-56 877.5396,-36.1195 1031.41,-22.807 1124.7331,-15.8226"/><polygon fill="#191970" stroke="#191970" points="1125.255 -19.294 1134.969 -15.064 1124.737 -12.313 1125.255 -19.294"/></g><g id="edge17" class="edge"><title>Node12-&gt;Node8</title><path fill="none" stroke="#191970" d="M494.6017,-56.4554C476.8978,-46.734 453.9805,-34.15 436.4642,-24.5317"/><polygon fill="#191970" stroke="#191970" points="437.806 -21.276 427.356 -19.53 434.437 -27.412 437.806 -21.276"/></g><g id="edge19" class="edge"><title>Node13-&gt;Node1</title><path fill="none" stroke="#191970" d="M614.2867,-159.0723C621.2324,-161.253 628.2735,-163.3231 635,-165 718.0199,-185.6969 815.485,-200.1621 877.7946,-208.3837"/><polygon fill="#191970" stroke="#191970" points="877.496 -211.874 887.865 -209.699 878.403 -204.933 877.496 -211.874"/></g><g id="edge21" class="edge"><title>Node14-&gt;Node1</title><path fill="none" stroke="#191970" d="M740.1536,-159.0372C746.5187,-161.1042 752.9107,-163.1498 759,-165 798.9488,-177.138 844.0288,-189.3618 879.3937,-198.8525"/><polygon fill="#191970" stroke="#191970" points="878.533 -202.245 889.098 -201.454 880.346 -195.484 878.533 -202.245"/></g><g id="edge22" class="edge"><title>Node14-&gt;Node5</title><path fill="none" stroke="#191970" d="M717.0081,-128.978C741.4723,-116.309 776.2503,-98.2989 800.3288,-85.8297"/><polygon fill="#191970" stroke="#191970" points="802.032 -88.889 809.303 -81.183 798.813 -82.673 802.032 -88.889"/></g><g id="edge24" class="edge"><title>Node15-&gt;Node1</title><path fill="none" stroke="#191970" d="M844.285,-159.0028C864.8161,-169.7884 891.0866,-184.4525 911.1339,-196.2718"/><polygon fill="#191970" stroke="#191970" points="909.482 -199.362 919.864 -201.478 913.068 -193.35 909.482 -199.362"/></g><g id="edge26" class="edge"><title>Node16-&gt;Node1</title><path fill="none" stroke="#191970" d="M946.5903,-159.0028C947.7494,-168.3309 948.0396,-180.5601 947.461,-191.3409"/><polygon fill="#191970" stroke="#191970" points="943.959 -191.216 946.593 -201.478 950.933 -191.813 943.959 -191.216"/></g><g id="edge28" class="edge"><title>Node17-&gt;Node1</title><path fill="none" stroke="#191970" d="M1061.5847,-159.0028C1040.898,-170.0313 1010.8865,-185.115 985.9259,-197.066"/><polygon fill="#191970" stroke="#191970" points="984.168 -194.026 976.637 -201.478 987.171 -200.349 984.168 -194.026"/></g><g id="edge31" class="edge"><title>Node18-&gt;Node1</title><path fill="none" stroke="#191970" d="M1175.7218,-164.5214C1175.1456,-164.6827 1174.5716,-164.8423 1174,-165 1117.1993,-180.6734 1051.3971,-195.4004 1004.1491,-205.058"/><polygon fill="#191970" stroke="#191970" points="1003.166 -201.686 994.059 -207.1 1004.555 -208.547 1003.166 -201.686"/></g><g id="edge32" class="edge"><title>Node18-&gt;Node5</title><path fill="none" stroke="#191970" d="M1173.4314,-125.1319C1170.5917,-124.371 1167.7699,-123.6546 1165,-123 1079.3952,-102.7693 979.6044,-88.671 910.9509,-80.4033"/><polygon fill="#191970" stroke="#191970" points="910.974 -76.881 900.63 -79.176 910.147 -83.832 910.974 -76.881"/></g><g id="edge34" class="edge"><title>Node19-&gt;Node1</title><path fill="none" stroke="#191970" d="M1329.9922,-159.0064C1321.765,-161.1953 1313.1723,-163.2852 1305,-165 1200.6553,-186.8944 1077.1085,-202.537 1004.015,-210.498"/><polygon fill="#191970" stroke="#191970" points="1003.612 -207.021 994.043 -211.57 1004.36 -213.981 1003.612 -207.021"/></g><g id="edge35" class="edge"><title>Node19-&gt;Node5</title><path fill="none" stroke="#191970" d="M1321.9842,-128.9608C1313.3731,-126.7224 1304.4695,-124.6253 1296,-123 1162.3927,-97.3607 1004.6975,-83.2916 910.7086,-76.5854"/><polygon fill="#191970" stroke="#191970" points="910.913 -73.091 900.692 -75.882 910.422 -80.074 910.913 -73.091"/></g><g id="edge37" class="edge"><title>Node20-&gt;Node1</title><path fill="none" stroke="#191970" d="M1483.1948,-159.091C1474.6041,-161.3233 1465.5825,-163.405 1457,-165 1295.6981,-194.9759 1102.0538,-208.5471 1004.1377,-213.7511"/><polygon fill="#191970" stroke="#191970" points="1003.912 -210.258 994.107 -214.273 1004.276 -217.249 1003.912 -210.258"/></g><g id="edge39" class="edge"><title>Node21-&gt;Node1</title><path fill="none" stroke="#191970" d="M1613.1024,-164.5712C1612.3991,-164.719 1611.698,-164.862 1611,-165 1496.453,-187.6388 1148.3151,-206.7401 1004.2923,-213.6923"/><polygon fill="#191970" stroke="#191970" points="1004.102 -210.197 994.281 -214.172 1004.437 -217.189 1004.102 -210.197"/></g></g></svg>