<svg xmlns="http://www.w3.org/2000/svg" xmlns:xlink="http://www.w3.org/1999/xlink" width="408" height="106pt" viewBox="0 0 306 106"><g id="graph0" class="graph" transform="scale(1 1) rotate(0) translate(4 102)"><title>examples/miral-kiosk/kiosk_window_manager.h</title><polygon fill="#fff" stroke="transparent" points="-4 4 -4 -102 302 -102 302 4 -4 4"/><g id="node1" class="node"><title>Node51</title><polygon fill="#bfbfbf" stroke="#000" points="67.5 -67.5 67.5 -97.5 213.5 -97.5 213.5 -67.5 67.5 -67.5"/><text x="75.5" y="-85.5" fill="#000" font-family="Arial" font-size="10" text-anchor="start">examples/miral-kiosk</text><text x="140.5" y="-74.5" fill="#000" font-family="Arial" font-size="10" text-anchor="middle">/kiosk_window_manager.h</text></g><g id="node2" class="node"><title>Node52</title><g id="a_node2"><a target="_top" xlink:href="kiosk__main_8cpp.html" xlink:title="examples/miral-kiosk\l/kiosk_main.cpp"><polygon fill="#fff" stroke="#000" points="0 -.5 0 -30.5 123 -30.5 123 -.5 0 -.5"/><text x="8" y="-18.5" fill="#000" font-family="Arial" font-size="10" text-anchor="start">examples/miral-kiosk</text><text x="61.5" y="-7.5" fill="#000" font-family="Arial" font-size="10" text-anchor="middle">/kiosk_main.cpp</text></a></g></g><g id="edge1" class="edge"><title>Node51-&gt;Node52</title><path fill="none" stroke="#191970" d="M114.8908,-60.7808C103.2854,-50.9383 89.8468,-39.541 79.3554,-30.6432"/><polygon fill="#191970" stroke="#191970" points="112.683 -63.498 122.574 -67.297 117.211 -58.159 112.683 -63.498"/></g><g id="node3" class="node"><title>Node53</title><g id="a_node3"><a target="_top" xlink:href="kiosk__window__manager_8cpp.html" xlink:title="examples/miral-kiosk\l/kiosk_window_manager.cpp"><polygon fill="#fff" stroke="#000" points="141 -.5 141 -30.5 298 -30.5 298 -.5 141 -.5"/><text x="149" y="-18.5" fill="#000" font-family="Arial" font-size="10" text-anchor="start">examples/miral-kiosk</text><text x="219.5" y="-7.5" fill="#000" font-family="Arial" font-size="10" text-anchor="middle">/kiosk_window_manager.cpp</text></a></g></g><g id="edge2" class="edge"><title>Node51-&gt;Node53</title><path fill="none" stroke="#191970" d="M166.1092,-60.7808C177.7146,-50.9383 191.1532,-39.541 201.6446,-30.6432"/><polygon fill="#191970" stroke="#191970" points="163.789 -58.159 158.426 -67.297 168.317 -63.498 163.789 -58.159"/></g></g></svg>