<svg xmlns="http://www.w3.org/2000/svg" xmlns:xlink="http://www.w3.org/1999/xlink" width="2500pt" height="665pt" viewBox="0 0 2499.5 665"><g id="graph0" class="graph" transform="scale(1 1) rotate(0) translate(4 661)"><title>examples/miral-kiosk/kiosk_main.cpp</title><polygon fill="#fff" stroke="transparent" points="-4 4 -4 -661 2495.5 -661 2495.5 4 -4 4"/><g id="node1" class="node"><title>Node0</title><polygon fill="#bfbfbf" stroke="#000" points="1835 -626.5 1835 -656.5 1958 -656.5 1958 -626.5 1835 -626.5"/><text x="1843" y="-644.5" fill="#000" font-family="Arial" font-size="10" text-anchor="start">examples/miral-kiosk</text><text x="1896.5" y="-633.5" fill="#000" font-family="Arial" font-size="10" text-anchor="middle">/kiosk_main.cpp</text></g><g id="node2" class="node"><title>Node1</title><g id="a_node2"><a target="_top" xlink:href="kiosk__window__manager_8h.html" xlink:title="kiosk_window_manager.h"><polygon fill="#fff" stroke="#000" points="1444 -570.5 1444 -589.5 1587 -589.5 1587 -570.5 1444 -570.5"/><text x="1515.5" y="-577.5" fill="#000" font-family="Arial" font-size="10" text-anchor="middle">kiosk_window_manager.h</text></a></g></g><g id="edge1" class="edge"><title>Node0-&gt;Node1</title><path fill="none" stroke="#191970" d="M1834.8623,-631.5506C1766.4114,-620.5015 1656.1731,-602.7071 1584.7837,-591.1836"/><polygon fill="#191970" stroke="#191970" points="1584.972 -587.669 1574.542 -589.53 1583.857 -594.579 1584.972 -587.669"/></g><g id="node37" class="node"><title>Node52</title><g id="a_node37"><a target="_top" xlink:href="runner_8h.html" xlink:title="miral/runner.h"><polygon fill="#fff" stroke="#000" points="1712 -252 1712 -271 1797 -271 1797 -252 1712 -252"/><text x="1754.5" y="-259" fill="#000" font-family="Arial" font-size="10" text-anchor="middle">miral/runner.h</text></a></g></g><g id="edge62" class="edge"><title>Node0-&gt;Node52</title><path fill="none" stroke="#191970" d="M1892.6551,-626.4669C1887.1032,-603.4032 1877.5,-557.8255 1877.5,-518.5 1877.5,-518.5 1877.5,-518.5 1877.5,-451.5 1877.5,-418.6194 1880.0029,-404.8749 1858.5,-380 1831.9375,-349.272 1800.7245,-375.017 1774.5,-344 1759.6069,-326.3853 1755.4488,-299.4712 1754.4662,-281.2132"/><polygon fill="#191970" stroke="#191970" points="1757.963 -281.027 1754.197 -271.124 1750.965 -281.214 1757.963 -281.027"/></g><g id="node38" class="node"><title>Node53</title><g id="a_node38"><a target="_top" xlink:href="application__authorizer_8h.html" xlink:title="miral/application_authorizer.h"><polygon fill="#fff" stroke="#000" points="2329.5 -252 2329.5 -271 2491.5 -271 2491.5 -252 2329.5 -252"/><text x="2410.5" y="-259" fill="#000" font-family="Arial" font-size="10" text-anchor="middle">miral/application_authorizer.h</text></a></g></g><g id="edge66" class="edge"><title>Node0-&gt;Node53</title><path fill="none" stroke="#191970" d="M1939.1217,-626.4878C1982.2156,-608.2614 2042.5,-573.0208 2042.5,-518.5 2042.5,-518.5 2042.5,-518.5 2042.5,-390 2042.5,-329.0524 2224.6898,-290.2548 2332.6847,-272.6108"/><polygon fill="#191970" stroke="#191970" points="2333.257 -276.064 2342.574 -271.02 2332.145 -269.153 2333.257 -276.064"/></g><g id="node40" class="node"><title>Node55</title><g id="a_node40"><a target="_top" xlink:href="display__configuration_8h.html" xlink:title="miral/display_configuration.h"><polygon fill="#fff" stroke="#000" points="1119.5 -252 1119.5 -271 1277.5 -271 1277.5 -252 1119.5 -252"/><text x="1198.5" y="-259" fill="#000" font-family="Arial" font-size="10" text-anchor="middle">miral/display_configuration.h</text></a></g></g><g id="edge70" class="edge"><title>Node0-&gt;Node55</title><path fill="none" stroke="#191970" d="M1834.6251,-629.3995C1803.9891,-621.4702 1767.4622,-608.9688 1738.5,-590 1600.7613,-499.7882 1636.2785,-393.2363 1492.5,-313 1458.1425,-293.8266 1361.0941,-279.2785 1287.8201,-270.6151"/><polygon fill="#191970" stroke="#191970" points="1287.985 -267.111 1277.648 -269.432 1287.176 -274.064 1287.985 -267.111"/></g><g id="node41" class="node"><title>Node56</title><g id="a_node41"><a target="_top" xlink:href="command__line__option_8h.html" xlink:title="miral/command_line\l_option.h"><polygon fill="#fff" stroke="#000" points="1783 -313.5 1783 -343.5 1900 -343.5 1900 -313.5 1783 -313.5"/><text x="1791" y="-331.5" fill="#000" font-family="Arial" font-size="10" text-anchor="start">miral/command_line</text><text x="1841.5" y="-320.5" fill="#000" font-family="Arial" font-size="10" text-anchor="middle">_option.h</text></a></g></g><g id="edge74" class="edge"><title>Node0-&gt;Node56</title><path fill="none" stroke="#191970" d="M1900.3449,-626.4669C1905.8968,-603.4032 1915.5,-557.8255 1915.5,-518.5 1915.5,-518.5 1915.5,-518.5 1915.5,-451.5 1915.5,-417.9798 1908.9415,-408.6252 1891.5,-380 1884.9804,-369.3 1875.869,-359.0606 1867.2075,-350.5706"/><polygon fill="#191970" stroke="#191970" points="1869.47 -347.894 1859.788 -343.592 1864.675 -352.993 1869.47 -347.894"/></g><g id="node43" class="node"><title>Node58</title><g id="a_node43"><a target="_top" xlink:href="keymap_8h.html" xlink:title="miral/keymap.h"><polygon fill="#fff" stroke="#000" points="1409.5 -252 1409.5 -271 1503.5 -271 1503.5 -252 1409.5 -252"/><text x="1456.5" y="-259" fill="#000" font-family="Arial" font-size="10" text-anchor="middle">miral/keymap.h</text></a></g></g><g id="edge81" class="edge"><title>Node0-&gt;Node58</title><path fill="none" stroke="#191970" d="M1837.253,-626.3769C1786.4841,-609.4337 1721.5,-576.4318 1721.5,-518.5 1721.5,-518.5 1721.5,-518.5 1721.5,-451.5 1721.5,-364.6043 1655.887,-361.0727 1583.5,-313 1557.779,-295.9185 1525.4995,-282.9209 1499.9205,-274.2563"/><polygon fill="#191970" stroke="#191970" points="1500.712 -270.832 1490.119 -271.035 1498.527 -277.483 1500.712 -270.832"/></g><g id="node44" class="node"><title>Node59</title><g id="a_node44"><a target="_top" xlink:href="set__window__management__policy_8h.html" xlink:title="miral/set_window_management\l_policy.h"><polygon fill="#fff" stroke="#000" points="1854 -246.5 1854 -276.5 2027 -276.5 2027 -246.5 1854 -246.5"/><text x="1862" y="-264.5" fill="#000" font-family="Arial" font-size="10" text-anchor="start">miral/set_window_management</text><text x="1940.5" y="-253.5" fill="#000" font-family="Arial" font-size="10" text-anchor="middle">_policy.h</text></a></g></g><g id="edge84" class="edge"><title>Node0-&gt;Node59</title><path fill="none" stroke="#191970" d="M1923.4744,-626.4248C1955.4632,-606.3256 2004.5,-567.5204 2004.5,-518.5 2004.5,-518.5 2004.5,-518.5 2004.5,-390 2004.5,-349.6473 1978.8995,-308.9367 1960.0812,-284.4623"/><polygon fill="#191970" stroke="#191970" points="1962.723 -282.161 1953.761 -276.51 1957.243 -286.516 1962.723 -282.161"/></g><g id="node45" class="node"><title>Node60</title><g id="a_node45"><a target="_top" xlink:href="internal__client_8h.html" xlink:title="miral/internal_client.h"><polygon fill="#fff" stroke="#000" points="1269.5 -442 1269.5 -461 1393.5 -461 1393.5 -442 1269.5 -442"/><text x="1331.5" y="-449" fill="#000" font-family="Arial" font-size="10" text-anchor="middle">miral/internal_client.h</text></a></g></g><g id="edge87" class="edge"><title>Node0-&gt;Node60</title><path fill="none" stroke="#191970" d="M1834.7219,-638.1825C1726.5367,-631.7803 1507.4485,-616.011 1435.5,-590 1392.9554,-574.6192 1376.316,-571.1504 1350.5,-534 1337.5035,-515.2975 1333.2792,-489.0102 1331.9692,-471.172"/><polygon fill="#191970" stroke="#191970" points="1335.459 -470.883 1331.472 -461.067 1328.468 -471.227 1335.459 -470.883"/></g><g id="node49" class="node"><title>Node64</title><polygon fill="#fff" stroke="#bfbfbf" points="2070.5 -570.5 2070.5 -589.5 2126.5 -589.5 2126.5 -570.5 2070.5 -570.5"/><text x="2098.5" y="-577.5" fill="#000" font-family="Arial" font-size="10" text-anchor="middle">unistd.h</text></g><g id="edge102" class="edge"><title>Node0-&gt;Node64</title><path fill="none" stroke="#191970" d="M1945.9148,-626.4554C1981.3746,-615.6595 2028.4308,-601.333 2060.8634,-591.4587"/><polygon fill="#191970" stroke="#191970" points="2061.883 -594.807 2070.43 -588.546 2059.844 -588.11 2061.883 -594.807"/></g><g id="node50" class="node"><title>Node65</title><polygon fill="#fff" stroke="#bfbfbf" points="2144.5 -570.5 2144.5 -589.5 2194.5 -589.5 2194.5 -570.5 2144.5 -570.5"/><text x="2169.5" y="-577.5" fill="#000" font-family="Arial" font-size="10" text-anchor="middle">atomic</text></g><g id="edge103" class="edge"><title>Node0-&gt;Node65</title><path fill="none" stroke="#191970" d="M1958.1925,-629.5094C2004.2618,-620.2571 2068.9574,-606.6378 2134.2487,-590.1901"/><polygon fill="#191970" stroke="#191970" points="2135.476 -593.49 2144.306 -587.635 2133.752 -586.705 2135.476 -593.49"/></g><g id="node3" class="node"><title>Node2</title><g id="a_node3"><a target="_top" xlink:href="sw__splash_8h.html" xlink:title="sw_splash.h"><polygon fill="#fff" stroke="#000" points="1511.5 -509 1511.5 -528 1587.5 -528 1587.5 -509 1511.5 -509"/><text x="1549.5" y="-516" fill="#000" font-family="Arial" font-size="10" text-anchor="middle">sw_splash.h</text></a></g></g><g id="edge2" class="edge"><title>Node1-&gt;Node2</title><path fill="none" stroke="#191970" d="M1520.8125,-570.3906C1525.7239,-561.5068 1533.1579,-548.0601 1539.2275,-537.0811"/><polygon fill="#191970" stroke="#191970" points="1542.337 -538.69 1544.113 -528.245 1536.211 -535.303 1542.337 -538.69"/></g><g id="node6" class="node"><title>Node5</title><g id="a_node6"><a target="_top" xlink:href="canonical__window__manager_8h.html" xlink:title="miral/canonical_window\l_manager.h"><polygon fill="#fff" stroke="#000" points="1359.5 -503.5 1359.5 -533.5 1493.5 -533.5 1493.5 -503.5 1359.5 -503.5"/><text x="1367.5" y="-521.5" fill="#000" font-family="Arial" font-size="10" text-anchor="start">miral/canonical_window</text><text x="1426.5" y="-510.5" fill="#000" font-family="Arial" font-size="10" text-anchor="middle">_manager.h</text></a></g></g><g id="edge5" class="edge"><title>Node1-&gt;Node5</title><path fill="none" stroke="#191970" d="M1501.5938,-570.3906C1489.6602,-562.1444 1472.0374,-549.9669 1456.8623,-539.4807"/><polygon fill="#191970" stroke="#191970" points="1458.488 -536.35 1448.272 -533.545 1454.509 -542.109 1458.488 -536.35"/></g><g id="node4" class="node"><title>Node3</title><g id="a_node4"><a target="_top" xlink:href="splash__session_8h.html" xlink:title="splash_session.h"><polygon fill="#fff" stroke="#000" points="1750 -380.5 1750 -399.5 1849 -399.5 1849 -380.5 1750 -380.5"/><text x="1799.5" y="-387.5" fill="#000" font-family="Arial" font-size="10" text-anchor="middle">splash_session.h</text></a></g></g><g id="edge3" class="edge"><title>Node2-&gt;Node3</title><path fill="none" stroke="#191970" d="M1568.2906,-508.8416C1611.9227,-486.4147 1720.2818,-430.7181 1771.6444,-404.3178"/><polygon fill="#191970" stroke="#191970" points="1773.539 -407.28 1780.832 -399.595 1770.338 -401.054 1773.539 -407.28"/></g><g id="node5" class="node"><title>Node4</title><polygon fill="#fff" stroke="#bfbfbf" points="1559.5 -185 1559.5 -204 1617.5 -204 1617.5 -185 1559.5 -185"/><text x="1588.5" y="-192" fill="#000" font-family="Arial" font-size="10" text-anchor="middle">memory</text></g><g id="edge4" class="edge"><title>Node3-&gt;Node4</title><path fill="none" stroke="#191970" d="M1785.2092,-380.2056C1772.8027,-371.3965 1754.6574,-357.7596 1740.5,-344 1699.978,-304.6165 1700.6987,-284.675 1659.5,-246 1644.9734,-232.3633 1626.7487,-219.2128 1612.4009,-209.6139"/><polygon fill="#191970" stroke="#191970" points="1614.317 -206.685 1604.036 -204.124 1610.476 -212.537 1614.317 -206.685"/></g><g id="node7" class="node"><title>Node6</title><g id="a_node7"><a target="_top" xlink:href="window__management__policy_8h.html" xlink:title="miral/window_management\l_policy.h"><polygon fill="#fff" stroke="#000" points="532 -313.5 532 -343.5 685 -343.5 685 -313.5 532 -313.5"/><text x="540" y="-331.5" fill="#000" font-family="Arial" font-size="10" text-anchor="start">miral/window_management</text><text x="608.5" y="-320.5" fill="#000" font-family="Arial" font-size="10" text-anchor="middle">_policy.h</text></a></g></g><g id="edge6" class="edge"><title>Node5-&gt;Node6</title><path fill="none" stroke="#191970" d="M1359.1624,-512.2815C1237.6632,-499.7944 974.6772,-466.947 762.5,-400 720.4651,-386.737 674.9941,-364.5736 644.4426,-348.4325"/><polygon fill="#191970" stroke="#191970" points="645.93 -345.259 635.461 -343.633 642.631 -351.433 645.93 -345.259"/></g><g id="node26" class="node"><title>Node40</title><g id="a_node26"><a target="_top" xlink:href="window__manager__tools_8h.html" xlink:title="miral/window_manager\l_tools.h"><polygon fill="#fff" stroke="#000" points="1420 -436.5 1420 -466.5 1551 -466.5 1551 -436.5 1420 -436.5"/><text x="1428" y="-454.5" fill="#000" font-family="Arial" font-size="10" text-anchor="start">miral/window_manager</text><text x="1485.5" y="-443.5" fill="#000" font-family="Arial" font-size="10" text-anchor="middle">_tools.h</text></a></g></g><g id="edge37" class="edge"><title>Node5-&gt;Node40</title><path fill="none" stroke="#191970" d="M1439.888,-503.2967C1447.4315,-494.7303 1457.0027,-483.8614 1465.4274,-474.2943"/><polygon fill="#191970" stroke="#191970" points="1468.183 -476.461 1472.165 -466.643 1462.929 -471.835 1468.183 -476.461"/></g><g id="edge36" class="edge"><title>Node6-&gt;Node4</title><path fill="none" stroke="#191970" d="M685.1516,-318.1955C700.7984,-316.2957 717.1652,-314.4554 732.5,-313 855.3189,-301.3437 1173.3307,-326.1229 1286.5,-277 1304.9591,-268.9875 1301.5741,-255.1432 1319.5,-246 1359.1226,-225.7903 1484.4975,-207.6145 1549.1278,-199.2933"/><polygon fill="#191970" stroke="#191970" points="1549.853 -202.729 1559.332 -197.996 1548.97 -195.785 1549.853 -202.729"/></g><g id="node8" class="node"><title>Node7</title><g id="a_node8"><a target="_top" xlink:href="displacement_8h.html" xlink:title="mir/geometry/displacement.h"><polygon fill="#fff" stroke="#000" points="448 -185 448 -204 609 -204 609 -185 448 -185"/><text x="528.5" y="-192" fill="#000" font-family="Arial" font-size="10" text-anchor="middle">mir/geometry/displacement.h</text></a></g></g><g id="edge7" class="edge"><title>Node6-&gt;Node7</title><path fill="none" stroke="#191970" d="M547.1617,-313.4253C528.6452,-305.697 510.3647,-294.1497 499.5,-277 486.5617,-256.5772 500.9408,-229.64 513.6585,-212.1951"/><polygon fill="#191970" stroke="#191970" points="516.636 -214.068 520.004 -204.023 511.107 -209.775 516.636 -214.068"/></g><g id="node13" class="node"><title>Node12</title><g id="a_node13"><a target="_top" xlink:href="rectangles_8h.html" xlink:title="mir/geometry/rectangles.h"><polygon fill="#fff" stroke="#000" points="579.5 -252 579.5 -271 725.5 -271 725.5 -252 579.5 -252"/><text x="652.5" y="-259" fill="#000" font-family="Arial" font-size="10" text-anchor="middle">mir/geometry/rectangles.h</text></a></g></g><g id="edge15" class="edge"><title>Node6-&gt;Node12</title><path fill="none" stroke="#191970" d="M618.4843,-313.2967C625.0735,-303.2631 633.737,-290.0709 640.6717,-279.5113"/><polygon fill="#191970" stroke="#191970" points="643.661 -281.335 646.225 -271.055 637.81 -277.492 643.661 -281.335"/></g><g id="node18" class="node"><title>Node17</title><g id="a_node18"><a target="_top" xlink:href="toolkit_2event_8h.html" xlink:title="mir_toolkit/event.h"><polygon fill="#fff" stroke="#000" points="273.5 -252 273.5 -271 383.5 -271 383.5 -252 273.5 -252"/><text x="328.5" y="-259" fill="#000" font-family="Arial" font-size="10" text-anchor="middle">mir_toolkit/event.h</text></a></g></g><g id="edge25" class="edge"><title>Node6-&gt;Node17</title><path fill="none" stroke="#191970" d="M545.6625,-313.4639C495.0401,-301.3507 424.8434,-284.5536 378.1139,-273.3719"/><polygon fill="#191970" stroke="#191970" points="378.764 -269.929 368.224 -271.005 377.135 -276.736 378.764 -269.929"/></g><g id="node9" class="node"><title>Node8</title><g id="a_node9"><a target="_top" xlink:href="dimensions_8h.html" xlink:title="mir/geometry/dimensions.h"><polygon fill="#fff" stroke="#000" points="556.5 -56.5 556.5 -75.5 708.5 -75.5 708.5 -56.5 556.5 -56.5"/><text x="632.5" y="-63.5" fill="#000" font-family="Arial" font-size="10" text-anchor="middle">mir/geometry/dimensions.h</text></a></g></g><g id="edge8" class="edge"><title>Node7-&gt;Node8</title><path fill="none" stroke="#191970" d="M536.3169,-184.8416C553.7083,-163.3533 595.8195,-111.3216 618.1086,-83.7817"/><polygon fill="#191970" stroke="#191970" points="621.022 -85.746 624.592 -75.77 615.581 -81.342 621.022 -85.746"/></g><g id="node11" class="node"><title>Node10</title><polygon fill="#fff" stroke="#bfbfbf" points="712 -.5 712 -19.5 761 -19.5 761 -.5 712 -.5"/><text x="736.5" y="-7.5" fill="#000" font-family="Arial" font-size="10" text-anchor="middle">iosfwd</text></g><g id="edge14" class="edge"><title>Node7-&gt;Node10</title><path fill="none" stroke="#191970" d="M526.5578,-184.9614C522.1122,-160.1803 514.0027,-93.1163 547.5,-56 557.8456,-44.5367 649.8815,-25.9731 701.5995,-16.3061"/><polygon fill="#191970" stroke="#191970" points="702.479 -19.703 711.675 -14.44 701.204 -12.82 702.479 -19.703"/></g><g id="node12" class="node"><title>Node11</title><g id="a_node12"><a target="_top" xlink:href="point_8h.html" xlink:title="mir/geometry/point.h"><polygon fill="#fff" stroke="#000" points="609.5 -118 609.5 -137 729.5 -137 729.5 -118 609.5 -118"/><text x="669.5" y="-125" fill="#000" font-family="Arial" font-size="10" text-anchor="middle">mir/geometry/point.h</text></a></g></g><g id="edge11" class="edge"><title>Node7-&gt;Node11</title><path fill="none" stroke="#191970" d="M548.7019,-184.9005C572.679,-173.5072 612.8521,-154.4178 640.2321,-141.4075"/><polygon fill="#191970" stroke="#191970" points="641.806 -144.535 649.336 -137.082 638.801 -138.212 641.806 -144.535"/></g><g id="node10" class="node"><title>Node9</title><polygon fill="#fff" stroke="#bfbfbf" points="607.5 -.5 607.5 -19.5 657.5 -19.5 657.5 -.5 607.5 -.5"/><text x="632.5" y="-7.5" fill="#000" font-family="Arial" font-size="10" text-anchor="middle">cstdint</text></g><g id="edge9" class="edge"><title>Node8-&gt;Node9</title><path fill="none" stroke="#191970" d="M632.5,-56.2455C632.5,-48.9382 632.5,-38.6944 632.5,-29.7046"/><polygon fill="#191970" stroke="#191970" points="636 -29.643 632.5 -19.643 629 -29.643 636 -29.643"/></g><g id="edge10" class="edge"><title>Node8-&gt;Node10</title><path fill="none" stroke="#191970" d="M650.6154,-56.2455C666.945,-47.4527 691.171,-34.4079 709.7339,-24.4125"/><polygon fill="#191970" stroke="#191970" points="711.447 -27.465 718.592 -19.643 708.128 -21.302 711.447 -27.465"/></g><g id="edge12" class="edge"><title>Node11-&gt;Node8</title><path fill="none" stroke="#191970" d="M663.7188,-117.8906C658.374,-109.0068 650.2841,-95.5601 643.6789,-84.5811"/><polygon fill="#191970" stroke="#191970" points="646.517 -82.509 638.363 -75.745 640.519 -86.118 646.517 -82.509"/></g><g id="edge13" class="edge"><title>Node11-&gt;Node10</title><path fill="none" stroke="#191970" d="M681.4497,-117.6593C692.3355,-108.0858 708.1045,-92.5912 717.5,-76 725.6708,-61.5715 730.5711,-43.3432 733.3431,-29.7009"/><polygon fill="#191970" stroke="#191970" points="736.852 -29.969 735.196 -19.504 729.965 -28.717 736.852 -29.969"/></g><g id="edge16" class="edge"><title>Node12-&gt;Node11</title><path fill="none" stroke="#191970" d="M653.4111,-251.83C654.897,-236.4033 658.0269,-205.282 661.5,-179 662.8802,-168.5553 664.6599,-156.9578 666.1901,-147.4169"/><polygon fill="#191970" stroke="#191970" points="669.676 -147.787 667.833 -137.354 662.767 -146.659 669.676 -147.787"/></g><g id="node14" class="node"><title>Node13</title><g id="a_node14"><a target="_top" xlink:href="rectangle_8h.html" xlink:title="mir/geometry/rectangle.h"><polygon fill="#fff" stroke="#000" points="704 -185 704 -204 845 -204 845 -185 704 -185"/><text x="774.5" y="-192" fill="#000" font-family="Arial" font-size="10" text-anchor="middle">mir/geometry/rectangle.h</text></a></g></g><g id="edge17" class="edge"><title>Node12-&gt;Node13</title><path fill="none" stroke="#191970" d="M669.9796,-251.9005C690.454,-240.6564 724.5772,-221.9166 748.2393,-208.9219"/><polygon fill="#191970" stroke="#191970" points="749.972 -211.963 757.053 -204.082 746.603 -205.828 749.972 -211.963"/></g><g id="node16" class="node"><title>Node15</title><polygon fill="#fff" stroke="#bfbfbf" points="863 -185 863 -204 910 -204 910 -185 863 -185"/><text x="886.5" y="-192" fill="#000" font-family="Arial" font-size="10" text-anchor="middle">vector</text></g><g id="edge23" class="edge"><title>Node12-&gt;Node15</title><path fill="none" stroke="#191970" d="M701.0778,-251.9947C742.5195,-243.2079 803.341,-228.6949 854.5,-210 856.0944,-209.4173 857.7156,-208.781 859.3393,-208.1093"/><polygon fill="#191970" stroke="#191970" points="860.807 -211.287 868.499 -204.002 857.942 -204.9 860.807 -211.287"/></g><g id="node17" class="node"><title>Node16</title><polygon fill="#fff" stroke="#bfbfbf" points="1116 -185 1116 -204 1199 -204 1199 -185 1116 -185"/><text x="1157.5" y="-192" fill="#000" font-family="Arial" font-size="10" text-anchor="middle">initializer_list</text></g><g id="edge24" class="edge"><title>Node12-&gt;Node16</title><path fill="none" stroke="#191970" d="M725.7552,-252.0446C741.5032,-250.0319 758.0541,-247.9318 773.5,-246 904.5628,-229.6086 937.8394,-229.3374 1068.5,-210 1080.6211,-208.2061 1093.6328,-206.0636 1105.8627,-203.9523"/><polygon fill="#191970" stroke="#191970" points="1106.668 -207.365 1115.915 -202.194 1105.462 -200.469 1106.668 -207.365"/></g><g id="edge22" class="edge"><title>Node13-&gt;Node10</title><path fill="none" stroke="#191970" d="M772.5105,-184.8402C766.521,-155.76 748.5768,-68.636 740.5078,-29.459"/><polygon fill="#191970" stroke="#191970" points="743.915 -28.652 738.47 -19.564 737.059 -30.065 743.915 -28.652"/></g><g id="edge18" class="edge"><title>Node13-&gt;Node11</title><path fill="none" stroke="#191970" d="M759.4561,-184.9005C742.1466,-173.8554 713.5023,-155.5776 693.1911,-142.6172"/><polygon fill="#191970" stroke="#191970" points="694.829 -139.51 684.516 -137.082 691.063 -145.411 694.829 -139.51"/></g><g id="node15" class="node"><title>Node14</title><g id="a_node15"><a target="_top" xlink:href="size_8h.html" xlink:title="size.h"><polygon fill="#fff" stroke="#000" points="803 -118 803 -137 848 -137 848 -118 803 -118"/><text x="825.5" y="-125" fill="#000" font-family="Arial" font-size="10" text-anchor="middle">size.h</text></a></g></g><g id="edge19" class="edge"><title>Node13-&gt;Node14</title><path fill="none" stroke="#191970" d="M781.8071,-184.9005C789.6843,-174.552 802.3946,-157.8542 812.0806,-145.1295"/><polygon fill="#191970" stroke="#191970" points="814.935 -147.159 818.207 -137.082 809.365 -142.919 814.935 -147.159"/></g><g id="edge20" class="edge"><title>Node14-&gt;Node8</title><path fill="none" stroke="#191970" d="M802.9827,-120.3248C770.899,-110.1013 711.5479,-91.1888 672.0381,-78.5989"/><polygon fill="#191970" stroke="#191970" points="673.04 -75.245 662.449 -75.543 670.915 -81.914 673.04 -75.245"/></g><g id="edge21" class="edge"><title>Node14-&gt;Node10</title><path fill="none" stroke="#191970" d="M821.7424,-117.5833C815.9748,-103.1304 803.9654,-75.8433 788.5,-56 779.8171,-44.8592 768.1871,-34.2789 758.1277,-26.0805"/><polygon fill="#191970" stroke="#191970" points="760.168 -23.232 750.146 -19.794 755.837 -28.731 760.168 -23.232"/></g><g id="node19" class="node"><title>Node18</title><g id="a_node19"><a target="_top" xlink:href="toolkit_2events_2event_8h.html" xlink:title="mir_toolkit/events\l/event.h"><polygon fill="#fff" stroke="red" points="267.5 -179.5 267.5 -209.5 373.5 -209.5 373.5 -179.5 267.5 -179.5"/><text x="275.5" y="-197.5" fill="#000" font-family="Arial" font-size="10" text-anchor="start">mir_toolkit/events</text><text x="320.5" y="-186.5" fill="#000" font-family="Arial" font-size="10" text-anchor="middle">/event.h</text></a></g></g><g id="edge26" class="edge"><title>Node17-&gt;Node18</title><path fill="none" stroke="#191970" d="M327.3538,-251.9005C326.3519,-243.5099 324.8517,-230.9451 323.51,-219.7085"/><polygon fill="#191970" stroke="#191970" points="326.955 -219.036 322.294 -209.522 320.004 -219.866 326.955 -219.036"/></g><g id="node20" class="node"><title>Node19</title><polygon fill="#fff" stroke="#bfbfbf" points="198.5 -118 198.5 -137 254.5 -137 254.5 -118 198.5 -118"/><text x="226.5" y="-125" fill="#000" font-family="Arial" font-size="10" text-anchor="middle">stddef.h</text></g><g id="edge27" class="edge"><title>Node18-&gt;Node19</title><path fill="none" stroke="#191970" d="M299.1699,-179.2967C283.9555,-168.4524 263.5643,-153.9182 248.2547,-143.006"/><polygon fill="#191970" stroke="#191970" points="250.08 -140.009 239.905 -137.055 246.017 -145.709 250.08 -140.009"/></g><g id="node21" class="node"><title>Node20</title><polygon fill="#fff" stroke="#bfbfbf" points="314 -56.5 314 -75.5 367 -75.5 367 -56.5 314 -56.5"/><text x="340.5" y="-63.5" fill="#000" font-family="Arial" font-size="10" text-anchor="middle">stdint.h</text></g><g id="edge28" class="edge"><title>Node18-&gt;Node20</title><path fill="none" stroke="#191970" d="M322.8728,-179.2548C326.4962,-155.9744 333.4088,-111.5607 337.4165,-85.8117"/><polygon fill="#191970" stroke="#191970" points="340.905 -86.155 338.985 -75.736 333.988 -85.079 340.905 -86.155"/></g><g id="node22" class="node"><title>Node21</title><g id="a_node22"><a target="_top" xlink:href="common_8h.html" xlink:title="mir_toolkit/common.h"><polygon fill="#fff" stroke="#000" points="55 -118 55 -137 180 -137 180 -118 55 -118"/><text x="117.5" y="-125" fill="#000" font-family="Arial" font-size="10" text-anchor="middle">mir_toolkit/common.h</text></a></g></g><g id="edge29" class="edge"><title>Node18-&gt;Node21</title><path fill="none" stroke="#191970" d="M274.9428,-179.4639C239.0879,-167.63 189.6887,-151.3258 155.8407,-140.1543"/><polygon fill="#191970" stroke="#191970" points="156.893 -136.816 146.3 -137.005 154.699 -143.463 156.893 -136.816"/></g><g id="node23" class="node"><title>Node22</title><g id="a_node23"><a target="_top" xlink:href="deprecations_8h.html" xlink:title="mir_toolkit/deprecations.h"><polygon fill="#fff" stroke="#000" points="0 -56.5 0 -75.5 145 -75.5 145 -56.5 0 -56.5"/><text x="72.5" y="-63.5" fill="#000" font-family="Arial" font-size="10" text-anchor="middle">mir_toolkit/deprecations.h</text></a></g></g><g id="edge31" class="edge"><title>Node18-&gt;Node22</title><path fill="none" stroke="#191970" d="M314.2421,-179.4795C305.6351,-160.7237 288.3355,-129.0372 263.5,-112 243.7165,-98.4285 187.9988,-85.8819 141.8142,-77.332"/><polygon fill="#191970" stroke="#191970" points="142.285 -73.86 131.82 -75.516 141.033 -80.747 142.285 -73.86"/></g><g id="node24" class="node"><title>Node23</title><g id="a_node24"><a target="_top" xlink:href="input__event_8h.html" xlink:title="mir_toolkit/events\l/input/input_event.h"><polygon fill="#fff" stroke="red" points="348.5 -112.5 348.5 -142.5 462.5 -142.5 462.5 -112.5 348.5 -112.5"/><text x="356.5" y="-130.5" fill="#000" font-family="Arial" font-size="10" text-anchor="start">mir_toolkit/events</text><text x="405.5" y="-119.5" fill="#000" font-family="Arial" font-size="10" text-anchor="middle">/input/input_event.h</text></a></g></g><g id="edge32" class="edge"><title>Node18-&gt;Node23</title><path fill="none" stroke="#191970" d="M334.027,-179.2967C344.4526,-170.2163 359.0682,-158.5488 372.4278,-148.587"/><polygon fill="#191970" stroke="#191970" points="374.54 -151.379 380.535 -142.643 370.401 -145.733 374.54 -151.379"/></g><g id="edge30" class="edge"><title>Node21-&gt;Node22</title><path fill="none" stroke="#191970" d="M110.4688,-117.8906C103.837,-108.8273 93.7304,-95.0149 85.6113,-83.9188"/><polygon fill="#191970" stroke="#191970" points="88.36 -81.748 79.63 -75.745 82.711 -85.882 88.36 -81.748"/></g><g id="edge33" class="edge"><title>Node23-&gt;Node18</title><path fill="none" stroke="#191970" d="M392.0421,-142.6432C381.635,-151.7121 367.0259,-163.3776 353.6608,-173.3469"/><polygon fill="#191970" stroke="#191970" points="351.542 -170.56 345.549 -179.297 355.682 -176.205 351.542 -170.56"/></g><g id="edge34" class="edge"><title>Node23-&gt;Node20</title><path fill="none" stroke="#191970" d="M389.4326,-112.2977C380.034,-103.4052 368.1473,-92.1586 358.443,-82.9769"/><polygon fill="#191970" stroke="#191970" points="360.577 -80.177 350.907 -75.847 355.766 -85.262 360.577 -80.177"/></g><g id="node25" class="node"><title>Node25</title><polygon fill="#fff" stroke="#bfbfbf" points="406.5 -56.5 406.5 -75.5 468.5 -75.5 468.5 -56.5 406.5 -56.5"/><text x="437.5" y="-63.5" fill="#000" font-family="Arial" font-size="10" text-anchor="middle">stdbool.h</text></g><g id="edge35" class="edge"><title>Node23-&gt;Node25</title><path fill="none" stroke="#191970" d="M413.4101,-112.2977C417.7132,-104.0277 423.0758,-93.7215 427.6482,-84.9339"/><polygon fill="#191970" stroke="#191970" points="430.865 -86.334 432.376 -75.847 424.656 -83.102 430.865 -86.334"/></g><g id="edge61" class="edge"><title>Node40-&gt;Node4</title><path fill="none" stroke="#191970" d="M1506.0859,-436.4307C1518.375,-426.8326 1533.8124,-413.6673 1545.5,-400 1587.2639,-351.1619 1603.9431,-338.8154 1621.5,-277 1625.2643,-263.7464 1625.3728,-259.2223 1621.5,-246 1617.926,-233.798 1610.4763,-221.7442 1603.5582,-212.3692"/><polygon fill="#191970" stroke="#191970" points="1606.151 -210.003 1597.232 -204.284 1600.638 -214.317 1606.151 -210.003"/></g><g id="edge59" class="edge"><title>Node40-&gt;Node7</title><path fill="none" stroke="#191970" d="M1419.8989,-438.659C1414.0268,-437.6884 1408.163,-436.7838 1402.5,-436 1227.0044,-411.7114 1180.7606,-425.9298 1005.5,-400 961.956,-393.5577 951.6181,-388.855 908.5,-380 830.2904,-363.9385 804.6337,-378.2264 732.5,-344 712.8083,-334.6566 714.0455,-322.6455 694.5,-313 632.2436,-282.2771 589.9831,-327.6469 542.5,-277 526.7922,-260.2455 525.1456,-232.7235 526.1838,-214.1214"/><polygon fill="#191970" stroke="#191970" points="529.675 -214.372 527.047 -204.108 522.701 -213.77 529.675 -214.372"/></g><g id="node27" class="node"><title>Node41</title><g id="a_node27"><a target="_top" xlink:href="application_8h.html" xlink:title="miral/application.h"><polygon fill="#fff" stroke="#000" points="993.5 -252 993.5 -271 1101.5 -271 1101.5 -252 993.5 -252"/><text x="1047.5" y="-259" fill="#000" font-family="Arial" font-size="10" text-anchor="middle">miral/application.h</text></a></g></g><g id="edge38" class="edge"><title>Node40-&gt;Node41</title><path fill="none" stroke="#191970" d="M1489.2433,-436.437C1495.3377,-407.8985 1503.642,-345.8708 1470.5,-313 1413.4163,-256.3833 1189.7338,-290.6381 1110.5,-277 1104.6688,-275.9963 1098.578,-274.7519 1092.5796,-273.4078"/><polygon fill="#191970" stroke="#191970" points="1093.169 -269.951 1082.634 -271.077 1091.572 -276.766 1093.169 -269.951"/></g><g id="node29" class="node"><title>Node43</title><g id="a_node29"><a target="_top" xlink:href="window__info_8h.html" xlink:title="window_info.h"><polygon fill="#fff" stroke="#000" points="1014 -380.5 1014 -399.5 1101 -399.5 1101 -380.5 1014 -380.5"/><text x="1057.5" y="-387.5" fill="#000" font-family="Arial" font-size="10" text-anchor="middle">window_info.h</text></a></g></g><g id="edge42" class="edge"><title>Node40-&gt;Node43</title><path fill="none" stroke="#191970" d="M1419.8606,-438.9157C1413.9967,-437.8903 1408.1452,-436.9028 1402.5,-436 1299.7749,-419.5713 1179.1845,-404.4352 1111.2172,-396.2833"/><polygon fill="#191970" stroke="#191970" points="1111.52 -392.795 1101.176 -395.084 1110.69 -399.745 1111.52 -392.795"/></g><g id="node36" class="node"><title>Node50</title><polygon fill="#fff" stroke="#bfbfbf" points="2127 -185 2127 -204 2192 -204 2192 -185 2127 -185"/><text x="2159.5" y="-192" fill="#000" font-family="Arial" font-size="10" text-anchor="middle">functional</text></g><g id="edge60" class="edge"><title>Node40-&gt;Node50</title><path fill="none" stroke="#191970" d="M1534.2231,-436.3991C1585.467,-420.8693 1668.6253,-396.6632 1741.5,-380 1829.9715,-359.7705 1854.8328,-367.4713 1942.5,-344 1981.7473,-333.4923 1989.0815,-322.8461 2028.5,-313 2082.7421,-299.4512 2240.9042,-319.2673 2277.5,-277 2304.8805,-245.3762 2246.0424,-219.8437 2202.0057,-205.952"/><polygon fill="#191970" stroke="#191970" points="2202.898 -202.565 2192.312 -203.002 2200.86 -209.262 2202.898 -202.565"/></g><g id="edge40" class="edge"><title>Node41-&gt;Node4</title><path fill="none" stroke="#191970" d="M1082.6427,-251.9718C1091.6709,-249.7675 1101.4037,-247.6016 1110.5,-246 1272.1346,-217.541 1467.4714,-202.4171 1549.3794,-196.9329"/><polygon fill="#191970" stroke="#191970" points="1549.736 -200.417 1559.484 -196.267 1549.275 -193.432 1549.736 -200.417"/></g><g id="edge39" class="edge"><title>Node41-&gt;Node21</title><path fill="none" stroke="#191970" d="M993.4393,-254.7633C967.7404,-251.7424 936.5692,-248.3405 908.5,-246 764.3345,-233.9791 395.3937,-256.7793 258.5,-210 235.5184,-202.1467 234.2325,-191.6488 213.5,-179 191.2995,-165.4556 165.2525,-151.6038 145.8955,-141.6822"/><polygon fill="#191970" stroke="#191970" points="147.477 -138.56 136.977 -137.146 144.303 -144.799 147.477 -138.56"/></g><g id="node28" class="node"><title>Node42</title><polygon fill="#fff" stroke="#bfbfbf" points="1217.5 -185 1217.5 -204 1261.5 -204 1261.5 -185 1217.5 -185"/><text x="1239.5" y="-192" fill="#000" font-family="Arial" font-size="10" text-anchor="middle">string</text></g><g id="edge41" class="edge"><title>Node41-&gt;Node42</title><path fill="none" stroke="#191970" d="M1082.5974,-251.9664C1115.5884,-242.6098 1166.0985,-227.262 1208.5,-210 1209.6912,-209.515 1210.8997,-209.003 1212.1141,-208.4718"/><polygon fill="#191970" stroke="#191970" points="1213.777 -211.558 1221.356 -204.155 1210.815 -205.216 1213.777 -211.558"/></g><g id="edge56" class="edge"><title>Node43-&gt;Node12</title><path fill="none" stroke="#191970" d="M1042.4788,-380.4272C1016.2953,-364.1633 960.1491,-331.1396 908.5,-313 890.3325,-306.6194 783.5282,-286.0255 713.7363,-272.8939"/><polygon fill="#191970" stroke="#191970" points="714.197 -269.419 703.723 -271.013 712.905 -276.299 714.197 -269.419"/></g><g id="node30" class="node"><title>Node44</title><g id="a_node30"><a target="_top" xlink:href="miral_2miral_2window_8h.html" xlink:title="miral/window.h"><polygon fill="#fff" stroke="#000" points="1032 -319 1032 -338 1123 -338 1123 -319 1032 -319"/><text x="1077.5" y="-326" fill="#000" font-family="Arial" font-size="10" text-anchor="middle">miral/window.h</text></a></g></g><g id="edge43" class="edge"><title>Node43-&gt;Node44</title><path fill="none" stroke="#191970" d="M1060.625,-380.3906C1063.4265,-371.776 1067.6233,-358.8708 1071.1306,-348.0858"/><polygon fill="#191970" stroke="#191970" points="1074.567 -348.837 1074.331 -338.245 1067.91 -346.672 1074.567 -348.837"/></g><g id="node31" class="node"><title>Node45</title><g id="a_node31"><a target="_top" xlink:href="window__specification_8h.html" xlink:title="miral/window_specification.h"><polygon fill="#fff" stroke="red" points="741.5 -319 741.5 -338 899.5 -338 899.5 -319 741.5 -319"/><text x="820.5" y="-326" fill="#000" font-family="Arial" font-size="10" text-anchor="middle">miral/window_specification.h</text></a></g></g><g id="edge48" class="edge"><title>Node43-&gt;Node45</title><path fill="none" stroke="#191970" d="M1020.7288,-380.4581C979.3894,-369.7308 912.1767,-352.2895 867.1678,-340.61"/><polygon fill="#191970" stroke="#191970" points="867.916 -337.188 857.357 -338.064 866.158 -343.964 867.916 -337.188"/></g><g id="node32" class="node"><title>Node46</title><g id="a_node32"><a target="_top" xlink:href="optional__value_8h.html" xlink:title="mir/optional_value.h"><polygon fill="#fff" stroke="#000" points="782 -252 782 -271 899 -271 899 -252 782 -252"/><text x="840.5" y="-259" fill="#000" font-family="Arial" font-size="10" text-anchor="middle">mir/optional_value.h</text></a></g></g><g id="edge57" class="edge"><title>Node43-&gt;Node46</title><path fill="none" stroke="#191970" d="M1050.0971,-380.3985C1037.3007,-364.3866 1009.5172,-332.1084 979.5,-313 951.6576,-295.276 916.8261,-282.3853 888.996,-273.9334"/><polygon fill="#191970" stroke="#191970" points="889.667 -270.483 879.086 -271.02 887.692 -277.198 889.667 -270.483"/></g><g id="node35" class="node"><title>Node51</title><polygon fill="#fff" stroke="#bfbfbf" points="1397.5 -319 1397.5 -338 1461.5 -338 1461.5 -319 1397.5 -319"/><text x="1429.5" y="-326" fill="#000" font-family="Arial" font-size="10" text-anchor="middle">algorithm</text></g><g id="edge58" class="edge"><title>Node43-&gt;Node51</title><path fill="none" stroke="#191970" d="M1101.2164,-386.4194C1164.2263,-380.6765 1283.9425,-367.5832 1383.5,-344 1386.9672,-343.1787 1390.5439,-342.2059 1394.0994,-341.154"/><polygon fill="#191970" stroke="#191970" points="1395.474 -344.39 1403.955 -338.04 1393.365 -337.716 1395.474 -344.39"/></g><g id="edge47" class="edge"><title>Node44-&gt;Node4</title><path fill="none" stroke="#191970" d="M1123.3965,-326.2437C1180.367,-322.0727 1279.5331,-310.2644 1357.5,-277 1379.1699,-267.7546 1379.2449,-256.1629 1400.5,-246 1449.266,-222.6831 1510.3654,-208.414 1549.4236,-200.9794"/><polygon fill="#191970" stroke="#191970" points="1550.143 -204.406 1559.342 -199.148 1548.873 -197.522 1550.143 -204.406"/></g><g id="edge45" class="edge"><title>Node44-&gt;Node11</title><path fill="none" stroke="#191970" d="M1031.8905,-322.1496C952.8249,-310.9378 796.5183,-287.8014 773.5,-277 768.3286,-274.5733 698.6459,-214.7682 695.5,-210 682.7534,-190.6799 675.9308,-164.7189 672.5194,-147.1167"/><polygon fill="#191970" stroke="#191970" points="675.946 -146.39 670.778 -137.141 669.05 -147.594 675.946 -146.39"/></g><g id="edge46" class="edge"><title>Node44-&gt;Node14</title><path fill="none" stroke="#191970" d="M1042.3543,-318.9037C1021.5778,-311.2219 996.9628,-298.1475 984.5,-277 977.5048,-265.1301 976.9155,-257.5023 984.5,-246 1006.8595,-212.0909 1046.1405,-243.9091 1068.5,-210 1076.0845,-198.4977 1077.1738,-189.7048 1068.5,-179 1042.3764,-146.7597 918.2068,-133.8887 858.1641,-129.4851"/><polygon fill="#191970" stroke="#191970" points="858.297 -125.986 848.077 -128.781 857.81 -132.969 858.297 -125.986"/></g><g id="edge44" class="edge"><title>Node44-&gt;Node41</title><path fill="none" stroke="#191970" d="M1073.2017,-318.9005C1068.7017,-308.8505 1061.5204,-292.8122 1055.8912,-280.2403"/><polygon fill="#191970" stroke="#191970" points="1059.071 -278.778 1051.79 -271.082 1052.683 -281.639 1059.071 -278.778"/></g><g id="edge55" class="edge"><title>Node45-&gt;Node4</title><path fill="none" stroke="#191970" d="M899.6268,-321.5296C1035.4783,-309.3939 1300.4222,-284.9217 1319.5,-277 1339.6295,-268.6416 1337.8913,-255.5163 1357.5,-246 1420.3905,-215.4787 1501.7147,-202.7792 1549.1945,-197.6938"/><polygon fill="#191970" stroke="#191970" points="1549.766 -201.154 1559.364 -196.666 1549.063 -194.189 1549.766 -201.154"/></g><g id="edge50" class="edge"><title>Node45-&gt;Node7</title><path fill="none" stroke="#191970" d="M768.3936,-318.9572C697.4696,-305.7957 578.3842,-283.0127 570.5,-277 549.9998,-261.3661 538.7,-232.9327 533.1197,-213.8785"/><polygon fill="#191970" stroke="#191970" points="536.485 -212.916 530.527 -204.155 529.722 -214.719 536.485 -212.916"/></g><g id="edge51" class="edge"><title>Node45-&gt;Node12</title><path fill="none" stroke="#191970" d="M796.4297,-318.9005C767.487,-307.3579 718.7379,-287.9163 686.0983,-274.8993"/><polygon fill="#191970" stroke="#191970" points="687.111 -271.535 676.526 -271.082 684.518 -278.037 687.111 -271.535"/></g><g id="edge49" class="edge"><title>Node45-&gt;Node21</title><path fill="none" stroke="#191970" d="M746.9325,-318.9622C729.7414,-316.8688 711.4905,-314.7556 694.5,-313 599.118,-303.1443 351.3104,-317.7285 264.5,-277 201.515,-247.4496 150.6385,-178.6887 128.8996,-145.7398"/><polygon fill="#191970" stroke="#191970" points="131.69 -143.609 123.33 -137.101 125.807 -147.403 131.69 -143.609"/></g><g id="edge52" class="edge"><title>Node45-&gt;Node46</title><path fill="none" stroke="#191970" d="M823.3655,-318.9005C826.3061,-309.0495 830.9642,-293.4451 834.6817,-280.9912"/><polygon fill="#191970" stroke="#191970" points="838.133 -281.665 837.64 -271.082 831.426 -279.663 838.133 -281.665"/></g><g id="node33" class="node"><title>Node47</title><g id="a_node33"><a target="_top" xlink:href="fatal_8h.html" xlink:title="mir/fatal.h"><polygon fill="#fff" stroke="#000" points="991.5 -185 991.5 -204 1059.5 -204 1059.5 -185 991.5 -185"/><text x="1025.5" y="-192" fill="#000" font-family="Arial" font-size="10" text-anchor="middle">mir/fatal.h</text></a></g></g><g id="edge53" class="edge"><title>Node46-&gt;Node47</title><path fill="none" stroke="#191970" d="M867.006,-251.9005C899.1522,-240.2584 953.4866,-220.5805 989.4275,-207.5641"/><polygon fill="#191970" stroke="#191970" points="990.833 -210.778 999.043 -204.082 988.449 -204.196 990.833 -210.778"/></g><g id="node34" class="node"><title>Node48</title><polygon fill="#fff" stroke="#bfbfbf" points="928 -185 928 -204 973 -204 973 -185 928 -185"/><text x="950.5" y="-192" fill="#000" font-family="Arial" font-size="10" text-anchor="middle">utility</text></g><g id="edge54" class="edge"><title>Node46-&gt;Node48</title><path fill="none" stroke="#191970" d="M856.2603,-251.9005C874.4757,-240.8057 904.673,-222.4128 925.9677,-209.4424"/><polygon fill="#191970" stroke="#191970" points="928.049 -212.273 934.769 -204.082 924.408 -206.294 928.049 -212.273"/></g><g id="edge65" class="edge"><title>Node52-&gt;Node4</title><path fill="none" stroke="#191970" d="M1730.7162,-251.9005C1702.1181,-240.3579 1653.9494,-220.9163 1621.6983,-207.8993"/><polygon fill="#191970" stroke="#191970" points="1622.823 -204.579 1612.24 -204.082 1620.203 -211.07 1622.823 -204.579"/></g><g id="edge64" class="edge"><title>Node52-&gt;Node16</title><path fill="none" stroke="#191970" d="M1711.9715,-258.5999C1601.0652,-250.859 1304.9523,-229.0049 1208.5,-210 1204.0908,-209.1312 1199.5191,-208.0343 1195.0054,-206.827"/><polygon fill="#191970" stroke="#191970" points="1195.879 -203.436 1185.302 -204.054 1193.955 -210.167 1195.879 -203.436"/></g><g id="edge63" class="edge"><title>Node52-&gt;Node50</title><path fill="none" stroke="#191970" d="M1797.0826,-254.1913C1812.35,-251.5856 1829.6932,-248.6424 1845.5,-246 1942.5897,-229.7696 2056.6518,-211.1821 2117.0187,-201.3825"/><polygon fill="#191970" stroke="#191970" points="2117.633 -204.829 2126.943 -199.772 2116.511 -197.919 2117.633 -204.829"/></g><g id="edge69" class="edge"><title>Node53-&gt;Node4</title><path fill="none" stroke="#191970" d="M2329.4668,-253.6923C2302.45,-251.1536 2272.185,-248.3791 2244.5,-246 2010.625,-225.9019 1729.5638,-204.8886 1627.7374,-197.3774"/><polygon fill="#191970" stroke="#191970" points="1627.84 -193.876 1617.61 -196.631 1627.326 -200.857 1627.84 -193.876"/></g><g id="edge68" class="edge"><title>Node53-&gt;Node50</title><path fill="none" stroke="#191970" d="M2374.8044,-251.9717C2329.3158,-239.8293 2250.772,-218.8634 2202.1713,-205.8904"/><polygon fill="#191970" stroke="#191970" points="2202.842 -202.447 2192.278 -203.249 2201.037 -209.21 2202.842 -202.447"/></g><g id="node39" class="node"><title>Node54</title><polygon fill="#fff" stroke="#bfbfbf" points="2374.5 -185 2374.5 -204 2446.5 -204 2446.5 -185 2374.5 -185"/><text x="2410.5" y="-192" fill="#000" font-family="Arial" font-size="10" text-anchor="middle">sys/types.h</text></g><g id="edge67" class="edge"><title>Node53-&gt;Node54</title><path fill="none" stroke="#191970" d="M2410.5,-251.9005C2410.5,-242.149 2410.5,-226.7597 2410.5,-214.3695"/><polygon fill="#191970" stroke="#191970" points="2414 -214.082 2410.5 -204.082 2407 -214.082 2414 -214.082"/></g><g id="edge71" class="edge"><title>Node55-&gt;Node4</title><path fill="none" stroke="#191970" d="M1253.9633,-251.9717C1333.7747,-238.2605 1479.0758,-213.2985 1548.9268,-201.2985"/><polygon fill="#191970" stroke="#191970" points="1549.806 -204.699 1559.069 -199.556 1548.62 -197.8 1549.806 -204.699"/></g><g id="edge73" class="edge"><title>Node55-&gt;Node15</title><path fill="none" stroke="#191970" d="M1145.0358,-251.9946C1067.0587,-238.0787 930.1834,-213.4319 919.5,-210 917.6469,-209.4047 915.7628,-208.7288 913.882,-208.0002"/><polygon fill="#191970" stroke="#191970" points="915.233 -204.771 904.663 -204.048 912.475 -211.205 915.233 -204.771"/></g><g id="edge72" class="edge"><title>Node55-&gt;Node42</title><path fill="none" stroke="#191970" d="M1204.3743,-251.9005C1210.5852,-241.751 1220.5335,-225.4941 1228.2599,-212.8679"/><polygon fill="#191970" stroke="#191970" points="1231.402 -214.438 1233.637 -204.082 1225.431 -210.784 1231.402 -214.438"/></g><g id="edge79" class="edge"><title>Node56-&gt;Node4</title><path fill="none" stroke="#191970" d="M1839.2747,-313.2553C1835.7227,-294.5658 1826.9543,-263.2556 1806.5,-246 1779.7621,-223.4434 1682.9421,-207.1563 1627.746,-199.4668"/><polygon fill="#191970" stroke="#191970" points="1628.004 -195.97 1617.623 -198.088 1627.059 -202.905 1628.004 -195.97"/></g><g id="edge80" class="edge"><title>Node56-&gt;Node42</title><path fill="none" stroke="#191970" d="M1785.8535,-313.4753C1720.6208,-296.1117 1609.1289,-267.2101 1512.5,-246 1425.8558,-226.9816 1322.8006,-208.7087 1271.6353,-199.9263"/><polygon fill="#191970" stroke="#191970" points="1271.976 -196.434 1261.529 -198.199 1270.797 -203.334 1271.976 -196.434"/></g><g id="edge75" class="edge"><title>Node56-&gt;Node46</title><path fill="none" stroke="#191970" d="M1782.9835,-325.9376C1644.2167,-319.6528 1284.3495,-302.1331 984.5,-277 959.9446,-274.9418 933.0869,-272.1879 909.288,-269.5727"/><polygon fill="#191970" stroke="#191970" points="909.617 -266.088 899.291 -268.463 908.844 -273.045 909.617 -266.088"/></g><g id="edge78" class="edge"><title>Node56-&gt;Node50</title><path fill="none" stroke="#191970" d="M1900.1599,-315.8891C1948.4899,-304.972 2012.7893,-289.0816 2036.5,-277 2055.9202,-267.1046 2056.6916,-258.5667 2074.5,-246 2093.5318,-232.57 2116.1288,-218.9828 2133.2382,-209.1389"/><polygon fill="#191970" stroke="#191970" points="2135.164 -212.07 2142.121 -204.08 2131.7 -205.987 2135.164 -212.07"/></g><g id="node42" class="node"><title>Node57</title><g id="a_node42"><a target="_top" xlink:href="lambda__as__function_8h.html" xlink:title="miral/lambda_as_function.h"><polygon fill="#fff" stroke="#000" points="2083.5 -252 2083.5 -271 2235.5 -271 2235.5 -252 2083.5 -252"/><text x="2159.5" y="-259" fill="#000" font-family="Arial" font-size="10" text-anchor="middle">miral/lambda_as_function.h</text></a></g></g><g id="edge76" class="edge"><title>Node56-&gt;Node57</title><path fill="none" stroke="#191970" d="M1900.0687,-316.0532C1904.9504,-315.0191 1909.8098,-313.9909 1914.5,-313 1979.548,-299.2576 2054.3314,-283.5513 2103.9931,-273.1342"/><polygon fill="#191970" stroke="#191970" points="2104.82 -276.537 2113.888 -271.059 2103.383 -269.686 2104.82 -276.537"/></g><g id="edge77" class="edge"><title>Node57-&gt;Node50</title><path fill="none" stroke="#191970" d="M2159.5,-251.9005C2159.5,-242.149 2159.5,-226.7597 2159.5,-214.3695"/><polygon fill="#191970" stroke="#191970" points="2163 -214.082 2159.5 -204.082 2156 -214.082 2163 -214.082"/></g><g id="edge82" class="edge"><title>Node58-&gt;Node4</title><path fill="none" stroke="#191970" d="M1475.4124,-251.9005C1497.663,-240.6067 1534.8122,-221.7506 1560.4259,-208.7497"/><polygon fill="#191970" stroke="#191970" points="1562.29 -211.729 1569.623 -204.082 1559.121 -205.487 1562.29 -211.729"/></g><g id="edge83" class="edge"><title>Node58-&gt;Node42</title><path fill="none" stroke="#191970" d="M1425.4092,-251.9005C1384.3766,-239.2315 1312.5238,-217.0465 1271.1924,-204.2852"/><polygon fill="#191970" stroke="#191970" points="1272.213 -200.937 1261.626 -201.331 1270.148 -207.626 1272.213 -200.937"/></g><g id="edge86" class="edge"><title>Node59-&gt;Node4</title><path fill="none" stroke="#191970" d="M1861.5043,-246.4639C1788.8015,-232.6256 1683.9829,-212.6743 1627.7244,-201.966"/><polygon fill="#191970" stroke="#191970" points="1628.282 -198.509 1617.803 -200.078 1626.973 -205.386 1628.282 -198.509"/></g><g id="edge85" class="edge"><title>Node59-&gt;Node50</title><path fill="none" stroke="#191970" d="M1989.6479,-246.4639C2028.4948,-234.5792 2082.0793,-218.1858 2118.6066,-207.0108"/><polygon fill="#191970" stroke="#191970" points="2119.892 -210.278 2128.43 -204.005 2117.844 -203.584 2119.892 -210.278"/></g><g id="edge100" class="edge"><title>Node60-&gt;Node4</title><path fill="none" stroke="#191970" d="M1347.4335,-441.9975C1385.8509,-418.4076 1484.8115,-353.5153 1544.5,-277 1559.9616,-257.1796 1572.818,-231.1497 1580.5632,-213.6756"/><polygon fill="#191970" stroke="#191970" points="1583.974 -214.603 1584.703 -204.033 1577.542 -211.841 1583.974 -214.603"/></g><g id="edge101" class="edge"><title>Node60-&gt;Node42</title><path fill="none" stroke="#191970" d="M1269.4422,-445.5958C1180.1333,-436.5206 1023.9982,-418.2699 1005.5,-400 956.3522,-351.4588 939.6972,-298.5782 984.5,-246 1017.1993,-207.6258 1160.5098,-225.452 1208.5,-210 1210.1145,-209.4802 1211.7492,-208.8869 1213.3803,-208.2427"/><polygon fill="#191970" stroke="#191970" points="1214.818 -211.434 1222.513 -204.152 1211.956 -205.045 1214.818 -211.434"/></g><g id="edge99" class="edge"><title>Node60-&gt;Node50</title><path fill="none" stroke="#191970" d="M1370.9511,-441.9416C1432.3692,-427.2785 1554.6886,-398.9451 1659.5,-380 1769.9671,-360.0326 1808.3495,-392.6852 1909.5,-344 1927.6321,-335.2728 1924.2629,-321.5056 1942.5,-313 2003.752,-284.4326 2199.6268,-327.54 2244.5,-277 2267.1795,-251.4564 2224.6435,-224.3282 2191.9732,-208.4254"/><polygon fill="#191970" stroke="#191970" points="2193.199 -205.134 2182.659 -204.056 2190.226 -211.472 2193.199 -205.134"/></g><g id="node46" class="node"><title>Node61</title><g id="a_node46"><a target="_top" xlink:href="connection_8h.html" xlink:title="mir/client/connection.h"><polygon fill="#fff" stroke="#000" points="771.5 -380.5 771.5 -399.5 899.5 -399.5 899.5 -380.5 771.5 -380.5"/><text x="835.5" y="-387.5" fill="#000" font-family="Arial" font-size="10" text-anchor="middle">mir/client/connection.h</text></a></g></g><g id="edge88" class="edge"><title>Node60-&gt;Node61</title><path fill="none" stroke="#191970" d="M1269.1682,-443.9175C1187.4731,-433.9571 1039.7322,-415.868 913.5,-400 912.2428,-399.842 910.9742,-399.6822 909.6967,-399.5212"/><polygon fill="#191970" stroke="#191970" points="910.13 -396.048 899.77 -398.265 909.251 -402.993 910.13 -396.048"/></g><g id="edge98" class="edge"><title>Node61-&gt;Node4</title><path fill="none" stroke="#191970" d="M899.6006,-381.7457C1058.0045,-361.0029 1458.9848,-306.267 1512.5,-277 1540.6917,-261.5822 1564.1145,-231.7667 1577.2044,-212.5179"/><polygon fill="#191970" stroke="#191970" points="1580.216 -214.308 1582.776 -204.027 1574.364 -210.468 1580.216 -214.308"/></g><g id="node47" class="node"><title>Node62</title><g id="a_node47"><a target="_top" xlink:href="mir__connection_8h.html" xlink:title="mir_toolkit/mir_connection.h"><polygon fill="#fff" stroke="#000" points="42 -319 42 -338 199 -338 199 -319 42 -319"/><text x="120.5" y="-326" fill="#000" font-family="Arial" font-size="10" text-anchor="middle">mir_toolkit/mir_connection.h</text></a></g></g><g id="edge89" class="edge"><title>Node61-&gt;Node62</title><path fill="none" stroke="#191970" d="M771.4193,-384.4882C643.3832,-373.4753 355.7097,-348.7313 209.4775,-336.1533"/><polygon fill="#191970" stroke="#191970" points="209.461 -332.639 199.197 -335.269 208.861 -339.613 209.461 -332.639"/></g><g id="edge95" class="edge"><title>Node62-&gt;Node21</title><path fill="none" stroke="#191970" d="M102.8709,-318.8731C88.7442,-310.0568 69.9385,-295.5669 61.5,-277 40.2988,-230.3519 78.9247,-173.1111 102.0243,-144.9053"/><polygon fill="#191970" stroke="#191970" points="104.819 -147.021 108.611 -137.128 99.478 -142.497 104.819 -147.021"/></g><g id="edge96" class="edge"><title>Node62-&gt;Node22</title><path fill="none" stroke="#191970" d="M99.1158,-318.9732C82.7877,-310.4713 61.3116,-296.3648 50.5,-277 14.672,-212.8281 16.9988,-181.967 39.5,-112 42.8946,-101.4445 49.7058,-91.2592 56.2631,-83.1676"/><polygon fill="#191970" stroke="#191970" points="58.947 -85.415 62.851 -75.565 53.657 -80.831 58.947 -85.415"/></g><g id="edge97" class="edge"><title>Node62-&gt;Node25</title><path fill="none" stroke="#191970" d="M199.3148,-321.4866C268.5791,-313.9277 362.8264,-299.8103 392.5,-277 430.7979,-247.5602 412.7486,-219.2218 439.5,-179 451.3552,-161.1752 463.8923,-163.0098 471.5,-143 476.3964,-130.1216 475.8112,-125.0859 471.5,-112 467.9944,-101.3594 460.9759,-91.164 454.2213,-83.0877"/><polygon fill="#191970" stroke="#191970" points="456.714 -80.625 447.436 -75.509 451.499 -85.294 456.714 -80.625"/></g><g id="node48" class="node"><title>Node63</title><g id="a_node48"><a target="_top" xlink:href="client__types_8h.html" xlink:title="mir_toolkit/client\l_types.h"><polygon fill="#fff" stroke="#000" points="70.5 -246.5 70.5 -276.5 170.5 -276.5 170.5 -246.5 70.5 -246.5"/><text x="78.5" y="-264.5" fill="#000" font-family="Arial" font-size="10" text-anchor="start">mir_toolkit/client</text><text x="120.5" y="-253.5" fill="#000" font-family="Arial" font-size="10" text-anchor="middle">_types.h</text></a></g></g><g id="edge90" class="edge"><title>Node62-&gt;Node63</title><path fill="none" stroke="#191970" d="M120.5,-318.9005C120.5,-310.5099 120.5,-297.9451 120.5,-286.7085"/><polygon fill="#191970" stroke="#191970" points="124 -286.522 120.5 -276.522 117 -286.522 124 -286.522"/></g><g id="edge91" class="edge"><title>Node63-&gt;Node18</title><path fill="none" stroke="#191970" d="M165.3839,-246.4639C195.13,-236.499 234.3381,-223.3642 265.8923,-212.7936"/><polygon fill="#191970" stroke="#191970" points="267.05 -216.097 275.42 -209.602 264.827 -209.459 267.05 -216.097"/></g><g id="edge94" class="edge"><title>Node63-&gt;Node19</title><path fill="none" stroke="#191970" d="M132.4535,-246.389C152.2033,-221.4222 191.5466,-171.6864 212.5411,-145.1462"/><polygon fill="#191970" stroke="#191970" points="215.444 -147.118 218.903 -137.104 209.954 -142.776 215.444 -147.118"/></g><g id="edge92" class="edge"><title>Node63-&gt;Node21</title><path fill="none" stroke="#191970" d="M120.1617,-246.389C119.6173,-222.0735 118.547,-174.2644 117.9426,-147.2698"/><polygon fill="#191970" stroke="#191970" points="121.438 -147.023 117.715 -137.104 114.44 -147.18 121.438 -147.023"/></g><g id="edge93" class="edge"><title>Node63-&gt;Node22</title><path fill="none" stroke="#191970" d="M107.0873,-246.4009C89.1749,-225.1192 58.3275,-184.2696 46.5,-143 42.7042,-129.7554 42.995,-125.3245 46.5,-112 49.1112,-102.0734 54.4067,-92.0366 59.5412,-83.8822"/><polygon fill="#191970" stroke="#191970" points="62.446 -85.834 65.118 -75.582 56.636 -81.93 62.446 -85.834"/></g></g></svg>