<svg xmlns="http://www.w3.org/2000/svg" xmlns:xlink="http://www.w3.org/1999/xlink" width="2218pt" height="508pt" viewBox="0 0 2218.31 508"><g id="graph0" class="graph" transform="scale(1 1) rotate(0) translate(4 504)"><title>include/client/mir_toolkit/extensions/mesa_drm_auth.h</title><polygon fill="#fff" stroke="transparent" points="-4 4 -4 -504 2214.306 -504 2214.306 4 -4 4"/><g id="node1" class="node"><title>Node0</title><polygon fill="#bfbfbf" stroke="#000" points="1161.373 -458.5 1161.373 -499.5 1271.373 -499.5 1271.373 -458.5 1161.373 -458.5"/><text x="1169.373" y="-487.5" fill="#000" font-family="Arial" font-size="10" text-anchor="start">include/client/mir</text><text x="1169.373" y="-476.5" fill="#000" font-family="Arial" font-size="10" text-anchor="start">_toolkit/extensions</text><text x="1216.373" y="-465.5" fill="#000" font-family="Arial" font-size="10" text-anchor="middle">/mesa_drm_auth.h</text></g><g id="node2" class="node"><title>Node1</title><g id="a_node2"><a target="_top" xlink:href="mir__extension__core_8h.html" xlink:title="mir_toolkit/mir_extension\l_core.h"><polygon fill="#fff" stroke="#000" points="1144.873 -391.5 1144.873 -421.5 1287.873 -421.5 1287.873 -391.5 1144.873 -391.5"/><text x="1152.873" y="-409.5" fill="#000" font-family="Arial" font-size="10" text-anchor="start">mir_toolkit/mir_extension</text><text x="1216.373" y="-398.5" fill="#000" font-family="Arial" font-size="10" text-anchor="middle">_core.h</text></a></g></g><g id="edge1" class="edge"><title>Node0-&gt;Node1</title><path fill="none" stroke="#191970" d="M1216.373,-458.4183C1216.373,-450.0849 1216.373,-440.3834 1216.373,-431.6373"/><polygon fill="#191970" stroke="#191970" points="1219.873 -431.599 1216.373 -421.599 1212.873 -431.599 1219.873 -431.599"/></g><g id="node3" class="node"><title>Node2</title><g id="a_node3"><a target="_top" xlink:href="mir__connection_8h.html" xlink:title="mir_toolkit/mir_connection.h"><polygon fill="#fff" stroke="#000" points="1137.873 -335.5 1137.873 -354.5 1294.873 -354.5 1294.873 -335.5 1137.873 -335.5"/><text x="1216.373" y="-342.5" fill="#000" font-family="Arial" font-size="10" text-anchor="middle">mir_toolkit/mir_connection.h</text></a></g></g><g id="edge2" class="edge"><title>Node1-&gt;Node2</title><path fill="none" stroke="#191970" d="M1216.373,-391.2977C1216.373,-383.3834 1216.373,-373.6043 1216.373,-365.0759"/><polygon fill="#191970" stroke="#191970" points="1219.873 -364.847 1216.373 -354.847 1212.873 -364.847 1219.873 -364.847"/></g><g id="node4" class="node"><title>Node3</title><g id="a_node4"><a target="_top" xlink:href="client__types_8h.html" xlink:title="mir_toolkit/client\l_types.h"><polygon fill="#fff" stroke="#000" points="109.373 -268.5 109.373 -298.5 209.373 -298.5 209.373 -268.5 109.373 -268.5"/><text x="117.373" y="-286.5" fill="#000" font-family="Arial" font-size="10" text-anchor="start">mir_toolkit/client</text><text x="159.373" y="-275.5" fill="#000" font-family="Arial" font-size="10" text-anchor="middle">_types.h</text></a></g></g><g id="edge3" class="edge"><title>Node2-&gt;Node3</title><path fill="none" stroke="#191970" d="M1137.7897,-340.4277C935.508,-328.6583 400.1283,-297.508 219.7069,-287.0104"/><polygon fill="#191970" stroke="#191970" points="219.792 -283.51 209.606 -286.423 219.386 -290.498 219.792 -283.51"/></g><g id="node8" class="node"><title>Node7</title><g id="a_node8"><a target="_top" xlink:href="common_8h.html" xlink:title="mir_toolkit/common.h"><polygon fill="#fff" stroke="#000" points="96.873 -134.5 96.873 -153.5 221.873 -153.5 221.873 -134.5 96.873 -134.5"/><text x="159.373" y="-141.5" fill="#000" font-family="Arial" font-size="10" text-anchor="middle">mir_toolkit/common.h</text></a></g></g><g id="edge48" class="edge"><title>Node2-&gt;Node7</title><path fill="none" stroke="#191970" d="M1151.3557,-335.4943C992.9363,-311.8188 574.7893,-246.2315 231.373,-165 220.9064,-162.5242 209.6982,-159.4598 199.3166,-156.4444"/><polygon fill="#191970" stroke="#191970" points="200.25 -153.071 189.668 -153.589 198.263 -159.783 200.25 -153.071"/></g><g id="node9" class="node"><title>Node8</title><g id="a_node9"><a target="_top" xlink:href="deprecations_8h.html" xlink:title="mir_toolkit/deprecations.h"><polygon fill="#fff" stroke="#000" points="797.873 -62 797.873 -81 942.873 -81 942.873 -62 797.873 -62"/><text x="870.373" y="-69" fill="#000" font-family="Arial" font-size="10" text-anchor="middle">mir_toolkit/deprecations.h</text></a></g></g><g id="edge49" class="edge"><title>Node2-&gt;Node8</title><path fill="none" stroke="#191970" d="M1277.7594,-335.4685C1416.8579,-311.5285 1735.6308,-242.1162 1624.373,-123 1601.7302,-98.7579 1144.2195,-80.6751 953.1205,-74.151"/><polygon fill="#191970" stroke="#191970" points="953.236 -70.653 943.123 -73.812 952.998 -77.649 953.236 -70.653"/></g><g id="node12" class="node"><title>Node11</title><polygon fill="#fff" stroke="#bfbfbf" points="2088.373 -.5 2088.373 -19.5 2150.373 -19.5 2150.373 -.5 2088.373 -.5"/><text x="2119.373" y="-7.5" fill="#000" font-family="Arial" font-size="10" text-anchor="middle">stdbool.h</text></g><g id="edge50" class="edge"><title>Node2-&gt;Node11</title><path fill="none" stroke="#191970" d="M1295.122,-343.0577C1529.9877,-336.2291 2209.373,-308.523 2209.373,-216.5 2209.373,-216.5 2209.373,-216.5 2209.373,-144 2209.373,-103.9877 2213.1067,-88.9267 2190.373,-56 2180.9485,-42.3499 2166.0212,-31.7909 2152.2805,-24.2523"/><polygon fill="#191970" stroke="#191970" points="2153.535 -20.962 2143.039 -19.515 2150.342 -27.192 2153.535 -20.962"/></g><g id="node5" class="node"><title>Node4</title><g id="a_node5"><a target="_top" xlink:href="toolkit_2events_2event_8h.html" xlink:title="mir_toolkit/events\l/event.h"><polygon fill="#fff" stroke="#000" points="817.373 -201.5 817.373 -231.5 923.373 -231.5 923.373 -201.5 817.373 -201.5"/><text x="825.373" y="-219.5" fill="#000" font-family="Arial" font-size="10" text-anchor="start">mir_toolkit/events</text><text x="870.373" y="-208.5" fill="#000" font-family="Arial" font-size="10" text-anchor="middle">/event.h</text></a></g></g><g id="edge4" class="edge"><title>Node3-&gt;Node4</title><path fill="none" stroke="#191970" d="M209.6524,-278.762C336.1644,-266.8403 667.5165,-235.6159 807.0193,-222.47"/><polygon fill="#191970" stroke="#191970" points="807.498 -225.94 817.126 -221.518 806.842 -218.971 807.498 -225.94"/></g><g id="node6" class="node"><title>Node5</title><polygon fill="#fff" stroke="#bfbfbf" points="22.373 -134.5 22.373 -153.5 78.373 -153.5 78.373 -134.5 22.373 -134.5"/><text x="50.373" y="-141.5" fill="#000" font-family="Arial" font-size="10" text-anchor="middle">stddef.h</text></g><g id="edge47" class="edge"><title>Node3-&gt;Node5</title><path fill="none" stroke="#191970" d="M147.5006,-268.3055C127.187,-242.3078 85.8677,-189.4267 64.2542,-161.7654"/><polygon fill="#191970" stroke="#191970" points="66.896 -159.462 57.981 -153.737 61.38 -163.771 66.896 -159.462"/></g><g id="edge45" class="edge"><title>Node3-&gt;Node7</title><path fill="none" stroke="#191970" d="M159.373,-268.3055C159.373,-242.9831 159.373,-192.1556 159.373,-163.9709"/><polygon fill="#191970" stroke="#191970" points="162.873 -163.737 159.373 -153.737 155.873 -163.737 162.873 -163.737"/></g><g id="edge46" class="edge"><title>Node3-&gt;Node8</title><path fill="none" stroke="#191970" d="M127.2637,-268.2941C70.7065,-239.6072 -36.2099,-175.652 13.373,-123 39.6705,-95.0748 577.9413,-78.7572 787.707,-73.438"/><polygon fill="#191970" stroke="#191970" points="787.836 -76.936 797.745 -73.186 787.66 -69.938 787.836 -76.936"/></g><g id="edge5" class="edge"><title>Node4-&gt;Node5</title><path fill="none" stroke="#191970" d="M817.1616,-216.0868C664.0318,-214.4116 224.4853,-206.0586 87.373,-165 82.4156,-163.5155 77.4003,-161.2706 72.7302,-158.7928"/><polygon fill="#191970" stroke="#191970" points="74.157 -155.573 63.758 -153.548 70.625 -161.616 74.157 -155.573"/></g><g id="node7" class="node"><title>Node6</title><polygon fill="#fff" stroke="#bfbfbf" points="1692.873 -.5 1692.873 -19.5 1745.873 -19.5 1745.873 -.5 1692.873 -.5"/><text x="1719.373" y="-7.5" fill="#000" font-family="Arial" font-size="10" text-anchor="middle">stdint.h</text></g><g id="edge6" class="edge"><title>Node4-&gt;Node6</title><path fill="none" stroke="#191970" d="M923.407,-215.6671C1085.1474,-212.7432 1564.7866,-201.089 1624.373,-165 1675.5292,-134.0168 1703.004,-63.9766 1713.827,-29.6754"/><polygon fill="#191970" stroke="#191970" points="1717.242 -30.473 1716.765 -19.889 1710.537 -28.461 1717.242 -30.473"/></g><g id="edge7" class="edge"><title>Node4-&gt;Node7</title><path fill="none" stroke="#191970" d="M817.2702,-213.6154C684.9997,-206.2059 343.4294,-185.6349 231.373,-165 220.0001,-162.9057 207.8526,-159.7371 196.8368,-156.4915"/><polygon fill="#191970" stroke="#191970" points="197.679 -153.089 187.093 -153.518 195.636 -159.785 197.679 -153.089"/></g><g id="edge9" class="edge"><title>Node4-&gt;Node8</title><path fill="none" stroke="#191970" d="M817.2119,-214.6856C698.753,-210.0956 421.3007,-196.1053 393.373,-165 380.9022,-151.1103 380.9022,-136.8897 393.373,-123 419.1421,-94.2989 657.3541,-80.1693 787.0833,-74.5508"/><polygon fill="#191970" stroke="#191970" points="787.536 -78.035 797.378 -74.113 787.238 -71.041 787.536 -78.035"/></g><g id="node10" class="node"><title>Node9</title><g id="a_node10"><a target="_top" xlink:href="input__event_8h.html" xlink:title="mir_toolkit/events\l/input/input_event.h"><polygon fill="#fff" stroke="#000" points="1730.373 -129 1730.373 -159 1844.373 -159 1844.373 -129 1730.373 -129"/><text x="1738.373" y="-147" fill="#000" font-family="Arial" font-size="10" text-anchor="start">mir_toolkit/events</text><text x="1787.373" y="-136" fill="#000" font-family="Arial" font-size="10" text-anchor="middle">/input/input_event.h</text></a></g></g><g id="edge10" class="edge"><title>Node4-&gt;Node9</title><path fill="none" stroke="#191970" d="M923.6296,-214.1336C1080.357,-207.2685 1537.6797,-186.4669 1686.373,-165 1697.4093,-163.4067 1709.0803,-161.1762 1720.4376,-158.7599"/><polygon fill="#191970" stroke="#191970" points="1721.292 -162.156 1730.314 -156.6 1719.797 -155.317 1721.292 -162.156"/></g><g id="node17" class="node"><title>Node16</title><g id="a_node17"><a target="_top" xlink:href="resize__event_8h.html" xlink:title="mir_toolkit/events\l/resize_event.h"><polygon fill="#fff" stroke="#000" points="240.373 -129 240.373 -159 346.373 -159 346.373 -129 240.373 -129"/><text x="248.373" y="-147" fill="#000" font-family="Arial" font-size="10" text-anchor="start">mir_toolkit/events</text><text x="293.373" y="-136" fill="#000" font-family="Arial" font-size="10" text-anchor="middle">/resize_event.h</text></a></g></g><g id="edge21" class="edge"><title>Node4-&gt;Node16</title><path fill="none" stroke="#191970" d="M817.2371,-214.9012C722.4692,-211.1553 518.9749,-199.3564 351.373,-165 346.9546,-164.0943 342.4138,-163.0117 337.9055,-161.8223"/><polygon fill="#191970" stroke="#191970" points="338.722 -158.416 328.148 -159.075 336.825 -165.154 338.722 -158.416"/></g><g id="node18" class="node"><title>Node17</title><g id="a_node18"><a target="_top" xlink:href="surface__event_8h.html" xlink:title="mir_toolkit/events\l/surface_event.h"><polygon fill="#fff" stroke="#000" points="817.373 -129 817.373 -159 923.373 -159 923.373 -129 817.373 -129"/><text x="825.373" y="-147" fill="#000" font-family="Arial" font-size="10" text-anchor="start">mir_toolkit/events</text><text x="870.373" y="-136" fill="#000" font-family="Arial" font-size="10" text-anchor="middle">/surface_event.h</text></a></g></g><g id="edge23" class="edge"><title>Node4-&gt;Node17</title><path fill="none" stroke="#191970" d="M864.7803,-201.478C863.6224,-192.1459 863.3334,-179.9157 863.9132,-169.1368"/><polygon fill="#191970" stroke="#191970" points="867.415 -169.265 864.783 -159.003 860.441 -168.667 867.415 -169.265"/></g><g id="node19" class="node"><title>Node18</title><g id="a_node19"><a target="_top" xlink:href="window__event_8h.html" xlink:title="mir_toolkit/events\l/window_event.h"><polygon fill="#fff" stroke="#000" points="402.373 -129 402.373 -159 508.373 -159 508.373 -129 402.373 -129"/><text x="410.373" y="-147" fill="#000" font-family="Arial" font-size="10" text-anchor="start">mir_toolkit/events</text><text x="455.373" y="-136" fill="#000" font-family="Arial" font-size="10" text-anchor="middle">/window_event.h</text></a></g></g><g id="edge26" class="edge"><title>Node4-&gt;Node18</title><path fill="none" stroke="#191970" d="M817.2617,-212.2684C746.168,-205.5677 616.926,-190.5817 509.373,-165 505.6786,-164.1213 501.892,-163.1211 498.1173,-162.0451"/><polygon fill="#191970" stroke="#191970" points="498.809 -158.598 488.224 -159.052 496.782 -165.298 498.809 -158.598"/></g><g id="node20" class="node"><title>Node19</title><g id="a_node20"><a target="_top" xlink:href="orientation__event_8h.html" xlink:title="mir_toolkit/events\l/orientation_event.h"><polygon fill="#fff" stroke="#000" points="526.873 -129 526.873 -159 641.873 -159 641.873 -129 526.873 -129"/><text x="534.873" y="-147" fill="#000" font-family="Arial" font-size="10" text-anchor="start">mir_toolkit/events</text><text x="584.373" y="-136" fill="#000" font-family="Arial" font-size="10" text-anchor="middle">/orientation_event.h</text></a></g></g><g id="edge28" class="edge"><title>Node4-&gt;Node19</title><path fill="none" stroke="#191970" d="M817.0597,-206.6192C770.485,-196.8992 701.5155,-181.1995 642.373,-165 638.8129,-164.0249 635.1575,-162.9866 631.4942,-161.9138"/><polygon fill="#191970" stroke="#191970" points="632.423 -158.538 621.838 -159.013 630.409 -165.242 632.423 -158.538"/></g><g id="node21" class="node"><title>Node20</title><g id="a_node21"><a target="_top" xlink:href="prompt__session__event_8h.html" xlink:title="mir_toolkit/events\l/prompt_session_event.h"><polygon fill="#fff" stroke="#000" points="659.873 -129 659.873 -159 798.873 -159 798.873 -129 659.873 -129"/><text x="667.873" y="-147" fill="#000" font-family="Arial" font-size="10" text-anchor="start">mir_toolkit/events</text><text x="729.373" y="-136" fill="#000" font-family="Arial" font-size="10" text-anchor="middle">/prompt_session_event.h</text></a></g></g><g id="edge30" class="edge"><title>Node4-&gt;Node20</title><path fill="none" stroke="#191970" d="M835.565,-201.478C813.0399,-190.5905 784.026,-175.7585 761.9552,-163.8885"/><polygon fill="#191970" stroke="#191970" points="763.418 -160.7 752.961 -159.003 760.077 -166.851 763.418 -160.7"/></g><g id="node22" class="node"><title>Node21</title><g id="a_node22"><a target="_top" xlink:href="keymap__event_8h.html" xlink:title="mir_toolkit/events\l/keymap_event.h"><polygon fill="#fff" stroke="#000" points="1509.373 -129 1509.373 -159 1615.373 -159 1615.373 -129 1509.373 -129"/><text x="1517.373" y="-147" fill="#000" font-family="Arial" font-size="10" text-anchor="start">mir_toolkit/events</text><text x="1562.373" y="-136" fill="#000" font-family="Arial" font-size="10" text-anchor="middle">/keymap_event.h</text></a></g></g><g id="edge32" class="edge"><title>Node4-&gt;Node21</title><path fill="none" stroke="#191970" d="M923.5756,-213.5906C1053.3335,-206.5412 1382.8357,-187.4622 1491.373,-165 1495.5045,-164.145 1499.7417,-163.0963 1503.9943,-161.9281"/><polygon fill="#191970" stroke="#191970" points="1505.293 -165.195 1513.903 -159.02 1503.322 -158.478 1505.293 -165.195"/></g><g id="node23" class="node"><title>Node22</title><g id="a_node23"><a target="_top" xlink:href="input__configuration__event_8h.html" xlink:title="mir_toolkit/events\l/input_configuration\l_event.h"><polygon fill="#fff" stroke="#000" points="1225.873 -123.5 1225.873 -164.5 1338.873 -164.5 1338.873 -123.5 1225.873 -123.5"/><text x="1233.873" y="-152.5" fill="#000" font-family="Arial" font-size="10" text-anchor="start">mir_toolkit/events</text><text x="1233.873" y="-141.5" fill="#000" font-family="Arial" font-size="10" text-anchor="start">/input_configuration</text><text x="1282.373" y="-130.5" fill="#000" font-family="Arial" font-size="10" text-anchor="middle">_event.h</text></a></g></g><g id="edge35" class="edge"><title>Node4-&gt;Node22</title><path fill="none" stroke="#191970" d="M923.5282,-210.5653C990.3835,-202.9829 1108.1308,-188.0178 1207.373,-165 1210.1732,-164.3505 1213.026,-163.6392 1215.9045,-162.8833"/><polygon fill="#191970" stroke="#191970" points="1217.042 -166.2 1225.751 -160.166 1215.18 -159.452 1217.042 -166.2"/></g><g id="node24" class="node"><title>Node23</title><g id="a_node24"><a target="_top" xlink:href="surface__output__event_8h.html" xlink:title="mir_toolkit/events\l/surface_output_event.h"><polygon fill="#fff" stroke="#000" points="1357.373 -129 1357.373 -159 1491.373 -159 1491.373 -129 1357.373 -129"/><text x="1365.373" y="-147" fill="#000" font-family="Arial" font-size="10" text-anchor="start">mir_toolkit/events</text><text x="1424.373" y="-136" fill="#000" font-family="Arial" font-size="10" text-anchor="middle">/surface_output_event.h</text></a></g></g><g id="edge38" class="edge"><title>Node4-&gt;Node23</title><path fill="none" stroke="#191970" d="M923.572,-213.2357C1011.0183,-207.5213 1189.9489,-193.4983 1339.373,-165 1344.6675,-163.9902 1350.1314,-162.7943 1355.6198,-161.4933"/><polygon fill="#191970" stroke="#191970" points="1356.625 -164.85 1365.495 -159.056 1354.947 -158.054 1356.625 -164.85"/></g><g id="node25" class="node"><title>Node24</title><g id="a_node25"><a target="_top" xlink:href="window__output__event_8h.html" xlink:title="mir_toolkit/events\l/window_output_event.h"><polygon fill="#fff" stroke="#000" points="941.373 -129 941.373 -159 1077.373 -159 1077.373 -129 941.373 -129"/><text x="949.373" y="-147" fill="#000" font-family="Arial" font-size="10" text-anchor="start">mir_toolkit/events</text><text x="1009.373" y="-136" fill="#000" font-family="Arial" font-size="10" text-anchor="middle">/window_output_event.h</text></a></g></g><g id="edge41" class="edge"><title>Node4-&gt;Node24</title><path fill="none" stroke="#191970" d="M893.5811,-201.478C913.2785,-190.4933 941.8779,-175.4933 965.7802,-163.5712"/><polygon fill="#191970" stroke="#191970" points="967.606 -166.573 975.019 -159.003 964.503 -160.298 967.606 -166.573"/></g><g id="node26" class="node"><title>Node25</title><g id="a_node26"><a target="_top" xlink:href="input__device__state__event_8h.html" xlink:title="mir_toolkit/events\l/input_device_state\l_event.h"><polygon fill="#fff" stroke="#000" points="1095.373 -123.5 1095.373 -164.5 1207.373 -164.5 1207.373 -123.5 1095.373 -123.5"/><text x="1103.373" y="-152.5" fill="#000" font-family="Arial" font-size="10" text-anchor="start">mir_toolkit/events</text><text x="1103.373" y="-141.5" fill="#000" font-family="Arial" font-size="10" text-anchor="start">/input_device_state</text><text x="1151.373" y="-130.5" fill="#000" font-family="Arial" font-size="10" text-anchor="middle">_event.h</text></a></g></g><g id="edge43" class="edge"><title>Node4-&gt;Node25</title><path fill="none" stroke="#191970" d="M923.6909,-203.3327C965.6766,-193.6028 1025.4041,-179.5661 1077.373,-165 1080.1028,-164.2349 1082.8897,-163.4295 1085.7064,-162.5981"/><polygon fill="#191970" stroke="#191970" points="1086.793 -165.926 1095.359 -159.692 1084.774 -159.224 1086.793 -165.926"/></g><g id="edge8" class="edge"><title>Node7-&gt;Node8</title><path fill="none" stroke="#191970" d="M187.093,-134.482C200.3428,-130.3036 216.5186,-125.7354 231.373,-123 335.7926,-103.7714 639.5084,-84.5983 787.4492,-76.0788"/><polygon fill="#191970" stroke="#191970" points="788.044 -79.55 797.827 -75.484 787.643 -72.562 788.044 -79.55"/></g><g id="edge11" class="edge"><title>Node9-&gt;Node4</title><path fill="none" stroke="#191970" d="M1736.608,-159.0849C1726.0313,-161.3756 1714.9127,-163.4784 1704.373,-165 1556.2075,-186.3907 1101.5996,-207.1208 933.5668,-214.06"/><polygon fill="#191970" stroke="#191970" points="933.243 -210.57 923.395 -214.478 933.53 -217.564 933.243 -210.57"/></g><g id="edge14" class="edge"><title>Node9-&gt;Node6</title><path fill="none" stroke="#191970" d="M1771.4044,-128.9423C1760.8778,-118.1849 1747.5699,-102.8604 1739.373,-87 1729.9443,-68.7562 1724.7214,-45.7296 1721.9994,-29.6303"/><polygon fill="#191970" stroke="#191970" points="1725.458 -29.095 1720.494 -19.735 1718.538 -30.148 1725.458 -29.095"/></g><g id="node11" class="node"><title>Node10</title><g id="a_node11"><a target="_top" xlink:href="mir__input__device__types_8h.html" xlink:title="mir_toolkit/mir_input\l_device_types.h"><polygon fill="#fff" stroke="#000" points="1747.873 -56.5 1747.873 -86.5 1866.873 -86.5 1866.873 -56.5 1747.873 -56.5"/><text x="1755.873" y="-74.5" fill="#000" font-family="Arial" font-size="10" text-anchor="start">mir_toolkit/mir_input</text><text x="1807.373" y="-63.5" fill="#000" font-family="Arial" font-size="10" text-anchor="middle">_device_types.h</text></a></g></g><g id="edge12" class="edge"><title>Node9-&gt;Node10</title><path fill="none" stroke="#191970" d="M1791.517,-128.978C1794.1182,-119.5487 1797.5356,-107.1606 1800.5315,-96.3005"/><polygon fill="#191970" stroke="#191970" points="1803.949 -97.073 1803.234 -86.503 1797.201 -95.212 1803.949 -97.073"/></g><g id="edge15" class="edge"><title>Node9-&gt;Node11</title><path fill="none" stroke="#191970" d="M1812.8198,-128.7793C1830.9032,-117.7051 1855.5704,-102.0709 1876.373,-87 1894.0236,-74.2126 1894.7708,-65.5298 1914.373,-56 1967.4073,-30.2168 2035.2152,-18.6532 2077.9858,-13.6321"/><polygon fill="#191970" stroke="#191970" points="2078.479 -17.099 2088.032 -12.519 2077.708 -10.142 2078.479 -17.099"/></g><g id="node13" class="node"><title>Node12</title><g id="a_node13"><a target="_top" xlink:href="touch__event_8h.html" xlink:title="mir_toolkit/events\l/input/touch_event.h"><polygon fill="#fff" stroke="#000" points="1923.373 -56.5 1923.373 -86.5 2039.373 -86.5 2039.373 -56.5 1923.373 -56.5"/><text x="1931.373" y="-74.5" fill="#000" font-family="Arial" font-size="10" text-anchor="start">mir_toolkit/events</text><text x="1981.373" y="-63.5" fill="#000" font-family="Arial" font-size="10" text-anchor="middle">/input/touch_event.h</text></a></g></g><g id="edge16" class="edge"><title>Node9-&gt;Node12</title><path fill="none" stroke="#191970" d="M1827.5699,-128.978C1857.7437,-117.7017 1899.24,-102.194 1931.5261,-90.1283"/><polygon fill="#191970" stroke="#191970" points="1933.085 -93.282 1941.228 -86.503 1930.635 -86.725 1933.085 -93.282"/></g><g id="node14" class="node"><title>Node13</title><g id="a_node14"><a target="_top" xlink:href="keyboard__event_8h.html" xlink:title="mir_toolkit/events\l/input/keyboard_event.h"><polygon fill="#fff" stroke="#000" points="1517.873 -56.5 1517.873 -86.5 1652.873 -86.5 1652.873 -56.5 1517.873 -56.5"/><text x="1525.873" y="-74.5" fill="#000" font-family="Arial" font-size="10" text-anchor="start">mir_toolkit/events</text><text x="1585.373" y="-63.5" fill="#000" font-family="Arial" font-size="10" text-anchor="middle">/input/keyboard_event.h</text></a></g></g><g id="edge17" class="edge"><title>Node9-&gt;Node13</title><path fill="none" stroke="#191970" d="M1745.5185,-128.978C1713.965,-117.6531 1670.5202,-102.0603 1636.8412,-89.9725"/><polygon fill="#191970" stroke="#191970" points="1637.768 -86.587 1627.174 -86.503 1635.404 -93.175 1637.768 -86.587"/></g><g id="node16" class="node"><title>Node15</title><g id="a_node16"><a target="_top" xlink:href="pointer__event_8h.html" xlink:title="mir_toolkit/events\l/input/pointer_event.h"><polygon fill="#fff" stroke="#000" points="2057.373 -56.5 2057.373 -86.5 2181.373 -86.5 2181.373 -56.5 2057.373 -56.5"/><text x="2065.373" y="-74.5" fill="#000" font-family="Arial" font-size="10" text-anchor="start">mir_toolkit/events</text><text x="2119.373" y="-63.5" fill="#000" font-family="Arial" font-size="10" text-anchor="middle">/input/pointer_event.h</text></a></g></g><g id="edge19" class="edge"><title>Node9-&gt;Node15</title><path fill="none" stroke="#191970" d="M1844.4458,-131.5368C1900.5567,-119.2837 1986.3961,-100.5386 2047.2117,-87.2581"/><polygon fill="#191970" stroke="#191970" points="2048.104 -90.646 2057.126 -85.093 2046.61 -83.807 2048.104 -90.646"/></g><g id="edge13" class="edge"><title>Node10-&gt;Node6</title><path fill="none" stroke="#191970" d="M1785.6202,-56.2977C1772.1762,-46.9022 1754.9718,-34.8787 1741.4652,-25.4395"/><polygon fill="#191970" stroke="#191970" points="1743.402 -22.523 1733.2 -19.663 1739.392 -28.261 1743.402 -22.523"/></g><g id="node15" class="node"><title>Node14</title><polygon fill="#fff" stroke="#bfbfbf" points="1462.373 -.5 1462.373 -19.5 1612.373 -19.5 1612.373 -.5 1462.373 -.5"/><text x="1537.373" y="-7.5" fill="#000" font-family="Arial" font-size="10" text-anchor="middle">xkbcommon/xkbcommon.h</text></g><g id="edge18" class="edge"><title>Node13-&gt;Node14</title><path fill="none" stroke="#191970" d="M1573.5078,-56.2977C1566.7755,-47.672 1558.3144,-36.8312 1551.2724,-27.8087"/><polygon fill="#191970" stroke="#191970" points="1553.97 -25.577 1545.058 -19.847 1548.452 -29.884 1553.97 -25.577"/></g><g id="edge20" class="edge"><title>Node15-&gt;Node11</title><path fill="none" stroke="#191970" d="M2119.373,-56.2977C2119.373,-48.3834 2119.373,-38.6043 2119.373,-30.0759"/><polygon fill="#191970" stroke="#191970" points="2122.873 -29.847 2119.373 -19.847 2115.873 -29.847 2122.873 -29.847"/></g><g id="edge22" class="edge"><title>Node16-&gt;Node4</title><path fill="none" stroke="#191970" d="M345.8667,-159.075C353.7215,-161.3375 361.7304,-163.4334 369.373,-165 524.9844,-196.8984 711.5362,-209.3516 807.1795,-213.9683"/><polygon fill="#191970" stroke="#191970" points="807.113 -217.469 817.266 -214.442 807.442 -210.477 807.113 -217.469"/></g><g id="edge24" class="edge"><title>Node17-&gt;Node4</title><path fill="none" stroke="#191970" d="M875.9633,-159.0028C877.1224,-168.3309 877.4126,-180.5601 876.834,-191.3409"/><polygon fill="#191970" stroke="#191970" points="873.332 -191.216 875.966 -201.478 880.306 -191.813 873.332 -191.216"/></g><g id="edge25" class="edge"><title>Node17-&gt;Node8</title><path fill="none" stroke="#191970" d="M870.373,-128.978C870.373,-118.1657 870.373,-103.4631 870.373,-91.6348"/><polygon fill="#191970" stroke="#191970" points="873.873 -91.396 870.373 -81.396 866.873 -91.396 873.873 -91.396"/></g><g id="edge27" class="edge"><title>Node18-&gt;Node4</title><path fill="none" stroke="#191970" d="M505.9685,-159.0517C513.138,-161.2613 520.4189,-163.346 527.373,-165 623.8163,-187.9393 737.6994,-202.3587 807.0209,-209.9242"/><polygon fill="#191970" stroke="#191970" points="807.019 -213.444 817.336 -211.035 807.768 -206.484 807.019 -213.444"/></g><g id="edge29" class="edge"><title>Node19-&gt;Node4</title><path fill="none" stroke="#191970" d="M639.6398,-159.0129C646.6328,-161.1052 653.6716,-163.1644 660.373,-165 709.5461,-178.4688 765.5124,-191.5921 807.3659,-201.2203"/><polygon fill="#191970" stroke="#191970" points="806.619 -204.64 817.149 -203.467 808.186 -197.817 806.619 -204.64"/></g><g id="edge31" class="edge"><title>Node20-&gt;Node4</title><path fill="none" stroke="#191970" d="M764.1412,-159.0028C786.6586,-169.8856 815.6728,-184.717 837.7518,-196.5905"/><polygon fill="#191970" stroke="#191970" points="836.292 -199.781 846.75 -201.478 839.633 -193.63 836.292 -199.781"/></g><g id="edge33" class="edge"><title>Node21-&gt;Node4</title><path fill="none" stroke="#191970" d="M1531.5946,-159.0203C1524.3966,-161.3478 1516.718,-163.4799 1509.373,-165 1401.1267,-187.402 1073.0985,-206.4388 933.8512,-213.5337"/><polygon fill="#191970" stroke="#191970" points="933.569 -210.043 923.758 -214.044 933.922 -217.035 933.569 -210.043"/></g><g id="edge34" class="edge"><title>Node21-&gt;Node14</title><path fill="none" stroke="#191970" d="M1542.2481,-128.9842C1530.2079,-118.6792 1515.9971,-103.8519 1509.373,-87 1501.456,-66.859 1512.8385,-43.4618 1523.3773,-27.7923"/><polygon fill="#191970" stroke="#191970" points="1526.318 -29.699 1529.333 -19.542 1520.642 -25.602 1526.318 -29.699"/></g><g id="edge36" class="edge"><title>Node22-&gt;Node4</title><path fill="none" stroke="#191970" d="M1227.1365,-164.5845C1226.5466,-164.7256 1225.9587,-164.8642 1225.373,-165 1124.862,-188.3121 1005.3699,-203.3643 933.7279,-210.8525"/><polygon fill="#191970" stroke="#191970" points="933.103 -207.398 923.513 -211.903 933.818 -214.362 933.103 -207.398"/></g><g id="edge37" class="edge"><title>Node22-&gt;Node8</title><path fill="none" stroke="#191970" d="M1225.6519,-125.3163C1222.5261,-124.4859 1219.4185,-123.7064 1216.373,-123 1127.4215,-102.369 1023.6037,-88.2072 953.0663,-80.0323"/><polygon fill="#191970" stroke="#191970" points="953.24 -76.529 942.906 -78.87 952.443 -83.484 953.24 -76.529"/></g><g id="edge39" class="edge"><title>Node23-&gt;Node4</title><path fill="none" stroke="#191970" d="M1383.2262,-159.0557C1374.7488,-161.2921 1365.8443,-163.3843 1357.373,-165 1207.2235,-193.6367 1027.2803,-207.6571 933.7153,-213.3183"/><polygon fill="#191970" stroke="#191970" points="933.338 -209.834 923.563 -213.92 933.753 -216.822 933.338 -209.834"/></g><g id="edge40" class="edge"><title>Node23-&gt;Node8</title><path fill="none" stroke="#191970" d="M1374.3604,-128.9443C1365.7488,-126.7079 1356.8443,-124.6157 1348.373,-123 1211.1238,-96.8237 1048.9807,-82.86 953.1874,-76.33"/><polygon fill="#191970" stroke="#191970" points="953.197 -72.823 942.985 -75.645 952.728 -79.807 953.197 -72.823"/></g><g id="edge42" class="edge"><title>Node24-&gt;Node4</title><path fill="none" stroke="#191970" d="M986.1993,-159.0028C966.5124,-169.9828 937.9154,-184.9822 914.0077,-196.9079"/><polygon fill="#191970" stroke="#191970" points="912.179 -193.908 904.767 -201.478 915.282 -200.182 912.179 -193.908"/></g><g id="edge44" class="edge"><title>Node25-&gt;Node4</title><path fill="none" stroke="#191970" d="M1097.0929,-164.5148C1096.5174,-164.6782 1095.9439,-164.84 1095.373,-165 1041.3639,-180.138 978.9751,-194.7041 933.5252,-204.4585"/><polygon fill="#191970" stroke="#191970" points="932.568 -201.084 923.515 -206.587 934.024 -207.931 932.568 -201.084"/></g></g></svg>