<svg xmlns="http://www.w3.org/2000/svg" xmlns:xlink="http://www.w3.org/1999/xlink" width="1382pt" height="128pt" viewBox="0 0 1381.5 128"><g id="graph0" class="graph" transform="scale(1 1) rotate(0) translate(4 124)"><title>include/client/mir_toolkit/mir_extension_core.h</title><polygon fill="#fff" stroke="transparent" points="-4 4 -4 -124 1377.5 -124 1377.5 4 -4 4"/><g id="node1" class="node"><title>Node25</title><polygon fill="#bfbfbf" stroke="#000" points="568 -78.5 568 -119.5 694 -119.5 694 -78.5 568 -78.5"/><text x="576" y="-107.5" fill="#000" font-family="Arial" font-size="10" text-anchor="start">include/client/mir</text><text x="576" y="-96.5" fill="#000" font-family="Arial" font-size="10" text-anchor="start">_toolkit/mir_extension</text><text x="631" y="-85.5" fill="#000" font-family="Arial" font-size="10" text-anchor="middle">_core.h</text></g><g id="node2" class="node"><title>Node26</title><g id="a_node2"><a target="_top" xlink:href="android__buffer_8h.html" xlink:title="include/client/mir\l_toolkit/extensions\l/android_buffer.h"><polygon fill="#fff" stroke="#000" points="0 -.5 0 -41.5 110 -41.5 110 -.5 0 -.5"/><text x="8" y="-29.5" fill="#000" font-family="Arial" font-size="10" text-anchor="start">include/client/mir</text><text x="8" y="-18.5" fill="#000" font-family="Arial" font-size="10" text-anchor="start">_toolkit/extensions</text><text x="55" y="-7.5" fill="#000" font-family="Arial" font-size="10" text-anchor="middle">/android_buffer.h</text></a></g></g><g id="edge1" class="edge"><title>Node25-&gt;Node26</title><path fill="none" stroke="#191970" d="M557.6539,-95.5913C457.5547,-89.8638 272.9952,-75.4616 119,-42 116.1432,-41.3792 113.234,-40.6795 110.3099,-39.922"/><polygon fill="#191970" stroke="#191970" points="557.484 -99.087 567.664 -96.151 557.875 -92.098 557.484 -99.087"/></g><g id="node3" class="node"><title>Node27</title><g id="a_node3"><a target="_top" xlink:href="android__egl_8h.html" xlink:title="include/client/mir\l_toolkit/extensions\l/android_egl.h"><polygon fill="#fff" stroke="#000" points="128 -.5 128 -41.5 238 -41.5 238 -.5 128 -.5"/><text x="136" y="-29.5" fill="#000" font-family="Arial" font-size="10" text-anchor="start">include/client/mir</text><text x="136" y="-18.5" fill="#000" font-family="Arial" font-size="10" text-anchor="start">_toolkit/extensions</text><text x="183" y="-7.5" fill="#000" font-family="Arial" font-size="10" text-anchor="middle">/android_egl.h</text></a></g></g><g id="edge2" class="edge"><title>Node25-&gt;Node27</title><path fill="none" stroke="#191970" d="M557.6781,-91.8601C479.881,-83.4162 353.709,-67.2339 247,-42 244.155,-41.3272 241.2553,-40.5856 238.3387,-39.7949"/><polygon fill="#191970" stroke="#191970" points="557.542 -95.365 567.858 -92.951 558.288 -88.405 557.542 -95.365"/></g><g id="node4" class="node"><title>Node28</title><g id="a_node4"><a target="_top" xlink:href="drag__and__drop_8h.html" xlink:title="include/client/mir\l_toolkit/extensions\l/drag_and_drop.h"><polygon fill="#fff" stroke="#000" points="256 -.5 256 -41.5 366 -41.5 366 -.5 256 -.5"/><text x="264" y="-29.5" fill="#000" font-family="Arial" font-size="10" text-anchor="start">include/client/mir</text><text x="264" y="-18.5" fill="#000" font-family="Arial" font-size="10" text-anchor="start">_toolkit/extensions</text><text x="311" y="-7.5" fill="#000" font-family="Arial" font-size="10" text-anchor="middle">/drag_and_drop.h</text></a></g></g><g id="edge3" class="edge"><title>Node25-&gt;Node28</title><path fill="none" stroke="#191970" d="M557.9456,-84.7193C506.4791,-74.176 436.1262,-58.7902 375,-42 372.0682,-41.1947 369.0717,-40.3363 366.054,-39.444"/><polygon fill="#191970" stroke="#191970" points="557.481 -88.197 567.979 -86.762 558.878 -81.337 557.481 -88.197"/></g><g id="node5" class="node"><title>Node29</title><g id="a_node5"><a target="_top" xlink:href="fenced__buffers_8h.html" xlink:title="include/client/mir\l_toolkit/extensions\l/fenced_buffers.h"><polygon fill="#fff" stroke="#000" points="384 -.5 384 -41.5 494 -41.5 494 -.5 384 -.5"/><text x="392" y="-29.5" fill="#000" font-family="Arial" font-size="10" text-anchor="start">include/client/mir</text><text x="392" y="-18.5" fill="#000" font-family="Arial" font-size="10" text-anchor="start">_toolkit/extensions</text><text x="439" y="-7.5" fill="#000" font-family="Arial" font-size="10" text-anchor="middle">/fenced_buffers.h</text></a></g></g><g id="edge4" class="edge"><title>Node25-&gt;Node29</title><path fill="none" stroke="#191970" d="M570.8945,-74.5821C544.8018,-63.982 514.5762,-51.7028 489.6478,-41.5757"/><polygon fill="#191970" stroke="#191970" points="569.721 -77.883 580.303 -78.404 572.356 -71.398 569.721 -77.883"/></g><g id="node6" class="node"><title>Node30</title><g id="a_node6"><a target="_top" xlink:href="gbm__buffer_8h.html" xlink:title="include/client/mir\l_toolkit/extensions\l/gbm_buffer.h"><polygon fill="#fff" stroke="#000" points="512 -.5 512 -41.5 622 -41.5 622 -.5 512 -.5"/><text x="520" y="-29.5" fill="#000" font-family="Arial" font-size="10" text-anchor="start">include/client/mir</text><text x="520" y="-18.5" fill="#000" font-family="Arial" font-size="10" text-anchor="start">_toolkit/extensions</text><text x="567" y="-7.5" fill="#000" font-family="Arial" font-size="10" text-anchor="middle">/gbm_buffer.h</text></a></g></g><g id="edge5" class="edge"><title>Node25-&gt;Node30</title><path fill="none" stroke="#191970" d="M607.2794,-70.0905C599.5437,-60.6626 591.1148,-50.3899 583.9762,-41.6898"/><polygon fill="#191970" stroke="#191970" points="604.8 -72.587 613.849 -78.097 610.212 -68.147 604.8 -72.587"/></g><g id="node7" class="node"><title>Node31</title><g id="a_node7"><a target="_top" xlink:href="graphics__module_8h.html" xlink:title="include/client/mir\l_toolkit/extensions\l/graphics_module.h"><polygon fill="#fff" stroke="#000" points="640 -.5 640 -41.5 752 -41.5 752 -.5 640 -.5"/><text x="648" y="-29.5" fill="#000" font-family="Arial" font-size="10" text-anchor="start">include/client/mir</text><text x="648" y="-18.5" fill="#000" font-family="Arial" font-size="10" text-anchor="start">_toolkit/extensions</text><text x="696" y="-7.5" fill="#000" font-family="Arial" font-size="10" text-anchor="middle">/graphics_module.h</text></a></g></g><g id="edge6" class="edge"><title>Node25-&gt;Node31</title><path fill="none" stroke="#191970" d="M654.8534,-70.376C662.7747,-60.8703 671.4352,-50.4778 678.7585,-41.6898"/><polygon fill="#191970" stroke="#191970" points="652.132 -68.174 648.419 -78.097 657.51 -72.656 652.132 -68.174"/></g><g id="node8" class="node"><title>Node32</title><g id="a_node8"><a target="_top" xlink:href="hardware__buffer__stream_8h.html" xlink:title="include/client/mir\l_toolkit/extensions\l/hardware_buffer_stream.h"><polygon fill="#fff" stroke="#000" points="770 -.5 770 -41.5 918 -41.5 918 -.5 770 -.5"/><text x="778" y="-29.5" fill="#000" font-family="Arial" font-size="10" text-anchor="start">include/client/mir</text><text x="778" y="-18.5" fill="#000" font-family="Arial" font-size="10" text-anchor="start">_toolkit/extensions</text><text x="844" y="-7.5" fill="#000" font-family="Arial" font-size="10" text-anchor="middle">/hardware_buffer_stream.h</text></a></g></g><g id="edge7" class="edge"><title>Node25-&gt;Node32</title><path fill="none" stroke="#191970" d="M696.9189,-74.8607C726.0374,-64.1976 759.9151,-51.7917 787.8126,-41.5757"/><polygon fill="#191970" stroke="#191970" points="695.428 -71.679 687.242 -78.404 697.836 -78.252 695.428 -71.679"/></g><g id="node9" class="node"><title>Node33</title><g id="a_node9"><a target="_top" xlink:href="mesa__drm__auth_8h.html" xlink:title="include/client/mir\l_toolkit/extensions\l/mesa_drm_auth.h"><polygon fill="#fff" stroke="#000" points="936 -.5 936 -41.5 1046 -41.5 1046 -.5 936 -.5"/><text x="944" y="-29.5" fill="#000" font-family="Arial" font-size="10" text-anchor="start">include/client/mir</text><text x="944" y="-18.5" fill="#000" font-family="Arial" font-size="10" text-anchor="start">_toolkit/extensions</text><text x="991" y="-7.5" fill="#000" font-family="Arial" font-size="10" text-anchor="middle">/mesa_drm_auth.h</text></a></g></g><g id="edge8" class="edge"><title>Node25-&gt;Node33</title><path fill="none" stroke="#191970" d="M704.3462,-87.5389C764.599,-77.4884 851.9353,-61.4591 927,-42 929.9431,-41.237 932.9486,-40.4125 935.9734,-39.5466"/><polygon fill="#191970" stroke="#191970" points="703.463 -84.137 694.169 -89.223 704.606 -91.043 703.463 -84.137"/></g><g id="node10" class="node"><title>Node34</title><g id="a_node10"><a target="_top" xlink:href="set__gbm__device_8h.html" xlink:title="include/client/mir\l_toolkit/extensions\l/set_gbm_device.h"><polygon fill="#fff" stroke="#000" points="1064 -.5 1064 -41.5 1174 -41.5 1174 -.5 1064 -.5"/><text x="1072" y="-29.5" fill="#000" font-family="Arial" font-size="10" text-anchor="start">include/client/mir</text><text x="1072" y="-18.5" fill="#000" font-family="Arial" font-size="10" text-anchor="start">_toolkit/extensions</text><text x="1119" y="-7.5" fill="#000" font-family="Arial" font-size="10" text-anchor="middle">/set_gbm_device.h</text></a></g></g><g id="edge9" class="edge"><title>Node25-&gt;Node34</title><path fill="none" stroke="#191970" d="M704.2261,-93.2651C789.3262,-85.6563 933.6047,-69.8284 1055,-42 1057.8496,-41.3468 1060.7529,-40.6209 1063.6724,-39.8427"/><polygon fill="#191970" stroke="#191970" points="703.801 -89.789 694.147 -94.153 704.415 -96.762 703.801 -89.789"/></g><g id="node11" class="node"><title>Node35</title><g id="a_node11"><a target="_top" xlink:href="window__coordinate__translation_8h.html" xlink:title="include/client/mir\l_toolkit/extensions\l/window_coordinate_translation.h"><polygon fill="#fff" stroke="#000" points="1192.5 -.5 1192.5 -41.5 1373.5 -41.5 1373.5 -.5 1192.5 -.5"/><text x="1200.5" y="-29.5" fill="#000" font-family="Arial" font-size="10" text-anchor="start">include/client/mir</text><text x="1200.5" y="-18.5" fill="#000" font-family="Arial" font-size="10" text-anchor="start">_toolkit/extensions</text><text x="1283" y="-7.5" fill="#000" font-family="Arial" font-size="10" text-anchor="middle">/window_coordinate_translation.h</text></a></g></g><g id="edge10" class="edge"><title>Node25-&gt;Node35</title><path fill="none" stroke="#191970" d="M704.4634,-93.8602C810.5385,-85.885 1012.5759,-68.6196 1183,-42 1186.0673,-41.5209 1189.1825,-41.0092 1192.3248,-40.4715"/><polygon fill="#191970" stroke="#191970" points="703.903 -90.392 694.191 -94.626 704.423 -97.373 703.903 -90.392"/></g></g></svg>