<svg xmlns="http://www.w3.org/2000/svg" xmlns:xlink="http://www.w3.org/1999/xlink" width="1970pt" height="374pt" viewBox="0 0 1969.58 374"><g id="graph0" class="graph" transform="scale(1 1) rotate(0) translate(4 370)"><title>include/client/mir_toolkit/mir_buffer.h</title><polygon fill="#fff" stroke="transparent" points="-4 4 -4 -370 1965.584 -370 1965.584 4 -4 4"/><g id="node1" class="node"><title>Node0</title><polygon fill="#bfbfbf" stroke="#000" points="1750.584 -335.5 1750.584 -365.5 1865.584 -365.5 1865.584 -335.5 1750.584 -335.5"/><text x="1758.584" y="-353.5" fill="#000" font-family="Arial" font-size="10" text-anchor="start">include/client/mir</text><text x="1808.084" y="-342.5" fill="#000" font-family="Arial" font-size="10" text-anchor="middle">_toolkit/mir_buffer.h</text></g><g id="node2" class="node"><title>Node1</title><polygon fill="#fff" stroke="#bfbfbf" points="1580.084 -.5 1580.084 -19.5 1642.084 -19.5 1642.084 -.5 1580.084 -.5"/><text x="1611.084" y="-7.5" fill="#000" font-family="Arial" font-size="10" text-anchor="middle">stdbool.h</text></g><g id="edge1" class="edge"><title>Node0-&gt;Node1</title><path fill="none" stroke="#191970" d="M1811.1312,-335.2866C1818.0295,-296.5802 1831.1527,-192.5109 1789.0841,-123 1771.4345,-93.8372 1685.247,-47.2954 1639.593,-24.0992"/><polygon fill="#191970" stroke="#191970" points="1641.011 -20.894 1630.505 -19.518 1637.86 -27.145 1641.011 -20.894"/></g><g id="node3" class="node"><title>Node2</title><g id="a_node3"><a target="_top" xlink:href="client__types_8h.html" xlink:title="mir_toolkit/client\l_types.h"><polygon fill="#fff" stroke="#000" points="856.084 -268.5 856.084 -298.5 956.084 -298.5 956.084 -268.5 856.084 -268.5"/><text x="864.084" y="-286.5" fill="#000" font-family="Arial" font-size="10" text-anchor="start">mir_toolkit/client</text><text x="906.084" y="-275.5" fill="#000" font-family="Arial" font-size="10" text-anchor="middle">_types.h</text></a></g></g><g id="edge2" class="edge"><title>Node0-&gt;Node2</title><path fill="none" stroke="#191970" d="M1750.2878,-346.2069C1588.4903,-334.1887 1132.0744,-300.2864 966.796,-288.0096"/><polygon fill="#191970" stroke="#191970" points="966.568 -284.483 956.337 -287.233 966.05 -291.464 966.568 -284.483"/></g><g id="node25" class="node"><title>Node24</title><g id="a_node25"><a target="_top" xlink:href="mir__native__buffer_8h.html" xlink:title="mir_toolkit/mir_native\l_buffer.h"><polygon fill="#fff" stroke="#000" points="1836.584 -268.5 1836.584 -298.5 1961.584 -298.5 1961.584 -268.5 1836.584 -268.5"/><text x="1844.584" y="-286.5" fill="#000" font-family="Arial" font-size="10" text-anchor="start">mir_toolkit/mir_native</text><text x="1899.084" y="-275.5" fill="#000" font-family="Arial" font-size="10" text-anchor="middle">_buffer.h</text></a></g></g><g id="edge47" class="edge"><title>Node0-&gt;Node24</title><path fill="none" stroke="#191970" d="M1828.7334,-335.2967C1841.0664,-326.2163 1856.9133,-314.5488 1870.4435,-304.587"/><polygon fill="#191970" stroke="#191970" points="1872.539 -307.391 1878.516 -298.643 1868.389 -301.754 1872.539 -307.391"/></g><g id="node4" class="node"><title>Node3</title><g id="a_node4"><a target="_top" xlink:href="toolkit_2events_2event_8h.html" xlink:title="mir_toolkit/events\l/event.h"><polygon fill="#fff" stroke="#000" points="853.084 -201.5 853.084 -231.5 959.084 -231.5 959.084 -201.5 853.084 -201.5"/><text x="861.084" y="-219.5" fill="#000" font-family="Arial" font-size="10" text-anchor="start">mir_toolkit/events</text><text x="906.084" y="-208.5" fill="#000" font-family="Arial" font-size="10" text-anchor="middle">/event.h</text></a></g></g><g id="edge3" class="edge"><title>Node2-&gt;Node3</title><path fill="none" stroke="#191970" d="M906.0841,-268.2967C906.0841,-260.5013 906.0841,-250.7991 906.0841,-241.9064"/><polygon fill="#191970" stroke="#191970" points="909.584 -241.643 906.084 -231.643 902.584 -241.643 909.584 -241.643"/></g><g id="node5" class="node"><title>Node4</title><polygon fill="#fff" stroke="#bfbfbf" points="1724.084 -134.5 1724.084 -153.5 1780.084 -153.5 1780.084 -134.5 1724.084 -134.5"/><text x="1752.084" y="-141.5" fill="#000" font-family="Arial" font-size="10" text-anchor="middle">stddef.h</text></g><g id="edge46" class="edge"><title>Node2-&gt;Node4</title><path fill="none" stroke="#191970" d="M956.2494,-281.6059C1084.5942,-275.5939 1434.1953,-251.8535 1710.0841,-165 1715.6245,-163.2558 1721.3344,-160.8558 1726.6901,-158.3001"/><polygon fill="#191970" stroke="#191970" points="1728.514 -161.299 1735.835 -153.64 1725.336 -155.062 1728.514 -161.299"/></g><g id="node7" class="node"><title>Node6</title><g id="a_node7"><a target="_top" xlink:href="common_8h.html" xlink:title="mir_toolkit/common.h"><polygon fill="#fff" stroke="#000" points="18.584 -134.5 18.584 -153.5 143.584 -153.5 143.584 -134.5 18.584 -134.5"/><text x="81.084" y="-141.5" fill="#000" font-family="Arial" font-size="10" text-anchor="middle">mir_toolkit/common.h</text></a></g></g><g id="edge44" class="edge"><title>Node2-&gt;Node6</title><path fill="none" stroke="#191970" d="M855.8861,-277.85C734.3389,-263.6826 414.9358,-223.5392 153.0841,-165 142.3952,-162.6104 130.957,-159.5239 120.4161,-156.4564"/><polygon fill="#191970" stroke="#191970" points="121.222 -153.044 110.638 -153.545 119.224 -159.753 121.222 -153.044"/></g><g id="node8" class="node"><title>Node7</title><g id="a_node8"><a target="_top" xlink:href="deprecations_8h.html" xlink:title="mir_toolkit/deprecations.h"><polygon fill="#fff" stroke="#000" points="342.584 -62 342.584 -81 487.584 -81 487.584 -62 342.584 -62"/><text x="415.084" y="-69" fill="#000" font-family="Arial" font-size="10" text-anchor="middle">mir_toolkit/deprecations.h</text></a></g></g><g id="edge45" class="edge"><title>Node2-&gt;Node7</title><path fill="none" stroke="#191970" d="M855.9225,-280.8114C674.9042,-270.5886 63.1329,-231.3277 9.0841,-165 -2.7077,-150.5294 -3.2568,-137.0052 9.0841,-123 30.0661,-99.1883 219.5295,-83.5283 332.0744,-76.2402"/><polygon fill="#191970" stroke="#191970" points="332.626 -79.712 342.383 -75.582 332.18 -72.727 332.626 -79.712"/></g><g id="edge4" class="edge"><title>Node3-&gt;Node4</title><path fill="none" stroke="#191970" d="M959.2449,-214.3227C1126.9477,-207.2834 1638.0115,-184.467 1710.0841,-165 1716.0335,-163.393 1722.1316,-160.904 1727.7717,-158.194"/><polygon fill="#191970" stroke="#191970" points="1729.465 -161.258 1736.724 -153.541 1726.237 -155.047 1729.465 -161.258"/></g><g id="node6" class="node"><title>Node5</title><polygon fill="#fff" stroke="#bfbfbf" points="1800.584 -.5 1800.584 -19.5 1853.584 -19.5 1853.584 -.5 1800.584 -.5"/><text x="1827.084" y="-7.5" fill="#000" font-family="Arial" font-size="10" text-anchor="middle">stdint.h</text></g><g id="edge5" class="edge"><title>Node3-&gt;Node5</title><path fill="none" stroke="#191970" d="M959.1685,-215.25C1122.8931,-211.0776 1612.867,-196.1018 1677.0841,-165 1699.7398,-154.0273 1693.1867,-135.4171 1715.0841,-123 1786.4315,-82.5419 1844.0505,-150.402 1896.0841,-87 1904.8247,-76.3497 1902.5852,-68.1475 1896.0841,-56 1888.6325,-42.0767 1874.8992,-31.6399 1861.6351,-24.258"/><polygon fill="#191970" stroke="#191970" points="1863.106 -21.079 1852.61 -19.63 1859.911 -27.308 1863.106 -21.079"/></g><g id="edge6" class="edge"><title>Node3-&gt;Node6</title><path fill="none" stroke="#191970" d="M852.8928,-214.3547C704.4753,-208.1313 287.8989,-188.9811 153.0841,-165 141.6987,-162.9747 129.5474,-159.8272 118.5319,-156.5799"/><polygon fill="#191970" stroke="#191970" points="119.376 -153.178 108.79 -153.599 117.328 -159.872 119.376 -153.178"/></g><g id="edge8" class="edge"><title>Node3-&gt;Node7</title><path fill="none" stroke="#191970" d="M852.7204,-212.9636C742.7606,-205.2866 498.5676,-186.0805 467.0841,-165 441.2058,-147.6726 426.9192,-112.933 420.1414,-91.0233"/><polygon fill="#191970" stroke="#191970" points="423.438 -89.82 417.329 -81.163 416.706 -91.739 423.438 -89.82"/></g><g id="node9" class="node"><title>Node8</title><g id="a_node9"><a target="_top" xlink:href="input__event_8h.html" xlink:title="mir_toolkit/events\l/input/input_event.h"><polygon fill="#fff" stroke="#000" points="1554.084 -129 1554.084 -159 1668.084 -159 1668.084 -129 1554.084 -129"/><text x="1562.084" y="-147" fill="#000" font-family="Arial" font-size="10" text-anchor="start">mir_toolkit/events</text><text x="1611.084" y="-136" fill="#000" font-family="Arial" font-size="10" text-anchor="middle">/input/input_event.h</text></a></g></g><g id="edge9" class="edge"><title>Node3-&gt;Node8</title><path fill="none" stroke="#191970" d="M959.1107,-213.5423C1090.0436,-206.315 1425.5147,-186.7509 1536.0841,-165 1540.7075,-164.0905 1545.462,-162.9674 1550.2314,-161.7173"/><polygon fill="#191970" stroke="#191970" points="1551.307 -165.051 1560.005 -159.001 1549.433 -158.307 1551.307 -165.051"/></g><g id="node15" class="node"><title>Node14</title><g id="a_node15"><a target="_top" xlink:href="resize__event_8h.html" xlink:title="mir_toolkit/events\l/resize_event.h"><polygon fill="#fff" stroke="#000" points="600.084 -129 600.084 -159 706.084 -159 706.084 -129 600.084 -129"/><text x="608.084" y="-147" fill="#000" font-family="Arial" font-size="10" text-anchor="start">mir_toolkit/events</text><text x="653.084" y="-136" fill="#000" font-family="Arial" font-size="10" text-anchor="middle">/resize_event.h</text></a></g></g><g id="edge20" class="edge"><title>Node3-&gt;Node14</title><path fill="none" stroke="#191970" d="M852.7186,-204.9268C812.0972,-194.9829 755.2107,-179.9266 706.0841,-165 703.1346,-164.1038 700.1141,-163.1618 697.0814,-162.1937"/><polygon fill="#191970" stroke="#191970" points="698.019 -158.818 687.426 -159.037 695.843 -165.471 698.019 -158.818"/></g><g id="node16" class="node"><title>Node15</title><g id="a_node16"><a target="_top" xlink:href="surface__event_8h.html" xlink:title="mir_toolkit/events\l/surface_event.h"><polygon fill="#fff" stroke="#000" points="476.084 -129 476.084 -159 582.084 -159 582.084 -129 476.084 -129"/><text x="484.084" y="-147" fill="#000" font-family="Arial" font-size="10" text-anchor="start">mir_toolkit/events</text><text x="529.084" y="-136" fill="#000" font-family="Arial" font-size="10" text-anchor="middle">/surface_event.h</text></a></g></g><g id="edge22" class="edge"><title>Node3-&gt;Node15</title><path fill="none" stroke="#191970" d="M853.0124,-211.2766C788.1839,-203.8219 675.9091,-188.3906 582.0841,-165 578.5106,-164.1091 574.8484,-163.1073 571.1953,-162.0369"/><polygon fill="#191970" stroke="#191970" points="572.202 -158.685 561.614 -159.072 570.133 -165.372 572.202 -158.685"/></g><g id="node17" class="node"><title>Node16</title><g id="a_node17"><a target="_top" xlink:href="window__event_8h.html" xlink:title="mir_toolkit/events\l/window_event.h"><polygon fill="#fff" stroke="#000" points="724.084 -129 724.084 -159 830.084 -159 830.084 -129 724.084 -129"/><text x="732.084" y="-147" fill="#000" font-family="Arial" font-size="10" text-anchor="start">mir_toolkit/events</text><text x="777.084" y="-136" fill="#000" font-family="Arial" font-size="10" text-anchor="middle">/window_event.h</text></a></g></g><g id="edge25" class="edge"><title>Node3-&gt;Node16</title><path fill="none" stroke="#191970" d="M873.7625,-201.478C853.2245,-190.6877 826.9543,-176.023 806.9145,-164.2071"/><polygon fill="#191970" stroke="#191970" points="808.57 -161.119 798.188 -159.003 804.984 -167.131 808.57 -161.119"/></g><g id="node18" class="node"><title>Node17</title><g id="a_node18"><a target="_top" xlink:href="orientation__event_8h.html" xlink:title="mir_toolkit/events\l/orientation_event.h"><polygon fill="#fff" stroke="#000" points="848.584 -129 848.584 -159 963.584 -159 963.584 -129 848.584 -129"/><text x="856.584" y="-147" fill="#000" font-family="Arial" font-size="10" text-anchor="start">mir_toolkit/events</text><text x="906.084" y="-136" fill="#000" font-family="Arial" font-size="10" text-anchor="middle">/orientation_event.h</text></a></g></g><g id="edge27" class="edge"><title>Node3-&gt;Node17</title><path fill="none" stroke="#191970" d="M900.4913,-201.478C899.3335,-192.1459 899.0445,-179.9157 899.6243,-169.1368"/><polygon fill="#191970" stroke="#191970" points="903.126 -169.265 900.494 -159.003 896.152 -168.667 903.126 -169.265"/></g><g id="node19" class="node"><title>Node18</title><g id="a_node19"><a target="_top" xlink:href="prompt__session__event_8h.html" xlink:title="mir_toolkit/events\l/prompt_session_event.h"><polygon fill="#fff" stroke="#000" points="981.584 -129 981.584 -159 1120.584 -159 1120.584 -129 981.584 -129"/><text x="989.584" y="-147" fill="#000" font-family="Arial" font-size="10" text-anchor="start">mir_toolkit/events</text><text x="1051.084" y="-136" fill="#000" font-family="Arial" font-size="10" text-anchor="middle">/prompt_session_event.h</text></a></g></g><g id="edge29" class="edge"><title>Node3-&gt;Node18</title><path fill="none" stroke="#191970" d="M930.5354,-201.478C951.233,-190.4447 981.247,-175.3605 1006.2017,-163.4132"/><polygon fill="#191970" stroke="#191970" points="1007.957 -166.454 1015.488 -159.003 1004.954 -160.131 1007.957 -166.454"/></g><g id="node20" class="node"><title>Node19</title><g id="a_node20"><a target="_top" xlink:href="keymap__event_8h.html" xlink:title="mir_toolkit/events\l/keymap_event.h"><polygon fill="#fff" stroke="#000" points="162.084 -129 162.084 -159 268.084 -159 268.084 -129 162.084 -129"/><text x="170.084" y="-147" fill="#000" font-family="Arial" font-size="10" text-anchor="start">mir_toolkit/events</text><text x="215.084" y="-136" fill="#000" font-family="Arial" font-size="10" text-anchor="middle">/keymap_event.h</text></a></g></g><g id="edge31" class="edge"><title>Node3-&gt;Node19</title><path fill="none" stroke="#191970" d="M852.7767,-214.0405C720.1952,-207.3783 378.8628,-187.9336 268.0841,-165 263.9526,-164.1447 259.7155,-163.0958 255.5177,-161.9275"/><polygon fill="#191970" stroke="#191970" points="256.447 -158.552 245.863 -159.019 254.428 -165.255 256.447 -158.552"/></g><g id="node21" class="node"><title>Node20</title><g id="a_node21"><a target="_top" xlink:href="input__configuration__event_8h.html" xlink:title="mir_toolkit/events\l/input_configuration\l_event.h"><polygon fill="#fff" stroke="#000" points="1138.584 -123.5 1138.584 -164.5 1251.584 -164.5 1251.584 -123.5 1138.584 -123.5"/><text x="1146.584" y="-152.5" fill="#000" font-family="Arial" font-size="10" text-anchor="start">mir_toolkit/events</text><text x="1146.584" y="-141.5" fill="#000" font-family="Arial" font-size="10" text-anchor="start">/input_configuration</text><text x="1195.084" y="-130.5" fill="#000" font-family="Arial" font-size="10" text-anchor="middle">_event.h</text></a></g></g><g id="edge34" class="edge"><title>Node3-&gt;Node20</title><path fill="none" stroke="#191970" d="M959.5275,-203.8303C1003.0077,-194.1283 1065.6682,-179.9141 1120.0841,-165 1122.8564,-164.2402 1125.6865,-163.4391 1128.5468,-162.6112"/><polygon fill="#191970" stroke="#191970" points="1129.75 -165.905 1138.348 -159.713 1127.765 -159.192 1129.75 -165.905"/></g><g id="node22" class="node"><title>Node21</title><g id="a_node22"><a target="_top" xlink:href="surface__output__event_8h.html" xlink:title="mir_toolkit/events\l/surface_output_event.h"><polygon fill="#fff" stroke="#000" points="286.084 -129 286.084 -159 420.084 -159 420.084 -129 286.084 -129"/><text x="294.084" y="-147" fill="#000" font-family="Arial" font-size="10" text-anchor="start">mir_toolkit/events</text><text x="353.084" y="-136" fill="#000" font-family="Arial" font-size="10" text-anchor="middle">/surface_output_event.h</text></a></g></g><g id="edge37" class="edge"><title>Node3-&gt;Node21</title><path fill="none" stroke="#191970" d="M852.8363,-213.5779C763.5408,-207.8422 578.7337,-193.1464 425.0841,-165 419.5468,-163.9857 413.83,-162.7972 408.1461,-161.5107"/><polygon fill="#191970" stroke="#191970" points="408.534 -158.006 397.997 -159.105 406.92 -164.817 408.534 -158.006"/></g><g id="node23" class="node"><title>Node22</title><g id="a_node23"><a target="_top" xlink:href="window__output__event_8h.html" xlink:title="mir_toolkit/events\l/window_output_event.h"><polygon fill="#fff" stroke="#000" points="1270.084 -129 1270.084 -159 1406.084 -159 1406.084 -129 1270.084 -129"/><text x="1278.084" y="-147" fill="#000" font-family="Arial" font-size="10" text-anchor="start">mir_toolkit/events</text><text x="1338.084" y="-136" fill="#000" font-family="Arial" font-size="10" text-anchor="middle">/window_output_event.h</text></a></g></g><g id="edge40" class="edge"><title>Node3-&gt;Node22</title><path fill="none" stroke="#191970" d="M959.2272,-210.0203C1027.3044,-201.8313 1148.4489,-186.2041 1251.0841,-165 1256.1055,-163.9626 1261.2837,-162.7931 1266.4975,-161.5505"/><polygon fill="#191970" stroke="#191970" points="1267.659 -164.869 1276.536 -159.086 1265.99 -158.071 1267.659 -164.869"/></g><g id="node24" class="node"><title>Node23</title><g id="a_node24"><a target="_top" xlink:href="input__device__state__event_8h.html" xlink:title="mir_toolkit/events\l/input_device_state\l_event.h"><polygon fill="#fff" stroke="#000" points="1424.084 -123.5 1424.084 -164.5 1536.084 -164.5 1536.084 -123.5 1424.084 -123.5"/><text x="1432.084" y="-152.5" fill="#000" font-family="Arial" font-size="10" text-anchor="start">mir_toolkit/events</text><text x="1432.084" y="-141.5" fill="#000" font-family="Arial" font-size="10" text-anchor="start">/input_device_state</text><text x="1480.084" y="-130.5" fill="#000" font-family="Arial" font-size="10" text-anchor="middle">_event.h</text></a></g></g><g id="edge42" class="edge"><title>Node3-&gt;Node23</title><path fill="none" stroke="#191970" d="M959.1092,-214.5937C1051.0636,-210.5973 1245.265,-198.7168 1406.0841,-165 1408.7137,-164.4487 1411.387,-163.8305 1414.0819,-163.1615"/><polygon fill="#191970" stroke="#191970" points="1415.133 -166.504 1423.895 -160.546 1413.331 -159.74 1415.133 -166.504"/></g><g id="edge7" class="edge"><title>Node6-&gt;Node7</title><path fill="none" stroke="#191970" d="M111.7532,-134.3963C124.4718,-130.5858 139.4211,-126.3282 153.0841,-123 219.3031,-106.8693 295.8783,-92.2802 349.0728,-82.7825"/><polygon fill="#191970" stroke="#191970" points="349.823 -86.204 359.057 -81.01 348.6 -79.312 349.823 -86.204"/></g><g id="edge14" class="edge"><title>Node8-&gt;Node1</title><path fill="none" stroke="#191970" d="M1565.024,-128.9911C1558.3517,-126.92 1551.5541,-124.8657 1545.0841,-123 1479.189,-103.9989 1363.227,-109.5395 1406.0841,-56 1426.1715,-30.9057 1515.7694,-18.5611 1569.6438,-13.3051"/><polygon fill="#191970" stroke="#191970" points="1570.28 -16.761 1579.911 -12.347 1569.629 -9.791 1570.28 -16.761"/></g><g id="edge10" class="edge"><title>Node8-&gt;Node3</title><path fill="none" stroke="#191970" d="M1577.6964,-159.0009C1570.0295,-161.3304 1561.8709,-163.4682 1554.0841,-165 1443.8171,-186.6914 1109.8765,-206.208 969.3532,-213.4827"/><polygon fill="#191970" stroke="#191970" points="968.981 -209.997 959.173 -214.006 969.34 -216.988 968.981 -209.997"/></g><g id="edge13" class="edge"><title>Node8-&gt;Node5</title><path fill="none" stroke="#191970" d="M1635.4421,-128.889C1677.0869,-103.0538 1761.4837,-50.6965 1802.9646,-24.963"/><polygon fill="#191970" stroke="#191970" points="1804.95 -27.85 1811.603 -19.604 1801.26 -21.902 1804.95 -27.85"/></g><g id="node10" class="node"><title>Node9</title><g id="a_node10"><a target="_top" xlink:href="mir__input__device__types_8h.html" xlink:title="mir_toolkit/mir_input\l_device_types.h"><polygon fill="#fff" stroke="#000" points="1767.584 -56.5 1767.584 -86.5 1886.584 -86.5 1886.584 -56.5 1767.584 -56.5"/><text x="1775.584" y="-74.5" fill="#000" font-family="Arial" font-size="10" text-anchor="start">mir_toolkit/mir_input</text><text x="1827.084" y="-63.5" fill="#000" font-family="Arial" font-size="10" text-anchor="middle">_device_types.h</text></a></g></g><g id="edge11" class="edge"><title>Node8-&gt;Node9</title><path fill="none" stroke="#191970" d="M1655.8394,-128.978C1689.7246,-117.6045 1736.4345,-101.9263 1772.5119,-89.8171"/><polygon fill="#191970" stroke="#191970" points="1774.02 -93.003 1782.386 -86.503 1771.792 -86.367 1774.02 -93.003"/></g><g id="node11" class="node"><title>Node10</title><g id="a_node11"><a target="_top" xlink:href="touch__event_8h.html" xlink:title="mir_toolkit/events\l/input/touch_event.h"><polygon fill="#fff" stroke="#000" points="1415.084 -56.5 1415.084 -86.5 1531.084 -86.5 1531.084 -56.5 1415.084 -56.5"/><text x="1423.084" y="-74.5" fill="#000" font-family="Arial" font-size="10" text-anchor="start">mir_toolkit/events</text><text x="1473.084" y="-63.5" fill="#000" font-family="Arial" font-size="10" text-anchor="middle">/input/touch_event.h</text></a></g></g><g id="edge15" class="edge"><title>Node8-&gt;Node10</title><path fill="none" stroke="#191970" d="M1582.4904,-128.978C1561.6742,-118.0419 1533.2825,-103.126 1510.6385,-91.2297"/><polygon fill="#191970" stroke="#191970" points="1512.122 -88.055 1501.641 -86.503 1508.866 -94.252 1512.122 -88.055"/></g><g id="node12" class="node"><title>Node11</title><g id="a_node12"><a target="_top" xlink:href="keyboard__event_8h.html" xlink:title="mir_toolkit/events\l/input/keyboard_event.h"><polygon fill="#fff" stroke="#000" points="881.584 -56.5 881.584 -86.5 1016.584 -86.5 1016.584 -56.5 881.584 -56.5"/><text x="889.584" y="-74.5" fill="#000" font-family="Arial" font-size="10" text-anchor="start">mir_toolkit/events</text><text x="949.084" y="-63.5" fill="#000" font-family="Arial" font-size="10" text-anchor="middle">/input/keyboard_event.h</text></a></g></g><g id="edge16" class="edge"><title>Node8-&gt;Node11</title><path fill="none" stroke="#191970" d="M1568.4875,-128.9303C1560.7758,-126.638 1552.7486,-124.5307 1545.0841,-123 1448.0218,-103.6149 1165.0987,-84.5469 1026.8877,-76.07"/><polygon fill="#191970" stroke="#191970" points="1026.983 -72.569 1016.789 -75.454 1026.557 -79.556 1026.983 -72.569"/></g><g id="node14" class="node"><title>Node13</title><g id="a_node14"><a target="_top" xlink:href="pointer__event_8h.html" xlink:title="mir_toolkit/events\l/input/pointer_event.h"><polygon fill="#fff" stroke="#000" points="1549.084 -56.5 1549.084 -86.5 1673.084 -86.5 1673.084 -56.5 1549.084 -56.5"/><text x="1557.084" y="-74.5" fill="#000" font-family="Arial" font-size="10" text-anchor="start">mir_toolkit/events</text><text x="1611.084" y="-63.5" fill="#000" font-family="Arial" font-size="10" text-anchor="middle">/input/pointer_event.h</text></a></g></g><g id="edge18" class="edge"><title>Node8-&gt;Node13</title><path fill="none" stroke="#191970" d="M1611.0841,-128.978C1611.0841,-119.6459 1611.0841,-107.4157 1611.0841,-96.6368"/><polygon fill="#191970" stroke="#191970" points="1614.584 -96.503 1611.084 -86.503 1607.584 -96.503 1614.584 -96.503"/></g><g id="edge12" class="edge"><title>Node9-&gt;Node5</title><path fill="none" stroke="#191970" d="M1827.0841,-56.2977C1827.0841,-48.3834 1827.0841,-38.6043 1827.0841,-30.0759"/><polygon fill="#191970" stroke="#191970" points="1830.584 -29.847 1827.084 -19.847 1823.584 -29.847 1830.584 -29.847"/></g><g id="node13" class="node"><title>Node12</title><polygon fill="#fff" stroke="#bfbfbf" points="540.084 -.5 540.084 -19.5 690.084 -19.5 690.084 -.5 540.084 -.5"/><text x="615.084" y="-7.5" fill="#000" font-family="Arial" font-size="10" text-anchor="middle">xkbcommon/xkbcommon.h</text></g><g id="edge17" class="edge"><title>Node11-&gt;Node12</title><path fill="none" stroke="#191970" d="M881.4942,-59.0546C821.6141,-48.0287 734.924,-32.0663 676.8643,-21.3757"/><polygon fill="#191970" stroke="#191970" points="677.197 -17.878 666.728 -19.509 675.929 -24.762 677.197 -17.878"/></g><g id="edge19" class="edge"><title>Node13-&gt;Node1</title><path fill="none" stroke="#191970" d="M1611.0841,-56.2977C1611.0841,-48.3834 1611.0841,-38.6043 1611.0841,-30.0759"/><polygon fill="#191970" stroke="#191970" points="1614.584 -29.847 1611.084 -19.847 1607.584 -29.847 1614.584 -29.847"/></g><g id="edge21" class="edge"><title>Node14-&gt;Node3</title><path fill="none" stroke="#191970" d="M705.2376,-159.0372C711.6028,-161.1042 717.9948,-163.1498 724.0841,-165 764.0328,-177.138 809.1129,-189.3618 844.4778,-198.8525"/><polygon fill="#191970" stroke="#191970" points="843.617 -202.245 854.183 -201.454 845.43 -195.484 843.617 -202.245"/></g><g id="edge23" class="edge"><title>Node15-&gt;Node3</title><path fill="none" stroke="#191970" d="M579.3708,-159.0723C586.3164,-161.253 593.3576,-163.3231 600.0841,-165 683.104,-185.6969 780.5691,-200.1621 842.8786,-208.3837"/><polygon fill="#191970" stroke="#191970" points="842.581 -211.874 852.95 -209.699 843.487 -204.933 842.581 -211.874"/></g><g id="edge24" class="edge"><title>Node15-&gt;Node7</title><path fill="none" stroke="#191970" d="M505.4632,-128.978C485.9831,-116.5893 458.472,-99.0932 438.9303,-86.6654"/><polygon fill="#191970" stroke="#191970" points="440.625 -83.596 430.309 -81.183 436.869 -89.502 440.625 -83.596"/></g><g id="edge26" class="edge"><title>Node16-&gt;Node3</title><path fill="none" stroke="#191970" d="M809.3691,-159.0028C829.9002,-169.7884 856.1707,-184.4525 876.2179,-196.2718"/><polygon fill="#191970" stroke="#191970" points="874.567 -199.362 884.948 -201.478 878.152 -193.35 874.567 -199.362"/></g><g id="edge28" class="edge"><title>Node17-&gt;Node3</title><path fill="none" stroke="#191970" d="M911.6744,-159.0028C912.8335,-168.3309 913.1237,-180.5601 912.5451,-191.3409"/><polygon fill="#191970" stroke="#191970" points="909.043 -191.216 911.677 -201.478 916.018 -191.813 909.043 -191.216"/></g><g id="edge30" class="edge"><title>Node18-&gt;Node3</title><path fill="none" stroke="#191970" d="M1026.6688,-159.0028C1005.9821,-170.0313 975.9706,-185.115 951.01,-197.066"/><polygon fill="#191970" stroke="#191970" points="949.252 -194.026 941.721 -201.478 952.255 -200.349 949.252 -194.026"/></g><g id="edge32" class="edge"><title>Node19-&gt;Node3</title><path fill="none" stroke="#191970" d="M263.5542,-159.0195C271.0606,-161.3471 278.7392,-163.4795 286.0841,-165 391.6973,-186.8642 706.8644,-205.5573 842.7266,-213.0261"/><polygon fill="#191970" stroke="#191970" points="842.797 -216.535 852.973 -213.587 843.179 -209.546 842.797 -216.535"/></g><g id="edge33" class="edge"><title>Node19-&gt;Node12</title><path fill="none" stroke="#191970" d="M230.3217,-128.7363C251.4321,-108.5729 291.6784,-73.5666 333.0841,-56 367.6865,-41.3197 460.1452,-27.9001 529.8346,-19.393"/><polygon fill="#191970" stroke="#191970" points="530.433 -22.846 539.942 -18.174 529.595 -15.897 530.433 -22.846"/></g><g id="edge35" class="edge"><title>Node20-&gt;Node3</title><path fill="none" stroke="#191970" d="M1139.8308,-164.518C1139.2463,-164.6804 1138.6639,-164.8411 1138.0841,-165 1081.6758,-180.4602 1016.4081,-195.1683 969.4081,-204.8777"/><polygon fill="#191970" stroke="#191970" points="968.463 -201.499 959.368 -206.933 969.867 -208.356 968.463 -201.499"/></g><g id="edge36" class="edge"><title>Node20-&gt;Node7</title><path fill="none" stroke="#191970" d="M1138.4225,-125.0358C1135.2814,-124.2777 1132.1541,-123.5905 1129.0841,-123 1010.3347,-100.1586 659.5379,-82.2844 498.1019,-75.0245"/><polygon fill="#191970" stroke="#191970" points="497.893 -71.512 487.747 -74.562 497.58 -78.505 497.893 -71.512"/></g><g id="edge38" class="edge"><title>Node21-&gt;Node3</title><path fill="none" stroke="#191970" d="M415.7408,-159.1053C424.9052,-161.3085 434.2245,-163.377 443.0841,-165 584.9812,-190.9936 753.4517,-205.5154 842.9758,-212.1025"/><polygon fill="#191970" stroke="#191970" points="842.741 -215.595 852.969 -212.829 843.249 -208.613 842.741 -215.595"/></g><g id="edge39" class="edge"><title>Node21-&gt;Node7</title><path fill="none" stroke="#191970" d="M365.9305,-128.978C375.8441,-117.3854 389.5821,-101.3209 400.0147,-89.1214"/><polygon fill="#191970" stroke="#191970" points="402.782 -91.27 406.622 -81.396 397.462 -86.721 402.782 -91.27"/></g><g id="edge41" class="edge"><title>Node22-&gt;Node3</title><path fill="none" stroke="#191970" d="M1294.3047,-159.0863C1285.9867,-161.2396 1277.3244,-163.2976 1269.0841,-165 1165.1053,-186.4817 1042.1296,-202.2394 969.2204,-210.3381"/><polygon fill="#191970" stroke="#191970" points="968.831 -206.86 959.272 -211.43 969.594 -213.818 968.831 -206.86"/></g><g id="edge43" class="edge"><title>Node23-&gt;Node3</title><path fill="none" stroke="#191970" d="M1426.1818,-164.5482C1425.4799,-164.7033 1424.7805,-164.854 1424.0841,-165 1262.6748,-198.8406 1067.6377,-210.6842 969.2328,-214.6374"/><polygon fill="#191970" stroke="#191970" points="969.011 -211.143 959.154 -215.028 969.282 -218.138 969.011 -211.143"/></g></g></svg>