<svg xmlns="http://www.w3.org/2000/svg" xmlns:xlink="http://www.w3.org/1999/xlink" width="116pt" height="106pt" viewBox="0 0 116 106"><g id="graph0" class="graph" transform="scale(1 1) rotate(0) translate(4 102)"><title>include/client/mir_toolkit/mir_blob.h</title><polygon fill="#fff" stroke="transparent" points="-4 4 -4 -102 112 -102 112 4 -4 4"/><g id="node1" class="node"><title>Node24</title><polygon fill="#bfbfbf" stroke="#000" points="0 -67.5 0 -97.5 108 -97.5 108 -67.5 0 -67.5"/><text x="8" y="-85.5" fill="#000" font-family="Arial" font-size="10" text-anchor="start">include/client/mir</text><text x="54" y="-74.5" fill="#000" font-family="Arial" font-size="10" text-anchor="middle">_toolkit/mir_blob.h</text></g><g id="node2" class="node"><title>Node25</title><g id="a_node2"><a target="_top" xlink:href="blob_8h.html" xlink:title="include/client/mir\l/client/blob.h"><polygon fill="#fff" stroke="#000" points="3.5 -.5 3.5 -30.5 104.5 -30.5 104.5 -.5 3.5 -.5"/><text x="11.5" y="-18.5" fill="#000" font-family="Arial" font-size="10" text-anchor="start">include/client/mir</text><text x="54" y="-7.5" fill="#000" font-family="Arial" font-size="10" text-anchor="middle">/client/blob.h</text></a></g></g><g id="edge1" class="edge"><title>Node24-&gt;Node25</title><path fill="none" stroke="#191970" d="M54,-57.0249C54,-48.128 54,-38.4287 54,-30.6432"/><polygon fill="#191970" stroke="#191970" points="50.5 -57.297 54 -67.297 57.5 -57.297 50.5 -57.297"/></g></g></svg>