<svg xmlns="http://www.w3.org/2000/svg" xmlns:xlink="http://www.w3.org/1999/xlink" width="2987pt" height="586pt" viewBox="0 0 2986.5 586"><g id="graph0" class="graph" transform="scale(1 1) rotate(0) translate(4 582)"><title>include/client/mir_toolkit/mir_prompt_session.h</title><polygon fill="#fff" stroke="transparent" points="-4 4 -4 -582 2982.5 -582 2982.5 4 -4 4"/><g id="node1" class="node"><title>Node0</title><polygon fill="#bfbfbf" stroke="#000" points="1779.5 -536.5 1779.5 -577.5 1892.5 -577.5 1892.5 -536.5 1779.5 -536.5"/><text x="1787.5" y="-565.5" fill="#000" font-family="Arial" font-size="10" text-anchor="start">include/client/mir</text><text x="1787.5" y="-554.5" fill="#000" font-family="Arial" font-size="10" text-anchor="start">_toolkit/mir_prompt</text><text x="1836" y="-543.5" fill="#000" font-family="Arial" font-size="10" text-anchor="middle">_session.h</text></g><g id="node2" class="node"><title>Node1</title><g id="a_node2"><a target="_top" xlink:href="mir__client__library_8h.html" xlink:title="mir_toolkit/mir_client\l_library.h"><polygon fill="#fff" stroke="#000" points="1775 -469.5 1775 -499.5 1897 -499.5 1897 -469.5 1775 -469.5"/><text x="1783" y="-487.5" fill="#000" font-family="Arial" font-size="10" text-anchor="start">mir_toolkit/mir_client</text><text x="1836" y="-476.5" fill="#000" font-family="Arial" font-size="10" text-anchor="middle">_library.h</text></a></g></g><g id="edge1" class="edge"><title>Node0-&gt;Node1</title><path fill="none" stroke="#191970" d="M1836,-536.4183C1836,-528.0849 1836,-518.3834 1836,-509.6373"/><polygon fill="#191970" stroke="#191970" points="1839.5 -509.599 1836 -499.599 1832.5 -509.599 1839.5 -509.599"/></g><g id="node12" class="node"><title>Node11</title><polygon fill="#fff" stroke="#bfbfbf" points="882 -.5 882 -19.5 944 -19.5 944 -.5 882 -.5"/><text x="913" y="-7.5" fill="#000" font-family="Arial" font-size="10" text-anchor="middle">stdbool.h</text></g><g id="edge108" class="edge"><title>Node0-&gt;Node11</title><path fill="none" stroke="#191970" d="M1779.4115,-555.3081C1487.3451,-546.2126 164,-500.4256 164,-417.5 164,-417.5 164,-417.5 164,-144 164,-103.9877 152.6703,-82.0978 183,-56 196.1455,-44.6887 718.6761,-19.1744 871.4553,-11.9433"/><polygon fill="#191970" stroke="#191970" points="871.981 -15.422 881.804 -11.455 871.65 -8.43 871.981 -15.422"/></g><g id="node39" class="node"><title>Node38</title><polygon fill="#fff" stroke="#bfbfbf" points="2757 -341 2757 -360 2829 -360 2829 -341 2757 -341"/><text x="2793" y="-348" fill="#000" font-family="Arial" font-size="10" text-anchor="middle">sys/types.h</text></g><g id="edge107" class="edge"><title>Node0-&gt;Node38</title><path fill="none" stroke="#191970" d="M1892.7442,-554.8905C2107.021,-546.3518 2858.3452,-511.0119 2928,-433 2937.1763,-422.7227 2935.8156,-413.3465 2928,-402 2925.0402,-397.7031 2868.8917,-377.2338 2829.9496,-363.4314"/><polygon fill="#191970" stroke="#191970" points="2831.057 -360.111 2820.463 -360.08 2828.726 -366.711 2831.057 -360.111"/></g><g id="node3" class="node"><title>Node2</title><g id="a_node3"><a target="_top" xlink:href="mir__connection_8h.html" xlink:title="mir_toolkit/mir_connection.h"><polygon fill="#fff" stroke="#000" points="2429.5 -341 2429.5 -360 2586.5 -360 2586.5 -341 2429.5 -341"/><text x="2508" y="-348" fill="#000" font-family="Arial" font-size="10" text-anchor="middle">mir_toolkit/mir_connection.h</text></a></g></g><g id="edge2" class="edge"><title>Node1-&gt;Node2</title><path fill="none" stroke="#191970" d="M1897.0474,-482.7567C2045.4255,-478.0598 2416.2778,-463.3911 2463,-433 2485.1557,-418.5885 2497.2909,-389.3793 2503.2155,-369.8718"/><polygon fill="#191970" stroke="#191970" points="2506.602 -370.759 2505.892 -360.188 2499.854 -368.894 2506.602 -370.759"/></g><g id="node27" class="node"><title>Node26</title><g id="a_node27"><a target="_top" xlink:href="mir__surface_8h.html" xlink:title="mir_toolkit/mir_surface.h"><polygon fill="#fff" stroke="#000" points="1864 -408 1864 -427 2004 -427 2004 -408 1864 -408"/><text x="1934" y="-415" fill="#000" font-family="Arial" font-size="10" text-anchor="middle">mir_toolkit/mir_surface.h</text></a></g></g><g id="edge51" class="edge"><title>Node1-&gt;Node26</title><path fill="none" stroke="#191970" d="M1858.2377,-469.2967C1874.2478,-458.351 1895.7563,-443.6462 1911.7656,-432.701"/><polygon fill="#191970" stroke="#191970" points="1913.744 -435.588 1920.024 -427.055 1909.794 -429.81 1913.744 -435.588"/></g><g id="node30" class="node"><title>Node29</title><g id="a_node30"><a target="_top" xlink:href="mir__window_8h.html" xlink:title="mir_toolkit/mir_window.h"><polygon fill="#fff" stroke="#000" points="2164 -408 2164 -427 2304 -427 2304 -408 2164 -408"/><text x="2234" y="-415" fill="#000" font-family="Arial" font-size="10" text-anchor="middle">mir_toolkit/mir_window.h</text></a></g></g><g id="edge61" class="edge"><title>Node1-&gt;Node29</title><path fill="none" stroke="#191970" d="M1897.2582,-475.2374C1961.5572,-465.3682 2065.5379,-448.9931 2155,-433 2162.0943,-431.7318 2169.5357,-430.3456 2176.8966,-428.9405"/><polygon fill="#191970" stroke="#191970" points="2177.688 -432.352 2186.844 -427.022 2176.362 -425.479 2177.688 -432.352"/></g><g id="node31" class="node"><title>Node30</title><g id="a_node31"><a target="_top" xlink:href="mir__wait_8h.html" xlink:title="mir_toolkit/mir_wait.h"><polygon fill="#fff" stroke="#000" points="1309.5 -341 1309.5 -360 1434.5 -360 1434.5 -341 1309.5 -341"/><text x="1372" y="-348" fill="#000" font-family="Arial" font-size="10" text-anchor="middle">mir_toolkit/mir_wait.h</text></a></g></g><g id="edge68" class="edge"><title>Node1-&gt;Node30</title><path fill="none" stroke="#191970" d="M1774.9543,-479.0498C1689.0141,-470.7782 1537.1325,-453.7957 1486,-433 1447.6411,-417.3994 1410.1015,-386.2903 1389.1123,-367.0485"/><polygon fill="#191970" stroke="#191970" points="1391.358 -364.356 1381.666 -360.077 1386.574 -369.466 1391.358 -364.356"/></g><g id="node32" class="node"><title>Node31</title><g id="a_node32"><a target="_top" xlink:href="mir__presentation__chain_8h.html" xlink:title="mir_toolkit/mir_presentation\l_chain.h"><polygon fill="#fff" stroke="#000" points="1652 -402.5 1652 -432.5 1808 -432.5 1808 -402.5 1652 -402.5"/><text x="1660" y="-420.5" fill="#000" font-family="Arial" font-size="10" text-anchor="start">mir_toolkit/mir_presentation</text><text x="1730" y="-409.5" fill="#000" font-family="Arial" font-size="10" text-anchor="middle">_chain.h</text></a></g></g><g id="edge71" class="edge"><title>Node1-&gt;Node31</title><path fill="none" stroke="#191970" d="M1812.2115,-469.4639C1797.5849,-460.2188 1778.6417,-448.2452 1762.6261,-438.1222"/><polygon fill="#191970" stroke="#191970" points="1764.399 -435.102 1754.076 -432.718 1760.659 -441.019 1764.399 -435.102"/></g><g id="node33" class="node"><title>Node32</title><g id="a_node33"><a target="_top" xlink:href="mir__render__surface_8h.html" xlink:title="mir_toolkit/rs/mir\l_render_surface.h"><polygon fill="#fff" stroke="#000" points="1453 -335.5 1453 -365.5 1557 -365.5 1557 -335.5 1453 -335.5"/><text x="1461" y="-353.5" fill="#000" font-family="Arial" font-size="10" text-anchor="start">mir_toolkit/rs/mir</text><text x="1505" y="-342.5" fill="#000" font-family="Arial" font-size="10" text-anchor="middle">_render_surface.h</text></a></g></g><g id="edge73" class="edge"><title>Node1-&gt;Node32</title><path fill="none" stroke="#191970" d="M1774.8562,-479.438C1682.6205,-471.1753 1516.7137,-453.6264 1499,-433 1485.5633,-417.3539 1489.0905,-393.2989 1494.7772,-375.1936"/><polygon fill="#191970" stroke="#191970" points="1498.141 -376.179 1498.163 -365.584 1491.539 -373.853 1498.141 -376.179"/></g><g id="node34" class="node"><title>Node33</title><g id="a_node34"><a target="_top" xlink:href="mir__buffer_8h.html" xlink:title="mir_toolkit/mir_buffer.h"><polygon fill="#fff" stroke="#000" points="2322.5 -408 2322.5 -427 2453.5 -427 2453.5 -408 2322.5 -408"/><text x="2388" y="-415" fill="#000" font-family="Arial" font-size="10" text-anchor="middle">mir_toolkit/mir_buffer.h</text></a></g></g><g id="edge76" class="edge"><title>Node1-&gt;Node33</title><path fill="none" stroke="#191970" d="M1897.2386,-479.7864C1988.2587,-472.3519 2164.4728,-456.3104 2313,-433 2320.2244,-431.8662 2327.8063,-430.5041 2335.2588,-429.0642"/><polygon fill="#191970" stroke="#191970" points="2336.171 -432.451 2345.295 -427.067 2334.804 -425.586 2336.171 -432.451"/></g><g id="node35" class="node"><title>Node34</title><g id="a_node35"><a target="_top" xlink:href="mir__buffer__stream_8h.html" xlink:title="mir_toolkit/mir_buffer\l_stream.h"><polygon fill="#fff" stroke="#000" points="2022.5 -402.5 2022.5 -432.5 2145.5 -432.5 2145.5 -402.5 2022.5 -402.5"/><text x="2030.5" y="-420.5" fill="#000" font-family="Arial" font-size="10" text-anchor="start">mir_toolkit/mir_buffer</text><text x="2084" y="-409.5" fill="#000" font-family="Arial" font-size="10" text-anchor="middle">_stream.h</text></a></g></g><g id="edge80" class="edge"><title>Node1-&gt;Node34</title><path fill="none" stroke="#191970" d="M1891.656,-469.4639C1929.1771,-459.3272 1978.8392,-445.9104 2018.3017,-435.2491"/><polygon fill="#191970" stroke="#191970" points="2019.36 -438.589 2028.101 -432.602 2017.534 -431.831 2019.36 -438.589"/></g><g id="node36" class="node"><title>Node35</title><g id="a_node36"><a target="_top" xlink:href="client_2mir__toolkit_2version_8h.html" xlink:title="mir_toolkit/version.h"><polygon fill="#fff" stroke="#000" points="2801 -408 2801 -427 2919 -427 2919 -408 2801 -408"/><text x="2860" y="-415" fill="#000" font-family="Arial" font-size="10" text-anchor="middle">mir_toolkit/version.h</text></a></g></g><g id="edge84" class="edge"><title>Node1-&gt;Node35</title><path fill="none" stroke="#191970" d="M1897.161,-482.5691C2079.5911,-476.5936 2618.0272,-457.333 2792,-433 2798.9289,-432.0309 2806.1942,-430.7096 2813.291,-429.2445"/><polygon fill="#191970" stroke="#191970" points="2814.483 -432.567 2823.509 -427.019 2812.994 -425.727 2814.483 -432.567"/></g><g id="node38" class="node"><title>Node37</title><g id="a_node38"><a target="_top" xlink:href="mir__platform__message_8h.html" xlink:title="mir_toolkit/mir_platform\l_message.h"><polygon fill="#fff" stroke="#000" points="2510.5 -402.5 2510.5 -432.5 2647.5 -432.5 2647.5 -402.5 2510.5 -402.5"/><text x="2518.5" y="-420.5" fill="#000" font-family="Arial" font-size="10" text-anchor="start">mir_toolkit/mir_platform</text><text x="2579" y="-409.5" fill="#000" font-family="Arial" font-size="10" text-anchor="middle">_message.h</text></a></g></g><g id="edge86" class="edge"><title>Node1-&gt;Node37</title><path fill="none" stroke="#191970" d="M1897.1923,-481.9104C2014.0004,-476.4838 2276.6594,-461.9541 2496,-433 2497.3079,-432.8273 2498.6265,-432.6477 2499.9533,-432.4617"/><polygon fill="#191970" stroke="#191970" points="2500.875 -435.863 2510.248 -430.924 2499.841 -428.94 2500.875 -435.863"/></g><g id="node40" class="node"><title>Node39</title><g id="a_node40"><a target="_top" xlink:href="cursors_8h.html" xlink:title="mir_toolkit/cursors.h"><polygon fill="#fff" stroke="#000" points="2665.5 -408 2665.5 -427 2782.5 -427 2782.5 -408 2665.5 -408"/><text x="2724" y="-415" fill="#000" font-family="Arial" font-size="10" text-anchor="middle">mir_toolkit/cursors.h</text></a></g></g><g id="edge89" class="edge"><title>Node1-&gt;Node39</title><path fill="none" stroke="#191970" d="M1897.1533,-481.9729C2061.5205,-474.9715 2510.2961,-454.4217 2657,-433 2663.7468,-432.0148 2670.8178,-430.6978 2677.7325,-429.2461"/><polygon fill="#191970" stroke="#191970" points="2678.686 -432.62 2687.696 -427.046 2677.176 -425.785 2678.686 -432.62"/></g><g id="node41" class="node"><title>Node40</title><g id="a_node41"><a target="_top" xlink:href="mir__cookie_8h.html" xlink:title="mir_toolkit/mir_cookie.h"><polygon fill="#fff" stroke="#000" points="0 -274 0 -293 136 -293 136 -274 0 -274"/><text x="68" y="-281" fill="#000" font-family="Arial" font-size="10" text-anchor="middle">mir_toolkit/mir_cookie.h</text></a></g></g><g id="edge90" class="edge"><title>Node1-&gt;Node40</title><path fill="none" stroke="#191970" d="M1774.9169,-482.2197C1643.2442,-476.9195 1322.973,-461.9601 1056,-433 704.1287,-394.8305 285.5929,-322.5467 130.1364,-294.7666"/><polygon fill="#191970" stroke="#191970" points="130.741 -291.319 120.281 -293.002 129.507 -298.21 130.741 -291.319"/></g><g id="node42" class="node"><title>Node41</title><g id="a_node42"><a target="_top" xlink:href="mir__display__configuration_8h.html" xlink:title="mir_toolkit/mir_display\l_configuration.h"><polygon fill="#fff" stroke="#000" points="1689 -335.5 1689 -365.5 1819 -365.5 1819 -335.5 1689 -335.5"/><text x="1697" y="-353.5" fill="#000" font-family="Arial" font-size="10" text-anchor="start">mir_toolkit/mir_display</text><text x="1754" y="-342.5" fill="#000" font-family="Arial" font-size="10" text-anchor="middle">_configuration.h</text></a></g></g><g id="edge92" class="edge"><title>Node1-&gt;Node41</title><path fill="none" stroke="#191970" d="M1835.4275,-469.3916C1834.1414,-451.9494 1830.031,-422.974 1817,-402 1809.6333,-390.1429 1798.5674,-379.7664 1787.7555,-371.4941"/><polygon fill="#191970" stroke="#191970" points="1789.755 -368.62 1779.603 -365.589 1785.648 -374.289 1789.755 -368.62"/></g><g id="node43" class="node"><title>Node42</title><g id="a_node43"><a target="_top" xlink:href="mir__input__device_8h.html" xlink:title="mir_toolkit/mir_input\l_device.h"><polygon fill="#fff" stroke="#000" points="814.5 -335.5 814.5 -365.5 933.5 -365.5 933.5 -335.5 814.5 -335.5"/><text x="822.5" y="-353.5" fill="#000" font-family="Arial" font-size="10" text-anchor="start">mir_toolkit/mir_input</text><text x="874" y="-342.5" fill="#000" font-family="Arial" font-size="10" text-anchor="middle">_device.h</text></a></g></g><g id="edge95" class="edge"><title>Node1-&gt;Node42</title><path fill="none" stroke="#191970" d="M1774.8829,-482.7649C1662.0116,-478.8374 1413.5232,-466.811 1207,-433 1110.1397,-417.1425 999.9959,-387.5151 933.8057,-368.4164"/><polygon fill="#191970" stroke="#191970" points="934.547 -364.987 923.967 -365.562 932.596 -371.71 934.547 -364.987"/></g><g id="node44" class="node"><title>Node43</title><g id="a_node44"><a target="_top" xlink:href="mir__error_8h.html" xlink:title="mir_toolkit/mir_error.h"><polygon fill="#fff" stroke="#000" points="1508 -408 1508 -427 1634 -427 1634 -408 1508 -408"/><text x="1571" y="-415" fill="#000" font-family="Arial" font-size="10" text-anchor="middle">mir_toolkit/mir_error.h</text></a></g></g><g id="edge98" class="edge"><title>Node1-&gt;Node43</title><path fill="none" stroke="#191970" d="M1776.5288,-469.4639C1728.8192,-457.4015 1662.7389,-440.6944 1618.5135,-429.5128"/><polygon fill="#191970" stroke="#191970" points="1619.148 -426.063 1608.595 -427.005 1617.432 -432.85 1619.148 -426.063"/></g><g id="node45" class="node"><title>Node44</title><g id="a_node45"><a target="_top" xlink:href="mir__persistent__id_8h.html" xlink:title="mir_toolkit/mir_persistent_id.h"><polygon fill="#fff" stroke="#000" points="951.5 -341 951.5 -360 1118.5 -360 1118.5 -341 951.5 -341"/><text x="1035" y="-348" fill="#000" font-family="Arial" font-size="10" text-anchor="middle">mir_toolkit/mir_persistent_id.h</text></a></g></g><g id="edge100" class="edge"><title>Node1-&gt;Node44</title><path fill="none" stroke="#191970" d="M1774.9944,-481.4986C1680.1892,-476.1014 1492.0536,-462.4561 1335,-433 1239.3395,-415.0585 1129.7224,-381.5036 1073.1836,-363.2017"/><polygon fill="#191970" stroke="#191970" points="1074.18 -359.846 1063.588 -360.077 1072.013 -366.501 1074.18 -359.846"/></g><g id="node46" class="node"><title>Node45</title><g id="a_node46"><a target="_top" xlink:href="mir__window__id_8h.html" xlink:title="mir_toolkit/mir_window_id.h"><polygon fill="#fff" stroke="#000" points="1136.5 -341 1136.5 -360 1291.5 -360 1291.5 -341 1136.5 -341"/><text x="1214" y="-348" fill="#000" font-family="Arial" font-size="10" text-anchor="middle">mir_toolkit/mir_window_id.h</text></a></g></g><g id="edge104" class="edge"><title>Node1-&gt;Node45</title><path fill="none" stroke="#191970" d="M1774.8186,-481.3498C1694.439,-476.1729 1549.3661,-463.2389 1429,-433 1360.4017,-415.7664 1283.9371,-382.9522 1243.2393,-364.3221"/><polygon fill="#191970" stroke="#191970" points="1244.472 -361.036 1233.926 -360.02 1241.537 -367.391 1244.472 -361.036"/></g><g id="node4" class="node"><title>Node3</title><g id="a_node4"><a target="_top" xlink:href="client__types_8h.html" xlink:title="mir_toolkit/client\l_types.h"><polygon fill="#fff" stroke="#000" points="1592 -268.5 1592 -298.5 1692 -298.5 1692 -268.5 1592 -268.5"/><text x="1600" y="-286.5" fill="#000" font-family="Arial" font-size="10" text-anchor="start">mir_toolkit/client</text><text x="1642" y="-275.5" fill="#000" font-family="Arial" font-size="10" text-anchor="middle">_types.h</text></a></g></g><g id="edge3" class="edge"><title>Node2-&gt;Node3</title><path fill="none" stroke="#191970" d="M2429.3514,-342.9953C2400.8956,-340.357 2368.5098,-337.4433 2339,-335 2103.7093,-315.519 1823.4299,-295.8998 1702.4815,-287.6069"/><polygon fill="#191970" stroke="#191970" points="1702.533 -284.102 1692.317 -286.911 1702.055 -291.086 1702.533 -284.102"/></g><g id="node8" class="node"><title>Node7</title><g id="a_node8"><a target="_top" xlink:href="common_8h.html" xlink:title="mir_toolkit/common.h"><polygon fill="#fff" stroke="#000" points="2171.5 -134.5 2171.5 -153.5 2296.5 -153.5 2296.5 -134.5 2171.5 -134.5"/><text x="2234" y="-141.5" fill="#000" font-family="Arial" font-size="10" text-anchor="middle">mir_toolkit/common.h</text></a></g></g><g id="edge48" class="edge"><title>Node2-&gt;Node7</title><path fill="none" stroke="#191970" d="M2491.0643,-340.8424C2474.0015,-330.9169 2447.1062,-314.7329 2425,-299 2358.9262,-251.9754 2285.7752,-189.4222 2252.4074,-160.2568"/><polygon fill="#191970" stroke="#191970" points="2254.635 -157.555 2244.81 -153.591 2250.019 -162.817 2254.635 -157.555"/></g><g id="node9" class="node"><title>Node8</title><g id="a_node9"><a target="_top" xlink:href="deprecations_8h.html" xlink:title="mir_toolkit/deprecations.h"><polygon fill="#fff" stroke="#000" points="2013.5 -62 2013.5 -81 2158.5 -81 2158.5 -62 2013.5 -62"/><text x="2086" y="-69" fill="#000" font-family="Arial" font-size="10" text-anchor="middle">mir_toolkit/deprecations.h</text></a></g></g><g id="edge49" class="edge"><title>Node2-&gt;Node8</title><path fill="none" stroke="#191970" d="M2505.4079,-340.8151C2494.6141,-301.213 2452.0696,-152.3085 2415,-123 2377.8483,-93.6265 2253.4926,-80.7567 2168.7712,-75.2972"/><polygon fill="#191970" stroke="#191970" points="2168.842 -71.795 2158.644 -74.668 2168.408 -78.781 2168.842 -71.795"/></g><g id="edge50" class="edge"><title>Node2-&gt;Node11</title><path fill="none" stroke="#191970" d="M2508.8583,-340.7574C2510.7275,-318.6708 2515,-263.0912 2515,-216.5 2515,-216.5 2515,-216.5 2515,-144 2515,-122.944 2578.7017,-113.135 2168,-56 1925.5916,-22.2772 1143.1534,-12.3246 954.3035,-10.3861"/><polygon fill="#191970" stroke="#191970" points="954.272 -6.886 944.237 -10.285 954.201 -13.885 954.272 -6.886"/></g><g id="node5" class="node"><title>Node4</title><g id="a_node5"><a target="_top" xlink:href="toolkit_2events_2event_8h.html" xlink:title="mir_toolkit/events\l/event.h"><polygon fill="#fff" stroke="#000" points="1186 -201.5 1186 -231.5 1292 -231.5 1292 -201.5 1186 -201.5"/><text x="1194" y="-219.5" fill="#000" font-family="Arial" font-size="10" text-anchor="start">mir_toolkit/events</text><text x="1239" y="-208.5" fill="#000" font-family="Arial" font-size="10" text-anchor="middle">/event.h</text></a></g></g><g id="edge4" class="edge"><title>Node3-&gt;Node4</title><path fill="none" stroke="#191970" d="M1591.7746,-275.1499C1518.4248,-262.9552 1382.051,-240.2827 1302.0499,-226.9822"/><polygon fill="#191970" stroke="#191970" points="1302.542 -223.516 1292.104 -225.329 1301.394 -230.421 1302.542 -223.516"/></g><g id="node6" class="node"><title>Node5</title><polygon fill="#fff" stroke="#bfbfbf" points="306 -134.5 306 -153.5 362 -153.5 362 -134.5 306 -134.5"/><text x="334" y="-141.5" fill="#000" font-family="Arial" font-size="10" text-anchor="middle">stddef.h</text></g><g id="edge47" class="edge"><title>Node3-&gt;Node5</title><path fill="none" stroke="#191970" d="M1591.6789,-281.2694C1386.2475,-271.783 610.9312,-232.1713 376,-165 370.3173,-163.3752 364.4847,-160.9864 359.043,-158.3967"/><polygon fill="#191970" stroke="#191970" points="360.281 -155.098 349.787 -153.64 357.081 -161.324 360.281 -155.098"/></g><g id="edge45" class="edge"><title>Node3-&gt;Node7</title><path fill="none" stroke="#191970" d="M1692.2362,-281.503C1767.8667,-277.4769 1914.9074,-265.6675 2035,-232 2099.7762,-213.8403 2170.7308,-178.3606 2207.921,-158.4461"/><polygon fill="#191970" stroke="#191970" points="2209.925 -161.341 2217.054 -153.504 2206.593 -155.185 2209.925 -161.341"/></g><g id="edge46" class="edge"><title>Node3-&gt;Node8</title><path fill="none" stroke="#191970" d="M1692.1692,-274.0522C1787.449,-255.2621 1989.8303,-211.0291 2043,-165 2065.4312,-145.5813 2076.8545,-112.0145 2082.1126,-90.8244"/><polygon fill="#191970" stroke="#191970" points="2085.54 -91.537 2084.326 -81.012 2078.711 -89.997 2085.54 -91.537"/></g><g id="edge5" class="edge"><title>Node4-&gt;Node5</title><path fill="none" stroke="#191970" d="M1185.5219,-213.0776C1135.4957,-209.8919 1058.6903,-205.0412 992,-201 855.1286,-192.706 508.478,-200.3855 376,-165 370.0461,-163.4097 363.9462,-160.9275 358.3057,-158.2188"/><polygon fill="#191970" stroke="#191970" points="359.841 -155.072 349.354 -153.564 356.611 -161.283 359.841 -155.072"/></g><g id="node7" class="node"><title>Node6</title><polygon fill="#fff" stroke="#bfbfbf" points="291.5 -.5 291.5 -19.5 344.5 -19.5 344.5 -.5 291.5 -.5"/><text x="318" y="-7.5" fill="#000" font-family="Arial" font-size="10" text-anchor="middle">stdint.h</text></g><g id="edge6" class="edge"><title>Node4-&gt;Node6</title><path fill="none" stroke="#191970" d="M1185.7406,-214.5696C1007.6407,-207.9358 442.1362,-185.359 409,-165 382.9964,-149.0233 343.6013,-66.9658 326.4617,-29.14"/><polygon fill="#191970" stroke="#191970" points="329.531 -27.43 322.247 -19.736 323.143 -30.293 329.531 -27.43"/></g><g id="edge7" class="edge"><title>Node4-&gt;Node7</title><path fill="none" stroke="#191970" d="M1292.2173,-213.931C1421.1573,-207.5236 1760.4809,-189.5667 2043,-165 2082.0203,-161.607 2125.4243,-156.909 2160.9834,-152.8168"/><polygon fill="#191970" stroke="#191970" points="2161.742 -156.252 2171.273 -151.625 2160.936 -149.299 2161.742 -156.252"/></g><g id="edge9" class="edge"><title>Node4-&gt;Node8</title><path fill="none" stroke="#191970" d="M1292.1568,-215.3946C1456.0947,-211.648 1946.6283,-197.7899 2010,-165 2026.5567,-156.4332 2056.8976,-114.4744 2073.8039,-89.772"/><polygon fill="#191970" stroke="#191970" points="2076.862 -91.498 2079.569 -81.255 2071.065 -87.574 2076.862 -91.498"/></g><g id="node10" class="node"><title>Node9</title><g id="a_node10"><a target="_top" xlink:href="input__event_8h.html" xlink:title="mir_toolkit/events\l/input/input_event.h"><polygon fill="#fff" stroke="#000" points="542 -129 542 -159 656 -159 656 -129 542 -129"/><text x="550" y="-147" fill="#000" font-family="Arial" font-size="10" text-anchor="start">mir_toolkit/events</text><text x="599" y="-136" fill="#000" font-family="Arial" font-size="10" text-anchor="middle">/input/input_event.h</text></a></g></g><g id="edge10" class="edge"><title>Node4-&gt;Node9</title><path fill="none" stroke="#191970" d="M1185.9055,-211.235C1098.7669,-201.9945 920.4986,-182.2036 770,-165 735.7299,-161.0826 697.7996,-156.6689 666.3364,-152.9026"/><polygon fill="#191970" stroke="#191970" points="666.707 -149.422 656.361 -151.704 665.872 -156.372 666.707 -149.422"/></g><g id="node17" class="node"><title>Node16</title><g id="a_node17"><a target="_top" xlink:href="resize__event_8h.html" xlink:title="mir_toolkit/events\l/resize_event.h"><polygon fill="#fff" stroke="#000" points="788 -129 788 -159 894 -159 894 -129 788 -129"/><text x="796" y="-147" fill="#000" font-family="Arial" font-size="10" text-anchor="start">mir_toolkit/events</text><text x="841" y="-136" fill="#000" font-family="Arial" font-size="10" text-anchor="middle">/resize_event.h</text></a></g></g><g id="edge21" class="edge"><title>Node4-&gt;Node16</title><path fill="none" stroke="#191970" d="M1185.7225,-211.8881C1117.2535,-204.902 995.4783,-189.762 894,-165 890.3635,-164.1126 886.6364,-163.106 882.9214,-162.0254"/><polygon fill="#191970" stroke="#191970" points="883.774 -158.626 873.186 -159.024 881.711 -165.315 883.774 -158.626"/></g><g id="node18" class="node"><title>Node17</title><g id="a_node18"><a target="_top" xlink:href="surface__event_8h.html" xlink:title="mir_toolkit/events\l/surface_event.h"><polygon fill="#fff" stroke="#000" points="1611 -129 1611 -159 1717 -159 1717 -129 1611 -129"/><text x="1619" y="-147" fill="#000" font-family="Arial" font-size="10" text-anchor="start">mir_toolkit/events</text><text x="1664" y="-136" fill="#000" font-family="Arial" font-size="10" text-anchor="middle">/surface_event.h</text></a></g></g><g id="edge23" class="edge"><title>Node4-&gt;Node17</title><path fill="none" stroke="#191970" d="M1292.063,-211.4854C1361.8302,-204.5934 1487.5799,-190.1016 1593,-165 1596.7485,-164.1074 1600.5917,-163.0829 1604.4595,-161.9771"/><polygon fill="#191970" stroke="#191970" points="1605.513 -165.315 1614.085 -159.089 1603.501 -158.611 1605.513 -165.315"/></g><g id="node19" class="node"><title>Node18</title><g id="a_node19"><a target="_top" xlink:href="window__event_8h.html" xlink:title="mir_toolkit/events\l/window_event.h"><polygon fill="#fff" stroke="#000" points="912 -129 912 -159 1018 -159 1018 -129 912 -129"/><text x="920" y="-147" fill="#000" font-family="Arial" font-size="10" text-anchor="start">mir_toolkit/events</text><text x="965" y="-136" fill="#000" font-family="Arial" font-size="10" text-anchor="middle">/window_event.h</text></a></g></g><g id="edge26" class="edge"><title>Node4-&gt;Node18</title><path fill="none" stroke="#191970" d="M1185.8039,-206.5101C1140.631,-196.8898 1074.5635,-181.4149 1018,-165 1014.8894,-164.0973 1011.703,-163.1353 1008.5086,-162.1385"/><polygon fill="#191970" stroke="#191970" points="1009.561 -158.8 998.969 -159.067 1007.416 -165.464 1009.561 -158.8"/></g><g id="node20" class="node"><title>Node19</title><g id="a_node20"><a target="_top" xlink:href="orientation__event_8h.html" xlink:title="mir_toolkit/events\l/orientation_event.h"><polygon fill="#fff" stroke="#000" points="1036.5 -129 1036.5 -159 1151.5 -159 1151.5 -129 1036.5 -129"/><text x="1044.5" y="-147" fill="#000" font-family="Arial" font-size="10" text-anchor="start">mir_toolkit/events</text><text x="1094" y="-136" fill="#000" font-family="Arial" font-size="10" text-anchor="middle">/orientation_event.h</text></a></g></g><g id="edge28" class="edge"><title>Node4-&gt;Node19</title><path fill="none" stroke="#191970" d="M1203.3632,-201.478C1180.1342,-190.5419 1150.1387,-175.626 1127.3755,-163.7297"/><polygon fill="#191970" stroke="#191970" points="1128.893 -160.573 1118.415 -159.003 1125.627 -166.764 1128.893 -160.573"/></g><g id="node21" class="node"><title>Node20</title><g id="a_node21"><a target="_top" xlink:href="prompt__session__event_8h.html" xlink:title="mir_toolkit/events\l/prompt_session_event.h"><polygon fill="#fff" stroke="#000" points="1169.5 -129 1169.5 -159 1308.5 -159 1308.5 -129 1169.5 -129"/><text x="1177.5" y="-147" fill="#000" font-family="Arial" font-size="10" text-anchor="start">mir_toolkit/events</text><text x="1239" y="-136" fill="#000" font-family="Arial" font-size="10" text-anchor="middle">/prompt_session_event.h</text></a></g></g><g id="edge30" class="edge"><title>Node4-&gt;Node20</title><path fill="none" stroke="#191970" d="M1233.4073,-201.478C1232.2494,-192.1459 1231.9604,-179.9157 1232.5402,-169.1368"/><polygon fill="#191970" stroke="#191970" points="1236.042 -169.265 1233.41 -159.003 1229.068 -168.667 1236.042 -169.265"/></g><g id="node22" class="node"><title>Node21</title><g id="a_node22"><a target="_top" xlink:href="keymap__event_8h.html" xlink:title="mir_toolkit/events\l/keymap_event.h"><polygon fill="#fff" stroke="#000" points="418 -129 418 -159 524 -159 524 -129 418 -129"/><text x="426" y="-147" fill="#000" font-family="Arial" font-size="10" text-anchor="start">mir_toolkit/events</text><text x="471" y="-136" fill="#000" font-family="Arial" font-size="10" text-anchor="middle">/keymap_event.h</text></a></g></g><g id="edge32" class="edge"><title>Node4-&gt;Node21</title><path fill="none" stroke="#191970" d="M1185.9646,-213.251C1025.7176,-202.9801 556.1458,-171.5062 524,-165 519.8648,-164.163 515.625,-163.1272 511.4254,-161.9677"/><polygon fill="#191970" stroke="#191970" points="512.351 -158.591 501.768 -159.073 510.342 -165.297 512.351 -158.591"/></g><g id="node23" class="node"><title>Node22</title><g id="a_node23"><a target="_top" xlink:href="input__configuration__event_8h.html" xlink:title="mir_toolkit/events\l/input_configuration\l_event.h"><polygon fill="#fff" stroke="#000" points="1735.5 -123.5 1735.5 -164.5 1848.5 -164.5 1848.5 -123.5 1735.5 -123.5"/><text x="1743.5" y="-152.5" fill="#000" font-family="Arial" font-size="10" text-anchor="start">mir_toolkit/events</text><text x="1743.5" y="-141.5" fill="#000" font-family="Arial" font-size="10" text-anchor="start">/input_configuration</text><text x="1792" y="-130.5" fill="#000" font-family="Arial" font-size="10" text-anchor="middle">_event.h</text></a></g></g><g id="edge35" class="edge"><title>Node4-&gt;Node22</title><path fill="none" stroke="#191970" d="M1292.3569,-214.1148C1381.2981,-209.5278 1564.7254,-196.9321 1717,-165 1719.8134,-164.41 1722.6769,-163.7471 1725.5639,-163.03"/><polygon fill="#191970" stroke="#191970" points="1726.665 -166.359 1735.432 -160.411 1724.869 -159.594 1726.665 -166.359"/></g><g id="node24" class="node"><title>Node23</title><g id="a_node24"><a target="_top" xlink:href="surface__output__event_8h.html" xlink:title="mir_toolkit/events\l/surface_output_event.h"><polygon fill="#fff" stroke="#000" points="1867 -129 1867 -159 2001 -159 2001 -129 1867 -129"/><text x="1875" y="-147" fill="#000" font-family="Arial" font-size="10" text-anchor="start">mir_toolkit/events</text><text x="1934" y="-136" fill="#000" font-family="Arial" font-size="10" text-anchor="middle">/surface_output_event.h</text></a></g></g><g id="edge38" class="edge"><title>Node4-&gt;Node23</title><path fill="none" stroke="#191970" d="M1292.2962,-215.2618C1398.894,-212.1253 1645.1631,-201.3131 1849,-165 1854.6118,-164.0003 1860.4087,-162.7702 1866.2209,-161.4111"/><polygon fill="#191970" stroke="#191970" points="1867.106 -164.798 1875.987 -159.02 1865.441 -157.999 1867.106 -164.798"/></g><g id="node25" class="node"><title>Node24</title><g id="a_node25"><a target="_top" xlink:href="window__output__event_8h.html" xlink:title="mir_toolkit/events\l/window_output_event.h"><polygon fill="#fff" stroke="#000" points="1327 -129 1327 -159 1463 -159 1463 -129 1327 -129"/><text x="1335" y="-147" fill="#000" font-family="Arial" font-size="10" text-anchor="start">mir_toolkit/events</text><text x="1395" y="-136" fill="#000" font-family="Arial" font-size="10" text-anchor="middle">/window_output_event.h</text></a></g></g><g id="edge41" class="edge"><title>Node4-&gt;Node24</title><path fill="none" stroke="#191970" d="M1265.7306,-201.478C1288.2993,-190.3475 1320.9747,-175.0944 1347.8784,-163.0981"/><polygon fill="#191970" stroke="#191970" points="1349.401 -166.252 1357.128 -159.003 1346.567 -159.851 1349.401 -166.252"/></g><g id="node26" class="node"><title>Node25</title><g id="a_node26"><a target="_top" xlink:href="input__device__state__event_8h.html" xlink:title="mir_toolkit/events\l/input_device_state\l_event.h"><polygon fill="#fff" stroke="#000" points="1481 -123.5 1481 -164.5 1593 -164.5 1593 -123.5 1481 -123.5"/><text x="1489" y="-152.5" fill="#000" font-family="Arial" font-size="10" text-anchor="start">mir_toolkit/events</text><text x="1489" y="-141.5" fill="#000" font-family="Arial" font-size="10" text-anchor="start">/input_device_state</text><text x="1537" y="-130.5" fill="#000" font-family="Arial" font-size="10" text-anchor="middle">_event.h</text></a></g></g><g id="edge43" class="edge"><title>Node4-&gt;Node25</title><path fill="none" stroke="#191970" d="M1292.3654,-204.7237C1337.9763,-195.166 1405.0269,-180.7336 1463,-165 1465.593,-164.2963 1468.2362,-163.5526 1470.9065,-162.7816"/><polygon fill="#191970" stroke="#191970" points="1472.06 -166.09 1480.653 -159.893 1470.071 -159.379 1472.06 -166.09"/></g><g id="edge8" class="edge"><title>Node7-&gt;Node8</title><path fill="none" stroke="#191970" d="M2214.3467,-134.3726C2188.9146,-121.9143 2144.3958,-100.1061 2115.0539,-85.7325"/><polygon fill="#191970" stroke="#191970" points="2116.255 -82.423 2105.735 -81.167 2113.175 -88.71 2116.255 -82.423"/></g><g id="edge11" class="edge"><title>Node9-&gt;Node4</title><path fill="none" stroke="#191970" d="M656.1502,-149.8558C693.7972,-154.103 743.9257,-159.9618 788,-165 926.4308,-180.8242 1088.3563,-198.8372 1175.6549,-208.8154"/><polygon fill="#191970" stroke="#191970" points="1175.334 -212.301 1185.667 -209.962 1176.131 -205.347 1175.334 -212.301"/></g><g id="edge14" class="edge"><title>Node9-&gt;Node6</title><path fill="none" stroke="#191970" d="M567.312,-128.889C512.4523,-102.7281 400.5644,-49.3724 347.3639,-24.0027"/><polygon fill="#191970" stroke="#191970" points="348.673 -20.749 338.14 -19.604 345.66 -27.068 348.673 -20.749"/></g><g id="node11" class="node"><title>Node10</title><g id="a_node11"><a target="_top" xlink:href="mir__input__device__types_8h.html" xlink:title="mir_toolkit/mir_input\l_device_types.h"><polygon fill="#fff" stroke="#000" points="192.5 -56.5 192.5 -86.5 311.5 -86.5 311.5 -56.5 192.5 -56.5"/><text x="200.5" y="-74.5" fill="#000" font-family="Arial" font-size="10" text-anchor="start">mir_toolkit/mir_input</text><text x="252" y="-63.5" fill="#000" font-family="Arial" font-size="10" text-anchor="middle">_device_types.h</text></a></g></g><g id="edge12" class="edge"><title>Node9-&gt;Node10</title><path fill="none" stroke="#191970" d="M554.4864,-128.9931C547.3439,-126.8295 539.9998,-124.7476 533,-123 461.7303,-105.2069 378.8714,-90.7642 321.688,-81.7508"/><polygon fill="#191970" stroke="#191970" points="322.094 -78.272 311.674 -80.186 321.014 -85.188 322.094 -78.272"/></g><g id="edge15" class="edge"><title>Node9-&gt;Node11</title><path fill="none" stroke="#191970" d="M649.3773,-128.9299C656.2983,-126.9092 663.3196,-124.885 670,-123 729.3499,-106.2534 749.114,-115.1138 804,-87 823.3991,-77.0634 824.3831,-68.8338 842,-56 857.0942,-45.004 874.7092,-33.5834 888.6175,-24.8725"/><polygon fill="#191970" stroke="#191970" points="890.508 -27.819 897.158 -19.571 886.816 -21.871 890.508 -27.819"/></g><g id="node13" class="node"><title>Node12</title><g id="a_node13"><a target="_top" xlink:href="touch__event_8h.html" xlink:title="mir_toolkit/events\l/input/touch_event.h"><polygon fill="#fff" stroke="#000" points="679 -56.5 679 -86.5 795 -86.5 795 -56.5 679 -56.5"/><text x="687" y="-74.5" fill="#000" font-family="Arial" font-size="10" text-anchor="start">mir_toolkit/events</text><text x="737" y="-63.5" fill="#000" font-family="Arial" font-size="10" text-anchor="middle">/input/touch_event.h</text></a></g></g><g id="edge16" class="edge"><title>Node9-&gt;Node12</title><path fill="none" stroke="#191970" d="M627.5937,-128.978C648.4099,-118.0419 676.8016,-103.126 699.4456,-91.2297"/><polygon fill="#191970" stroke="#191970" points="701.218 -94.252 708.443 -86.503 697.962 -88.055 701.218 -94.252"/></g><g id="node14" class="node"><title>Node13</title><g id="a_node14"><a target="_top" xlink:href="keyboard__event_8h.html" xlink:title="mir_toolkit/events\l/input/keyboard_event.h"><polygon fill="#fff" stroke="#000" points="525.5 -56.5 525.5 -86.5 660.5 -86.5 660.5 -56.5 525.5 -56.5"/><text x="533.5" y="-74.5" fill="#000" font-family="Arial" font-size="10" text-anchor="start">mir_toolkit/events</text><text x="593" y="-63.5" fill="#000" font-family="Arial" font-size="10" text-anchor="middle">/input/keyboard_event.h</text></a></g></g><g id="edge17" class="edge"><title>Node9-&gt;Node13</title><path fill="none" stroke="#191970" d="M597.7568,-128.978C596.9845,-119.6459 595.9723,-107.4157 595.0803,-96.6368"/><polygon fill="#191970" stroke="#191970" points="598.554 -96.18 594.242 -86.503 591.578 -96.757 598.554 -96.18"/></g><g id="node16" class="node"><title>Node15</title><g id="a_node16"><a target="_top" xlink:href="pointer__event_8h.html" xlink:title="mir_toolkit/events\l/input/pointer_event.h"><polygon fill="#fff" stroke="#000" points="851 -56.5 851 -86.5 975 -86.5 975 -56.5 851 -56.5"/><text x="859" y="-74.5" fill="#000" font-family="Arial" font-size="10" text-anchor="start">mir_toolkit/events</text><text x="913" y="-63.5" fill="#000" font-family="Arial" font-size="10" text-anchor="middle">/input/pointer_event.h</text></a></g></g><g id="edge19" class="edge"><title>Node9-&gt;Node15</title><path fill="none" stroke="#191970" d="M648.1327,-128.9227C655.4381,-126.8395 662.8976,-124.8 670,-123 686.526,-118.8117 775.3544,-100.1474 840.8565,-86.4889"/><polygon fill="#191970" stroke="#191970" points="841.671 -89.894 850.747 -84.428 840.243 -83.042 841.671 -89.894"/></g><g id="edge13" class="edge"><title>Node10-&gt;Node6</title><path fill="none" stroke="#191970" d="M268.3146,-56.2977C277.9533,-47.3163 290.1691,-35.9334 300.0759,-26.702"/><polygon fill="#191970" stroke="#191970" points="302.502 -29.225 307.433 -19.847 297.73 -24.104 302.502 -29.225"/></g><g id="node15" class="node"><title>Node14</title><polygon fill="#fff" stroke="#bfbfbf" points="473 -.5 473 -19.5 623 -19.5 623 -.5 473 -.5"/><text x="548" y="-7.5" fill="#000" font-family="Arial" font-size="10" text-anchor="middle">xkbcommon/xkbcommon.h</text></g><g id="edge18" class="edge"><title>Node13-&gt;Node14</title><path fill="none" stroke="#191970" d="M581.8764,-56.2977C575.6299,-47.7609 567.796,-37.0545 561.2353,-28.0883"/><polygon fill="#191970" stroke="#191970" points="563.935 -25.851 555.205 -19.847 558.286 -29.984 563.935 -25.851"/></g><g id="edge20" class="edge"><title>Node15-&gt;Node11</title><path fill="none" stroke="#191970" d="M913,-56.2977C913,-48.3834 913,-38.6043 913,-30.0759"/><polygon fill="#191970" stroke="#191970" points="916.5 -29.847 913 -19.847 909.5 -29.847 916.5 -29.847"/></g><g id="edge22" class="edge"><title>Node16-&gt;Node4</title><path fill="none" stroke="#191970" d="M890.9307,-159.0237C897.9887,-161.2367 905.1548,-163.3297 912,-165 1002.4749,-187.077 1109.0836,-201.5056 1175.4471,-209.3261"/><polygon fill="#191970" stroke="#191970" points="1175.406 -212.845 1185.744 -210.525 1176.216 -205.892 1175.406 -212.845"/></g><g id="edge24" class="edge"><title>Node17-&gt;Node4</title><path fill="none" stroke="#191970" d="M1631.8295,-159.0895C1625.0253,-161.2946 1617.8544,-163.3679 1611,-165 1504.4016,-190.3821 1377.0168,-204.916 1302.2709,-211.7136"/><polygon fill="#191970" stroke="#191970" points="1301.731 -208.248 1292.081 -212.622 1302.352 -215.22 1301.731 -208.248"/></g><g id="edge25" class="edge"><title>Node17-&gt;Node8</title><path fill="none" stroke="#191970" d="M1705.7194,-128.9315C1712.7615,-126.7239 1720.0436,-124.6443 1727,-123 1820.4908,-100.9009 1930.061,-86.8505 2003.3358,-79.1046"/><polygon fill="#191970" stroke="#191970" points="2003.845 -82.57 2013.429 -78.053 2003.12 -75.608 2003.845 -82.57"/></g><g id="edge27" class="edge"><title>Node18-&gt;Node4</title><path fill="none" stroke="#191970" d="M1016.7707,-159.0675C1023.2544,-161.1521 1029.7789,-163.1946 1036,-165 1082.6114,-178.5268 1135.6767,-191.4152 1175.9278,-200.9152"/><polygon fill="#191970" stroke="#191970" points="1175.337 -204.372 1185.873 -203.256 1176.941 -197.558 1175.337 -204.372"/></g><g id="edge29" class="edge"><title>Node19-&gt;Node4</title><path fill="none" stroke="#191970" d="M1129.5959,-159.0028C1152.817,-169.9342 1182.8128,-184.8495 1205.5844,-196.7494"/><polygon fill="#191970" stroke="#191970" points="1204.071 -199.908 1214.549 -201.478 1207.337 -193.717 1204.071 -199.908"/></g><g id="edge31" class="edge"><title>Node20-&gt;Node4</title><path fill="none" stroke="#191970" d="M1244.5903,-159.0028C1245.7494,-168.3309 1246.0396,-180.5601 1245.461,-191.3409"/><polygon fill="#191970" stroke="#191970" points="1241.959 -191.216 1244.593 -201.478 1248.933 -191.813 1241.959 -191.216"/></g><g id="edge33" class="edge"><title>Node21-&gt;Node4</title><path fill="none" stroke="#191970" d="M519.4591,-159.0734C526.9666,-161.3955 534.6485,-163.5121 542,-165 572.9704,-171.2683 1009.9626,-200.7118 1175.845,-212.0416"/><polygon fill="#191970" stroke="#191970" points="1175.686 -215.539 1185.901 -212.729 1176.164 -208.555 1175.686 -215.539"/></g><g id="edge34" class="edge"><title>Node21-&gt;Node14</title><path fill="none" stroke="#191970" d="M478.0402,-128.7174C486.4261,-110.8949 501.1724,-80.7222 516,-56 521.7325,-46.4422 528.7428,-36.2266 534.7392,-27.8561"/><polygon fill="#191970" stroke="#191970" points="537.682 -29.76 540.74 -19.616 532.024 -25.639 537.682 -29.76"/></g><g id="edge36" class="edge"><title>Node22-&gt;Node4</title><path fill="none" stroke="#191970" d="M1737.1271,-164.5423C1736.4154,-164.6993 1735.7061,-164.8519 1735,-165 1581.8567,-197.1142 1397.2043,-209.6709 1302.1557,-214.1926"/><polygon fill="#191970" stroke="#191970" points="1301.957 -210.698 1292.129 -214.655 1302.279 -217.69 1301.957 -210.698"/></g><g id="edge37" class="edge"><title>Node22-&gt;Node8</title><path fill="none" stroke="#191970" d="M1848.7898,-125.5894C1851.8978,-124.6885 1854.9829,-123.8191 1858,-123 1915.4651,-107.3988 1981.9601,-92.7627 2028.2545,-83.1108"/><polygon fill="#191970" stroke="#191970" points="2029.026 -86.525 2038.107 -81.068 2027.605 -79.671 2029.026 -86.525"/></g><g id="edge39" class="edge"><title>Node23-&gt;Node4</title><path fill="none" stroke="#191970" d="M1893.6921,-159.0199C1884.9709,-161.3175 1875.7599,-163.4395 1867,-165 1663.1568,-201.3142 1416.879,-212.126 1302.692,-215.2621"/><polygon fill="#191970" stroke="#191970" points="1302.293 -211.771 1292.389 -215.534 1302.478 -218.769 1302.293 -211.771"/></g><g id="edge40" class="edge"><title>Node23-&gt;Node8</title><path fill="none" stroke="#191970" d="M1965.4945,-128.978C1992.2907,-116.1969 2030.4838,-97.9797 2056.6482,-85.5"/><polygon fill="#191970" stroke="#191970" points="2058.181 -88.647 2065.7 -81.183 2055.168 -82.329 2058.181 -88.647"/></g><g id="edge42" class="edge"><title>Node24-&gt;Node4</title><path fill="none" stroke="#191970" d="M1368.3084,-159.0028C1345.7514,-170.1285 1313.0785,-185.3811 1286.1682,-197.3811"/><polygon fill="#191970" stroke="#191970" points="1284.643 -194.229 1276.916 -201.478 1287.477 -200.629 1284.643 -194.229"/></g><g id="edge44" class="edge"><title>Node25-&gt;Node4</title><path fill="none" stroke="#191970" d="M1482.7237,-164.5284C1482.1469,-164.6874 1481.5723,-164.8447 1481,-165 1420.9657,-181.293 1351.1971,-196.1906 1301.951,-205.7244"/><polygon fill="#191970" stroke="#191970" points="1301.237 -202.297 1292.075 -207.617 1302.555 -209.172 1301.237 -202.297"/></g><g id="edge53" class="edge"><title>Node26-&gt;Node3</title><path fill="none" stroke="#191970" d="M1872.3407,-407.9873C1802.0824,-396.6849 1694.9935,-377.8689 1680,-366 1662.0357,-351.7794 1652.2224,-327.1262 1647.0944,-308.4632"/><polygon fill="#191970" stroke="#191970" points="1650.443 -307.423 1644.648 -298.554 1643.647 -309.101 1650.443 -307.423"/></g><g id="edge54" class="edge"><title>Node26-&gt;Node7</title><path fill="none" stroke="#191970" d="M1936.6383,-407.8424C1941.9373,-390.3697 1955.5971,-353.6005 1981,-335 2042.6111,-289.887 2087.7571,-344.6116 2149,-299 2195.2186,-264.578 2219.3661,-197.2612 2228.9544,-163.8249"/><polygon fill="#191970" stroke="#191970" points="2232.412 -164.449 2231.659 -153.881 2225.657 -162.612 2232.412 -164.449"/></g><g id="edge59" class="edge"><title>Node26-&gt;Node8</title><path fill="none" stroke="#191970" d="M1934.4516,-407.8559C1935.5248,-391.9306 1939.1125,-359.4652 1951,-335 1993.7766,-246.9636 2058.8549,-257.4496 2091,-165 2099.519,-140.4993 2095.4752,-110.2147 2091.22,-90.8759"/><polygon fill="#191970" stroke="#191970" points="2094.612 -90.012 2088.848 -81.123 2087.81 -91.666 2094.612 -90.012"/></g><g id="edge60" class="edge"><title>Node26-&gt;Node11</title><path fill="none" stroke="#191970" d="M1977.848,-407.9429C1989.5458,-405.6847 2002.2114,-403.5002 2014,-402 2078.2719,-393.8209 2551.6231,-413.2067 2596,-366 2605.4368,-355.9614 2596.2905,-348.7747 2596,-335 2594.8886,-282.2982 2591,-269.2135 2591,-216.5 2591,-216.5 2591,-216.5 2591,-144 2591,-118.285 2677.3085,-115.2345 2278,-56 2013.0122,-16.691 1152.3855,-10.9369 954.0367,-10.1278"/><polygon fill="#191970" stroke="#191970" points="954.047 -6.628 944.033 -10.089 954.019 -13.628 954.047 -6.628"/></g><g id="node28" class="node"><title>Node27</title><g id="a_node28"><a target="_top" xlink:href="mir__native__buffer_8h.html" xlink:title="mir_toolkit/mir_native\l_buffer.h"><polygon fill="#fff" stroke="#000" points="2171.5 -335.5 2171.5 -365.5 2296.5 -365.5 2296.5 -335.5 2171.5 -335.5"/><text x="2179.5" y="-353.5" fill="#000" font-family="Arial" font-size="10" text-anchor="start">mir_toolkit/mir_native</text><text x="2234" y="-342.5" fill="#000" font-family="Arial" font-size="10" text-anchor="middle">_buffer.h</text></a></g></g><g id="edge52" class="edge"><title>Node26-&gt;Node27</title><path fill="none" stroke="#191970" d="M1976.6641,-407.9717C2024.7575,-397.2308 2103.7652,-379.5858 2161.5696,-366.6761"/><polygon fill="#191970" stroke="#191970" points="2162.382 -370.081 2171.379 -364.485 2160.856 -363.249 2162.382 -370.081"/></g><g id="node29" class="node"><title>Node28</title><g id="a_node29"><a target="_top" xlink:href="mir__cursor__configuration_8h.html" xlink:title="mir_toolkit/mir_cursor\l_configuration.h"><polygon fill="#fff" stroke="#000" points="1989.5 -335.5 1989.5 -365.5 2114.5 -365.5 2114.5 -335.5 1989.5 -335.5"/><text x="1997.5" y="-353.5" fill="#000" font-family="Arial" font-size="10" text-anchor="start">mir_toolkit/mir_cursor</text><text x="2052" y="-342.5" fill="#000" font-family="Arial" font-size="10" text-anchor="middle">_configuration.h</text></a></g></g><g id="edge55" class="edge"><title>Node26-&gt;Node28</title><path fill="none" stroke="#191970" d="M1950.9065,-407.9005C1967.9693,-398.2123 1994.8328,-382.9593 2016.5802,-370.6113"/><polygon fill="#191970" stroke="#191970" points="2018.576 -373.503 2025.544 -365.522 2015.12 -367.416 2018.576 -373.503"/></g><g id="edge57" class="edge"><title>Node28-&gt;Node3</title><path fill="none" stroke="#191970" d="M1989.2835,-340.2512C1911.2459,-327.4987 1778.9279,-305.876 1702.1183,-293.3242"/><polygon fill="#191970" stroke="#191970" points="1702.552 -289.849 1692.118 -291.69 1701.423 -296.757 1702.552 -289.849"/></g><g id="edge56" class="edge"><title>Node28-&gt;Node7</title><path fill="none" stroke="#191970" d="M2114.5936,-339.2516C2140.1101,-331.7532 2168.0124,-319.3661 2187,-299 2222.6781,-260.7317 2231.3217,-196.2123 2233.3816,-163.8159"/><polygon fill="#191970" stroke="#191970" points="2236.879 -163.951 2233.869 -153.792 2229.887 -163.61 2236.879 -163.951"/></g><g id="edge58" class="edge"><title>Node28-&gt;Node8</title><path fill="none" stroke="#191970" d="M2111.5059,-335.4305C2149.5966,-324.9954 2194.8073,-310.8974 2211,-299 2269.8314,-255.7744 2283.8439,-234.5607 2306,-165 2311.6652,-147.2138 2317.5979,-137.6264 2306,-123 2288.7917,-101.2982 2223.6288,-87.8683 2168.6512,-80.1877"/><polygon fill="#191970" stroke="#191970" points="2168.896 -76.689 2158.518 -78.82 2167.96 -83.626 2168.896 -76.689"/></g><g id="edge63" class="edge"><title>Node29-&gt;Node3</title><path fill="none" stroke="#191970" d="M2185.5151,-407.9676C2123.3996,-395.6968 2019.1987,-374.898 1981,-366 1928.1898,-353.6983 1915.6319,-348.0433 1863,-335 1808.6076,-321.5204 1746.4306,-307.1208 1701.9123,-296.985"/><polygon fill="#191970" stroke="#191970" points="1702.653 -293.564 1692.126 -294.761 1701.101 -300.39 1702.653 -293.564"/></g><g id="edge64" class="edge"><title>Node29-&gt;Node7</title><path fill="none" stroke="#191970" d="M2257.474,-407.8543C2274.3636,-399.516 2295.8799,-385.6812 2306,-366 2312.3004,-353.7472 2308.47,-348.5546 2306,-335 2293.9672,-268.9665 2260.3266,-196.0908 2243.6389,-162.6447"/><polygon fill="#191970" stroke="#191970" points="2246.689 -160.92 2239.047 -153.582 2240.445 -164.084 2246.689 -160.92"/></g><g id="edge66" class="edge"><title>Node29-&gt;Node8</title><path fill="none" stroke="#191970" d="M2266.1993,-407.8945C2314.7275,-391.1983 2401,-351.8977 2401,-283.5 2401,-283.5 2401,-283.5 2401,-216.5 2401,-167.5985 2383.1751,-150.8804 2343,-123 2315.1876,-103.699 2232.8887,-89.4368 2168.8349,-80.8763"/><polygon fill="#191970" stroke="#191970" points="2169.092 -77.38 2158.722 -79.552 2168.183 -84.321 2169.092 -77.38"/></g><g id="edge67" class="edge"><title>Node29-&gt;Node11</title><path fill="none" stroke="#191970" d="M2280.4346,-407.9234C2291.4138,-405.8201 2303.0989,-403.7123 2314,-402 2379.8958,-391.6495 2559.685,-407.3827 2612,-366 2667.5263,-322.0771 2667,-287.2983 2667,-216.5 2667,-216.5 2667,-216.5 2667,-144 2667,-125.3193 2696.0765,-107.2631 2384,-56 2239.7405,-32.3033 1177.7117,-14.211 954.2085,-10.6421"/><polygon fill="#191970" stroke="#191970" points="954.261 -7.143 944.206 -10.483 954.149 -14.142 954.261 -7.143"/></g><g id="edge62" class="edge"><title>Node29-&gt;Node27</title><path fill="none" stroke="#191970" d="M2234,-407.9005C2234,-399.5099 2234,-386.9451 2234,-375.7085"/><polygon fill="#191970" stroke="#191970" points="2237.5 -375.522 2234 -365.522 2230.5 -375.522 2237.5 -375.522"/></g><g id="edge65" class="edge"><title>Node29-&gt;Node28</title><path fill="none" stroke="#191970" d="M2207.9238,-407.9005C2180.5492,-397.8231 2136.8192,-381.7247 2102.6272,-369.1375"/><polygon fill="#191970" stroke="#191970" points="2103.399 -365.692 2092.805 -365.522 2100.981 -372.261 2103.399 -365.692"/></g><g id="edge69" class="edge"><title>Node30-&gt;Node3</title><path fill="none" stroke="#191970" d="M1410.3977,-340.9717C1455.1232,-329.8731 1529.5553,-311.4029 1581.9447,-298.4026"/><polygon fill="#191970" stroke="#191970" points="1582.923 -301.766 1591.786 -295.961 1581.237 -294.972 1582.923 -301.766"/></g><g id="edge70" class="edge"><title>Node30-&gt;Node8</title><path fill="none" stroke="#191970" d="M1331.3449,-340.9318C1234.542,-317.9961 992.6159,-259.7333 914,-232 836.9611,-204.823 709.3722,-181.8802 766,-123 787.5065,-100.6381 1716.2925,-79.274 2002.7586,-73.2066"/><polygon fill="#191970" stroke="#191970" points="2003.158 -76.699 2013.082 -72.989 2003.01 -69.701 2003.158 -76.699"/></g><g id="edge72" class="edge"><title>Node31-&gt;Node3</title><path fill="none" stroke="#191970" d="M1689.9974,-402.429C1673.8356,-394.2064 1656.7324,-382.3102 1647,-366 1636.7705,-348.8567 1636.1829,-325.9807 1637.7785,-308.6661"/><polygon fill="#191970" stroke="#191970" points="1641.257 -309.054 1638.987 -298.705 1634.308 -308.211 1641.257 -309.054"/></g><g id="edge74" class="edge"><title>Node32-&gt;Node3</title><path fill="none" stroke="#191970" d="M1535.7455,-335.4639C1555.2624,-325.9191 1580.7257,-313.4663 1601.8325,-303.144"/><polygon fill="#191970" stroke="#191970" points="1603.438 -306.255 1610.883 -298.718 1600.362 -299.967 1603.438 -306.255"/></g><g id="edge75" class="edge"><title>Node32-&gt;Node8</title><path fill="none" stroke="#191970" d="M1452.7124,-337.3636C1286.6077,-295.6044 781.6665,-168.4335 779,-165 767.5504,-150.2571 766.0631,-136.4567 779,-123 800.2786,-100.8665 1718.8834,-79.3652 2003.092,-73.2325"/><polygon fill="#191970" stroke="#191970" points="2003.413 -76.727 2013.335 -73.012 2003.262 -69.728 2003.413 -76.727"/></g><g id="edge78" class="edge"><title>Node33-&gt;Node3</title><path fill="none" stroke="#191970" d="M2381.9739,-407.9408C2370.02,-389.9387 2341.3795,-351.351 2306,-335 2252.007,-310.0465 1855.8095,-291.9345 1702.4176,-285.7878"/><polygon fill="#191970" stroke="#191970" points="1702.367 -282.283 1692.236 -285.383 1702.089 -289.278 1702.367 -282.283"/></g><g id="edge77" class="edge"><title>Node33-&gt;Node11</title><path fill="none" stroke="#191970" d="M2453.7353,-408.1826C2517.1644,-398.46 2608.1248,-382.3745 2640,-366 2687.9759,-341.3545 2729,-337.4359 2729,-283.5 2729,-283.5 2729,-283.5 2729,-144 2729,-115.5458 2801.5027,-112.8939 2478,-56 2324.2545,-28.961 1186.262,-13.4082 954.2325,-10.4999"/><polygon fill="#191970" stroke="#191970" points="954.226 -7 944.183 -10.375 954.139 -13.999 954.226 -7"/></g><g id="edge79" class="edge"><title>Node33-&gt;Node27</title><path fill="none" stroke="#191970" d="M2365.9356,-407.9005C2343.0707,-397.9528 2306.7207,-382.1382 2277.9599,-369.6254"/><polygon fill="#191970" stroke="#191970" points="2279.094 -366.302 2268.528 -365.522 2276.301 -372.721 2279.094 -366.302"/></g><g id="edge82" class="edge"><title>Node34-&gt;Node3</title><path fill="none" stroke="#191970" d="M2022.4386,-403.8869C1964.5731,-390.8848 1884.8266,-372.3568 1871,-366 1849.5942,-356.1586 1849.2411,-345.192 1828,-335 1788.0992,-315.8547 1739.8586,-302.756 1702.5054,-294.5609"/><polygon fill="#191970" stroke="#191970" points="1702.785 -291.042 1692.275 -292.379 1701.324 -297.888 1702.785 -291.042"/></g><g id="edge83" class="edge"><title>Node34-&gt;Node8</title><path fill="none" stroke="#191970" d="M2095.4337,-402.4089C2109.662,-384.4483 2135.4641,-354.4494 2163,-335 2194.8467,-312.5058 2211.8284,-322.4207 2243,-299 2274.2566,-275.5155 2280.6486,-265.9708 2300,-232 2324.5067,-188.9793 2354.0711,-161.548 2323,-123 2303.6639,-99.011 2228.9778,-85.6188 2168.5474,-78.5476"/><polygon fill="#191970" stroke="#191970" points="2168.929 -75.069 2158.599 -77.425 2168.144 -82.024 2168.929 -75.069"/></g><g id="edge81" class="edge"><title>Node34-&gt;Node27</title><path fill="none" stroke="#191970" d="M2117.6629,-402.4639C2139.2993,-392.7996 2167.6105,-380.154 2190.8868,-369.7572"/><polygon fill="#191970" stroke="#191970" points="2192.487 -372.876 2200.19 -365.602 2189.632 -366.484 2192.487 -372.876"/></g><g id="node37" class="node"><title>Node36</title><g id="a_node37"><a target="_top" xlink:href="mir__version__number_8h.html" xlink:title="mir_toolkit/mir_version\l_number.h"><polygon fill="#fff" stroke="#000" points="2847.5 -335.5 2847.5 -365.5 2978.5 -365.5 2978.5 -335.5 2847.5 -335.5"/><text x="2855.5" y="-353.5" fill="#000" font-family="Arial" font-size="10" text-anchor="start">mir_toolkit/mir_version</text><text x="2913" y="-342.5" fill="#000" font-family="Arial" font-size="10" text-anchor="middle">_number.h</text></a></g></g><g id="edge85" class="edge"><title>Node35-&gt;Node36</title><path fill="none" stroke="#191970" d="M2867.5936,-407.9005C2874.6416,-398.9908 2885.4125,-385.3748 2894.6953,-373.6399"/><polygon fill="#191970" stroke="#191970" points="2897.658 -375.536 2901.117 -365.522 2892.168 -371.193 2897.658 -375.536"/></g><g id="edge88" class="edge"><title>Node37-&gt;Node8</title><path fill="none" stroke="#191970" d="M2586.7433,-402.3368C2594.2382,-385.5873 2603.4554,-357.9487 2596,-335 2560.0171,-224.2403 2541.7001,-183.186 2442,-123 2397.3422,-96.0414 2259.362,-82.3362 2168.8791,-76.0672"/><polygon fill="#191970" stroke="#191970" points="2168.851 -72.557 2158.637 -75.375 2168.379 -79.541 2168.851 -72.557"/></g><g id="edge87" class="edge"><title>Node37-&gt;Node38</title><path fill="none" stroke="#191970" d="M2627.0258,-402.4639C2664.9858,-390.5792 2717.3469,-374.1858 2753.0403,-363.0108"/><polygon fill="#191970" stroke="#191970" points="2754.142 -366.333 2762.64 -360.005 2752.051 -359.653 2754.142 -366.333"/></g><g id="edge91" class="edge"><title>Node40-&gt;Node6</title><path fill="none" stroke="#191970" d="M68.4712,-273.5743C70.6962,-238.3046 83.0951,-117.8372 150,-56 169.0688,-38.3755 238.1559,-23.6965 281.5725,-15.9424"/><polygon fill="#191970" stroke="#191970" points="282.231 -19.38 291.481 -14.213 281.028 -12.485 282.231 -19.38"/></g><g id="edge93" class="edge"><title>Node41-&gt;Node3</title><path fill="none" stroke="#191970" d="M1728.865,-335.4639C1713.4105,-326.2188 1693.395,-314.2452 1676.4729,-304.1222"/><polygon fill="#191970" stroke="#191970" points="1677.817 -300.848 1667.439 -298.718 1674.224 -306.855 1677.817 -300.848"/></g><g id="edge94" class="edge"><title>Node41-&gt;Node8</title><path fill="none" stroke="#191970" d="M1805.5974,-335.4753C1877.2788,-311.7463 2005.4408,-258.4154 2070,-165 2085.0978,-143.1538 2087.524,-111.7324 2087.2517,-91.4658"/><polygon fill="#191970" stroke="#191970" points="2090.74 -91.095 2086.871 -81.232 2083.745 -91.355 2090.74 -91.095"/></g><g id="edge96" class="edge"><title>Node42-&gt;Node3</title><path fill="none" stroke="#191970" d="M933.6075,-336.3787C936.4377,-335.8765 939.2458,-335.4128 942,-335 1176.78,-299.8104 1459.623,-288.3545 1581.4008,-284.8887"/><polygon fill="#191970" stroke="#191970" points="1581.734 -288.381 1591.633 -284.606 1581.54 -281.384 1581.734 -288.381"/></g><g id="edge97" class="edge"><title>Node42-&gt;Node10</title><path fill="none" stroke="#191970" d="M814.3285,-347.9323C657.7598,-340.9082 245.8255,-320.4636 226,-299 173.8725,-242.5653 215.2636,-141.6898 238.6852,-95.6306"/><polygon fill="#191970" stroke="#191970" points="241.839 -97.153 243.37 -86.67 235.635 -93.91 241.839 -97.153"/></g><g id="edge99" class="edge"><title>Node43-&gt;Node3</title><path fill="none" stroke="#191970" d="M1575.0212,-407.6333C1581.5336,-391.9369 1595.0701,-360.453 1609,-335 1614.0702,-325.7357 1620.1814,-315.897 1625.7596,-307.3283"/><polygon fill="#191970" stroke="#191970" points="1628.714 -309.207 1631.314 -298.936 1622.876 -305.344 1628.714 -309.207"/></g><g id="edge101" class="edge"><title>Node44-&gt;Node3</title><path fill="none" stroke="#191970" d="M1087.9356,-340.9559C1100.7015,-338.8276 1114.3176,-336.7005 1127,-335 1290.907,-313.0226 1485.3183,-296.0276 1581.6585,-288.21"/><polygon fill="#191970" stroke="#191970" points="1582.107 -291.685 1591.793 -287.392 1581.544 -284.708 1582.107 -291.685"/></g><g id="edge102" class="edge"><title>Node44-&gt;Node8</title><path fill="none" stroke="#191970" d="M1003.2193,-340.9477C910.8721,-311.7526 654.8682,-219.7854 748,-123 769.8301,-100.3135 1713.4021,-79.1334 2002.6152,-73.1647"/><polygon fill="#191970" stroke="#191970" points="2003.109 -76.655 2013.035 -72.95 2002.965 -69.657 2003.109 -76.655"/></g><g id="edge103" class="edge"><title>Node44-&gt;Node11</title><path fill="none" stroke="#191970" d="M983.9775,-340.9387C970.3791,-338.6805 955.6678,-336.4971 942,-335 867.0091,-326.786 315.9103,-353.7397 264,-299 210.1749,-242.2411 217.4775,-185.8838 264,-123 294.2686,-82.0863 433.1388,-66.1973 483,-56 623.8551,-27.1931 794.585,-15.7439 871.6825,-11.803"/><polygon fill="#191970" stroke="#191970" points="872.112 -15.286 881.927 -11.296 871.766 -8.295 872.112 -15.286"/></g><g id="edge105" class="edge"><title>Node45-&gt;Node3</title><path fill="none" stroke="#191970" d="M1265.3455,-340.9957C1276.7445,-338.9555 1288.7741,-336.8565 1300,-335 1398.4668,-318.7162 1513.2452,-301.8671 1581.6424,-292.0516"/><polygon fill="#191970" stroke="#191970" points="1582.398 -295.479 1591.801 -290.597 1581.406 -288.55 1582.398 -295.479"/></g><g id="edge106" class="edge"><title>Node45-&gt;Node11</title><path fill="none" stroke="#191970" d="M1162.2976,-340.9522C970.6455,-305.4463 311.0599,-182.1889 297,-165 221.8675,-73.147 373.9067,-101.8498 422,-87 464.0329,-74.0215 473.0402,-65.4694 516,-56 643.8724,-27.8138 798.9591,-16.1862 871.6456,-12.0212"/><polygon fill="#191970" stroke="#191970" points="871.968 -15.509 881.759 -11.46 871.58 -8.52 871.968 -15.509"/></g></g></svg>