<svg xmlns="http://www.w3.org/2000/svg" xmlns:xlink="http://www.w3.org/1999/xlink" width="2221pt" height="385pt" viewBox="0 0 2220.5 385"><g id="graph0" class="graph" transform="scale(1 1) rotate(0) translate(4 381)"><title>include/client/mir_toolkit/mir_buffer_stream.h</title><polygon fill="#fff" stroke="transparent" points="-4 4 -4 -381 2216.5 -381 2216.5 4 -4 4"/><g id="node1" class="node"><title>Node0</title><polygon fill="#bfbfbf" stroke="#000" points="100 -335.5 100 -376.5 207 -376.5 207 -335.5 100 -335.5"/><text x="108" y="-364.5" fill="#000" font-family="Arial" font-size="10" text-anchor="start">include/client/mir</text><text x="108" y="-353.5" fill="#000" font-family="Arial" font-size="10" text-anchor="start">_toolkit/mir_buffer</text><text x="153.5" y="-342.5" fill="#000" font-family="Arial" font-size="10" text-anchor="middle">_stream.h</text></g><g id="node2" class="node"><title>Node1</title><g id="a_node2"><a target="_top" xlink:href="mir__native__buffer_8h.html" xlink:title="mir_toolkit/mir_native\l_buffer.h"><polygon fill="#fff" stroke="#000" points="0 -268.5 0 -298.5 125 -298.5 125 -268.5 0 -268.5"/><text x="8" y="-286.5" fill="#000" font-family="Arial" font-size="10" text-anchor="start">mir_toolkit/mir_native</text><text x="62.5" y="-275.5" fill="#000" font-family="Arial" font-size="10" text-anchor="middle">_buffer.h</text></a></g></g><g id="edge1" class="edge"><title>Node0-&gt;Node1</title><path fill="none" stroke="#191970" d="M127.6665,-335.4183C115.7122,-325.8944 101.5153,-314.5836 89.4288,-304.9543"/><polygon fill="#191970" stroke="#191970" points="91.454 -302.093 81.452 -298.599 87.092 -307.568 91.454 -302.093"/></g><g id="node3" class="node"><title>Node2</title><g id="a_node3"><a target="_top" xlink:href="client__types_8h.html" xlink:title="mir_toolkit/client\l_types.h"><polygon fill="#fff" stroke="#000" points="232.5 -268.5 232.5 -298.5 332.5 -298.5 332.5 -268.5 232.5 -268.5"/><text x="240.5" y="-286.5" fill="#000" font-family="Arial" font-size="10" text-anchor="start">mir_toolkit/client</text><text x="282.5" y="-275.5" fill="#000" font-family="Arial" font-size="10" text-anchor="middle">_types.h</text></a></g></g><g id="edge2" class="edge"><title>Node0-&gt;Node2</title><path fill="none" stroke="#191970" d="M190.1212,-335.4183C207.882,-325.4365 229.1351,-313.4919 246.7759,-303.5775"/><polygon fill="#191970" stroke="#191970" points="248.631 -306.55 255.634 -298.599 245.202 -300.447 248.631 -306.55"/></g><g id="node8" class="node"><title>Node7</title><g id="a_node8"><a target="_top" xlink:href="deprecations_8h.html" xlink:title="mir_toolkit/deprecations.h"><polygon fill="#fff" stroke="#000" points="301 -62 301 -81 446 -81 446 -62 301 -62"/><text x="373.5" y="-69" fill="#000" font-family="Arial" font-size="10" text-anchor="middle">mir_toolkit/deprecations.h</text></a></g></g><g id="edge47" class="edge"><title>Node0-&gt;Node7</title><path fill="none" stroke="#191970" d="M150.856,-335.1794C146.3922,-290.2837 142.6189,-183.5428 197.5,-123 212.6752,-106.2593 265.1303,-92.2501 308.8591,-83.09"/><polygon fill="#191970" stroke="#191970" points="309.8 -86.47 318.897 -81.039 308.399 -79.612 309.8 -86.47"/></g><g id="node4" class="node"><title>Node3</title><g id="a_node4"><a target="_top" xlink:href="toolkit_2events_2event_8h.html" xlink:title="mir_toolkit/events\l/event.h"><polygon fill="#fff" stroke="#000" points="1062.5 -201.5 1062.5 -231.5 1168.5 -231.5 1168.5 -201.5 1062.5 -201.5"/><text x="1070.5" y="-219.5" fill="#000" font-family="Arial" font-size="10" text-anchor="start">mir_toolkit/events</text><text x="1115.5" y="-208.5" fill="#000" font-family="Arial" font-size="10" text-anchor="middle">/event.h</text></a></g></g><g id="edge3" class="edge"><title>Node2-&gt;Node3</title><path fill="none" stroke="#191970" d="M332.732,-279.4597C477.0344,-267.8532 892.6355,-234.4255 1052.1328,-221.5968"/><polygon fill="#191970" stroke="#191970" points="1052.575 -225.073 1062.263 -220.782 1052.014 -218.095 1052.575 -225.073"/></g><g id="node5" class="node"><title>Node4</title><polygon fill="#fff" stroke="#bfbfbf" points="1926.5 -134.5 1926.5 -153.5 1982.5 -153.5 1982.5 -134.5 1926.5 -134.5"/><text x="1954.5" y="-141.5" fill="#000" font-family="Arial" font-size="10" text-anchor="middle">stddef.h</text></g><g id="edge46" class="edge"><title>Node2-&gt;Node4</title><path fill="none" stroke="#191970" d="M332.7499,-282.9458C573.6135,-279.8216 1610.9183,-260.9339 1917.5,-165 1922.3551,-163.4808 1927.2759,-161.259 1931.8757,-158.8226"/><polygon fill="#191970" stroke="#191970" points="1933.851 -161.723 1940.743 -153.677 1930.337 -155.669 1933.851 -161.723"/></g><g id="node7" class="node"><title>Node6</title><g id="a_node7"><a target="_top" xlink:href="common_8h.html" xlink:title="mir_toolkit/common.h"><polygon fill="#fff" stroke="#000" points="220 -134.5 220 -153.5 345 -153.5 345 -134.5 220 -134.5"/><text x="282.5" y="-141.5" fill="#000" font-family="Arial" font-size="10" text-anchor="middle">mir_toolkit/common.h</text></a></g></g><g id="edge44" class="edge"><title>Node2-&gt;Node6</title><path fill="none" stroke="#191970" d="M282.5,-268.3055C282.5,-242.9831 282.5,-192.1556 282.5,-163.9709"/><polygon fill="#191970" stroke="#191970" points="286 -163.737 282.5 -153.737 279 -163.737 286 -163.737"/></g><g id="edge45" class="edge"><title>Node2-&gt;Node7</title><path fill="none" stroke="#191970" d="M265.8832,-268.213C235.3711,-238.2817 176.6039,-170.7105 211.5,-123 223.7728,-106.2205 271.6008,-92.3121 312.1331,-83.1966"/><polygon fill="#191970" stroke="#191970" points="312.966 -86.597 321.986 -81.041 311.469 -79.759 312.966 -86.597"/></g><g id="edge4" class="edge"><title>Node3-&gt;Node4</title><path fill="none" stroke="#191970" d="M1168.5729,-214.4749C1335.9923,-207.8946 1846.1431,-186.3077 1917.5,-165 1922.4586,-163.5193 1927.4743,-161.2762 1932.1446,-158.7988"/><polygon fill="#191970" stroke="#191970" points="1934.25 -161.622 1941.117 -153.554 1930.717 -155.579 1934.25 -161.622"/></g><g id="node6" class="node"><title>Node5</title><polygon fill="#fff" stroke="#bfbfbf" points="1565 -.5 1565 -19.5 1618 -19.5 1618 -.5 1565 -.5"/><text x="1591.5" y="-7.5" fill="#000" font-family="Arial" font-size="10" text-anchor="middle">stdint.h</text></g><g id="edge5" class="edge"><title>Node3-&gt;Node5</title><path fill="none" stroke="#191970" d="M1168.8441,-215.0548C1293.0647,-211.1401 1593.4098,-198.2949 1623.5,-165 1689.3725,-92.1118 1539.2964,-109.4755 1523.5,-87 1515.5776,-75.7278 1517.0399,-68.1694 1523.5,-56 1530.8846,-42.0889 1544.5636,-31.6166 1557.7272,-24.2062"/><polygon fill="#191970" stroke="#191970" points="1559.412 -27.275 1566.675 -19.561 1556.187 -21.063 1559.412 -27.275"/></g><g id="edge6" class="edge"><title>Node3-&gt;Node6</title><path fill="none" stroke="#191970" d="M1062.3847,-214.254C913.6641,-207.747 495.1396,-187.8835 359.5,-165 347.1177,-162.911 333.8526,-159.6693 321.8815,-156.3529"/><polygon fill="#191970" stroke="#191970" points="322.755 -152.962 312.178 -153.573 320.827 -159.692 322.755 -152.962"/></g><g id="edge8" class="edge"><title>Node3-&gt;Node7</title><path fill="none" stroke="#191970" d="M1062.4305,-214.4665C899.7701,-208.0061 417.6288,-187.0715 392.5,-165 371.8338,-146.8482 369.9837,-112.9048 371.2348,-91.2936"/><polygon fill="#191970" stroke="#191970" points="374.728 -91.526 372.089 -81.266 367.753 -90.933 374.728 -91.526"/></g><g id="node9" class="node"><title>Node8</title><g id="a_node9"><a target="_top" xlink:href="input__event_8h.html" xlink:title="mir_toolkit/events\l/input/input_event.h"><polygon fill="#fff" stroke="#000" points="1670.5 -129 1670.5 -159 1784.5 -159 1784.5 -129 1670.5 -129"/><text x="1678.5" y="-147" fill="#000" font-family="Arial" font-size="10" text-anchor="start">mir_toolkit/events</text><text x="1727.5" y="-136" fill="#000" font-family="Arial" font-size="10" text-anchor="middle">/input/input_event.h</text></a></g></g><g id="edge9" class="edge"><title>Node3-&gt;Node8</title><path fill="none" stroke="#191970" d="M1168.5909,-214.6178C1264.8988,-210.5896 1474.0538,-198.5806 1647.5,-165 1652.4218,-164.0471 1657.4917,-162.8972 1662.5824,-161.6323"/><polygon fill="#191970" stroke="#191970" points="1663.572 -164.992 1672.364 -159.08 1661.804 -158.218 1663.572 -164.992"/></g><g id="node16" class="node"><title>Node15</title><g id="a_node16"><a target="_top" xlink:href="resize__event_8h.html" xlink:title="mir_toolkit/events\l/resize_event.h"><polygon fill="#fff" stroke="#000" points="809.5 -129 809.5 -159 915.5 -159 915.5 -129 809.5 -129"/><text x="817.5" y="-147" fill="#000" font-family="Arial" font-size="10" text-anchor="start">mir_toolkit/events</text><text x="862.5" y="-136" fill="#000" font-family="Arial" font-size="10" text-anchor="middle">/resize_event.h</text></a></g></g><g id="edge20" class="edge"><title>Node3-&gt;Node15</title><path fill="none" stroke="#191970" d="M1062.1346,-204.9268C1021.5131,-194.9829 964.6266,-179.9266 915.5,-165 912.5505,-164.1038 909.53,-163.1618 906.4973,-162.1937"/><polygon fill="#191970" stroke="#191970" points="907.434 -158.818 896.842 -159.037 905.259 -165.471 907.434 -158.818"/></g><g id="node17" class="node"><title>Node16</title><g id="a_node17"><a target="_top" xlink:href="surface__event_8h.html" xlink:title="mir_toolkit/events\l/surface_event.h"><polygon fill="#fff" stroke="#000" points="401.5 -129 401.5 -159 507.5 -159 507.5 -129 401.5 -129"/><text x="409.5" y="-147" fill="#000" font-family="Arial" font-size="10" text-anchor="start">mir_toolkit/events</text><text x="454.5" y="-136" fill="#000" font-family="Arial" font-size="10" text-anchor="middle">/surface_event.h</text></a></g></g><g id="edge22" class="edge"><title>Node3-&gt;Node16</title><path fill="none" stroke="#191970" d="M1062.2993,-213.7828C934.4257,-206.6876 613.2253,-186.6467 508.5,-165 504.3719,-164.1467 500.1379,-163.1088 495.9387,-161.9564"/><polygon fill="#191970" stroke="#191970" points="496.852 -158.577 486.27 -159.093 494.864 -165.288 496.852 -158.577"/></g><g id="node18" class="node"><title>Node17</title><g id="a_node18"><a target="_top" xlink:href="window__event_8h.html" xlink:title="mir_toolkit/events\l/window_event.h"><polygon fill="#fff" stroke="#000" points="933.5 -129 933.5 -159 1039.5 -159 1039.5 -129 933.5 -129"/><text x="941.5" y="-147" fill="#000" font-family="Arial" font-size="10" text-anchor="start">mir_toolkit/events</text><text x="986.5" y="-136" fill="#000" font-family="Arial" font-size="10" text-anchor="middle">/window_event.h</text></a></g></g><g id="edge25" class="edge"><title>Node3-&gt;Node17</title><path fill="none" stroke="#191970" d="M1083.1784,-201.478C1062.6404,-190.6877 1036.3702,-176.023 1016.3304,-164.2071"/><polygon fill="#191970" stroke="#191970" points="1017.986 -161.119 1007.604 -159.003 1014.4 -167.131 1017.986 -161.119"/></g><g id="node19" class="node"><title>Node18</title><g id="a_node19"><a target="_top" xlink:href="orientation__event_8h.html" xlink:title="mir_toolkit/events\l/orientation_event.h"><polygon fill="#fff" stroke="#000" points="1058 -129 1058 -159 1173 -159 1173 -129 1058 -129"/><text x="1066" y="-147" fill="#000" font-family="Arial" font-size="10" text-anchor="start">mir_toolkit/events</text><text x="1115.5" y="-136" fill="#000" font-family="Arial" font-size="10" text-anchor="middle">/orientation_event.h</text></a></g></g><g id="edge27" class="edge"><title>Node3-&gt;Node18</title><path fill="none" stroke="#191970" d="M1109.9073,-201.478C1108.7494,-192.1459 1108.4604,-179.9157 1109.0402,-169.1368"/><polygon fill="#191970" stroke="#191970" points="1112.542 -169.265 1109.91 -159.003 1105.568 -168.667 1112.542 -169.265"/></g><g id="node20" class="node"><title>Node19</title><g id="a_node20"><a target="_top" xlink:href="prompt__session__event_8h.html" xlink:title="mir_toolkit/events\l/prompt_session_event.h"><polygon fill="#fff" stroke="#000" points="1191 -129 1191 -159 1330 -159 1330 -129 1191 -129"/><text x="1199" y="-147" fill="#000" font-family="Arial" font-size="10" text-anchor="start">mir_toolkit/events</text><text x="1260.5" y="-136" fill="#000" font-family="Arial" font-size="10" text-anchor="middle">/prompt_session_event.h</text></a></g></g><g id="edge29" class="edge"><title>Node3-&gt;Node19</title><path fill="none" stroke="#191970" d="M1139.9514,-201.478C1160.6489,-190.4447 1190.6629,-175.3605 1215.6176,-163.4132"/><polygon fill="#191970" stroke="#191970" points="1217.372 -166.454 1224.904 -159.003 1214.37 -160.131 1217.372 -166.454"/></g><g id="node21" class="node"><title>Node20</title><g id="a_node21"><a target="_top" xlink:href="keymap__event_8h.html" xlink:title="mir_toolkit/events\l/keymap_event.h"><polygon fill="#fff" stroke="#000" points="1802.5 -129 1802.5 -159 1908.5 -159 1908.5 -129 1802.5 -129"/><text x="1810.5" y="-147" fill="#000" font-family="Arial" font-size="10" text-anchor="start">mir_toolkit/events</text><text x="1855.5" y="-136" fill="#000" font-family="Arial" font-size="10" text-anchor="middle">/keymap_event.h</text></a></g></g><g id="edge31" class="edge"><title>Node3-&gt;Node20</title><path fill="none" stroke="#191970" d="M1168.5059,-213.9909C1305.1503,-207.5236 1666.3759,-189.0922 1784.5,-165 1788.634,-164.1568 1792.8729,-163.1166 1797.1267,-161.9541"/><polygon fill="#191970" stroke="#191970" points="1798.422 -165.222 1807.037 -159.055 1796.457 -158.504 1798.422 -165.222"/></g><g id="node22" class="node"><title>Node21</title><g id="a_node22"><a target="_top" xlink:href="input__configuration__event_8h.html" xlink:title="mir_toolkit/events\l/input_configuration\l_event.h"><polygon fill="#fff" stroke="#000" points="526 -123.5 526 -164.5 639 -164.5 639 -123.5 526 -123.5"/><text x="534" y="-152.5" fill="#000" font-family="Arial" font-size="10" text-anchor="start">mir_toolkit/events</text><text x="534" y="-141.5" fill="#000" font-family="Arial" font-size="10" text-anchor="start">/input_configuration</text><text x="582.5" y="-130.5" fill="#000" font-family="Arial" font-size="10" text-anchor="middle">_event.h</text></a></g></g><g id="edge34" class="edge"><title>Node3-&gt;Node21</title><path fill="none" stroke="#191970" d="M1062.2438,-214.3527C975.3731,-209.9396 798.3278,-197.567 647.284,-166.6042"/><polygon fill="#191970" stroke="#191970" points="647.878 -163.153 637.374 -164.538 646.449 -170.006 647.878 -163.153"/></g><g id="node23" class="node"><title>Node22</title><g id="a_node23"><a target="_top" xlink:href="surface__output__event_8h.html" xlink:title="mir_toolkit/events\l/surface_output_event.h"><polygon fill="#fff" stroke="#000" points="657.5 -129 657.5 -159 791.5 -159 791.5 -129 657.5 -129"/><text x="665.5" y="-147" fill="#000" font-family="Arial" font-size="10" text-anchor="start">mir_toolkit/events</text><text x="724.5" y="-136" fill="#000" font-family="Arial" font-size="10" text-anchor="middle">/surface_output_event.h</text></a></g></g><g id="edge37" class="edge"><title>Node3-&gt;Node22</title><path fill="none" stroke="#191970" d="M1062.3413,-210.4249C997.6789,-202.0667 885.818,-185.6781 791.5,-165 786.8159,-163.9731 781.9906,-162.8339 777.1735,-161.6326"/><polygon fill="#191970" stroke="#191970" points="777.903 -158.206 767.345 -159.095 776.153 -164.984 777.903 -158.206"/></g><g id="node24" class="node"><title>Node23</title><g id="a_node24"><a target="_top" xlink:href="window__output__event_8h.html" xlink:title="mir_toolkit/events\l/window_output_event.h"><polygon fill="#fff" stroke="#000" points="1348.5 -129 1348.5 -159 1484.5 -159 1484.5 -129 1348.5 -129"/><text x="1356.5" y="-147" fill="#000" font-family="Arial" font-size="10" text-anchor="start">mir_toolkit/events</text><text x="1416.5" y="-136" fill="#000" font-family="Arial" font-size="10" text-anchor="middle">/window_output_event.h</text></a></g></g><g id="edge40" class="edge"><title>Node3-&gt;Node23</title><path fill="none" stroke="#191970" d="M1168.581,-203.2765C1212.1923,-193.2418 1275.3511,-178.854 1330.5,-165 1334.7731,-163.9266 1339.1726,-162.7958 1343.6184,-161.6385"/><polygon fill="#191970" stroke="#191970" points="1344.609 -164.997 1353.394 -159.075 1342.833 -158.226 1344.609 -164.997"/></g><g id="node25" class="node"><title>Node24</title><g id="a_node25"><a target="_top" xlink:href="input__device__state__event_8h.html" xlink:title="mir_toolkit/events\l/input_device_state\l_event.h"><polygon fill="#fff" stroke="#000" points="1502.5 -123.5 1502.5 -164.5 1614.5 -164.5 1614.5 -123.5 1502.5 -123.5"/><text x="1510.5" y="-152.5" fill="#000" font-family="Arial" font-size="10" text-anchor="start">mir_toolkit/events</text><text x="1510.5" y="-141.5" fill="#000" font-family="Arial" font-size="10" text-anchor="start">/input_device_state</text><text x="1558.5" y="-130.5" fill="#000" font-family="Arial" font-size="10" text-anchor="middle">_event.h</text></a></g></g><g id="edge42" class="edge"><title>Node3-&gt;Node24</title><path fill="none" stroke="#191970" d="M1168.7387,-211.676C1240.9731,-204.8506 1373.427,-190.2992 1484.5,-165 1487.1197,-164.4033 1489.7849,-163.7477 1492.4731,-163.0484"/><polygon fill="#191970" stroke="#191970" points="1493.556 -166.381 1502.268 -160.352 1491.698 -159.632 1493.556 -166.381"/></g><g id="edge7" class="edge"><title>Node6-&gt;Node7</title><path fill="none" stroke="#191970" d="M294.7727,-134.2223C309.7816,-122.2646 335.3969,-101.8569 353.3208,-87.5768"/><polygon fill="#191970" stroke="#191970" points="355.781 -90.091 361.422 -81.123 351.42 -84.617 355.781 -90.091"/></g><g id="edge10" class="edge"><title>Node8-&gt;Node3</title><path fill="none" stroke="#191970" d="M1690.0826,-159.08C1682.0526,-161.3419 1673.5767,-163.4363 1665.5,-165 1491.768,-198.6359 1282.2093,-210.6291 1179.0368,-214.6377"/><polygon fill="#191970" stroke="#191970" points="1178.65 -211.15 1168.789 -215.023 1178.914 -218.145 1178.65 -211.15"/></g><g id="edge13" class="edge"><title>Node8-&gt;Node5</title><path fill="none" stroke="#191970" d="M1752.945,-128.8888C1779.4869,-111.2272 1814.633,-81.2055 1794.5,-56 1774.0967,-30.4561 1681.1268,-18.0412 1628.3609,-12.9569"/><polygon fill="#191970" stroke="#191970" points="1628.656 -9.469 1618.377 -12.036 1628.013 -16.44 1628.656 -9.469"/></g><g id="node10" class="node"><title>Node9</title><g id="a_node10"><a target="_top" xlink:href="mir__input__device__types_8h.html" xlink:title="mir_toolkit/mir_input\l_device_types.h"><polygon fill="#fff" stroke="#000" points="1532 -56.5 1532 -86.5 1651 -86.5 1651 -56.5 1532 -56.5"/><text x="1540" y="-74.5" fill="#000" font-family="Arial" font-size="10" text-anchor="start">mir_toolkit/mir_input</text><text x="1591.5" y="-63.5" fill="#000" font-family="Arial" font-size="10" text-anchor="middle">_device_types.h</text></a></g></g><g id="edge11" class="edge"><title>Node8-&gt;Node9</title><path fill="none" stroke="#191970" d="M1699.3207,-128.978C1678.8062,-118.0419 1650.826,-103.126 1628.5102,-91.2297"/><polygon fill="#191970" stroke="#191970" points="1630.114 -88.118 1619.643 -86.503 1626.821 -94.296 1630.114 -88.118"/></g><g id="node11" class="node"><title>Node10</title><polygon fill="#fff" stroke="#bfbfbf" points="1865.5 -.5 1865.5 -19.5 1927.5 -19.5 1927.5 -.5 1865.5 -.5"/><text x="1896.5" y="-7.5" fill="#000" font-family="Arial" font-size="10" text-anchor="middle">stdbool.h</text></g><g id="edge14" class="edge"><title>Node8-&gt;Node10</title><path fill="none" stroke="#191970" d="M1751.3283,-128.8098C1768.2383,-117.7501 1791.2573,-102.1205 1810.5,-87 1835.2817,-67.5272 1862.071,-42.9205 1879.049,-26.8365"/><polygon fill="#191970" stroke="#191970" points="1881.725 -29.121 1886.544 -19.685 1876.893 -24.056 1881.725 -29.121"/></g><g id="node12" class="node"><title>Node11</title><g id="a_node12"><a target="_top" xlink:href="touch__event_8h.html" xlink:title="mir_toolkit/events\l/input/touch_event.h"><polygon fill="#fff" stroke="#000" points="1669.5 -56.5 1669.5 -86.5 1785.5 -86.5 1785.5 -56.5 1669.5 -56.5"/><text x="1677.5" y="-74.5" fill="#000" font-family="Arial" font-size="10" text-anchor="start">mir_toolkit/events</text><text x="1727.5" y="-63.5" fill="#000" font-family="Arial" font-size="10" text-anchor="middle">/input/touch_event.h</text></a></g></g><g id="edge15" class="edge"><title>Node8-&gt;Node11</title><path fill="none" stroke="#191970" d="M1727.5,-128.978C1727.5,-119.6459 1727.5,-107.4157 1727.5,-96.6368"/><polygon fill="#191970" stroke="#191970" points="1731 -96.503 1727.5 -86.503 1724 -96.503 1731 -96.503"/></g><g id="node13" class="node"><title>Node12</title><g id="a_node13"><a target="_top" xlink:href="keyboard__event_8h.html" xlink:title="mir_toolkit/events\l/input/keyboard_event.h"><polygon fill="#fff" stroke="#000" points="2022 -56.5 2022 -86.5 2157 -86.5 2157 -56.5 2022 -56.5"/><text x="2030" y="-74.5" fill="#000" font-family="Arial" font-size="10" text-anchor="start">mir_toolkit/events</text><text x="2089.5" y="-63.5" fill="#000" font-family="Arial" font-size="10" text-anchor="middle">/input/keyboard_event.h</text></a></g></g><g id="edge16" class="edge"><title>Node8-&gt;Node12</title><path fill="none" stroke="#191970" d="M1771.6288,-128.9877C1778.8869,-126.7995 1786.3676,-124.7114 1793.5,-123 1886.3261,-100.7272 1913.7163,-104.4583 2011.8739,-87.0562"/><polygon fill="#191970" stroke="#191970" points="2012.699 -90.464 2021.92 -85.246 2011.458 -83.575 2012.699 -90.464"/></g><g id="node15" class="node"><title>Node14</title><g id="a_node15"><a target="_top" xlink:href="pointer__event_8h.html" xlink:title="mir_toolkit/events\l/input/pointer_event.h"><polygon fill="#fff" stroke="#000" points="1879.5 -56.5 1879.5 -86.5 2003.5 -86.5 2003.5 -56.5 1879.5 -56.5"/><text x="1887.5" y="-74.5" fill="#000" font-family="Arial" font-size="10" text-anchor="start">mir_toolkit/events</text><text x="1941.5" y="-63.5" fill="#000" font-family="Arial" font-size="10" text-anchor="middle">/input/pointer_event.h</text></a></g></g><g id="edge18" class="edge"><title>Node8-&gt;Node14</title><path fill="none" stroke="#191970" d="M1771.8409,-128.978C1805.4123,-117.6045 1851.6898,-101.9263 1887.4331,-89.8171"/><polygon fill="#191970" stroke="#191970" points="1888.868 -93.026 1897.216 -86.503 1886.622 -86.397 1888.868 -93.026"/></g><g id="edge12" class="edge"><title>Node9-&gt;Node5</title><path fill="none" stroke="#191970" d="M1591.5,-56.2977C1591.5,-48.3834 1591.5,-38.6043 1591.5,-30.0759"/><polygon fill="#191970" stroke="#191970" points="1595 -29.847 1591.5 -19.847 1588 -29.847 1595 -29.847"/></g><g id="node14" class="node"><title>Node13</title><polygon fill="#fff" stroke="#bfbfbf" points="2062.5 -.5 2062.5 -19.5 2212.5 -19.5 2212.5 -.5 2062.5 -.5"/><text x="2137.5" y="-7.5" fill="#000" font-family="Arial" font-size="10" text-anchor="middle">xkbcommon/xkbcommon.h</text></g><g id="edge17" class="edge"><title>Node12-&gt;Node13</title><path fill="none" stroke="#191970" d="M2101.3652,-56.2977C2108.0975,-47.672 2116.5585,-36.8312 2123.6006,-27.8087"/><polygon fill="#191970" stroke="#191970" points="2126.421 -29.884 2129.815 -19.847 2120.903 -25.577 2126.421 -29.884"/></g><g id="edge19" class="edge"><title>Node14-&gt;Node10</title><path fill="none" stroke="#191970" d="M1930.3764,-56.2977C1924.1299,-47.7609 1916.296,-37.0545 1909.7353,-28.0883"/><polygon fill="#191970" stroke="#191970" points="1912.435 -25.851 1903.705 -19.847 1906.786 -29.984 1912.435 -25.851"/></g><g id="edge21" class="edge"><title>Node15-&gt;Node3</title><path fill="none" stroke="#191970" d="M914.6536,-159.0372C921.0187,-161.1042 927.4107,-163.1498 933.5,-165 973.4488,-177.138 1018.5288,-189.3618 1053.8937,-198.8525"/><polygon fill="#191970" stroke="#191970" points="1053.033 -202.245 1063.599 -201.454 1054.846 -195.484 1053.033 -202.245"/></g><g id="edge23" class="edge"><title>Node16-&gt;Node3</title><path fill="none" stroke="#191970" d="M503.9751,-159.0928C511.4876,-161.3826 519.1612,-163.4831 526.5,-165 626.1043,-185.5882 921.5302,-204.7238 1052.2201,-212.6504"/><polygon fill="#191970" stroke="#191970" points="1052.275 -216.16 1062.468 -213.269 1052.697 -209.173 1052.275 -216.16"/></g><g id="edge24" class="edge"><title>Node16-&gt;Node7</title><path fill="none" stroke="#191970" d="M437.7167,-128.978C424.3915,-117.051 405.7775,-100.3903 392.0189,-88.0756"/><polygon fill="#191970" stroke="#191970" points="394.341 -85.457 384.556 -81.396 389.673 -90.673 394.341 -85.457"/></g><g id="edge26" class="edge"><title>Node17-&gt;Node3</title><path fill="none" stroke="#191970" d="M1018.785,-159.0028C1039.3161,-169.7884 1065.5866,-184.4525 1085.6339,-196.2718"/><polygon fill="#191970" stroke="#191970" points="1083.982 -199.362 1094.364 -201.478 1087.568 -193.35 1083.982 -199.362"/></g><g id="edge28" class="edge"><title>Node18-&gt;Node3</title><path fill="none" stroke="#191970" d="M1121.0903,-159.0028C1122.2494,-168.3309 1122.5396,-180.5601 1121.961,-191.3409"/><polygon fill="#191970" stroke="#191970" points="1118.459 -191.216 1121.093 -201.478 1125.433 -191.813 1118.459 -191.216"/></g><g id="edge30" class="edge"><title>Node19-&gt;Node3</title><path fill="none" stroke="#191970" d="M1236.0847,-159.0028C1215.398,-170.0313 1185.3865,-185.115 1160.4259,-197.066"/><polygon fill="#191970" stroke="#191970" points="1158.668 -194.026 1151.137 -201.478 1161.671 -200.349 1158.668 -194.026"/></g><g id="edge32" class="edge"><title>Node20-&gt;Node3</title><path fill="none" stroke="#191970" d="M1824.7288,-159.0552C1817.5301,-161.3792 1809.8493,-163.5011 1802.5,-165 1684.7442,-189.0171 1325.4001,-207.4086 1178.7336,-213.93"/><polygon fill="#191970" stroke="#191970" points="1178.384 -210.442 1168.547 -214.379 1178.692 -217.435 1178.384 -210.442"/></g><g id="edge33" class="edge"><title>Node20-&gt;Node13</title><path fill="none" stroke="#191970" d="M1896.5464,-128.9261C1903.478,-126.7192 1910.6478,-124.6412 1917.5,-123 1971.8709,-109.9776 2129.9042,-129.2673 2166.5,-87 2181.31,-69.8949 2166.6923,-44.48 2153.3922,-27.586"/><polygon fill="#191970" stroke="#191970" points="2155.823 -25.038 2146.72 -19.617 2150.456 -29.532 2155.823 -25.038"/></g><g id="edge35" class="edge"><title>Node21-&gt;Node3</title><path fill="none" stroke="#191970" d="M639.0736,-160.3847C645.2727,-162.1293 651.5009,-163.728 657.5,-165 796.81,-194.5391 963.3076,-207.7405 1052.2622,-213.1497"/><polygon fill="#191970" stroke="#191970" points="1052.267 -216.656 1062.457 -213.756 1052.683 -209.668 1052.267 -216.656"/></g><g id="edge36" class="edge"><title>Node21-&gt;Node7</title><path fill="none" stroke="#191970" d="M525.9416,-124.3805C489.398,-111.7039 442.8681,-95.5631 410.8819,-84.4674"/><polygon fill="#191970" stroke="#191970" points="411.634 -81.024 401.039 -81.053 409.339 -87.637 411.634 -81.024"/></g><g id="edge38" class="edge"><title>Node22-&gt;Node3</title><path fill="none" stroke="#191970" d="M785.1249,-159.0952C793.3214,-161.2226 801.6109,-163.2704 809.5,-165 892.9478,-183.2949 990.1277,-198.2321 1052.2711,-207.2208"/><polygon fill="#191970" stroke="#191970" points="1051.919 -210.706 1062.316 -208.666 1052.916 -203.777 1051.919 -210.706"/></g><g id="edge39" class="edge"><title>Node22-&gt;Node7</title><path fill="none" stroke="#191970" d="M672.3174,-128.9571C664.3666,-126.8463 656.2352,-124.7896 648.5,-123 578.779,-106.8694 498.2253,-92.2481 442.3999,-82.7415"/><polygon fill="#191970" stroke="#191970" points="442.716 -79.245 432.272 -81.027 441.547 -86.147 442.716 -79.245"/></g><g id="edge41" class="edge"><title>Node23-&gt;Node3</title><path fill="none" stroke="#191970" d="M1371.2156,-159.0746C1363.6608,-161.115 1355.8913,-163.1432 1348.5,-165 1291.5324,-179.3109 1226.018,-194.1913 1178.9093,-204.2549"/><polygon fill="#191970" stroke="#191970" points="1177.903 -200.89 1168.847 -206.39 1179.356 -207.738 1177.903 -200.89"/></g><g id="edge43" class="edge"><title>Node24-&gt;Node3</title><path fill="none" stroke="#191970" d="M1504.5902,-164.5138C1503.8907,-164.6798 1503.1938,-164.842 1502.5,-165 1390.1739,-190.5847 1255.9818,-205.1775 1178.6708,-211.904"/><polygon fill="#191970" stroke="#191970" points="1178.275 -208.425 1168.609 -212.763 1178.87 -215.4 1178.275 -208.425"/></g></g></svg>