<svg xmlns="http://www.w3.org/2000/svg" xmlns:xlink="http://www.w3.org/1999/xlink" width="335pt" height="206pt" viewBox="0 0 334.5 206"><g id="graph0" class="graph" transform="scale(1 1) rotate(0) translate(4 202)"><title>include/client/mir_toolkit/mir_display_configuration.h</title><polygon fill="#fff" stroke="transparent" points="-4 4 -4 -202 330.5 -202 330.5 4 -4 4"/><g id="node1" class="node"><title>Node24</title><polygon fill="#bfbfbf" stroke="#000" points="74.5 -156.5 74.5 -197.5 187.5 -197.5 187.5 -156.5 74.5 -156.5"/><text x="82.5" y="-185.5" fill="#000" font-family="Arial" font-size="10" text-anchor="start">include/client/mir</text><text x="82.5" y="-174.5" fill="#000" font-family="Arial" font-size="10" text-anchor="start">_toolkit/mir_display</text><text x="131" y="-163.5" fill="#000" font-family="Arial" font-size="10" text-anchor="middle">_configuration.h</text></g><g id="node2" class="node"><title>Node25</title><g id="a_node2"><a target="_top" xlink:href="display__config_8h.html" xlink:title="include/client/mir\l/client/display_config.h"><polygon fill="#fff" stroke="#000" points="0 -84 0 -114 128 -114 128 -84 0 -84"/><text x="8" y="-102" fill="#000" font-family="Arial" font-size="10" text-anchor="start">include/client/mir</text><text x="64" y="-91" fill="#000" font-family="Arial" font-size="10" text-anchor="middle">/client/display_config.h</text></a></g></g><g id="edge1" class="edge"><title>Node24-&gt;Node25</title><path fill="none" stroke="#191970" d="M106.4048,-148.3668C96.4859,-136.8194 85.444,-123.9646 77.1147,-114.2679"/><polygon fill="#191970" stroke="#191970" points="103.874 -150.792 113.045 -156.097 109.184 -146.231 103.874 -150.792"/></g><g id="node3" class="node"><title>Node26</title><g id="a_node3"><a target="_top" xlink:href="mir__client__library_8h.html" xlink:title="include/client/mir\l_toolkit/mir_client\l_library.h"><polygon fill="#fff" stroke="#000" points="146.5 -78.5 146.5 -119.5 251.5 -119.5 251.5 -78.5 146.5 -78.5"/><text x="154.5" y="-107.5" fill="#000" font-family="Arial" font-size="10" text-anchor="start">include/client/mir</text><text x="154.5" y="-96.5" fill="#000" font-family="Arial" font-size="10" text-anchor="start">_toolkit/mir_client</text><text x="199" y="-85.5" fill="#000" font-family="Arial" font-size="10" text-anchor="middle">_library.h</text></a></g></g><g id="edge2" class="edge"><title>Node24-&gt;Node26</title><path fill="none" stroke="#191970" d="M155.9543,-148.376C164.2413,-138.8703 173.3014,-128.4778 180.9627,-119.6898"/><polygon fill="#191970" stroke="#191970" points="153.156 -146.26 149.223 -156.097 158.432 -150.86 153.156 -146.26"/></g><g id="node4" class="node"><title>Node27</title><g id="a_node4"><a target="_top" xlink:href="toolkit_2debug_2surface_8h.html" xlink:title="include/client/mir\l_toolkit/debug/surface.h"><polygon fill="#fff" stroke="#000" points="61 -6 61 -36 195 -36 195 -6 61 -6"/><text x="69" y="-24" fill="#000" font-family="Arial" font-size="10" text-anchor="start">include/client/mir</text><text x="128" y="-13" fill="#000" font-family="Arial" font-size="10" text-anchor="middle">_toolkit/debug/surface.h</text></a></g></g><g id="edge3" class="edge"><title>Node26-&gt;Node27</title><path fill="none" stroke="#191970" d="M173.2394,-70.6996C162.6507,-59.0669 150.8091,-46.0578 141.8977,-36.2679"/><polygon fill="#191970" stroke="#191970" points="170.654 -73.058 179.973 -78.097 175.83 -68.346 170.654 -73.058"/></g><g id="node5" class="node"><title>Node28</title><g id="a_node5"><a target="_top" xlink:href="mir__prompt__session_8h.html" xlink:title="include/client/mir\l_toolkit/mir_prompt\l_session.h"><polygon fill="#fff" stroke="#000" points="213.5 -.5 213.5 -41.5 326.5 -41.5 326.5 -.5 213.5 -.5"/><text x="221.5" y="-29.5" fill="#000" font-family="Arial" font-size="10" text-anchor="start">include/client/mir</text><text x="221.5" y="-18.5" fill="#000" font-family="Arial" font-size="10" text-anchor="start">_toolkit/mir_prompt</text><text x="270" y="-7.5" fill="#000" font-family="Arial" font-size="10" text-anchor="middle">_session.h</text></a></g></g><g id="edge4" class="edge"><title>Node26-&gt;Node28</title><path fill="none" stroke="#191970" d="M224.7959,-70.6609C233.5185,-61.0783 243.0877,-50.5657 251.167,-41.6898"/><polygon fill="#191970" stroke="#191970" points="222.17 -68.346 218.027 -78.097 227.346 -73.058 222.17 -68.346"/></g></g></svg>