<svg xmlns="http://www.w3.org/2000/svg" xmlns:xlink="http://www.w3.org/1999/xlink" width="2060pt" height="374pt" viewBox="0 0 2059.5 374"><g id="graph0" class="graph" transform="scale(1 1) rotate(0) translate(4 370)"><title>include/client/mir_toolkit/mir_display_configuration.h</title><polygon fill="#fff" stroke="transparent" points="-4 4 -4 -370 2055.5 -370 2055.5 4 -4 4"/><g id="node1" class="node"><title>Node0</title><polygon fill="#bfbfbf" stroke="#000" points="0 -324.5 0 -365.5 113 -365.5 113 -324.5 0 -324.5"/><text x="8" y="-353.5" fill="#000" font-family="Arial" font-size="10" text-anchor="start">include/client/mir</text><text x="8" y="-342.5" fill="#000" font-family="Arial" font-size="10" text-anchor="start">_toolkit/mir_display</text><text x="56.5" y="-331.5" fill="#000" font-family="Arial" font-size="10" text-anchor="middle">_configuration.h</text></g><g id="node2" class="node"><title>Node1</title><g id="a_node2"><a target="_top" xlink:href="client__types_8h.html" xlink:title="client_types.h"><polygon fill="#fff" stroke="#000" points="79 -268.5 79 -287.5 164 -287.5 164 -268.5 79 -268.5"/><text x="121.5" y="-275.5" fill="#000" font-family="Arial" font-size="10" text-anchor="middle">client_types.h</text></a></g></g><g id="edge1" class="edge"><title>Node0-&gt;Node1</title><path fill="none" stroke="#191970" d="M76.7101,-324.168C85.7265,-314.8742 96.2228,-304.0549 104.7872,-295.227"/><polygon fill="#191970" stroke="#191970" points="107.56 -297.395 112.011 -287.781 102.536 -292.521 107.56 -297.395"/></g><g id="node7" class="node"><title>Node6</title><g id="a_node7"><a target="_top" xlink:href="deprecations_8h.html" xlink:title="mir_toolkit/deprecations.h"><polygon fill="#fff" stroke="#000" points="140 -62 140 -81 285 -81 285 -62 140 -62"/><text x="212.5" y="-69" fill="#000" font-family="Arial" font-size="10" text-anchor="middle">mir_toolkit/deprecations.h</text></a></g></g><g id="edge46" class="edge"><title>Node0-&gt;Node6</title><path fill="none" stroke="#191970" d="M46.3714,-324.4591C27.0875,-282.0841 -9.0981,-183.8528 36.5,-123 49.695,-105.3907 99.9561,-91.7827 143.4069,-82.9891"/><polygon fill="#191970" stroke="#191970" points="144.279 -86.385 153.416 -81.022 142.929 -79.516 144.279 -86.385"/></g><g id="node3" class="node"><title>Node2</title><g id="a_node3"><a target="_top" xlink:href="toolkit_2events_2event_8h.html" xlink:title="mir_toolkit/events\l/event.h"><polygon fill="#fff" stroke="#000" points="901.5 -201.5 901.5 -231.5 1007.5 -231.5 1007.5 -201.5 901.5 -201.5"/><text x="909.5" y="-219.5" fill="#000" font-family="Arial" font-size="10" text-anchor="start">mir_toolkit/events</text><text x="954.5" y="-208.5" fill="#000" font-family="Arial" font-size="10" text-anchor="middle">/event.h</text></a></g></g><g id="edge2" class="edge"><title>Node1-&gt;Node2</title><path fill="none" stroke="#191970" d="M164.2423,-274.8444C301.0739,-264.7421 728.8371,-233.1606 891.166,-221.1759"/><polygon fill="#191970" stroke="#191970" points="891.753 -224.642 901.468 -220.415 891.238 -217.661 891.753 -224.642"/></g><g id="node4" class="node"><title>Node3</title><polygon fill="#fff" stroke="#bfbfbf" points="1765.5 -134.5 1765.5 -153.5 1821.5 -153.5 1821.5 -134.5 1765.5 -134.5"/><text x="1793.5" y="-141.5" fill="#000" font-family="Arial" font-size="10" text-anchor="middle">stddef.h</text></g><g id="edge45" class="edge"><title>Node1-&gt;Node3</title><path fill="none" stroke="#191970" d="M164.0455,-277.7229C389.5652,-275.8532 1446.5966,-261.9733 1756.5,-165 1761.3551,-163.4808 1766.2759,-161.259 1770.8757,-158.8226"/><polygon fill="#191970" stroke="#191970" points="1772.851 -161.723 1779.743 -153.677 1769.337 -155.669 1772.851 -161.723"/></g><g id="node6" class="node"><title>Node5</title><g id="a_node6"><a target="_top" xlink:href="common_8h.html" xlink:title="mir_toolkit/common.h"><polygon fill="#fff" stroke="#000" points="59 -134.5 59 -153.5 184 -153.5 184 -134.5 59 -134.5"/><text x="121.5" y="-141.5" fill="#000" font-family="Arial" font-size="10" text-anchor="middle">mir_toolkit/common.h</text></a></g></g><g id="edge43" class="edge"><title>Node1-&gt;Node5</title><path fill="none" stroke="#191970" d="M121.5,-268.3631C121.5,-246.5364 121.5,-192.9605 121.5,-163.7589"/><polygon fill="#191970" stroke="#191970" points="125 -163.55 121.5 -153.55 118 -163.55 125 -163.55"/></g><g id="edge44" class="edge"><title>Node1-&gt;Node6</title><path fill="none" stroke="#191970" d="M110.3133,-268.2034C82.4132,-242.5901 14.5043,-172.2139 50.5,-123 62.7728,-106.2205 110.6008,-92.3121 151.1331,-83.1966"/><polygon fill="#191970" stroke="#191970" points="151.965 -86.597 160.986 -81.041 150.469 -79.759 151.965 -86.597"/></g><g id="edge3" class="edge"><title>Node2-&gt;Node3</title><path fill="none" stroke="#191970" d="M1007.5729,-214.4749C1174.9923,-207.8946 1685.1431,-186.3077 1756.5,-165 1761.4586,-163.5193 1766.4743,-161.2762 1771.1446,-158.7988"/><polygon fill="#191970" stroke="#191970" points="1773.25 -161.622 1780.117 -153.554 1769.717 -155.579 1773.25 -161.622"/></g><g id="node5" class="node"><title>Node4</title><polygon fill="#fff" stroke="#bfbfbf" points="1404 -.5 1404 -19.5 1457 -19.5 1457 -.5 1404 -.5"/><text x="1430.5" y="-7.5" fill="#000" font-family="Arial" font-size="10" text-anchor="middle">stdint.h</text></g><g id="edge4" class="edge"><title>Node2-&gt;Node4</title><path fill="none" stroke="#191970" d="M1007.8441,-215.0548C1132.0647,-211.1401 1432.4098,-198.2949 1462.5,-165 1528.3725,-92.1118 1378.2964,-109.4755 1362.5,-87 1354.5776,-75.7278 1356.0399,-68.1694 1362.5,-56 1369.8846,-42.0889 1383.5636,-31.6166 1396.7272,-24.2062"/><polygon fill="#191970" stroke="#191970" points="1398.412 -27.275 1405.675 -19.561 1395.187 -21.063 1398.412 -27.275"/></g><g id="edge5" class="edge"><title>Node2-&gt;Node5</title><path fill="none" stroke="#191970" d="M901.3847,-214.254C752.6641,-207.747 334.1396,-187.8835 198.5,-165 186.1177,-162.911 172.8526,-159.6693 160.8815,-156.3529"/><polygon fill="#191970" stroke="#191970" points="161.755 -152.962 151.178 -153.573 159.827 -159.692 161.755 -152.962"/></g><g id="edge7" class="edge"><title>Node2-&gt;Node6</title><path fill="none" stroke="#191970" d="M901.4305,-214.4665C738.7701,-208.0061 256.6288,-187.0715 231.5,-165 210.8338,-146.8482 208.9837,-112.9048 210.2348,-91.2936"/><polygon fill="#191970" stroke="#191970" points="213.728 -91.526 211.089 -81.266 206.753 -90.933 213.728 -91.526"/></g><g id="node8" class="node"><title>Node7</title><g id="a_node8"><a target="_top" xlink:href="input__event_8h.html" xlink:title="mir_toolkit/events\l/input/input_event.h"><polygon fill="#fff" stroke="#000" points="1509.5 -129 1509.5 -159 1623.5 -159 1623.5 -129 1509.5 -129"/><text x="1517.5" y="-147" fill="#000" font-family="Arial" font-size="10" text-anchor="start">mir_toolkit/events</text><text x="1566.5" y="-136" fill="#000" font-family="Arial" font-size="10" text-anchor="middle">/input/input_event.h</text></a></g></g><g id="edge8" class="edge"><title>Node2-&gt;Node7</title><path fill="none" stroke="#191970" d="M1007.5909,-214.6178C1103.8988,-210.5896 1313.0538,-198.5806 1486.5,-165 1491.4218,-164.0471 1496.4917,-162.8972 1501.5824,-161.6323"/><polygon fill="#191970" stroke="#191970" points="1502.572 -164.992 1511.364 -159.08 1500.804 -158.218 1502.572 -164.992"/></g><g id="node15" class="node"><title>Node14</title><g id="a_node15"><a target="_top" xlink:href="resize__event_8h.html" xlink:title="mir_toolkit/events\l/resize_event.h"><polygon fill="#fff" stroke="#000" points="648.5 -129 648.5 -159 754.5 -159 754.5 -129 648.5 -129"/><text x="656.5" y="-147" fill="#000" font-family="Arial" font-size="10" text-anchor="start">mir_toolkit/events</text><text x="701.5" y="-136" fill="#000" font-family="Arial" font-size="10" text-anchor="middle">/resize_event.h</text></a></g></g><g id="edge19" class="edge"><title>Node2-&gt;Node14</title><path fill="none" stroke="#191970" d="M901.1346,-204.9268C860.5131,-194.9829 803.6266,-179.9266 754.5,-165 751.5505,-164.1038 748.53,-163.1618 745.4973,-162.1937"/><polygon fill="#191970" stroke="#191970" points="746.434 -158.818 735.842 -159.037 744.259 -165.471 746.434 -158.818"/></g><g id="node16" class="node"><title>Node15</title><g id="a_node16"><a target="_top" xlink:href="surface__event_8h.html" xlink:title="mir_toolkit/events\l/surface_event.h"><polygon fill="#fff" stroke="#000" points="240.5 -129 240.5 -159 346.5 -159 346.5 -129 240.5 -129"/><text x="248.5" y="-147" fill="#000" font-family="Arial" font-size="10" text-anchor="start">mir_toolkit/events</text><text x="293.5" y="-136" fill="#000" font-family="Arial" font-size="10" text-anchor="middle">/surface_event.h</text></a></g></g><g id="edge21" class="edge"><title>Node2-&gt;Node15</title><path fill="none" stroke="#191970" d="M901.2993,-213.7828C773.4257,-206.6876 452.2253,-186.6467 347.5,-165 343.3719,-164.1467 339.1379,-163.1088 334.9387,-161.9564"/><polygon fill="#191970" stroke="#191970" points="335.852 -158.577 325.27 -159.093 333.864 -165.288 335.852 -158.577"/></g><g id="node17" class="node"><title>Node16</title><g id="a_node17"><a target="_top" xlink:href="window__event_8h.html" xlink:title="mir_toolkit/events\l/window_event.h"><polygon fill="#fff" stroke="#000" points="772.5 -129 772.5 -159 878.5 -159 878.5 -129 772.5 -129"/><text x="780.5" y="-147" fill="#000" font-family="Arial" font-size="10" text-anchor="start">mir_toolkit/events</text><text x="825.5" y="-136" fill="#000" font-family="Arial" font-size="10" text-anchor="middle">/window_event.h</text></a></g></g><g id="edge24" class="edge"><title>Node2-&gt;Node16</title><path fill="none" stroke="#191970" d="M922.1784,-201.478C901.6404,-190.6877 875.3702,-176.023 855.3304,-164.2071"/><polygon fill="#191970" stroke="#191970" points="856.986 -161.119 846.604 -159.003 853.4 -167.131 856.986 -161.119"/></g><g id="node18" class="node"><title>Node17</title><g id="a_node18"><a target="_top" xlink:href="orientation__event_8h.html" xlink:title="mir_toolkit/events\l/orientation_event.h"><polygon fill="#fff" stroke="#000" points="897 -129 897 -159 1012 -159 1012 -129 897 -129"/><text x="905" y="-147" fill="#000" font-family="Arial" font-size="10" text-anchor="start">mir_toolkit/events</text><text x="954.5" y="-136" fill="#000" font-family="Arial" font-size="10" text-anchor="middle">/orientation_event.h</text></a></g></g><g id="edge26" class="edge"><title>Node2-&gt;Node17</title><path fill="none" stroke="#191970" d="M948.9073,-201.478C947.7494,-192.1459 947.4604,-179.9157 948.0402,-169.1368"/><polygon fill="#191970" stroke="#191970" points="951.542 -169.265 948.91 -159.003 944.568 -168.667 951.542 -169.265"/></g><g id="node19" class="node"><title>Node18</title><g id="a_node19"><a target="_top" xlink:href="prompt__session__event_8h.html" xlink:title="mir_toolkit/events\l/prompt_session_event.h"><polygon fill="#fff" stroke="#000" points="1030 -129 1030 -159 1169 -159 1169 -129 1030 -129"/><text x="1038" y="-147" fill="#000" font-family="Arial" font-size="10" text-anchor="start">mir_toolkit/events</text><text x="1099.5" y="-136" fill="#000" font-family="Arial" font-size="10" text-anchor="middle">/prompt_session_event.h</text></a></g></g><g id="edge28" class="edge"><title>Node2-&gt;Node18</title><path fill="none" stroke="#191970" d="M978.9514,-201.478C999.6489,-190.4447 1029.6629,-175.3605 1054.6176,-163.4132"/><polygon fill="#191970" stroke="#191970" points="1056.372 -166.454 1063.904 -159.003 1053.37 -160.131 1056.372 -166.454"/></g><g id="node20" class="node"><title>Node19</title><g id="a_node20"><a target="_top" xlink:href="keymap__event_8h.html" xlink:title="mir_toolkit/events\l/keymap_event.h"><polygon fill="#fff" stroke="#000" points="1641.5 -129 1641.5 -159 1747.5 -159 1747.5 -129 1641.5 -129"/><text x="1649.5" y="-147" fill="#000" font-family="Arial" font-size="10" text-anchor="start">mir_toolkit/events</text><text x="1694.5" y="-136" fill="#000" font-family="Arial" font-size="10" text-anchor="middle">/keymap_event.h</text></a></g></g><g id="edge30" class="edge"><title>Node2-&gt;Node19</title><path fill="none" stroke="#191970" d="M1007.5059,-213.9909C1144.1503,-207.5236 1505.3759,-189.0922 1623.5,-165 1627.634,-164.1568 1631.8729,-163.1166 1636.1267,-161.9541"/><polygon fill="#191970" stroke="#191970" points="1637.422 -165.222 1646.037 -159.055 1635.457 -158.504 1637.422 -165.222"/></g><g id="node21" class="node"><title>Node20</title><g id="a_node21"><a target="_top" xlink:href="input__configuration__event_8h.html" xlink:title="mir_toolkit/events\l/input_configuration\l_event.h"><polygon fill="#fff" stroke="#000" points="365 -123.5 365 -164.5 478 -164.5 478 -123.5 365 -123.5"/><text x="373" y="-152.5" fill="#000" font-family="Arial" font-size="10" text-anchor="start">mir_toolkit/events</text><text x="373" y="-141.5" fill="#000" font-family="Arial" font-size="10" text-anchor="start">/input_configuration</text><text x="421.5" y="-130.5" fill="#000" font-family="Arial" font-size="10" text-anchor="middle">_event.h</text></a></g></g><g id="edge33" class="edge"><title>Node2-&gt;Node20</title><path fill="none" stroke="#191970" d="M901.2438,-214.3527C814.3731,-209.9396 637.3278,-197.567 486.284,-166.6042"/><polygon fill="#191970" stroke="#191970" points="486.878 -163.153 476.374 -164.538 485.449 -170.006 486.878 -163.153"/></g><g id="node22" class="node"><title>Node21</title><g id="a_node22"><a target="_top" xlink:href="surface__output__event_8h.html" xlink:title="mir_toolkit/events\l/surface_output_event.h"><polygon fill="#fff" stroke="#000" points="496.5 -129 496.5 -159 630.5 -159 630.5 -129 496.5 -129"/><text x="504.5" y="-147" fill="#000" font-family="Arial" font-size="10" text-anchor="start">mir_toolkit/events</text><text x="563.5" y="-136" fill="#000" font-family="Arial" font-size="10" text-anchor="middle">/surface_output_event.h</text></a></g></g><g id="edge36" class="edge"><title>Node2-&gt;Node21</title><path fill="none" stroke="#191970" d="M901.3413,-210.4249C836.6789,-202.0667 724.818,-185.6781 630.5,-165 625.8159,-163.9731 620.9906,-162.8339 616.1735,-161.6326"/><polygon fill="#191970" stroke="#191970" points="616.903 -158.206 606.345 -159.095 615.153 -164.984 616.903 -158.206"/></g><g id="node23" class="node"><title>Node22</title><g id="a_node23"><a target="_top" xlink:href="window__output__event_8h.html" xlink:title="mir_toolkit/events\l/window_output_event.h"><polygon fill="#fff" stroke="#000" points="1187.5 -129 1187.5 -159 1323.5 -159 1323.5 -129 1187.5 -129"/><text x="1195.5" y="-147" fill="#000" font-family="Arial" font-size="10" text-anchor="start">mir_toolkit/events</text><text x="1255.5" y="-136" fill="#000" font-family="Arial" font-size="10" text-anchor="middle">/window_output_event.h</text></a></g></g><g id="edge39" class="edge"><title>Node2-&gt;Node22</title><path fill="none" stroke="#191970" d="M1007.581,-203.2765C1051.1923,-193.2418 1114.3511,-178.854 1169.5,-165 1173.7731,-163.9266 1178.1726,-162.7958 1182.6184,-161.6385"/><polygon fill="#191970" stroke="#191970" points="1183.609 -164.997 1192.394 -159.075 1181.833 -158.226 1183.609 -164.997"/></g><g id="node24" class="node"><title>Node23</title><g id="a_node24"><a target="_top" xlink:href="input__device__state__event_8h.html" xlink:title="mir_toolkit/events\l/input_device_state\l_event.h"><polygon fill="#fff" stroke="#000" points="1341.5 -123.5 1341.5 -164.5 1453.5 -164.5 1453.5 -123.5 1341.5 -123.5"/><text x="1349.5" y="-152.5" fill="#000" font-family="Arial" font-size="10" text-anchor="start">mir_toolkit/events</text><text x="1349.5" y="-141.5" fill="#000" font-family="Arial" font-size="10" text-anchor="start">/input_device_state</text><text x="1397.5" y="-130.5" fill="#000" font-family="Arial" font-size="10" text-anchor="middle">_event.h</text></a></g></g><g id="edge41" class="edge"><title>Node2-&gt;Node23</title><path fill="none" stroke="#191970" d="M1007.7387,-211.676C1079.9731,-204.8506 1212.427,-190.2992 1323.5,-165 1326.1197,-164.4033 1328.7849,-163.7477 1331.4731,-163.0484"/><polygon fill="#191970" stroke="#191970" points="1332.556 -166.381 1341.268 -160.352 1330.698 -159.632 1332.556 -166.381"/></g><g id="edge6" class="edge"><title>Node5-&gt;Node6</title><path fill="none" stroke="#191970" d="M133.7727,-134.2223C148.7816,-122.2646 174.3969,-101.8569 192.3208,-87.5768"/><polygon fill="#191970" stroke="#191970" points="194.781 -90.091 200.422 -81.123 190.42 -84.617 194.781 -90.091"/></g><g id="edge9" class="edge"><title>Node7-&gt;Node2</title><path fill="none" stroke="#191970" d="M1529.0826,-159.08C1521.0526,-161.3419 1512.5767,-163.4363 1504.5,-165 1330.768,-198.6359 1121.2093,-210.6291 1018.0368,-214.6377"/><polygon fill="#191970" stroke="#191970" points="1017.65 -211.15 1007.789 -215.023 1017.914 -218.145 1017.65 -211.15"/></g><g id="edge12" class="edge"><title>Node7-&gt;Node4</title><path fill="none" stroke="#191970" d="M1591.945,-128.8888C1618.4869,-111.2272 1653.633,-81.2055 1633.5,-56 1613.0967,-30.4561 1520.1268,-18.0412 1467.3609,-12.9569"/><polygon fill="#191970" stroke="#191970" points="1467.656 -9.469 1457.377 -12.036 1467.013 -16.44 1467.656 -9.469"/></g><g id="node9" class="node"><title>Node8</title><g id="a_node9"><a target="_top" xlink:href="mir__input__device__types_8h.html" xlink:title="mir_toolkit/mir_input\l_device_types.h"><polygon fill="#fff" stroke="#000" points="1371 -56.5 1371 -86.5 1490 -86.5 1490 -56.5 1371 -56.5"/><text x="1379" y="-74.5" fill="#000" font-family="Arial" font-size="10" text-anchor="start">mir_toolkit/mir_input</text><text x="1430.5" y="-63.5" fill="#000" font-family="Arial" font-size="10" text-anchor="middle">_device_types.h</text></a></g></g><g id="edge10" class="edge"><title>Node7-&gt;Node8</title><path fill="none" stroke="#191970" d="M1538.3207,-128.978C1517.8062,-118.0419 1489.826,-103.126 1467.5102,-91.2297"/><polygon fill="#191970" stroke="#191970" points="1469.114 -88.118 1458.643 -86.503 1465.821 -94.296 1469.114 -88.118"/></g><g id="node10" class="node"><title>Node9</title><polygon fill="#fff" stroke="#bfbfbf" points="1704.5 -.5 1704.5 -19.5 1766.5 -19.5 1766.5 -.5 1704.5 -.5"/><text x="1735.5" y="-7.5" fill="#000" font-family="Arial" font-size="10" text-anchor="middle">stdbool.h</text></g><g id="edge13" class="edge"><title>Node7-&gt;Node9</title><path fill="none" stroke="#191970" d="M1590.3283,-128.8098C1607.2383,-117.7501 1630.2573,-102.1205 1649.5,-87 1674.2817,-67.5272 1701.071,-42.9205 1718.049,-26.8365"/><polygon fill="#191970" stroke="#191970" points="1720.725 -29.121 1725.544 -19.685 1715.893 -24.056 1720.725 -29.121"/></g><g id="node11" class="node"><title>Node10</title><g id="a_node11"><a target="_top" xlink:href="touch__event_8h.html" xlink:title="mir_toolkit/events\l/input/touch_event.h"><polygon fill="#fff" stroke="#000" points="1508.5 -56.5 1508.5 -86.5 1624.5 -86.5 1624.5 -56.5 1508.5 -56.5"/><text x="1516.5" y="-74.5" fill="#000" font-family="Arial" font-size="10" text-anchor="start">mir_toolkit/events</text><text x="1566.5" y="-63.5" fill="#000" font-family="Arial" font-size="10" text-anchor="middle">/input/touch_event.h</text></a></g></g><g id="edge14" class="edge"><title>Node7-&gt;Node10</title><path fill="none" stroke="#191970" d="M1566.5,-128.978C1566.5,-119.6459 1566.5,-107.4157 1566.5,-96.6368"/><polygon fill="#191970" stroke="#191970" points="1570 -96.503 1566.5 -86.503 1563 -96.503 1570 -96.503"/></g><g id="node12" class="node"><title>Node11</title><g id="a_node12"><a target="_top" xlink:href="keyboard__event_8h.html" xlink:title="mir_toolkit/events\l/input/keyboard_event.h"><polygon fill="#fff" stroke="#000" points="1861 -56.5 1861 -86.5 1996 -86.5 1996 -56.5 1861 -56.5"/><text x="1869" y="-74.5" fill="#000" font-family="Arial" font-size="10" text-anchor="start">mir_toolkit/events</text><text x="1928.5" y="-63.5" fill="#000" font-family="Arial" font-size="10" text-anchor="middle">/input/keyboard_event.h</text></a></g></g><g id="edge15" class="edge"><title>Node7-&gt;Node11</title><path fill="none" stroke="#191970" d="M1610.6288,-128.9877C1617.8869,-126.7995 1625.3676,-124.7114 1632.5,-123 1725.3261,-100.7272 1752.7163,-104.4583 1850.8739,-87.0562"/><polygon fill="#191970" stroke="#191970" points="1851.699 -90.464 1860.92 -85.246 1850.458 -83.575 1851.699 -90.464"/></g><g id="node14" class="node"><title>Node13</title><g id="a_node14"><a target="_top" xlink:href="pointer__event_8h.html" xlink:title="mir_toolkit/events\l/input/pointer_event.h"><polygon fill="#fff" stroke="#000" points="1718.5 -56.5 1718.5 -86.5 1842.5 -86.5 1842.5 -56.5 1718.5 -56.5"/><text x="1726.5" y="-74.5" fill="#000" font-family="Arial" font-size="10" text-anchor="start">mir_toolkit/events</text><text x="1780.5" y="-63.5" fill="#000" font-family="Arial" font-size="10" text-anchor="middle">/input/pointer_event.h</text></a></g></g><g id="edge17" class="edge"><title>Node7-&gt;Node13</title><path fill="none" stroke="#191970" d="M1610.8409,-128.978C1644.4123,-117.6045 1690.6898,-101.9263 1726.4331,-89.8171"/><polygon fill="#191970" stroke="#191970" points="1727.868 -93.026 1736.216 -86.503 1725.622 -86.397 1727.868 -93.026"/></g><g id="edge11" class="edge"><title>Node8-&gt;Node4</title><path fill="none" stroke="#191970" d="M1430.5,-56.2977C1430.5,-48.3834 1430.5,-38.6043 1430.5,-30.0759"/><polygon fill="#191970" stroke="#191970" points="1434 -29.847 1430.5 -19.847 1427 -29.847 1434 -29.847"/></g><g id="node13" class="node"><title>Node12</title><polygon fill="#fff" stroke="#bfbfbf" points="1901.5 -.5 1901.5 -19.5 2051.5 -19.5 2051.5 -.5 1901.5 -.5"/><text x="1976.5" y="-7.5" fill="#000" font-family="Arial" font-size="10" text-anchor="middle">xkbcommon/xkbcommon.h</text></g><g id="edge16" class="edge"><title>Node11-&gt;Node12</title><path fill="none" stroke="#191970" d="M1940.3652,-56.2977C1947.0975,-47.672 1955.5585,-36.8312 1962.6006,-27.8087"/><polygon fill="#191970" stroke="#191970" points="1965.421 -29.884 1968.815 -19.847 1959.903 -25.577 1965.421 -29.884"/></g><g id="edge18" class="edge"><title>Node13-&gt;Node9</title><path fill="none" stroke="#191970" d="M1769.3764,-56.2977C1763.1299,-47.7609 1755.296,-37.0545 1748.7353,-28.0883"/><polygon fill="#191970" stroke="#191970" points="1751.435 -25.851 1742.705 -19.847 1745.786 -29.984 1751.435 -25.851"/></g><g id="edge20" class="edge"><title>Node14-&gt;Node2</title><path fill="none" stroke="#191970" d="M753.6536,-159.0372C760.0187,-161.1042 766.4107,-163.1498 772.5,-165 812.4488,-177.138 857.5288,-189.3618 892.8937,-198.8525"/><polygon fill="#191970" stroke="#191970" points="892.033 -202.245 902.598 -201.454 893.846 -195.484 892.033 -202.245"/></g><g id="edge22" class="edge"><title>Node15-&gt;Node2</title><path fill="none" stroke="#191970" d="M342.9751,-159.0928C350.4876,-161.3826 358.1612,-163.4831 365.5,-165 465.1043,-185.5882 760.5302,-204.7238 891.2201,-212.6504"/><polygon fill="#191970" stroke="#191970" points="891.275 -216.16 901.468 -213.269 891.697 -209.173 891.275 -216.16"/></g><g id="edge23" class="edge"><title>Node15-&gt;Node6</title><path fill="none" stroke="#191970" d="M276.7167,-128.978C263.3915,-117.051 244.7775,-100.3903 231.0189,-88.0756"/><polygon fill="#191970" stroke="#191970" points="233.341 -85.457 223.556 -81.396 228.673 -90.673 233.341 -85.457"/></g><g id="edge25" class="edge"><title>Node16-&gt;Node2</title><path fill="none" stroke="#191970" d="M857.785,-159.0028C878.3161,-169.7884 904.5866,-184.4525 924.6339,-196.2718"/><polygon fill="#191970" stroke="#191970" points="922.982 -199.362 933.364 -201.478 926.568 -193.35 922.982 -199.362"/></g><g id="edge27" class="edge"><title>Node17-&gt;Node2</title><path fill="none" stroke="#191970" d="M960.0903,-159.0028C961.2494,-168.3309 961.5396,-180.5601 960.961,-191.3409"/><polygon fill="#191970" stroke="#191970" points="957.459 -191.216 960.093 -201.478 964.433 -191.813 957.459 -191.216"/></g><g id="edge29" class="edge"><title>Node18-&gt;Node2</title><path fill="none" stroke="#191970" d="M1075.0847,-159.0028C1054.398,-170.0313 1024.3865,-185.115 999.4259,-197.066"/><polygon fill="#191970" stroke="#191970" points="997.668 -194.026 990.137 -201.478 1000.671 -200.349 997.668 -194.026"/></g><g id="edge31" class="edge"><title>Node19-&gt;Node2</title><path fill="none" stroke="#191970" d="M1663.7288,-159.0552C1656.5301,-161.3792 1648.8493,-163.5011 1641.5,-165 1523.7442,-189.0171 1164.4001,-207.4086 1017.7336,-213.93"/><polygon fill="#191970" stroke="#191970" points="1017.384 -210.442 1007.547 -214.379 1017.692 -217.435 1017.384 -210.442"/></g><g id="edge32" class="edge"><title>Node19-&gt;Node12</title><path fill="none" stroke="#191970" d="M1735.5464,-128.9261C1742.478,-126.7192 1749.6478,-124.6412 1756.5,-123 1810.8709,-109.9776 1968.9042,-129.2673 2005.5,-87 2020.31,-69.8949 2005.6923,-44.48 1992.3922,-27.586"/><polygon fill="#191970" stroke="#191970" points="1994.823 -25.038 1985.72 -19.617 1989.456 -29.532 1994.823 -25.038"/></g><g id="edge34" class="edge"><title>Node20-&gt;Node2</title><path fill="none" stroke="#191970" d="M478.0736,-160.3847C484.2727,-162.1293 490.5009,-163.728 496.5,-165 635.81,-194.5391 802.3076,-207.7405 891.2622,-213.1497"/><polygon fill="#191970" stroke="#191970" points="891.267 -216.656 901.457 -213.756 891.683 -209.668 891.267 -216.656"/></g><g id="edge35" class="edge"><title>Node20-&gt;Node6</title><path fill="none" stroke="#191970" d="M364.9416,-124.3805C328.398,-111.7039 281.8681,-95.5631 249.8819,-84.4674"/><polygon fill="#191970" stroke="#191970" points="250.634 -81.024 240.039 -81.053 248.339 -87.637 250.634 -81.024"/></g><g id="edge37" class="edge"><title>Node21-&gt;Node2</title><path fill="none" stroke="#191970" d="M624.1249,-159.0952C632.3214,-161.2226 640.6109,-163.2704 648.5,-165 731.9478,-183.2949 829.1277,-198.2321 891.2711,-207.2208"/><polygon fill="#191970" stroke="#191970" points="890.919 -210.706 901.316 -208.666 891.916 -203.777 890.919 -210.706"/></g><g id="edge38" class="edge"><title>Node21-&gt;Node6</title><path fill="none" stroke="#191970" d="M511.3174,-128.9571C503.3666,-126.8463 495.2352,-124.7896 487.5,-123 417.779,-106.8694 337.2253,-92.2481 281.3999,-82.7415"/><polygon fill="#191970" stroke="#191970" points="281.716 -79.245 271.272 -81.027 280.547 -86.147 281.716 -79.245"/></g><g id="edge40" class="edge"><title>Node22-&gt;Node2</title><path fill="none" stroke="#191970" d="M1210.2156,-159.0746C1202.6608,-161.115 1194.8913,-163.1432 1187.5,-165 1130.5324,-179.3109 1065.018,-194.1913 1017.9093,-204.2549"/><polygon fill="#191970" stroke="#191970" points="1016.903 -200.89 1007.847 -206.39 1018.356 -207.738 1016.903 -200.89"/></g><g id="edge42" class="edge"><title>Node23-&gt;Node2</title><path fill="none" stroke="#191970" d="M1343.5902,-164.5138C1342.8907,-164.6798 1342.1938,-164.842 1341.5,-165 1229.1739,-190.5847 1094.9818,-205.1775 1017.6708,-211.904"/><polygon fill="#191970" stroke="#191970" points="1017.275 -208.425 1007.609 -212.763 1017.87 -215.4 1017.275 -208.425"/></g></g></svg>