<svg xmlns="http://www.w3.org/2000/svg" xmlns:xlink="http://www.w3.org/1999/xlink" width="2009pt" height="329pt" viewBox="0 0 2008.5 329"><g id="graph0" class="graph" transform="scale(1 1) rotate(0) translate(4 325)"><title>include/client/mir_toolkit/mir_connection.h</title><polygon fill="#fff" stroke="transparent" points="-4 4 -4 -325 2004.5 -325 2004.5 4 -4 4"/><g id="node1" class="node"><title>Node24</title><polygon fill="#bfbfbf" stroke="#000" points="526.5 -290.5 526.5 -320.5 666.5 -320.5 666.5 -290.5 526.5 -290.5"/><text x="534.5" y="-308.5" fill="#000" font-family="Arial" font-size="10" text-anchor="start">include/client/mir</text><text x="596.5" y="-297.5" fill="#000" font-family="Arial" font-size="10" text-anchor="middle">_toolkit/mir_connection.h</text></g><g id="node2" class="node"><title>Node25</title><g id="a_node2"><a target="_top" xlink:href="connection_8h.html" xlink:title="include/client/mir\l/client/connection.h"><polygon fill="#fff" stroke="#000" points="149.5 -218 149.5 -248 261.5 -248 261.5 -218 149.5 -218"/><text x="157.5" y="-236" fill="#000" font-family="Arial" font-size="10" text-anchor="start">include/client/mir</text><text x="205.5" y="-225" fill="#000" font-family="Arial" font-size="10" text-anchor="middle">/client/connection.h</text></a></g></g><g id="edge1" class="edge"><title>Node24-&gt;Node25</title><path fill="none" stroke="#191970" d="M516.2647,-296.3663C449.8569,-287.9628 353.3258,-273.7942 270.5,-254 263.4641,-252.3185 256.0907,-250.246 248.9401,-248.0644"/><polygon fill="#191970" stroke="#191970" points="515.891 -299.847 526.248 -297.615 516.759 -292.901 515.891 -299.847"/></g><g id="node9" class="node"><title>Node32</title><g id="a_node9"><a target="_top" xlink:href="display__config_8h.html" xlink:title="include/client/mir\l/client/display_config.h"><polygon fill="#fff" stroke="#000" points="279.5 -218 279.5 -248 407.5 -248 407.5 -218 279.5 -218"/><text x="287.5" y="-236" fill="#000" font-family="Arial" font-size="10" text-anchor="start">include/client/mir</text><text x="343.5" y="-225" fill="#000" font-family="Arial" font-size="10" text-anchor="middle">/client/display_config.h</text></a></g></g><g id="edge9" class="edge"><title>Node24-&gt;Node32</title><path fill="none" stroke="#191970" d="M533.7598,-287.5733C499.1687,-277.6836 455.458,-265.1767 416.5,-254 409.7816,-252.0726 402.7161,-250.0431 395.7352,-248.0365"/><polygon fill="#191970" stroke="#191970" points="533.147 -291.038 543.724 -290.422 535.071 -284.308 533.147 -291.038"/></g><g id="node10" class="node"><title>Node33</title><g id="a_node10"><a target="_top" xlink:href="window__spec_8h.html" xlink:title="include/client/mir\l/client/window_spec.h"><polygon fill="#fff" stroke="#000" points="425.5 -218 425.5 -248 549.5 -248 549.5 -218 425.5 -218"/><text x="433.5" y="-236" fill="#000" font-family="Arial" font-size="10" text-anchor="start">include/client/mir</text><text x="487.5" y="-225" fill="#000" font-family="Arial" font-size="10" text-anchor="middle">/client/window_spec.h</text></a></g></g><g id="edge10" class="edge"><title>Node24-&gt;Node33</title><path fill="none" stroke="#191970" d="M565.1233,-284.6302C547.5256,-272.9253 525.9794,-258.5941 510.0559,-248.0028"/><polygon fill="#191970" stroke="#191970" points="563.65 -287.854 573.915 -290.478 567.527 -282.026 563.65 -287.854"/></g><g id="node11" class="node"><title>Node34</title><g id="a_node11"><a target="_top" xlink:href="android__buffer_8h.html" xlink:title="include/client/mir\l_toolkit/extensions\l/android_buffer.h"><polygon fill="#fff" stroke="#000" points="342.5 -134.5 342.5 -175.5 452.5 -175.5 452.5 -134.5 342.5 -134.5"/><text x="350.5" y="-163.5" fill="#000" font-family="Arial" font-size="10" text-anchor="start">include/client/mir</text><text x="350.5" y="-152.5" fill="#000" font-family="Arial" font-size="10" text-anchor="start">_toolkit/extensions</text><text x="397.5" y="-141.5" fill="#000" font-family="Arial" font-size="10" text-anchor="middle">/android_buffer.h</text></a></g></g><g id="edge11" class="edge"><title>Node24-&gt;Node34</title><path fill="none" stroke="#191970" d="M592.1954,-280.3248C587.3795,-259.4162 577.5973,-230.2428 558.5,-212 554.3994,-208.0829 497.6922,-188.488 452.7245,-173.3543"/><polygon fill="#191970" stroke="#191970" points="588.828 -281.322 594.284 -290.404 595.682 -279.901 588.828 -281.322"/></g><g id="node12" class="node"><title>Node35</title><g id="a_node12"><a target="_top" xlink:href="android__egl_8h.html" xlink:title="include/client/mir\l_toolkit/extensions\l/android_egl.h"><polygon fill="#fff" stroke="#000" points="470.5 -134.5 470.5 -175.5 580.5 -175.5 580.5 -134.5 470.5 -134.5"/><text x="478.5" y="-163.5" fill="#000" font-family="Arial" font-size="10" text-anchor="start">include/client/mir</text><text x="478.5" y="-152.5" fill="#000" font-family="Arial" font-size="10" text-anchor="start">_toolkit/extensions</text><text x="525.5" y="-141.5" fill="#000" font-family="Arial" font-size="10" text-anchor="middle">/android_egl.h</text></a></g></g><g id="edge12" class="edge"><title>Node24-&gt;Node35</title><path fill="none" stroke="#191970" d="M600.3131,-280.3367C602.1066,-260.7123 601.9476,-233.3046 591.5,-212 584.3672,-197.4549 571.6669,-185.1109 559.2993,-175.6689"/><polygon fill="#191970" stroke="#191970" points="596.827 -280.017 599.169 -290.35 603.782 -280.812 596.827 -280.017"/></g><g id="node13" class="node"><title>Node36</title><g id="a_node13"><a target="_top" xlink:href="gbm__buffer_8h.html" xlink:title="include/client/mir\l_toolkit/extensions\l/gbm_buffer.h"><polygon fill="#fff" stroke="#000" points="598.5 -134.5 598.5 -175.5 708.5 -175.5 708.5 -134.5 598.5 -134.5"/><text x="606.5" y="-163.5" fill="#000" font-family="Arial" font-size="10" text-anchor="start">include/client/mir</text><text x="606.5" y="-152.5" fill="#000" font-family="Arial" font-size="10" text-anchor="start">_toolkit/extensions</text><text x="653.5" y="-141.5" fill="#000" font-family="Arial" font-size="10" text-anchor="middle">/gbm_buffer.h</text></a></g></g><g id="edge13" class="edge"><title>Node24-&gt;Node36</title><path fill="none" stroke="#191970" d="M613.7726,-282.1732C619.4439,-273.6498 625.3499,-263.7114 629.5,-254 640.55,-228.1424 647.132,-196.2148 650.5335,-175.732"/><polygon fill="#191970" stroke="#191970" points="610.841 -280.259 608.031 -290.474 616.598 -284.241 610.841 -280.259"/></g><g id="node14" class="node"><title>Node37</title><g id="a_node14"><a target="_top" xlink:href="mir__client__library_8h.html" xlink:title="include/client/mir\l_toolkit/mir_client\l_library.h"><polygon fill="#fff" stroke="#000" points="1739 -212.5 1739 -253.5 1844 -253.5 1844 -212.5 1739 -212.5"/><text x="1747" y="-241.5" fill="#000" font-family="Arial" font-size="10" text-anchor="start">include/client/mir</text><text x="1747" y="-230.5" fill="#000" font-family="Arial" font-size="10" text-anchor="start">_toolkit/mir_client</text><text x="1791.5" y="-219.5" fill="#000" font-family="Arial" font-size="10" text-anchor="middle">_library.h</text></a></g></g><g id="edge14" class="edge"><title>Node24-&gt;Node37</title><path fill="none" stroke="#191970" d="M676.9988,-300.6162C904.8635,-286.7918 1550.0447,-247.649 1738.9313,-236.1893"/><polygon fill="#191970" stroke="#191970" points="676.561 -297.136 666.791 -301.236 676.985 -304.123 676.561 -297.136"/></g><g id="node17" class="node"><title>Node40</title><g id="a_node17"><a target="_top" xlink:href="mir__extension__core_8h.html" xlink:title="include/client/mir\l_toolkit/mir_extension\l_core.h"><polygon fill="#fff" stroke="#000" points="846.5 -212.5 846.5 -253.5 972.5 -253.5 972.5 -212.5 846.5 -212.5"/><text x="854.5" y="-241.5" fill="#000" font-family="Arial" font-size="10" text-anchor="start">include/client/mir</text><text x="854.5" y="-230.5" fill="#000" font-family="Arial" font-size="10" text-anchor="start">_toolkit/mir_extension</text><text x="909.5" y="-219.5" fill="#000" font-family="Arial" font-size="10" text-anchor="middle">_core.h</text></a></g></g><g id="edge17" class="edge"><title>Node24-&gt;Node40</title><path fill="none" stroke="#191970" d="M671.1154,-288.2169C724.547,-275.8405 795.7062,-259.358 846.3334,-247.6312"/><polygon fill="#191970" stroke="#191970" points="670.306 -284.812 661.354 -290.478 671.886 -291.631 670.306 -284.812"/></g><g id="node3" class="node"><title>Node26</title><g id="a_node3"><a target="_top" xlink:href="internal__client_8h.html" xlink:title="include/miral/miral\l/internal_client.h"><polygon fill="#fff" stroke="#000" points="151 -140 151 -170 260 -170 260 -140 151 -140"/><text x="159" y="-158" fill="#000" font-family="Arial" font-size="10" text-anchor="start">include/miral/miral</text><text x="205.5" y="-147" fill="#000" font-family="Arial" font-size="10" text-anchor="middle">/internal_client.h</text></a></g></g><g id="edge2" class="edge"><title>Node25-&gt;Node26</title><path fill="none" stroke="#191970" d="M205.5,-207.7875C205.5,-195.4187 205.5,-180.9264 205.5,-170.2592"/><polygon fill="#191970" stroke="#191970" points="202 -207.961 205.5 -217.961 209 -207.961 202 -207.961"/></g><g id="node4" class="node"><title>Node27</title><g id="a_node4"><a target="_top" xlink:href="kiosk__main_8cpp.html" xlink:title="examples/miral-kiosk\l/kiosk_main.cpp"><polygon fill="#fff" stroke="#000" points="0 -67.5 0 -97.5 123 -97.5 123 -67.5 0 -67.5"/><text x="8" y="-85.5" fill="#000" font-family="Arial" font-size="10" text-anchor="start">examples/miral-kiosk</text><text x="61.5" y="-74.5" fill="#000" font-family="Arial" font-size="10" text-anchor="middle">/kiosk_main.cpp</text></a></g></g><g id="edge3" class="edge"><title>Node26-&gt;Node27</title><path fill="none" stroke="#191970" d="M166.586,-135.4079C142.8991,-123.4822 113.1071,-108.4828 91.2987,-97.5028"/><polygon fill="#191970" stroke="#191970" points="165.157 -138.607 175.663 -139.978 168.305 -132.355 165.157 -138.607"/></g><g id="node5" class="node"><title>Node28</title><g id="a_node5"><a target="_top" xlink:href="shell__main_8cpp.html" xlink:title="examples/miral-shell\l/shell_main.cpp"><polygon fill="#fff" stroke="#000" points="91.5 -.5 91.5 -30.5 211.5 -30.5 211.5 -.5 91.5 -.5"/><text x="99.5" y="-18.5" fill="#000" font-family="Arial" font-size="10" text-anchor="start">examples/miral-shell</text><text x="151.5" y="-7.5" fill="#000" font-family="Arial" font-size="10" text-anchor="middle">/shell_main.cpp</text></a></g></g><g id="edge4" class="edge"><title>Node26-&gt;Node28</title><path fill="none" stroke="#191970" d="M188.5493,-131.2878C182.1177,-121.3852 175.2152,-109.5195 170.5,-98 161.2575,-75.4199 156.0124,-47.4345 153.4668,-30.5481"/><polygon fill="#191970" stroke="#191970" points="185.763 -133.417 194.247 -139.764 191.573 -129.512 185.763 -133.417"/></g><g id="node6" class="node"><title>Node29</title><g id="a_node6"><a target="_top" xlink:href="floating__window__manager_8cpp.html" xlink:title="examples/example-server\l-lib/floating_window_manager.cpp"><polygon fill="#fff" stroke="#000" points="358 -67.5 358 -97.5 541 -97.5 541 -67.5 358 -67.5"/><text x="366" y="-85.5" fill="#000" font-family="Arial" font-size="10" text-anchor="start">examples/example-server</text><text x="449.5" y="-74.5" fill="#000" font-family="Arial" font-size="10" text-anchor="middle">-lib/floating_window_manager.cpp</text></a></g></g><g id="edge5" class="edge"><title>Node26-&gt;Node29</title><path fill="none" stroke="#191970" d="M265.6534,-137.1266C306.6276,-124.9518 360.256,-109.0172 399.0078,-97.5028"/><polygon fill="#191970" stroke="#191970" points="264.646 -133.775 256.057 -139.978 266.64 -140.485 264.646 -133.775"/></g><g id="node7" class="node"><title>Node30</title><g id="a_node7"><a target="_top" xlink:href="tiling__window__manager_8h.html" xlink:title="examples/example-server\l-lib/tiling_window_manager.h"><polygon fill="#fff" stroke="#000" points="179.5 -67.5 179.5 -97.5 339.5 -97.5 339.5 -67.5 179.5 -67.5"/><text x="187.5" y="-85.5" fill="#000" font-family="Arial" font-size="10" text-anchor="start">examples/example-server</text><text x="259.5" y="-74.5" fill="#000" font-family="Arial" font-size="10" text-anchor="middle">-lib/tiling_window_manager.h</text></a></g></g><g id="edge6" class="edge"><title>Node26-&gt;Node30</title><path fill="none" stroke="#191970" d="M222.747,-131.8443C231.122,-120.6 240.9434,-107.4139 248.3255,-97.5028"/><polygon fill="#191970" stroke="#191970" points="219.855 -129.867 216.689 -139.978 225.469 -134.049 219.855 -129.867"/></g><g id="edge7" class="edge"><title>Node30-&gt;Node28</title><path fill="none" stroke="#191970" d="M226.5779,-62.0761C210.2995,-51.9774 190.9899,-39.9983 176.0301,-30.7177"/><polygon fill="#191970" stroke="#191970" points="224.92 -65.166 235.263 -67.464 228.61 -59.218 224.92 -65.166"/></g><g id="node8" class="node"><title>Node31</title><g id="a_node8"><a target="_top" xlink:href="tiling__window__manager_8cpp.html" xlink:title="examples/example-server\l-lib/tiling_window_manager.cpp"><polygon fill="#fff" stroke="#000" points="230 -.5 230 -30.5 401 -30.5 401 -.5 230 -.5"/><text x="238" y="-18.5" fill="#000" font-family="Arial" font-size="10" text-anchor="start">examples/example-server</text><text x="315.5" y="-7.5" fill="#000" font-family="Arial" font-size="10" text-anchor="middle">-lib/tiling_window_manager.cpp</text></a></g></g><g id="edge8" class="edge"><title>Node30-&gt;Node31</title><path fill="none" stroke="#191970" d="M278.8485,-59.3509C286.7911,-49.8482 295.7636,-39.1132 302.843,-30.6432"/><polygon fill="#191970" stroke="#191970" points="275.935 -57.379 272.207 -67.297 281.306 -61.868 275.935 -57.379"/></g><g id="node15" class="node"><title>Node38</title><g id="a_node15"><a target="_top" xlink:href="toolkit_2debug_2surface_8h.html" xlink:title="include/client/mir\l_toolkit/debug/surface.h"><polygon fill="#fff" stroke="#000" points="1866.5 -140 1866.5 -170 2000.5 -170 2000.5 -140 1866.5 -140"/><text x="1874.5" y="-158" fill="#000" font-family="Arial" font-size="10" text-anchor="start">include/client/mir</text><text x="1933.5" y="-147" fill="#000" font-family="Arial" font-size="10" text-anchor="middle">_toolkit/debug/surface.h</text></a></g></g><g id="edge15" class="edge"><title>Node37-&gt;Node38</title><path fill="none" stroke="#191970" d="M1838.2212,-207.3363C1860.6677,-195.0064 1886.7951,-180.6548 1906.0066,-170.102"/><polygon fill="#191970" stroke="#191970" points="1836.26 -204.42 1829.181 -212.302 1839.63 -210.555 1836.26 -204.42"/></g><g id="node16" class="node"><title>Node39</title><g id="a_node16"><a target="_top" xlink:href="mir__prompt__session_8h.html" xlink:title="include/client/mir\l_toolkit/mir_prompt\l_session.h"><polygon fill="#fff" stroke="#000" points="1735 -134.5 1735 -175.5 1848 -175.5 1848 -134.5 1735 -134.5"/><text x="1743" y="-163.5" fill="#000" font-family="Arial" font-size="10" text-anchor="start">include/client/mir</text><text x="1743" y="-152.5" fill="#000" font-family="Arial" font-size="10" text-anchor="start">_toolkit/mir_prompt</text><text x="1791.5" y="-141.5" fill="#000" font-family="Arial" font-size="10" text-anchor="middle">_session.h</text></a></g></g><g id="edge16" class="edge"><title>Node37-&gt;Node39</title><path fill="none" stroke="#191970" d="M1791.5,-202.0789C1791.5,-193.2178 1791.5,-183.7747 1791.5,-175.6898"/><polygon fill="#191970" stroke="#191970" points="1788 -202.097 1791.5 -212.097 1795 -202.097 1788 -202.097"/></g><g id="edge18" class="edge"><title>Node40-&gt;Node34</title><path fill="none" stroke="#191970" d="M836.115,-227.9752C746.7656,-220.8714 591.6689,-205.355 461.5,-176 458.6481,-175.3569 455.7429,-174.6391 452.822,-173.8673"/><polygon fill="#191970" stroke="#191970" points="835.905 -231.469 846.147 -228.759 836.451 -224.491 835.905 -231.469"/></g><g id="edge19" class="edge"><title>Node40-&gt;Node35</title><path fill="none" stroke="#191970" d="M836.214,-222.9481C770.9489,-213.2865 673.1285,-197.0571 589.5,-176 586.5516,-175.2576 583.5419,-174.4494 580.5139,-173.5964"/><polygon fill="#191970" stroke="#191970" points="836 -226.454 846.402 -224.442 837.016 -219.528 836 -226.454"/></g><g id="edge22" class="edge"><title>Node40-&gt;Node36</title><path fill="none" stroke="#191970" d="M836.3355,-211.8106C800.4519,-201.2831 756.6346,-188.2268 717.5,-176 714.5979,-175.0933 711.6252,-174.1542 708.626,-173.1985"/><polygon fill="#191970" stroke="#191970" points="835.655 -215.258 846.236 -214.71 837.622 -208.541 835.655 -215.258"/></g><g id="node18" class="node"><title>Node41</title><g id="a_node18"><a target="_top" xlink:href="drag__and__drop_8h.html" xlink:title="include/client/mir\l_toolkit/extensions\l/drag_and_drop.h"><polygon fill="#fff" stroke="#000" points="1182.5 -134.5 1182.5 -175.5 1292.5 -175.5 1292.5 -134.5 1182.5 -134.5"/><text x="1190.5" y="-163.5" fill="#000" font-family="Arial" font-size="10" text-anchor="start">include/client/mir</text><text x="1190.5" y="-152.5" fill="#000" font-family="Arial" font-size="10" text-anchor="start">_toolkit/extensions</text><text x="1237.5" y="-141.5" fill="#000" font-family="Arial" font-size="10" text-anchor="middle">/drag_and_drop.h</text></a></g></g><g id="edge20" class="edge"><title>Node40-&gt;Node41</title><path fill="none" stroke="#191970" d="M982.619,-219.175C1035.6517,-208.6579 1108.9266,-193.1136 1172.5,-176 1175.7064,-175.1369 1178.989,-174.2113 1182.2927,-173.2473"/><polygon fill="#191970" stroke="#191970" points="981.76 -215.777 972.625 -221.145 983.114 -222.645 981.76 -215.777"/></g><g id="node19" class="node"><title>Node42</title><g id="a_node19"><a target="_top" xlink:href="fenced__buffers_8h.html" xlink:title="include/client/mir\l_toolkit/extensions\l/fenced_buffers.h"><polygon fill="#fff" stroke="#000" points="1310.5 -134.5 1310.5 -175.5 1420.5 -175.5 1420.5 -134.5 1310.5 -134.5"/><text x="1318.5" y="-163.5" fill="#000" font-family="Arial" font-size="10" text-anchor="start">include/client/mir</text><text x="1318.5" y="-152.5" fill="#000" font-family="Arial" font-size="10" text-anchor="start">_toolkit/extensions</text><text x="1365.5" y="-141.5" fill="#000" font-family="Arial" font-size="10" text-anchor="middle">/fenced_buffers.h</text></a></g></g><g id="edge21" class="edge"><title>Node40-&gt;Node42</title><path fill="none" stroke="#191970" d="M982.9568,-226.1469C1062.2581,-217.8624 1191.9366,-201.7375 1301.5,-176 1304.346,-175.3314 1307.2465,-174.5932 1310.1637,-173.8052"/><polygon fill="#191970" stroke="#191970" points="982.175 -222.709 972.586 -227.215 982.893 -229.672 982.175 -222.709"/></g><g id="node20" class="node"><title>Node43</title><g id="a_node20"><a target="_top" xlink:href="graphics__module_8h.html" xlink:title="include/client/mir\l_toolkit/extensions\l/graphics_module.h"><polygon fill="#fff" stroke="#000" points="1438.5 -134.5 1438.5 -175.5 1550.5 -175.5 1550.5 -134.5 1438.5 -134.5"/><text x="1446.5" y="-163.5" fill="#000" font-family="Arial" font-size="10" text-anchor="start">include/client/mir</text><text x="1446.5" y="-152.5" fill="#000" font-family="Arial" font-size="10" text-anchor="start">_toolkit/extensions</text><text x="1494.5" y="-141.5" fill="#000" font-family="Arial" font-size="10" text-anchor="middle">/graphics_module.h</text></a></g></g><g id="edge23" class="edge"><title>Node40-&gt;Node43</title><path fill="none" stroke="#191970" d="M982.7195,-229.6694C1084.0648,-223.9989 1272.3784,-209.6265 1429.5,-176 1432.3991,-175.3795 1435.3519,-174.68 1438.3202,-173.9227"/><polygon fill="#191970" stroke="#191970" points="982.384 -226.182 972.59 -230.223 982.767 -233.172 982.384 -226.182"/></g><g id="node21" class="node"><title>Node44</title><g id="a_node21"><a target="_top" xlink:href="hardware__buffer__stream_8h.html" xlink:title="include/client/mir\l_toolkit/extensions\l/hardware_buffer_stream.h"><polygon fill="#fff" stroke="#000" points="1568.5 -134.5 1568.5 -175.5 1716.5 -175.5 1716.5 -134.5 1568.5 -134.5"/><text x="1576.5" y="-163.5" fill="#000" font-family="Arial" font-size="10" text-anchor="start">include/client/mir</text><text x="1576.5" y="-152.5" fill="#000" font-family="Arial" font-size="10" text-anchor="start">_toolkit/extensions</text><text x="1642.5" y="-141.5" fill="#000" font-family="Arial" font-size="10" text-anchor="middle">/hardware_buffer_stream.h</text></a></g></g><g id="edge24" class="edge"><title>Node40-&gt;Node44</title><path fill="none" stroke="#191970" d="M982.9194,-230.3972C1103.8529,-225.2539 1352.2095,-211.0794 1559.5,-176 1562.4311,-175.504 1565.4108,-174.9573 1568.4136,-174.3709"/><polygon fill="#191970" stroke="#191970" points="982.52 -226.911 972.674 -230.824 982.811 -233.905 982.52 -226.911"/></g><g id="node22" class="node"><title>Node45</title><g id="a_node22"><a target="_top" xlink:href="mesa__drm__auth_8h.html" xlink:title="include/client/mir\l_toolkit/extensions\l/mesa_drm_auth.h"><polygon fill="#fff" stroke="#000" points="726.5 -134.5 726.5 -175.5 836.5 -175.5 836.5 -134.5 726.5 -134.5"/><text x="734.5" y="-163.5" fill="#000" font-family="Arial" font-size="10" text-anchor="start">include/client/mir</text><text x="734.5" y="-152.5" fill="#000" font-family="Arial" font-size="10" text-anchor="start">_toolkit/extensions</text><text x="781.5" y="-141.5" fill="#000" font-family="Arial" font-size="10" text-anchor="middle">/mesa_drm_auth.h</text></a></g></g><g id="edge25" class="edge"><title>Node40-&gt;Node45</title><path fill="none" stroke="#191970" d="M866.9607,-207.0776C850.1191,-196.8148 831.0353,-185.1856 815.1802,-175.5239"/><polygon fill="#191970" stroke="#191970" points="865.174 -210.087 875.534 -212.302 868.816 -204.11 865.174 -210.087"/></g><g id="node23" class="node"><title>Node46</title><g id="a_node23"><a target="_top" xlink:href="set__gbm__device_8h.html" xlink:title="include/client/mir\l_toolkit/extensions\l/set_gbm_device.h"><polygon fill="#fff" stroke="#000" points="854.5 -134.5 854.5 -175.5 964.5 -175.5 964.5 -134.5 854.5 -134.5"/><text x="862.5" y="-163.5" fill="#000" font-family="Arial" font-size="10" text-anchor="start">include/client/mir</text><text x="862.5" y="-152.5" fill="#000" font-family="Arial" font-size="10" text-anchor="start">_toolkit/extensions</text><text x="909.5" y="-141.5" fill="#000" font-family="Arial" font-size="10" text-anchor="middle">/set_gbm_device.h</text></a></g></g><g id="edge26" class="edge"><title>Node40-&gt;Node46</title><path fill="none" stroke="#191970" d="M909.5,-202.0789C909.5,-193.2178 909.5,-183.7747 909.5,-175.6898"/><polygon fill="#191970" stroke="#191970" points="906 -202.097 909.5 -212.097 913 -202.097 906 -202.097"/></g><g id="node24" class="node"><title>Node47</title><g id="a_node24"><a target="_top" xlink:href="window__coordinate__translation_8h.html" xlink:title="include/client/mir\l_toolkit/extensions\l/window_coordinate_translation.h"><polygon fill="#fff" stroke="#000" points="983 -134.5 983 -175.5 1164 -175.5 1164 -134.5 983 -134.5"/><text x="991" y="-163.5" fill="#000" font-family="Arial" font-size="10" text-anchor="start">include/client/mir</text><text x="991" y="-152.5" fill="#000" font-family="Arial" font-size="10" text-anchor="start">_toolkit/extensions</text><text x="1073.5" y="-141.5" fill="#000" font-family="Arial" font-size="10" text-anchor="middle">/window_coordinate_translation.h</text></a></g></g><g id="edge27" class="edge"><title>Node40-&gt;Node47</title><path fill="none" stroke="#191970" d="M962.2284,-207.9218C984.2326,-197.4564 1009.4738,-185.4515 1030.3473,-175.5239"/><polygon fill="#191970" stroke="#191970" points="960.546 -204.846 953.018 -212.302 963.552 -211.168 960.546 -204.846"/></g></g></svg>