<svg xmlns="http://www.w3.org/2000/svg" xmlns:xlink="http://www.w3.org/1999/xlink" width="2057pt" height="374pt" viewBox="0 0 2057 374"><g id="graph0" class="graph" transform="scale(1 1) rotate(0) translate(4 370)"><title>include/client/mir_toolkit/mir_wait.h</title><polygon fill="#fff" stroke="transparent" points="-4 4 -4 -370 2053 -370 2053 4 -4 4"/><g id="node1" class="node"><title>Node0</title><polygon fill="#bfbfbf" stroke="#000" points="0 -335.5 0 -365.5 108 -365.5 108 -335.5 0 -335.5"/><text x="8" y="-353.5" fill="#000" font-family="Arial" font-size="10" text-anchor="start">include/client/mir</text><text x="54" y="-342.5" fill="#000" font-family="Arial" font-size="10" text-anchor="middle">_toolkit/mir_wait.h</text></g><g id="node2" class="node"><title>Node1</title><g id="a_node2"><a target="_top" xlink:href="client__types_8h.html" xlink:title="mir_toolkit/client\l_types.h"><polygon fill="#fff" stroke="#000" points="69 -268.5 69 -298.5 169 -298.5 169 -268.5 69 -268.5"/><text x="77" y="-286.5" fill="#000" font-family="Arial" font-size="10" text-anchor="start">mir_toolkit/client</text><text x="119" y="-275.5" fill="#000" font-family="Arial" font-size="10" text-anchor="middle">_types.h</text></a></g></g><g id="edge1" class="edge"><title>Node0-&gt;Node1</title><path fill="none" stroke="#191970" d="M68.7495,-335.2967C77.1433,-326.6446 87.8157,-315.6438 97.1642,-306.0076"/><polygon fill="#191970" stroke="#191970" points="99.858 -308.258 104.309 -298.643 94.834 -303.384 99.858 -308.258"/></g><g id="node7" class="node"><title>Node6</title><g id="a_node7"><a target="_top" xlink:href="deprecations_8h.html" xlink:title="mir_toolkit/deprecations.h"><polygon fill="#fff" stroke="#000" points="137.5 -62 137.5 -81 282.5 -81 282.5 -62 137.5 -62"/><text x="210" y="-69" fill="#000" font-family="Arial" font-size="10" text-anchor="middle">mir_toolkit/deprecations.h</text></a></g></g><g id="edge46" class="edge"><title>Node0-&gt;Node6</title><path fill="none" stroke="#191970" d="M46.4042,-335.3349C27.8186,-295.8436 -14.9775,-188.3627 34,-123 47.195,-105.3907 97.4561,-91.7827 140.9069,-82.9891"/><polygon fill="#191970" stroke="#191970" points="141.779 -86.385 150.916 -81.022 140.429 -79.516 141.779 -86.385"/></g><g id="node3" class="node"><title>Node2</title><g id="a_node3"><a target="_top" xlink:href="toolkit_2events_2event_8h.html" xlink:title="mir_toolkit/events\l/event.h"><polygon fill="#fff" stroke="#000" points="899 -201.5 899 -231.5 1005 -231.5 1005 -201.5 899 -201.5"/><text x="907" y="-219.5" fill="#000" font-family="Arial" font-size="10" text-anchor="start">mir_toolkit/events</text><text x="952" y="-208.5" fill="#000" font-family="Arial" font-size="10" text-anchor="middle">/event.h</text></a></g></g><g id="edge2" class="edge"><title>Node1-&gt;Node2</title><path fill="none" stroke="#191970" d="M169.232,-279.4597C313.5344,-267.8532 729.1355,-234.4255 888.6328,-221.5968"/><polygon fill="#191970" stroke="#191970" points="889.075 -225.073 898.763 -220.782 888.514 -218.095 889.075 -225.073"/></g><g id="node4" class="node"><title>Node3</title><polygon fill="#fff" stroke="#bfbfbf" points="1763 -134.5 1763 -153.5 1819 -153.5 1819 -134.5 1763 -134.5"/><text x="1791" y="-141.5" fill="#000" font-family="Arial" font-size="10" text-anchor="middle">stddef.h</text></g><g id="edge45" class="edge"><title>Node1-&gt;Node3</title><path fill="none" stroke="#191970" d="M169.2499,-282.9458C410.1135,-279.8216 1447.4183,-260.9339 1754,-165 1758.8551,-163.4808 1763.7759,-161.259 1768.3757,-158.8226"/><polygon fill="#191970" stroke="#191970" points="1770.351 -161.723 1777.243 -153.677 1766.837 -155.669 1770.351 -161.723"/></g><g id="node6" class="node"><title>Node5</title><g id="a_node6"><a target="_top" xlink:href="common_8h.html" xlink:title="mir_toolkit/common.h"><polygon fill="#fff" stroke="#000" points="56.5 -134.5 56.5 -153.5 181.5 -153.5 181.5 -134.5 56.5 -134.5"/><text x="119" y="-141.5" fill="#000" font-family="Arial" font-size="10" text-anchor="middle">mir_toolkit/common.h</text></a></g></g><g id="edge43" class="edge"><title>Node1-&gt;Node5</title><path fill="none" stroke="#191970" d="M119,-268.3055C119,-242.9831 119,-192.1556 119,-163.9709"/><polygon fill="#191970" stroke="#191970" points="122.5 -163.737 119 -153.737 115.5 -163.737 122.5 -163.737"/></g><g id="edge44" class="edge"><title>Node1-&gt;Node6</title><path fill="none" stroke="#191970" d="M102.3832,-268.213C71.8711,-238.2817 13.1039,-170.7105 48,-123 60.2728,-106.2205 108.1008,-92.3121 148.6331,-83.1966"/><polygon fill="#191970" stroke="#191970" points="149.465 -86.597 158.486 -81.041 147.969 -79.759 149.465 -86.597"/></g><g id="edge3" class="edge"><title>Node2-&gt;Node3</title><path fill="none" stroke="#191970" d="M1005.0729,-214.4749C1172.4923,-207.8946 1682.6431,-186.3077 1754,-165 1758.9586,-163.5193 1763.9743,-161.2762 1768.6446,-158.7988"/><polygon fill="#191970" stroke="#191970" points="1770.75 -161.622 1777.617 -153.554 1767.217 -155.579 1770.75 -161.622"/></g><g id="node5" class="node"><title>Node4</title><polygon fill="#fff" stroke="#bfbfbf" points="1401.5 -.5 1401.5 -19.5 1454.5 -19.5 1454.5 -.5 1401.5 -.5"/><text x="1428" y="-7.5" fill="#000" font-family="Arial" font-size="10" text-anchor="middle">stdint.h</text></g><g id="edge4" class="edge"><title>Node2-&gt;Node4</title><path fill="none" stroke="#191970" d="M1005.3441,-215.0548C1129.5647,-211.1401 1429.9098,-198.2949 1460,-165 1525.8725,-92.1118 1375.7964,-109.4755 1360,-87 1352.0776,-75.7278 1353.5399,-68.1694 1360,-56 1367.3846,-42.0889 1381.0636,-31.6166 1394.2272,-24.2062"/><polygon fill="#191970" stroke="#191970" points="1395.912 -27.275 1403.175 -19.561 1392.687 -21.063 1395.912 -27.275"/></g><g id="edge5" class="edge"><title>Node2-&gt;Node5</title><path fill="none" stroke="#191970" d="M898.8847,-214.254C750.1641,-207.747 331.6396,-187.8835 196,-165 183.6177,-162.911 170.3526,-159.6693 158.3815,-156.3529"/><polygon fill="#191970" stroke="#191970" points="159.255 -152.962 148.678 -153.573 157.327 -159.692 159.255 -152.962"/></g><g id="edge7" class="edge"><title>Node2-&gt;Node6</title><path fill="none" stroke="#191970" d="M898.9305,-214.4665C736.2701,-208.0061 254.1288,-187.0715 229,-165 208.3338,-146.8482 206.4837,-112.9048 207.7348,-91.2936"/><polygon fill="#191970" stroke="#191970" points="211.228 -91.526 208.589 -81.266 204.253 -90.933 211.228 -91.526"/></g><g id="node8" class="node"><title>Node7</title><g id="a_node8"><a target="_top" xlink:href="input__event_8h.html" xlink:title="mir_toolkit/events\l/input/input_event.h"><polygon fill="#fff" stroke="#000" points="1507 -129 1507 -159 1621 -159 1621 -129 1507 -129"/><text x="1515" y="-147" fill="#000" font-family="Arial" font-size="10" text-anchor="start">mir_toolkit/events</text><text x="1564" y="-136" fill="#000" font-family="Arial" font-size="10" text-anchor="middle">/input/input_event.h</text></a></g></g><g id="edge8" class="edge"><title>Node2-&gt;Node7</title><path fill="none" stroke="#191970" d="M1005.0909,-214.6178C1101.3988,-210.5896 1310.5538,-198.5806 1484,-165 1488.9218,-164.0471 1493.9917,-162.8972 1499.0824,-161.6323"/><polygon fill="#191970" stroke="#191970" points="1500.072 -164.992 1508.864 -159.08 1498.304 -158.218 1500.072 -164.992"/></g><g id="node15" class="node"><title>Node14</title><g id="a_node15"><a target="_top" xlink:href="resize__event_8h.html" xlink:title="mir_toolkit/events\l/resize_event.h"><polygon fill="#fff" stroke="#000" points="646 -129 646 -159 752 -159 752 -129 646 -129"/><text x="654" y="-147" fill="#000" font-family="Arial" font-size="10" text-anchor="start">mir_toolkit/events</text><text x="699" y="-136" fill="#000" font-family="Arial" font-size="10" text-anchor="middle">/resize_event.h</text></a></g></g><g id="edge19" class="edge"><title>Node2-&gt;Node14</title><path fill="none" stroke="#191970" d="M898.6346,-204.9268C858.0131,-194.9829 801.1266,-179.9266 752,-165 749.0505,-164.1038 746.03,-163.1618 742.9973,-162.1937"/><polygon fill="#191970" stroke="#191970" points="743.934 -158.818 733.342 -159.037 741.759 -165.471 743.934 -158.818"/></g><g id="node16" class="node"><title>Node15</title><g id="a_node16"><a target="_top" xlink:href="surface__event_8h.html" xlink:title="mir_toolkit/events\l/surface_event.h"><polygon fill="#fff" stroke="#000" points="238 -129 238 -159 344 -159 344 -129 238 -129"/><text x="246" y="-147" fill="#000" font-family="Arial" font-size="10" text-anchor="start">mir_toolkit/events</text><text x="291" y="-136" fill="#000" font-family="Arial" font-size="10" text-anchor="middle">/surface_event.h</text></a></g></g><g id="edge21" class="edge"><title>Node2-&gt;Node15</title><path fill="none" stroke="#191970" d="M898.7993,-213.7828C770.9257,-206.6876 449.7253,-186.6467 345,-165 340.8719,-164.1467 336.6379,-163.1088 332.4387,-161.9564"/><polygon fill="#191970" stroke="#191970" points="333.352 -158.577 322.77 -159.093 331.364 -165.288 333.352 -158.577"/></g><g id="node17" class="node"><title>Node16</title><g id="a_node17"><a target="_top" xlink:href="window__event_8h.html" xlink:title="mir_toolkit/events\l/window_event.h"><polygon fill="#fff" stroke="#000" points="770 -129 770 -159 876 -159 876 -129 770 -129"/><text x="778" y="-147" fill="#000" font-family="Arial" font-size="10" text-anchor="start">mir_toolkit/events</text><text x="823" y="-136" fill="#000" font-family="Arial" font-size="10" text-anchor="middle">/window_event.h</text></a></g></g><g id="edge24" class="edge"><title>Node2-&gt;Node16</title><path fill="none" stroke="#191970" d="M919.6784,-201.478C899.1404,-190.6877 872.8702,-176.023 852.8304,-164.2071"/><polygon fill="#191970" stroke="#191970" points="854.486 -161.119 844.104 -159.003 850.9 -167.131 854.486 -161.119"/></g><g id="node18" class="node"><title>Node17</title><g id="a_node18"><a target="_top" xlink:href="orientation__event_8h.html" xlink:title="mir_toolkit/events\l/orientation_event.h"><polygon fill="#fff" stroke="#000" points="894.5 -129 894.5 -159 1009.5 -159 1009.5 -129 894.5 -129"/><text x="902.5" y="-147" fill="#000" font-family="Arial" font-size="10" text-anchor="start">mir_toolkit/events</text><text x="952" y="-136" fill="#000" font-family="Arial" font-size="10" text-anchor="middle">/orientation_event.h</text></a></g></g><g id="edge26" class="edge"><title>Node2-&gt;Node17</title><path fill="none" stroke="#191970" d="M946.4073,-201.478C945.2494,-192.1459 944.9604,-179.9157 945.5402,-169.1368"/><polygon fill="#191970" stroke="#191970" points="949.042 -169.265 946.41 -159.003 942.068 -168.667 949.042 -169.265"/></g><g id="node19" class="node"><title>Node18</title><g id="a_node19"><a target="_top" xlink:href="prompt__session__event_8h.html" xlink:title="mir_toolkit/events\l/prompt_session_event.h"><polygon fill="#fff" stroke="#000" points="1027.5 -129 1027.5 -159 1166.5 -159 1166.5 -129 1027.5 -129"/><text x="1035.5" y="-147" fill="#000" font-family="Arial" font-size="10" text-anchor="start">mir_toolkit/events</text><text x="1097" y="-136" fill="#000" font-family="Arial" font-size="10" text-anchor="middle">/prompt_session_event.h</text></a></g></g><g id="edge28" class="edge"><title>Node2-&gt;Node18</title><path fill="none" stroke="#191970" d="M976.4514,-201.478C997.1489,-190.4447 1027.1629,-175.3605 1052.1176,-163.4132"/><polygon fill="#191970" stroke="#191970" points="1053.872 -166.454 1061.404 -159.003 1050.87 -160.131 1053.872 -166.454"/></g><g id="node20" class="node"><title>Node19</title><g id="a_node20"><a target="_top" xlink:href="keymap__event_8h.html" xlink:title="mir_toolkit/events\l/keymap_event.h"><polygon fill="#fff" stroke="#000" points="1639 -129 1639 -159 1745 -159 1745 -129 1639 -129"/><text x="1647" y="-147" fill="#000" font-family="Arial" font-size="10" text-anchor="start">mir_toolkit/events</text><text x="1692" y="-136" fill="#000" font-family="Arial" font-size="10" text-anchor="middle">/keymap_event.h</text></a></g></g><g id="edge30" class="edge"><title>Node2-&gt;Node19</title><path fill="none" stroke="#191970" d="M1005.0059,-213.9909C1141.6503,-207.5236 1502.8759,-189.0922 1621,-165 1625.134,-164.1568 1629.3729,-163.1166 1633.6267,-161.9541"/><polygon fill="#191970" stroke="#191970" points="1634.922 -165.222 1643.537 -159.055 1632.957 -158.504 1634.922 -165.222"/></g><g id="node21" class="node"><title>Node20</title><g id="a_node21"><a target="_top" xlink:href="input__configuration__event_8h.html" xlink:title="mir_toolkit/events\l/input_configuration\l_event.h"><polygon fill="#fff" stroke="#000" points="362.5 -123.5 362.5 -164.5 475.5 -164.5 475.5 -123.5 362.5 -123.5"/><text x="370.5" y="-152.5" fill="#000" font-family="Arial" font-size="10" text-anchor="start">mir_toolkit/events</text><text x="370.5" y="-141.5" fill="#000" font-family="Arial" font-size="10" text-anchor="start">/input_configuration</text><text x="419" y="-130.5" fill="#000" font-family="Arial" font-size="10" text-anchor="middle">_event.h</text></a></g></g><g id="edge33" class="edge"><title>Node2-&gt;Node20</title><path fill="none" stroke="#191970" d="M898.7438,-214.3527C811.8731,-209.9396 634.8278,-197.567 483.784,-166.6042"/><polygon fill="#191970" stroke="#191970" points="484.378 -163.153 473.874 -164.538 482.949 -170.006 484.378 -163.153"/></g><g id="node22" class="node"><title>Node21</title><g id="a_node22"><a target="_top" xlink:href="surface__output__event_8h.html" xlink:title="mir_toolkit/events\l/surface_output_event.h"><polygon fill="#fff" stroke="#000" points="494 -129 494 -159 628 -159 628 -129 494 -129"/><text x="502" y="-147" fill="#000" font-family="Arial" font-size="10" text-anchor="start">mir_toolkit/events</text><text x="561" y="-136" fill="#000" font-family="Arial" font-size="10" text-anchor="middle">/surface_output_event.h</text></a></g></g><g id="edge36" class="edge"><title>Node2-&gt;Node21</title><path fill="none" stroke="#191970" d="M898.8413,-210.4249C834.1789,-202.0667 722.318,-185.6781 628,-165 623.3159,-163.9731 618.4906,-162.8339 613.6735,-161.6326"/><polygon fill="#191970" stroke="#191970" points="614.403 -158.206 603.845 -159.095 612.653 -164.984 614.403 -158.206"/></g><g id="node23" class="node"><title>Node22</title><g id="a_node23"><a target="_top" xlink:href="window__output__event_8h.html" xlink:title="mir_toolkit/events\l/window_output_event.h"><polygon fill="#fff" stroke="#000" points="1185 -129 1185 -159 1321 -159 1321 -129 1185 -129"/><text x="1193" y="-147" fill="#000" font-family="Arial" font-size="10" text-anchor="start">mir_toolkit/events</text><text x="1253" y="-136" fill="#000" font-family="Arial" font-size="10" text-anchor="middle">/window_output_event.h</text></a></g></g><g id="edge39" class="edge"><title>Node2-&gt;Node22</title><path fill="none" stroke="#191970" d="M1005.081,-203.2765C1048.6923,-193.2418 1111.8511,-178.854 1167,-165 1171.2731,-163.9266 1175.6726,-162.7958 1180.1184,-161.6385"/><polygon fill="#191970" stroke="#191970" points="1181.109 -164.997 1189.894 -159.075 1179.333 -158.226 1181.109 -164.997"/></g><g id="node24" class="node"><title>Node23</title><g id="a_node24"><a target="_top" xlink:href="input__device__state__event_8h.html" xlink:title="mir_toolkit/events\l/input_device_state\l_event.h"><polygon fill="#fff" stroke="#000" points="1339 -123.5 1339 -164.5 1451 -164.5 1451 -123.5 1339 -123.5"/><text x="1347" y="-152.5" fill="#000" font-family="Arial" font-size="10" text-anchor="start">mir_toolkit/events</text><text x="1347" y="-141.5" fill="#000" font-family="Arial" font-size="10" text-anchor="start">/input_device_state</text><text x="1395" y="-130.5" fill="#000" font-family="Arial" font-size="10" text-anchor="middle">_event.h</text></a></g></g><g id="edge41" class="edge"><title>Node2-&gt;Node23</title><path fill="none" stroke="#191970" d="M1005.2387,-211.676C1077.4731,-204.8506 1209.927,-190.2992 1321,-165 1323.6197,-164.4033 1326.2849,-163.7477 1328.9731,-163.0484"/><polygon fill="#191970" stroke="#191970" points="1330.056 -166.381 1338.768 -160.352 1328.198 -159.632 1330.056 -166.381"/></g><g id="edge6" class="edge"><title>Node5-&gt;Node6</title><path fill="none" stroke="#191970" d="M131.2727,-134.2223C146.2816,-122.2646 171.8969,-101.8569 189.8208,-87.5768"/><polygon fill="#191970" stroke="#191970" points="192.281 -90.091 197.922 -81.123 187.92 -84.617 192.281 -90.091"/></g><g id="edge9" class="edge"><title>Node7-&gt;Node2</title><path fill="none" stroke="#191970" d="M1526.5826,-159.08C1518.5526,-161.3419 1510.0767,-163.4363 1502,-165 1328.268,-198.6359 1118.7093,-210.6291 1015.5368,-214.6377"/><polygon fill="#191970" stroke="#191970" points="1015.15 -211.15 1005.289 -215.023 1015.414 -218.145 1015.15 -211.15"/></g><g id="edge12" class="edge"><title>Node7-&gt;Node4</title><path fill="none" stroke="#191970" d="M1589.445,-128.8888C1615.9869,-111.2272 1651.133,-81.2055 1631,-56 1610.5967,-30.4561 1517.6268,-18.0412 1464.8609,-12.9569"/><polygon fill="#191970" stroke="#191970" points="1465.156 -9.469 1454.877 -12.036 1464.513 -16.44 1465.156 -9.469"/></g><g id="node9" class="node"><title>Node8</title><g id="a_node9"><a target="_top" xlink:href="mir__input__device__types_8h.html" xlink:title="mir_toolkit/mir_input\l_device_types.h"><polygon fill="#fff" stroke="#000" points="1368.5 -56.5 1368.5 -86.5 1487.5 -86.5 1487.5 -56.5 1368.5 -56.5"/><text x="1376.5" y="-74.5" fill="#000" font-family="Arial" font-size="10" text-anchor="start">mir_toolkit/mir_input</text><text x="1428" y="-63.5" fill="#000" font-family="Arial" font-size="10" text-anchor="middle">_device_types.h</text></a></g></g><g id="edge10" class="edge"><title>Node7-&gt;Node8</title><path fill="none" stroke="#191970" d="M1535.8207,-128.978C1515.3062,-118.0419 1487.326,-103.126 1465.0102,-91.2297"/><polygon fill="#191970" stroke="#191970" points="1466.614 -88.118 1456.143 -86.503 1463.321 -94.296 1466.614 -88.118"/></g><g id="node10" class="node"><title>Node9</title><polygon fill="#fff" stroke="#bfbfbf" points="1702 -.5 1702 -19.5 1764 -19.5 1764 -.5 1702 -.5"/><text x="1733" y="-7.5" fill="#000" font-family="Arial" font-size="10" text-anchor="middle">stdbool.h</text></g><g id="edge13" class="edge"><title>Node7-&gt;Node9</title><path fill="none" stroke="#191970" d="M1587.8283,-128.8098C1604.7383,-117.7501 1627.7573,-102.1205 1647,-87 1671.7817,-67.5272 1698.571,-42.9205 1715.549,-26.8365"/><polygon fill="#191970" stroke="#191970" points="1718.225 -29.121 1723.044 -19.685 1713.393 -24.056 1718.225 -29.121"/></g><g id="node11" class="node"><title>Node10</title><g id="a_node11"><a target="_top" xlink:href="touch__event_8h.html" xlink:title="mir_toolkit/events\l/input/touch_event.h"><polygon fill="#fff" stroke="#000" points="1506 -56.5 1506 -86.5 1622 -86.5 1622 -56.5 1506 -56.5"/><text x="1514" y="-74.5" fill="#000" font-family="Arial" font-size="10" text-anchor="start">mir_toolkit/events</text><text x="1564" y="-63.5" fill="#000" font-family="Arial" font-size="10" text-anchor="middle">/input/touch_event.h</text></a></g></g><g id="edge14" class="edge"><title>Node7-&gt;Node10</title><path fill="none" stroke="#191970" d="M1564,-128.978C1564,-119.6459 1564,-107.4157 1564,-96.6368"/><polygon fill="#191970" stroke="#191970" points="1567.5 -96.503 1564 -86.503 1560.5 -96.503 1567.5 -96.503"/></g><g id="node12" class="node"><title>Node11</title><g id="a_node12"><a target="_top" xlink:href="keyboard__event_8h.html" xlink:title="mir_toolkit/events\l/input/keyboard_event.h"><polygon fill="#fff" stroke="#000" points="1858.5 -56.5 1858.5 -86.5 1993.5 -86.5 1993.5 -56.5 1858.5 -56.5"/><text x="1866.5" y="-74.5" fill="#000" font-family="Arial" font-size="10" text-anchor="start">mir_toolkit/events</text><text x="1926" y="-63.5" fill="#000" font-family="Arial" font-size="10" text-anchor="middle">/input/keyboard_event.h</text></a></g></g><g id="edge15" class="edge"><title>Node7-&gt;Node11</title><path fill="none" stroke="#191970" d="M1608.1288,-128.9877C1615.3869,-126.7995 1622.8676,-124.7114 1630,-123 1722.8261,-100.7272 1750.2163,-104.4583 1848.3739,-87.0562"/><polygon fill="#191970" stroke="#191970" points="1849.199 -90.464 1858.42 -85.246 1847.958 -83.575 1849.199 -90.464"/></g><g id="node14" class="node"><title>Node13</title><g id="a_node14"><a target="_top" xlink:href="pointer__event_8h.html" xlink:title="mir_toolkit/events\l/input/pointer_event.h"><polygon fill="#fff" stroke="#000" points="1716 -56.5 1716 -86.5 1840 -86.5 1840 -56.5 1716 -56.5"/><text x="1724" y="-74.5" fill="#000" font-family="Arial" font-size="10" text-anchor="start">mir_toolkit/events</text><text x="1778" y="-63.5" fill="#000" font-family="Arial" font-size="10" text-anchor="middle">/input/pointer_event.h</text></a></g></g><g id="edge17" class="edge"><title>Node7-&gt;Node13</title><path fill="none" stroke="#191970" d="M1608.3409,-128.978C1641.9123,-117.6045 1688.1898,-101.9263 1723.9331,-89.8171"/><polygon fill="#191970" stroke="#191970" points="1725.368 -93.026 1733.716 -86.503 1723.122 -86.397 1725.368 -93.026"/></g><g id="edge11" class="edge"><title>Node8-&gt;Node4</title><path fill="none" stroke="#191970" d="M1428,-56.2977C1428,-48.3834 1428,-38.6043 1428,-30.0759"/><polygon fill="#191970" stroke="#191970" points="1431.5 -29.847 1428 -19.847 1424.5 -29.847 1431.5 -29.847"/></g><g id="node13" class="node"><title>Node12</title><polygon fill="#fff" stroke="#bfbfbf" points="1899 -.5 1899 -19.5 2049 -19.5 2049 -.5 1899 -.5"/><text x="1974" y="-7.5" fill="#000" font-family="Arial" font-size="10" text-anchor="middle">xkbcommon/xkbcommon.h</text></g><g id="edge16" class="edge"><title>Node11-&gt;Node12</title><path fill="none" stroke="#191970" d="M1937.8652,-56.2977C1944.5975,-47.672 1953.0585,-36.8312 1960.1006,-27.8087"/><polygon fill="#191970" stroke="#191970" points="1962.921 -29.884 1966.315 -19.847 1957.403 -25.577 1962.921 -29.884"/></g><g id="edge18" class="edge"><title>Node13-&gt;Node9</title><path fill="none" stroke="#191970" d="M1766.8764,-56.2977C1760.6299,-47.7609 1752.796,-37.0545 1746.2353,-28.0883"/><polygon fill="#191970" stroke="#191970" points="1748.935 -25.851 1740.205 -19.847 1743.286 -29.984 1748.935 -25.851"/></g><g id="edge20" class="edge"><title>Node14-&gt;Node2</title><path fill="none" stroke="#191970" d="M751.1536,-159.0372C757.5187,-161.1042 763.9107,-163.1498 770,-165 809.9488,-177.138 855.0288,-189.3618 890.3937,-198.8525"/><polygon fill="#191970" stroke="#191970" points="889.533 -202.245 900.098 -201.454 891.346 -195.484 889.533 -202.245"/></g><g id="edge22" class="edge"><title>Node15-&gt;Node2</title><path fill="none" stroke="#191970" d="M340.4751,-159.0928C347.9876,-161.3826 355.6612,-163.4831 363,-165 462.6043,-185.5882 758.0302,-204.7238 888.7201,-212.6504"/><polygon fill="#191970" stroke="#191970" points="888.775 -216.16 898.968 -213.269 889.197 -209.173 888.775 -216.16"/></g><g id="edge23" class="edge"><title>Node15-&gt;Node6</title><path fill="none" stroke="#191970" d="M274.2167,-128.978C260.8915,-117.051 242.2775,-100.3903 228.5189,-88.0756"/><polygon fill="#191970" stroke="#191970" points="230.841 -85.457 221.056 -81.396 226.173 -90.673 230.841 -85.457"/></g><g id="edge25" class="edge"><title>Node16-&gt;Node2</title><path fill="none" stroke="#191970" d="M855.285,-159.0028C875.8161,-169.7884 902.0866,-184.4525 922.1339,-196.2718"/><polygon fill="#191970" stroke="#191970" points="920.482 -199.362 930.864 -201.478 924.068 -193.35 920.482 -199.362"/></g><g id="edge27" class="edge"><title>Node17-&gt;Node2</title><path fill="none" stroke="#191970" d="M957.5903,-159.0028C958.7494,-168.3309 959.0396,-180.5601 958.461,-191.3409"/><polygon fill="#191970" stroke="#191970" points="954.959 -191.216 957.593 -201.478 961.933 -191.813 954.959 -191.216"/></g><g id="edge29" class="edge"><title>Node18-&gt;Node2</title><path fill="none" stroke="#191970" d="M1072.5847,-159.0028C1051.898,-170.0313 1021.8865,-185.115 996.9259,-197.066"/><polygon fill="#191970" stroke="#191970" points="995.168 -194.026 987.637 -201.478 998.171 -200.349 995.168 -194.026"/></g><g id="edge31" class="edge"><title>Node19-&gt;Node2</title><path fill="none" stroke="#191970" d="M1661.2288,-159.0552C1654.0301,-161.3792 1646.3493,-163.5011 1639,-165 1521.2442,-189.0171 1161.9001,-207.4086 1015.2336,-213.93"/><polygon fill="#191970" stroke="#191970" points="1014.884 -210.442 1005.047 -214.379 1015.192 -217.435 1014.884 -210.442"/></g><g id="edge32" class="edge"><title>Node19-&gt;Node12</title><path fill="none" stroke="#191970" d="M1733.0464,-128.9261C1739.978,-126.7192 1747.1478,-124.6412 1754,-123 1808.3709,-109.9776 1966.4042,-129.2673 2003,-87 2017.81,-69.8949 2003.1923,-44.48 1989.8922,-27.586"/><polygon fill="#191970" stroke="#191970" points="1992.323 -25.038 1983.22 -19.617 1986.956 -29.532 1992.323 -25.038"/></g><g id="edge34" class="edge"><title>Node20-&gt;Node2</title><path fill="none" stroke="#191970" d="M475.5736,-160.3847C481.7727,-162.1293 488.0009,-163.728 494,-165 633.31,-194.5391 799.8076,-207.7405 888.7622,-213.1497"/><polygon fill="#191970" stroke="#191970" points="888.767 -216.656 898.957 -213.756 889.183 -209.668 888.767 -216.656"/></g><g id="edge35" class="edge"><title>Node20-&gt;Node6</title><path fill="none" stroke="#191970" d="M362.4416,-124.3805C325.898,-111.7039 279.3681,-95.5631 247.3819,-84.4674"/><polygon fill="#191970" stroke="#191970" points="248.134 -81.024 237.539 -81.053 245.839 -87.637 248.134 -81.024"/></g><g id="edge37" class="edge"><title>Node21-&gt;Node2</title><path fill="none" stroke="#191970" d="M621.6249,-159.0952C629.8214,-161.2226 638.1109,-163.2704 646,-165 729.4478,-183.2949 826.6277,-198.2321 888.7711,-207.2208"/><polygon fill="#191970" stroke="#191970" points="888.419 -210.706 898.816 -208.666 889.416 -203.777 888.419 -210.706"/></g><g id="edge38" class="edge"><title>Node21-&gt;Node6</title><path fill="none" stroke="#191970" d="M508.8174,-128.9571C500.8666,-126.8463 492.7352,-124.7896 485,-123 415.279,-106.8694 334.7253,-92.2481 278.8999,-82.7415"/><polygon fill="#191970" stroke="#191970" points="279.216 -79.245 268.772 -81.027 278.047 -86.147 279.216 -79.245"/></g><g id="edge40" class="edge"><title>Node22-&gt;Node2</title><path fill="none" stroke="#191970" d="M1207.7156,-159.0746C1200.1608,-161.115 1192.3913,-163.1432 1185,-165 1128.0324,-179.3109 1062.518,-194.1913 1015.4093,-204.2549"/><polygon fill="#191970" stroke="#191970" points="1014.403 -200.89 1005.347 -206.39 1015.856 -207.738 1014.403 -200.89"/></g><g id="edge42" class="edge"><title>Node23-&gt;Node2</title><path fill="none" stroke="#191970" d="M1341.0902,-164.5138C1340.3907,-164.6798 1339.6938,-164.842 1339,-165 1226.6739,-190.5847 1092.4818,-205.1775 1015.1708,-211.904"/><polygon fill="#191970" stroke="#191970" points="1014.775 -208.425 1005.109 -212.763 1015.37 -215.4 1014.775 -208.425"/></g></g></svg>