<svg xmlns="http://www.w3.org/2000/svg" xmlns:xlink="http://www.w3.org/1999/xlink" width="274pt" height="260" viewBox="0 0 273.5 195"><g id="graph0" class="graph" transform="scale(1 1) rotate(0) translate(4 191)"><title>include/client/mir_toolkit/mir_persistent_id.h</title><polygon fill="#fff" stroke="transparent" points="-4 4 -4 -191 269.5 -191 269.5 4 -4 4"/><g id="node1" class="node"><title>Node24</title><polygon fill="#bfbfbf" stroke="#000" points="63 -156.5 63 -186.5 213 -186.5 213 -156.5 63 -156.5"/><text x="71" y="-174.5" fill="#000" font-family="Arial" font-size="10" text-anchor="start">include/client/mir</text><text x="138" y="-163.5" fill="#000" font-family="Arial" font-size="10" text-anchor="middle">_toolkit/mir_persistent_id.h</text></g><g id="node2" class="node"><title>Node25</title><g id="a_node2"><a target="_top" xlink:href="mir__client__library_8h.html" xlink:title="include/client/mir\l_toolkit/mir_client\l_library.h"><polygon fill="#fff" stroke="#000" points="85.5 -78.5 85.5 -119.5 190.5 -119.5 190.5 -78.5 85.5 -78.5"/><text x="93.5" y="-107.5" fill="#000" font-family="Arial" font-size="10" text-anchor="start">include/client/mir</text><text x="93.5" y="-96.5" fill="#000" font-family="Arial" font-size="10" text-anchor="start">_toolkit/mir_client</text><text x="138" y="-85.5" fill="#000" font-family="Arial" font-size="10" text-anchor="middle">_library.h</text></a></g></g><g id="edge1" class="edge"><title>Node24-&gt;Node25</title><path fill="none" stroke="#191970" d="M138,-146.4016C138,-137.6173 138,-127.8652 138,-119.5015"/><polygon fill="#191970" stroke="#191970" points="134.5 -146.478 138 -156.478 141.5 -146.478 134.5 -146.478"/></g><g id="node3" class="node"><title>Node26</title><g id="a_node3"><a target="_top" xlink:href="toolkit_2debug_2surface_8h.html" xlink:title="include/client/mir\l_toolkit/debug/surface.h"><polygon fill="#fff" stroke="#000" points="0 -6 0 -36 134 -36 134 -6 0 -6"/><text x="8" y="-24" fill="#000" font-family="Arial" font-size="10" text-anchor="start">include/client/mir</text><text x="67" y="-13" fill="#000" font-family="Arial" font-size="10" text-anchor="middle">_toolkit/debug/surface.h</text></a></g></g><g id="edge2" class="edge"><title>Node25-&gt;Node26</title><path fill="none" stroke="#191970" d="M112.2394,-70.6996C101.6507,-59.0669 89.8091,-46.0578 80.8977,-36.2679"/><polygon fill="#191970" stroke="#191970" points="109.653 -73.058 118.973 -78.097 114.83 -68.346 109.653 -73.058"/></g><g id="node4" class="node"><title>Node27</title><g id="a_node4"><a target="_top" xlink:href="mir__prompt__session_8h.html" xlink:title="include/client/mir\l_toolkit/mir_prompt\l_session.h"><polygon fill="#fff" stroke="#000" points="152.5 -.5 152.5 -41.5 265.5 -41.5 265.5 -.5 152.5 -.5"/><text x="160.5" y="-29.5" fill="#000" font-family="Arial" font-size="10" text-anchor="start">include/client/mir</text><text x="160.5" y="-18.5" fill="#000" font-family="Arial" font-size="10" text-anchor="start">_toolkit/mir_prompt</text><text x="209" y="-7.5" fill="#000" font-family="Arial" font-size="10" text-anchor="middle">_session.h</text></a></g></g><g id="edge3" class="edge"><title>Node25-&gt;Node27</title><path fill="none" stroke="#191970" d="M163.7959,-70.6609C172.5185,-61.0783 182.0877,-50.5657 190.167,-41.6898"/><polygon fill="#191970" stroke="#191970" points="161.17 -68.346 157.027 -78.097 166.346 -73.058 161.17 -68.346"/></g></g></svg>