<svg xmlns="http://www.w3.org/2000/svg" xmlns:xlink="http://www.w3.org/1999/xlink" width="950pt" height="364" viewBox="0 0 950 273"><g id="graph0" class="graph" transform="scale(1 1) rotate(0) translate(4 269)"><title>include/core/mir_toolkit/mir_native_buffer.h</title><polygon fill="#fff" stroke="transparent" points="-4 4 -4 -269 946 -269 946 4 -4 4"/><g id="node1" class="node"><title>Node1</title><polygon fill="#bfbfbf" stroke="#000" points="437 -234.5 437 -264.5 569 -264.5 569 -234.5 437 -234.5"/><text x="445" y="-252.5" fill="#000" font-family="Arial" font-size="10" text-anchor="start">include/core/mir_toolkit</text><text x="503" y="-241.5" fill="#000" font-family="Arial" font-size="10" text-anchor="middle">/mir_native_buffer.h</text></g><g id="node2" class="node"><title>Node2</title><g id="a_node2"><a target="_top" xlink:href="mir__buffer_8h.html" xlink:title="include/client/mir\l_toolkit/mir_buffer.h"><polygon fill="#fff" stroke="#000" points="242.5 -162 242.5 -192 357.5 -192 357.5 -162 242.5 -162"/><text x="250.5" y="-180" fill="#000" font-family="Arial" font-size="10" text-anchor="start">include/client/mir</text><text x="300" y="-169" fill="#000" font-family="Arial" font-size="10" text-anchor="middle">_toolkit/mir_buffer.h</text></a></g></g><g id="edge1" class="edge"><title>Node1-&gt;Node2</title><path fill="none" stroke="#191970" d="M451.2195,-231.0069C417.3626,-218.9152 373.704,-203.3228 342.0078,-192.0028"/><polygon fill="#191970" stroke="#191970" points="450.344 -234.411 460.938 -234.478 452.698 -227.818 450.344 -234.411"/></g><g id="node9" class="node"><title>Node9</title><g id="a_node9"><a target="_top" xlink:href="mir__buffer__stream_8h.html" xlink:title="include/client/mir\l_toolkit/mir_buffer\l_stream.h"><polygon fill="#fff" stroke="#000" points="516.5 -156.5 516.5 -197.5 623.5 -197.5 623.5 -156.5 516.5 -156.5"/><text x="524.5" y="-185.5" fill="#000" font-family="Arial" font-size="10" text-anchor="start">include/client/mir</text><text x="524.5" y="-174.5" fill="#000" font-family="Arial" font-size="10" text-anchor="start">_toolkit/mir_buffer</text><text x="570" y="-163.5" fill="#000" font-family="Arial" font-size="10" text-anchor="middle">_stream.h</text></a></g></g><g id="edge8" class="edge"><title>Node1-&gt;Node9</title><path fill="none" stroke="#191970" d="M523.8142,-226.9772C532.517,-217.5599 542.5601,-206.6924 551.0538,-197.5015"/><polygon fill="#191970" stroke="#191970" points="521.099 -224.758 516.882 -234.478 526.24 -229.509 521.099 -224.758"/></g><g id="node11" class="node"><title>Node11</title><g id="a_node11"><a target="_top" xlink:href="mir__surface_8h.html" xlink:title="include/client/mir\l_toolkit/mir_surface.h"><polygon fill="#fff" stroke="#000" points="375.5 -162 375.5 -192 498.5 -192 498.5 -162 375.5 -162"/><text x="383.5" y="-180" fill="#000" font-family="Arial" font-size="10" text-anchor="start">include/client/mir</text><text x="437" y="-169" fill="#000" font-family="Arial" font-size="10" text-anchor="middle">_toolkit/mir_surface.h</text></a></g></g><g id="edge11" class="edge"><title>Node1-&gt;Node11</title><path fill="none" stroke="#191970" d="M482.5204,-227.0035C472.1561,-215.6184 459.8572,-202.1083 450.6577,-192.0028"/><polygon fill="#191970" stroke="#191970" points="480.005 -229.439 489.325 -234.478 485.181 -224.727 480.005 -229.439"/></g><g id="node12" class="node"><title>Node12</title><g id="a_node12"><a target="_top" xlink:href="mir__window_8h.html" xlink:title="include/client/mir\l_toolkit/mir_window.h"><polygon fill="#fff" stroke="#000" points="642 -162 642 -192 766 -192 766 -162 642 -162"/><text x="650" y="-180" fill="#000" font-family="Arial" font-size="10" text-anchor="start">include/client/mir</text><text x="704" y="-169" fill="#000" font-family="Arial" font-size="10" text-anchor="middle">_toolkit/mir_window.h</text></a></g></g><g id="edge13" class="edge"><title>Node1-&gt;Node12</title><path fill="none" stroke="#191970" d="M554.2704,-231.0069C587.7937,-218.9152 631.0222,-203.3228 662.406,-192.0028"/><polygon fill="#191970" stroke="#191970" points="552.866 -227.792 544.647 -234.478 555.242 -234.377 552.866 -227.792"/></g><g id="node3" class="node"><title>Node3</title><g id="a_node3"><a target="_top" xlink:href="android__buffer_8h.html" xlink:title="include/client/mir\l_toolkit/extensions\l/android_buffer.h"><polygon fill="#fff" stroke="#000" points="0 -78.5 0 -119.5 110 -119.5 110 -78.5 0 -78.5"/><text x="8" y="-107.5" fill="#000" font-family="Arial" font-size="10" text-anchor="start">include/client/mir</text><text x="8" y="-96.5" fill="#000" font-family="Arial" font-size="10" text-anchor="start">_toolkit/extensions</text><text x="55" y="-85.5" fill="#000" font-family="Arial" font-size="10" text-anchor="middle">/android_buffer.h</text></a></g></g><g id="edge2" class="edge"><title>Node2-&gt;Node3</title><path fill="none" stroke="#191970" d="M241.833,-158.8764C206.3147,-147.7614 159.9959,-133.1805 119,-120 116.1055,-119.0694 113.1388,-118.1112 110.1444,-117.1406"/><polygon fill="#191970" stroke="#191970" points="240.962 -162.271 251.551 -161.915 243.052 -155.59 240.962 -162.271"/></g><g id="node4" class="node"><title>Node4</title><g id="a_node4"><a target="_top" xlink:href="android__egl_8h.html" xlink:title="include/client/mir\l_toolkit/extensions\l/android_egl.h"><polygon fill="#fff" stroke="#000" points="128 -78.5 128 -119.5 238 -119.5 238 -78.5 128 -78.5"/><text x="136" y="-107.5" fill="#000" font-family="Arial" font-size="10" text-anchor="start">include/client/mir</text><text x="136" y="-96.5" fill="#000" font-family="Arial" font-size="10" text-anchor="start">_toolkit/extensions</text><text x="183" y="-85.5" fill="#000" font-family="Arial" font-size="10" text-anchor="middle">/android_egl.h</text></a></g></g><g id="edge3" class="edge"><title>Node2-&gt;Node4</title><path fill="none" stroke="#191970" d="M268.9473,-156.2982C251.9242,-144.9495 230.8914,-130.9276 213.8934,-119.5956"/><polygon fill="#191970" stroke="#191970" points="267.179 -159.326 277.441 -161.961 271.062 -153.502 267.179 -159.326"/></g><g id="node5" class="node"><title>Node5</title><g id="a_node5"><a target="_top" xlink:href="gbm__buffer_8h.html" xlink:title="include/client/mir\l_toolkit/extensions\l/gbm_buffer.h"><polygon fill="#fff" stroke="#000" points="256 -78.5 256 -119.5 366 -119.5 366 -78.5 256 -78.5"/><text x="264" y="-107.5" fill="#000" font-family="Arial" font-size="10" text-anchor="start">include/client/mir</text><text x="264" y="-96.5" fill="#000" font-family="Arial" font-size="10" text-anchor="start">_toolkit/extensions</text><text x="311" y="-85.5" fill="#000" font-family="Arial" font-size="10" text-anchor="middle">/gbm_buffer.h</text></a></g></g><g id="edge4" class="edge"><title>Node2-&gt;Node5</title><path fill="none" stroke="#191970" d="M303.5532,-151.8044C305.0217,-141.3919 306.7026,-129.4721 308.0955,-119.5956"/><polygon fill="#191970" stroke="#191970" points="300.052 -151.57 302.121 -161.961 306.983 -152.548 300.052 -151.57"/></g><g id="node6" class="node"><title>Node6</title><g id="a_node6"><a target="_top" xlink:href="mir__client__library_8h.html" xlink:title="include/client/mir\l_toolkit/mir_client\l_library.h"><polygon fill="#fff" stroke="#000" points="384.5 -78.5 384.5 -119.5 489.5 -119.5 489.5 -78.5 384.5 -78.5"/><text x="392.5" y="-107.5" fill="#000" font-family="Arial" font-size="10" text-anchor="start">include/client/mir</text><text x="392.5" y="-96.5" fill="#000" font-family="Arial" font-size="10" text-anchor="start">_toolkit/mir_client</text><text x="437" y="-85.5" fill="#000" font-family="Arial" font-size="10" text-anchor="middle">_library.h</text></a></g></g><g id="edge5" class="edge"><title>Node2-&gt;Node6</title><path fill="none" stroke="#191970" d="M335.2684,-156.9202C355.3885,-145.4649 380.5568,-131.1355 400.8257,-119.5956"/><polygon fill="#191970" stroke="#191970" points="333.373 -153.971 326.415 -161.961 336.837 -160.055 333.373 -153.971"/></g><g id="node7" class="node"><title>Node7</title><g id="a_node7"><a target="_top" xlink:href="toolkit_2debug_2surface_8h.html" xlink:title="include/client/mir\l_toolkit/debug/surface.h"><polygon fill="#fff" stroke="#000" points="439 -6 439 -36 573 -36 573 -6 439 -6"/><text x="447" y="-24" fill="#000" font-family="Arial" font-size="10" text-anchor="start">include/client/mir</text><text x="506" y="-13" fill="#000" font-family="Arial" font-size="10" text-anchor="middle">_toolkit/debug/surface.h</text></a></g></g><g id="edge6" class="edge"><title>Node6-&gt;Node7</title><path fill="none" stroke="#191970" d="M462.3293,-70.3668C472.5443,-58.8194 483.9159,-45.9646 492.4938,-36.2679"/><polygon fill="#191970" stroke="#191970" points="459.495 -68.288 455.491 -78.097 464.738 -72.927 459.495 -68.288"/></g><g id="node8" class="node"><title>Node8</title><g id="a_node8"><a target="_top" xlink:href="mir__prompt__session_8h.html" xlink:title="include/client/mir\l_toolkit/mir_prompt\l_session.h"><polygon fill="#fff" stroke="#000" points="307.5 -.5 307.5 -41.5 420.5 -41.5 420.5 -.5 307.5 -.5"/><text x="315.5" y="-29.5" fill="#000" font-family="Arial" font-size="10" text-anchor="start">include/client/mir</text><text x="315.5" y="-18.5" fill="#000" font-family="Arial" font-size="10" text-anchor="start">_toolkit/mir_prompt</text><text x="364" y="-7.5" fill="#000" font-family="Arial" font-size="10" text-anchor="middle">_session.h</text></a></g></g><g id="edge7" class="edge"><title>Node6-&gt;Node8</title><path fill="none" stroke="#191970" d="M410.4775,-70.6609C401.5092,-61.0783 391.6704,-50.5657 383.3635,-41.6898"/><polygon fill="#191970" stroke="#191970" points="408.049 -73.188 417.437 -78.097 413.16 -68.405 408.049 -73.188"/></g><g id="edge10" class="edge"><title>Node9-&gt;Node6</title><path fill="none" stroke="#191970" d="M525.799,-151.0776C508.2996,-140.8148 488.4703,-129.1856 471.9958,-119.5239"/><polygon fill="#191970" stroke="#191970" points="524.311 -154.262 534.708 -156.302 527.852 -148.224 524.311 -154.262"/></g><g id="node10" class="node"><title>Node10</title><g id="a_node10"><a target="_top" xlink:href="hardware__buffer__stream_8h.html" xlink:title="include/client/mir\l_toolkit/extensions\l/hardware_buffer_stream.h"><polygon fill="#fff" stroke="#000" points="508 -78.5 508 -119.5 656 -119.5 656 -78.5 508 -78.5"/><text x="516" y="-107.5" fill="#000" font-family="Arial" font-size="10" text-anchor="start">include/client/mir</text><text x="516" y="-96.5" fill="#000" font-family="Arial" font-size="10" text-anchor="start">_toolkit/extensions</text><text x="582" y="-85.5" fill="#000" font-family="Arial" font-size="10" text-anchor="middle">/hardware_buffer_stream.h</text></a></g></g><g id="edge9" class="edge"><title>Node9-&gt;Node10</title><path fill="none" stroke="#191970" d="M574.7571,-146.0789C576.1203,-137.2178 577.5731,-127.7747 578.817,-119.6898"/><polygon fill="#191970" stroke="#191970" points="571.277 -145.681 573.216 -156.097 578.196 -146.746 571.277 -145.681"/></g><g id="edge12" class="edge"><title>Node11-&gt;Node6</title><path fill="none" stroke="#191970" d="M437,-151.8044C437,-141.3919 437,-129.4721 437,-119.5956"/><polygon fill="#191970" stroke="#191970" points="433.5 -151.961 437 -161.961 440.5 -151.961 433.5 -151.961"/></g><g id="edge18" class="edge"><title>Node12-&gt;Node6</title><path fill="none" stroke="#191970" d="M643.0153,-159.1233C639.2901,-158.0591 635.5959,-157.011 632,-156 573.0473,-139.4259 557.5847,-137.8315 499,-120 495.9558,-119.0734 492.8358,-118.0983 489.6931,-117.0964"/><polygon fill="#191970" stroke="#191970" points="642.325 -162.566 652.903 -161.964 644.258 -155.839 642.325 -162.566"/></g><g id="node13" class="node"><title>Node13</title><g id="a_node13"><a target="_top" xlink:href="client_2mir_2client_2window_8h.html" xlink:title="include/client/mir\l/client/window.h"><polygon fill="#fff" stroke="#000" points="712.5 -84 712.5 -114 813.5 -114 813.5 -84 712.5 -84"/><text x="720.5" y="-102" fill="#000" font-family="Arial" font-size="10" text-anchor="start">include/client/mir</text><text x="763" y="-91" fill="#000" font-family="Arial" font-size="10" text-anchor="middle">/client/window.h</text></a></g></g><g id="edge14" class="edge"><title>Node12-&gt;Node13</title><path fill="none" stroke="#191970" d="M721.6663,-153.6445C731.3122,-140.8923 742.9815,-125.4652 751.4578,-114.2592"/><polygon fill="#191970" stroke="#191970" points="718.617 -151.874 715.376 -161.961 724.2 -156.097 718.617 -151.874"/></g><g id="node14" class="node"><title>Node14</title><g id="a_node14"><a target="_top" xlink:href="window__spec_8h.html" xlink:title="include/client/mir\l/client/window_spec.h"><polygon fill="#fff" stroke="#000" points="661 -6 661 -36 785 -36 785 -6 661 -6"/><text x="669" y="-24" fill="#000" font-family="Arial" font-size="10" text-anchor="start">include/client/mir</text><text x="723" y="-13" fill="#000" font-family="Arial" font-size="10" text-anchor="middle">/client/window_spec.h</text></a></g></g><g id="edge17" class="edge"><title>Node12-&gt;Node14</title><path fill="none" stroke="#191970" d="M701.7728,-151.5795C700.5454,-131.4746 699.9813,-102.7644 704,-78 706.3727,-63.3791 711.959,-47.4406 716.4639,-36.1447"/><polygon fill="#191970" stroke="#191970" points="698.298 -152.057 702.498 -161.784 705.28 -151.561 698.298 -152.057"/></g><g id="node15" class="node"><title>Node15</title><g id="a_node15"><a target="_top" xlink:href="window__id_8h.html" xlink:title="include/client/mir\l/client/window_id.h"><polygon fill="#fff" stroke="#000" points="832 -84 832 -114 942 -114 942 -84 832 -84"/><text x="840" y="-102" fill="#000" font-family="Arial" font-size="10" text-anchor="start">include/client/mir</text><text x="887" y="-91" fill="#000" font-family="Arial" font-size="10" text-anchor="middle">/client/window_id.h</text></a></g></g><g id="edge16" class="edge"><title>Node12-&gt;Node15</title><path fill="none" stroke="#191970" d="M748.7463,-157.9278C780.3698,-144.4489 822.1814,-126.6276 851.5123,-114.1259"/><polygon fill="#191970" stroke="#191970" points="747.111 -154.82 739.284 -161.961 749.856 -161.26 747.111 -154.82"/></g><g id="edge15" class="edge"><title>Node13-&gt;Node14</title><path fill="none" stroke="#191970" d="M750.644,-74.9059C744.1798,-62.3005 736.4614,-47.2497 730.8252,-36.2592"/><polygon fill="#191970" stroke="#191970" points="747.61 -76.66 755.288 -83.961 753.839 -73.466 747.61 -76.66"/></g></g></svg>