<svg xmlns="http://www.w3.org/2000/svg" xmlns:xlink="http://www.w3.org/1999/xlink" width="1368" height="374pt" viewBox="0 0 1026 374"><g id="graph0" class="graph" transform="scale(1 1) rotate(0) translate(4 370)"><title>include/miral/miral/window.h</title><polygon fill="#fff" stroke="transparent" points="-4 4 -4 -370 1022 -370 1022 4 -4 4"/><g id="node1" class="node"><title>Node11</title><polygon fill="#bfbfbf" stroke="#000" points="351 -335.5 351 -365.5 460 -365.5 460 -335.5 351 -335.5"/><text x="359" y="-353.5" fill="#000" font-family="Arial" font-size="10" text-anchor="start">include/miral/miral</text><text x="405.5" y="-342.5" fill="#000" font-family="Arial" font-size="10" text-anchor="middle">/window.h</text></g><g id="node2" class="node"><title>Node12</title><g id="a_node2"><a target="_top" xlink:href="window__info_8h.html" xlink:title="include/miral/miral\l/window_info.h"><polygon fill="#fff" stroke="#000" points="351 -268.5 351 -298.5 460 -298.5 460 -268.5 351 -268.5"/><text x="359" y="-286.5" fill="#000" font-family="Arial" font-size="10" text-anchor="start">include/miral/miral</text><text x="405.5" y="-275.5" fill="#000" font-family="Arial" font-size="10" text-anchor="middle">/window_info.h</text></a></g></g><g id="edge1" class="edge"><title>Node11-&gt;Node12</title><path fill="none" stroke="#191970" d="M405.5,-325.0249C405.5,-316.128 405.5,-306.4287 405.5,-298.6432"/><polygon fill="#191970" stroke="#191970" points="402 -325.297 405.5 -335.297 409 -325.297 402 -325.297"/></g><g id="node3" class="node"><title>Node13</title><g id="a_node3"><a target="_top" xlink:href="kiosk__window__manager_8cpp.html" xlink:title="examples/miral-kiosk\l/kiosk_window_manager.cpp"><polygon fill="#fff" stroke="#000" points="0 -.5 0 -30.5 157 -30.5 157 -.5 0 -.5"/><text x="8" y="-18.5" fill="#000" font-family="Arial" font-size="10" text-anchor="start">examples/miral-kiosk</text><text x="78.5" y="-7.5" fill="#000" font-family="Arial" font-size="10" text-anchor="middle">/kiosk_window_manager.cpp</text></a></g></g><g id="edge2" class="edge"><title>Node12-&gt;Node13</title><path fill="none" stroke="#191970" d="M340.8556,-274.2357C274.0033,-261.2938 171.0843,-231.4231 110.5,-165 75.7995,-126.9552 75.315,-60.7172 77.1157,-30.8647"/><polygon fill="#191970" stroke="#191970" points="340.384 -277.708 350.855 -276.098 341.665 -270.826 340.384 -277.708"/></g><g id="node4" class="node"><title>Node14</title><g id="a_node4"><a target="_top" xlink:href="floating__window__manager_8cpp.html" xlink:title="examples/example-server\l-lib/floating_window_manager.cpp"><polygon fill="#fff" stroke="#000" points="319 -.5 319 -30.5 502 -30.5 502 -.5 319 -.5"/><text x="327" y="-18.5" fill="#000" font-family="Arial" font-size="10" text-anchor="start">examples/example-server</text><text x="410.5" y="-7.5" fill="#000" font-family="Arial" font-size="10" text-anchor="middle">-lib/floating_window_manager.cpp</text></a></g></g><g id="edge3" class="edge"><title>Node12-&gt;Node14</title><path fill="none" stroke="#191970" d="M388.1754,-259.7761C383.0509,-251.418 378.1148,-241.6836 375.5,-232 366.686,-199.3587 351.979,-170.1288 381.5,-67 385.2275,-53.9784 392.8212,-40.6931 399.3031,-30.878"/><polygon fill="#191970" stroke="#191970" points="385.307 -261.784 393.709 -268.238 391.165 -257.953 385.307 -261.784"/></g><g id="node5" class="node"><title>Node15</title><g id="a_node5"><a target="_top" xlink:href="tiling__window__manager_8cpp.html" xlink:title="examples/example-server\l-lib/tiling_window_manager.cpp"><polygon fill="#fff" stroke="#000" points="847 -67.5 847 -97.5 1018 -97.5 1018 -67.5 847 -67.5"/><text x="855" y="-85.5" fill="#000" font-family="Arial" font-size="10" text-anchor="start">examples/example-server</text><text x="932.5" y="-74.5" fill="#000" font-family="Arial" font-size="10" text-anchor="middle">-lib/tiling_window_manager.cpp</text></a></g></g><g id="edge4" class="edge"><title>Node12-&gt;Node15</title><path fill="none" stroke="#191970" d="M470.2627,-278.858C598.5999,-268.1703 877.8179,-237.0031 935.5,-165 950.7335,-145.9843 944.4121,-115.8431 938.4457,-97.7379"/><polygon fill="#191970" stroke="#191970" points="469.857 -275.379 460.175 -279.682 470.427 -282.356 469.857 -275.379"/></g><g id="node6" class="node"><title>Node16</title><g id="a_node6"><a target="_top" xlink:href="window__manager__tools_8h.html" xlink:title="include/miral/miral\l/window_manager_tools.h"><polygon fill="#fff" stroke="#000" points="384.5 -201.5 384.5 -231.5 528.5 -231.5 528.5 -201.5 384.5 -201.5"/><text x="392.5" y="-219.5" fill="#000" font-family="Arial" font-size="10" text-anchor="start">include/miral/miral</text><text x="456.5" y="-208.5" fill="#000" font-family="Arial" font-size="10" text-anchor="middle">/window_manager_tools.h</text></a></g></g><g id="edge5" class="edge"><title>Node12-&gt;Node16</title><path fill="none" stroke="#191970" d="M423.3404,-260.0626C430.5193,-250.6315 438.5909,-240.0276 444.9731,-231.6432"/><polygon fill="#191970" stroke="#191970" points="420.345 -258.22 417.073 -268.297 425.915 -262.459 420.345 -258.22"/></g><g id="edge6" class="edge"><title>Node16-&gt;Node13</title><path fill="none" stroke="#191970" d="M374.0383,-212.7054C290.7071,-207.2657 169.2885,-194.4289 133.5,-165 111.9787,-147.3031 90.2619,-64.8436 81.9907,-30.5359"/><polygon fill="#191970" stroke="#191970" points="374.058 -216.213 384.258 -213.348 374.497 -209.227 374.058 -216.213"/></g><g id="edge10" class="edge"><title>Node16-&gt;Node14</title><path fill="none" stroke="#191970" d="M420.6346,-195.4127C410.2425,-187.3306 400.1763,-177.0941 394.5,-165 373.3171,-119.8669 392.6495,-58.8608 403.8324,-30.7908"/><polygon fill="#191970" stroke="#191970" points="418.805 -198.409 428.961 -201.427 422.904 -192.734 418.805 -198.409"/></g><g id="edge14" class="edge"><title>Node16-&gt;Node15</title><path fill="none" stroke="#191970" d="M538.9418,-212.3244C662.9958,-205.2851 886.1519,-189.3921 913.5,-165 932.4761,-148.075 934.4817,-116.3491 933.7875,-97.5559"/><polygon fill="#191970" stroke="#191970" points="538.509 -208.843 528.721 -212.897 538.901 -215.832 538.509 -208.843"/></g><g id="node7" class="node"><title>Node17</title><g id="a_node7"><a target="_top" xlink:href="decoration__provider_8h.html" xlink:title="examples/example-server\l-lib/decoration_provider.h"><polygon fill="#fff" stroke="#000" points="403 -134.5 403 -164.5 548 -164.5 548 -134.5 403 -134.5"/><text x="411" y="-152.5" fill="#000" font-family="Arial" font-size="10" text-anchor="start">examples/example-server</text><text x="475.5" y="-141.5" fill="#000" font-family="Arial" font-size="10" text-anchor="middle">-lib/decoration_provider.h</text></a></g></g><g id="edge7" class="edge"><title>Node16-&gt;Node17</title><path fill="none" stroke="#191970" d="M463.5583,-191.6103C466.1261,-182.5553 468.9493,-172.5998 471.2057,-164.6432"/><polygon fill="#191970" stroke="#191970" points="460.173 -190.721 460.811 -201.297 466.907 -192.631 460.173 -190.721"/></g><g id="node9" class="node"><title>Node19</title><g id="a_node9"><a target="_top" xlink:href="tiling__window__manager_8h.html" xlink:title="examples/example-server\l-lib/tiling_window_manager.h"><polygon fill="#fff" stroke="#000" points="744.5 -134.5 744.5 -164.5 904.5 -164.5 904.5 -134.5 744.5 -134.5"/><text x="752.5" y="-152.5" fill="#000" font-family="Arial" font-size="10" text-anchor="start">examples/example-server</text><text x="824.5" y="-141.5" fill="#000" font-family="Arial" font-size="10" text-anchor="middle">-lib/tiling_window_manager.h</text></a></g></g><g id="edge11" class="edge"><title>Node16-&gt;Node19</title><path fill="none" stroke="#191970" d="M538.8045,-201.5152C600.1836,-190.3402 683.5744,-175.1577 744.4142,-164.0808"/><polygon fill="#191970" stroke="#191970" points="537.977 -198.108 528.766 -203.343 539.231 -204.995 537.977 -198.108"/></g><g id="node11" class="node"><title>Node21</title><g id="a_node11"><a target="_top" xlink:href="canonical__window__manager_8h.html" xlink:title="include/miral/miral\l/canonical_window_manager.h"><polygon fill="#fff" stroke="#000" points="142.5 -134.5 142.5 -164.5 308.5 -164.5 308.5 -134.5 142.5 -134.5"/><text x="150.5" y="-152.5" fill="#000" font-family="Arial" font-size="10" text-anchor="start">include/miral/miral</text><text x="225.5" y="-141.5" fill="#000" font-family="Arial" font-size="10" text-anchor="middle">/canonical_window_manager.h</text></a></g></g><g id="edge15" class="edge"><title>Node16-&gt;Node21</title><path fill="none" stroke="#191970" d="M394.6072,-198.5484C358.0431,-187.9432 312.2681,-174.6665 277.567,-164.6017"/><polygon fill="#191970" stroke="#191970" points="394.08 -202.04 404.659 -201.464 396.03 -195.317 394.08 -202.04"/></g><g id="node14" class="node"><title>Node24</title><g id="a_node14"><a target="_top" xlink:href="minimal__window__manager_8h.html" xlink:title="include/miral/miral\l/minimal_window_manager.h"><polygon fill="#fff" stroke="#000" points="566.5 -134.5 566.5 -164.5 726.5 -164.5 726.5 -134.5 566.5 -134.5"/><text x="574.5" y="-152.5" fill="#000" font-family="Arial" font-size="10" text-anchor="start">include/miral/miral</text><text x="646.5" y="-141.5" fill="#000" font-family="Arial" font-size="10" text-anchor="middle">/minimal_window_manager.h</text></a></g></g><g id="edge19" class="edge"><title>Node16-&gt;Node24</title><path fill="none" stroke="#191970" d="M508.9563,-198.0023C538.7664,-187.4903 575.6202,-174.4945 603.6743,-164.6017"/><polygon fill="#191970" stroke="#191970" points="507.406 -194.837 499.14 -201.464 509.735 -201.439 507.406 -194.837"/></g><g id="edge9" class="edge"><title>Node17-&gt;Node14</title><path fill="none" stroke="#191970" d="M452.085,-126.6881C444.5746,-118.2821 436.8307,-108.286 431.5,-98 420.1431,-76.086 414.6668,-47.6549 412.2317,-30.535"/><polygon fill="#191970" stroke="#191970" points="449.741 -129.305 459.128 -134.218 454.853 -124.524 449.741 -129.305"/></g><g id="node8" class="node"><title>Node18</title><g id="a_node8"><a target="_top" xlink:href="decoration__provider_8cpp.html" xlink:title="examples/example-server\l-lib/decoration_provider.cpp"><polygon fill="#fff" stroke="#000" points="440.5 -67.5 440.5 -97.5 592.5 -97.5 592.5 -67.5 440.5 -67.5"/><text x="448.5" y="-85.5" fill="#000" font-family="Arial" font-size="10" text-anchor="start">examples/example-server</text><text x="516.5" y="-74.5" fill="#000" font-family="Arial" font-size="10" text-anchor="middle">-lib/decoration_provider.cpp</text></a></g></g><g id="edge8" class="edge"><title>Node17-&gt;Node18</title><path fill="none" stroke="#191970" d="M490.1965,-125.4837C495.8778,-116.1996 502.2072,-105.8565 507.2333,-97.6432"/><polygon fill="#191970" stroke="#191970" points="487.038 -123.94 484.803 -134.297 493.009 -127.594 487.038 -123.94"/></g><g id="edge13" class="edge"><title>Node19-&gt;Node15</title><path fill="none" stroke="#191970" d="M857.4221,-129.0761C873.7005,-118.9774 893.0101,-106.9983 907.9699,-97.7177"/><polygon fill="#191970" stroke="#191970" points="855.39 -126.218 848.737 -134.464 859.08 -132.166 855.39 -126.218"/></g><g id="node10" class="node"><title>Node20</title><g id="a_node10"><a target="_top" xlink:href="shell__main_8cpp.html" xlink:title="examples/miral-shell\l/shell_main.cpp"><polygon fill="#fff" stroke="#000" points="695.5 -.5 695.5 -30.5 815.5 -30.5 815.5 -.5 695.5 -.5"/><text x="703.5" y="-18.5" fill="#000" font-family="Arial" font-size="10" text-anchor="start">examples/miral-shell</text><text x="755.5" y="-7.5" fill="#000" font-family="Arial" font-size="10" text-anchor="middle">/shell_main.cpp</text></a></g></g><g id="edge12" class="edge"><title>Node19-&gt;Node20</title><path fill="none" stroke="#191970" d="M816.3098,-124.8185C810.3492,-108.067 801.5791,-85.6579 791.5,-67 784.5523,-54.1387 775.0145,-40.6313 767.5016,-30.6779"/><polygon fill="#191970" stroke="#191970" points="813.061 -126.132 819.645 -134.434 819.674 -123.839 813.061 -126.132"/></g><g id="node12" class="node"><title>Node22</title><g id="a_node12"><a target="_top" xlink:href="kiosk__window__manager_8h.html" xlink:title="examples/miral-kiosk\l/kiosk_window_manager.h"><polygon fill="#fff" stroke="#000" points="152.5 -67.5 152.5 -97.5 298.5 -97.5 298.5 -67.5 152.5 -67.5"/><text x="160.5" y="-85.5" fill="#000" font-family="Arial" font-size="10" text-anchor="start">examples/miral-kiosk</text><text x="225.5" y="-74.5" fill="#000" font-family="Arial" font-size="10" text-anchor="middle">/kiosk_window_manager.h</text></a></g></g><g id="edge16" class="edge"><title>Node21-&gt;Node22</title><path fill="none" stroke="#191970" d="M225.5,-124.0249C225.5,-115.128 225.5,-105.4287 225.5,-97.6432"/><polygon fill="#191970" stroke="#191970" points="222 -124.297 225.5 -134.297 229 -124.297 222 -124.297"/></g><g id="edge18" class="edge"><title>Node22-&gt;Node13</title><path fill="none" stroke="#191970" d="M183.4036,-63.3132C160.6153,-52.9267 132.8667,-40.2794 111.6336,-30.6017"/><polygon fill="#191970" stroke="#191970" points="181.959 -66.501 192.51 -67.464 184.863 -60.132 181.959 -66.501"/></g><g id="node13" class="node"><title>Node23</title><g id="a_node13"><a target="_top" xlink:href="kiosk__main_8cpp.html" xlink:title="examples/miral-kiosk\l/kiosk_main.cpp"><polygon fill="#fff" stroke="#000" points="175 -.5 175 -30.5 298 -30.5 298 -.5 175 -.5"/><text x="183" y="-18.5" fill="#000" font-family="Arial" font-size="10" text-anchor="start">examples/miral-kiosk</text><text x="236.5" y="-7.5" fill="#000" font-family="Arial" font-size="10" text-anchor="middle">/kiosk_main.cpp</text></a></g></g><g id="edge17" class="edge"><title>Node22-&gt;Node23</title><path fill="none" stroke="#191970" d="M229.6344,-57.3179C231.1081,-48.3414 232.7215,-38.5143 234.0138,-30.6432"/><polygon fill="#191970" stroke="#191970" points="226.162 -56.862 227.996 -67.297 233.07 -57.996 226.162 -56.862"/></g><g id="node15" class="node"><title>Node25</title><g id="a_node15"><a target="_top" xlink:href="floating__window__manager_8h.html" xlink:title="examples/example-server\l-lib/floating_window_manager.h"><polygon fill="#fff" stroke="#000" points="610.5 -67.5 610.5 -97.5 782.5 -97.5 782.5 -67.5 610.5 -67.5"/><text x="618.5" y="-85.5" fill="#000" font-family="Arial" font-size="10" text-anchor="start">examples/example-server</text><text x="696.5" y="-74.5" fill="#000" font-family="Arial" font-size="10" text-anchor="middle">-lib/floating_window_manager.h</text></a></g></g><g id="edge20" class="edge"><title>Node24-&gt;Node25</title><path fill="none" stroke="#191970" d="M663.9906,-126.0626C671.0287,-116.6315 678.9421,-106.0276 685.1991,-97.6432"/><polygon fill="#191970" stroke="#191970" points="661.022 -124.189 657.846 -134.297 666.632 -128.376 661.022 -124.189"/></g><g id="edge22" class="edge"><title>Node25-&gt;Node14</title><path fill="none" stroke="#191970" d="M622.4698,-65.1573C576.7858,-54.4551 518.7534,-40.8601 474.9639,-30.6017"/><polygon fill="#191970" stroke="#191970" points="621.781 -68.591 632.316 -67.464 623.378 -61.775 621.781 -68.591"/></g><g id="edge21" class="edge"><title>Node25-&gt;Node20</title><path fill="none" stroke="#191970" d="M716.6318,-59.6385C725.0619,-50.0653 734.631,-39.1987 742.165,-30.6432"/><polygon fill="#191970" stroke="#191970" points="713.87 -57.479 709.888 -67.297 719.124 -62.105 713.87 -57.479"/></g></g></svg>