<svg xmlns="http://www.w3.org/2000/svg" xmlns:xlink="http://www.w3.org/1999/xlink" width="552" height="106pt" viewBox="0 0 414 106"><g id="graph0" class="graph" transform="scale(1 1) rotate(0) translate(4 102)"><title>examples/miral-shell/spinner/miregl.h</title><polygon fill="#fff" stroke="transparent" points="-4 4 -4 -102 410 -102 410 4 -4 4"/><g id="node1" class="node"><title>Node4</title><polygon fill="#bfbfbf" stroke="#000" points="143 -67.5 143 -97.5 263 -97.5 263 -67.5 143 -67.5"/><text x="151" y="-85.5" fill="#000" font-family="Arial" font-size="10" text-anchor="start">examples/miral-shell</text><text x="203" y="-74.5" fill="#000" font-family="Arial" font-size="10" text-anchor="middle">/spinner/miregl.h</text></g><g id="node2" class="node"><title>Node5</title><g id="a_node2"><a target="_top" xlink:href="eglapp_8cpp.html" xlink:title="examples/miral-shell\l/spinner/eglapp.cpp"><polygon fill="#fff" stroke="#000" points="0 -.5 0 -30.5 120 -30.5 120 -.5 0 -.5"/><text x="8" y="-18.5" fill="#000" font-family="Arial" font-size="10" text-anchor="start">examples/miral-shell</text><text x="60" y="-7.5" fill="#000" font-family="Arial" font-size="10" text-anchor="middle">/spinner/eglapp.cpp</text></a></g></g><g id="edge1" class="edge"><title>Node4-&gt;Node5</title><path fill="none" stroke="#191970" d="M161.7865,-63.1902C139.7566,-52.8685 113.0211,-40.3421 92.4796,-30.7177"/><polygon fill="#191970" stroke="#191970" points="160.368 -66.391 170.908 -67.464 163.338 -60.052 160.368 -66.391"/></g><g id="node3" class="node"><title>Node6</title><g id="a_node3"><a target="_top" xlink:href="eglspinner_8cpp.html" xlink:title="examples/miral-shell\l/spinner/eglspinner.cpp"><polygon fill="#fff" stroke="#000" points="138.5 -.5 138.5 -30.5 267.5 -30.5 267.5 -.5 138.5 -.5"/><text x="146.5" y="-18.5" fill="#000" font-family="Arial" font-size="10" text-anchor="start">examples/miral-shell</text><text x="203" y="-7.5" fill="#000" font-family="Arial" font-size="10" text-anchor="middle">/spinner/eglspinner.cpp</text></a></g></g><g id="edge2" class="edge"><title>Node4-&gt;Node6</title><path fill="none" stroke="#191970" d="M203,-57.0249C203,-48.128 203,-38.4287 203,-30.6432"/><polygon fill="#191970" stroke="#191970" points="199.5 -57.297 203 -67.297 206.5 -57.297 199.5 -57.297"/></g><g id="node4" class="node"><title>Node7</title><g id="a_node4"><a target="_top" xlink:href="miregl_8cpp.html" xlink:title="examples/miral-shell\l/spinner/miregl.cpp"><polygon fill="#fff" stroke="#000" points="286 -.5 286 -30.5 406 -30.5 406 -.5 286 -.5"/><text x="294" y="-18.5" fill="#000" font-family="Arial" font-size="10" text-anchor="start">examples/miral-shell</text><text x="346" y="-7.5" fill="#000" font-family="Arial" font-size="10" text-anchor="middle">/spinner/miregl.cpp</text></a></g></g><g id="edge3" class="edge"><title>Node4-&gt;Node7</title><path fill="none" stroke="#191970" d="M244.2135,-63.1902C266.2434,-52.8685 292.9789,-40.3421 313.5204,-30.7177"/><polygon fill="#191970" stroke="#191970" points="242.662 -60.052 235.092 -67.464 245.632 -66.391 242.662 -60.052"/></g></g></svg>