<svg xmlns="http://www.w3.org/2000/svg" xmlns:xlink="http://www.w3.org/1999/xlink" width="212pt" height="95pt" viewBox="0 0 211.5 95"><g id="graph0" class="graph" transform="scale(1 1) rotate(0) translate(4 91)"><title>examples/miral-shell/spinner/miregl.h</title><polygon fill="#fff" stroke="transparent" points="-4 4 -4 -91 207.5 -91 207.5 4 -4 4"/><g id="node1" class="node"><title>Node0</title><polygon fill="#bfbfbf" stroke="#000" points="49 -56.5 49 -86.5 169 -86.5 169 -56.5 49 -56.5"/><text x="57" y="-74.5" fill="#000" font-family="Arial" font-size="10" text-anchor="start">examples/miral-shell</text><text x="109" y="-63.5" fill="#000" font-family="Arial" font-size="10" text-anchor="middle">/spinner/miregl.h</text></g><g id="node2" class="node"><title>Node1</title><polygon fill="#fff" stroke="#bfbfbf" points="0 -.5 0 -19.5 62 -19.5 62 -.5 0 -.5"/><text x="31" y="-7.5" fill="#000" font-family="Arial" font-size="10" text-anchor="middle">EGL/egl.h</text></g><g id="edge1" class="edge"><title>Node0-&gt;Node1</title><path fill="none" stroke="#191970" d="M89.7191,-56.2977C78.1024,-47.1384 63.3182,-35.4816 51.4908,-26.1562"/><polygon fill="#191970" stroke="#191970" points="53.509 -23.29 43.489 -19.847 49.174 -28.787 53.509 -23.29"/></g><g id="node3" class="node"><title>Node2</title><polygon fill="#fff" stroke="#bfbfbf" points="80 -.5 80 -19.5 138 -19.5 138 -.5 80 -.5"/><text x="109" y="-7.5" fill="#000" font-family="Arial" font-size="10" text-anchor="middle">memory</text></g><g id="edge2" class="edge"><title>Node0-&gt;Node2</title><path fill="none" stroke="#191970" d="M109,-56.2977C109,-48.3834 109,-38.6043 109,-30.0759"/><polygon fill="#191970" stroke="#191970" points="112.5 -29.847 109 -19.847 105.5 -29.847 112.5 -29.847"/></g><g id="node4" class="node"><title>Node3</title><polygon fill="#fff" stroke="#bfbfbf" points="156.5 -.5 156.5 -19.5 203.5 -19.5 203.5 -.5 156.5 -.5"/><text x="180" y="-7.5" fill="#000" font-family="Arial" font-size="10" text-anchor="middle">vector</text></g><g id="edge3" class="edge"><title>Node0-&gt;Node3</title><path fill="none" stroke="#191970" d="M126.5506,-56.2977C137.0221,-47.2274 150.3211,-35.7077 161.0338,-26.4285"/><polygon fill="#191970" stroke="#191970" points="163.365 -29.04 168.632 -19.847 158.782 -23.749 163.365 -29.04"/></g></g></svg>