<svg xmlns="http://www.w3.org/2000/svg" xmlns:xlink="http://www.w3.org/1999/xlink" width="148pt" height="95pt" viewBox="0 0 148 95"><g id="graph0" class="graph" transform="scale(1 1) rotate(0) translate(4 91)"><title>include/core/mir/optional_value.h</title><polygon fill="#fff" stroke="transparent" points="-4 4 -4 -91 144 -91 144 4 -4 4"/><g id="node1" class="node"><title>Node0</title><polygon fill="#bfbfbf" stroke="#000" points="2 -56.5 2 -86.5 140 -86.5 140 -56.5 2 -56.5"/><text x="10" y="-74.5" fill="#000" font-family="Arial" font-size="10" text-anchor="start">include/core/mir/optional</text><text x="71" y="-63.5" fill="#000" font-family="Arial" font-size="10" text-anchor="middle">_value.h</text></g><g id="node2" class="node"><title>Node1</title><g id="a_node2"><a target="_top" xlink:href="fatal_8h.html" xlink:title="mir/fatal.h"><polygon fill="#fff" stroke="#000" points="0 -.5 0 -19.5 68 -19.5 68 -.5 0 -.5"/><text x="34" y="-7.5" fill="#000" font-family="Arial" font-size="10" text-anchor="middle">mir/fatal.h</text></a></g></g><g id="edge1" class="edge"><title>Node0-&gt;Node1</title><path fill="none" stroke="#191970" d="M61.8539,-56.2977C56.8249,-47.9388 50.5445,-37.4997 45.2209,-28.6509"/><polygon fill="#191970" stroke="#191970" points="48.078 -26.611 39.924 -19.847 42.08 -30.22 48.078 -26.611"/></g><g id="node3" class="node"><title>Node2</title><polygon fill="#fff" stroke="#bfbfbf" points="86.5 -.5 86.5 -19.5 131.5 -19.5 131.5 -.5 86.5 -.5"/><text x="109" y="-7.5" fill="#000" font-family="Arial" font-size="10" text-anchor="middle">utility</text></g><g id="edge2" class="edge"><title>Node0-&gt;Node2</title><path fill="none" stroke="#191970" d="M80.3933,-56.2977C85.6131,-47.8498 92.1457,-37.2773 97.65,-28.369"/><polygon fill="#191970" stroke="#191970" points="100.637 -30.194 102.916 -19.847 94.682 -26.514 100.637 -30.194"/></g></g></svg>