<svg xmlns="http://www.w3.org/2000/svg" xmlns:xlink="http://www.w3.org/1999/xlink" width="208" height="151pt" viewBox="0 0 156 151"><g id="graph0" class="graph" transform="scale(1 1) rotate(0) translate(4 147)"><title>include/core/mir/geometry/point.h</title><polygon fill="#fff" stroke="transparent" points="-4 4 -4 -147 152 -147 152 4 -4 4"/><g id="node1" class="node"><title>Node0</title><polygon fill="#bfbfbf" stroke="#000" points="2 -112.5 2 -142.5 148 -142.5 148 -112.5 2 -112.5"/><text x="10" y="-130.5" fill="#000" font-family="Arial" font-size="10" text-anchor="start">include/core/mir/geometry</text><text x="75" y="-119.5" fill="#000" font-family="Arial" font-size="10" text-anchor="middle">/point.h</text></g><g id="node2" class="node"><title>Node1</title><g id="a_node2"><a target="_top" xlink:href="dimensions_8h.html" xlink:title="dimensions.h"><polygon fill="#fff" stroke="#000" points="0 -56.5 0 -75.5 82 -75.5 82 -56.5 0 -56.5"/><text x="41" y="-63.5" fill="#000" font-family="Arial" font-size="10" text-anchor="middle">dimensions.h</text></a></g></g><g id="edge1" class="edge"><title>Node0-&gt;Node1</title><path fill="none" stroke="#191970" d="M66.5955,-112.2977C61.9743,-103.9388 56.2031,-93.4997 51.3111,-84.6509"/><polygon fill="#191970" stroke="#191970" points="54.345 -82.905 46.444 -75.847 48.219 -86.292 54.345 -82.905"/></g><g id="node4" class="node"><title>Node3</title><polygon fill="#fff" stroke="#bfbfbf" points="84.5 -.5 84.5 -19.5 133.5 -19.5 133.5 -.5 84.5 -.5"/><text x="109" y="-7.5" fill="#000" font-family="Arial" font-size="10" text-anchor="middle">iosfwd</text></g><g id="edge4" class="edge"><title>Node0-&gt;Node3</title><path fill="none" stroke="#191970" d="M79.9013,-112.2187C83.1426,-101.9946 87.4354,-88.2239 91,-76 95.5198,-60.5005 100.3149,-42.8518 103.8185,-29.7067"/><polygon fill="#191970" stroke="#191970" points="107.247 -30.433 106.423 -19.87 100.48 -28.641 107.247 -30.433"/></g><g id="node3" class="node"><title>Node2</title><polygon fill="#fff" stroke="#bfbfbf" points="16 -.5 16 -19.5 66 -19.5 66 -.5 16 -.5"/><text x="41" y="-7.5" fill="#000" font-family="Arial" font-size="10" text-anchor="middle">cstdint</text></g><g id="edge2" class="edge"><title>Node1-&gt;Node2</title><path fill="none" stroke="#191970" d="M41,-56.2455C41,-48.9382 41,-38.6944 41,-29.7046"/><polygon fill="#191970" stroke="#191970" points="44.5 -29.643 41 -19.643 37.5 -29.643 44.5 -29.643"/></g><g id="edge3" class="edge"><title>Node1-&gt;Node3</title><path fill="none" stroke="#191970" d="M52.8447,-56.2455C62.888,-47.9746 77.4995,-35.9416 89.3004,-26.2232"/><polygon fill="#191970" stroke="#191970" points="91.797 -28.701 97.291 -19.643 87.347 -23.298 91.797 -28.701"/></g></g></svg>