<svg xmlns="http://www.w3.org/2000/svg" xmlns:xlink="http://www.w3.org/1999/xlink" width="1039pt" height="508pt" viewBox="0 0 1039 508"><g id="graph0" class="graph" transform="scale(1 1) rotate(0) translate(4 504)"><title>include/core/mir/geometry/rectangle.h</title><polygon fill="#fff" stroke="transparent" points="-4 4 -4 -504 1035 -504 1035 4 -4 4"/><g id="node1" class="node"><title>Node6</title><polygon fill="#bfbfbf" stroke="#000" points="787.5 -469.5 787.5 -499.5 933.5 -499.5 933.5 -469.5 787.5 -469.5"/><text x="795.5" y="-487.5" fill="#000" font-family="Arial" font-size="10" text-anchor="start">include/core/mir/geometry</text><text x="860.5" y="-476.5" fill="#000" font-family="Arial" font-size="10" text-anchor="middle">/rectangle.h</text></g><g id="node2" class="node"><title>Node7</title><g id="a_node2"><a target="_top" xlink:href="rectangles_8h.html" xlink:title="include/core/mir/geometry\l/rectangles.h"><polygon fill="#fff" stroke="#000" points="538.5 -402.5 538.5 -432.5 684.5 -432.5 684.5 -402.5 538.5 -402.5"/><text x="546.5" y="-420.5" fill="#000" font-family="Arial" font-size="10" text-anchor="start">include/core/mir/geometry</text><text x="611.5" y="-409.5" fill="#000" font-family="Arial" font-size="10" text-anchor="middle">/rectangles.h</text></a></g></g><g id="edge1" class="edge"><title>Node6-&gt;Node7</title><path fill="none" stroke="#191970" d="M794.7928,-466.8198C755.2155,-456.1704 705.349,-442.7525 667.6242,-432.6017"/><polygon fill="#191970" stroke="#191970" points="794.054 -470.245 804.62 -469.464 795.872 -463.486 794.054 -470.245"/></g><g id="node19" class="node"><title>Node24</title><g id="a_node19"><a target="_top" xlink:href="event__builders_8h.html" xlink:title="include/client/mir\l/events/event_builders.h"><polygon fill="#fff" stroke="#000" points="889 -402.5 889 -432.5 1026 -432.5 1026 -402.5 889 -402.5"/><text x="897" y="-420.5" fill="#000" font-family="Arial" font-size="10" text-anchor="start">include/client/mir</text><text x="957.5" y="-409.5" fill="#000" font-family="Arial" font-size="10" text-anchor="middle">/events/event_builders.h</text></a></g></g><g id="edge30" class="edge"><title>Node6-&gt;Node24</title><path fill="none" stroke="#191970" d="M891.1246,-463.3469C905.5578,-453.3776 922.4467,-441.7121 935.5763,-432.6432"/><polygon fill="#191970" stroke="#191970" points="888.75 -460.733 882.511 -469.297 892.728 -466.493 888.75 -460.733"/></g><g id="node20" class="node"><title>Node25</title><g id="a_node20"><a target="_top" xlink:href="output_8h.html" xlink:title="include/miral/miral\l/output.h"><polygon fill="#fff" stroke="#000" points="886 -335.5 886 -365.5 995 -365.5 995 -335.5 886 -335.5"/><text x="894" y="-353.5" fill="#000" font-family="Arial" font-size="10" text-anchor="start">include/miral/miral</text><text x="940.5" y="-342.5" fill="#000" font-family="Arial" font-size="10" text-anchor="middle">/output.h</text></a></g></g><g id="edge31" class="edge"><title>Node6-&gt;Node25</title><path fill="none" stroke="#191970" d="M862.568,-459.058C864.9072,-441.8996 869.8898,-419.3188 880.5,-402 889.4641,-387.368 903.9793,-374.7465 916.4874,-365.6607"/><polygon fill="#191970" stroke="#191970" points="859.04 -459.108 861.38 -469.441 865.994 -459.904 859.04 -459.108"/></g><g id="node3" class="node"><title>Node8</title><g id="a_node3"><a target="_top" xlink:href="window__info_8h.html" xlink:title="include/miral/miral\l/window_info.h"><polygon fill="#fff" stroke="#000" points="422 -268.5 422 -298.5 531 -298.5 531 -268.5 422 -268.5"/><text x="430" y="-286.5" fill="#000" font-family="Arial" font-size="10" text-anchor="start">include/miral/miral</text><text x="476.5" y="-275.5" fill="#000" font-family="Arial" font-size="10" text-anchor="middle">/window_info.h</text></a></g></g><g id="edge2" class="edge"><title>Node7-&gt;Node8</title><path fill="none" stroke="#191970" d="M532.6775,-398.5059C515.8329,-390.9757 499.7482,-380.5124 488.5,-366 473.4266,-346.5524 473.0808,-316.5529 474.5496,-298.5917"/><polygon fill="#191970" stroke="#191970" points="531.509 -401.81 542.088 -402.395 534.183 -395.341 531.509 -401.81"/></g><g id="node17" class="node"><title>Node22</title><g id="a_node17"><a target="_top" xlink:href="window__management__policy_8h.html" xlink:title="include/miral/miral\l/window_management_policy.h"><polygon fill="#fff" stroke="#000" points="572.5 -201.5 572.5 -231.5 742.5 -231.5 742.5 -201.5 572.5 -201.5"/><text x="580.5" y="-219.5" fill="#000" font-family="Arial" font-size="10" text-anchor="start">include/miral/miral</text><text x="657.5" y="-208.5" fill="#000" font-family="Arial" font-size="10" text-anchor="middle">/window_management_policy.h</text></a></g></g><g id="edge24" class="edge"><title>Node7-&gt;Node22</title><path fill="none" stroke="#191970" d="M627.4038,-393.9009C632.3864,-385.4377 637.3905,-375.6068 640.5,-366 655.7842,-318.78 657.7452,-259.3012 657.7405,-231.7711"/><polygon fill="#191970" stroke="#191970" points="624.385 -392.128 622.096 -402.472 630.337 -395.813 624.385 -392.128"/></g><g id="node18" class="node"><title>Node23</title><g id="a_node18"><a target="_top" xlink:href="window__specification_8h.html" xlink:title="include/miral/miral\l/window_specification.h"><polygon fill="#fff" stroke="#000" points="498 -335.5 498 -365.5 631 -365.5 631 -335.5 498 -335.5"/><text x="506" y="-353.5" fill="#000" font-family="Arial" font-size="10" text-anchor="start">include/miral/miral</text><text x="564.5" y="-342.5" fill="#000" font-family="Arial" font-size="10" text-anchor="middle">/window_specification.h</text></a></g></g><g id="edge28" class="edge"><title>Node7-&gt;Node23</title><path fill="none" stroke="#191970" d="M595.0588,-394.0626C588.443,-384.6315 581.0045,-374.0276 575.1228,-365.6432"/><polygon fill="#191970" stroke="#191970" points="592.227 -396.12 600.835 -402.297 597.957 -392.1 592.227 -396.12"/></g><g id="node4" class="node"><title>Node9</title><g id="a_node4"><a target="_top" xlink:href="kiosk__window__manager_8cpp.html" xlink:title="examples/miral-kiosk\l/kiosk_window_manager.cpp"><polygon fill="#fff" stroke="#000" points="0 -.5 0 -30.5 157 -30.5 157 -.5 0 -.5"/><text x="8" y="-18.5" fill="#000" font-family="Arial" font-size="10" text-anchor="start">examples/miral-kiosk</text><text x="78.5" y="-7.5" fill="#000" font-family="Arial" font-size="10" text-anchor="middle">/kiosk_window_manager.cpp</text></a></g></g><g id="edge3" class="edge"><title>Node8-&gt;Node9</title><path fill="none" stroke="#191970" d="M411.7653,-275.2941C344.6269,-266.0233 244.7609,-249.8788 210.5,-232 141.1792,-195.8255 127.1744,-169.9239 96.5,-98 86.9533,-75.6154 82.219,-47.5719 80.0701,-30.6206"/><polygon fill="#191970" stroke="#191970" points="411.452 -278.784 421.833 -276.667 412.397 -271.848 411.452 -278.784"/></g><g id="node5" class="node"><title>Node10</title><g id="a_node5"><a target="_top" xlink:href="floating__window__manager_8cpp.html" xlink:title="examples/example-server\l-lib/floating_window_manager.cpp"><polygon fill="#fff" stroke="#000" points="319 -.5 319 -30.5 502 -30.5 502 -.5 319 -.5"/><text x="327" y="-18.5" fill="#000" font-family="Arial" font-size="10" text-anchor="start">examples/example-server</text><text x="410.5" y="-7.5" fill="#000" font-family="Arial" font-size="10" text-anchor="middle">-lib/floating_window_manager.cpp</text></a></g></g><g id="edge4" class="edge"><title>Node8-&gt;Node10</title><path fill="none" stroke="#191970" d="M411.7636,-278.2023C341.1531,-268.5707 231.2979,-241.4354 179.5,-165 171.7708,-153.5944 171.4286,-145.166 179.5,-134 209.3879,-92.653 242.7126,-120.5028 288.5,-98 327.5103,-78.8279 368.5095,-48.738 391.6533,-30.685"/><polygon fill="#191970" stroke="#191970" points="411.521 -281.7 421.885 -279.5 412.412 -274.757 411.521 -281.7"/></g><g id="node6" class="node"><title>Node11</title><g id="a_node6"><a target="_top" xlink:href="tiling__window__manager_8cpp.html" xlink:title="examples/example-server\l-lib/tiling_window_manager.cpp"><polygon fill="#fff" stroke="#000" points="860 -67.5 860 -97.5 1031 -97.5 1031 -67.5 860 -67.5"/><text x="868" y="-85.5" fill="#000" font-family="Arial" font-size="10" text-anchor="start">examples/example-server</text><text x="945.5" y="-74.5" fill="#000" font-family="Arial" font-size="10" text-anchor="middle">-lib/tiling_window_manager.cpp</text></a></g></g><g id="edge5" class="edge"><title>Node8-&gt;Node11</title><path fill="none" stroke="#191970" d="M541.3289,-277.1664C658.445,-264.1948 897.532,-230.1827 944.5,-165 958.6518,-145.36 954.5546,-115.6969 950.1354,-97.8036"/><polygon fill="#191970" stroke="#191970" points="540.629 -273.722 531.067 -278.284 541.387 -280.681 540.629 -273.722"/></g><g id="node7" class="node"><title>Node12</title><g id="a_node7"><a target="_top" xlink:href="window__manager__tools_8h.html" xlink:title="include/miral/miral\l/window_manager_tools.h"><polygon fill="#fff" stroke="#000" points="408.5 -201.5 408.5 -231.5 552.5 -231.5 552.5 -201.5 408.5 -201.5"/><text x="416.5" y="-219.5" fill="#000" font-family="Arial" font-size="10" text-anchor="start">include/miral/miral</text><text x="480.5" y="-208.5" fill="#000" font-family="Arial" font-size="10" text-anchor="middle">/window_manager_tools.h</text></a></g></g><g id="edge6" class="edge"><title>Node8-&gt;Node12</title><path fill="none" stroke="#191970" d="M478.0209,-258.0249C478.5521,-249.128 479.1311,-239.4287 479.5959,-231.6432"/><polygon fill="#191970" stroke="#191970" points="474.51 -258.106 477.408 -268.297 481.498 -258.523 474.51 -258.106"/></g><g id="edge7" class="edge"><title>Node12-&gt;Node9</title><path fill="none" stroke="#191970" d="M398.4215,-208.9491C322.4045,-200.802 215.8009,-186.0965 179.5,-165 126.1492,-133.9948 95.0986,-62.1779 83.62,-30.7216"/><polygon fill="#191970" stroke="#191970" points="398.155 -212.44 408.466 -210.007 398.888 -205.479 398.155 -212.44"/></g><g id="edge11" class="edge"><title>Node12-&gt;Node10</title><path fill="none" stroke="#191970" d="M433.5322,-196.4304C420.8468,-188.5771 408.661,-178.2164 401.5,-165 377.7169,-121.1055 394.671,-58.959 404.6344,-30.6292"/><polygon fill="#191970" stroke="#191970" points="431.921 -199.541 442.339 -201.471 435.398 -193.466 431.921 -199.541"/></g><g id="edge15" class="edge"><title>Node12-&gt;Node11</title><path fill="none" stroke="#191970" d="M562.8461,-201.0941C563.0644,-201.0626 563.2823,-201.0312 563.5,-201 642.6472,-189.6509 860.0357,-216.1393 921.5,-165 941.3374,-148.4949 945.3237,-116.6214 945.8232,-97.6883"/><polygon fill="#191970" stroke="#191970" points="562.227 -197.648 552.868 -202.613 563.281 -204.568 562.227 -197.648"/></g><g id="node8" class="node"><title>Node13</title><g id="a_node8"><a target="_top" xlink:href="decoration__provider_8h.html" xlink:title="examples/example-server\l-lib/decoration_provider.h"><polygon fill="#fff" stroke="#000" points="411 -134.5 411 -164.5 556 -164.5 556 -134.5 411 -134.5"/><text x="419" y="-152.5" fill="#000" font-family="Arial" font-size="10" text-anchor="start">examples/example-server</text><text x="483.5" y="-141.5" fill="#000" font-family="Arial" font-size="10" text-anchor="middle">-lib/decoration_provider.h</text></a></g></g><g id="edge8" class="edge"><title>Node12-&gt;Node13</title><path fill="none" stroke="#191970" d="M481.6407,-191.0249C482.039,-182.128 482.4733,-172.4287 482.8219,-164.6432"/><polygon fill="#191970" stroke="#191970" points="478.132 -191.15 481.181 -201.297 485.125 -191.463 478.132 -191.15"/></g><g id="node10" class="node"><title>Node15</title><g id="a_node10"><a target="_top" xlink:href="tiling__window__manager_8h.html" xlink:title="examples/example-server\l-lib/tiling_window_manager.h"><polygon fill="#fff" stroke="#000" points="752.5 -134.5 752.5 -164.5 912.5 -164.5 912.5 -134.5 752.5 -134.5"/><text x="760.5" y="-152.5" fill="#000" font-family="Arial" font-size="10" text-anchor="start">examples/example-server</text><text x="832.5" y="-141.5" fill="#000" font-family="Arial" font-size="10" text-anchor="middle">-lib/tiling_window_manager.h</text></a></g></g><g id="edge12" class="edge"><title>Node12-&gt;Node15</title><path fill="none" stroke="#191970" d="M562.7313,-200.848C620.2576,-189.8984 696.6608,-175.3558 753.4692,-164.5428"/><polygon fill="#191970" stroke="#191970" points="561.751 -197.472 552.582 -202.78 563.06 -204.348 561.751 -197.472"/></g><g id="node12" class="node"><title>Node17</title><g id="a_node12"><a target="_top" xlink:href="canonical__window__manager_8h.html" xlink:title="include/miral/miral\l/canonical_window_manager.h"><polygon fill="#fff" stroke="#000" points="188.5 -134.5 188.5 -164.5 354.5 -164.5 354.5 -134.5 188.5 -134.5"/><text x="196.5" y="-152.5" fill="#000" font-family="Arial" font-size="10" text-anchor="start">include/miral/miral</text><text x="271.5" y="-141.5" fill="#000" font-family="Arial" font-size="10" text-anchor="middle">/canonical_window_manager.h</text></a></g></g><g id="edge16" class="edge"><title>Node12-&gt;Node17</title><path fill="none" stroke="#191970" d="M423.6517,-198.2759C390.7127,-187.7165 349.7361,-174.5805 318.6083,-164.6017"/><polygon fill="#191970" stroke="#191970" points="423.005 -201.744 433.596 -201.464 425.142 -195.078 423.005 -201.744"/></g><g id="node15" class="node"><title>Node20</title><g id="a_node15"><a target="_top" xlink:href="minimal__window__manager_8h.html" xlink:title="include/miral/miral\l/minimal_window_manager.h"><polygon fill="#fff" stroke="#000" points="574.5 -134.5 574.5 -164.5 734.5 -164.5 734.5 -134.5 574.5 -134.5"/><text x="582.5" y="-152.5" fill="#000" font-family="Arial" font-size="10" text-anchor="start">include/miral/miral</text><text x="654.5" y="-141.5" fill="#000" font-family="Arial" font-size="10" text-anchor="middle">/minimal_window_manager.h</text></a></g></g><g id="edge20" class="edge"><title>Node12-&gt;Node20</title><path fill="none" stroke="#191970" d="M528.8954,-197.865C556.132,-187.3773 589.7007,-174.4515 615.2807,-164.6017"/><polygon fill="#191970" stroke="#191970" points="527.623 -194.604 519.549 -201.464 530.139 -201.137 527.623 -194.604"/></g><g id="edge10" class="edge"><title>Node13-&gt;Node10</title><path fill="none" stroke="#191970" d="M461.1756,-127.0588C453.5369,-118.4924 445.4313,-108.2989 439.5,-98 426.8466,-76.0292 418.3609,-47.6153 413.9901,-30.5143"/><polygon fill="#191970" stroke="#191970" points="458.626 -129.457 467.984 -134.425 463.766 -124.705 458.626 -129.457"/></g><g id="node9" class="node"><title>Node14</title><g id="a_node9"><a target="_top" xlink:href="decoration__provider_8cpp.html" xlink:title="examples/example-server\l-lib/decoration_provider.cpp"><polygon fill="#fff" stroke="#000" points="448.5 -67.5 448.5 -97.5 600.5 -97.5 600.5 -67.5 448.5 -67.5"/><text x="456.5" y="-85.5" fill="#000" font-family="Arial" font-size="10" text-anchor="start">examples/example-server</text><text x="524.5" y="-74.5" fill="#000" font-family="Arial" font-size="10" text-anchor="middle">-lib/decoration_provider.cpp</text></a></g></g><g id="edge9" class="edge"><title>Node13-&gt;Node14</title><path fill="none" stroke="#191970" d="M498.1965,-125.4837C503.8778,-116.1996 510.2072,-105.8565 515.2333,-97.6432"/><polygon fill="#191970" stroke="#191970" points="495.038 -123.94 492.803 -134.297 501.009 -127.594 495.038 -123.94"/></g><g id="edge14" class="edge"><title>Node15-&gt;Node11</title><path fill="none" stroke="#191970" d="M866.474,-129.3561C883.6038,-119.1995 904.037,-107.0843 919.8343,-97.7177"/><polygon fill="#191970" stroke="#191970" points="864.676 -126.353 857.859 -134.464 868.246 -132.374 864.676 -126.353"/></g><g id="node11" class="node"><title>Node16</title><g id="a_node11"><a target="_top" xlink:href="shell__main_8cpp.html" xlink:title="examples/miral-shell\l/shell_main.cpp"><polygon fill="#fff" stroke="#000" points="703.5 -.5 703.5 -30.5 823.5 -30.5 823.5 -.5 703.5 -.5"/><text x="711.5" y="-18.5" fill="#000" font-family="Arial" font-size="10" text-anchor="start">examples/miral-shell</text><text x="763.5" y="-7.5" fill="#000" font-family="Arial" font-size="10" text-anchor="middle">/shell_main.cpp</text></a></g></g><g id="edge13" class="edge"><title>Node15-&gt;Node16</title><path fill="none" stroke="#191970" d="M824.3098,-124.8185C818.3492,-108.067 809.5791,-85.6579 799.5,-67 792.5523,-54.1387 783.0145,-40.6313 775.5016,-30.6779"/><polygon fill="#191970" stroke="#191970" points="821.061 -126.132 827.645 -134.434 827.674 -123.839 821.061 -126.132"/></g><g id="node13" class="node"><title>Node18</title><g id="a_node13"><a target="_top" xlink:href="kiosk__window__manager_8h.html" xlink:title="examples/miral-kiosk\l/kiosk_window_manager.h"><polygon fill="#fff" stroke="#000" points="133.5 -67.5 133.5 -97.5 279.5 -97.5 279.5 -67.5 133.5 -67.5"/><text x="141.5" y="-85.5" fill="#000" font-family="Arial" font-size="10" text-anchor="start">examples/miral-kiosk</text><text x="206.5" y="-74.5" fill="#000" font-family="Arial" font-size="10" text-anchor="middle">/kiosk_window_manager.h</text></a></g></g><g id="edge17" class="edge"><title>Node17-&gt;Node18</title><path fill="none" stroke="#191970" d="M249.5992,-126.9253C240.2445,-117.2828 229.5743,-106.2843 221.1911,-97.6432"/><polygon fill="#191970" stroke="#191970" points="247.275 -129.556 256.75 -134.297 252.299 -124.682 247.275 -129.556"/></g><g id="edge19" class="edge"><title>Node18-&gt;Node9</title><path fill="none" stroke="#191970" d="M168.8151,-62.7743C149.2505,-52.5335 125.7132,-40.2132 107.5727,-30.7177"/><polygon fill="#191970" stroke="#191970" points="167.292 -65.927 177.774 -67.464 170.538 -59.725 167.292 -65.927"/></g><g id="node14" class="node"><title>Node19</title><g id="a_node14"><a target="_top" xlink:href="kiosk__main_8cpp.html" xlink:title="examples/miral-kiosk\l/kiosk_main.cpp"><polygon fill="#fff" stroke="#000" points="175 -.5 175 -30.5 298 -30.5 298 -.5 175 -.5"/><text x="183" y="-18.5" fill="#000" font-family="Arial" font-size="10" text-anchor="start">examples/miral-kiosk</text><text x="236.5" y="-7.5" fill="#000" font-family="Arial" font-size="10" text-anchor="middle">/kiosk_main.cpp</text></a></g></g><g id="edge18" class="edge"><title>Node18-&gt;Node19</title><path fill="none" stroke="#191970" d="M217.514,-57.9021C221.6032,-48.7696 226.1185,-38.6854 229.7195,-30.6432"/><polygon fill="#191970" stroke="#191970" points="214.2 -56.739 213.308 -67.297 220.589 -59.6 214.2 -56.739"/></g><g id="node16" class="node"><title>Node21</title><g id="a_node16"><a target="_top" xlink:href="floating__window__manager_8h.html" xlink:title="examples/example-server\l-lib/floating_window_manager.h"><polygon fill="#fff" stroke="#000" points="618.5 -67.5 618.5 -97.5 790.5 -97.5 790.5 -67.5 618.5 -67.5"/><text x="626.5" y="-85.5" fill="#000" font-family="Arial" font-size="10" text-anchor="start">examples/example-server</text><text x="704.5" y="-74.5" fill="#000" font-family="Arial" font-size="10" text-anchor="middle">-lib/floating_window_manager.h</text></a></g></g><g id="edge21" class="edge"><title>Node20-&gt;Node21</title><path fill="none" stroke="#191970" d="M671.9906,-126.0626C679.0287,-116.6315 686.9421,-106.0276 693.1991,-97.6432"/><polygon fill="#191970" stroke="#191970" points="669.022 -124.189 665.846 -134.297 674.632 -128.376 669.022 -124.189"/></g><g id="edge23" class="edge"><title>Node21-&gt;Node10</title><path fill="none" stroke="#191970" d="M628.6766,-65.2205C581.5841,-54.4886 521.6454,-40.8291 476.513,-30.5438"/><polygon fill="#191970" stroke="#191970" points="627.993 -68.654 638.521 -67.464 629.548 -61.829 627.993 -68.654"/></g><g id="edge22" class="edge"><title>Node21-&gt;Node16</title><path fill="none" stroke="#191970" d="M724.6318,-59.6385C733.0619,-50.0653 742.631,-39.1987 750.165,-30.6432"/><polygon fill="#191970" stroke="#191970" points="721.87 -57.479 717.888 -67.297 727.124 -62.105 721.87 -57.479"/></g><g id="edge25" class="edge"><title>Node22-&gt;Node15</title><path fill="none" stroke="#191970" d="M706.1735,-197.865C733.5667,-187.3773 767.3283,-174.4515 793.0553,-164.6017"/><polygon fill="#191970" stroke="#191970" points="704.861 -194.62 696.773 -201.464 707.364 -201.157 704.861 -194.62"/></g><g id="edge26" class="edge"><title>Node22-&gt;Node17</title><path fill="none" stroke="#191970" d="M562.2755,-199.9714C498.6658,-188.9303 415.8001,-174.5469 354.8112,-163.9607"/><polygon fill="#191970" stroke="#191970" points="561.861 -203.452 572.313 -201.714 563.059 -196.555 561.861 -203.452"/></g><g id="edge27" class="edge"><title>Node22-&gt;Node20</title><path fill="none" stroke="#191970" d="M656.3593,-191.0249C655.961,-182.128 655.5267,-172.4287 655.1781,-164.6432"/><polygon fill="#191970" stroke="#191970" points="652.875 -191.463 656.819 -201.297 659.868 -191.15 652.875 -191.463"/></g><g id="edge29" class="edge"><title>Node23-&gt;Node8</title><path fill="none" stroke="#191970" d="M536.3457,-329.0643C523.334,-319.1577 508.1886,-307.6265 496.3895,-298.6432"/><polygon fill="#191970" stroke="#191970" points="534.455 -332.024 544.531 -335.297 538.695 -326.454 534.455 -332.024"/></g><g id="edge32" class="edge"><title>Node25-&gt;Node11</title><path fill="none" stroke="#191970" d="M947.2031,-325.6829C957.1704,-285.3147 973.5934,-202.9965 962.5,-134 960.4673,-121.3573 955.7965,-107.6128 951.8642,-97.5053"/><polygon fill="#191970" stroke="#191970" points="943.789 -324.906 944.71 -335.461 950.572 -326.635 943.789 -324.906"/></g></g></svg>