<svg xmlns="http://www.w3.org/2000/svg" xmlns:xlink="http://www.w3.org/1999/xlink" width="1034pt" height="588" viewBox="0 0 1034 441"><g id="graph0" class="graph" transform="scale(1 1) rotate(0) translate(4 437)"><title>include/core/mir/geometry/rectangles.h</title><polygon fill="#fff" stroke="transparent" points="-4 4 -4 -437 1030 -437 1030 4 -4 4"/><g id="node1" class="node"><title>Node9</title><polygon fill="#bfbfbf" stroke="#000" points="486.5 -402.5 486.5 -432.5 632.5 -432.5 632.5 -402.5 486.5 -402.5"/><text x="494.5" y="-420.5" fill="#000" font-family="Arial" font-size="10" text-anchor="start">include/core/mir/geometry</text><text x="559.5" y="-409.5" fill="#000" font-family="Arial" font-size="10" text-anchor="middle">/rectangles.h</text></g><g id="node2" class="node"><title>Node10</title><g id="a_node2"><a target="_top" xlink:href="window__info_8h.html" xlink:title="include/miral/miral\l/window_info.h"><polygon fill="#fff" stroke="#000" points="417 -268.5 417 -298.5 526 -298.5 526 -268.5 417 -268.5"/><text x="425" y="-286.5" fill="#000" font-family="Arial" font-size="10" text-anchor="start">include/miral/miral</text><text x="471.5" y="-275.5" fill="#000" font-family="Arial" font-size="10" text-anchor="middle">/window_info.h</text></a></g></g><g id="edge1" class="edge"><title>Node9-&gt;Node10</title><path fill="none" stroke="#191970" d="M516.6963,-397.2521C504.0965,-389.2435 491.5462,-378.8385 483.5,-366 470.5871,-345.3963 469.4544,-316.3052 470.2015,-298.7397"/><polygon fill="#191970" stroke="#191970" points="514.989 -400.309 525.372 -402.414 518.568 -394.293 514.989 -400.309"/></g><g id="node16" class="node"><title>Node24</title><g id="a_node16"><a target="_top" xlink:href="window__management__policy_8h.html" xlink:title="include/miral/miral\l/window_management_policy.h"><polygon fill="#fff" stroke="#000" points="569.5 -201.5 569.5 -231.5 739.5 -231.5 739.5 -201.5 569.5 -201.5"/><text x="577.5" y="-219.5" fill="#000" font-family="Arial" font-size="10" text-anchor="start">include/miral/miral</text><text x="654.5" y="-208.5" fill="#000" font-family="Arial" font-size="10" text-anchor="middle">/window_management_policy.h</text></a></g></g><g id="edge23" class="edge"><title>Node9-&gt;Node24</title><path fill="none" stroke="#191970" d="M602.4414,-397.3375C615.0494,-389.3341 627.5698,-378.9105 635.5,-366 661.7922,-323.1959 659.3336,-260.5042 656.461,-231.8336"/><polygon fill="#191970" stroke="#191970" points="600.568 -394.379 593.754 -402.493 604.14 -400.399 600.568 -394.379"/></g><g id="node17" class="node"><title>Node25</title><g id="a_node17"><a target="_top" xlink:href="window__specification_8h.html" xlink:title="include/miral/miral\l/window_specification.h"><polygon fill="#fff" stroke="#000" points="493 -335.5 493 -365.5 626 -365.5 626 -335.5 493 -335.5"/><text x="501" y="-353.5" fill="#000" font-family="Arial" font-size="10" text-anchor="start">include/miral/miral</text><text x="559.5" y="-342.5" fill="#000" font-family="Arial" font-size="10" text-anchor="middle">/window_specification.h</text></a></g></g><g id="edge27" class="edge"><title>Node9-&gt;Node25</title><path fill="none" stroke="#191970" d="M559.5,-392.0249C559.5,-383.128 559.5,-373.4287 559.5,-365.6432"/><polygon fill="#191970" stroke="#191970" points="556 -392.297 559.5 -402.297 563 -392.297 556 -392.297"/></g><g id="node3" class="node"><title>Node11</title><g id="a_node3"><a target="_top" xlink:href="kiosk__window__manager_8cpp.html" xlink:title="examples/miral-kiosk\l/kiosk_window_manager.cpp"><polygon fill="#fff" stroke="#000" points="0 -.5 0 -30.5 157 -30.5 157 -.5 0 -.5"/><text x="8" y="-18.5" fill="#000" font-family="Arial" font-size="10" text-anchor="start">examples/miral-kiosk</text><text x="78.5" y="-7.5" fill="#000" font-family="Arial" font-size="10" text-anchor="middle">/kiosk_window_manager.cpp</text></a></g></g><g id="edge2" class="edge"><title>Node10-&gt;Node11</title><path fill="none" stroke="#191970" d="M406.4257,-274.9715C340.5694,-265.5803 243.8458,-249.4771 210.5,-232 141.2439,-195.7017 127.1744,-169.9239 96.5,-98 86.9533,-75.6154 82.219,-47.5719 80.0701,-30.6206"/><polygon fill="#191970" stroke="#191970" points="406.325 -278.492 416.716 -276.42 407.301 -271.56 406.325 -278.492"/></g><g id="node4" class="node"><title>Node12</title><g id="a_node4"><a target="_top" xlink:href="floating__window__manager_8cpp.html" xlink:title="examples/example-server\l-lib/floating_window_manager.cpp"><polygon fill="#fff" stroke="#000" points="319 -.5 319 -30.5 502 -30.5 502 -.5 319 -.5"/><text x="327" y="-18.5" fill="#000" font-family="Arial" font-size="10" text-anchor="start">examples/example-server</text><text x="410.5" y="-7.5" fill="#000" font-family="Arial" font-size="10" text-anchor="middle">-lib/floating_window_manager.cpp</text></a></g></g><g id="edge3" class="edge"><title>Node10-&gt;Node12</title><path fill="none" stroke="#191970" d="M406.9186,-277.7199C337.4332,-267.6622 230.1064,-240.152 179.5,-165 171.8044,-153.5718 171.4286,-145.166 179.5,-134 209.3879,-92.653 242.7126,-120.5028 288.5,-98 327.5103,-78.8279 368.5095,-48.738 391.6533,-30.685"/><polygon fill="#191970" stroke="#191970" points="406.503 -281.196 416.885 -279.081 407.45 -274.26 406.503 -281.196"/></g><g id="node5" class="node"><title>Node13</title><g id="a_node5"><a target="_top" xlink:href="tiling__window__manager_8cpp.html" xlink:title="examples/example-server\l-lib/tiling_window_manager.cpp"><polygon fill="#fff" stroke="#000" points="855 -67.5 855 -97.5 1026 -97.5 1026 -67.5 855 -67.5"/><text x="863" y="-85.5" fill="#000" font-family="Arial" font-size="10" text-anchor="start">examples/example-server</text><text x="940.5" y="-74.5" fill="#000" font-family="Arial" font-size="10" text-anchor="middle">-lib/tiling_window_manager.cpp</text></a></g></g><g id="edge4" class="edge"><title>Node10-&gt;Node13</title><path fill="none" stroke="#191970" d="M536.139,-277.392C654.062,-264.7166 896.3418,-231.0672 943.5,-165 957.5721,-145.2854 951.7572,-115.6462 946.1797,-97.7777"/><polygon fill="#191970" stroke="#191970" points="535.73 -273.916 526.153 -278.447 536.465 -280.877 535.73 -273.916"/></g><g id="node6" class="node"><title>Node14</title><g id="a_node6"><a target="_top" xlink:href="window__manager__tools_8h.html" xlink:title="include/miral/miral\l/window_manager_tools.h"><polygon fill="#fff" stroke="#000" points="403.5 -201.5 403.5 -231.5 547.5 -231.5 547.5 -201.5 403.5 -201.5"/><text x="411.5" y="-219.5" fill="#000" font-family="Arial" font-size="10" text-anchor="start">include/miral/miral</text><text x="475.5" y="-208.5" fill="#000" font-family="Arial" font-size="10" text-anchor="middle">/window_manager_tools.h</text></a></g></g><g id="edge5" class="edge"><title>Node10-&gt;Node14</title><path fill="none" stroke="#191970" d="M473.0209,-258.0249C473.5521,-249.128 474.1311,-239.4287 474.5959,-231.6432"/><polygon fill="#191970" stroke="#191970" points="469.51 -258.106 472.408 -268.297 476.498 -258.523 469.51 -258.106"/></g><g id="edge6" class="edge"><title>Node14-&gt;Node11</title><path fill="none" stroke="#191970" d="M392.9639,-208.6217C318.3339,-200.3418 214.898,-185.6383 179.5,-165 126.1927,-133.9199 95.1187,-62.1434 83.6269,-30.7097"/><polygon fill="#191970" stroke="#191970" points="392.973 -212.143 403.293 -209.747 393.731 -205.185 392.973 -212.143"/></g><g id="edge10" class="edge"><title>Node14-&gt;Node12</title><path fill="none" stroke="#191970" d="M431.7207,-196.0259C419.734,-188.1243 408.2066,-177.8382 401.5,-165 378.3845,-120.7503 395.0047,-58.7814 404.7596,-30.5626"/><polygon fill="#191970" stroke="#191970" points="430.108 -199.142 440.468 -201.36 433.752 -193.165 430.108 -199.142"/></g><g id="edge14" class="edge"><title>Node14-&gt;Node13</title><path fill="none" stroke="#191970" d="M557.756,-201.3923C558.6753,-201.2589 559.5902,-201.1281 560.5,-201 640.3327,-189.7594 860.9914,-218.2758 921.5,-165 940.5842,-148.197 942.5518,-116.4282 941.8216,-97.5944"/><polygon fill="#191970" stroke="#191970" points="557.135 -197.946 547.775 -202.909 558.187 -204.867 557.135 -197.946"/></g><g id="node7" class="node"><title>Node15</title><g id="a_node7"><a target="_top" xlink:href="decoration__provider_8h.html" xlink:title="examples/example-server\l-lib/decoration_provider.h"><polygon fill="#fff" stroke="#000" points="411 -134.5 411 -164.5 556 -164.5 556 -134.5 411 -134.5"/><text x="419" y="-152.5" fill="#000" font-family="Arial" font-size="10" text-anchor="start">examples/example-server</text><text x="483.5" y="-141.5" fill="#000" font-family="Arial" font-size="10" text-anchor="middle">-lib/decoration_provider.h</text></a></g></g><g id="edge7" class="edge"><title>Node14-&gt;Node15</title><path fill="none" stroke="#191970" d="M478.5068,-191.3179C479.5786,-182.3414 480.752,-172.5143 481.6919,-164.6432"/><polygon fill="#191970" stroke="#191970" points="475.026 -190.952 477.315 -201.297 481.976 -191.782 475.026 -190.952"/></g><g id="node9" class="node"><title>Node17</title><g id="a_node9"><a target="_top" xlink:href="tiling__window__manager_8h.html" xlink:title="examples/example-server\l-lib/tiling_window_manager.h"><polygon fill="#fff" stroke="#000" points="752.5 -134.5 752.5 -164.5 912.5 -164.5 912.5 -134.5 752.5 -134.5"/><text x="760.5" y="-152.5" fill="#000" font-family="Arial" font-size="10" text-anchor="start">examples/example-server</text><text x="832.5" y="-141.5" fill="#000" font-family="Arial" font-size="10" text-anchor="middle">-lib/tiling_window_manager.h</text></a></g></g><g id="edge11" class="edge"><title>Node14-&gt;Node17</title><path fill="none" stroke="#191970" d="M557.6843,-201.076C616.1405,-190.1053 694.2688,-175.4426 752.278,-164.5557"/><polygon fill="#191970" stroke="#191970" points="556.927 -197.657 547.744 -202.942 558.218 -204.537 556.927 -197.657"/></g><g id="node11" class="node"><title>Node19</title><g id="a_node11"><a target="_top" xlink:href="canonical__window__manager_8h.html" xlink:title="include/miral/miral\l/canonical_window_manager.h"><polygon fill="#fff" stroke="#000" points="188.5 -134.5 188.5 -164.5 354.5 -164.5 354.5 -134.5 188.5 -134.5"/><text x="196.5" y="-152.5" fill="#000" font-family="Arial" font-size="10" text-anchor="start">include/miral/miral</text><text x="271.5" y="-141.5" fill="#000" font-family="Arial" font-size="10" text-anchor="middle">/canonical_window_manager.h</text></a></g></g><g id="edge15" class="edge"><title>Node14-&gt;Node19</title><path fill="none" stroke="#191970" d="M420.0117,-198.2759C387.8608,-187.7165 347.8645,-174.5805 317.4813,-164.6017"/><polygon fill="#191970" stroke="#191970" points="419.126 -201.669 429.718 -201.464 421.31 -195.018 419.126 -201.669"/></g><g id="node14" class="node"><title>Node22</title><g id="a_node14"><a target="_top" xlink:href="minimal__window__manager_8h.html" xlink:title="include/miral/miral\l/minimal_window_manager.h"><polygon fill="#fff" stroke="#000" points="574.5 -134.5 574.5 -164.5 734.5 -164.5 734.5 -134.5 574.5 -134.5"/><text x="582.5" y="-152.5" fill="#000" font-family="Arial" font-size="10" text-anchor="start">include/miral/miral</text><text x="654.5" y="-141.5" fill="#000" font-family="Arial" font-size="10" text-anchor="middle">/minimal_window_manager.h</text></a></g></g><g id="edge19" class="edge"><title>Node14-&gt;Node22</title><path fill="none" stroke="#191970" d="M525.286,-197.865C553.3054,-187.3773 587.8387,-174.4515 614.1537,-164.6017"/><polygon fill="#191970" stroke="#191970" points="523.81 -194.68 515.671 -201.464 526.264 -201.236 523.81 -194.68"/></g><g id="edge9" class="edge"><title>Node15-&gt;Node12</title><path fill="none" stroke="#191970" d="M461.1756,-127.0588C453.5369,-118.4924 445.4313,-108.2989 439.5,-98 426.8466,-76.0292 418.3609,-47.6153 413.9901,-30.5143"/><polygon fill="#191970" stroke="#191970" points="458.626 -129.457 467.984 -134.425 463.766 -124.705 458.626 -129.457"/></g><g id="node8" class="node"><title>Node16</title><g id="a_node8"><a target="_top" xlink:href="decoration__provider_8cpp.html" xlink:title="examples/example-server\l-lib/decoration_provider.cpp"><polygon fill="#fff" stroke="#000" points="448.5 -67.5 448.5 -97.5 600.5 -97.5 600.5 -67.5 448.5 -67.5"/><text x="456.5" y="-85.5" fill="#000" font-family="Arial" font-size="10" text-anchor="start">examples/example-server</text><text x="524.5" y="-74.5" fill="#000" font-family="Arial" font-size="10" text-anchor="middle">-lib/decoration_provider.cpp</text></a></g></g><g id="edge8" class="edge"><title>Node15-&gt;Node16</title><path fill="none" stroke="#191970" d="M498.1965,-125.4837C503.8778,-116.1996 510.2072,-105.8565 515.2333,-97.6432"/><polygon fill="#191970" stroke="#191970" points="495.038 -123.94 492.803 -134.297 501.009 -127.594 495.038 -123.94"/></g><g id="edge13" class="edge"><title>Node17-&gt;Node13</title><path fill="none" stroke="#191970" d="M865.4221,-129.0761C881.7005,-118.9774 901.0101,-106.9983 915.9699,-97.7177"/><polygon fill="#191970" stroke="#191970" points="863.39 -126.218 856.737 -134.464 867.08 -132.166 863.39 -126.218"/></g><g id="node10" class="node"><title>Node18</title><g id="a_node10"><a target="_top" xlink:href="shell__main_8cpp.html" xlink:title="examples/miral-shell\l/shell_main.cpp"><polygon fill="#fff" stroke="#000" points="703.5 -.5 703.5 -30.5 823.5 -30.5 823.5 -.5 703.5 -.5"/><text x="711.5" y="-18.5" fill="#000" font-family="Arial" font-size="10" text-anchor="start">examples/miral-shell</text><text x="763.5" y="-7.5" fill="#000" font-family="Arial" font-size="10" text-anchor="middle">/shell_main.cpp</text></a></g></g><g id="edge12" class="edge"><title>Node17-&gt;Node18</title><path fill="none" stroke="#191970" d="M824.3098,-124.8185C818.3492,-108.067 809.5791,-85.6579 799.5,-67 792.5523,-54.1387 783.0145,-40.6313 775.5016,-30.6779"/><polygon fill="#191970" stroke="#191970" points="821.061 -126.132 827.645 -134.434 827.674 -123.839 821.061 -126.132"/></g><g id="node12" class="node"><title>Node20</title><g id="a_node12"><a target="_top" xlink:href="kiosk__window__manager_8h.html" xlink:title="examples/miral-kiosk\l/kiosk_window_manager.h"><polygon fill="#fff" stroke="#000" points="133.5 -67.5 133.5 -97.5 279.5 -97.5 279.5 -67.5 133.5 -67.5"/><text x="141.5" y="-85.5" fill="#000" font-family="Arial" font-size="10" text-anchor="start">examples/miral-kiosk</text><text x="206.5" y="-74.5" fill="#000" font-family="Arial" font-size="10" text-anchor="middle">/kiosk_window_manager.h</text></a></g></g><g id="edge16" class="edge"><title>Node19-&gt;Node20</title><path fill="none" stroke="#191970" d="M249.5992,-126.9253C240.2445,-117.2828 229.5743,-106.2843 221.1911,-97.6432"/><polygon fill="#191970" stroke="#191970" points="247.275 -129.556 256.75 -134.297 252.299 -124.682 247.275 -129.556"/></g><g id="edge18" class="edge"><title>Node20-&gt;Node11</title><path fill="none" stroke="#191970" d="M168.8151,-62.7743C149.2505,-52.5335 125.7132,-40.2132 107.5727,-30.7177"/><polygon fill="#191970" stroke="#191970" points="167.292 -65.927 177.774 -67.464 170.538 -59.725 167.292 -65.927"/></g><g id="node13" class="node"><title>Node21</title><g id="a_node13"><a target="_top" xlink:href="kiosk__main_8cpp.html" xlink:title="examples/miral-kiosk\l/kiosk_main.cpp"><polygon fill="#fff" stroke="#000" points="175 -.5 175 -30.5 298 -30.5 298 -.5 175 -.5"/><text x="183" y="-18.5" fill="#000" font-family="Arial" font-size="10" text-anchor="start">examples/miral-kiosk</text><text x="236.5" y="-7.5" fill="#000" font-family="Arial" font-size="10" text-anchor="middle">/kiosk_main.cpp</text></a></g></g><g id="edge17" class="edge"><title>Node20-&gt;Node21</title><path fill="none" stroke="#191970" d="M217.514,-57.9021C221.6032,-48.7696 226.1185,-38.6854 229.7195,-30.6432"/><polygon fill="#191970" stroke="#191970" points="214.2 -56.739 213.308 -67.297 220.589 -59.6 214.2 -56.739"/></g><g id="node15" class="node"><title>Node23</title><g id="a_node15"><a target="_top" xlink:href="floating__window__manager_8h.html" xlink:title="examples/example-server\l-lib/floating_window_manager.h"><polygon fill="#fff" stroke="#000" points="618.5 -67.5 618.5 -97.5 790.5 -97.5 790.5 -67.5 618.5 -67.5"/><text x="626.5" y="-85.5" fill="#000" font-family="Arial" font-size="10" text-anchor="start">examples/example-server</text><text x="704.5" y="-74.5" fill="#000" font-family="Arial" font-size="10" text-anchor="middle">-lib/floating_window_manager.h</text></a></g></g><g id="edge20" class="edge"><title>Node22-&gt;Node23</title><path fill="none" stroke="#191970" d="M671.9906,-126.0626C679.0287,-116.6315 686.9421,-106.0276 693.1991,-97.6432"/><polygon fill="#191970" stroke="#191970" points="669.022 -124.189 665.846 -134.297 674.632 -128.376 669.022 -124.189"/></g><g id="edge22" class="edge"><title>Node23-&gt;Node12</title><path fill="none" stroke="#191970" d="M628.6766,-65.2205C581.5841,-54.4886 521.6454,-40.8291 476.513,-30.5438"/><polygon fill="#191970" stroke="#191970" points="627.993 -68.654 638.521 -67.464 629.548 -61.829 627.993 -68.654"/></g><g id="edge21" class="edge"><title>Node23-&gt;Node18</title><path fill="none" stroke="#191970" d="M724.6318,-59.6385C733.0619,-50.0653 742.631,-39.1987 750.165,-30.6432"/><polygon fill="#191970" stroke="#191970" points="721.87 -57.479 717.888 -67.297 727.124 -62.105 721.87 -57.479"/></g><g id="edge24" class="edge"><title>Node24-&gt;Node17</title><path fill="none" stroke="#191970" d="M704.0079,-197.865C731.8707,-187.3773 766.2111,-174.4515 792.3791,-164.6017"/><polygon fill="#191970" stroke="#191970" points="702.573 -194.665 694.447 -201.464 705.039 -201.217 702.573 -194.665"/></g><g id="edge25" class="edge"><title>Node24-&gt;Node19</title><path fill="none" stroke="#191970" d="M559.5728,-199.8939C496.6736,-188.8907 414.9464,-174.5938 354.6164,-164.0399"/><polygon fill="#191970" stroke="#191970" points="559.046 -203.355 569.5 -201.631 560.253 -196.46 559.046 -203.355"/></g><g id="edge26" class="edge"><title>Node24-&gt;Node22</title><path fill="none" stroke="#191970" d="M654.5,-191.0249C654.5,-182.128 654.5,-172.4287 654.5,-164.6432"/><polygon fill="#191970" stroke="#191970" points="651 -191.297 654.5 -201.297 658 -191.297 651 -191.297"/></g><g id="edge28" class="edge"><title>Node25-&gt;Node10</title><path fill="none" stroke="#191970" d="M531.3457,-329.0643C518.334,-319.1577 503.1886,-307.6265 491.3895,-298.6432"/><polygon fill="#191970" stroke="#191970" points="529.455 -332.024 539.531 -335.297 533.695 -326.454 529.455 -332.024"/></g></g></svg>