<svg xmlns="http://www.w3.org/2000/svg" xmlns:xlink="http://www.w3.org/1999/xlink" width="1292" height="575pt" viewBox="0 0 969 575"><g id="graph0" class="graph" transform="scale(1 1) rotate(0) translate(4 571)"><title>include/core/mir/geometry/size.h</title><polygon fill="#fff" stroke="transparent" points="-4 4 -4 -571 965 -571 965 4 -4 4"/><g id="node1" class="node"><title>Node4</title><polygon fill="#bfbfbf" stroke="#000" points="250.5 -536.5 250.5 -566.5 396.5 -566.5 396.5 -536.5 250.5 -536.5"/><text x="258.5" y="-554.5" fill="#000" font-family="Arial" font-size="10" text-anchor="start">include/core/mir/geometry</text><text x="323.5" y="-543.5" fill="#000" font-family="Arial" font-size="10" text-anchor="middle">/size.h</text></g><g id="node2" class="node"><title>Node5</title><g id="a_node2"><a target="_top" xlink:href="rectangle_8h.html" xlink:title="include/core/mir/geometry\l/rectangle.h"><polygon fill="#fff" stroke="#000" points="250.5 -469.5 250.5 -499.5 396.5 -499.5 396.5 -469.5 250.5 -469.5"/><text x="258.5" y="-487.5" fill="#000" font-family="Arial" font-size="10" text-anchor="start">include/core/mir/geometry</text><text x="323.5" y="-476.5" fill="#000" font-family="Arial" font-size="10" text-anchor="middle">/rectangle.h</text></a></g></g><g id="edge1" class="edge"><title>Node4-&gt;Node5</title><path fill="none" stroke="#191970" d="M323.5,-526.0249C323.5,-517.128 323.5,-507.4287 323.5,-499.6432"/><polygon fill="#191970" stroke="#191970" points="320 -526.297 323.5 -536.297 327 -526.297 320 -526.297"/></g><g id="node20" class="node"><title>Node23</title><g id="a_node20"><a target="_top" xlink:href="event__builders_8h.html" xlink:title="include/client/mir\l/events/event_builders.h"><polygon fill="#fff" stroke="#000" points="154 -402.5 154 -432.5 291 -432.5 291 -402.5 154 -402.5"/><text x="162" y="-420.5" fill="#000" font-family="Arial" font-size="10" text-anchor="start">include/client/mir</text><text x="222.5" y="-409.5" fill="#000" font-family="Arial" font-size="10" text-anchor="middle">/events/event_builders.h</text></a></g></g><g id="edge34" class="edge"><title>Node4-&gt;Node23</title><path fill="none" stroke="#191970" d="M278.0452,-531.495C264.4792,-523.4966 250.7709,-513.0362 241.5,-500 227.1042,-479.7576 223.4351,-450.2875 222.6038,-432.5949"/><polygon fill="#191970" stroke="#191970" points="276.448 -534.611 286.891 -536.398 279.842 -528.489 276.448 -534.611"/></g><g id="node22" class="node"><title>Node25</title><g id="a_node22"><a target="_top" xlink:href="miral_2miral_2window_8h.html" xlink:title="include/miral/miral\l/window.h"><polygon fill="#fff" stroke="#000" points="485 -469.5 485 -499.5 594 -499.5 594 -469.5 485 -469.5"/><text x="493" y="-487.5" fill="#000" font-family="Arial" font-size="10" text-anchor="start">include/miral/miral</text><text x="539.5" y="-476.5" fill="#000" font-family="Arial" font-size="10" text-anchor="middle">/window.h</text></a></g></g><g id="edge35" class="edge"><title>Node4-&gt;Node25</title><path fill="none" stroke="#191970" d="M381.8126,-533.4123C415.9292,-522.8298 458.5048,-509.6235 490.814,-499.6017"/><polygon fill="#191970" stroke="#191970" points="380.489 -530.158 371.975 -536.464 382.563 -536.844 380.489 -530.158"/></g><g id="node3" class="node"><title>Node6</title><g id="a_node3"><a target="_top" xlink:href="rectangles_8h.html" xlink:title="include/core/mir/geometry\l/rectangles.h"><polygon fill="#fff" stroke="#000" points="347.5 -402.5 347.5 -432.5 493.5 -432.5 493.5 -402.5 347.5 -402.5"/><text x="355.5" y="-420.5" fill="#000" font-family="Arial" font-size="10" text-anchor="start">include/core/mir/geometry</text><text x="420.5" y="-409.5" fill="#000" font-family="Arial" font-size="10" text-anchor="middle">/rectangles.h</text></a></g></g><g id="edge2" class="edge"><title>Node5-&gt;Node6</title><path fill="none" stroke="#191970" d="M354.1246,-463.3469C368.5578,-453.3776 385.4467,-441.7121 398.5763,-432.6432"/><polygon fill="#191970" stroke="#191970" points="351.75 -460.733 345.511 -469.297 355.728 -466.493 351.75 -460.733"/></g><g id="edge31" class="edge"><title>Node5-&gt;Node23</title><path fill="none" stroke="#191970" d="M292.2881,-463.7951C277.1543,-453.7558 259.3008,-441.9124 245.4402,-432.7177"/><polygon fill="#191970" stroke="#191970" points="290.566 -466.853 300.834 -469.464 294.435 -461.019 290.566 -466.853"/></g><g id="node21" class="node"><title>Node24</title><g id="a_node21"><a target="_top" xlink:href="output_8h.html" xlink:title="include/miral/miral\l/output.h"><polygon fill="#fff" stroke="#000" points="106 -335.5 106 -365.5 215 -365.5 215 -335.5 106 -335.5"/><text x="114" y="-353.5" fill="#000" font-family="Arial" font-size="10" text-anchor="start">include/miral/miral</text><text x="160.5" y="-342.5" fill="#000" font-family="Arial" font-size="10" text-anchor="middle">/output.h</text></a></g></g><g id="edge32" class="edge"><title>Node5-&gt;Node24</title><path fill="none" stroke="#191970" d="M322.0596,-459.3203C319.7596,-441.2853 313.9592,-417.5354 299.5,-402 277.5835,-378.4523 243.9296,-365.6218 215.226,-358.6567"/><polygon fill="#191970" stroke="#191970" points="318.592 -459.826 323.067 -469.43 325.558 -459.132 318.592 -459.826"/></g><g id="node4" class="node"><title>Node7</title><g id="a_node4"><a target="_top" xlink:href="window__info_8h.html" xlink:title="include/miral/miral\l/window_info.h"><polygon fill="#fff" stroke="#000" points="509 -268.5 509 -298.5 618 -298.5 618 -268.5 509 -268.5"/><text x="517" y="-286.5" fill="#000" font-family="Arial" font-size="10" text-anchor="start">include/miral/miral</text><text x="563.5" y="-275.5" fill="#000" font-family="Arial" font-size="10" text-anchor="middle">/window_info.h</text></a></g></g><g id="edge3" class="edge"><title>Node6-&gt;Node7</title><path fill="none" stroke="#191970" d="M420.4466,-392.2631C421.6887,-374.3949 426.0792,-350.8771 439.5,-335 457.0314,-314.26 484.2864,-301.7312 508.7843,-294.2353"/><polygon fill="#191970" stroke="#191970" points="416.949 -392.148 420.031 -402.285 423.942 -392.438 416.949 -392.148"/></g><g id="node18" class="node"><title>Node21</title><g id="a_node18"><a target="_top" xlink:href="window__management__policy_8h.html" xlink:title="include/miral/miral\l/window_management_policy.h"><polygon fill="#fff" stroke="#000" points="297.5 -201.5 297.5 -231.5 467.5 -231.5 467.5 -201.5 297.5 -201.5"/><text x="305.5" y="-219.5" fill="#000" font-family="Arial" font-size="10" text-anchor="start">include/miral/miral</text><text x="382.5" y="-208.5" fill="#000" font-family="Arial" font-size="10" text-anchor="middle">/window_management_policy.h</text></a></g></g><g id="edge25" class="edge"><title>Node6-&gt;Node21</title><path fill="none" stroke="#191970" d="M415.7449,-392.348C407.74,-350.0061 391.8135,-265.7637 385.3375,-231.5088"/><polygon fill="#191970" stroke="#191970" points="412.347 -393.217 417.644 -402.392 419.225 -391.916 412.347 -393.217"/></g><g id="node19" class="node"><title>Node22</title><g id="a_node19"><a target="_top" xlink:href="window__specification_8h.html" xlink:title="include/miral/miral\l/window_specification.h"><polygon fill="#fff" stroke="#000" points="449 -335.5 449 -365.5 582 -365.5 582 -335.5 449 -335.5"/><text x="457" y="-353.5" fill="#000" font-family="Arial" font-size="10" text-anchor="start">include/miral/miral</text><text x="515.5" y="-342.5" fill="#000" font-family="Arial" font-size="10" text-anchor="middle">/window_specification.h</text></a></g></g><g id="edge29" class="edge"><title>Node6-&gt;Node22</title><path fill="none" stroke="#191970" d="M450.4932,-396.3469C464.6288,-386.3776 481.1695,-374.7121 494.0283,-365.6432"/><polygon fill="#191970" stroke="#191970" points="448.212 -393.673 442.057 -402.297 452.246 -399.393 448.212 -393.673"/></g><g id="node5" class="node"><title>Node8</title><g id="a_node5"><a target="_top" xlink:href="kiosk__window__manager_8cpp.html" xlink:title="examples/miral-kiosk\l/kiosk_window_manager.cpp"><polygon fill="#fff" stroke="#000" points="804 -.5 804 -30.5 961 -30.5 961 -.5 804 -.5"/><text x="812" y="-18.5" fill="#000" font-family="Arial" font-size="10" text-anchor="start">examples/miral-kiosk</text><text x="882.5" y="-7.5" fill="#000" font-family="Arial" font-size="10" text-anchor="middle">/kiosk_window_manager.cpp</text></a></g></g><g id="edge4" class="edge"><title>Node7-&gt;Node8</title><path fill="none" stroke="#191970" d="M628.1413,-274.1618C687.9612,-264.6828 771.8333,-249.0136 800.5,-232 834.3695,-211.8986 841.8544,-200.695 858.5,-165 879.7198,-119.496 882.6354,-58.6724 882.748,-30.7191"/><polygon fill="#191970" stroke="#191970" points="627.356 -270.742 618.016 -275.744 628.437 -277.658 627.356 -270.742"/></g><g id="node6" class="node"><title>Node9</title><g id="a_node6"><a target="_top" xlink:href="floating__window__manager_8cpp.html" xlink:title="examples/example-server\l-lib/floating_window_manager.cpp"><polygon fill="#fff" stroke="#000" points="603 -.5 603 -30.5 786 -30.5 786 -.5 603 -.5"/><text x="611" y="-18.5" fill="#000" font-family="Arial" font-size="10" text-anchor="start">examples/example-server</text><text x="694.5" y="-7.5" fill="#000" font-family="Arial" font-size="10" text-anchor="middle">-lib/floating_window_manager.cpp</text></a></g></g><g id="edge5" class="edge"><title>Node7-&gt;Node9</title><path fill="none" stroke="#191970" d="M628.089,-276.2207C694.3861,-264.9246 794.3163,-236.4039 841.5,-165 849.9022,-152.2848 857.1227,-90.1221 840.5,-67 830.3805,-52.9237 793.387,-39.9568 759.173,-30.5554"/><polygon fill="#191970" stroke="#191970" points="627.469 -272.775 618.157 -277.828 628.587 -279.685 627.469 -272.775"/></g><g id="node7" class="node"><title>Node10</title><g id="a_node7"><a target="_top" xlink:href="tiling__window__manager_8cpp.html" xlink:title="examples/example-server\l-lib/tiling_window_manager.cpp"><polygon fill="#fff" stroke="#000" points="0 -67.5 0 -97.5 171 -97.5 171 -67.5 0 -67.5"/><text x="8" y="-85.5" fill="#000" font-family="Arial" font-size="10" text-anchor="start">examples/example-server</text><text x="85.5" y="-74.5" fill="#000" font-family="Arial" font-size="10" text-anchor="middle">-lib/tiling_window_manager.cpp</text></a></g></g><g id="edge6" class="edge"><title>Node7-&gt;Node10</title><path fill="none" stroke="#191970" d="M498.5224,-276.9595C381.0762,-263.6456 141.0126,-229.0891 91.5,-165 76.5746,-145.6806 78.8261,-115.639 82.0233,-97.6351"/><polygon fill="#191970" stroke="#191970" points="498.486 -280.477 508.813 -278.107 499.262 -273.52 498.486 -280.477"/></g><g id="node8" class="node"><title>Node11</title><g id="a_node8"><a target="_top" xlink:href="window__manager__tools_8h.html" xlink:title="include/miral/miral\l/window_manager_tools.h"><polygon fill="#fff" stroke="#000" points="491.5 -201.5 491.5 -231.5 635.5 -231.5 635.5 -201.5 491.5 -201.5"/><text x="499.5" y="-219.5" fill="#000" font-family="Arial" font-size="10" text-anchor="start">include/miral/miral</text><text x="563.5" y="-208.5" fill="#000" font-family="Arial" font-size="10" text-anchor="middle">/window_manager_tools.h</text></a></g></g><g id="edge7" class="edge"><title>Node7-&gt;Node11</title><path fill="none" stroke="#191970" d="M563.5,-258.0249C563.5,-249.128 563.5,-239.4287 563.5,-231.6432"/><polygon fill="#191970" stroke="#191970" points="560 -258.297 563.5 -268.297 567 -258.297 560 -258.297"/></g><g id="edge8" class="edge"><title>Node11-&gt;Node8</title><path fill="none" stroke="#191970" d="M645.9244,-210.8113C717.3348,-204.2102 813.4671,-190.7591 841.5,-165 880.1437,-129.4908 883.705,-61.3355 883.208,-30.8713"/><polygon fill="#191970" stroke="#191970" points="645.227 -207.359 635.579 -211.736 645.851 -214.332 645.227 -207.359"/></g><g id="edge12" class="edge"><title>Node11-&gt;Node9</title><path fill="none" stroke="#191970" d="M645.804,-211.0403C712.1095,-204.7237 797.7468,-191.5652 819.5,-165 847.0948,-131.3011 843.7324,-103.1922 819.5,-67 807.9434,-49.7397 789.4383,-38.2585 770.17,-30.6235"/><polygon fill="#191970" stroke="#191970" points="645.396 -207.563 635.757 -211.96 646.034 -214.534 645.396 -207.563"/></g><g id="edge16" class="edge"><title>Node11-&gt;Node10</title><path fill="none" stroke="#191970" d="M481.0976,-201.6531C479.5533,-201.4288 478.0196,-201.2108 476.5,-201 396.6447,-189.9215 179.1542,-214.4748 115.5,-165 94.6825,-148.8197 88.3007,-116.832 86.3509,-97.7908"/><polygon fill="#191970" stroke="#191970" points="480.996 -205.178 491.408 -203.216 482.045 -198.257 480.996 -205.178"/></g><g id="node9" class="node"><title>Node12</title><g id="a_node9"><a target="_top" xlink:href="decoration__provider_8h.html" xlink:title="examples/example-server\l-lib/decoration_provider.h"><polygon fill="#fff" stroke="#000" points="665 -134.5 665 -164.5 810 -164.5 810 -134.5 665 -134.5"/><text x="673" y="-152.5" fill="#000" font-family="Arial" font-size="10" text-anchor="start">examples/example-server</text><text x="737.5" y="-141.5" fill="#000" font-family="Arial" font-size="10" text-anchor="middle">-lib/decoration_provider.h</text></a></g></g><g id="edge9" class="edge"><title>Node11-&gt;Node12</title><path fill="none" stroke="#191970" d="M611.8954,-197.865C639.132,-187.3773 672.7007,-174.4515 698.2807,-164.6017"/><polygon fill="#191970" stroke="#191970" points="610.623 -194.604 602.549 -201.464 613.139 -201.137 610.623 -194.604"/></g><g id="node11" class="node"><title>Node14</title><g id="a_node11"><a target="_top" xlink:href="tiling__window__manager_8h.html" xlink:title="examples/example-server\l-lib/tiling_window_manager.h"><polygon fill="#fff" stroke="#000" points="124.5 -134.5 124.5 -164.5 284.5 -164.5 284.5 -134.5 124.5 -134.5"/><text x="132.5" y="-152.5" fill="#000" font-family="Arial" font-size="10" text-anchor="start">examples/example-server</text><text x="204.5" y="-141.5" fill="#000" font-family="Arial" font-size="10" text-anchor="middle">-lib/tiling_window_manager.h</text></a></g></g><g id="edge13" class="edge"><title>Node11-&gt;Node14</title><path fill="none" stroke="#191970" d="M481.2567,-201.151C422.2808,-190.1443 343.2396,-175.3929 284.7279,-164.4729"/><polygon fill="#191970" stroke="#191970" points="480.81 -204.628 491.283 -203.022 482.095 -197.747 480.81 -204.628"/></g><g id="node13" class="node"><title>Node16</title><g id="a_node13"><a target="_top" xlink:href="canonical__window__manager_8h.html" xlink:title="include/miral/miral\l/canonical_window_manager.h"><polygon fill="#fff" stroke="#000" points="480.5 -134.5 480.5 -164.5 646.5 -164.5 646.5 -134.5 480.5 -134.5"/><text x="488.5" y="-152.5" fill="#000" font-family="Arial" font-size="10" text-anchor="start">include/miral/miral</text><text x="563.5" y="-141.5" fill="#000" font-family="Arial" font-size="10" text-anchor="middle">/canonical_window_manager.h</text></a></g></g><g id="edge17" class="edge"><title>Node11-&gt;Node16</title><path fill="none" stroke="#191970" d="M563.5,-191.0249C563.5,-182.128 563.5,-172.4287 563.5,-164.6432"/><polygon fill="#191970" stroke="#191970" points="560 -191.297 563.5 -201.297 567 -191.297 560 -191.297"/></g><g id="node16" class="node"><title>Node19</title><g id="a_node16"><a target="_top" xlink:href="minimal__window__manager_8h.html" xlink:title="include/miral/miral\l/minimal_window_manager.h"><polygon fill="#fff" stroke="#000" points="302.5 -134.5 302.5 -164.5 462.5 -164.5 462.5 -134.5 302.5 -134.5"/><text x="310.5" y="-152.5" fill="#000" font-family="Arial" font-size="10" text-anchor="start">include/miral/miral</text><text x="382.5" y="-141.5" fill="#000" font-family="Arial" font-size="10" text-anchor="middle">/minimal_window_manager.h</text></a></g></g><g id="edge21" class="edge"><title>Node11-&gt;Node19</title><path fill="none" stroke="#191970" d="M513.1577,-197.865C484.8253,-187.3773 449.9062,-174.4515 423.2971,-164.6017"/><polygon fill="#191970" stroke="#191970" points="512.287 -201.275 522.88 -201.464 514.717 -194.71 512.287 -201.275"/></g><g id="edge11" class="edge"><title>Node12-&gt;Node9</title><path fill="none" stroke="#191970" d="M683.8312,-129.6875C670.2423,-121.9608 657.3013,-111.6046 649.5,-98 636.1088,-74.6472 658.6736,-47.1254 676.4079,-30.51"/><polygon fill="#191970" stroke="#191970" points="682.325 -132.85 692.807 -134.393 685.576 -126.65 682.325 -132.85"/></g><g id="node10" class="node"><title>Node13</title><g id="a_node10"><a target="_top" xlink:href="decoration__provider_8cpp.html" xlink:title="examples/example-server\l-lib/decoration_provider.cpp"><polygon fill="#fff" stroke="#000" points="658.5 -67.5 658.5 -97.5 810.5 -97.5 810.5 -67.5 658.5 -67.5"/><text x="666.5" y="-85.5" fill="#000" font-family="Arial" font-size="10" text-anchor="start">examples/example-server</text><text x="734.5" y="-74.5" fill="#000" font-family="Arial" font-size="10" text-anchor="middle">-lib/decoration_provider.cpp</text></a></g></g><g id="edge10" class="edge"><title>Node12-&gt;Node13</title><path fill="none" stroke="#191970" d="M736.3593,-124.0249C735.961,-115.128 735.5267,-105.4287 735.1781,-97.6432"/><polygon fill="#191970" stroke="#191970" points="732.875 -124.463 736.819 -134.297 739.868 -124.15 732.875 -124.463"/></g><g id="edge15" class="edge"><title>Node14-&gt;Node10</title><path fill="none" stroke="#191970" d="M168.722,-129.3561C150.6827,-119.1995 129.1646,-107.0843 112.5285,-97.7177"/><polygon fill="#191970" stroke="#191970" points="167.363 -132.608 177.794 -134.464 170.797 -126.508 167.363 -132.608"/></g><g id="node12" class="node"><title>Node15</title><g id="a_node12"><a target="_top" xlink:href="shell__main_8cpp.html" xlink:title="examples/miral-shell\l/shell_main.cpp"><polygon fill="#fff" stroke="#000" points="218.5 -.5 218.5 -30.5 338.5 -30.5 338.5 -.5 218.5 -.5"/><text x="226.5" y="-18.5" fill="#000" font-family="Arial" font-size="10" text-anchor="start">examples/miral-shell</text><text x="278.5" y="-7.5" fill="#000" font-family="Arial" font-size="10" text-anchor="middle">/shell_main.cpp</text></a></g></g><g id="edge14" class="edge"><title>Node14-&gt;Node15</title><path fill="none" stroke="#191970" d="M217.7927,-125.4294C232.9598,-97.9647 257.3083,-53.8742 270.0721,-30.7614"/><polygon fill="#191970" stroke="#191970" points="214.615 -123.943 212.845 -134.389 220.743 -127.327 214.615 -123.943"/></g><g id="node14" class="node"><title>Node17</title><g id="a_node14"><a target="_top" xlink:href="kiosk__window__manager_8h.html" xlink:title="examples/miral-kiosk\l/kiosk_window_manager.h"><polygon fill="#fff" stroke="#000" points="456.5 -67.5 456.5 -97.5 602.5 -97.5 602.5 -67.5 456.5 -67.5"/><text x="464.5" y="-85.5" fill="#000" font-family="Arial" font-size="10" text-anchor="start">examples/miral-kiosk</text><text x="529.5" y="-74.5" fill="#000" font-family="Arial" font-size="10" text-anchor="middle">/kiosk_window_manager.h</text></a></g></g><g id="edge18" class="edge"><title>Node16-&gt;Node17</title><path fill="none" stroke="#191970" d="M551.1652,-125.1932C546.4921,-115.9844 541.3091,-105.771 537.1846,-97.6432"/><polygon fill="#191970" stroke="#191970" points="548.138 -126.963 555.785 -134.297 554.381 -123.795 548.138 -126.963"/></g><g id="edge20" class="edge"><title>Node17-&gt;Node8</title><path fill="none" stroke="#191970" d="M612.4874,-66.7488C670.3505,-55.7663 747.0666,-41.2055 803.9352,-30.4117"/><polygon fill="#191970" stroke="#191970" points="611.814 -63.314 602.642 -68.618 613.119 -70.191 611.814 -63.314"/></g><g id="node15" class="node"><title>Node18</title><g id="a_node15"><a target="_top" xlink:href="kiosk__main_8cpp.html" xlink:title="examples/miral-kiosk\l/kiosk_main.cpp"><polygon fill="#fff" stroke="#000" points="462 -.5 462 -30.5 585 -30.5 585 -.5 462 -.5"/><text x="470" y="-18.5" fill="#000" font-family="Arial" font-size="10" text-anchor="start">examples/miral-kiosk</text><text x="523.5" y="-7.5" fill="#000" font-family="Arial" font-size="10" text-anchor="middle">/kiosk_main.cpp</text></a></g></g><g id="edge19" class="edge"><title>Node17-&gt;Node18</title><path fill="none" stroke="#191970" d="M527.2449,-57.3179C526.441,-48.3414 525.561,-38.5143 524.8561,-30.6432"/><polygon fill="#191970" stroke="#191970" points="523.76 -57.649 528.139 -67.297 530.732 -57.024 523.76 -57.649"/></g><g id="node17" class="node"><title>Node20</title><g id="a_node17"><a target="_top" xlink:href="floating__window__manager_8h.html" xlink:title="examples/example-server\l-lib/floating_window_manager.h"><polygon fill="#fff" stroke="#000" points="266.5 -67.5 266.5 -97.5 438.5 -97.5 438.5 -67.5 266.5 -67.5"/><text x="274.5" y="-85.5" fill="#000" font-family="Arial" font-size="10" text-anchor="start">examples/example-server</text><text x="352.5" y="-74.5" fill="#000" font-family="Arial" font-size="10" text-anchor="middle">-lib/floating_window_manager.h</text></a></g></g><g id="edge22" class="edge"><title>Node19-&gt;Node20</title><path fill="none" stroke="#191970" d="M371.486,-124.9021C367.3968,-115.7696 362.8815,-105.6854 359.2805,-97.6432"/><polygon fill="#191970" stroke="#191970" points="368.411 -126.6 375.692 -134.297 374.8 -123.74 368.411 -126.6"/></g><g id="edge24" class="edge"><title>Node20-&gt;Node9</title><path fill="none" stroke="#191970" d="M439.3307,-65.4893C494.3157,-54.7174 564.7691,-40.9151 617.7094,-30.5438"/><polygon fill="#191970" stroke="#191970" points="438.392 -62.107 429.252 -67.464 439.738 -68.976 438.392 -62.107"/></g><g id="edge23" class="edge"><title>Node20-&gt;Node15</title><path fill="none" stroke="#191970" d="M328.1976,-60.4965C317.399,-50.7193 304.9582,-39.4554 295.2253,-30.6432"/><polygon fill="#191970" stroke="#191970" points="325.946 -63.179 335.708 -67.297 330.644 -57.99 325.946 -63.179"/></g><g id="edge26" class="edge"><title>Node21-&gt;Node14</title><path fill="none" stroke="#191970" d="M332.9921,-197.865C305.1293,-187.3773 270.7889,-174.4515 244.6209,-164.6017"/><polygon fill="#191970" stroke="#191970" points="331.961 -201.217 342.553 -201.464 334.427 -194.665 331.961 -201.217"/></g><g id="edge27" class="edge"><title>Node21-&gt;Node16</title><path fill="none" stroke="#191970" d="M432.8423,-197.865C461.1747,-187.3773 496.0938,-174.4515 522.7029,-164.6017"/><polygon fill="#191970" stroke="#191970" points="431.283 -194.71 423.12 -201.464 433.713 -201.275 431.283 -194.71"/></g><g id="edge28" class="edge"><title>Node21-&gt;Node19</title><path fill="none" stroke="#191970" d="M382.5,-191.0249C382.5,-182.128 382.5,-172.4287 382.5,-164.6432"/><polygon fill="#191970" stroke="#191970" points="379 -191.297 382.5 -201.297 386 -191.297 379 -191.297"/></g><g id="edge30" class="edge"><title>Node22-&gt;Node7</title><path fill="none" stroke="#191970" d="M532.291,-327.0626C539.0476,-317.6315 546.6444,-307.0276 552.6512,-298.6432"/><polygon fill="#191970" stroke="#191970" points="529.371 -325.129 526.392 -335.297 535.061 -329.206 529.371 -325.129"/></g><g id="edge33" class="edge"><title>Node24-&gt;Node10</title><path fill="none" stroke="#191970" d="M145.6387,-326.6025C125.2984,-292.3439 89.7962,-226.595 76.5,-165 71.4838,-141.7622 76.6726,-114.2072 80.9953,-97.5536"/><polygon fill="#191970" stroke="#191970" points="142.782 -328.643 150.943 -335.401 148.777 -325.029 142.782 -328.643"/></g><g id="edge36" class="edge"><title>Node25-&gt;Node7</title><path fill="none" stroke="#191970" d="M553.4875,-460.6732C566.2675,-437.4213 584.244,-400.5925 591.5,-366 594.3284,-352.5157 594.8952,-348.3529 591.5,-335 588.1896,-321.9806 580.8487,-308.6952 574.5139,-298.8796"/><polygon fill="#191970" stroke="#191970" points="550.392 -459.037 548.543 -469.469 556.494 -462.468 550.392 -459.037"/></g></g></svg>