<svg xmlns="http://www.w3.org/2000/svg" xmlns:xlink="http://www.w3.org/1999/xlink" width="1082pt" height="320" viewBox="0 0 1082 240"><g id="graph0" class="graph" transform="scale(1 1) rotate(0) translate(4 236)"><title>examples/example-server-lib/splash_session.h</title><polygon fill="#fff" stroke="transparent" points="-4 4 -4 -236 1078 -236 1078 4 -4 4"/><g id="node1" class="node"><title>Node2</title><polygon fill="#bfbfbf" stroke="#000" points="287 -201.5 287 -231.5 432 -231.5 432 -201.5 287 -201.5"/><text x="295" y="-219.5" fill="#000" font-family="Arial" font-size="10" text-anchor="start">examples/example-server</text><text x="359.5" y="-208.5" fill="#000" font-family="Arial" font-size="10" text-anchor="middle">-lib/splash_session.h</text></g><g id="node2" class="node"><title>Node3</title><g id="a_node2"><a target="_top" xlink:href="splash_8h.html" xlink:title="examples/miral-shell\l/spinner/splash.h"><polygon fill="#fff" stroke="#000" points="97.5 -134.5 97.5 -164.5 217.5 -164.5 217.5 -134.5 97.5 -134.5"/><text x="105.5" y="-152.5" fill="#000" font-family="Arial" font-size="10" text-anchor="start">examples/miral-shell</text><text x="157.5" y="-141.5" fill="#000" font-family="Arial" font-size="10" text-anchor="middle">/spinner/splash.h</text></a></g></g><g id="edge1" class="edge"><title>Node2-&gt;Node3</title><path fill="none" stroke="#191970" d="M304.5557,-198.2759C272.72,-187.7165 233.1158,-174.5805 203.0305,-164.6017"/><polygon fill="#191970" stroke="#191970" points="303.574 -201.638 314.167 -201.464 305.778 -194.994 303.574 -201.638"/></g><g id="node5" class="node"><title>Node6</title><g id="a_node5"><a target="_top" xlink:href="floating__window__manager_8h.html" xlink:title="examples/example-server\l-lib/floating_window_manager.h"><polygon fill="#fff" stroke="#000" points="273.5 -134.5 273.5 -164.5 445.5 -164.5 445.5 -134.5 273.5 -134.5"/><text x="281.5" y="-152.5" fill="#000" font-family="Arial" font-size="10" text-anchor="start">examples/example-server</text><text x="359.5" y="-141.5" fill="#000" font-family="Arial" font-size="10" text-anchor="middle">-lib/floating_window_manager.h</text></a></g></g><g id="edge4" class="edge"><title>Node2-&gt;Node6</title><path fill="none" stroke="#191970" d="M359.5,-191.0249C359.5,-182.128 359.5,-172.4287 359.5,-164.6432"/><polygon fill="#191970" stroke="#191970" points="356 -191.297 359.5 -201.297 363 -191.297 356 -191.297"/></g><g id="node7" class="node"><title>Node8</title><g id="a_node7"><a target="_top" xlink:href="sw__splash_8h.html" xlink:title="examples/example-server\l-lib/sw_splash.h"><polygon fill="#fff" stroke="#000" points="530 -134.5 530 -164.5 675 -164.5 675 -134.5 530 -134.5"/><text x="538" y="-152.5" fill="#000" font-family="Arial" font-size="10" text-anchor="start">examples/example-server</text><text x="602.5" y="-141.5" fill="#000" font-family="Arial" font-size="10" text-anchor="middle">-lib/sw_splash.h</text></a></g></g><g id="edge7" class="edge"><title>Node2-&gt;Node8</title><path fill="none" stroke="#191970" d="M424.1154,-198.6842C462.6598,-188.0568 511.0684,-174.7095 547.7282,-164.6017"/><polygon fill="#191970" stroke="#191970" points="422.744 -195.432 414.034 -201.464 424.605 -202.18 422.744 -195.432"/></g><g id="node3" class="node"><title>Node4</title><g id="a_node3"><a target="_top" xlink:href="shell__main_8cpp.html" xlink:title="examples/miral-shell\l/shell_main.cpp"><polygon fill="#fff" stroke="#000" points="337.5 -.5 337.5 -30.5 457.5 -30.5 457.5 -.5 337.5 -.5"/><text x="345.5" y="-18.5" fill="#000" font-family="Arial" font-size="10" text-anchor="start">examples/miral-shell</text><text x="397.5" y="-7.5" fill="#000" font-family="Arial" font-size="10" text-anchor="middle">/shell_main.cpp</text></a></g></g><g id="edge2" class="edge"><title>Node3-&gt;Node4</title><path fill="none" stroke="#191970" d="M156.6601,-124.208C157.4618,-105.9162 161.646,-81.8925 176.5,-67 198.7917,-44.6505 279.7733,-30.1014 337.2329,-22.3446"/><polygon fill="#191970" stroke="#191970" points="153.157 -124.419 156.528 -134.463 160.157 -124.509 153.157 -124.419"/></g><g id="node4" class="node"><title>Node5</title><g id="a_node4"><a target="_top" xlink:href="eglspinner_8cpp.html" xlink:title="examples/miral-shell\l/spinner/eglspinner.cpp"><polygon fill="#fff" stroke="#000" points="0 -67.5 0 -97.5 129 -97.5 129 -67.5 0 -67.5"/><text x="8" y="-85.5" fill="#000" font-family="Arial" font-size="10" text-anchor="start">examples/miral-shell</text><text x="64.5" y="-74.5" fill="#000" font-family="Arial" font-size="10" text-anchor="middle">/spinner/eglspinner.cpp</text></a></g></g><g id="edge3" class="edge"><title>Node3-&gt;Node5</title><path fill="none" stroke="#191970" d="M128.1382,-128.3469C114.3002,-118.3776 98.1078,-106.7121 85.5196,-97.6432"/><polygon fill="#191970" stroke="#191970" points="126.237 -131.291 136.397 -134.297 130.329 -125.612 126.237 -131.291"/></g><g id="edge5" class="edge"><title>Node6-&gt;Node4</title><path fill="none" stroke="#191970" d="M368.7244,-124.6939C371.7055,-116.2778 374.9074,-106.7829 377.5,-98 384.3846,-74.6776 390.7029,-47.147 394.3249,-30.5215"/><polygon fill="#191970" stroke="#191970" points="365.358 -123.71 365.253 -134.304 371.942 -126.088 365.358 -123.71"/></g><g id="node6" class="node"><title>Node7</title><g id="a_node6"><a target="_top" xlink:href="floating__window__manager_8cpp.html" xlink:title="examples/example-server\l-lib/floating_window_manager.cpp"><polygon fill="#fff" stroke="#000" points="186 -67.5 186 -97.5 369 -97.5 369 -67.5 186 -67.5"/><text x="194" y="-85.5" fill="#000" font-family="Arial" font-size="10" text-anchor="start">examples/example-server</text><text x="277.5" y="-74.5" fill="#000" font-family="Arial" font-size="10" text-anchor="middle">-lib/floating_window_manager.cpp</text></a></g></g><g id="edge6" class="edge"><title>Node6-&gt;Node7</title><path fill="none" stroke="#191970" d="M332.9183,-127.7808C320.8722,-117.9383 306.9233,-106.541 296.0334,-97.6432"/><polygon fill="#191970" stroke="#191970" points="330.935 -130.68 340.893 -134.297 335.364 -125.259 330.935 -130.68"/></g><g id="node8" class="node"><title>Node9</title><g id="a_node8"><a target="_top" xlink:href="kiosk__window__manager_8h.html" xlink:title="examples/miral-kiosk\l/kiosk_window_manager.h"><polygon fill="#fff" stroke="#000" points="767.5 -67.5 767.5 -97.5 913.5 -97.5 913.5 -67.5 767.5 -67.5"/><text x="775.5" y="-85.5" fill="#000" font-family="Arial" font-size="10" text-anchor="start">examples/miral-kiosk</text><text x="840.5" y="-74.5" fill="#000" font-family="Arial" font-size="10" text-anchor="middle">/kiosk_window_manager.h</text></a></g></g><g id="edge8" class="edge"><title>Node8-&gt;Node9</title><path fill="none" stroke="#191970" d="M665.7858,-131.6842C703.5371,-121.0568 750.9498,-107.7095 786.8552,-97.6017"/><polygon fill="#191970" stroke="#191970" points="664.589 -128.385 655.912 -134.464 666.486 -135.123 664.589 -128.385"/></g><g id="node11" class="node"><title>Node12</title><g id="a_node11"><a target="_top" xlink:href="sw__splash_8cpp.html" xlink:title="examples/example-server\l-lib/sw_splash.cpp"><polygon fill="#fff" stroke="#000" points="426 -67.5 426 -97.5 571 -97.5 571 -67.5 426 -67.5"/><text x="434" y="-85.5" fill="#000" font-family="Arial" font-size="10" text-anchor="start">examples/example-server</text><text x="498.5" y="-74.5" fill="#000" font-family="Arial" font-size="10" text-anchor="middle">-lib/sw_splash.cpp</text></a></g></g><g id="edge11" class="edge"><title>Node8-&gt;Node12</title><path fill="none" stroke="#191970" d="M570.361,-128.7951C554.7777,-118.7558 536.3939,-106.9124 522.1216,-97.7177"/><polygon fill="#191970" stroke="#191970" points="568.858 -131.99 579.16 -134.464 572.649 -126.106 568.858 -131.99"/></g><g id="node12" class="node"><title>Node13</title><g id="a_node12"><a target="_top" xlink:href="tiling__window__manager_8h.html" xlink:title="examples/example-server\l-lib/tiling_window_manager.h"><polygon fill="#fff" stroke="#000" points="589.5 -67.5 589.5 -97.5 749.5 -97.5 749.5 -67.5 589.5 -67.5"/><text x="597.5" y="-85.5" fill="#000" font-family="Arial" font-size="10" text-anchor="start">examples/example-server</text><text x="669.5" y="-74.5" fill="#000" font-family="Arial" font-size="10" text-anchor="middle">-lib/tiling_window_manager.h</text></a></g></g><g id="edge12" class="edge"><title>Node8-&gt;Node13</title><path fill="none" stroke="#191970" d="M624.7887,-127.2113C634.4991,-117.5009 645.6302,-106.3698 654.3568,-97.6432"/><polygon fill="#191970" stroke="#191970" points="622.3 -124.751 617.703 -134.297 627.249 -129.7 622.3 -124.751"/></g><g id="node9" class="node"><title>Node10</title><g id="a_node9"><a target="_top" xlink:href="kiosk__main_8cpp.html" xlink:title="examples/miral-kiosk\l/kiosk_main.cpp"><polygon fill="#fff" stroke="#000" points="776 -.5 776 -30.5 899 -30.5 899 -.5 776 -.5"/><text x="784" y="-18.5" fill="#000" font-family="Arial" font-size="10" text-anchor="start">examples/miral-kiosk</text><text x="837.5" y="-7.5" fill="#000" font-family="Arial" font-size="10" text-anchor="middle">/kiosk_main.cpp</text></a></g></g><g id="edge9" class="edge"><title>Node9-&gt;Node10</title><path fill="none" stroke="#191970" d="M839.3593,-57.0249C838.961,-48.128 838.5267,-38.4287 838.1781,-30.6432"/><polygon fill="#191970" stroke="#191970" points="835.875 -57.463 839.819 -67.297 842.868 -57.15 835.875 -57.463"/></g><g id="node10" class="node"><title>Node11</title><g id="a_node10"><a target="_top" xlink:href="kiosk__window__manager_8cpp.html" xlink:title="examples/miral-kiosk\l/kiosk_window_manager.cpp"><polygon fill="#fff" stroke="#000" points="917 -.5 917 -30.5 1074 -30.5 1074 -.5 917 -.5"/><text x="925" y="-18.5" fill="#000" font-family="Arial" font-size="10" text-anchor="start">examples/miral-kiosk</text><text x="995.5" y="-7.5" fill="#000" font-family="Arial" font-size="10" text-anchor="middle">/kiosk_window_manager.cpp</text></a></g></g><g id="edge10" class="edge"><title>Node9-&gt;Node11</title><path fill="none" stroke="#191970" d="M884.5672,-63.4516C908.6556,-53.0392 938.075,-40.3224 960.5633,-30.6017"/><polygon fill="#191970" stroke="#191970" points="883.075 -60.283 875.285 -67.464 885.853 -66.709 883.075 -60.283"/></g><g id="edge13" class="edge"><title>Node13-&gt;Node4</title><path fill="none" stroke="#191970" d="M598.4754,-65.005C554.7953,-54.2455 499.4259,-40.6067 457.8696,-30.3704"/><polygon fill="#191970" stroke="#191970" points="597.911 -68.471 608.458 -67.464 599.585 -61.674 597.911 -68.471"/></g><g id="node13" class="node"><title>Node14</title><g id="a_node13"><a target="_top" xlink:href="tiling__window__manager_8cpp.html" xlink:title="examples/example-server\l-lib/tiling_window_manager.cpp"><polygon fill="#fff" stroke="#000" points="584 -.5 584 -30.5 755 -30.5 755 -.5 584 -.5"/><text x="592" y="-18.5" fill="#000" font-family="Arial" font-size="10" text-anchor="start">examples/example-server</text><text x="669.5" y="-7.5" fill="#000" font-family="Arial" font-size="10" text-anchor="middle">-lib/tiling_window_manager.cpp</text></a></g></g><g id="edge14" class="edge"><title>Node13-&gt;Node14</title><path fill="none" stroke="#191970" d="M669.5,-57.0249C669.5,-48.128 669.5,-38.4287 669.5,-30.6432"/><polygon fill="#191970" stroke="#191970" points="666 -57.297 669.5 -67.297 673 -57.297 666 -57.297"/></g></g></svg>