<svg xmlns="http://www.w3.org/2000/svg" xmlns:xlink="http://www.w3.org/1999/xlink" width="128pt" height="151pt" viewBox="0 0 128 151"><g id="graph0" class="graph" transform="scale(1 1) rotate(0) translate(4 147)"><title>examples/miral-shell/spinner/splash.h</title><polygon fill="#fff" stroke="transparent" points="-4 4 -4 -147 124 -147 124 4 -4 4"/><g id="node1" class="node"><title>Node0</title><polygon fill="#bfbfbf" stroke="#000" points="0 -112.5 0 -142.5 120 -142.5 120 -112.5 0 -112.5"/><text x="8" y="-130.5" fill="#000" font-family="Arial" font-size="10" text-anchor="start">examples/miral-shell</text><text x="60" y="-119.5" fill="#000" font-family="Arial" font-size="10" text-anchor="middle">/spinner/splash.h</text></g><g id="node2" class="node"><title>Node1</title><g id="a_node2"><a target="_top" xlink:href="splash__session_8h.html" xlink:title="splash_session.h"><polygon fill="#fff" stroke="#000" points="10.5 -56.5 10.5 -75.5 109.5 -75.5 109.5 -56.5 10.5 -56.5"/><text x="60" y="-63.5" fill="#000" font-family="Arial" font-size="10" text-anchor="middle">splash_session.h</text></a></g></g><g id="edge1" class="edge"><title>Node0-&gt;Node1</title><path fill="none" stroke="#191970" d="M60,-112.2977C60,-104.3834 60,-94.6043 60,-86.0759"/><polygon fill="#191970" stroke="#191970" points="63.5 -85.847 60 -75.847 56.5 -85.847 63.5 -85.847"/></g><g id="node3" class="node"><title>Node2</title><polygon fill="#fff" stroke="#bfbfbf" points="31 -.5 31 -19.5 89 -19.5 89 -.5 31 -.5"/><text x="60" y="-7.5" fill="#000" font-family="Arial" font-size="10" text-anchor="middle">memory</text></g><g id="edge2" class="edge"><title>Node1-&gt;Node2</title><path fill="none" stroke="#191970" d="M60,-56.2455C60,-48.9382 60,-38.6944 60,-29.7046"/><polygon fill="#191970" stroke="#191970" points="63.5 -29.643 60 -19.643 56.5 -29.643 63.5 -29.643"/></g></g></svg>