<svg xmlns="http://www.w3.org/2000/svg" xmlns:xlink="http://www.w3.org/1999/xlink" width="2756" height="385pt" viewBox="0 0 2067 385"><g id="graph0" class="graph" transform="scale(1 1) rotate(0) translate(4 381)"><title>include/client/mir_toolkit/events/surface_placement.h</title><polygon fill="#fff" stroke="transparent" points="-4 4 -4 -381 2063 -381 2063 4 -4 4"/><g id="node1" class="node"><title>Node0</title><polygon fill="#bfbfbf" stroke="#000" points="0 -335.5 0 -376.5 128 -376.5 128 -335.5 0 -335.5"/><text x="8" y="-364.5" fill="#000" font-family="Arial" font-size="10" text-anchor="start">include/client/mir</text><text x="8" y="-353.5" fill="#000" font-family="Arial" font-size="10" text-anchor="start">_toolkit/events/surface</text><text x="64" y="-342.5" fill="#000" font-family="Arial" font-size="10" text-anchor="middle">_placement.h</text></g><g id="node2" class="node"><title>Node1</title><g id="a_node2"><a target="_top" xlink:href="client__types_8h.html" xlink:title="mir_toolkit/client\l_types.h"><polygon fill="#fff" stroke="#000" points="79 -268.5 79 -298.5 179 -298.5 179 -268.5 79 -268.5"/><text x="87" y="-286.5" fill="#000" font-family="Arial" font-size="10" text-anchor="start">mir_toolkit/client</text><text x="129" y="-275.5" fill="#000" font-family="Arial" font-size="10" text-anchor="middle">_types.h</text></a></g></g><g id="edge1" class="edge"><title>Node0-&gt;Node1</title><path fill="none" stroke="#191970" d="M82.4525,-335.4183C90.6628,-326.2607 100.3543,-315.451 108.7625,-306.0726"/><polygon fill="#191970" stroke="#191970" points="111.393 -308.381 115.463 -298.599 106.181 -303.708 111.393 -308.381"/></g><g id="node7" class="node"><title>Node6</title><g id="a_node7"><a target="_top" xlink:href="deprecations_8h.html" xlink:title="mir_toolkit/deprecations.h"><polygon fill="#fff" stroke="#000" points="147.5 -62 147.5 -81 292.5 -81 292.5 -62 147.5 -62"/><text x="220" y="-69" fill="#000" font-family="Arial" font-size="10" text-anchor="middle">mir_toolkit/deprecations.h</text></a></g></g><g id="edge46" class="edge"><title>Node0-&gt;Node6</title><path fill="none" stroke="#191970" d="M53.9622,-335.4459C34.1213,-291.5322 -4.2049,-187.3317 44,-123 57.195,-105.3907 107.4561,-91.7827 150.9069,-82.9891"/><polygon fill="#191970" stroke="#191970" points="151.779 -86.385 160.916 -81.022 150.429 -79.516 151.779 -86.385"/></g><g id="node3" class="node"><title>Node2</title><g id="a_node3"><a target="_top" xlink:href="toolkit_2events_2event_8h.html" xlink:title="mir_toolkit/events\l/event.h"><polygon fill="#fff" stroke="#000" points="909 -201.5 909 -231.5 1015 -231.5 1015 -201.5 909 -201.5"/><text x="917" y="-219.5" fill="#000" font-family="Arial" font-size="10" text-anchor="start">mir_toolkit/events</text><text x="962" y="-208.5" fill="#000" font-family="Arial" font-size="10" text-anchor="middle">/event.h</text></a></g></g><g id="edge2" class="edge"><title>Node1-&gt;Node2</title><path fill="none" stroke="#191970" d="M179.232,-279.4597C323.5344,-267.8532 739.1355,-234.4255 898.6328,-221.5968"/><polygon fill="#191970" stroke="#191970" points="899.075 -225.073 908.763 -220.782 898.514 -218.095 899.075 -225.073"/></g><g id="node4" class="node"><title>Node3</title><polygon fill="#fff" stroke="#bfbfbf" points="1773 -134.5 1773 -153.5 1829 -153.5 1829 -134.5 1773 -134.5"/><text x="1801" y="-141.5" fill="#000" font-family="Arial" font-size="10" text-anchor="middle">stddef.h</text></g><g id="edge45" class="edge"><title>Node1-&gt;Node3</title><path fill="none" stroke="#191970" d="M179.2499,-282.9458C420.1135,-279.8216 1457.4183,-260.9339 1764,-165 1768.8551,-163.4808 1773.7759,-161.259 1778.3757,-158.8226"/><polygon fill="#191970" stroke="#191970" points="1780.351 -161.723 1787.243 -153.677 1776.837 -155.669 1780.351 -161.723"/></g><g id="node6" class="node"><title>Node5</title><g id="a_node6"><a target="_top" xlink:href="common_8h.html" xlink:title="mir_toolkit/common.h"><polygon fill="#fff" stroke="#000" points="66.5 -134.5 66.5 -153.5 191.5 -153.5 191.5 -134.5 66.5 -134.5"/><text x="129" y="-141.5" fill="#000" font-family="Arial" font-size="10" text-anchor="middle">mir_toolkit/common.h</text></a></g></g><g id="edge43" class="edge"><title>Node1-&gt;Node5</title><path fill="none" stroke="#191970" d="M129,-268.3055C129,-242.9831 129,-192.1556 129,-163.9709"/><polygon fill="#191970" stroke="#191970" points="132.5 -163.737 129 -153.737 125.5 -163.737 132.5 -163.737"/></g><g id="edge44" class="edge"><title>Node1-&gt;Node6</title><path fill="none" stroke="#191970" d="M112.3832,-268.213C81.8711,-238.2817 23.1039,-170.7105 58,-123 70.2728,-106.2205 118.1008,-92.3121 158.6331,-83.1966"/><polygon fill="#191970" stroke="#191970" points="159.465 -86.597 168.486 -81.041 157.969 -79.759 159.465 -86.597"/></g><g id="edge3" class="edge"><title>Node2-&gt;Node3</title><path fill="none" stroke="#191970" d="M1015.0729,-214.4749C1182.4923,-207.8946 1692.6431,-186.3077 1764,-165 1768.9586,-163.5193 1773.9743,-161.2762 1778.6446,-158.7988"/><polygon fill="#191970" stroke="#191970" points="1780.75 -161.622 1787.617 -153.554 1777.217 -155.579 1780.75 -161.622"/></g><g id="node5" class="node"><title>Node4</title><polygon fill="#fff" stroke="#bfbfbf" points="1411.5 -.5 1411.5 -19.5 1464.5 -19.5 1464.5 -.5 1411.5 -.5"/><text x="1438" y="-7.5" fill="#000" font-family="Arial" font-size="10" text-anchor="middle">stdint.h</text></g><g id="edge4" class="edge"><title>Node2-&gt;Node4</title><path fill="none" stroke="#191970" d="M1015.3441,-215.0548C1139.5647,-211.1401 1439.9098,-198.2949 1470,-165 1535.8725,-92.1118 1385.7964,-109.4755 1370,-87 1362.0776,-75.7278 1363.5399,-68.1694 1370,-56 1377.3846,-42.0889 1391.0636,-31.6166 1404.2272,-24.2062"/><polygon fill="#191970" stroke="#191970" points="1405.912 -27.275 1413.175 -19.561 1402.687 -21.063 1405.912 -27.275"/></g><g id="edge5" class="edge"><title>Node2-&gt;Node5</title><path fill="none" stroke="#191970" d="M908.8847,-214.254C760.1641,-207.747 341.6396,-187.8835 206,-165 193.6177,-162.911 180.3526,-159.6693 168.3815,-156.3529"/><polygon fill="#191970" stroke="#191970" points="169.255 -152.962 158.678 -153.573 167.327 -159.692 169.255 -152.962"/></g><g id="edge7" class="edge"><title>Node2-&gt;Node6</title><path fill="none" stroke="#191970" d="M908.9305,-214.4665C746.2701,-208.0061 264.1288,-187.0715 239,-165 218.3338,-146.8482 216.4837,-112.9048 217.7348,-91.2936"/><polygon fill="#191970" stroke="#191970" points="221.228 -91.526 218.589 -81.266 214.253 -90.933 221.228 -91.526"/></g><g id="node8" class="node"><title>Node7</title><g id="a_node8"><a target="_top" xlink:href="input__event_8h.html" xlink:title="mir_toolkit/events\l/input/input_event.h"><polygon fill="#fff" stroke="#000" points="1517 -129 1517 -159 1631 -159 1631 -129 1517 -129"/><text x="1525" y="-147" fill="#000" font-family="Arial" font-size="10" text-anchor="start">mir_toolkit/events</text><text x="1574" y="-136" fill="#000" font-family="Arial" font-size="10" text-anchor="middle">/input/input_event.h</text></a></g></g><g id="edge8" class="edge"><title>Node2-&gt;Node7</title><path fill="none" stroke="#191970" d="M1015.0909,-214.6178C1111.3988,-210.5896 1320.5538,-198.5806 1494,-165 1498.9218,-164.0471 1503.9917,-162.8972 1509.0824,-161.6323"/><polygon fill="#191970" stroke="#191970" points="1510.072 -164.992 1518.864 -159.08 1508.304 -158.218 1510.072 -164.992"/></g><g id="node15" class="node"><title>Node14</title><g id="a_node15"><a target="_top" xlink:href="resize__event_8h.html" xlink:title="mir_toolkit/events\l/resize_event.h"><polygon fill="#fff" stroke="#000" points="656 -129 656 -159 762 -159 762 -129 656 -129"/><text x="664" y="-147" fill="#000" font-family="Arial" font-size="10" text-anchor="start">mir_toolkit/events</text><text x="709" y="-136" fill="#000" font-family="Arial" font-size="10" text-anchor="middle">/resize_event.h</text></a></g></g><g id="edge19" class="edge"><title>Node2-&gt;Node14</title><path fill="none" stroke="#191970" d="M908.6346,-204.9268C868.0131,-194.9829 811.1266,-179.9266 762,-165 759.0505,-164.1038 756.03,-163.1618 752.9973,-162.1937"/><polygon fill="#191970" stroke="#191970" points="753.934 -158.818 743.342 -159.037 751.759 -165.471 753.934 -158.818"/></g><g id="node16" class="node"><title>Node15</title><g id="a_node16"><a target="_top" xlink:href="surface__event_8h.html" xlink:title="mir_toolkit/events\l/surface_event.h"><polygon fill="#fff" stroke="#000" points="248 -129 248 -159 354 -159 354 -129 248 -129"/><text x="256" y="-147" fill="#000" font-family="Arial" font-size="10" text-anchor="start">mir_toolkit/events</text><text x="301" y="-136" fill="#000" font-family="Arial" font-size="10" text-anchor="middle">/surface_event.h</text></a></g></g><g id="edge21" class="edge"><title>Node2-&gt;Node15</title><path fill="none" stroke="#191970" d="M908.7993,-213.7828C780.9257,-206.6876 459.7253,-186.6467 355,-165 350.8719,-164.1467 346.6379,-163.1088 342.4387,-161.9564"/><polygon fill="#191970" stroke="#191970" points="343.352 -158.577 332.77 -159.093 341.364 -165.288 343.352 -158.577"/></g><g id="node17" class="node"><title>Node16</title><g id="a_node17"><a target="_top" xlink:href="window__event_8h.html" xlink:title="mir_toolkit/events\l/window_event.h"><polygon fill="#fff" stroke="#000" points="780 -129 780 -159 886 -159 886 -129 780 -129"/><text x="788" y="-147" fill="#000" font-family="Arial" font-size="10" text-anchor="start">mir_toolkit/events</text><text x="833" y="-136" fill="#000" font-family="Arial" font-size="10" text-anchor="middle">/window_event.h</text></a></g></g><g id="edge24" class="edge"><title>Node2-&gt;Node16</title><path fill="none" stroke="#191970" d="M929.6784,-201.478C909.1404,-190.6877 882.8702,-176.023 862.8304,-164.2071"/><polygon fill="#191970" stroke="#191970" points="864.486 -161.119 854.104 -159.003 860.9 -167.131 864.486 -161.119"/></g><g id="node18" class="node"><title>Node17</title><g id="a_node18"><a target="_top" xlink:href="orientation__event_8h.html" xlink:title="mir_toolkit/events\l/orientation_event.h"><polygon fill="#fff" stroke="#000" points="904.5 -129 904.5 -159 1019.5 -159 1019.5 -129 904.5 -129"/><text x="912.5" y="-147" fill="#000" font-family="Arial" font-size="10" text-anchor="start">mir_toolkit/events</text><text x="962" y="-136" fill="#000" font-family="Arial" font-size="10" text-anchor="middle">/orientation_event.h</text></a></g></g><g id="edge26" class="edge"><title>Node2-&gt;Node17</title><path fill="none" stroke="#191970" d="M956.4073,-201.478C955.2494,-192.1459 954.9604,-179.9157 955.5402,-169.1368"/><polygon fill="#191970" stroke="#191970" points="959.042 -169.265 956.41 -159.003 952.068 -168.667 959.042 -169.265"/></g><g id="node19" class="node"><title>Node18</title><g id="a_node19"><a target="_top" xlink:href="prompt__session__event_8h.html" xlink:title="mir_toolkit/events\l/prompt_session_event.h"><polygon fill="#fff" stroke="#000" points="1037.5 -129 1037.5 -159 1176.5 -159 1176.5 -129 1037.5 -129"/><text x="1045.5" y="-147" fill="#000" font-family="Arial" font-size="10" text-anchor="start">mir_toolkit/events</text><text x="1107" y="-136" fill="#000" font-family="Arial" font-size="10" text-anchor="middle">/prompt_session_event.h</text></a></g></g><g id="edge28" class="edge"><title>Node2-&gt;Node18</title><path fill="none" stroke="#191970" d="M986.4514,-201.478C1007.1489,-190.4447 1037.1629,-175.3605 1062.1176,-163.4132"/><polygon fill="#191970" stroke="#191970" points="1063.872 -166.454 1071.404 -159.003 1060.87 -160.131 1063.872 -166.454"/></g><g id="node20" class="node"><title>Node19</title><g id="a_node20"><a target="_top" xlink:href="keymap__event_8h.html" xlink:title="mir_toolkit/events\l/keymap_event.h"><polygon fill="#fff" stroke="#000" points="1649 -129 1649 -159 1755 -159 1755 -129 1649 -129"/><text x="1657" y="-147" fill="#000" font-family="Arial" font-size="10" text-anchor="start">mir_toolkit/events</text><text x="1702" y="-136" fill="#000" font-family="Arial" font-size="10" text-anchor="middle">/keymap_event.h</text></a></g></g><g id="edge30" class="edge"><title>Node2-&gt;Node19</title><path fill="none" stroke="#191970" d="M1015.0059,-213.9909C1151.6503,-207.5236 1512.8759,-189.0922 1631,-165 1635.134,-164.1568 1639.3729,-163.1166 1643.6267,-161.9541"/><polygon fill="#191970" stroke="#191970" points="1644.922 -165.222 1653.537 -159.055 1642.957 -158.504 1644.922 -165.222"/></g><g id="node21" class="node"><title>Node20</title><g id="a_node21"><a target="_top" xlink:href="input__configuration__event_8h.html" xlink:title="mir_toolkit/events\l/input_configuration\l_event.h"><polygon fill="#fff" stroke="#000" points="372.5 -123.5 372.5 -164.5 485.5 -164.5 485.5 -123.5 372.5 -123.5"/><text x="380.5" y="-152.5" fill="#000" font-family="Arial" font-size="10" text-anchor="start">mir_toolkit/events</text><text x="380.5" y="-141.5" fill="#000" font-family="Arial" font-size="10" text-anchor="start">/input_configuration</text><text x="429" y="-130.5" fill="#000" font-family="Arial" font-size="10" text-anchor="middle">_event.h</text></a></g></g><g id="edge33" class="edge"><title>Node2-&gt;Node20</title><path fill="none" stroke="#191970" d="M908.7438,-214.3527C821.8731,-209.9396 644.8278,-197.567 493.784,-166.6042"/><polygon fill="#191970" stroke="#191970" points="494.378 -163.153 483.874 -164.538 492.949 -170.006 494.378 -163.153"/></g><g id="node22" class="node"><title>Node21</title><g id="a_node22"><a target="_top" xlink:href="surface__output__event_8h.html" xlink:title="mir_toolkit/events\l/surface_output_event.h"><polygon fill="#fff" stroke="#000" points="504 -129 504 -159 638 -159 638 -129 504 -129"/><text x="512" y="-147" fill="#000" font-family="Arial" font-size="10" text-anchor="start">mir_toolkit/events</text><text x="571" y="-136" fill="#000" font-family="Arial" font-size="10" text-anchor="middle">/surface_output_event.h</text></a></g></g><g id="edge36" class="edge"><title>Node2-&gt;Node21</title><path fill="none" stroke="#191970" d="M908.8413,-210.4249C844.1789,-202.0667 732.318,-185.6781 638,-165 633.3159,-163.9731 628.4906,-162.8339 623.6735,-161.6326"/><polygon fill="#191970" stroke="#191970" points="624.403 -158.206 613.845 -159.095 622.653 -164.984 624.403 -158.206"/></g><g id="node23" class="node"><title>Node22</title><g id="a_node23"><a target="_top" xlink:href="window__output__event_8h.html" xlink:title="mir_toolkit/events\l/window_output_event.h"><polygon fill="#fff" stroke="#000" points="1195 -129 1195 -159 1331 -159 1331 -129 1195 -129"/><text x="1203" y="-147" fill="#000" font-family="Arial" font-size="10" text-anchor="start">mir_toolkit/events</text><text x="1263" y="-136" fill="#000" font-family="Arial" font-size="10" text-anchor="middle">/window_output_event.h</text></a></g></g><g id="edge39" class="edge"><title>Node2-&gt;Node22</title><path fill="none" stroke="#191970" d="M1015.081,-203.2765C1058.6923,-193.2418 1121.8511,-178.854 1177,-165 1181.2731,-163.9266 1185.6726,-162.7958 1190.1184,-161.6385"/><polygon fill="#191970" stroke="#191970" points="1191.109 -164.997 1199.894 -159.075 1189.333 -158.226 1191.109 -164.997"/></g><g id="node24" class="node"><title>Node23</title><g id="a_node24"><a target="_top" xlink:href="input__device__state__event_8h.html" xlink:title="mir_toolkit/events\l/input_device_state\l_event.h"><polygon fill="#fff" stroke="#000" points="1349 -123.5 1349 -164.5 1461 -164.5 1461 -123.5 1349 -123.5"/><text x="1357" y="-152.5" fill="#000" font-family="Arial" font-size="10" text-anchor="start">mir_toolkit/events</text><text x="1357" y="-141.5" fill="#000" font-family="Arial" font-size="10" text-anchor="start">/input_device_state</text><text x="1405" y="-130.5" fill="#000" font-family="Arial" font-size="10" text-anchor="middle">_event.h</text></a></g></g><g id="edge41" class="edge"><title>Node2-&gt;Node23</title><path fill="none" stroke="#191970" d="M1015.2387,-211.676C1087.4731,-204.8506 1219.927,-190.2992 1331,-165 1333.6197,-164.4033 1336.2849,-163.7477 1338.9731,-163.0484"/><polygon fill="#191970" stroke="#191970" points="1340.056 -166.381 1348.768 -160.352 1338.198 -159.632 1340.056 -166.381"/></g><g id="edge6" class="edge"><title>Node5-&gt;Node6</title><path fill="none" stroke="#191970" d="M141.2727,-134.2223C156.2816,-122.2646 181.8969,-101.8569 199.8208,-87.5768"/><polygon fill="#191970" stroke="#191970" points="202.281 -90.091 207.922 -81.123 197.92 -84.617 202.281 -90.091"/></g><g id="edge9" class="edge"><title>Node7-&gt;Node2</title><path fill="none" stroke="#191970" d="M1536.5826,-159.08C1528.5526,-161.3419 1520.0767,-163.4363 1512,-165 1338.268,-198.6359 1128.7093,-210.6291 1025.5368,-214.6377"/><polygon fill="#191970" stroke="#191970" points="1025.15 -211.15 1015.289 -215.023 1025.414 -218.145 1025.15 -211.15"/></g><g id="edge12" class="edge"><title>Node7-&gt;Node4</title><path fill="none" stroke="#191970" d="M1599.445,-128.8888C1625.9869,-111.2272 1661.133,-81.2055 1641,-56 1620.5967,-30.4561 1527.6268,-18.0412 1474.8609,-12.9569"/><polygon fill="#191970" stroke="#191970" points="1475.156 -9.469 1464.877 -12.036 1474.513 -16.44 1475.156 -9.469"/></g><g id="node9" class="node"><title>Node8</title><g id="a_node9"><a target="_top" xlink:href="mir__input__device__types_8h.html" xlink:title="mir_toolkit/mir_input\l_device_types.h"><polygon fill="#fff" stroke="#000" points="1378.5 -56.5 1378.5 -86.5 1497.5 -86.5 1497.5 -56.5 1378.5 -56.5"/><text x="1386.5" y="-74.5" fill="#000" font-family="Arial" font-size="10" text-anchor="start">mir_toolkit/mir_input</text><text x="1438" y="-63.5" fill="#000" font-family="Arial" font-size="10" text-anchor="middle">_device_types.h</text></a></g></g><g id="edge10" class="edge"><title>Node7-&gt;Node8</title><path fill="none" stroke="#191970" d="M1545.8207,-128.978C1525.3062,-118.0419 1497.326,-103.126 1475.0102,-91.2297"/><polygon fill="#191970" stroke="#191970" points="1476.614 -88.118 1466.143 -86.503 1473.321 -94.296 1476.614 -88.118"/></g><g id="node10" class="node"><title>Node9</title><polygon fill="#fff" stroke="#bfbfbf" points="1712 -.5 1712 -19.5 1774 -19.5 1774 -.5 1712 -.5"/><text x="1743" y="-7.5" fill="#000" font-family="Arial" font-size="10" text-anchor="middle">stdbool.h</text></g><g id="edge13" class="edge"><title>Node7-&gt;Node9</title><path fill="none" stroke="#191970" d="M1597.8283,-128.8098C1614.7383,-117.7501 1637.7573,-102.1205 1657,-87 1681.7817,-67.5272 1708.571,-42.9205 1725.549,-26.8365"/><polygon fill="#191970" stroke="#191970" points="1728.225 -29.121 1733.044 -19.685 1723.393 -24.056 1728.225 -29.121"/></g><g id="node11" class="node"><title>Node10</title><g id="a_node11"><a target="_top" xlink:href="touch__event_8h.html" xlink:title="mir_toolkit/events\l/input/touch_event.h"><polygon fill="#fff" stroke="#000" points="1516 -56.5 1516 -86.5 1632 -86.5 1632 -56.5 1516 -56.5"/><text x="1524" y="-74.5" fill="#000" font-family="Arial" font-size="10" text-anchor="start">mir_toolkit/events</text><text x="1574" y="-63.5" fill="#000" font-family="Arial" font-size="10" text-anchor="middle">/input/touch_event.h</text></a></g></g><g id="edge14" class="edge"><title>Node7-&gt;Node10</title><path fill="none" stroke="#191970" d="M1574,-128.978C1574,-119.6459 1574,-107.4157 1574,-96.6368"/><polygon fill="#191970" stroke="#191970" points="1577.5 -96.503 1574 -86.503 1570.5 -96.503 1577.5 -96.503"/></g><g id="node12" class="node"><title>Node11</title><g id="a_node12"><a target="_top" xlink:href="keyboard__event_8h.html" xlink:title="mir_toolkit/events\l/input/keyboard_event.h"><polygon fill="#fff" stroke="#000" points="1868.5 -56.5 1868.5 -86.5 2003.5 -86.5 2003.5 -56.5 1868.5 -56.5"/><text x="1876.5" y="-74.5" fill="#000" font-family="Arial" font-size="10" text-anchor="start">mir_toolkit/events</text><text x="1936" y="-63.5" fill="#000" font-family="Arial" font-size="10" text-anchor="middle">/input/keyboard_event.h</text></a></g></g><g id="edge15" class="edge"><title>Node7-&gt;Node11</title><path fill="none" stroke="#191970" d="M1618.1288,-128.9877C1625.3869,-126.7995 1632.8676,-124.7114 1640,-123 1732.8261,-100.7272 1760.2163,-104.4583 1858.3739,-87.0562"/><polygon fill="#191970" stroke="#191970" points="1859.199 -90.464 1868.42 -85.246 1857.958 -83.575 1859.199 -90.464"/></g><g id="node14" class="node"><title>Node13</title><g id="a_node14"><a target="_top" xlink:href="pointer__event_8h.html" xlink:title="mir_toolkit/events\l/input/pointer_event.h"><polygon fill="#fff" stroke="#000" points="1726 -56.5 1726 -86.5 1850 -86.5 1850 -56.5 1726 -56.5"/><text x="1734" y="-74.5" fill="#000" font-family="Arial" font-size="10" text-anchor="start">mir_toolkit/events</text><text x="1788" y="-63.5" fill="#000" font-family="Arial" font-size="10" text-anchor="middle">/input/pointer_event.h</text></a></g></g><g id="edge17" class="edge"><title>Node7-&gt;Node13</title><path fill="none" stroke="#191970" d="M1618.3409,-128.978C1651.9123,-117.6045 1698.1898,-101.9263 1733.9331,-89.8171"/><polygon fill="#191970" stroke="#191970" points="1735.368 -93.026 1743.716 -86.503 1733.122 -86.397 1735.368 -93.026"/></g><g id="edge11" class="edge"><title>Node8-&gt;Node4</title><path fill="none" stroke="#191970" d="M1438,-56.2977C1438,-48.3834 1438,-38.6043 1438,-30.0759"/><polygon fill="#191970" stroke="#191970" points="1441.5 -29.847 1438 -19.847 1434.5 -29.847 1441.5 -29.847"/></g><g id="node13" class="node"><title>Node12</title><polygon fill="#fff" stroke="#bfbfbf" points="1909 -.5 1909 -19.5 2059 -19.5 2059 -.5 1909 -.5"/><text x="1984" y="-7.5" fill="#000" font-family="Arial" font-size="10" text-anchor="middle">xkbcommon/xkbcommon.h</text></g><g id="edge16" class="edge"><title>Node11-&gt;Node12</title><path fill="none" stroke="#191970" d="M1947.8652,-56.2977C1954.5975,-47.672 1963.0585,-36.8312 1970.1006,-27.8087"/><polygon fill="#191970" stroke="#191970" points="1972.921 -29.884 1976.315 -19.847 1967.403 -25.577 1972.921 -29.884"/></g><g id="edge18" class="edge"><title>Node13-&gt;Node9</title><path fill="none" stroke="#191970" d="M1776.8764,-56.2977C1770.6299,-47.7609 1762.796,-37.0545 1756.2353,-28.0883"/><polygon fill="#191970" stroke="#191970" points="1758.935 -25.851 1750.205 -19.847 1753.286 -29.984 1758.935 -25.851"/></g><g id="edge20" class="edge"><title>Node14-&gt;Node2</title><path fill="none" stroke="#191970" d="M761.1536,-159.0372C767.5187,-161.1042 773.9107,-163.1498 780,-165 819.9488,-177.138 865.0288,-189.3618 900.3937,-198.8525"/><polygon fill="#191970" stroke="#191970" points="899.533 -202.245 910.098 -201.454 901.346 -195.484 899.533 -202.245"/></g><g id="edge22" class="edge"><title>Node15-&gt;Node2</title><path fill="none" stroke="#191970" d="M350.4751,-159.0928C357.9876,-161.3826 365.6612,-163.4831 373,-165 472.6043,-185.5882 768.0302,-204.7238 898.7201,-212.6504"/><polygon fill="#191970" stroke="#191970" points="898.775 -216.16 908.968 -213.269 899.197 -209.173 898.775 -216.16"/></g><g id="edge23" class="edge"><title>Node15-&gt;Node6</title><path fill="none" stroke="#191970" d="M284.2167,-128.978C270.8915,-117.051 252.2775,-100.3903 238.5189,-88.0756"/><polygon fill="#191970" stroke="#191970" points="240.841 -85.457 231.056 -81.396 236.173 -90.673 240.841 -85.457"/></g><g id="edge25" class="edge"><title>Node16-&gt;Node2</title><path fill="none" stroke="#191970" d="M865.285,-159.0028C885.8161,-169.7884 912.0866,-184.4525 932.1339,-196.2718"/><polygon fill="#191970" stroke="#191970" points="930.482 -199.362 940.864 -201.478 934.068 -193.35 930.482 -199.362"/></g><g id="edge27" class="edge"><title>Node17-&gt;Node2</title><path fill="none" stroke="#191970" d="M967.5903,-159.0028C968.7494,-168.3309 969.0396,-180.5601 968.461,-191.3409"/><polygon fill="#191970" stroke="#191970" points="964.959 -191.216 967.593 -201.478 971.933 -191.813 964.959 -191.216"/></g><g id="edge29" class="edge"><title>Node18-&gt;Node2</title><path fill="none" stroke="#191970" d="M1082.5847,-159.0028C1061.898,-170.0313 1031.8865,-185.115 1006.9259,-197.066"/><polygon fill="#191970" stroke="#191970" points="1005.168 -194.026 997.637 -201.478 1008.171 -200.349 1005.168 -194.026"/></g><g id="edge31" class="edge"><title>Node19-&gt;Node2</title><path fill="none" stroke="#191970" d="M1671.2288,-159.0552C1664.0301,-161.3792 1656.3493,-163.5011 1649,-165 1531.2442,-189.0171 1171.9001,-207.4086 1025.2336,-213.93"/><polygon fill="#191970" stroke="#191970" points="1024.884 -210.442 1015.047 -214.379 1025.192 -217.435 1024.884 -210.442"/></g><g id="edge32" class="edge"><title>Node19-&gt;Node12</title><path fill="none" stroke="#191970" d="M1743.0464,-128.9261C1749.978,-126.7192 1757.1478,-124.6412 1764,-123 1818.3709,-109.9776 1976.4042,-129.2673 2013,-87 2027.81,-69.8949 2013.1923,-44.48 1999.8922,-27.586"/><polygon fill="#191970" stroke="#191970" points="2002.323 -25.038 1993.22 -19.617 1996.956 -29.532 2002.323 -25.038"/></g><g id="edge34" class="edge"><title>Node20-&gt;Node2</title><path fill="none" stroke="#191970" d="M485.5736,-160.3847C491.7727,-162.1293 498.0009,-163.728 504,-165 643.31,-194.5391 809.8076,-207.7405 898.7622,-213.1497"/><polygon fill="#191970" stroke="#191970" points="898.767 -216.656 908.957 -213.756 899.183 -209.668 898.767 -216.656"/></g><g id="edge35" class="edge"><title>Node20-&gt;Node6</title><path fill="none" stroke="#191970" d="M372.4416,-124.3805C335.898,-111.7039 289.3681,-95.5631 257.3819,-84.4674"/><polygon fill="#191970" stroke="#191970" points="258.134 -81.024 247.539 -81.053 255.839 -87.637 258.134 -81.024"/></g><g id="edge37" class="edge"><title>Node21-&gt;Node2</title><path fill="none" stroke="#191970" d="M631.6249,-159.0952C639.8214,-161.2226 648.1109,-163.2704 656,-165 739.4478,-183.2949 836.6277,-198.2321 898.7711,-207.2208"/><polygon fill="#191970" stroke="#191970" points="898.419 -210.706 908.816 -208.666 899.416 -203.777 898.419 -210.706"/></g><g id="edge38" class="edge"><title>Node21-&gt;Node6</title><path fill="none" stroke="#191970" d="M518.8174,-128.9571C510.8666,-126.8463 502.7352,-124.7896 495,-123 425.279,-106.8694 344.7253,-92.2481 288.8999,-82.7415"/><polygon fill="#191970" stroke="#191970" points="289.216 -79.245 278.772 -81.027 288.047 -86.147 289.216 -79.245"/></g><g id="edge40" class="edge"><title>Node22-&gt;Node2</title><path fill="none" stroke="#191970" d="M1217.7156,-159.0746C1210.1608,-161.115 1202.3913,-163.1432 1195,-165 1138.0324,-179.3109 1072.518,-194.1913 1025.4093,-204.2549"/><polygon fill="#191970" stroke="#191970" points="1024.403 -200.89 1015.347 -206.39 1025.856 -207.738 1024.403 -200.89"/></g><g id="edge42" class="edge"><title>Node23-&gt;Node2</title><path fill="none" stroke="#191970" d="M1351.0902,-164.5138C1350.3907,-164.6798 1349.6938,-164.842 1349,-165 1236.6739,-190.5847 1102.4818,-205.1775 1025.1708,-211.904"/><polygon fill="#191970" stroke="#191970" points="1024.775 -208.425 1015.109 -212.763 1025.37 -215.4 1024.775 -208.425"/></g></g></svg>