<svg xmlns="http://www.w3.org/2000/svg" xmlns:xlink="http://www.w3.org/1999/xlink" width="1862pt" height="424" viewBox="0 0 1861.97 318"><g id="graph0" class="graph" transform="scale(1 1) rotate(0) translate(4 314)"><title>include/client/mir_toolkit/events/surface_event.h</title><polygon fill="#fff" stroke="transparent" points="-4 4 -4 -314 1857.975 -314 1857.975 4 -4 4"/><g id="node1" class="node"><title>Node0</title><polygon fill="#bfbfbf" stroke="#000" points="1021.686 -268.5 1021.686 -309.5 1149.686 -309.5 1149.686 -268.5 1021.686 -268.5"/><text x="1029.686" y="-297.5" fill="#000" font-family="Arial" font-size="10" text-anchor="start">include/client/mir</text><text x="1029.686" y="-286.5" fill="#000" font-family="Arial" font-size="10" text-anchor="start">_toolkit/events/surface</text><text x="1085.686" y="-275.5" fill="#000" font-family="Arial" font-size="10" text-anchor="middle">_event.h</text></g><g id="node2" class="node"><title>Node1</title><g id="a_node2"><a target="_top" xlink:href="toolkit_2events_2event_8h.html" xlink:title="mir_toolkit/events\l/event.h"><polygon fill="#fff" stroke="#000" points="1032.686 -201.5 1032.686 -231.5 1138.686 -231.5 1138.686 -201.5 1032.686 -201.5"/><text x="1040.686" y="-219.5" fill="#000" font-family="Arial" font-size="10" text-anchor="start">mir_toolkit/events</text><text x="1085.686" y="-208.5" fill="#000" font-family="Arial" font-size="10" text-anchor="middle">/event.h</text></a></g></g><g id="edge1" class="edge"><title>Node0-&gt;Node1</title><path fill="none" stroke="#191970" d="M1079.5306,-268.4183C1078.857,-260.0849 1078.7554,-250.3834 1079.2259,-241.6373"/><polygon fill="#191970" stroke="#191970" points="1082.719 -241.861 1080.083 -231.599 1075.745 -241.265 1082.719 -241.861"/></g><g id="node6" class="node"><title>Node5</title><g id="a_node6"><a target="_top" xlink:href="deprecations_8h.html" xlink:title="mir_toolkit/deprecations.h"><polygon fill="#fff" stroke="#000" points="1196.186 -62 1196.186 -81 1341.186 -81 1341.186 -62 1196.186 -62"/><text x="1268.686" y="-69" fill="#000" font-family="Arial" font-size="10" text-anchor="middle">mir_toolkit/deprecations.h</text></a></g></g><g id="edge40" class="edge"><title>Node0-&gt;Node5</title><path fill="none" stroke="#191970" d="M1149.7256,-283.2543C1324.49,-266.9329 1799.6154,-218.0311 1844.6857,-165 1856.7742,-150.7763 1857.2836,-136.7745 1844.6857,-123 1812.0851,-87.3546 1502.9701,-76.1978 1351.5154,-72.8554"/><polygon fill="#191970" stroke="#191970" points="1351.403 -69.352 1341.33 -72.637 1351.253 -76.351 1351.403 -69.352"/></g><g id="edge20" class="edge"><title>Node1-&gt;Node0</title><path fill="none" stroke="#191970" d="M1091.288,-231.5991C1092.2441,-239.3508 1092.6029,-249.0871 1092.3642,-258.3279"/><polygon fill="#191970" stroke="#191970" points="1088.864 -258.25 1091.841 -268.418 1095.854 -258.613 1088.864 -258.25"/></g><g id="node3" class="node"><title>Node2</title><polygon fill="#fff" stroke="#bfbfbf" points="1779.686 -134.5 1779.686 -153.5 1835.686 -153.5 1835.686 -134.5 1779.686 -134.5"/><text x="1807.686" y="-141.5" fill="#000" font-family="Arial" font-size="10" text-anchor="middle">stddef.h</text></g><g id="edge2" class="edge"><title>Node1-&gt;Node2</title><path fill="none" stroke="#191970" d="M1138.894,-215.5033C1278.5199,-212.4109 1652.7499,-200.9187 1770.6857,-165 1775.6361,-163.4923 1780.6482,-161.2369 1785.3174,-158.7561"/><polygon fill="#191970" stroke="#191970" points="1787.421 -161.581 1794.291 -153.514 1783.89 -155.536 1787.421 -161.581"/></g><g id="node4" class="node"><title>Node3</title><polygon fill="#fff" stroke="#bfbfbf" points="133.186 -.5 133.186 -19.5 186.186 -19.5 186.186 -.5 133.186 -.5"/><text x="159.686" y="-7.5" fill="#000" font-family="Arial" font-size="10" text-anchor="middle">stdint.h</text></g><g id="edge3" class="edge"><title>Node1-&gt;Node3</title><path fill="none" stroke="#191970" d="M1032.5467,-215.2783C870.0206,-211.2327 381.2248,-196.6887 225.6857,-165 124.4429,-144.3733 66.2412,-171.4316 6.6857,-87 -24.8753,-42.2561 68.1196,-22.0422 122.82,-14.2191"/><polygon fill="#191970" stroke="#191970" points="123.435 -17.668 132.875 -12.858 122.496 -10.731 123.435 -17.668"/></g><g id="node5" class="node"><title>Node4</title><g id="a_node5"><a target="_top" xlink:href="common_8h.html" xlink:title="mir_toolkit/common.h"><polygon fill="#fff" stroke="#000" points="491.186 -134.5 491.186 -153.5 616.186 -153.5 616.186 -134.5 491.186 -134.5"/><text x="553.686" y="-141.5" fill="#000" font-family="Arial" font-size="10" text-anchor="middle">mir_toolkit/common.h</text></a></g></g><g id="edge4" class="edge"><title>Node1-&gt;Node4</title><path fill="none" stroke="#191970" d="M1032.4521,-213.5273C946.2965,-208.0498 771.2606,-194.1525 625.6857,-165 614.5422,-162.7684 602.6279,-159.6175 591.7637,-156.4334"/><polygon fill="#191970" stroke="#191970" points="592.719 -153.066 582.134 -153.525 590.695 -159.767 592.719 -153.066"/></g><g id="edge6" class="edge"><title>Node1-&gt;Node5</title><path fill="none" stroke="#191970" d="M1111.7151,-201.4848C1127.4234,-191.9064 1147.468,-178.7429 1163.6857,-165 1183.1197,-148.5316 1183.9177,-140.2236 1202.6857,-123 1216.7401,-110.102 1233.7318,-96.8924 1246.9546,-87.081"/><polygon fill="#191970" stroke="#191970" points="1249.034 -89.896 1255.031 -81.162 1244.896 -84.25 1249.034 -89.896"/></g><g id="node7" class="node"><title>Node6</title><g id="a_node7"><a target="_top" xlink:href="input__event_8h.html" xlink:title="mir_toolkit/events\l/input/input_event.h"><polygon fill="#fff" stroke="#000" points="234.686 -129 234.686 -159 348.686 -159 348.686 -129 234.686 -129"/><text x="242.686" y="-147" fill="#000" font-family="Arial" font-size="10" text-anchor="start">mir_toolkit/events</text><text x="291.686" y="-136" fill="#000" font-family="Arial" font-size="10" text-anchor="middle">/input/input_event.h</text></a></g></g><g id="edge7" class="edge"><title>Node1-&gt;Node6</title><path fill="none" stroke="#191970" d="M1032.5029,-214.545C886.0065,-208.6757 479.4259,-190.0543 348.6857,-165 344.1796,-164.1365 339.5506,-163.0639 334.9652,-161.8636"/><polygon fill="#191970" stroke="#191970" points="335.636 -158.416 325.061 -159.064 333.732 -165.152 335.636 -158.416"/></g><g id="node14" class="node"><title>Node13</title><g id="a_node14"><a target="_top" xlink:href="resize__event_8h.html" xlink:title="mir_toolkit/events\l/resize_event.h"><polygon fill="#fff" stroke="#000" points="634.686 -129 634.686 -159 740.686 -159 740.686 -129 634.686 -129"/><text x="642.686" y="-147" fill="#000" font-family="Arial" font-size="10" text-anchor="start">mir_toolkit/events</text><text x="687.686" y="-136" fill="#000" font-family="Arial" font-size="10" text-anchor="middle">/resize_event.h</text></a></g></g><g id="edge18" class="edge"><title>Node1-&gt;Node13</title><path fill="none" stroke="#191970" d="M1032.4082,-211.8881C963.9392,-204.902 842.164,-189.762 740.6857,-165 737.0492,-164.1126 733.3221,-163.106 729.6071,-162.0254"/><polygon fill="#191970" stroke="#191970" points="730.459 -158.626 719.872 -159.024 728.397 -165.315 730.459 -158.626"/></g><g id="node15" class="node"><title>Node14</title><g id="a_node15"><a target="_top" xlink:href="window__event_8h.html" xlink:title="mir_toolkit/events\l/window_event.h"><polygon fill="#fff" stroke="#000" points="758.686 -129 758.686 -159 864.686 -159 864.686 -129 758.686 -129"/><text x="766.686" y="-147" fill="#000" font-family="Arial" font-size="10" text-anchor="start">mir_toolkit/events</text><text x="811.686" y="-136" fill="#000" font-family="Arial" font-size="10" text-anchor="middle">/window_event.h</text></a></g></g><g id="edge21" class="edge"><title>Node1-&gt;Node14</title><path fill="none" stroke="#191970" d="M1032.4896,-206.5101C987.3167,-196.8898 921.2492,-181.4149 864.6857,-165 861.5751,-164.0973 858.3887,-163.1353 855.1943,-162.1385"/><polygon fill="#191970" stroke="#191970" points="856.247 -158.8 845.655 -159.067 854.101 -165.464 856.247 -158.8"/></g><g id="node16" class="node"><title>Node15</title><g id="a_node16"><a target="_top" xlink:href="orientation__event_8h.html" xlink:title="mir_toolkit/events\l/orientation_event.h"><polygon fill="#fff" stroke="#000" points="883.186 -129 883.186 -159 998.186 -159 998.186 -129 883.186 -129"/><text x="891.186" y="-147" fill="#000" font-family="Arial" font-size="10" text-anchor="start">mir_toolkit/events</text><text x="940.686" y="-136" fill="#000" font-family="Arial" font-size="10" text-anchor="middle">/orientation_event.h</text></a></g></g><g id="edge23" class="edge"><title>Node1-&gt;Node15</title><path fill="none" stroke="#191970" d="M1050.0489,-201.478C1026.8199,-190.5419 996.8244,-175.626 974.0612,-163.7297"/><polygon fill="#191970" stroke="#191970" points="975.579 -160.573 965.101 -159.003 972.313 -166.764 975.579 -160.573"/></g><g id="node17" class="node"><title>Node16</title><g id="a_node17"><a target="_top" xlink:href="prompt__session__event_8h.html" xlink:title="mir_toolkit/events\l/prompt_session_event.h"><polygon fill="#fff" stroke="#000" points="1016.186 -129 1016.186 -159 1155.186 -159 1155.186 -129 1016.186 -129"/><text x="1024.186" y="-147" fill="#000" font-family="Arial" font-size="10" text-anchor="start">mir_toolkit/events</text><text x="1085.686" y="-136" fill="#000" font-family="Arial" font-size="10" text-anchor="middle">/prompt_session_event.h</text></a></g></g><g id="edge25" class="edge"><title>Node1-&gt;Node16</title><path fill="none" stroke="#191970" d="M1080.093,-201.478C1078.9351,-192.1459 1078.6461,-179.9157 1079.2259,-169.1368"/><polygon fill="#191970" stroke="#191970" points="1082.728 -169.265 1080.095 -159.003 1075.753 -168.667 1082.728 -169.265"/></g><g id="node18" class="node"><title>Node17</title><g id="a_node18"><a target="_top" xlink:href="keymap__event_8h.html" xlink:title="mir_toolkit/events\l/keymap_event.h"><polygon fill="#fff" stroke="#000" points="366.686 -129 366.686 -159 472.686 -159 472.686 -129 366.686 -129"/><text x="374.686" y="-147" fill="#000" font-family="Arial" font-size="10" text-anchor="start">mir_toolkit/events</text><text x="419.686" y="-136" fill="#000" font-family="Arial" font-size="10" text-anchor="middle">/keymap_event.h</text></a></g></g><g id="edge27" class="edge"><title>Node1-&gt;Node17</title><path fill="none" stroke="#191970" d="M1032.4599,-213.8584C903.6552,-206.9047 578.5391,-187.0997 472.6857,-165 468.7312,-164.1744 464.6795,-163.1732 460.658,-162.061"/><polygon fill="#191970" stroke="#191970" points="461.38 -158.624 450.796 -159.105 459.37 -165.329 461.38 -158.624"/></g><g id="node19" class="node"><title>Node18</title><g id="a_node19"><a target="_top" xlink:href="input__configuration__event_8h.html" xlink:title="mir_toolkit/events\l/input_configuration\l_event.h"><polygon fill="#fff" stroke="#000" points="1212.186 -123.5 1212.186 -164.5 1325.186 -164.5 1325.186 -123.5 1212.186 -123.5"/><text x="1220.186" y="-152.5" fill="#000" font-family="Arial" font-size="10" text-anchor="start">mir_toolkit/events</text><text x="1220.186" y="-141.5" fill="#000" font-family="Arial" font-size="10" text-anchor="start">/input_configuration</text><text x="1268.686" y="-130.5" fill="#000" font-family="Arial" font-size="10" text-anchor="middle">_event.h</text></a></g></g><g id="edge30" class="edge"><title>Node1-&gt;Node18</title><path fill="none" stroke="#191970" d="M1118.0107,-201.478C1141.3532,-191.7522 1173.5847,-178.8786 1202.2781,-167.7807"/><polygon fill="#191970" stroke="#191970" points="1203.781 -170.952 1211.855 -164.092 1201.266 -164.42 1203.781 -170.952"/></g><g id="node20" class="node"><title>Node19</title><g id="a_node20"><a target="_top" xlink:href="surface__output__event_8h.html" xlink:title="mir_toolkit/events\l/surface_output_event.h"><polygon fill="#fff" stroke="#000" points="1343.686 -129 1343.686 -159 1477.686 -159 1477.686 -129 1343.686 -129"/><text x="1351.686" y="-147" fill="#000" font-family="Arial" font-size="10" text-anchor="start">mir_toolkit/events</text><text x="1410.686" y="-136" fill="#000" font-family="Arial" font-size="10" text-anchor="middle">/surface_output_event.h</text></a></g></g><g id="edge33" class="edge"><title>Node1-&gt;Node19</title><path fill="none" stroke="#191970" d="M1139.0861,-205.116C1187.8848,-195.3433 1261.7461,-180.4284 1325.6857,-165 1330.0708,-163.9419 1334.5862,-162.8082 1339.145,-161.636"/><polygon fill="#191970" stroke="#191970" points="1340.368 -164.934 1349.16 -159.023 1338.601 -158.161 1340.368 -164.934"/></g><g id="node21" class="node"><title>Node20</title><g id="a_node21"><a target="_top" xlink:href="window__output__event_8h.html" xlink:title="mir_toolkit/events\l/window_output_event.h"><polygon fill="#fff" stroke="#000" points="1495.686 -129 1495.686 -159 1631.686 -159 1631.686 -129 1495.686 -129"/><text x="1503.686" y="-147" fill="#000" font-family="Arial" font-size="10" text-anchor="start">mir_toolkit/events</text><text x="1563.686" y="-136" fill="#000" font-family="Arial" font-size="10" text-anchor="middle">/window_output_event.h</text></a></g></g><g id="edge36" class="edge"><title>Node1-&gt;Node20</title><path fill="none" stroke="#191970" d="M1138.7389,-211.4845C1214.4807,-204.2356 1357.4011,-189.0063 1477.6857,-165 1482.9512,-163.9491 1488.3868,-162.7352 1493.8517,-161.4317"/><polygon fill="#191970" stroke="#191970" points="1494.819 -164.798 1503.69 -159.005 1493.142 -158.002 1494.819 -164.798"/></g><g id="node22" class="node"><title>Node21</title><g id="a_node22"><a target="_top" xlink:href="input__device__state__event_8h.html" xlink:title="mir_toolkit/events\l/input_device_state\l_event.h"><polygon fill="#fff" stroke="#000" points="1649.686 -123.5 1649.686 -164.5 1761.686 -164.5 1761.686 -123.5 1649.686 -123.5"/><text x="1657.686" y="-152.5" fill="#000" font-family="Arial" font-size="10" text-anchor="start">mir_toolkit/events</text><text x="1657.686" y="-141.5" fill="#000" font-family="Arial" font-size="10" text-anchor="start">/input_device_state</text><text x="1705.686" y="-130.5" fill="#000" font-family="Arial" font-size="10" text-anchor="middle">_event.h</text></a></g></g><g id="edge38" class="edge"><title>Node1-&gt;Node21</title><path fill="none" stroke="#191970" d="M1138.8105,-215.2866C1237.1244,-212.241 1453.2423,-201.6387 1631.6857,-165 1634.3176,-164.4596 1636.9928,-163.8504 1639.6892,-163.1887"/><polygon fill="#191970" stroke="#191970" points="1640.733 -166.533 1649.506 -160.593 1638.944 -159.766 1640.733 -166.533"/></g><g id="edge5" class="edge"><title>Node4-&gt;Node5</title><path fill="none" stroke="#191970" d="M581.4051,-134.4787C594.6547,-130.2996 610.8306,-125.7317 625.6857,-123 730.9319,-103.6463 1037.3794,-84.4879 1185.9743,-76.0189"/><polygon fill="#191970" stroke="#191970" points="1186.177 -79.513 1195.963 -75.452 1185.781 -72.524 1186.177 -79.513"/></g><g id="edge8" class="edge"><title>Node6-&gt;Node1</title><path fill="none" stroke="#191970" d="M342.7527,-159.064C350.7293,-161.3871 358.8914,-163.5064 366.6857,-165 492.0564,-189.0253 871.0755,-207.1353 1022.3972,-213.7578"/><polygon fill="#191970" stroke="#191970" points="1022.319 -217.258 1032.461 -214.196 1022.623 -210.264 1022.319 -217.258"/></g><g id="edge11" class="edge"><title>Node6-&gt;Node3</title><path fill="none" stroke="#191970" d="M240.361,-128.9257C218.4104,-120.0367 194.2949,-106.5906 178.6857,-87 165.7189,-70.7257 161.4402,-46.832 160.1107,-29.9863"/><polygon fill="#191970" stroke="#191970" points="163.588 -29.442 159.591 -19.63 156.597 -29.793 163.588 -29.442"/></g><g id="node8" class="node"><title>Node7</title><g id="a_node8"><a target="_top" xlink:href="mir__input__device__types_8h.html" xlink:title="mir_toolkit/mir_input\l_device_types.h"><polygon fill="#fff" stroke="#000" points="188.186 -56.5 188.186 -86.5 307.186 -86.5 307.186 -56.5 188.186 -56.5"/><text x="196.186" y="-74.5" fill="#000" font-family="Arial" font-size="10" text-anchor="start">mir_toolkit/mir_input</text><text x="247.686" y="-63.5" fill="#000" font-family="Arial" font-size="10" text-anchor="middle">_device_types.h</text></a></g></g><g id="edge9" class="edge"><title>Node6-&gt;Node7</title><path fill="none" stroke="#191970" d="M282.5689,-128.978C276.6693,-119.257 268.8612,-106.3915 262.1282,-95.2974"/><polygon fill="#191970" stroke="#191970" points="264.971 -93.236 256.791 -86.503 258.987 -96.868 264.971 -93.236"/></g><g id="node9" class="node"><title>Node8</title><polygon fill="#fff" stroke="#bfbfbf" points="349.686 -.5 349.686 -19.5 411.686 -19.5 411.686 -.5 349.686 -.5"/><text x="380.686" y="-7.5" fill="#000" font-family="Arial" font-size="10" text-anchor="middle">stdbool.h</text></g><g id="edge12" class="edge"><title>Node6-&gt;Node8</title><path fill="none" stroke="#191970" d="M301.7221,-128.889C318.2324,-104.0307 351.0511,-54.6184 368.7347,-27.9937"/><polygon fill="#191970" stroke="#191970" points="371.69 -29.871 374.307 -19.604 365.859 -25.998 371.69 -29.871"/></g><g id="node10" class="node"><title>Node9</title><g id="a_node10"><a target="_top" xlink:href="touch__event_8h.html" xlink:title="mir_toolkit/events\l/input/touch_event.h"><polygon fill="#fff" stroke="#000" points="15.686 -56.5 15.686 -86.5 131.686 -86.5 131.686 -56.5 15.686 -56.5"/><text x="23.686" y="-74.5" fill="#000" font-family="Arial" font-size="10" text-anchor="start">mir_toolkit/events</text><text x="73.686" y="-63.5" fill="#000" font-family="Arial" font-size="10" text-anchor="middle">/input/touch_event.h</text></a></g></g><g id="edge13" class="edge"><title>Node6-&gt;Node9</title><path fill="none" stroke="#191970" d="M246.516,-128.978C212.1709,-117.5559 164.7714,-101.7923 128.297,-89.662"/><polygon fill="#191970" stroke="#191970" points="129.391 -86.338 118.798 -86.503 127.182 -92.98 129.391 -86.338"/></g><g id="node11" class="node"><title>Node10</title><g id="a_node11"><a target="_top" xlink:href="keyboard__event_8h.html" xlink:title="mir_toolkit/events\l/input/keyboard_event.h"><polygon fill="#fff" stroke="#000" points="506.186 -56.5 506.186 -86.5 641.186 -86.5 641.186 -56.5 506.186 -56.5"/><text x="514.186" y="-74.5" fill="#000" font-family="Arial" font-size="10" text-anchor="start">mir_toolkit/events</text><text x="573.686" y="-63.5" fill="#000" font-family="Arial" font-size="10" text-anchor="middle">/input/keyboard_event.h</text></a></g></g><g id="edge14" class="edge"><title>Node6-&gt;Node10</title><path fill="none" stroke="#191970" d="M337.3557,-128.9863C344.1471,-126.8941 351.082,-124.8351 357.6857,-123 403.1522,-110.3652 454.5229,-98.0386 495.7567,-88.6143"/><polygon fill="#191970" stroke="#191970" points="496.766 -91.974 505.74 -86.344 495.213 -85.149 496.766 -91.974"/></g><g id="node13" class="node"><title>Node12</title><g id="a_node13"><a target="_top" xlink:href="pointer__event_8h.html" xlink:title="mir_toolkit/events\l/input/pointer_event.h"><polygon fill="#fff" stroke="#000" points="363.686 -56.5 363.686 -86.5 487.686 -86.5 487.686 -56.5 363.686 -56.5"/><text x="371.686" y="-74.5" fill="#000" font-family="Arial" font-size="10" text-anchor="start">mir_toolkit/events</text><text x="425.686" y="-63.5" fill="#000" font-family="Arial" font-size="10" text-anchor="middle">/input/pointer_event.h</text></a></g></g><g id="edge16" class="edge"><title>Node6-&gt;Node12</title><path fill="none" stroke="#191970" d="M319.4506,-128.978C339.5736,-118.0905 366.9872,-103.2585 388.9263,-91.3885"/><polygon fill="#191970" stroke="#191970" points="390.827 -94.34 397.956 -86.503 387.496 -88.183 390.827 -94.34"/></g><g id="edge10" class="edge"><title>Node7-&gt;Node3</title><path fill="none" stroke="#191970" d="M225.9329,-56.2977C212.4889,-46.9022 195.2845,-34.8787 181.7779,-25.4395"/><polygon fill="#191970" stroke="#191970" points="183.714 -22.523 173.513 -19.663 179.705 -28.261 183.714 -22.523"/></g><g id="node12" class="node"><title>Node11</title><polygon fill="#fff" stroke="#bfbfbf" points="546.686 -.5 546.686 -19.5 696.686 -19.5 696.686 -.5 546.686 -.5"/><text x="621.686" y="-7.5" fill="#000" font-family="Arial" font-size="10" text-anchor="middle">xkbcommon/xkbcommon.h</text></g><g id="edge15" class="edge"><title>Node10-&gt;Node11</title><path fill="none" stroke="#191970" d="M585.5509,-56.2977C592.2832,-47.672 600.7442,-36.8312 607.7862,-27.8087"/><polygon fill="#191970" stroke="#191970" points="610.607 -29.884 614 -19.847 605.088 -25.577 610.607 -29.884"/></g><g id="edge17" class="edge"><title>Node12-&gt;Node8</title><path fill="none" stroke="#191970" d="M414.5621,-56.2977C408.3156,-47.7609 400.4817,-37.0545 393.921,-28.0883"/><polygon fill="#191970" stroke="#191970" points="396.62 -25.851 387.891 -19.847 390.971 -29.984 396.62 -25.851"/></g><g id="edge19" class="edge"><title>Node13-&gt;Node1</title><path fill="none" stroke="#191970" d="M737.6164,-159.0237C744.6744,-161.2367 751.8405,-163.3297 758.6857,-165 849.1606,-187.077 955.7693,-201.5056 1022.1328,-209.3261"/><polygon fill="#191970" stroke="#191970" points="1022.092 -212.845 1032.43 -210.525 1022.901 -205.892 1022.092 -212.845"/></g><g id="edge22" class="edge"><title>Node14-&gt;Node1</title><path fill="none" stroke="#191970" d="M863.4564,-159.0675C869.9401,-161.1521 876.4646,-163.1946 882.6857,-165 929.2971,-178.5268 982.3624,-191.4152 1022.6135,-200.9152"/><polygon fill="#191970" stroke="#191970" points="1022.023 -204.372 1032.559 -203.256 1023.627 -197.558 1022.023 -204.372"/></g><g id="edge24" class="edge"><title>Node15-&gt;Node1</title><path fill="none" stroke="#191970" d="M976.2816,-159.0028C999.5027,-169.9342 1029.4985,-184.8495 1052.2701,-196.7494"/><polygon fill="#191970" stroke="#191970" points="1050.756 -199.908 1061.234 -201.478 1054.022 -193.717 1050.756 -199.908"/></g><g id="edge26" class="edge"><title>Node16-&gt;Node1</title><path fill="none" stroke="#191970" d="M1091.276,-159.0028C1092.4351,-168.3309 1092.7253,-180.5601 1092.1467,-191.3409"/><polygon fill="#191970" stroke="#191970" points="1088.645 -191.216 1091.278 -201.478 1095.619 -191.813 1088.645 -191.216"/></g><g id="edge28" class="edge"><title>Node17-&gt;Node1</title><path fill="none" stroke="#191970" d="M468.5014,-159.1049C475.8986,-161.3934 483.4546,-163.4903 490.6857,-165 591.3658,-186.0197 890.4007,-204.9634 1022.2056,-212.7481"/><polygon fill="#191970" stroke="#191970" points="1022.35 -216.262 1032.539 -213.356 1022.761 -209.275 1022.35 -216.262"/></g><g id="edge29" class="edge"><title>Node17-&gt;Node11</title><path fill="none" stroke="#191970" d="M461.8401,-128.9961C468.4436,-126.8564 475.2214,-124.7809 481.6857,-123 555.3045,-102.7175 601.6788,-146.3839 649.6857,-87 663.8499,-69.479 649.7684,-44.1629 636.971,-27.4047"/><polygon fill="#191970" stroke="#191970" points="639.576 -25.06 630.552 -19.508 634.144 -29.475 639.576 -25.06"/></g><g id="edge31" class="edge"><title>Node18-&gt;Node1</title><path fill="none" stroke="#191970" d="M1223.0856,-164.5015C1197.4911,-174.9791 1165.4905,-187.6357 1138.7771,-197.8386"/><polygon fill="#191970" stroke="#191970" points="1137.302 -194.655 1129.196 -201.478 1139.787 -201.199 1137.302 -194.655"/></g><g id="edge32" class="edge"><title>Node18-&gt;Node5</title><path fill="none" stroke="#191970" d="M1268.6857,-123.4183C1268.6857,-113.32 1268.6857,-101.213 1268.6857,-91.2314"/><polygon fill="#191970" stroke="#191970" points="1272.186 -91.085 1268.686 -81.085 1265.186 -91.085 1272.186 -91.085"/></g><g id="edge34" class="edge"><title>Node19-&gt;Node1</title><path fill="none" stroke="#191970" d="M1366.9618,-159.0225C1359.2457,-161.1135 1351.2707,-163.1698 1343.6857,-165 1277.7718,-180.9048 1201.3142,-196.2639 1148.7506,-206.0064"/><polygon fill="#191970" stroke="#191970" points="1148.097 -202.568 1138.895 -207.819 1149.363 -209.452 1148.097 -202.568"/></g><g id="edge35" class="edge"><title>Node19-&gt;Node5</title><path fill="none" stroke="#191970" d="M1381.2632,-128.978C1356.4495,-116.309 1321.1746,-98.2989 1296.7522,-85.8297"/><polygon fill="#191970" stroke="#191970" points="1298.148 -82.613 1287.65 -81.183 1294.965 -88.847 1298.148 -82.613"/></g><g id="edge37" class="edge"><title>Node20-&gt;Node1</title><path fill="none" stroke="#191970" d="M1521.434,-159.0046C1512.9709,-161.2199 1504.1105,-163.3186 1495.6857,-165 1374.3938,-189.2073 1230.0855,-204.4901 1148.9799,-211.6649"/><polygon fill="#191970" stroke="#191970" points="1148.585 -208.186 1138.927 -212.541 1149.193 -215.16 1148.585 -208.186"/></g><g id="edge39" class="edge"><title>Node21-&gt;Node1</title><path fill="none" stroke="#191970" d="M1651.7852,-164.5565C1651.0827,-164.7089 1650.3827,-164.8569 1649.6857,-165 1470.8008,-201.7294 1254.0546,-212.2933 1148.8722,-215.309"/><polygon fill="#191970" stroke="#191970" points="1148.642 -211.814 1138.741 -215.586 1148.833 -218.811 1148.642 -211.814"/></g></g></svg>