<svg xmlns="http://www.w3.org/2000/svg" xmlns:xlink="http://www.w3.org/1999/xlink" width="680pt" height="173pt" viewBox="0 0 680 173"><g id="graph0" class="graph" transform="scale(1 1) rotate(0) translate(4 169)"><title>examples/example-server-lib/sw_splash.h</title><polygon fill="#fff" stroke="transparent" points="-4 4 -4 -169 676 -169 676 4 -4 4"/><g id="node1" class="node"><title>Node3</title><polygon fill="#bfbfbf" stroke="#000" points="225 -134.5 225 -164.5 370 -164.5 370 -134.5 225 -134.5"/><text x="233" y="-152.5" fill="#000" font-family="Arial" font-size="10" text-anchor="start">examples/example-server</text><text x="297.5" y="-141.5" fill="#000" font-family="Arial" font-size="10" text-anchor="middle">-lib/sw_splash.h</text></g><g id="node2" class="node"><title>Node4</title><g id="a_node2"><a target="_top" xlink:href="kiosk__window__manager_8h.html" xlink:title="examples/miral-kiosk\l/kiosk_window_manager.h"><polygon fill="#fff" stroke="#000" points="60.5 -67.5 60.5 -97.5 206.5 -97.5 206.5 -67.5 60.5 -67.5"/><text x="68.5" y="-85.5" fill="#000" font-family="Arial" font-size="10" text-anchor="start">examples/miral-kiosk</text><text x="133.5" y="-74.5" fill="#000" font-family="Arial" font-size="10" text-anchor="middle">/kiosk_window_manager.h</text></a></g></g><g id="edge1" class="edge"><title>Node3-&gt;Node4</title><path fill="none" stroke="#191970" d="M251.212,-130.5897C225.6626,-120.1518 194.3646,-107.3654 170.4653,-97.6017"/><polygon fill="#191970" stroke="#191970" points="250.114 -133.922 260.695 -134.464 252.762 -127.442 250.114 -133.922"/></g><g id="node5" class="node"><title>Node7</title><g id="a_node5"><a target="_top" xlink:href="sw__splash_8cpp.html" xlink:title="examples/example-server\l-lib/sw_splash.cpp"><polygon fill="#fff" stroke="#000" points="225 -67.5 225 -97.5 370 -97.5 370 -67.5 225 -67.5"/><text x="233" y="-85.5" fill="#000" font-family="Arial" font-size="10" text-anchor="start">examples/example-server</text><text x="297.5" y="-74.5" fill="#000" font-family="Arial" font-size="10" text-anchor="middle">-lib/sw_splash.cpp</text></a></g></g><g id="edge4" class="edge"><title>Node3-&gt;Node7</title><path fill="none" stroke="#191970" d="M297.5,-124.0249C297.5,-115.128 297.5,-105.4287 297.5,-97.6432"/><polygon fill="#191970" stroke="#191970" points="294 -124.297 297.5 -134.297 301 -124.297 294 -124.297"/></g><g id="node6" class="node"><title>Node8</title><g id="a_node6"><a target="_top" xlink:href="tiling__window__manager_8h.html" xlink:title="examples/example-server\l-lib/tiling_window_manager.h"><polygon fill="#fff" stroke="#000" points="388.5 -67.5 388.5 -97.5 548.5 -97.5 548.5 -67.5 388.5 -67.5"/><text x="396.5" y="-85.5" fill="#000" font-family="Arial" font-size="10" text-anchor="start">examples/example-server</text><text x="468.5" y="-74.5" fill="#000" font-family="Arial" font-size="10" text-anchor="middle">-lib/tiling_window_manager.h</text></a></g></g><g id="edge5" class="edge"><title>Node3-&gt;Node8</title><path fill="none" stroke="#191970" d="M345.412,-130.7275C372.116,-120.2645 404.9277,-107.4084 429.9569,-97.6017"/><polygon fill="#191970" stroke="#191970" points="343.91 -127.557 335.876 -134.464 346.463 -134.075 343.91 -127.557"/></g><g id="node3" class="node"><title>Node5</title><g id="a_node3"><a target="_top" xlink:href="kiosk__main_8cpp.html" xlink:title="examples/miral-kiosk\l/kiosk_main.cpp"><polygon fill="#fff" stroke="#000" points="0 -.5 0 -30.5 123 -30.5 123 -.5 0 -.5"/><text x="8" y="-18.5" fill="#000" font-family="Arial" font-size="10" text-anchor="start">examples/miral-kiosk</text><text x="61.5" y="-7.5" fill="#000" font-family="Arial" font-size="10" text-anchor="middle">/kiosk_main.cpp</text></a></g></g><g id="edge2" class="edge"><title>Node4-&gt;Node5</title><path fill="none" stroke="#191970" d="M109.548,-60.2113C99.1129,-50.5009 87.1512,-39.3698 77.7733,-30.6432"/><polygon fill="#191970" stroke="#191970" points="107.457 -63.047 117.162 -67.297 112.226 -57.922 107.457 -63.047"/></g><g id="node4" class="node"><title>Node6</title><g id="a_node4"><a target="_top" xlink:href="kiosk__window__manager_8cpp.html" xlink:title="examples/miral-kiosk\l/kiosk_window_manager.cpp"><polygon fill="#fff" stroke="#000" points="141 -.5 141 -30.5 298 -30.5 298 -.5 141 -.5"/><text x="149" y="-18.5" fill="#000" font-family="Arial" font-size="10" text-anchor="start">examples/miral-kiosk</text><text x="219.5" y="-7.5" fill="#000" font-family="Arial" font-size="10" text-anchor="middle">/kiosk_window_manager.cpp</text></a></g></g><g id="edge3" class="edge"><title>Node4-&gt;Node6</title><path fill="none" stroke="#191970" d="M161.0145,-61.0643C173.7304,-51.1577 188.5316,-39.6265 200.0625,-30.6432"/><polygon fill="#191970" stroke="#191970" points="158.752 -58.39 153.015 -67.297 163.054 -63.912 158.752 -58.39"/></g><g id="node7" class="node"><title>Node9</title><g id="a_node7"><a target="_top" xlink:href="shell__main_8cpp.html" xlink:title="examples/miral-shell\l/shell_main.cpp"><polygon fill="#fff" stroke="#000" points="362.5 -.5 362.5 -30.5 482.5 -30.5 482.5 -.5 362.5 -.5"/><text x="370.5" y="-18.5" fill="#000" font-family="Arial" font-size="10" text-anchor="start">examples/miral-shell</text><text x="422.5" y="-7.5" fill="#000" font-family="Arial" font-size="10" text-anchor="middle">/shell_main.cpp</text></a></g></g><g id="edge6" class="edge"><title>Node8-&gt;Node9</title><path fill="none" stroke="#191970" d="M452.2102,-58.7735C445.7852,-49.4154 438.5946,-38.9421 432.8968,-30.6432"/><polygon fill="#191970" stroke="#191970" points="449.516 -61.034 458.062 -67.297 455.287 -57.072 449.516 -61.034"/></g><g id="node8" class="node"><title>Node10</title><g id="a_node8"><a target="_top" xlink:href="tiling__window__manager_8cpp.html" xlink:title="examples/example-server\l-lib/tiling_window_manager.cpp"><polygon fill="#fff" stroke="#000" points="501 -.5 501 -30.5 672 -30.5 672 -.5 501 -.5"/><text x="509" y="-18.5" fill="#000" font-family="Arial" font-size="10" text-anchor="start">examples/example-server</text><text x="586.5" y="-7.5" fill="#000" font-family="Arial" font-size="10" text-anchor="middle">-lib/tiling_window_manager.cpp</text></a></g></g><g id="edge7" class="edge"><title>Node8-&gt;Node10</title><path fill="none" stroke="#191970" d="M503.9773,-62.3561C521.865,-52.1995 543.2023,-40.0843 559.6986,-30.7177"/><polygon fill="#191970" stroke="#191970" points="501.949 -59.483 494.981 -67.464 505.406 -65.57 501.949 -59.483"/></g></g></svg>