<svg xmlns="http://www.w3.org/2000/svg" xmlns:xlink="http://www.w3.org/1999/xlink" width="1076" height="276" viewBox="0 0 806.5 207"><g id="graph0" class="graph" transform="scale(1 1) rotate(0) translate(4 203)"><title>examples/example-server-lib/sw_splash.cpp</title><polygon fill="#fff" stroke="transparent" points="-4 4 -4 -203 802.5 -203 802.5 4 -4 4"/><g id="node1" class="node"><title>Node0</title><polygon fill="#bfbfbf" stroke="#000" points="407 -168.5 407 -198.5 552 -198.5 552 -168.5 407 -168.5"/><text x="415" y="-186.5" fill="#000" font-family="Arial" font-size="10" text-anchor="start">examples/example-server</text><text x="479.5" y="-175.5" fill="#000" font-family="Arial" font-size="10" text-anchor="middle">-lib/sw_splash.cpp</text></g><g id="node2" class="node"><title>Node1</title><g id="a_node2"><a target="_top" xlink:href="sw__splash_8h.html" xlink:title="sw_splash.h"><polygon fill="#fff" stroke="#000" points="37.5 -112.5 37.5 -131.5 113.5 -131.5 113.5 -112.5 37.5 -112.5"/><text x="75.5" y="-119.5" fill="#000" font-family="Arial" font-size="10" text-anchor="middle">sw_splash.h</text></a></g></g><g id="edge1" class="edge"><title>Node0-&gt;Node1</title><path fill="none" stroke="#191970" d="M406.8063,-172.434C324.7425,-159.9416 193.5587,-139.9718 123.4165,-129.2942"/><polygon fill="#191970" stroke="#191970" points="123.936 -125.833 113.524 -127.788 122.883 -132.753 123.936 -125.833"/></g><g id="node5" class="node"><title>Node4</title><g id="a_node5"><a target="_top" xlink:href="wayland__helpers_8h.html" xlink:title="wayland_helpers.h"><polygon fill="#fff" stroke="#000" points="194.5 -112.5 194.5 -131.5 302.5 -131.5 302.5 -112.5 194.5 -112.5"/><text x="248.5" y="-119.5" fill="#000" font-family="Arial" font-size="10" text-anchor="middle">wayland_helpers.h</text></a></g></g><g id="edge4" class="edge"><title>Node0-&gt;Node4</title><path fill="none" stroke="#191970" d="M422.991,-168.4554C383.4338,-157.9239 331.2573,-144.0328 294.2954,-134.1923"/><polygon fill="#191970" stroke="#191970" points="294.861 -130.721 284.297 -131.53 293.06 -137.485 294.861 -130.721"/></g><g id="node6" class="node"><title>Node5</title><polygon fill="#fff" stroke="#bfbfbf" points="117.5 -56.5 117.5 -75.5 215.5 -75.5 215.5 -56.5 117.5 -56.5"/><text x="166.5" y="-63.5" fill="#000" font-family="Arial" font-size="10" text-anchor="middle">wayland-client.h</text></g><g id="edge10" class="edge"><title>Node0-&gt;Node5</title><path fill="none" stroke="#191970" d="M406.8644,-179.4607C330.5845,-173.7463 217.349,-160.6145 185.5,-132 172.6362,-120.4426 168.2497,-100.7974 166.8639,-85.9378"/><polygon fill="#191970" stroke="#191970" points="170.346 -85.512 166.298 -75.721 163.357 -85.899 170.346 -85.512"/></g><g id="node10" class="node"><title>Node9</title><polygon fill="#fff" stroke="#bfbfbf" points="320.5 -112.5 320.5 -131.5 392.5 -131.5 392.5 -112.5 320.5 -112.5"/><text x="356.5" y="-119.5" fill="#000" font-family="Arial" font-size="10" text-anchor="middle">sys/types.h</text></g><g id="edge11" class="edge"><title>Node0-&gt;Node9</title><path fill="none" stroke="#191970" d="M449.4108,-168.4554C429.6981,-158.599 404.0998,-145.7999 384.7653,-136.1327"/><polygon fill="#191970" stroke="#191970" points="386.07 -132.872 375.561 -131.53 382.94 -139.133 386.07 -132.872"/></g><g id="node11" class="node"><title>Node10</title><polygon fill="#fff" stroke="#bfbfbf" points="410.5 -112.5 410.5 -131.5 474.5 -131.5 474.5 -112.5 410.5 -112.5"/><text x="442.5" y="-119.5" fill="#000" font-family="Arial" font-size="10" text-anchor="middle">sys/stat.h</text></g><g id="edge12" class="edge"><title>Node0-&gt;Node10</title><path fill="none" stroke="#191970" d="M470.3539,-168.2977C465.3249,-159.9388 459.0445,-149.4997 453.7209,-140.6509"/><polygon fill="#191970" stroke="#191970" points="456.579 -138.611 448.424 -131.847 450.58 -142.22 456.579 -138.611"/></g><g id="node12" class="node"><title>Node11</title><polygon fill="#fff" stroke="#bfbfbf" points="492.5 -112.5 492.5 -131.5 542.5 -131.5 542.5 -112.5 492.5 -112.5"/><text x="517.5" y="-119.5" fill="#000" font-family="Arial" font-size="10" text-anchor="middle">chrono</text></g><g id="edge13" class="edge"><title>Node0-&gt;Node11</title><path fill="none" stroke="#191970" d="M488.8933,-168.2977C494.1131,-159.8498 500.6457,-149.2773 506.15,-140.369"/><polygon fill="#191970" stroke="#191970" points="509.137 -142.194 511.416 -131.847 503.182 -138.514 509.137 -142.194"/></g><g id="node13" class="node"><title>Node12</title><polygon fill="#fff" stroke="#bfbfbf" points="560.5 -112.5 560.5 -131.5 610.5 -131.5 610.5 -112.5 560.5 -112.5"/><text x="585.5" y="-119.5" fill="#000" font-family="Arial" font-size="10" text-anchor="middle">cstring</text></g><g id="edge14" class="edge"><title>Node0-&gt;Node12</title><path fill="none" stroke="#191970" d="M505.4305,-168.4554C522.0309,-158.8241 543.4744,-146.3828 559.9917,-136.7996"/><polygon fill="#191970" stroke="#191970" points="562.181 -139.576 569.074 -131.53 558.668 -133.521 562.181 -139.576"/></g><g id="node14" class="node"><title>Node13</title><polygon fill="#fff" stroke="#bfbfbf" points="628.5 -112.5 628.5 -131.5 676.5 -131.5 676.5 -112.5 628.5 -112.5"/><text x="652.5" y="-119.5" fill="#000" font-family="Arial" font-size="10" text-anchor="middle">thread</text></g><g id="edge15" class="edge"><title>Node0-&gt;Node13</title><path fill="none" stroke="#191970" d="M521.8206,-168.4554C551.577,-157.8773 590.8681,-143.9096 618.5704,-134.0617"/><polygon fill="#191970" stroke="#191970" points="619.963 -137.281 628.213 -130.634 617.618 -130.686 619.963 -137.281"/></g><g id="node15" class="node"><title>Node14</title><polygon fill="#fff" stroke="#bfbfbf" points="694.5 -112.5 694.5 -131.5 742.5 -131.5 742.5 -112.5 694.5 -112.5"/><text x="718.5" y="-119.5" fill="#000" font-family="Arial" font-size="10" text-anchor="middle">mutex</text></g><g id="edge16" class="edge"><title>Node0-&gt;Node14</title><path fill="none" stroke="#191970" d="M543.2799,-168.4132C581.6903,-159.1282 631.7828,-146.6713 684.5146,-132.1843"/><polygon fill="#191970" stroke="#191970" points="685.683 -135.493 694.389 -129.456 683.818 -128.746 685.683 -135.493"/></g><g id="node16" class="node"><title>Node15</title><polygon fill="#fff" stroke="#bfbfbf" points="760.5 -112.5 760.5 -131.5 798.5 -131.5 798.5 -112.5 760.5 -112.5"/><text x="779.5" y="-119.5" fill="#000" font-family="Arial" font-size="10" text-anchor="middle">map</text></g><g id="edge17" class="edge"><title>Node0-&gt;Node15</title><path fill="none" stroke="#191970" d="M552.068,-172.9183C604.8935,-164.4894 678.201,-151.2942 750.6012,-131.9307"/><polygon fill="#191970" stroke="#191970" points="751.612 -135.283 760.346 -129.285 749.778 -128.528 751.612 -135.283"/></g><g id="node3" class="node"><title>Node2</title><g id="a_node3"><a target="_top" xlink:href="splash__session_8h.html" xlink:title="splash_session.h"><polygon fill="#fff" stroke="#000" points="0 -56.5 0 -75.5 99 -75.5 99 -56.5 0 -56.5"/><text x="49.5" y="-63.5" fill="#000" font-family="Arial" font-size="10" text-anchor="middle">splash_session.h</text></a></g></g><g id="edge2" class="edge"><title>Node1-&gt;Node2</title><path fill="none" stroke="#191970" d="M70.9711,-112.2455C67.4666,-104.6973 62.5073,-94.0158 58.2377,-84.8197"/><polygon fill="#191970" stroke="#191970" points="61.363 -83.239 53.977 -75.643 55.014 -86.187 61.363 -83.239"/></g><g id="node4" class="node"><title>Node3</title><polygon fill="#fff" stroke="#bfbfbf" points="117.5 -.5 117.5 -19.5 175.5 -19.5 175.5 -.5 117.5 -.5"/><text x="146.5" y="-7.5" fill="#000" font-family="Arial" font-size="10" text-anchor="middle">memory</text></g><g id="edge3" class="edge"><title>Node2-&gt;Node3</title><path fill="none" stroke="#191970" d="M66.3961,-56.2455C81.418,-47.5731 103.6043,-34.7645 120.821,-24.825"/><polygon fill="#191970" stroke="#191970" points="122.887 -27.674 129.798 -19.643 119.387 -21.611 122.887 -27.674"/></g><g id="edge6" class="edge"><title>Node4-&gt;Node3</title><path fill="none" stroke="#191970" d="M247.1189,-112.466C244.6934,-98.6513 238.5265,-72.8789 224.5,-56 212.934,-42.0819 195.9991,-31.3799 180.8619,-23.8158"/><polygon fill="#191970" stroke="#191970" points="182.271 -20.611 171.733 -19.511 179.285 -26.942 182.271 -20.611"/></g><g id="edge5" class="edge"><title>Node4-&gt;Node5</title><path fill="none" stroke="#191970" d="M234.2167,-112.2455C221.753,-103.7337 203.4549,-91.2375 189.0208,-81.3801"/><polygon fill="#191970" stroke="#191970" points="190.851 -78.392 180.62 -75.643 186.904 -84.173 190.851 -78.392"/></g><g id="node7" class="node"><title>Node6</title><polygon fill="#fff" stroke="#bfbfbf" points="272 -56.5 272 -75.5 319 -75.5 319 -56.5 272 -56.5"/><text x="295.5" y="-63.5" fill="#000" font-family="Arial" font-size="10" text-anchor="middle">vector</text></g><g id="edge7" class="edge"><title>Node4-&gt;Node6</title><path fill="none" stroke="#191970" d="M256.6868,-112.2455C263.3589,-104.2958 272.9479,-92.8706 280.9253,-83.3656"/><polygon fill="#191970" stroke="#191970" points="283.659 -85.552 287.407 -75.643 278.297 -81.052 283.659 -85.552"/></g><g id="node8" class="node"><title>Node7</title><polygon fill="#fff" stroke="#bfbfbf" points="337 -56.5 337 -75.5 402 -75.5 402 -56.5 337 -56.5"/><text x="369.5" y="-63.5" fill="#000" font-family="Arial" font-size="10" text-anchor="middle">functional</text></g><g id="edge8" class="edge"><title>Node4-&gt;Node7</title><path fill="none" stroke="#191970" d="M269.3006,-112.3733C288.7243,-103.3838 317.9224,-89.8706 339.7964,-79.7471"/><polygon fill="#191970" stroke="#191970" points="341.366 -82.878 348.971 -75.501 338.425 -76.525 341.366 -82.878"/></g><g id="node9" class="node"><title>Node8</title><polygon fill="#fff" stroke="#bfbfbf" points="420 -56.5 420 -75.5 513 -75.5 513 -56.5 420 -56.5"/><text x="466.5" y="-63.5" fill="#000" font-family="Arial" font-size="10" text-anchor="middle">unordered_map</text></g><g id="edge9" class="edge"><title>Node4-&gt;Node8</title><path fill="none" stroke="#191970" d="M285.9755,-112.3733C323.0103,-102.8598 379.7682,-88.2797 419.7361,-78.0127"/><polygon fill="#191970" stroke="#191970" points="420.699 -81.379 429.514 -75.501 418.957 -74.599 420.699 -81.379"/></g></g></svg>