<svg xmlns="http://www.w3.org/2000/svg" xmlns:xlink="http://www.w3.org/1999/xlink" width="256pt" height="151pt" viewBox="0 0 256 151"><g id="graph0" class="graph" transform="scale(1 1) rotate(0) translate(4 147)"><title>examples/example-server-lib/wallpaper_config.cpp</title><polygon fill="#fff" stroke="transparent" points="-4 4 -4 -147 252 -147 252 4 -4 4"/><g id="node1" class="node"><title>Node0</title><polygon fill="#bfbfbf" stroke="#000" points="81.5 -112.5 81.5 -142.5 226.5 -142.5 226.5 -112.5 81.5 -112.5"/><text x="89.5" y="-130.5" fill="#000" font-family="Arial" font-size="10" text-anchor="start">examples/example-server</text><text x="154" y="-119.5" fill="#000" font-family="Arial" font-size="10" text-anchor="middle">-lib/wallpaper_config.cpp</text></g><g id="node2" class="node"><title>Node1</title><g id="a_node2"><a target="_top" xlink:href="wallpaper__config_8h.html" xlink:title="wallpaper_config.h"><polygon fill="#fff" stroke="#000" points="0 -56.5 0 -75.5 108 -75.5 108 -56.5 0 -56.5"/><text x="54" y="-63.5" fill="#000" font-family="Arial" font-size="10" text-anchor="middle">wallpaper_config.h</text></a></g></g><g id="edge1" class="edge"><title>Node0-&gt;Node1</title><path fill="none" stroke="#191970" d="M129.5372,-112.4554C113.8765,-102.8241 93.6468,-90.3828 78.0644,-80.7996"/><polygon fill="#191970" stroke="#191970" points="79.848 -77.788 69.496 -75.53 76.181 -83.75 79.848 -77.788"/></g><g id="node4" class="node"><title>Node3</title><polygon fill="#fff" stroke="#bfbfbf" points="126 -56.5 126 -75.5 182 -75.5 182 -56.5 126 -56.5"/><text x="154" y="-63.5" fill="#000" font-family="Arial" font-size="10" text-anchor="middle">unistd.h</text></g><g id="edge3" class="edge"><title>Node0-&gt;Node3</title><path fill="none" stroke="#191970" d="M154,-112.2977C154,-104.3834 154,-94.6043 154,-86.0759"/><polygon fill="#191970" stroke="#191970" points="157.5 -85.847 154 -75.847 150.5 -85.847 157.5 -85.847"/></g><g id="node5" class="node"><title>Node4</title><polygon fill="#fff" stroke="#bfbfbf" points="200 -56.5 200 -75.5 248 -75.5 248 -56.5 200 -56.5"/><text x="224" y="-63.5" fill="#000" font-family="Arial" font-size="10" text-anchor="middle">mutex</text></g><g id="edge4" class="edge"><title>Node0-&gt;Node4</title><path fill="none" stroke="#191970" d="M171.3034,-112.2977C181.5262,-103.3163 194.4823,-91.9334 204.9896,-82.702"/><polygon fill="#191970" stroke="#191970" points="207.59 -85.077 212.792 -75.847 202.97 -79.818 207.59 -85.077"/></g><g id="node3" class="node"><title>Node2</title><polygon fill="#fff" stroke="#bfbfbf" points="32 -.5 32 -19.5 76 -19.5 76 -.5 32 -.5"/><text x="54" y="-7.5" fill="#000" font-family="Arial" font-size="10" text-anchor="middle">string</text></g><g id="edge2" class="edge"><title>Node1-&gt;Node2</title><path fill="none" stroke="#191970" d="M54,-56.2455C54,-48.9382 54,-38.6944 54,-29.7046"/><polygon fill="#191970" stroke="#191970" points="57.5 -29.643 54 -19.643 50.5 -29.643 57.5 -29.643"/></g></g></svg>