<svg xmlns="http://www.w3.org/2000/svg" xmlns:xlink="http://www.w3.org/1999/xlink" width="442pt" height="95pt" viewBox="0 0 441.5 95"><g id="graph0" class="graph" transform="scale(1 1) rotate(0) translate(4 91)"><title>examples/example-server-lib/wayland_helpers.h</title><polygon fill="#fff" stroke="transparent" points="-4 4 -4 -91 437.5 -91 437.5 4 -4 4"/><g id="node1" class="node"><title>Node0</title><polygon fill="#bfbfbf" stroke="#000" points="143.5 -56.5 143.5 -86.5 288.5 -86.5 288.5 -56.5 143.5 -56.5"/><text x="151.5" y="-74.5" fill="#000" font-family="Arial" font-size="10" text-anchor="start">examples/example-server</text><text x="216" y="-63.5" fill="#000" font-family="Arial" font-size="10" text-anchor="middle">-lib/wayland_helpers.h</text></g><g id="node2" class="node"><title>Node1</title><polygon fill="#fff" stroke="#bfbfbf" points="0 -.5 0 -19.5 98 -19.5 98 -.5 0 -.5"/><text x="49" y="-7.5" fill="#000" font-family="Arial" font-size="10" text-anchor="middle">wayland-client.h</text></g><g id="edge1" class="edge"><title>Node0-&gt;Node1</title><path fill="none" stroke="#191970" d="M175.1472,-56.4554C147.405,-46.239 111.0775,-32.8609 84.5345,-23.0861"/><polygon fill="#191970" stroke="#191970" points="85.472 -19.702 74.879 -19.53 83.053 -26.27 85.472 -19.702"/></g><g id="node3" class="node"><title>Node2</title><polygon fill="#fff" stroke="#bfbfbf" points="116 -.5 116 -19.5 174 -19.5 174 -.5 116 -.5"/><text x="145" y="-7.5" fill="#000" font-family="Arial" font-size="10" text-anchor="middle">memory</text></g><g id="edge2" class="edge"><title>Node0-&gt;Node2</title><path fill="none" stroke="#191970" d="M198.4494,-56.2977C187.9779,-47.2274 174.6789,-35.7077 163.9662,-26.4285"/><polygon fill="#191970" stroke="#191970" points="166.218 -23.749 156.368 -19.847 161.635 -29.04 166.218 -23.749"/></g><g id="node4" class="node"><title>Node3</title><polygon fill="#fff" stroke="#bfbfbf" points="192.5 -.5 192.5 -19.5 239.5 -19.5 239.5 -.5 192.5 -.5"/><text x="216" y="-7.5" fill="#000" font-family="Arial" font-size="10" text-anchor="middle">vector</text></g><g id="edge3" class="edge"><title>Node0-&gt;Node3</title><path fill="none" stroke="#191970" d="M216,-56.2977C216,-48.3834 216,-38.6043 216,-30.0759"/><polygon fill="#191970" stroke="#191970" points="219.5 -29.847 216 -19.847 212.5 -29.847 219.5 -29.847"/></g><g id="node5" class="node"><title>Node4</title><polygon fill="#fff" stroke="#bfbfbf" points="257.5 -.5 257.5 -19.5 322.5 -19.5 322.5 -.5 257.5 -.5"/><text x="290" y="-7.5" fill="#000" font-family="Arial" font-size="10" text-anchor="middle">functional</text></g><g id="edge4" class="edge"><title>Node0-&gt;Node4</title><path fill="none" stroke="#191970" d="M234.2921,-56.2977C245.2061,-47.2274 259.0671,-35.7077 270.2324,-26.4285"/><polygon fill="#191970" stroke="#191970" points="272.698 -28.93 278.152 -19.847 268.224 -23.547 272.698 -28.93"/></g><g id="node6" class="node"><title>Node5</title><polygon fill="#fff" stroke="#bfbfbf" points="340.5 -.5 340.5 -19.5 433.5 -19.5 433.5 -.5 340.5 -.5"/><text x="387" y="-7.5" fill="#000" font-family="Arial" font-size="10" text-anchor="middle">unordered_map</text></g><g id="edge5" class="edge"><title>Node0-&gt;Node5</title><path fill="none" stroke="#191970" d="M257.8313,-56.4554C286.3631,-46.194 323.7635,-32.7429 350.9729,-22.9571"/><polygon fill="#191970" stroke="#191970" points="352.276 -26.208 360.501 -19.53 349.907 -19.621 352.276 -26.208"/></g></g></svg>