<svg xmlns="http://www.w3.org/2000/svg" xmlns:xlink="http://www.w3.org/1999/xlink" width="487pt" height="106pt" viewBox="0 0 486.5 106"><g id="graph0" class="graph" transform="scale(1 1) rotate(0) translate(4 102)"><title>examples/example-server-lib/wayland_helpers.h</title><polygon fill="#fff" stroke="transparent" points="-4 4 -4 -102 482.5 -102 482.5 4 -4 4"/><g id="node1" class="node"><title>Node6</title><polygon fill="#bfbfbf" stroke="#000" points="170.5 -67.5 170.5 -97.5 315.5 -97.5 315.5 -67.5 170.5 -67.5"/><text x="178.5" y="-85.5" fill="#000" font-family="Arial" font-size="10" text-anchor="start">examples/example-server</text><text x="243" y="-74.5" fill="#000" font-family="Arial" font-size="10" text-anchor="middle">-lib/wayland_helpers.h</text></g><g id="node2" class="node"><title>Node7</title><g id="a_node2"><a target="_top" xlink:href="decoration__provider_8cpp.html" xlink:title="examples/example-server\l-lib/decoration_provider.cpp"><polygon fill="#fff" stroke="#000" points="0 -.5 0 -30.5 152 -30.5 152 -.5 0 -.5"/><text x="8" y="-18.5" fill="#000" font-family="Arial" font-size="10" text-anchor="start">examples/example-server</text><text x="76" y="-7.5" fill="#000" font-family="Arial" font-size="10" text-anchor="middle">-lib/decoration_provider.cpp</text></a></g></g><g id="edge1" class="edge"><title>Node6-&gt;Node7</title><path fill="none" stroke="#191970" d="M196.2088,-63.7275C170.1294,-53.2645 138.0852,-40.4084 113.6415,-30.6017"/><polygon fill="#191970" stroke="#191970" points="194.938 -66.989 205.522 -67.464 197.544 -60.492 194.938 -66.989"/></g><g id="node3" class="node"><title>Node8</title><g id="a_node3"><a target="_top" xlink:href="sw__splash_8cpp.html" xlink:title="examples/example-server\l-lib/sw_splash.cpp"><polygon fill="#fff" stroke="#000" points="170.5 -.5 170.5 -30.5 315.5 -30.5 315.5 -.5 170.5 -.5"/><text x="178.5" y="-18.5" fill="#000" font-family="Arial" font-size="10" text-anchor="start">examples/example-server</text><text x="243" y="-7.5" fill="#000" font-family="Arial" font-size="10" text-anchor="middle">-lib/sw_splash.cpp</text></a></g></g><g id="edge2" class="edge"><title>Node6-&gt;Node8</title><path fill="none" stroke="#191970" d="M243,-57.0249C243,-48.128 243,-38.4287 243,-30.6432"/><polygon fill="#191970" stroke="#191970" points="239.5 -57.297 243 -67.297 246.5 -57.297 239.5 -57.297"/></g><g id="node4" class="node"><title>Node9</title><g id="a_node4"><a target="_top" xlink:href="wayland__helpers_8cpp.html" xlink:title="examples/example-server\l-lib/wayland_helpers.cpp"><polygon fill="#fff" stroke="#000" points="333.5 -.5 333.5 -30.5 478.5 -30.5 478.5 -.5 333.5 -.5"/><text x="341.5" y="-18.5" fill="#000" font-family="Arial" font-size="10" text-anchor="start">examples/example-server</text><text x="406" y="-7.5" fill="#000" font-family="Arial" font-size="10" text-anchor="middle">-lib/wayland_helpers.cpp</text></a></g></g><g id="edge3" class="edge"><title>Node6-&gt;Node9</title><path fill="none" stroke="#191970" d="M289.0058,-63.5897C314.3994,-53.1518 345.5065,-40.3654 369.2601,-30.6017"/><polygon fill="#191970" stroke="#191970" points="287.499 -60.425 279.58 -67.464 290.16 -66.899 287.499 -60.425"/></g></g></svg>