<svg xmlns="http://www.w3.org/2000/svg" xmlns:xlink="http://www.w3.org/1999/xlink" width="776" height="151pt" viewBox="0 0 582 151"><g id="graph0" class="graph" transform="scale(1 1) rotate(0) translate(4 147)"><title>examples/example-server-lib/wayland_helpers.cpp</title><polygon fill="#fff" stroke="transparent" points="-4 4 -4 -147 578 -147 578 4 -4 4"/><g id="node1" class="node"><title>Node0</title><polygon fill="#bfbfbf" stroke="#000" points="309.5 -112.5 309.5 -142.5 454.5 -142.5 454.5 -112.5 309.5 -112.5"/><text x="317.5" y="-130.5" fill="#000" font-family="Arial" font-size="10" text-anchor="start">examples/example-server</text><text x="382" y="-119.5" fill="#000" font-family="Arial" font-size="10" text-anchor="middle">-lib/wayland_helpers.cpp</text></g><g id="node2" class="node"><title>Node1</title><g id="a_node2"><a target="_top" xlink:href="wayland__helpers_8h.html" xlink:title="wayland_helpers.h"><polygon fill="#fff" stroke="#000" points="162 -56.5 162 -75.5 270 -75.5 270 -56.5 162 -56.5"/><text x="216" y="-63.5" fill="#000" font-family="Arial" font-size="10" text-anchor="middle">wayland_helpers.h</text></a></g></g><g id="edge1" class="edge"><title>Node0-&gt;Node1</title><path fill="none" stroke="#191970" d="M341.3918,-112.4554C313.8158,-102.239 277.7058,-88.8609 251.3218,-79.0861"/><polygon fill="#191970" stroke="#191970" points="252.317 -75.722 241.724 -75.53 249.885 -82.286 252.317 -75.722"/></g><g id="node8" class="node"><title>Node7</title><polygon fill="#fff" stroke="#bfbfbf" points="288.5 -56.5 288.5 -75.5 335.5 -75.5 335.5 -56.5 288.5 -56.5"/><text x="312" y="-63.5" fill="#000" font-family="Arial" font-size="10" text-anchor="middle">fcntl.h</text></g><g id="edge7" class="edge"><title>Node0-&gt;Node7</title><path fill="none" stroke="#191970" d="M364.6966,-112.2977C354.4738,-103.3163 341.5177,-91.9334 331.0104,-82.702"/><polygon fill="#191970" stroke="#191970" points="333.031 -79.818 323.208 -75.847 328.41 -85.077 333.031 -79.818"/></g><g id="node9" class="node"><title>Node8</title><polygon fill="#fff" stroke="#bfbfbf" points="354 -56.5 354 -75.5 410 -75.5 410 -56.5 354 -56.5"/><text x="382" y="-63.5" fill="#000" font-family="Arial" font-size="10" text-anchor="middle">unistd.h</text></g><g id="edge8" class="edge"><title>Node0-&gt;Node8</title><path fill="none" stroke="#191970" d="M382,-112.2977C382,-104.3834 382,-94.6043 382,-86.0759"/><polygon fill="#191970" stroke="#191970" points="385.5 -85.847 382 -75.847 378.5 -85.847 385.5 -85.847"/></g><g id="node10" class="node"><title>Node9</title><polygon fill="#fff" stroke="#bfbfbf" points="428.5 -56.5 428.5 -75.5 505.5 -75.5 505.5 -56.5 428.5 -56.5"/><text x="467" y="-63.5" fill="#000" font-family="Arial" font-size="10" text-anchor="middle">sys/mman.h</text></g><g id="edge9" class="edge"><title>Node0-&gt;Node9</title><path fill="none" stroke="#191970" d="M403.0112,-112.2977C415.7934,-103.0495 432.0946,-91.2551 445.0448,-81.8853"/><polygon fill="#191970" stroke="#191970" points="447.34 -84.544 453.39 -75.847 443.237 -78.873 447.34 -84.544"/></g><g id="node11" class="node"><title>Node10</title><polygon fill="#fff" stroke="#bfbfbf" points="524 -56.5 524 -75.5 574 -75.5 574 -56.5 524 -56.5"/><text x="549" y="-63.5" fill="#000" font-family="Arial" font-size="10" text-anchor="middle">cstring</text></g><g id="edge10" class="edge"><title>Node0-&gt;Node10</title><path fill="none" stroke="#191970" d="M422.8528,-112.4554C450.7662,-102.1759 487.3713,-88.6956 513.9559,-78.9055"/><polygon fill="#191970" stroke="#191970" points="515.441 -82.088 523.615 -75.348 513.022 -75.52 515.441 -82.088"/></g><g id="node3" class="node"><title>Node2</title><polygon fill="#fff" stroke="#bfbfbf" points="0 -.5 0 -19.5 98 -19.5 98 -.5 0 -.5"/><text x="49" y="-7.5" fill="#000" font-family="Arial" font-size="10" text-anchor="middle">wayland-client.h</text></g><g id="edge2" class="edge"><title>Node1-&gt;Node2</title><path fill="none" stroke="#191970" d="M187.2917,-56.3733C159.6423,-47.1016 117.6424,-33.0178 87.1834,-22.804"/><polygon fill="#191970" stroke="#191970" points="87.928 -19.362 77.334 -19.501 85.702 -25.999 87.928 -19.362"/></g><g id="node4" class="node"><title>Node3</title><polygon fill="#fff" stroke="#bfbfbf" points="116 -.5 116 -19.5 174 -19.5 174 -.5 116 -.5"/><text x="145" y="-7.5" fill="#000" font-family="Arial" font-size="10" text-anchor="middle">memory</text></g><g id="edge3" class="edge"><title>Node1-&gt;Node3</title><path fill="none" stroke="#191970" d="M203.6327,-56.2455C193.0446,-47.8943 177.5936,-35.7076 165.2107,-25.9408"/><polygon fill="#191970" stroke="#191970" points="167.245 -23.087 157.226 -19.643 162.91 -28.584 167.245 -23.087"/></g><g id="node5" class="node"><title>Node4</title><polygon fill="#fff" stroke="#bfbfbf" points="192.5 -.5 192.5 -19.5 239.5 -19.5 239.5 -.5 192.5 -.5"/><text x="216" y="-7.5" fill="#000" font-family="Arial" font-size="10" text-anchor="middle">vector</text></g><g id="edge4" class="edge"><title>Node1-&gt;Node4</title><path fill="none" stroke="#191970" d="M216,-56.2455C216,-48.9382 216,-38.6944 216,-29.7046"/><polygon fill="#191970" stroke="#191970" points="219.5 -29.643 216 -19.643 212.5 -29.643 219.5 -29.643"/></g><g id="node6" class="node"><title>Node5</title><polygon fill="#fff" stroke="#bfbfbf" points="257.5 -.5 257.5 -19.5 322.5 -19.5 322.5 -.5 257.5 -.5"/><text x="290" y="-7.5" fill="#000" font-family="Arial" font-size="10" text-anchor="middle">functional</text></g><g id="edge5" class="edge"><title>Node1-&gt;Node5</title><path fill="none" stroke="#191970" d="M228.8898,-56.2455C239.9254,-47.8943 256.0292,-35.7076 268.9353,-25.9408"/><polygon fill="#191970" stroke="#191970" points="271.396 -28.468 277.258 -19.643 267.172 -22.886 271.396 -28.468"/></g><g id="node7" class="node"><title>Node6</title><polygon fill="#fff" stroke="#bfbfbf" points="340.5 -.5 340.5 -19.5 433.5 -19.5 433.5 -.5 340.5 -.5"/><text x="387" y="-7.5" fill="#000" font-family="Arial" font-size="10" text-anchor="middle">unordered_map</text></g><g id="edge6" class="edge"><title>Node1-&gt;Node6</title><path fill="none" stroke="#191970" d="M245.3959,-56.3733C273.8307,-47.0613 317.0877,-32.8953 348.3081,-22.671"/><polygon fill="#191970" stroke="#191970" points="349.574 -25.94 357.988 -19.501 347.395 -19.287 349.574 -25.94"/></g></g></svg>