<svg xmlns="http://www.w3.org/2000/svg" xmlns:xlink="http://www.w3.org/1999/xlink" width="2308" height="424" viewBox="0 0 1731 318"><g id="graph0" class="graph" transform="scale(1 1) rotate(0) translate(4 314)"><title>include/client/mir_toolkit/events/window_event.h</title><polygon fill="#fff" stroke="transparent" points="-4 4 -4 -314 1727 -314 1727 4 -4 4"/><g id="node1" class="node"><title>Node0</title><polygon fill="#bfbfbf" stroke="#000" points="824 -268.5 824 -309.5 954 -309.5 954 -268.5 824 -268.5"/><text x="832" y="-297.5" fill="#000" font-family="Arial" font-size="10" text-anchor="start">include/client/mir</text><text x="832" y="-286.5" fill="#000" font-family="Arial" font-size="10" text-anchor="start">_toolkit/events/window</text><text x="889" y="-275.5" fill="#000" font-family="Arial" font-size="10" text-anchor="middle">_event.h</text></g><g id="node2" class="node"><title>Node1</title><g id="a_node2"><a target="_top" xlink:href="toolkit_2events_2event_8h.html" xlink:title="mir_toolkit/events\l/event.h"><polygon fill="#fff" stroke="#000" points="836 -201.5 836 -231.5 942 -231.5 942 -201.5 836 -201.5"/><text x="844" y="-219.5" fill="#000" font-family="Arial" font-size="10" text-anchor="start">mir_toolkit/events</text><text x="889" y="-208.5" fill="#000" font-family="Arial" font-size="10" text-anchor="middle">/event.h</text></a></g></g><g id="edge1" class="edge"><title>Node0-&gt;Node1</title><path fill="none" stroke="#191970" d="M882.8449,-268.4183C882.1713,-260.0849 882.0697,-250.3834 882.5402,-241.6373"/><polygon fill="#191970" stroke="#191970" points="886.034 -241.861 883.398 -231.599 879.059 -241.265 886.034 -241.861"/></g><g id="edge23" class="edge"><title>Node1-&gt;Node0</title><path fill="none" stroke="#191970" d="M894.6023,-231.5991C895.5584,-239.3508 895.9172,-249.0871 895.6785,-258.3279"/><polygon fill="#191970" stroke="#191970" points="892.178 -258.25 895.155 -268.418 899.168 -258.613 892.178 -258.25"/></g><g id="node3" class="node"><title>Node2</title><polygon fill="#fff" stroke="#bfbfbf" points="0 -134.5 0 -153.5 56 -153.5 56 -134.5 0 -134.5"/><text x="28" y="-141.5" fill="#000" font-family="Arial" font-size="10" text-anchor="middle">stddef.h</text></g><g id="edge2" class="edge"><title>Node1-&gt;Node2</title><path fill="none" stroke="#191970" d="M835.9911,-215.9185C678.4937,-213.7576 215.299,-204.1546 70,-165 64.0496,-163.3965 57.9512,-160.9089 52.311,-158.1991"/><polygon fill="#191970" stroke="#191970" points="53.846 -155.052 43.359 -153.546 50.617 -161.263 53.846 -155.052"/></g><g id="node4" class="node"><title>Node3</title><polygon fill="#fff" stroke="#bfbfbf" points="95.5 -.5 95.5 -19.5 148.5 -19.5 148.5 -.5 95.5 -.5"/><text x="122" y="-7.5" fill="#000" font-family="Arial" font-size="10" text-anchor="middle">stdint.h</text></g><g id="edge3" class="edge"><title>Node1-&gt;Node3</title><path fill="none" stroke="#191970" d="M835.8518,-214.9794C682.2641,-210.2539 245.1175,-194.352 188,-165 147.8636,-144.3744 138.6372,-129.3299 123,-87 116.1779,-68.5326 116.8734,-45.8329 118.6952,-29.8806"/><polygon fill="#191970" stroke="#191970" points="122.212 -30.002 120.129 -19.614 115.279 -29.034 122.212 -30.002"/></g><g id="node5" class="node"><title>Node4</title><g id="a_node5"><a target="_top" xlink:href="common_8h.html" xlink:title="mir_toolkit/common.h"><polygon fill="#fff" stroke="#000" points="329.5 -134.5 329.5 -153.5 454.5 -153.5 454.5 -134.5 329.5 -134.5"/><text x="392" y="-141.5" fill="#000" font-family="Arial" font-size="10" text-anchor="middle">mir_toolkit/common.h</text></a></g></g><g id="edge4" class="edge"><title>Node1-&gt;Node4</title><path fill="none" stroke="#191970" d="M835.9025,-212.4617C755.8332,-205.8163 599.6501,-190.6867 469,-165 457.1173,-162.6638 444.3734,-159.4751 432.7414,-156.2883"/><polygon fill="#191970" stroke="#191970" points="433.429 -152.846 422.855 -153.51 431.535 -159.585 433.429 -152.846"/></g><g id="node6" class="node"><title>Node5</title><g id="a_node6"><a target="_top" xlink:href="deprecations_8h.html" xlink:title="mir_toolkit/deprecations.h"><polygon fill="#fff" stroke="#000" points="755.5 -62 755.5 -81 900.5 -81 900.5 -62 755.5 -62"/><text x="828" y="-69" fill="#000" font-family="Arial" font-size="10" text-anchor="middle">mir_toolkit/deprecations.h</text></a></g></g><g id="edge6" class="edge"><title>Node1-&gt;Node5</title><path fill="none" stroke="#191970" d="M835.7078,-213.2527C734.7366,-206.5543 523.6575,-189.7305 502,-165 438.33,-92.2958 544.0031,-120.9784 746,-87 753.6349,-85.7157 761.6553,-84.2922 769.5676,-82.8436"/><polygon fill="#191970" stroke="#191970" points="770.3 -86.267 779.495 -81.004 769.024 -79.385 770.3 -86.267"/></g><g id="node7" class="node"><title>Node6</title><g id="a_node7"><a target="_top" xlink:href="input__event_8h.html" xlink:title="mir_toolkit/events\l/input/input_event.h"><polygon fill="#fff" stroke="#000" points="197 -129 197 -159 311 -159 311 -129 197 -129"/><text x="205" y="-147" fill="#000" font-family="Arial" font-size="10" text-anchor="start">mir_toolkit/events</text><text x="254" y="-136" fill="#000" font-family="Arial" font-size="10" text-anchor="middle">/input/input_event.h</text></a></g></g><g id="edge7" class="edge"><title>Node1-&gt;Node6</title><path fill="none" stroke="#191970" d="M835.9339,-215.6682C733.273,-213.1929 501.3236,-203.4137 311,-165 306.5708,-164.106 302.0198,-163.022 297.5066,-161.823"/><polygon fill="#191970" stroke="#191970" points="298.325 -158.417 287.749 -159.044 296.408 -165.149 298.325 -158.417"/></g><g id="node14" class="node"><title>Node13</title><g id="a_node14"><a target="_top" xlink:href="resize__event_8h.html" xlink:title="mir_toolkit/events\l/resize_event.h"><polygon fill="#fff" stroke="#000" points="511 -129 511 -159 617 -159 617 -129 511 -129"/><text x="519" y="-147" fill="#000" font-family="Arial" font-size="10" text-anchor="start">mir_toolkit/events</text><text x="564" y="-136" fill="#000" font-family="Arial" font-size="10" text-anchor="middle">/resize_event.h</text></a></g></g><g id="edge18" class="edge"><title>Node1-&gt;Node13</title><path fill="none" stroke="#191970" d="M835.9672,-209.3192C780.5975,-200.7088 691.8641,-184.9135 617,-165 613.6589,-164.1113 610.2363,-163.1372 606.8138,-162.1106"/><polygon fill="#191970" stroke="#191970" points="607.826 -158.76 597.237 -159.106 605.731 -165.439 607.826 -158.76"/></g><g id="node15" class="node"><title>Node14</title><g id="a_node15"><a target="_top" xlink:href="surface__event_8h.html" xlink:title="mir_toolkit/events\l/surface_event.h"><polygon fill="#fff" stroke="#000" points="635 -129 635 -159 741 -159 741 -129 635 -129"/><text x="643" y="-147" fill="#000" font-family="Arial" font-size="10" text-anchor="start">mir_toolkit/events</text><text x="688" y="-136" fill="#000" font-family="Arial" font-size="10" text-anchor="middle">/surface_event.h</text></a></g></g><g id="edge20" class="edge"><title>Node1-&gt;Node14</title><path fill="none" stroke="#191970" d="M841.7599,-201.478C809.0983,-190.2017 765.9742,-174.694 733.6612,-162.6283"/><polygon fill="#191970" stroke="#191970" points="734.596 -159.241 724.004 -159.003 732.135 -165.794 734.596 -159.241"/></g><g id="node16" class="node"><title>Node15</title><g id="a_node16"><a target="_top" xlink:href="orientation__event_8h.html" xlink:title="mir_toolkit/events\l/orientation_event.h"><polygon fill="#fff" stroke="#000" points="759.5 -129 759.5 -159 874.5 -159 874.5 -129 759.5 -129"/><text x="767.5" y="-147" fill="#000" font-family="Arial" font-size="10" text-anchor="start">mir_toolkit/events</text><text x="817" y="-136" fill="#000" font-family="Arial" font-size="10" text-anchor="middle">/orientation_event.h</text></a></g></g><g id="edge24" class="edge"><title>Node1-&gt;Node15</title><path fill="none" stroke="#191970" d="M868.4888,-201.478C857.1944,-191.3682 843.542,-177.8572 833.0231,-166.4749"/><polygon fill="#191970" stroke="#191970" points="835.596 -164.102 826.309 -159.003 830.389 -168.78 835.596 -164.102"/></g><g id="node17" class="node"><title>Node16</title><g id="a_node17"><a target="_top" xlink:href="prompt__session__event_8h.html" xlink:title="mir_toolkit/events\l/prompt_session_event.h"><polygon fill="#fff" stroke="#000" points="892.5 -129 892.5 -159 1031.5 -159 1031.5 -129 892.5 -129"/><text x="900.5" y="-147" fill="#000" font-family="Arial" font-size="10" text-anchor="start">mir_toolkit/events</text><text x="962" y="-136" fill="#000" font-family="Arial" font-size="10" text-anchor="middle">/prompt_session_event.h</text></a></g></g><g id="edge26" class="edge"><title>Node1-&gt;Node16</title><path fill="none" stroke="#191970" d="M898.5329,-201.478C907.6297,-191.1738 921.3434,-177.3363 933.7786,-165.8206"/><polygon fill="#191970" stroke="#191970" points="936.243 -168.311 941.303 -159.003 931.543 -163.124 936.243 -168.311"/></g><g id="node18" class="node"><title>Node17</title><g id="a_node18"><a target="_top" xlink:href="keymap__event_8h.html" xlink:title="mir_toolkit/events\l/keymap_event.h"><polygon fill="#fff" stroke="#000" points="1333 -129 1333 -159 1439 -159 1439 -129 1333 -129"/><text x="1341" y="-147" fill="#000" font-family="Arial" font-size="10" text-anchor="start">mir_toolkit/events</text><text x="1386" y="-136" fill="#000" font-family="Arial" font-size="10" text-anchor="middle">/keymap_event.h</text></a></g></g><g id="edge28" class="edge"><title>Node1-&gt;Node17</title><path fill="none" stroke="#191970" d="M942.1086,-213.4236C1023.3428,-208.1519 1182.5915,-194.9168 1315,-165 1318.9907,-164.0983 1323.085,-163.035 1327.2,-161.8733"/><polygon fill="#191970" stroke="#191970" points="1328.215 -165.223 1336.8 -159.014 1326.217 -158.514 1328.215 -165.223"/></g><g id="node19" class="node"><title>Node18</title><g id="a_node19"><a target="_top" xlink:href="input__configuration__event_8h.html" xlink:title="mir_toolkit/events\l/input_configuration\l_event.h"><polygon fill="#fff" stroke="#000" points="1049.5 -123.5 1049.5 -164.5 1162.5 -164.5 1162.5 -123.5 1049.5 -123.5"/><text x="1057.5" y="-152.5" fill="#000" font-family="Arial" font-size="10" text-anchor="start">mir_toolkit/events</text><text x="1057.5" y="-141.5" fill="#000" font-family="Arial" font-size="10" text-anchor="start">/input_configuration</text><text x="1106" y="-130.5" fill="#000" font-family="Arial" font-size="10" text-anchor="middle">_event.h</text></a></g></g><g id="edge31" class="edge"><title>Node1-&gt;Node18</title><path fill="none" stroke="#191970" d="M928.3698,-201.478C959.3924,-190.665 1003.2269,-175.9614 1039.6228,-164.1326"/><polygon fill="#191970" stroke="#191970" points="1040.752 -167.446 1049.187 -161.035 1038.595 -160.786 1040.752 -167.446"/></g><g id="node20" class="node"><title>Node19</title><g id="a_node20"><a target="_top" xlink:href="surface__output__event_8h.html" xlink:title="mir_toolkit/events\l/surface_output_event.h"><polygon fill="#fff" stroke="#000" points="1181 -129 1181 -159 1315 -159 1315 -129 1181 -129"/><text x="1189" y="-147" fill="#000" font-family="Arial" font-size="10" text-anchor="start">mir_toolkit/events</text><text x="1248" y="-136" fill="#000" font-family="Arial" font-size="10" text-anchor="middle">/surface_output_event.h</text></a></g></g><g id="edge34" class="edge"><title>Node1-&gt;Node19</title><path fill="none" stroke="#191970" d="M942.0197,-207.1924C997.445,-197.8873 1086.5687,-182.4771 1163,-165 1167.5955,-163.9492 1172.3299,-162.8011 1177.1046,-161.6008"/><polygon fill="#191970" stroke="#191970" points="1178.115 -164.955 1186.93 -159.078 1176.374 -158.175 1178.115 -164.955"/></g><g id="node21" class="node"><title>Node20</title><g id="a_node21"><a target="_top" xlink:href="window__output__event_8h.html" xlink:title="mir_toolkit/events\l/window_output_event.h"><polygon fill="#fff" stroke="#000" points="1457 -129 1457 -159 1593 -159 1593 -129 1457 -129"/><text x="1465" y="-147" fill="#000" font-family="Arial" font-size="10" text-anchor="start">mir_toolkit/events</text><text x="1525" y="-136" fill="#000" font-family="Arial" font-size="10" text-anchor="middle">/window_output_event.h</text></a></g></g><g id="edge37" class="edge"><title>Node1-&gt;Node20</title><path fill="none" stroke="#191970" d="M942.3777,-214.4541C1041.169,-210.1438 1258.4657,-197.6766 1439,-165 1444.5902,-163.9882 1450.3649,-162.7618 1456.1585,-161.4155"/><polygon fill="#191970" stroke="#191970" points="1457.004 -164.812 1465.897 -159.053 1455.354 -158.009 1457.004 -164.812"/></g><g id="node22" class="node"><title>Node21</title><g id="a_node22"><a target="_top" xlink:href="input__device__state__event_8h.html" xlink:title="mir_toolkit/events\l/input_device_state\l_event.h"><polygon fill="#fff" stroke="#000" points="1611 -123.5 1611 -164.5 1723 -164.5 1723 -123.5 1611 -123.5"/><text x="1619" y="-152.5" fill="#000" font-family="Arial" font-size="10" text-anchor="start">mir_toolkit/events</text><text x="1619" y="-141.5" fill="#000" font-family="Arial" font-size="10" text-anchor="start">/input_device_state</text><text x="1667" y="-130.5" fill="#000" font-family="Arial" font-size="10" text-anchor="middle">_event.h</text></a></g></g><g id="edge39" class="edge"><title>Node1-&gt;Node21</title><path fill="none" stroke="#191970" d="M942.0744,-214.1351C1083.7051,-207.8233 1467.7542,-189.3859 1593,-165 1595.6373,-164.4865 1598.3169,-163.8994 1601.0169,-163.2558"/><polygon fill="#191970" stroke="#191970" points="1602.042 -166.606 1610.843 -160.708 1600.285 -159.83 1602.042 -166.606"/></g><g id="edge5" class="edge"><title>Node4-&gt;Node5</title><path fill="none" stroke="#191970" d="M423.2373,-134.4355C437.143,-130.4495 453.7834,-126.0489 469,-123 590.7271,-98.6102 623.4005,-106.5373 746,-87 753.7463,-85.7656 761.8837,-84.36 769.9003,-82.9109"/><polygon fill="#191970" stroke="#191970" points="770.75 -86.313 779.952 -81.062 769.483 -79.429 770.75 -86.313"/></g><g id="edge8" class="edge"><title>Node6-&gt;Node1</title><path fill="none" stroke="#191970" d="M305.4544,-159.0437C313.3129,-161.3388 321.3387,-163.4537 329,-165 506.8388,-200.8939 721.0212,-211.7867 825.5446,-215.0807"/><polygon fill="#191970" stroke="#191970" points="825.515 -218.581 835.616 -215.385 825.727 -211.584 825.515 -218.581"/></g><g id="edge11" class="edge"><title>Node6-&gt;Node3</title><path fill="none" stroke="#191970" d="M202.6753,-128.9257C180.7247,-120.0367 156.6092,-106.5906 141,-87 128.0332,-70.7257 123.7545,-46.832 122.425,-29.9863"/><polygon fill="#191970" stroke="#191970" points="125.902 -29.442 121.905 -19.63 118.911 -29.793 125.902 -29.442"/></g><g id="node8" class="node"><title>Node7</title><g id="a_node8"><a target="_top" xlink:href="mir__input__device__types_8h.html" xlink:title="mir_toolkit/mir_input\l_device_types.h"><polygon fill="#fff" stroke="#000" points="150.5 -56.5 150.5 -86.5 269.5 -86.5 269.5 -56.5 150.5 -56.5"/><text x="158.5" y="-74.5" fill="#000" font-family="Arial" font-size="10" text-anchor="start">mir_toolkit/mir_input</text><text x="210" y="-63.5" fill="#000" font-family="Arial" font-size="10" text-anchor="middle">_device_types.h</text></a></g></g><g id="edge9" class="edge"><title>Node6-&gt;Node7</title><path fill="none" stroke="#191970" d="M244.8832,-128.978C238.9836,-119.257 231.1755,-106.3915 224.4425,-95.2974"/><polygon fill="#191970" stroke="#191970" points="227.286 -93.236 219.105 -86.503 221.301 -96.868 227.286 -93.236"/></g><g id="node9" class="node"><title>Node8</title><polygon fill="#fff" stroke="#bfbfbf" points="379 -.5 379 -19.5 441 -19.5 441 -.5 379 -.5"/><text x="410" y="-7.5" fill="#000" font-family="Arial" font-size="10" text-anchor="middle">stdbool.h</text></g><g id="edge12" class="edge"><title>Node6-&gt;Node8</title><path fill="none" stroke="#191970" d="M261.762,-128.8854C272.1679,-109.8375 292.2309,-77.05 317,-56 333.3294,-42.1225 354.5664,-31.2089 372.6231,-23.5015"/><polygon fill="#191970" stroke="#191970" points="374.347 -26.578 382.276 -19.551 371.695 -20.099 374.347 -26.578"/></g><g id="node10" class="node"><title>Node9</title><g id="a_node10"><a target="_top" xlink:href="touch__event_8h.html" xlink:title="mir_toolkit/events\l/input/touch_event.h"><polygon fill="#fff" stroke="#000" points="326 -56.5 326 -86.5 442 -86.5 442 -56.5 326 -56.5"/><text x="334" y="-74.5" fill="#000" font-family="Arial" font-size="10" text-anchor="start">mir_toolkit/events</text><text x="384" y="-63.5" fill="#000" font-family="Arial" font-size="10" text-anchor="middle">/input/touch_event.h</text></a></g></g><g id="edge13" class="edge"><title>Node6-&gt;Node9</title><path fill="none" stroke="#191970" d="M280.9361,-128.978C300.4584,-118.0905 327.0537,-103.2585 348.3379,-91.3885"/><polygon fill="#191970" stroke="#191970" points="350.07 -94.43 357.098 -86.503 346.66 -88.317 350.07 -94.43"/></g><g id="node11" class="node"><title>Node10</title><g id="a_node11"><a target="_top" xlink:href="keyboard__event_8h.html" xlink:title="mir_toolkit/events\l/input/keyboard_event.h"><polygon fill="#fff" stroke="#000" points="602.5 -56.5 602.5 -86.5 737.5 -86.5 737.5 -56.5 602.5 -56.5"/><text x="610.5" y="-74.5" fill="#000" font-family="Arial" font-size="10" text-anchor="start">mir_toolkit/events</text><text x="670" y="-63.5" fill="#000" font-family="Arial" font-size="10" text-anchor="middle">/input/keyboard_event.h</text></a></g></g><g id="edge14" class="edge"><title>Node6-&gt;Node10</title><path fill="none" stroke="#191970" d="M297.7259,-128.8963C305.1009,-126.693 312.7239,-124.6239 320,-123 436.2957,-97.045 470.4845,-106.5464 592.3448,-87.0194"/><polygon fill="#191970" stroke="#191970" points="593.138 -90.436 602.442 -85.368 592.008 -83.528 593.138 -90.436"/></g><g id="node13" class="node"><title>Node12</title><g id="a_node13"><a target="_top" xlink:href="pointer__event_8h.html" xlink:title="mir_toolkit/events\l/input/pointer_event.h"><polygon fill="#fff" stroke="#000" points="460 -56.5 460 -86.5 584 -86.5 584 -56.5 460 -56.5"/><text x="468" y="-74.5" fill="#000" font-family="Arial" font-size="10" text-anchor="start">mir_toolkit/events</text><text x="522" y="-63.5" fill="#000" font-family="Arial" font-size="10" text-anchor="middle">/input/pointer_event.h</text></a></g></g><g id="edge16" class="edge"><title>Node6-&gt;Node12</title><path fill="none" stroke="#191970" d="M300.0537,-128.9687C306.7269,-126.9008 313.5264,-124.8534 320,-123 362.7985,-110.7467 411.1054,-98.3785 449.7458,-88.8349"/><polygon fill="#191970" stroke="#191970" points="450.988 -92.134 459.862 -86.346 449.316 -85.336 450.988 -92.134"/></g><g id="edge10" class="edge"><title>Node7-&gt;Node3</title><path fill="none" stroke="#191970" d="M188.2472,-56.2977C174.8032,-46.9022 157.5989,-34.8787 144.0922,-25.4395"/><polygon fill="#191970" stroke="#191970" points="146.029 -22.523 135.827 -19.663 142.019 -28.261 146.029 -22.523"/></g><g id="node12" class="node"><title>Node11</title><polygon fill="#fff" stroke="#bfbfbf" points="827 -.5 827 -19.5 977 -19.5 977 -.5 827 -.5"/><text x="902" y="-7.5" fill="#000" font-family="Arial" font-size="10" text-anchor="middle">xkbcommon/xkbcommon.h</text></g><g id="edge15" class="edge"><title>Node10-&gt;Node11</title><path fill="none" stroke="#191970" d="M726.7536,-56.4554C766.4821,-45.9239 818.8844,-32.0328 856.0064,-22.1923"/><polygon fill="#191970" stroke="#191970" points="857.279 -25.476 866.048 -19.53 855.485 -18.71 857.279 -25.476"/></g><g id="edge17" class="edge"><title>Node12-&gt;Node8</title><path fill="none" stroke="#191970" d="M494.6017,-56.4554C476.8978,-46.734 453.9805,-34.15 436.4642,-24.5317"/><polygon fill="#191970" stroke="#191970" points="437.806 -21.276 427.356 -19.53 434.437 -27.412 437.806 -21.276"/></g><g id="edge19" class="edge"><title>Node13-&gt;Node1</title><path fill="none" stroke="#191970" d="M615.0167,-159.1058C621.734,-161.2318 628.5202,-163.2764 635,-165 699.389,-182.1272 774.0376,-196.208 825.7441,-205.2913"/><polygon fill="#191970" stroke="#191970" points="825.317 -208.77 835.77 -207.041 826.52 -201.874 825.317 -208.77"/></g><g id="edge21" class="edge"><title>Node14-&gt;Node1</title><path fill="none" stroke="#191970" d="M735.1843,-159.0028C767.834,-170.2743 810.9583,-185.7814 843.2836,-197.8511"/><polygon fill="#191970" stroke="#191970" points="842.353 -201.24 852.945 -201.478 844.813 -194.687 842.353 -201.24"/></g><g id="edge22" class="edge"><title>Node14-&gt;Node5</title><path fill="none" stroke="#191970" d="M717.0081,-128.978C741.4723,-116.309 776.2503,-98.2989 800.3288,-85.8297"/><polygon fill="#191970" stroke="#191970" points="802.032 -88.889 809.303 -81.183 798.813 -82.673 802.032 -88.889"/></g><g id="edge25" class="edge"><title>Node15-&gt;Node1</title><path fill="none" stroke="#191970" d="M837.4897,-159.0028C848.7811,-169.1083 862.434,-182.6184 872.9568,-194.0035"/><polygon fill="#191970" stroke="#191970" points="870.387 -196.38 879.674 -201.478 875.593 -191.701 870.387 -196.38"/></g><g id="edge27" class="edge"><title>Node16-&gt;Node1</title><path fill="none" stroke="#191970" d="M952.4841,-159.0028C943.3931,-169.3026 929.6814,-183.1393 917.2446,-194.6579"/><polygon fill="#191970" stroke="#191970" points="914.778 -192.169 909.718 -201.478 919.479 -197.357 914.778 -192.169"/></g><g id="edge29" class="edge"><title>Node17-&gt;Node1</title><path fill="none" stroke="#191970" d="M1354.5188,-159.0138C1347.5167,-161.2831 1340.0945,-163.397 1333,-165 1199.7049,-195.1171 1039.2088,-208.3284 952.2619,-213.5284"/><polygon fill="#191970" stroke="#191970" points="951.81 -210.049 942.03 -214.123 952.216 -217.037 951.81 -210.049"/></g><g id="edge30" class="edge"><title>Node17-&gt;Node11</title><path fill="none" stroke="#191970" d="M1342.7552,-128.9531C1336.4838,-126.8875 1330.0909,-124.8449 1324,-123 1190.098,-82.4421 1030.0537,-41.6612 951.0684,-22.0377"/><polygon fill="#191970" stroke="#191970" points="951.478 -18.533 940.929 -19.524 949.794 -25.328 951.478 -18.533"/></g><g id="edge32" class="edge"><title>Node18-&gt;Node1</title><path fill="none" stroke="#191970" d="M1050.7855,-164.5015C1019.742,-175.163 981.0078,-188.0804 949.1912,-198.3733"/><polygon fill="#191970" stroke="#191970" points="948 -195.08 939.555 -201.478 950.147 -201.743 948 -195.08"/></g><g id="edge33" class="edge"><title>Node18-&gt;Node5</title><path fill="none" stroke="#191970" d="M1049.3561,-125.4224C1046.5363,-124.5847 1043.7393,-123.7725 1041,-123 987.1006,-107.8004 924.7628,-93.0533 881.511,-83.2636"/><polygon fill="#191970" stroke="#191970" points="882.015 -79.79 871.491 -81.007 880.478 -86.618 882.015 -79.79"/></g><g id="edge35" class="edge"><title>Node19-&gt;Node1</title><path fill="none" stroke="#191970" d="M1204.721,-159.0785C1196.8736,-161.1844 1188.7398,-163.2302 1181,-165 1102.9961,-182.8367 1011.7719,-198.5206 952.228,-207.759"/><polygon fill="#191970" stroke="#191970" points="951.573 -204.319 942.221 -209.297 952.636 -211.237 951.573 -204.319"/></g><g id="edge36" class="edge"><title>Node19-&gt;Node5</title><path fill="none" stroke="#191970" d="M1196.6964,-128.9181C1188.4775,-126.7642 1180.0344,-124.7049 1172,-123 1083.4628,-104.2125 980.684,-89.7712 910.6872,-81.0269"/><polygon fill="#191970" stroke="#191970" points="910.958 -77.534 900.603 -79.778 910.097 -84.481 910.958 -77.534"/></g><g id="edge38" class="edge"><title>Node20-&gt;Node1</title><path fill="none" stroke="#191970" d="M1483.6162,-159.0534C1474.9019,-161.3183 1465.7262,-163.4206 1457,-165 1276.019,-197.7575 1058.0934,-210.2054 952.4358,-214.4859"/><polygon fill="#191970" stroke="#191970" points="952.114 -210.996 942.26 -214.887 952.39 -217.99 952.114 -210.996"/></g><g id="edge40" class="edge"><title>Node21-&gt;Node1</title><path fill="none" stroke="#191970" d="M1613.4556,-164.5035C1612.6337,-164.6757 1611.8148,-164.8413 1611,-165 1486.1857,-189.3019 1104.3481,-207.6961 952.315,-214.0695"/><polygon fill="#191970" stroke="#191970" points="952.051 -210.577 942.205 -214.49 952.342 -217.571 952.051 -210.577"/></g></g></svg>