<svg xmlns="http://www.w3.org/2000/svg" xmlns:xlink="http://www.w3.org/1999/xlink" width="997pt" height="319pt" viewBox="0 0 996.5 319"><g id="graph0" class="graph" transform="scale(1 1) rotate(0) translate(4 315)"><title>include/miral/miral/window_specification.h</title><polygon fill="#fff" stroke="transparent" points="-4 4 -4 -315 992.5 -315 992.5 4 -4 4"/><g id="node1" class="node"><title>Node0</title><polygon fill="#bfbfbf" stroke="#000" points="551 -280.5 551 -310.5 684 -310.5 684 -280.5 551 -280.5"/><text x="559" y="-298.5" fill="#000" font-family="Arial" font-size="10" text-anchor="start">include/miral/miral</text><text x="617.5" y="-287.5" fill="#000" font-family="Arial" font-size="10" text-anchor="middle">/window_specification.h</text></g><g id="node2" class="node"><title>Node1</title><g id="a_node2"><a target="_top" xlink:href="common_8h.html" xlink:title="mir_toolkit/common.h"><polygon fill="#fff" stroke="#000" points="74 -224.5 74 -243.5 199 -243.5 199 -224.5 74 -224.5"/><text x="136.5" y="-231.5" fill="#000" font-family="Arial" font-size="10" text-anchor="middle">mir_toolkit/common.h</text></a></g></g><g id="edge1" class="edge"><title>Node0-&gt;Node1</title><path fill="none" stroke="#191970" d="M550.8717,-286.981C461.1245,-275.506 301.9809,-255.1582 209.2153,-243.2973"/><polygon fill="#191970" stroke="#191970" points="209.433 -239.797 199.07 -242 208.545 -246.74 209.433 -239.797"/></g><g id="node4" class="node"><title>Node3</title><g id="a_node4"><a target="_top" xlink:href="displacement_8h.html" xlink:title="mir/geometry/displacement.h"><polygon fill="#fff" stroke="#000" points="163 -168.5 163 -187.5 324 -187.5 324 -168.5 163 -168.5"/><text x="243.5" y="-175.5" fill="#000" font-family="Arial" font-size="10" text-anchor="middle">mir/geometry/displacement.h</text></a></g></g><g id="edge3" class="edge"><title>Node0-&gt;Node3</title><path fill="none" stroke="#191970" d="M561.8248,-280.4696C525.9132,-270.575 478.28,-257.0777 436.5,-244 381.4345,-226.7637 318.2793,-204.7314 279.6398,-190.9908"/><polygon fill="#191970" stroke="#191970" points="280.486 -187.577 269.892 -187.515 278.135 -194.17 280.486 -187.577"/></g><g id="node9" class="node"><title>Node8</title><g id="a_node9"><a target="_top" xlink:href="rectangles_8h.html" xlink:title="mir/geometry/rectangles.h"><polygon fill="#fff" stroke="#000" points="445.5 -224.5 445.5 -243.5 591.5 -243.5 591.5 -224.5 445.5 -224.5"/><text x="518.5" y="-231.5" fill="#000" font-family="Arial" font-size="10" text-anchor="middle">mir/geometry/rectangles.h</text></a></g></g><g id="edge11" class="edge"><title>Node0-&gt;Node8</title><path fill="none" stroke="#191970" d="M593.2819,-280.4554C577.9227,-270.9141 558.1243,-258.6151 542.7575,-249.0691"/><polygon fill="#191970" stroke="#191970" points="544.183 -245.834 533.841 -243.53 540.489 -251.78 544.183 -245.834"/></g><g id="node14" class="node"><title>Node13</title><g id="a_node14"><a target="_top" xlink:href="optional__value_8h.html" xlink:title="mir/optional_value.h"><polygon fill="#fff" stroke="#000" points="795 -224.5 795 -243.5 912 -243.5 912 -224.5 795 -224.5"/><text x="853.5" y="-231.5" fill="#000" font-family="Arial" font-size="10" text-anchor="middle">mir/optional_value.h</text></a></g></g><g id="edge21" class="edge"><title>Node0-&gt;Node13</title><path fill="none" stroke="#191970" d="M675.2321,-280.4554C715.8183,-269.8789 769.4073,-255.914 807.1967,-246.0663"/><polygon fill="#191970" stroke="#191970" points="808.134 -249.439 816.928 -243.53 806.369 -242.665 808.134 -249.439"/></g><g id="node17" class="node"><title>Node16</title><g id="a_node17"><a target="_top" xlink:href="int__wrapper_8h.html" xlink:title="mir/int_wrapper.h"><polygon fill="#fff" stroke="#000" points="665.5 -224.5 665.5 -243.5 767.5 -243.5 767.5 -224.5 665.5 -224.5"/><text x="716.5" y="-231.5" fill="#000" font-family="Arial" font-size="10" text-anchor="middle">mir/int_wrapper.h</text></a></g></g><g id="edge24" class="edge"><title>Node0-&gt;Node16</title><path fill="none" stroke="#191970" d="M641.7181,-280.4554C657.0773,-270.9141 676.8757,-258.6151 692.2425,-249.0691"/><polygon fill="#191970" stroke="#191970" points="694.511 -251.78 701.159 -243.53 690.817 -245.834 694.511 -251.78"/></g><g id="node19" class="node"><title>Node18</title><polygon fill="#fff" stroke="#bfbfbf" points="930.5 -224.5 930.5 -243.5 988.5 -243.5 988.5 -224.5 930.5 -224.5"/><text x="959.5" y="-231.5" fill="#000" font-family="Arial" font-size="10" text-anchor="middle">memory</text></g><g id="edge27" class="edge"><title>Node0-&gt;Node18</title><path fill="none" stroke="#191970" d="M684.247,-285.9506C743.7662,-277.0353 833.4396,-262.6236 920.0999,-244.1657"/><polygon fill="#191970" stroke="#191970" points="921.064 -247.538 930.104 -242.014 919.592 -240.695 921.064 -247.538"/></g><g id="node3" class="node"><title>Node2</title><g id="a_node3"><a target="_top" xlink:href="deprecations_8h.html" xlink:title="mir_toolkit/deprecations.h"><polygon fill="#fff" stroke="#000" points="0 -168.5 0 -187.5 145 -187.5 145 -168.5 0 -168.5"/><text x="72.5" y="-175.5" fill="#000" font-family="Arial" font-size="10" text-anchor="middle">mir_toolkit/deprecations.h</text></a></g></g><g id="edge2" class="edge"><title>Node1-&gt;Node2</title><path fill="none" stroke="#191970" d="M125.3521,-224.2455C115.9913,-216.0549 102.4142,-204.1749 91.3651,-194.5069"/><polygon fill="#191970" stroke="#191970" points="93.351 -191.594 83.52 -187.643 88.741 -196.862 93.351 -191.594"/></g><g id="node5" class="node"><title>Node4</title><g id="a_node5"><a target="_top" xlink:href="dimensions_8h.html" xlink:title="mir/geometry/dimensions.h"><polygon fill="#fff" stroke="#000" points="380.5 -56.5 380.5 -75.5 532.5 -75.5 532.5 -56.5 380.5 -56.5"/><text x="456.5" y="-63.5" fill="#000" font-family="Arial" font-size="10" text-anchor="middle">mir/geometry/dimensions.h</text></a></g></g><g id="edge4" class="edge"><title>Node3-&gt;Node4</title><path fill="none" stroke="#191970" d="M261.6603,-168.4509C299.151,-148.7375 385.2847,-103.4465 429.3913,-80.2543"/><polygon fill="#191970" stroke="#191970" points="431.164 -83.277 438.386 -75.525 427.906 -77.081 431.164 -83.277"/></g><g id="node7" class="node"><title>Node6</title><polygon fill="#fff" stroke="#bfbfbf" points="555 -.5 555 -19.5 604 -19.5 604 -.5 555 -.5"/><text x="579.5" y="-7.5" fill="#000" font-family="Arial" font-size="10" text-anchor="middle">iosfwd</text></g><g id="edge10" class="edge"><title>Node3-&gt;Node6</title><path fill="none" stroke="#191970" d="M250.615,-168.2457C268.2401,-144.8469 316.4996,-85.3031 371.5,-56 401.1966,-40.1782 493.7649,-23.6079 544.8233,-15.3469"/><polygon fill="#191970" stroke="#191970" points="545.428 -18.795 554.751 -13.761 544.324 -11.882 545.428 -18.795"/></g><g id="node8" class="node"><title>Node7</title><g id="a_node8"><a target="_top" xlink:href="point_8h.html" xlink:title="mir/geometry/point.h"><polygon fill="#fff" stroke="#000" points="430.5 -112.5 430.5 -131.5 550.5 -131.5 550.5 -112.5 430.5 -112.5"/><text x="490.5" y="-119.5" fill="#000" font-family="Arial" font-size="10" text-anchor="middle">mir/geometry/point.h</text></a></g></g><g id="edge7" class="edge"><title>Node3-&gt;Node7</title><path fill="none" stroke="#191970" d="M285.6802,-168.4369C327.9523,-158.8529 393.1062,-144.0812 438.5417,-133.78"/><polygon fill="#191970" stroke="#191970" points="439.515 -137.148 448.494 -131.524 437.967 -130.321 439.515 -137.148"/></g><g id="node6" class="node"><title>Node5</title><polygon fill="#fff" stroke="#bfbfbf" points="431.5 -.5 431.5 -19.5 481.5 -19.5 481.5 -.5 431.5 -.5"/><text x="456.5" y="-7.5" fill="#000" font-family="Arial" font-size="10" text-anchor="middle">cstdint</text></g><g id="edge5" class="edge"><title>Node4-&gt;Node5</title><path fill="none" stroke="#191970" d="M456.5,-56.2455C456.5,-48.9382 456.5,-38.6944 456.5,-29.7046"/><polygon fill="#191970" stroke="#191970" points="460 -29.643 456.5 -19.643 453 -29.643 460 -29.643"/></g><g id="edge6" class="edge"><title>Node4-&gt;Node6</title><path fill="none" stroke="#191970" d="M477.6445,-56.3733C497.3892,-47.3838 527.0698,-33.8706 549.3055,-23.7471"/><polygon fill="#191970" stroke="#191970" points="550.981 -26.83 558.631 -19.501 548.08 -20.459 550.981 -26.83"/></g><g id="edge8" class="edge"><title>Node7-&gt;Node4</title><path fill="none" stroke="#191970" d="M484.5777,-112.2455C479.8973,-104.5367 473.2327,-93.5598 467.5711,-84.2348"/><polygon fill="#191970" stroke="#191970" points="470.536 -82.374 462.354 -75.643 464.553 -86.007 470.536 -82.374"/></g><g id="edge9" class="edge"><title>Node7-&gt;Node6</title><path fill="none" stroke="#191970" d="M503.2721,-112.3725C514.2651,-103.6704 530.1087,-90.0967 541.5,-76 553.4031,-61.27 563.8823,-42.3618 570.8047,-28.5621"/><polygon fill="#191970" stroke="#191970" points="573.962 -30.073 575.186 -19.549 567.666 -27.013 573.962 -30.073"/></g><g id="edge12" class="edge"><title>Node8-&gt;Node7</title><path fill="none" stroke="#191970" d="M516.1127,-224.4509C511.5253,-206.1013 501.3977,-165.5908 495.3423,-141.3693"/><polygon fill="#191970" stroke="#191970" points="498.702 -140.377 492.881 -131.525 491.911 -142.075 498.702 -140.377"/></g><g id="node10" class="node"><title>Node9</title><g id="a_node10"><a target="_top" xlink:href="rectangle_8h.html" xlink:title="mir/geometry/rectangle.h"><polygon fill="#fff" stroke="#000" points="547 -168.5 547 -187.5 688 -187.5 688 -168.5 547 -168.5"/><text x="617.5" y="-175.5" fill="#000" font-family="Arial" font-size="10" text-anchor="middle">mir/geometry/rectangle.h</text></a></g></g><g id="edge13" class="edge"><title>Node8-&gt;Node9</title><path fill="none" stroke="#191970" d="M535.7445,-224.2455C551.0761,-215.5731 573.7199,-202.7645 591.2916,-192.825"/><polygon fill="#191970" stroke="#191970" points="593.472 -195.613 600.453 -187.643 590.026 -189.52 593.472 -195.613"/></g><g id="node12" class="node"><title>Node11</title><polygon fill="#fff" stroke="#bfbfbf" points="342 -168.5 342 -187.5 389 -187.5 389 -168.5 342 -168.5"/><text x="365.5" y="-175.5" fill="#000" font-family="Arial" font-size="10" text-anchor="middle">vector</text></g><g id="edge19" class="edge"><title>Node8-&gt;Node11</title><path fill="none" stroke="#191970" d="M492.1984,-224.3733C466.3656,-214.9181 426.8599,-200.4585 398.8384,-190.2023"/><polygon fill="#191970" stroke="#191970" points="400.041 -186.915 389.447 -186.765 397.635 -193.489 400.041 -186.915"/></g><g id="node13" class="node"><title>Node12</title><polygon fill="#fff" stroke="#bfbfbf" points="407 -168.5 407 -187.5 490 -187.5 490 -168.5 407 -168.5"/><text x="448.5" y="-175.5" fill="#000" font-family="Arial" font-size="10" text-anchor="middle">initializer_list</text></g><g id="edge20" class="edge"><title>Node8-&gt;Node12</title><path fill="none" stroke="#191970" d="M506.3069,-224.2455C495.8679,-215.8943 480.6345,-203.7076 468.426,-193.9408"/><polygon fill="#191970" stroke="#191970" points="470.548 -191.157 460.553 -187.643 466.176 -196.623 470.548 -191.157"/></g><g id="edge18" class="edge"><title>Node9-&gt;Node6</title><path fill="none" stroke="#191970" d="M619.902,-168.0611C622.6703,-155.057 626.3714,-131.6163 622.5,-112 616.452,-81.355 600.7497,-48.5058 590.0906,-28.605"/><polygon fill="#191970" stroke="#191970" points="593.078 -26.774 585.191 -19.7 586.945 -30.149 593.078 -26.774"/></g><g id="edge14" class="edge"><title>Node9-&gt;Node7</title><path fill="none" stroke="#191970" d="M595.6679,-168.3733C575.1897,-159.3435 544.3601,-145.7494 521.3681,-135.6111"/><polygon fill="#191970" stroke="#191970" points="522.609 -132.333 512.047 -131.501 519.785 -138.738 522.609 -132.333"/></g><g id="node11" class="node"><title>Node10</title><g id="a_node11"><a target="_top" xlink:href="size_8h.html" xlink:title="size.h"><polygon fill="#fff" stroke="#000" points="569 -112.5 569 -131.5 614 -131.5 614 -112.5 569 -112.5"/><text x="591.5" y="-119.5" fill="#000" font-family="Arial" font-size="10" text-anchor="middle">size.h</text></a></g></g><g id="edge15" class="edge"><title>Node9-&gt;Node10</title><path fill="none" stroke="#191970" d="M612.9711,-168.2455C609.4666,-160.6973 604.5073,-150.0158 600.2377,-140.8197"/><polygon fill="#191970" stroke="#191970" points="603.363 -139.239 595.977 -131.643 597.014 -142.187 603.363 -139.239"/></g><g id="edge16" class="edge"><title>Node10-&gt;Node4</title><path fill="none" stroke="#191970" d="M568.904,-112.6269C547.0367,-103.556 513.6623,-89.7118 488.9557,-79.4631"/><polygon fill="#191970" stroke="#191970" points="490.2 -76.19 479.622 -75.591 487.518 -82.656 490.2 -76.19"/></g><g id="edge17" class="edge"><title>Node10-&gt;Node6</title><path fill="none" stroke="#191970" d="M590.4769,-112.4509C588.5197,-94.184 584.2095,-53.9553 581.6105,-29.6976"/><polygon fill="#191970" stroke="#191970" points="585.066 -29.095 580.52 -19.525 578.106 -29.841 585.066 -29.095"/></g><g id="node15" class="node"><title>Node14</title><g id="a_node15"><a target="_top" xlink:href="fatal_8h.html" xlink:title="mir/fatal.h"><polygon fill="#fff" stroke="#000" points="828.5 -168.5 828.5 -187.5 896.5 -187.5 896.5 -168.5 828.5 -168.5"/><text x="862.5" y="-175.5" fill="#000" font-family="Arial" font-size="10" text-anchor="middle">mir/fatal.h</text></a></g></g><g id="edge22" class="edge"><title>Node13-&gt;Node14</title><path fill="none" stroke="#191970" d="M855.0677,-224.2455C856.2421,-216.9382 857.8884,-206.6944 859.3332,-197.7046"/><polygon fill="#191970" stroke="#191970" points="862.819 -198.071 860.95 -187.643 855.908 -196.961 862.819 -198.071"/></g><g id="node16" class="node"><title>Node15</title><polygon fill="#fff" stroke="#bfbfbf" points="915 -168.5 915 -187.5 960 -187.5 960 -168.5 915 -168.5"/><text x="937.5" y="-175.5" fill="#000" font-family="Arial" font-size="10" text-anchor="middle">utility</text></g><g id="edge23" class="edge"><title>Node13-&gt;Node15</title><path fill="none" stroke="#191970" d="M868.1317,-224.2455C880.8994,-215.7337 899.6438,-203.2375 914.4299,-193.3801"/><polygon fill="#191970" stroke="#191970" points="916.657 -196.102 923.036 -187.643 912.774 -190.278 916.657 -196.102"/></g><g id="edge25" class="edge"><title>Node16-&gt;Node6</title><path fill="none" stroke="#191970" d="M714.4856,-224.2804C711.5515,-211.1163 705.4574,-187.0737 696.5,-168 671.1389,-113.997 659.4454,-102.8459 622.5,-56 614.5996,-45.9825 604.9662,-35.5387 596.8216,-27.1392"/><polygon fill="#191970" stroke="#191970" points="599.089 -24.454 589.574 -19.793 594.106 -29.37 599.089 -24.454"/></g><g id="node18" class="node"><title>Node17</title><polygon fill="#fff" stroke="#bfbfbf" points="745 -168.5 745 -187.5 810 -187.5 810 -168.5 745 -168.5"/><text x="777.5" y="-175.5" fill="#000" font-family="Arial" font-size="10" text-anchor="middle">functional</text></g><g id="edge26" class="edge"><title>Node16-&gt;Node17</title><path fill="none" stroke="#191970" d="M727.1254,-224.2455C736.0473,-216.0549 748.988,-204.1749 759.5192,-194.5069"/><polygon fill="#191970" stroke="#191970" points="761.997 -196.984 766.996 -187.643 757.263 -191.827 761.997 -196.984"/></g></g></svg>