<svg xmlns="http://www.w3.org/2000/svg" xmlns:xlink="http://www.w3.org/1999/xlink" width="3092" height="484" viewBox="0 0 2318.5 363"><g id="graph0" class="graph" transform="scale(1 1) rotate(0) translate(4 359)"><title>include/miral/miral/window_management_policy.h</title><polygon fill="#fff" stroke="transparent" points="-4 4 -4 -359 2314.5 -359 2314.5 4 -4 4"/><g id="node1" class="node"><title>Node0</title><polygon fill="#bfbfbf" stroke="#000" points="400.5 -324.5 400.5 -354.5 570.5 -354.5 570.5 -324.5 400.5 -324.5"/><text x="408.5" y="-342.5" fill="#000" font-family="Arial" font-size="10" text-anchor="start">include/miral/miral</text><text x="485.5" y="-331.5" fill="#000" font-family="Arial" font-size="10" text-anchor="middle">/window_management_policy.h</text></g><g id="node2" class="node"><title>Node1</title><g id="a_node2"><a target="_top" xlink:href="displacement_8h.html" xlink:title="mir/geometry/displacement.h"><polygon fill="#fff" stroke="#000" points="364 -207 364 -226 525 -226 525 -207 364 -207"/><text x="444.5" y="-214" fill="#000" font-family="Arial" font-size="10" text-anchor="middle">mir/geometry/displacement.h</text></a></g></g><g id="edge1" class="edge"><title>Node0-&gt;Node1</title><path fill="none" stroke="#191970" d="M478.3685,-324.4019C473.7462,-314.2552 467.8063,-300.5019 463.5,-288 457.5667,-270.7748 452.3754,-250.6872 448.9254,-236.1973"/><polygon fill="#191970" stroke="#191970" points="452.31 -235.3 446.643 -226.348 445.491 -236.88 452.31 -235.3"/></g><g id="node7" class="node"><title>Node6</title><g id="a_node7"><a target="_top" xlink:href="rectangles_8h.html" xlink:title="mir/geometry/rectangles.h"><polygon fill="#fff" stroke="#000" points="192.5 -268.5 192.5 -287.5 338.5 -287.5 338.5 -268.5 192.5 -268.5"/><text x="265.5" y="-275.5" fill="#000" font-family="Arial" font-size="10" text-anchor="middle">mir/geometry/rectangles.h</text></a></g></g><g id="edge9" class="edge"><title>Node0-&gt;Node6</title><path fill="none" stroke="#191970" d="M431.6819,-324.4554C394.1694,-313.9689 344.741,-300.1515 309.5667,-290.3187"/><polygon fill="#191970" stroke="#191970" points="310.165 -286.852 299.592 -287.53 308.281 -293.593 310.165 -286.852"/></g><g id="node12" class="node"><title>Node11</title><g id="a_node12"><a target="_top" xlink:href="toolkit_2event_8h.html" xlink:title="mir_toolkit/event.h"><polygon fill="#fff" stroke="#000" points="472.5 -268.5 472.5 -287.5 582.5 -287.5 582.5 -268.5 472.5 -268.5"/><text x="527.5" y="-275.5" fill="#000" font-family="Arial" font-size="10" text-anchor="middle">mir_toolkit/event.h</text></a></g></g><g id="edge19" class="edge"><title>Node0-&gt;Node11</title><path fill="none" stroke="#191970" d="M495.882,-324.2977C501.6513,-315.8498 508.8716,-305.2773 514.9553,-296.369"/><polygon fill="#191970" stroke="#191970" points="518.026 -298.079 520.775 -287.847 512.245 -294.131 518.026 -298.079"/></g><g id="node35" class="node"><title>Node34</title><polygon fill="#fff" stroke="#bfbfbf" points="600.5 -268.5 600.5 -287.5 658.5 -287.5 658.5 -268.5 600.5 -268.5"/><text x="629.5" y="-275.5" fill="#000" font-family="Arial" font-size="10" text-anchor="middle">memory</text></g><g id="edge61" class="edge"><title>Node0-&gt;Node34</title><path fill="none" stroke="#191970" d="M520.7264,-324.4554C544.3316,-314.374 575.1454,-301.2139 597.9476,-291.4755"/><polygon fill="#191970" stroke="#191970" points="599.363 -294.677 607.185 -287.53 596.614 -288.239 599.363 -294.677"/></g><g id="node3" class="node"><title>Node2</title><g id="a_node3"><a target="_top" xlink:href="dimensions_8h.html" xlink:title="mir/geometry/dimensions.h"><polygon fill="#fff" stroke="#000" points="244.5 -62 244.5 -81 396.5 -81 396.5 -62 244.5 -62"/><text x="320.5" y="-69" fill="#000" font-family="Arial" font-size="10" text-anchor="middle">mir/geometry/dimensions.h</text></a></g></g><g id="edge2" class="edge"><title>Node1-&gt;Node2</title><path fill="none" stroke="#191970" d="M438.6488,-206.9801C427.697,-189.495 402.9051,-151.4508 377.5,-123 366.0632,-110.1921 351.7127,-97.2408 340.2721,-87.53"/><polygon fill="#191970" stroke="#191970" points="342.46 -84.797 332.539 -81.08 337.977 -90.173 342.46 -84.797"/></g><g id="node5" class="node"><title>Node4</title><polygon fill="#fff" stroke="#bfbfbf" points="192 -.5 192 -19.5 241 -19.5 241 -.5 192 -.5"/><text x="216.5" y="-7.5" fill="#000" font-family="Arial" font-size="10" text-anchor="middle">iosfwd</text></g><g id="edge8" class="edge"><title>Node1-&gt;Node4</title><path fill="none" stroke="#191970" d="M445.2986,-206.9411C447.0432,-179.3078 448.0729,-98.5888 405.5,-56 394.5833,-45.0792 302.7923,-26.2829 251.2608,-16.4388"/><polygon fill="#191970" stroke="#191970" points="251.7 -12.96 241.223 -14.537 250.397 -19.837 251.7 -12.96"/></g><g id="node6" class="node"><title>Node5</title><g id="a_node6"><a target="_top" xlink:href="point_8h.html" xlink:title="mir/geometry/point.h"><polygon fill="#fff" stroke="#000" points="248.5 -134.5 248.5 -153.5 368.5 -153.5 368.5 -134.5 248.5 -134.5"/><text x="308.5" y="-141.5" fill="#000" font-family="Arial" font-size="10" text-anchor="middle">mir/geometry/point.h</text></a></g></g><g id="edge5" class="edge"><title>Node1-&gt;Node5</title><path fill="none" stroke="#191970" d="M426.4403,-206.8726C403.1718,-194.4684 362.5164,-172.7955 335.5507,-158.4204"/><polygon fill="#191970" stroke="#191970" points="337.105 -155.283 326.634 -153.667 333.812 -161.46 337.105 -155.283"/></g><g id="node4" class="node"><title>Node3</title><polygon fill="#fff" stroke="#bfbfbf" points="295.5 -.5 295.5 -19.5 345.5 -19.5 345.5 -.5 295.5 -.5"/><text x="320.5" y="-7.5" fill="#000" font-family="Arial" font-size="10" text-anchor="middle">cstdint</text></g><g id="edge3" class="edge"><title>Node2-&gt;Node3</title><path fill="none" stroke="#191970" d="M320.5,-61.8906C320.5,-53.3657 320.5,-40.6392 320.5,-29.9235"/><polygon fill="#191970" stroke="#191970" points="324 -29.745 320.5 -19.745 317 -29.745 324 -29.745"/></g><g id="edge4" class="edge"><title>Node2-&gt;Node4</title><path fill="none" stroke="#191970" d="M304.25,-61.8906C287.3831,-51.9165 260.7901,-36.1908 241.2965,-24.6633"/><polygon fill="#191970" stroke="#191970" points="243.025 -21.619 232.636 -19.542 239.462 -27.645 243.025 -21.619"/></g><g id="edge6" class="edge"><title>Node5-&gt;Node2</title><path fill="none" stroke="#191970" d="M310.1184,-134.2223C311.9356,-123.243 314.932,-105.1397 317.2398,-91.197"/><polygon fill="#191970" stroke="#191970" points="320.727 -91.56 318.907 -81.123 313.821 -90.417 320.727 -91.56"/></g><g id="edge7" class="edge"><title>Node5-&gt;Node4</title><path fill="none" stroke="#191970" d="M290.0291,-134.3391C273.2633,-124.6129 249.1392,-108.0517 235.5,-87 224.3072,-69.7243 219.7076,-46.3661 217.8176,-29.9213"/><polygon fill="#191970" stroke="#191970" points="221.288 -29.441 216.894 -19.801 214.317 -30.077 221.288 -29.441"/></g><g id="edge10" class="edge"><title>Node6-&gt;Node5</title><path fill="none" stroke="#191970" d="M281.9177,-268.2212C293.7076,-260.1641 308.6747,-247.5536 315.5,-232 325.1785,-209.9443 320.3359,-181.8043 315.1534,-163.3622"/><polygon fill="#191970" stroke="#191970" points="318.476 -162.258 312.17 -153.744 311.79 -164.332 318.476 -162.258"/></g><g id="node8" class="node"><title>Node7</title><g id="a_node8"><a target="_top" xlink:href="rectangle_8h.html" xlink:title="mir/geometry/rectangle.h"><polygon fill="#fff" stroke="#000" points="0 -207 0 -226 141 -226 141 -207 0 -207"/><text x="70.5" y="-214" fill="#000" font-family="Arial" font-size="10" text-anchor="middle">mir/geometry/rectangle.h</text></a></g></g><g id="edge11" class="edge"><title>Node6-&gt;Node7</title><path fill="none" stroke="#191970" d="M235.0313,-268.3906C201.5456,-257.8298 147.6147,-240.8208 110.688,-229.1747"/><polygon fill="#191970" stroke="#191970" points="111.344 -225.712 100.755 -226.042 109.239 -232.388 111.344 -225.712"/></g><g id="node10" class="node"><title>Node9</title><polygon fill="#fff" stroke="#bfbfbf" points="159 -207 159 -226 206 -226 206 -207 159 -207"/><text x="182.5" y="-214" fill="#000" font-family="Arial" font-size="10" text-anchor="middle">vector</text></g><g id="edge17" class="edge"><title>Node6-&gt;Node9</title><path fill="none" stroke="#191970" d="M252.5313,-268.3906C239.4966,-258.7324 219.1836,-243.6812 203.7845,-232.271"/><polygon fill="#191970" stroke="#191970" points="205.496 -229.183 195.378 -226.042 201.329 -234.808 205.496 -229.183"/></g><g id="node11" class="node"><title>Node10</title><polygon fill="#fff" stroke="#bfbfbf" points="224 -207 224 -226 307 -226 307 -207 224 -207"/><text x="265.5" y="-214" fill="#000" font-family="Arial" font-size="10" text-anchor="middle">initializer_list</text></g><g id="edge18" class="edge"><title>Node6-&gt;Node10</title><path fill="none" stroke="#191970" d="M265.5,-268.3906C265.5,-259.8657 265.5,-247.1392 265.5,-236.4235"/><polygon fill="#191970" stroke="#191970" points="269 -236.245 265.5 -226.245 262 -236.245 269 -236.245"/></g><g id="edge16" class="edge"><title>Node7-&gt;Node4</title><path fill="none" stroke="#191970" d="M77.3461,-206.817C100.1409,-174.5764 173.7155,-70.5137 203.6514,-28.1729"/><polygon fill="#191970" stroke="#191970" points="206.584 -30.088 209.499 -19.902 200.868 -26.047 206.584 -30.088"/></g><g id="edge12" class="edge"><title>Node7-&gt;Node5</title><path fill="none" stroke="#191970" d="M102.1046,-206.8726C144.6314,-193.918 220.3459,-170.8537 267.2976,-156.5512"/><polygon fill="#191970" stroke="#191970" points="268.598 -159.814 277.144 -153.552 266.558 -153.118 268.598 -159.814"/></g><g id="node9" class="node"><title>Node8</title><g id="a_node9"><a target="_top" xlink:href="size_8h.html" xlink:title="size.h"><polygon fill="#fff" stroke="#000" points="156 -134.5 156 -153.5 201 -153.5 201 -134.5 156 -134.5"/><text x="178.5" y="-141.5" fill="#000" font-family="Arial" font-size="10" text-anchor="middle">size.h</text></a></g></g><g id="edge13" class="edge"><title>Node7-&gt;Node8</title><path fill="none" stroke="#191970" d="M85.0654,-206.7223C103.2021,-194.5472 134.3884,-173.612 155.7022,-159.3041"/><polygon fill="#191970" stroke="#191970" points="157.813 -162.102 164.165 -153.623 153.912 -156.29 157.813 -162.102"/></g><g id="edge14" class="edge"><title>Node8-&gt;Node2</title><path fill="none" stroke="#191970" d="M197.3565,-134.3726C221.7576,-121.9143 264.4716,-100.1061 292.6239,-85.7325"/><polygon fill="#191970" stroke="#191970" points="294.251 -88.832 301.565 -81.167 291.068 -82.597 294.251 -88.832"/></g><g id="edge15" class="edge"><title>Node8-&gt;Node4</title><path fill="none" stroke="#191970" d="M181.0019,-134.4684C185.2695,-118.2932 194.2922,-84.4527 202.5,-56 205.0097,-47.3 207.906,-37.7143 210.4108,-29.5552"/><polygon fill="#191970" stroke="#191970" points="213.803 -30.433 213.412 -19.846 207.115 -28.366 213.803 -30.433"/></g><g id="node13" class="node"><title>Node12</title><g id="a_node13"><a target="_top" xlink:href="toolkit_2events_2event_8h.html" xlink:title="mir_toolkit/events\l/event.h"><polygon fill="#fff" stroke="#000" points="1267.5 -201.5 1267.5 -231.5 1373.5 -231.5 1373.5 -201.5 1267.5 -201.5"/><text x="1275.5" y="-219.5" fill="#000" font-family="Arial" font-size="10" text-anchor="start">mir_toolkit/events</text><text x="1320.5" y="-208.5" fill="#000" font-family="Arial" font-size="10" text-anchor="middle">/event.h</text></a></g></g><g id="edge20" class="edge"><title>Node11-&gt;Node12</title><path fill="none" stroke="#191970" d="M582.6181,-269.0852C585.6193,-268.6943 588.5946,-268.329 591.5,-268 836.7497,-240.2273 1130.2209,-224.9253 1257.0134,-219.178"/><polygon fill="#191970" stroke="#191970" points="1257.474 -222.661 1267.307 -218.716 1257.16 -215.668 1257.474 -222.661"/></g><g id="node14" class="node"><title>Node13</title><polygon fill="#fff" stroke="#bfbfbf" points="1837.5 -134.5 1837.5 -153.5 1893.5 -153.5 1893.5 -134.5 1837.5 -134.5"/><text x="1865.5" y="-141.5" fill="#000" font-family="Arial" font-size="10" text-anchor="middle">stddef.h</text></g><g id="edge21" class="edge"><title>Node12-&gt;Node13</title><path fill="none" stroke="#191970" d="M1373.6102,-213.8949C1486.0721,-207.9278 1744.7811,-191.6912 1828.5,-165 1833.3468,-163.4547 1838.2639,-161.2209 1842.8625,-158.7808"/><polygon fill="#191970" stroke="#191970" points="1844.836 -161.682 1851.73 -153.637 1841.324 -155.627 1844.836 -161.682"/></g><g id="node15" class="node"><title>Node14</title><polygon fill="#fff" stroke="#bfbfbf" points="2027 -.5 2027 -19.5 2080 -19.5 2080 -.5 2027 -.5"/><text x="2053.5" y="-7.5" fill="#000" font-family="Arial" font-size="10" text-anchor="middle">stdint.h</text></g><g id="edge22" class="edge"><title>Node12-&gt;Node14</title><path fill="none" stroke="#191970" d="M1373.5313,-214.8332C1540.9531,-209.3167 2048.6499,-190.5394 2072.5,-165 2107.3966,-127.6318 2080.5668,-61.2024 2064.0174,-28.809"/><polygon fill="#191970" stroke="#191970" points="2066.886 -26.749 2059.097 -19.568 2060.707 -30.039 2066.886 -26.749"/></g><g id="node16" class="node"><title>Node15</title><g id="a_node16"><a target="_top" xlink:href="common_8h.html" xlink:title="mir_toolkit/common.h"><polygon fill="#fff" stroke="#000" points="463 -134.5 463 -153.5 588 -153.5 588 -134.5 463 -134.5"/><text x="525.5" y="-141.5" fill="#000" font-family="Arial" font-size="10" text-anchor="middle">mir_toolkit/common.h</text></a></g></g><g id="edge23" class="edge"><title>Node12-&gt;Node15</title><path fill="none" stroke="#191970" d="M1267.364,-214.1838C1123.0994,-207.6613 726.3173,-188.1019 597.5,-165 586.1175,-162.9587 573.967,-159.8062 562.9515,-156.5593"/><polygon fill="#191970" stroke="#191970" points="563.795 -153.157 553.209 -153.58 561.748 -159.851 563.795 -153.157"/></g><g id="node17" class="node"><title>Node16</title><g id="a_node17"><a target="_top" xlink:href="deprecations_8h.html" xlink:title="mir_toolkit/deprecations.h"><polygon fill="#fff" stroke="#000" points="715 -62 715 -81 860 -81 860 -62 715 -62"/><text x="787.5" y="-69" fill="#000" font-family="Arial" font-size="10" text-anchor="middle">mir_toolkit/deprecations.h</text></a></g></g><g id="edge25" class="edge"><title>Node12-&gt;Node16</title><path fill="none" stroke="#191970" d="M1373.8959,-215.7921C1511.0005,-213.4231 1867.1836,-203.5795 1902.5,-165 1915.1042,-151.2312 1915.3912,-136.5004 1902.5,-123 1866.9639,-85.7847 1122.6389,-74.8706 870.3094,-72.2335"/><polygon fill="#191970" stroke="#191970" points="870.139 -68.732 860.103 -72.129 870.067 -75.731 870.139 -68.732"/></g><g id="node18" class="node"><title>Node17</title><g id="a_node18"><a target="_top" xlink:href="input__event_8h.html" xlink:title="mir_toolkit/events\l/input/input_event.h"><polygon fill="#fff" stroke="#000" points="1949.5 -129 1949.5 -159 2063.5 -159 2063.5 -129 1949.5 -129"/><text x="1957.5" y="-147" fill="#000" font-family="Arial" font-size="10" text-anchor="start">mir_toolkit/events</text><text x="2006.5" y="-136" fill="#000" font-family="Arial" font-size="10" text-anchor="middle">/input/input_event.h</text></a></g></g><g id="edge26" class="edge"><title>Node12-&gt;Node17</title><path fill="none" stroke="#191970" d="M1373.8955,-215.5593C1480.1071,-212.9198 1724.5773,-202.9049 1926.5,-165 1931.5041,-164.0606 1936.6594,-162.9092 1941.8326,-161.6339"/><polygon fill="#191970" stroke="#191970" points="1942.97 -164.955 1951.768 -159.052 1941.209 -158.18 1942.97 -164.955"/></g><g id="node25" class="node"><title>Node24</title><g id="a_node25"><a target="_top" xlink:href="resize__event_8h.html" xlink:title="mir_toolkit/events\l/resize_event.h"><polygon fill="#fff" stroke="#000" points="1014.5 -129 1014.5 -159 1120.5 -159 1120.5 -129 1014.5 -129"/><text x="1022.5" y="-147" fill="#000" font-family="Arial" font-size="10" text-anchor="start">mir_toolkit/events</text><text x="1067.5" y="-136" fill="#000" font-family="Arial" font-size="10" text-anchor="middle">/resize_event.h</text></a></g></g><g id="edge37" class="edge"><title>Node12-&gt;Node24</title><path fill="none" stroke="#191970" d="M1267.1346,-204.9268C1226.5131,-194.9829 1169.6266,-179.9266 1120.5,-165 1117.5505,-164.1038 1114.53,-163.1618 1111.4973,-162.1937"/><polygon fill="#191970" stroke="#191970" points="1112.435 -158.818 1101.842 -159.037 1110.259 -165.471 1112.435 -158.818"/></g><g id="node26" class="node"><title>Node25</title><g id="a_node26"><a target="_top" xlink:href="surface__event_8h.html" xlink:title="mir_toolkit/events\l/surface_event.h"><polygon fill="#fff" stroke="#000" points="606.5 -129 606.5 -159 712.5 -159 712.5 -129 606.5 -129"/><text x="614.5" y="-147" fill="#000" font-family="Arial" font-size="10" text-anchor="start">mir_toolkit/events</text><text x="659.5" y="-136" fill="#000" font-family="Arial" font-size="10" text-anchor="middle">/surface_event.h</text></a></g></g><g id="edge39" class="edge"><title>Node12-&gt;Node25</title><path fill="none" stroke="#191970" d="M1267.2115,-213.816C1139.1171,-206.7993 817.348,-186.9285 712.5,-165 708.5458,-164.173 704.4943,-163.1708 700.4729,-162.0579"/><polygon fill="#191970" stroke="#191970" points="701.195 -158.621 690.611 -159.101 699.184 -165.326 701.195 -158.621"/></g><g id="node27" class="node"><title>Node26</title><g id="a_node27"><a target="_top" xlink:href="window__event_8h.html" xlink:title="mir_toolkit/events\l/window_event.h"><polygon fill="#fff" stroke="#000" points="1138.5 -129 1138.5 -159 1244.5 -159 1244.5 -129 1138.5 -129"/><text x="1146.5" y="-147" fill="#000" font-family="Arial" font-size="10" text-anchor="start">mir_toolkit/events</text><text x="1191.5" y="-136" fill="#000" font-family="Arial" font-size="10" text-anchor="middle">/window_event.h</text></a></g></g><g id="edge42" class="edge"><title>Node12-&gt;Node26</title><path fill="none" stroke="#191970" d="M1288.1784,-201.478C1267.6404,-190.6877 1241.3702,-176.023 1221.3304,-164.2071"/><polygon fill="#191970" stroke="#191970" points="1222.986 -161.119 1212.604 -159.003 1219.4 -167.131 1222.986 -161.119"/></g><g id="node28" class="node"><title>Node27</title><g id="a_node28"><a target="_top" xlink:href="orientation__event_8h.html" xlink:title="mir_toolkit/events\l/orientation_event.h"><polygon fill="#fff" stroke="#000" points="1263 -129 1263 -159 1378 -159 1378 -129 1263 -129"/><text x="1271" y="-147" fill="#000" font-family="Arial" font-size="10" text-anchor="start">mir_toolkit/events</text><text x="1320.5" y="-136" fill="#000" font-family="Arial" font-size="10" text-anchor="middle">/orientation_event.h</text></a></g></g><g id="edge44" class="edge"><title>Node12-&gt;Node27</title><path fill="none" stroke="#191970" d="M1314.9073,-201.478C1313.7494,-192.1459 1313.4604,-179.9157 1314.0402,-169.1368"/><polygon fill="#191970" stroke="#191970" points="1317.542 -169.265 1314.91 -159.003 1310.568 -168.667 1317.542 -169.265"/></g><g id="node29" class="node"><title>Node28</title><g id="a_node29"><a target="_top" xlink:href="prompt__session__event_8h.html" xlink:title="mir_toolkit/events\l/prompt_session_event.h"><polygon fill="#fff" stroke="#000" points="1396 -129 1396 -159 1535 -159 1535 -129 1396 -129"/><text x="1404" y="-147" fill="#000" font-family="Arial" font-size="10" text-anchor="start">mir_toolkit/events</text><text x="1465.5" y="-136" fill="#000" font-family="Arial" font-size="10" text-anchor="middle">/prompt_session_event.h</text></a></g></g><g id="edge46" class="edge"><title>Node12-&gt;Node28</title><path fill="none" stroke="#191970" d="M1344.9514,-201.478C1365.6489,-190.4447 1395.6629,-175.3605 1420.6176,-163.4132"/><polygon fill="#191970" stroke="#191970" points="1422.372 -166.454 1429.904 -159.003 1419.37 -160.131 1422.372 -166.454"/></g><g id="node30" class="node"><title>Node29</title><g id="a_node30"><a target="_top" xlink:href="keymap__event_8h.html" xlink:title="mir_toolkit/events\l/keymap_event.h"><polygon fill="#fff" stroke="#000" points="2119.5 -129 2119.5 -159 2225.5 -159 2225.5 -129 2119.5 -129"/><text x="2127.5" y="-147" fill="#000" font-family="Arial" font-size="10" text-anchor="start">mir_toolkit/events</text><text x="2172.5" y="-136" fill="#000" font-family="Arial" font-size="10" text-anchor="middle">/keymap_event.h</text></a></g></g><g id="edge48" class="edge"><title>Node12-&gt;Node29</title><path fill="none" stroke="#191970" d="M1373.7715,-214.5077C1525.3992,-208.7975 1956.7892,-191.0909 2096.5,-165 2101.1957,-164.1231 2106.0238,-163.0225 2110.866,-161.7874"/><polygon fill="#191970" stroke="#191970" points="2112.055 -165.091 2120.787 -159.092 2110.219 -158.336 2112.055 -165.091"/></g><g id="node31" class="node"><title>Node30</title><g id="a_node31"><a target="_top" xlink:href="input__configuration__event_8h.html" xlink:title="mir_toolkit/events\l/input_configuration\l_event.h"><polygon fill="#fff" stroke="#000" points="731 -123.5 731 -164.5 844 -164.5 844 -123.5 731 -123.5"/><text x="739" y="-152.5" fill="#000" font-family="Arial" font-size="10" text-anchor="start">mir_toolkit/events</text><text x="739" y="-141.5" fill="#000" font-family="Arial" font-size="10" text-anchor="start">/input_configuration</text><text x="787.5" y="-130.5" fill="#000" font-family="Arial" font-size="10" text-anchor="middle">_event.h</text></a></g></g><g id="edge51" class="edge"><title>Node12-&gt;Node30</title><path fill="none" stroke="#191970" d="M1267.2438,-214.3527C1180.3731,-209.9396 1003.3278,-197.567 852.284,-166.6042"/><polygon fill="#191970" stroke="#191970" points="852.878 -163.153 842.374 -164.538 851.449 -170.006 852.878 -163.153"/></g><g id="node32" class="node"><title>Node31</title><g id="a_node32"><a target="_top" xlink:href="surface__output__event_8h.html" xlink:title="mir_toolkit/events\l/surface_output_event.h"><polygon fill="#fff" stroke="#000" points="862.5 -129 862.5 -159 996.5 -159 996.5 -129 862.5 -129"/><text x="870.5" y="-147" fill="#000" font-family="Arial" font-size="10" text-anchor="start">mir_toolkit/events</text><text x="929.5" y="-136" fill="#000" font-family="Arial" font-size="10" text-anchor="middle">/surface_output_event.h</text></a></g></g><g id="edge54" class="edge"><title>Node12-&gt;Node31</title><path fill="none" stroke="#191970" d="M1267.3413,-210.4249C1202.6789,-202.0667 1090.818,-185.6781 996.5,-165 991.8159,-163.9731 986.9906,-162.8339 982.1735,-161.6326"/><polygon fill="#191970" stroke="#191970" points="982.903 -158.206 972.345 -159.095 981.153 -164.984 982.903 -158.206"/></g><g id="node33" class="node"><title>Node32</title><g id="a_node33"><a target="_top" xlink:href="window__output__event_8h.html" xlink:title="mir_toolkit/events\l/window_output_event.h"><polygon fill="#fff" stroke="#000" points="1553.5 -129 1553.5 -159 1689.5 -159 1689.5 -129 1553.5 -129"/><text x="1561.5" y="-147" fill="#000" font-family="Arial" font-size="10" text-anchor="start">mir_toolkit/events</text><text x="1621.5" y="-136" fill="#000" font-family="Arial" font-size="10" text-anchor="middle">/window_output_event.h</text></a></g></g><g id="edge57" class="edge"><title>Node12-&gt;Node32</title><path fill="none" stroke="#191970" d="M1373.581,-203.2765C1417.1923,-193.2418 1480.3511,-178.854 1535.5,-165 1539.7731,-163.9266 1544.1726,-162.7958 1548.6184,-161.6385"/><polygon fill="#191970" stroke="#191970" points="1549.609 -164.997 1558.394 -159.075 1547.833 -158.226 1549.609 -164.997"/></g><g id="node34" class="node"><title>Node33</title><g id="a_node34"><a target="_top" xlink:href="input__device__state__event_8h.html" xlink:title="mir_toolkit/events\l/input_device_state\l_event.h"><polygon fill="#fff" stroke="#000" points="1707.5 -123.5 1707.5 -164.5 1819.5 -164.5 1819.5 -123.5 1707.5 -123.5"/><text x="1715.5" y="-152.5" fill="#000" font-family="Arial" font-size="10" text-anchor="start">mir_toolkit/events</text><text x="1715.5" y="-141.5" fill="#000" font-family="Arial" font-size="10" text-anchor="start">/input_device_state</text><text x="1763.5" y="-130.5" fill="#000" font-family="Arial" font-size="10" text-anchor="middle">_event.h</text></a></g></g><g id="edge59" class="edge"><title>Node12-&gt;Node33</title><path fill="none" stroke="#191970" d="M1373.7387,-211.676C1445.9731,-204.8506 1578.427,-190.2992 1689.5,-165 1692.1197,-164.4033 1694.7849,-163.7477 1697.4731,-163.0484"/><polygon fill="#191970" stroke="#191970" points="1698.556 -166.381 1707.268 -160.352 1696.698 -159.632 1698.556 -166.381"/></g><g id="edge24" class="edge"><title>Node15-&gt;Node16</title><path fill="none" stroke="#191970" d="M557.7197,-134.4601C570.1374,-130.8208 584.4644,-126.6673 597.5,-123 646.5757,-109.1934 702.9705,-93.9909 741.4918,-83.7071"/><polygon fill="#191970" stroke="#191970" points="742.612 -87.031 751.373 -81.073 740.808 -80.267 742.612 -87.031"/></g><g id="edge27" class="edge"><title>Node17-&gt;Node12</title><path fill="none" stroke="#191970" d="M1969.4736,-159.0517C1961.3309,-161.3459 1952.7118,-163.4585 1944.5,-165 1742.3079,-202.9555 1497.4546,-212.9465 1383.8766,-215.5698"/><polygon fill="#191970" stroke="#191970" points="1383.549 -212.076 1373.629 -215.795 1383.703 -219.074 1383.549 -212.076"/></g><g id="edge30" class="edge"><title>Node17-&gt;Node14</title><path fill="none" stroke="#191970" d="M2015.025,-128.9087C2021.1134,-117.6394 2029.1424,-101.7107 2034.5,-87 2041.4006,-68.0523 2046.6241,-45.5835 2049.8309,-29.8234"/><polygon fill="#191970" stroke="#191970" points="2053.33 -30.164 2051.805 -19.68 2046.459 -28.827 2053.33 -30.164"/></g><g id="node19" class="node"><title>Node18</title><g id="a_node19"><a target="_top" xlink:href="mir__input__device__types_8h.html" xlink:title="mir_toolkit/mir_input\l_device_types.h"><polygon fill="#fff" stroke="#000" points="1772 -56.5 1772 -86.5 1891 -86.5 1891 -56.5 1772 -56.5"/><text x="1780" y="-74.5" fill="#000" font-family="Arial" font-size="10" text-anchor="start">mir_toolkit/mir_input</text><text x="1831.5" y="-63.5" fill="#000" font-family="Arial" font-size="10" text-anchor="middle">_device_types.h</text></a></g></g><g id="edge28" class="edge"><title>Node17-&gt;Node18</title><path fill="none" stroke="#191970" d="M1970.2399,-128.978C1943.2559,-117.7989 1906.2337,-102.4611 1877.22,-90.4411"/><polygon fill="#191970" stroke="#191970" points="1878.292 -87.097 1867.714 -86.503 1875.613 -93.564 1878.292 -87.097"/></g><g id="node20" class="node"><title>Node19</title><polygon fill="#fff" stroke="#bfbfbf" points="1667.5 -.5 1667.5 -19.5 1729.5 -19.5 1729.5 -.5 1667.5 -.5"/><text x="1698.5" y="-7.5" fill="#000" font-family="Arial" font-size="10" text-anchor="middle">stdbool.h</text></g><g id="edge31" class="edge"><title>Node17-&gt;Node19</title><path fill="none" stroke="#191970" d="M1957.3714,-128.9065C1950.0654,-126.8256 1942.6046,-124.791 1935.5,-123 1859.7685,-103.9084 1830.5674,-127.0214 1763.5,-87 1739.5433,-72.7042 1720.2107,-46.3401 1709.0374,-28.4903"/><polygon fill="#191970" stroke="#191970" points="1711.838 -26.355 1703.692 -19.58 1705.835 -29.956 1711.838 -26.355"/></g><g id="node21" class="node"><title>Node20</title><g id="a_node21"><a target="_top" xlink:href="touch__event_8h.html" xlink:title="mir_toolkit/events\l/input/touch_event.h"><polygon fill="#fff" stroke="#000" points="1909.5 -56.5 1909.5 -86.5 2025.5 -86.5 2025.5 -56.5 1909.5 -56.5"/><text x="1917.5" y="-74.5" fill="#000" font-family="Arial" font-size="10" text-anchor="start">mir_toolkit/events</text><text x="1967.5" y="-63.5" fill="#000" font-family="Arial" font-size="10" text-anchor="middle">/input/touch_event.h</text></a></g></g><g id="edge32" class="edge"><title>Node17-&gt;Node20</title><path fill="none" stroke="#191970" d="M1998.4192,-128.978C1993.2423,-119.3542 1986.4075,-106.6485 1980.4807,-95.6307"/><polygon fill="#191970" stroke="#191970" points="1983.39 -93.651 1975.571 -86.503 1977.226 -96.968 1983.39 -93.651"/></g><g id="node22" class="node"><title>Node21</title><g id="a_node22"><a target="_top" xlink:href="keyboard__event_8h.html" xlink:title="mir_toolkit/events\l/input/keyboard_event.h"><polygon fill="#fff" stroke="#000" points="2120 -56.5 2120 -86.5 2255 -86.5 2255 -56.5 2120 -56.5"/><text x="2128" y="-74.5" fill="#000" font-family="Arial" font-size="10" text-anchor="start">mir_toolkit/events</text><text x="2187.5" y="-63.5" fill="#000" font-family="Arial" font-size="10" text-anchor="middle">/input/keyboard_event.h</text></a></g></g><g id="edge33" class="edge"><title>Node17-&gt;Node21</title><path fill="none" stroke="#191970" d="M2044.0033,-128.978C2072.0338,-117.7503 2110.5372,-102.3276 2140.6034,-90.2845"/><polygon fill="#191970" stroke="#191970" points="2142.063 -93.47 2150.045 -86.503 2139.46 -86.972 2142.063 -93.47"/></g><g id="node24" class="node"><title>Node23</title><g id="a_node24"><a target="_top" xlink:href="pointer__event_8h.html" xlink:title="mir_toolkit/events\l/input/pointer_event.h"><polygon fill="#fff" stroke="#000" points="1591.5 -56.5 1591.5 -86.5 1715.5 -86.5 1715.5 -56.5 1591.5 -56.5"/><text x="1599.5" y="-74.5" fill="#000" font-family="Arial" font-size="10" text-anchor="start">mir_toolkit/events</text><text x="1653.5" y="-63.5" fill="#000" font-family="Arial" font-size="10" text-anchor="middle">/input/pointer_event.h</text></a></g></g><g id="edge35" class="edge"><title>Node17-&gt;Node23</title><path fill="none" stroke="#191970" d="M1958.1929,-128.9076C1950.6353,-126.7798 1942.8838,-124.7311 1935.5,-123 1845.0106,-101.7845 1820.8211,-104.2883 1729.5,-87 1728.2348,-86.7605 1726.958,-86.5172 1725.6724,-86.2708"/><polygon fill="#191970" stroke="#191970" points="1726.169 -82.802 1715.685 -84.331 1724.835 -89.674 1726.169 -82.802"/></g><g id="edge29" class="edge"><title>Node18-&gt;Node14</title><path fill="none" stroke="#191970" d="M1885.8073,-56.4554C1926.5817,-45.1598 1981.3074,-29.9993 2016.9798,-20.1171"/><polygon fill="#191970" stroke="#191970" points="2018.252 -23.396 2026.955 -17.354 2016.383 -16.651 2018.252 -23.396"/></g><g id="node23" class="node"><title>Node22</title><polygon fill="#fff" stroke="#bfbfbf" points="2160.5 -.5 2160.5 -19.5 2310.5 -19.5 2310.5 -.5 2160.5 -.5"/><text x="2235.5" y="-7.5" fill="#000" font-family="Arial" font-size="10" text-anchor="middle">xkbcommon/xkbcommon.h</text></g><g id="edge34" class="edge"><title>Node21-&gt;Node22</title><path fill="none" stroke="#191970" d="M2199.3652,-56.2977C2206.0975,-47.672 2214.5585,-36.8312 2221.6006,-27.8087"/><polygon fill="#191970" stroke="#191970" points="2224.421 -29.884 2227.815 -19.847 2218.903 -25.577 2224.421 -29.884"/></g><g id="edge36" class="edge"><title>Node23-&gt;Node19</title><path fill="none" stroke="#191970" d="M1664.6236,-56.2977C1670.8701,-47.7609 1678.704,-37.0545 1685.2647,-28.0883"/><polygon fill="#191970" stroke="#191970" points="1688.214 -29.984 1691.295 -19.847 1682.565 -25.851 1688.214 -29.984"/></g><g id="edge38" class="edge"><title>Node24-&gt;Node12</title><path fill="none" stroke="#191970" d="M1119.6536,-159.0372C1126.0187,-161.1042 1132.4107,-163.1498 1138.5,-165 1178.4488,-177.138 1223.5288,-189.3618 1258.8937,-198.8525"/><polygon fill="#191970" stroke="#191970" points="1258.033 -202.245 1268.599 -201.454 1259.846 -195.484 1258.033 -202.245"/></g><g id="edge40" class="edge"><title>Node25-&gt;Node12</title><path fill="none" stroke="#191970" d="M708.3166,-159.1006C715.7137,-161.3896 723.2695,-163.4878 730.5,-165 830.221,-185.8562 1126.1671,-204.851 1257.0975,-212.6957"/><polygon fill="#191970" stroke="#191970" points="1257.174 -216.206 1267.364 -213.308 1257.591 -209.219 1257.174 -216.206"/></g><g id="edge41" class="edge"><title>Node25-&gt;Node16</title><path fill="none" stroke="#191970" d="M686.0217,-128.978C708.191,-116.4211 739.624,-98.6173 761.6138,-86.1621"/><polygon fill="#191970" stroke="#191970" points="763.429 -89.156 770.405 -81.183 759.979 -83.066 763.429 -89.156"/></g><g id="edge43" class="edge"><title>Node26-&gt;Node12</title><path fill="none" stroke="#191970" d="M1223.785,-159.0028C1244.3161,-169.7884 1270.5866,-184.4525 1290.6339,-196.2718"/><polygon fill="#191970" stroke="#191970" points="1288.982 -199.362 1299.364 -201.478 1292.568 -193.35 1288.982 -199.362"/></g><g id="edge45" class="edge"><title>Node27-&gt;Node12</title><path fill="none" stroke="#191970" d="M1326.0903,-159.0028C1327.2494,-168.3309 1327.5396,-180.5601 1326.961,-191.3409"/><polygon fill="#191970" stroke="#191970" points="1323.459 -191.216 1326.093 -201.478 1330.433 -191.813 1323.459 -191.216"/></g><g id="edge47" class="edge"><title>Node28-&gt;Node12</title><path fill="none" stroke="#191970" d="M1441.0847,-159.0028C1420.398,-170.0313 1390.3865,-185.115 1365.4259,-197.066"/><polygon fill="#191970" stroke="#191970" points="1363.668 -194.026 1356.137 -201.478 1366.671 -200.349 1363.668 -194.026"/></g><g id="edge49" class="edge"><title>Node29-&gt;Node12</title><path fill="none" stroke="#191970" d="M2138.4787,-159.0916C2130.6927,-161.4119 2122.4086,-163.5231 2114.5,-165 1975.3276,-190.9904 1546.7195,-208.661 1383.9759,-214.4412"/><polygon fill="#191970" stroke="#191970" points="1383.517 -210.955 1373.647 -214.805 1383.764 -217.951 1383.517 -210.955"/></g><g id="edge50" class="edge"><title>Node29-&gt;Node22</title><path fill="none" stroke="#191970" d="M2214.9563,-128.8226C2233.6696,-119.7634 2253.8054,-106.2068 2264.5,-87 2275.2301,-67.7294 2262.4666,-43.6932 2250.6463,-27.6505"/><polygon fill="#191970" stroke="#191970" points="2253.272 -25.327 2244.332 -19.641 2247.775 -29.661 2253.272 -25.327"/></g><g id="edge52" class="edge"><title>Node30-&gt;Node12</title><path fill="none" stroke="#191970" d="M844.0736,-160.3847C850.2727,-162.1293 856.5009,-163.728 862.5,-165 1001.81,-194.5391 1168.3076,-207.7405 1257.2622,-213.1497"/><polygon fill="#191970" stroke="#191970" points="1257.267 -216.656 1267.457 -213.756 1257.683 -209.668 1257.267 -216.656"/></g><g id="edge53" class="edge"><title>Node30-&gt;Node16</title><path fill="none" stroke="#191970" d="M787.5,-123.4183C787.5,-113.32 787.5,-101.213 787.5,-91.2314"/><polygon fill="#191970" stroke="#191970" points="791 -91.085 787.5 -81.085 784 -91.085 791 -91.085"/></g><g id="edge55" class="edge"><title>Node31-&gt;Node12</title><path fill="none" stroke="#191970" d="M990.1249,-159.0952C998.3214,-161.2226 1006.6109,-163.2704 1014.5,-165 1097.9478,-183.2949 1195.1277,-198.2321 1257.2711,-207.2208"/><polygon fill="#191970" stroke="#191970" points="1256.919 -210.706 1267.316 -208.666 1257.916 -203.777 1256.919 -210.706"/></g><g id="edge56" class="edge"><title>Node31-&gt;Node16</title><path fill="none" stroke="#191970" d="M900.0775,-128.978C875.2638,-116.309 839.9889,-98.2989 815.5665,-85.8297"/><polygon fill="#191970" stroke="#191970" points="816.962 -82.613 806.464 -81.183 813.779 -88.847 816.962 -82.613"/></g><g id="edge58" class="edge"><title>Node32-&gt;Node12</title><path fill="none" stroke="#191970" d="M1576.2156,-159.0746C1568.6608,-161.115 1560.8913,-163.1432 1553.5,-165 1496.5324,-179.3109 1431.018,-194.1913 1383.9093,-204.2549"/><polygon fill="#191970" stroke="#191970" points="1382.903 -200.89 1373.847 -206.39 1384.356 -207.738 1382.903 -200.89"/></g><g id="edge60" class="edge"><title>Node33-&gt;Node12</title><path fill="none" stroke="#191970" d="M1709.5902,-164.5138C1708.8907,-164.6798 1708.1938,-164.842 1707.5,-165 1595.1739,-190.5847 1460.9818,-205.1775 1383.6708,-211.904"/><polygon fill="#191970" stroke="#191970" points="1383.275 -208.425 1373.609 -212.763 1383.87 -215.4 1383.275 -208.425"/></g></g></svg>