<svg xmlns="http://www.w3.org/2000/svg" xmlns:xlink="http://www.w3.org/1999/xlink" width="713pt" height="320" viewBox="0 0 713 240"><g id="graph0" class="graph" transform="scale(1 1) rotate(0) translate(4 236)"><title>include/miral/miral/window_management_policy.h</title><polygon fill="#fff" stroke="transparent" points="-4 4 -4 -236 709 -236 709 4 -4 4"/><g id="node1" class="node"><title>Node35</title><polygon fill="#bfbfbf" stroke="#000" points="282.5 -201.5 282.5 -231.5 452.5 -231.5 452.5 -201.5 282.5 -201.5"/><text x="290.5" y="-219.5" fill="#000" font-family="Arial" font-size="10" text-anchor="start">include/miral/miral</text><text x="367.5" y="-208.5" fill="#000" font-family="Arial" font-size="10" text-anchor="middle">/window_management_policy.h</text></g><g id="node2" class="node"><title>Node36</title><g id="a_node2"><a target="_top" xlink:href="tiling__window__manager_8h.html" xlink:title="examples/example-server\l-lib/tiling_window_manager.h"><polygon fill="#fff" stroke="#000" points="287.5 -134.5 287.5 -164.5 447.5 -164.5 447.5 -134.5 287.5 -134.5"/><text x="295.5" y="-152.5" fill="#000" font-family="Arial" font-size="10" text-anchor="start">examples/example-server</text><text x="367.5" y="-141.5" fill="#000" font-family="Arial" font-size="10" text-anchor="middle">-lib/tiling_window_manager.h</text></a></g></g><g id="edge1" class="edge"><title>Node35-&gt;Node36</title><path fill="none" stroke="#191970" d="M367.5,-191.0249C367.5,-182.128 367.5,-172.4287 367.5,-164.6432"/><polygon fill="#191970" stroke="#191970" points="364 -191.297 367.5 -201.297 371 -191.297 364 -191.297"/></g><g id="node5" class="node"><title>Node39</title><g id="a_node5"><a target="_top" xlink:href="canonical__window__manager_8h.html" xlink:title="include/miral/miral\l/canonical_window_manager.h"><polygon fill="#fff" stroke="#000" points="92.5 -134.5 92.5 -164.5 258.5 -164.5 258.5 -134.5 92.5 -134.5"/><text x="100.5" y="-152.5" fill="#000" font-family="Arial" font-size="10" text-anchor="start">include/miral/miral</text><text x="175.5" y="-141.5" fill="#000" font-family="Arial" font-size="10" text-anchor="middle">/canonical_window_manager.h</text></a></g></g><g id="edge4" class="edge"><title>Node35-&gt;Node39</title><path fill="none" stroke="#191970" d="M314.884,-198.1392C284.6917,-187.6033 247.2492,-174.5375 218.7765,-164.6017"/><polygon fill="#191970" stroke="#191970" points="313.817 -201.474 324.411 -201.464 316.123 -194.864 313.817 -201.474"/></g><g id="node9" class="node"><title>Node43</title><g id="a_node9"><a target="_top" xlink:href="minimal__window__manager_8h.html" xlink:title="include/miral/miral\l/minimal_window_manager.h"><polygon fill="#fff" stroke="#000" points="471.5 -134.5 471.5 -164.5 631.5 -164.5 631.5 -134.5 471.5 -134.5"/><text x="479.5" y="-152.5" fill="#000" font-family="Arial" font-size="10" text-anchor="start">include/miral/miral</text><text x="551.5" y="-141.5" fill="#000" font-family="Arial" font-size="10" text-anchor="middle">/minimal_window_manager.h</text></a></g></g><g id="edge8" class="edge"><title>Node35-&gt;Node43</title><path fill="none" stroke="#191970" d="M418.2998,-198.0023C447.1685,-187.4903 482.8585,-174.4945 510.0267,-164.6017"/><polygon fill="#191970" stroke="#191970" points="416.992 -194.754 408.793 -201.464 419.387 -201.331 416.992 -194.754"/></g><g id="node3" class="node"><title>Node37</title><g id="a_node3"><a target="_top" xlink:href="shell__main_8cpp.html" xlink:title="examples/miral-shell\l/shell_main.cpp"><polygon fill="#fff" stroke="#000" points="383.5 -.5 383.5 -30.5 503.5 -30.5 503.5 -.5 383.5 -.5"/><text x="391.5" y="-18.5" fill="#000" font-family="Arial" font-size="10" text-anchor="start">examples/miral-shell</text><text x="443.5" y="-7.5" fill="#000" font-family="Arial" font-size="10" text-anchor="middle">/shell_main.cpp</text></a></g></g><g id="edge2" class="edge"><title>Node36-&gt;Node37</title><path fill="none" stroke="#191970" d="M397.2979,-127.9154C406.9382,-119.5651 416.8462,-109.2905 423.5,-98 435.996,-76.7961 440.6997,-48.1486 442.4599,-30.7924"/><polygon fill="#191970" stroke="#191970" points="394.842 -125.403 389.34 -134.457 399.288 -130.81 394.842 -125.403"/></g><g id="node4" class="node"><title>Node38</title><g id="a_node4"><a target="_top" xlink:href="tiling__window__manager_8cpp.html" xlink:title="examples/example-server\l-lib/tiling_window_manager.cpp"><polygon fill="#fff" stroke="#000" points="244 -67.5 244 -97.5 415 -97.5 415 -67.5 244 -67.5"/><text x="252" y="-85.5" fill="#000" font-family="Arial" font-size="10" text-anchor="start">examples/example-server</text><text x="329.5" y="-74.5" fill="#000" font-family="Arial" font-size="10" text-anchor="middle">-lib/tiling_window_manager.cpp</text></a></g></g><g id="edge3" class="edge"><title>Node36-&gt;Node38</title><path fill="none" stroke="#191970" d="M353.8788,-125.4837C348.6132,-116.1996 342.747,-105.8565 338.0887,-97.6432"/><polygon fill="#191970" stroke="#191970" points="350.899 -127.325 358.877 -134.297 356.988 -123.872 350.899 -127.325"/></g><g id="node6" class="node"><title>Node40</title><g id="a_node6"><a target="_top" xlink:href="kiosk__window__manager_8h.html" xlink:title="examples/miral-kiosk\l/kiosk_window_manager.h"><polygon fill="#fff" stroke="#000" points="79.5 -67.5 79.5 -97.5 225.5 -97.5 225.5 -67.5 79.5 -67.5"/><text x="87.5" y="-85.5" fill="#000" font-family="Arial" font-size="10" text-anchor="start">examples/miral-kiosk</text><text x="152.5" y="-74.5" fill="#000" font-family="Arial" font-size="10" text-anchor="middle">/kiosk_window_manager.h</text></a></g></g><g id="edge5" class="edge"><title>Node39-&gt;Node40</title><path fill="none" stroke="#191970" d="M166.9558,-124.6103C163.8473,-115.5553 160.4298,-105.5998 157.6984,-97.6432"/><polygon fill="#191970" stroke="#191970" points="163.724 -125.975 170.281 -134.297 170.344 -123.702 163.724 -125.975"/></g><g id="node7" class="node"><title>Node41</title><g id="a_node7"><a target="_top" xlink:href="kiosk__main_8cpp.html" xlink:title="examples/miral-kiosk\l/kiosk_main.cpp"><polygon fill="#fff" stroke="#000" points="0 -.5 0 -30.5 123 -30.5 123 -.5 0 -.5"/><text x="8" y="-18.5" fill="#000" font-family="Arial" font-size="10" text-anchor="start">examples/miral-kiosk</text><text x="61.5" y="-7.5" fill="#000" font-family="Arial" font-size="10" text-anchor="middle">/kiosk_main.cpp</text></a></g></g><g id="edge6" class="edge"><title>Node40-&gt;Node41</title><path fill="none" stroke="#191970" d="M123.7697,-61.3469C110.2292,-51.3776 94.385,-39.7121 82.0676,-30.6432"/><polygon fill="#191970" stroke="#191970" points="121.723 -64.186 131.851 -67.297 125.873 -58.549 121.723 -64.186"/></g><g id="node8" class="node"><title>Node42</title><g id="a_node8"><a target="_top" xlink:href="kiosk__window__manager_8cpp.html" xlink:title="examples/miral-kiosk\l/kiosk_window_manager.cpp"><polygon fill="#fff" stroke="#000" points="141 -.5 141 -30.5 298 -30.5 298 -.5 141 -.5"/><text x="149" y="-18.5" fill="#000" font-family="Arial" font-size="10" text-anchor="start">examples/miral-kiosk</text><text x="219.5" y="-7.5" fill="#000" font-family="Arial" font-size="10" text-anchor="middle">/kiosk_window_manager.cpp</text></a></g></g><g id="edge7" class="edge"><title>Node40-&gt;Node42</title><path fill="none" stroke="#191970" d="M174.7887,-60.2113C184.4991,-50.5009 195.6302,-39.3698 204.3568,-30.6432"/><polygon fill="#191970" stroke="#191970" points="172.3 -57.751 167.703 -67.297 177.249 -62.7 172.3 -57.751"/></g><g id="node10" class="node"><title>Node44</title><g id="a_node10"><a target="_top" xlink:href="floating__window__manager_8h.html" xlink:title="examples/example-server\l-lib/floating_window_manager.h"><polygon fill="#fff" stroke="#000" points="471.5 -67.5 471.5 -97.5 643.5 -97.5 643.5 -67.5 471.5 -67.5"/><text x="479.5" y="-85.5" fill="#000" font-family="Arial" font-size="10" text-anchor="start">examples/example-server</text><text x="557.5" y="-74.5" fill="#000" font-family="Arial" font-size="10" text-anchor="middle">-lib/floating_window_manager.h</text></a></g></g><g id="edge9" class="edge"><title>Node43-&gt;Node44</title><path fill="none" stroke="#191970" d="M553.7551,-124.3179C554.559,-115.3414 555.439,-105.5143 556.1439,-97.6432"/><polygon fill="#191970" stroke="#191970" points="550.268 -124.024 552.861 -134.297 557.24 -124.649 550.268 -124.024"/></g><g id="edge10" class="edge"><title>Node44-&gt;Node37</title><path fill="none" stroke="#191970" d="M523.2253,-62.3561C505.9439,-52.1995 485.33,-40.0843 469.3929,-30.7177"/><polygon fill="#191970" stroke="#191970" points="521.521 -65.414 531.916 -67.464 525.068 -59.38 521.521 -65.414"/></g><g id="node11" class="node"><title>Node45</title><g id="a_node11"><a target="_top" xlink:href="floating__window__manager_8cpp.html" xlink:title="examples/example-server\l-lib/floating_window_manager.cpp"><polygon fill="#fff" stroke="#000" points="522 -.5 522 -30.5 705 -30.5 705 -.5 522 -.5"/><text x="530" y="-18.5" fill="#000" font-family="Arial" font-size="10" text-anchor="start">examples/example-server</text><text x="613.5" y="-7.5" fill="#000" font-family="Arial" font-size="10" text-anchor="middle">-lib/floating_window_manager.cpp</text></a></g></g><g id="edge11" class="edge"><title>Node44-&gt;Node45</title><path fill="none" stroke="#191970" d="M576.8485,-59.3509C584.7911,-49.8482 593.7636,-39.1132 600.843,-30.6432"/><polygon fill="#191970" stroke="#191970" points="573.935 -57.379 570.207 -67.297 579.306 -61.868 573.935 -57.379"/></g></g></svg>